<svg width="24" height="24" viewBox="0 0 24 24" fill="none" xmlns="http://www.w3.org/2000/svg">
<g clip-path="url(#clip0_115_734)">
<path opacity="0.972" fill-rule="evenodd" clip-rule="evenodd" d="M5.32029 -0.0234375C5.7109 -0.0234375 6.10156 -0.0234375 6.49217 -0.0234375C8.31148 0.358856 9.88179 1.20261 11.2031 2.50781C11.9206 3.59034 11.6784 4.39503 10.4765 4.92188C8.92034 5.46952 7.32659 5.61014 5.69529 5.34375C3.69337 4.93744 2.90431 3.7421 3.3281 1.75781C3.63405 0.756225 4.29812 0.162473 5.32029 -0.0234375ZM5.55467 1.80469C6.59173 1.81441 7.54484 2.10347 8.41404 2.67188C8.74292 2.86754 9.05543 3.08629 9.35154 3.32812C8.33853 3.62901 7.30728 3.70713 6.25779 3.5625C5.8211 3.51616 5.43832 3.3521 5.10935 3.07031C5.00515 2.7165 5.03642 2.37275 5.2031 2.03906C5.30482 1.93017 5.42201 1.85205 5.55467 1.80469Z" fill="white"/>
<path opacity="0.972" fill-rule="evenodd" clip-rule="evenodd" d="M17.5078 -0.0234375C17.8984 -0.0234375 18.2891 -0.0234375 18.6797 -0.0234375C19.8843 0.267634 20.5797 1.03326 20.7656 2.27344C20.9181 3.58846 20.3947 4.51815 19.1953 5.0625C18.4035 5.36503 17.5832 5.49783 16.7344 5.46094C15.6652 5.48456 14.6261 5.3205 13.6172 4.96875C13.0008 4.77413 12.5867 4.37569 12.375 3.77344C12.3113 3.30943 12.4363 2.90318 12.75 2.55469C14.079 1.2222 15.665 0.362819 17.5078 -0.0234375ZM17.7422 1.80469C18.6811 1.68889 19.0639 2.09514 18.8906 3.02344C18.5566 3.33821 18.1582 3.5179 17.6953 3.5625C16.6464 3.70482 15.6151 3.6267 14.6016 3.32812C15.5409 2.59281 16.5877 2.08499 17.7422 1.80469Z" fill="white"/>
<path opacity="0.988" fill-rule="evenodd" clip-rule="evenodd" d="M1.42969 6.25781C4.58866 6.23484 7.74492 6.25828 10.8984 6.32812C10.9547 6.37045 10.9938 6.42511 11.0156 6.49218C11.0469 8.28904 11.0469 10.0859 11.0156 11.8828C10.9609 11.9375 10.9063 11.9922 10.8516 12.0469C7.69533 12.0781 4.53906 12.0781 1.38281 12.0469C0.908259 11.962 0.603572 11.6886 0.46875 11.2266C0.4375 9.85157 0.4375 8.47654 0.46875 7.10156C0.637744 6.64326 0.958055 6.36201 1.42969 6.25781Z" fill="white"/>
<path opacity="0.988" fill-rule="evenodd" clip-rule="evenodd" d="M13.1484 6.25782C16.2735 6.24999 19.3985 6.25782 22.5234 6.28126C23.0031 6.37041 23.3234 6.64383 23.4844 7.10157C23.5157 8.47655 23.5157 9.85158 23.4844 11.2266C23.3496 11.6886 23.0449 11.962 22.5703 12.0469C19.3958 12.0933 16.2239 12.0776 13.0547 12C13.0157 11.961 12.9766 11.9219 12.9375 11.8828C12.9062 10.0703 12.9062 8.25783 12.9375 6.44532C13.003 6.37173 13.0733 6.30919 13.1484 6.25782Z" fill="white"/>
<path opacity="0.996" fill-rule="evenodd" clip-rule="evenodd" d="M10.9452 23.9766C8.1327 23.9766 5.3202 23.9766 2.5077 23.9766C2.1336 23.8289 1.87579 23.5633 1.73427 23.1797C1.68789 20.1145 1.70352 17.052 1.78114 13.9922C1.92167 13.6329 2.17949 13.4064 2.55458 13.3125C5.3046 13.2812 8.05456 13.2812 10.8046 13.3125C10.9062 13.3515 10.9765 13.4219 11.0155 13.5234C11.0468 16.9609 11.0468 20.3984 11.0155 23.8359C10.9915 23.8841 10.968 23.9309 10.9452 23.9766Z" fill="white"/>
<path opacity="0.996" fill-rule="evenodd" clip-rule="evenodd" d="M21.4453 23.9766C18.6328 23.9766 15.8203 23.9766 13.0078 23.9766C12.9946 23.9396 12.9711 23.9083 12.9375 23.8828C12.9062 20.4297 12.9062 16.9766 12.9375 13.5234C12.9766 13.4219 13.0469 13.3515 13.1484 13.3125C15.8985 13.2812 18.6484 13.2812 21.3984 13.3125C21.7735 13.4064 22.0314 13.6329 22.1719 13.9922C22.2495 17.0364 22.2651 20.0833 22.2188 23.1328C22.0977 23.5428 21.8399 23.8241 21.4453 23.9766Z" fill="white"/>
</g>
<defs>
<clipPath id="clip0_115_734">
<rect width="24" height="24" fill="white"/>
</clipPath>
</defs>
</svg>
