<?xml version="1.0" encoding="UTF-8"?>
<!DOCTYPE svg PUBLIC "-//W3C//DTD SVG 1.1//EN" "http://www.w3.org/Graphics/SVG/1.1/DTD/svg11.dtd">
<svg xmlns="http://www.w3.org/2000/svg" version="1.1" width="82px" height="117px" style="shape-rendering:geometricPrecision; text-rendering:geometricPrecision; image-rendering:optimizeQuality; fill-rule:evenodd; clip-rule:evenodd" xmlns:xlink="http://www.w3.org/1999/xlink">
<g><path style="opacity:1" fill="#fdcd15" d="M 4.5,-0.5 C 8.83333,-0.5 13.1667,-0.5 17.5,-0.5C 26.0035,0.362486 34.6702,1.02915 43.5,1.5C 41.2083,2.33951 38.875,3.33951 36.5,4.5C 38.9913,5.54072 38.9913,6.37405 36.5,7C 38.5,7 40.5,7 42.5,7C 39.2643,9.25814 38.2643,12.0915 39.5,15.5C 38.1526,14.9717 36.8193,14.805 35.5,15C 34.1667,15.6667 34.1667,16.3333 35.5,17C 34.354,17.6449 33.354,18.4783 32.5,19.5C 31.0083,17.8435 29.3416,16.3435 27.5,15C 28.5,14.1667 29.5,13.3333 30.5,12.5C 24.8976,11.2662 19.231,10.4329 13.5,10C 10.9194,7.77082 7.91944,6.60415 4.5,6.5C 4.5,4.16667 4.5,1.83333 4.5,-0.5 Z"/></g>
<g><path style="opacity:1" fill="#fdcc1d" d="M 43.5,1.5 C 55.5,1.5 67.5,1.5 79.5,1.5C 79.5,11.5 79.5,21.5 79.5,31.5C 79.6663,38.8409 79.4997,46.1742 79,53.5C 78.7398,51.3825 77.7398,49.7158 76,48.5C 75.4604,50.1346 75.9604,51.4679 77.5,52.5C 76.675,53.3857 75.675,53.719 74.5,53.5C 71.7628,53.4013 69.0961,53.7347 66.5,54.5C 66.6107,53.8826 66.944,53.3826 67.5,53C 69.8098,52.5034 72.1432,52.3367 74.5,52.5C 74.8956,49.5178 74.2289,46.8511 72.5,44.5C 70.9052,43.5661 69.2385,43.5661 67.5,44.5C 69.6507,41.8486 71.984,39.3486 74.5,37C 71.1956,33.6831 67.5289,30.8497 63.5,28.5C 63.7373,27.209 63.404,26.209 62.5,25.5C 62.0269,24.0937 61.0269,23.427 59.5,23.5C 57.3896,20.9975 55.3896,20.9975 53.5,23.5C 50.1578,20.0078 47.1578,16.1745 44.5,12C 42.7746,12.7487 41.1079,13.9154 39.5,15.5C 38.2643,12.0915 39.2643,9.25814 42.5,7C 40.5,7 38.5,7 36.5,7C 38.9913,6.37405 38.9913,5.54072 36.5,4.5C 38.875,3.33951 41.2083,2.33951 43.5,1.5 Z"/></g>
<g><path style="opacity:1" fill="#fdcb10" d="M 4.5,6.5 C 7.91944,6.60415 10.9194,7.77082 13.5,10C 19.231,10.4329 24.8976,11.2662 30.5,12.5C 29.5,13.3333 28.5,14.1667 27.5,15C 29.3416,16.3435 31.0083,17.8435 32.5,19.5C 33.354,18.4783 34.354,17.6449 35.5,17C 34.1667,16.3333 34.1667,15.6667 35.5,15C 36.8193,14.805 38.1526,14.9717 39.5,15.5C 38.2628,18.2446 36.4295,20.5779 34,22.5C 32.9914,24.0249 32.4914,25.6916 32.5,27.5C 31.0652,26.2102 30.0652,24.5435 29.5,22.5C 27.5,23.5 25.5,24.5 23.5,25.5C 22.6143,26.325 22.281,27.325 22.5,28.5C 18.7961,27.7912 15.7961,29.1245 13.5,32.5C 11.9382,32.7329 10.6049,33.3995 9.5,34.5C 8.16667,35.5 6.83333,36.5 5.5,37.5C 4.50577,27.3468 4.17244,17.0135 4.5,6.5 Z"/></g>
<g><path style="opacity:0.935" fill="#e3cd46" d="M 17.5,-0.5 C 31.8333,-0.5 46.1667,-0.5 60.5,-0.5C 67.4001,0.199346 74.4001,0.866013 81.5,1.5C 81.5,36.5 81.5,71.5 81.5,106.5C 81.1667,106.5 80.8333,106.5 80.5,106.5C 80.831,81.3278 80.4977,56.3278 79.5,31.5C 79.5,21.5 79.5,11.5 79.5,1.5C 67.5,1.5 55.5,1.5 43.5,1.5C 34.6702,1.02915 26.0035,0.362486 17.5,-0.5 Z"/></g>
<g><path style="opacity:1" fill="#f22518" d="M 53.5,23.5 C 52.5448,25.7457 51.8782,28.079 51.5,30.5C 51.631,31.2389 51.4643,31.9056 51,32.5C 45.9494,31.3801 40.7827,31.3801 35.5,32.5C 33.8828,33.038 32.2161,33.3713 30.5,33.5C 30.5,33.1667 30.5,32.8333 30.5,32.5C 31.209,31.596 32.209,31.2627 33.5,31.5C 33.5674,30.0413 33.2341,28.7079 32.5,27.5C 32.4914,25.6916 32.9914,24.0249 34,22.5C 36.4295,20.5779 38.2628,18.2446 39.5,15.5C 41.1079,13.9154 42.7746,12.7487 44.5,12C 47.1578,16.1745 50.1578,20.0078 53.5,23.5 Z"/></g>
<g><path style="opacity:1" fill="#fce11b" d="M 32.5,27.5 C 33.2341,28.7079 33.5674,30.0413 33.5,31.5C 32.209,31.2627 31.209,31.596 30.5,32.5C 28.9557,32.7031 27.6223,33.3698 26.5,34.5C 24.6631,32.8236 23.3298,30.8236 22.5,28.5C 22.281,27.325 22.6143,26.325 23.5,25.5C 25.5,24.5 27.5,23.5 29.5,22.5C 30.0652,24.5435 31.0652,26.2102 32.5,27.5 Z"/></g>
<g><path style="opacity:1" fill="#bbc46f" d="M 59.5,23.5 C 61.0269,23.427 62.0269,24.0937 62.5,25.5C 60.9731,25.573 59.9731,24.9063 59.5,23.5 Z"/></g>
<g><path style="opacity:1" fill="#4f98b7" d="M 59.5,23.5 C 59.9731,24.9063 60.9731,25.573 62.5,25.5C 63.404,26.209 63.7373,27.209 63.5,28.5C 62.8333,28.5 62.5,28.8333 62.5,29.5C 61.0687,30.7804 60.4021,32.4471 60.5,34.5C 57.122,33.9769 54.122,32.6435 51.5,30.5C 51.8782,28.079 52.5448,25.7457 53.5,23.5C 55.3896,20.9975 57.3896,20.9975 59.5,23.5 Z"/></g>
<g><path style="opacity:1" fill="#e68f04" d="M 3.5,0.5 C 3.83184,38.6703 3.49851,76.6703 2.5,114.5C 2.16667,114.5 1.83333,114.5 1.5,114.5C 0.345889,76.8748 0.179223,39.2082 1,1.5C 1.67076,0.747561 2.5041,0.414228 3.5,0.5 Z"/></g>
<g><path style="opacity:1" fill="#b11f07" d="M 22.5,28.5 C 23.3298,30.8236 24.6631,32.8236 26.5,34.5C 27.6223,33.3698 28.9557,32.7031 30.5,32.5C 30.5,32.8333 30.5,33.1667 30.5,33.5C 29.5,33.8333 28.8333,34.5 28.5,35.5C 26.5887,36.075 24.922,37.075 23.5,38.5C 23.0629,36.9256 22.0629,35.7589 20.5,35C 18.3476,33.5873 16.0143,32.7539 13.5,32.5C 15.7961,29.1245 18.7961,27.7912 22.5,28.5 Z"/></g>
<g><path style="opacity:1" fill="#b82b29" d="M 62.5,29.5 C 62.6427,31.2624 62.3094,32.9291 61.5,34.5C 59.0312,35.1681 56.6979,35.8347 54.5,36.5C 51.7378,35.6205 49.0711,34.4538 46.5,33C 42.8484,32.5014 39.1817,32.3347 35.5,32.5C 40.7827,31.3801 45.9494,31.3801 51,32.5C 51.4643,31.9056 51.631,31.2389 51.5,30.5C 54.122,32.6435 57.122,33.9769 60.5,34.5C 60.4021,32.4471 61.0687,30.7804 62.5,29.5 Z"/></g>
<g><path style="opacity:1" fill="#f12a19" d="M 63.5,28.5 C 67.5289,30.8497 71.1956,33.6831 74.5,37C 71.984,39.3486 69.6507,41.8486 67.5,44.5C 65.5648,45.1495 63.5648,45.4828 61.5,45.5C 59.5727,42.2327 57.2394,39.2327 54.5,36.5C 56.6979,35.8347 59.0312,35.1681 61.5,34.5C 62.3094,32.9291 62.6427,31.2624 62.5,29.5C 62.5,28.8333 62.8333,28.5 63.5,28.5 Z"/></g>
<g><path style="opacity:1" fill="#40708c" d="M 35.5,32.5 C 39.1817,32.3347 42.8484,32.5014 46.5,33C 49.0711,34.4538 51.7378,35.6205 54.5,36.5C 57.2394,39.2327 59.5727,42.2327 61.5,45.5C 60.8333,45.5 60.5,45.8333 60.5,46.5C 60.1667,46.5 59.8333,46.5 59.5,46.5C 52.5091,35.1514 42.8424,31.4848 30.5,35.5C 29.8333,35.5 29.1667,35.5 28.5,35.5C 28.8333,34.5 29.5,33.8333 30.5,33.5C 32.2161,33.3713 33.8828,33.038 35.5,32.5 Z"/></g>
<g><path style="opacity:0.18" fill="#ca922a" d="M 0.5,-0.5 C 1.5,-0.5 2.5,-0.5 3.5,-0.5C 3.5,-0.166667 3.5,0.166667 3.5,0.5C 2.5041,0.414228 1.67076,0.747561 1,1.5C 0.179223,39.2082 0.345889,76.8748 1.5,114.5C 0.833333,114.5 0.166667,114.5 -0.5,114.5C -0.5,76.5 -0.5,38.5 -0.5,0.5C 0.166667,0.5 0.5,0.166667 0.5,-0.5 Z"/></g>
<g><path style="opacity:1" fill="#e7170f" d="M 13.5,32.5 C 16.0143,32.7539 18.3476,33.5873 20.5,35C 22.0629,35.7589 23.0629,36.9256 23.5,38.5C 21.1394,40.1939 19.1394,42.1939 17.5,44.5C 13.6616,42.0063 10.9949,38.673 9.5,34.5C 10.6049,33.3995 11.9382,32.7329 13.5,32.5 Z"/></g>
<g><path style="opacity:1" fill="#211d26" d="M 36.5,42.5 C 39.2788,42.2786 41.9455,42.612 44.5,43.5C 43.9935,44.8589 42.9935,45.8589 41.5,46.5C 44.5914,47.9773 47.5914,49.6439 50.5,51.5C 52.415,53.0712 53.415,55.0712 53.5,57.5C 52.5884,55.9113 50.9217,54.2446 48.5,52.5C 44.1699,49.3775 39.5032,48.3775 34.5,49.5C 33.1861,52.277 32.1861,55.277 31.5,58.5C 30.1582,55.6794 29.4916,55.8461 29.5,59C 29.6448,60.2259 29.9781,61.3926 30.5,62.5C 33.1239,63.7953 35.4573,65.462 37.5,67.5C 39.9717,68.6421 40.9717,70.6421 40.5,73.5C 38.8333,73.5 37.1667,73.5 35.5,73.5C 26.6114,65.9435 25.278,57.2769 31.5,47.5C 32.8606,45.4727 34.5273,43.806 36.5,42.5 Z"/></g>
<g><path style="opacity:1" fill="#fbe01e" d="M 66.5,54.5 C 65.1667,54.5 63.8333,54.5 62.5,54.5C 61.5,54.5 60.5,54.5 59.5,54.5C 59.5668,52.5992 59.2335,50.7659 58.5,49C 59.0556,47.9889 59.7222,47.1556 60.5,46.5C 60.5,45.8333 60.8333,45.5 61.5,45.5C 63.5648,45.4828 65.5648,45.1495 67.5,44.5C 69.2385,43.5661 70.9052,43.5661 72.5,44.5C 74.2289,46.8511 74.8956,49.5178 74.5,52.5C 72.1432,52.3367 69.8098,52.5034 67.5,53C 66.944,53.3826 66.6107,53.8826 66.5,54.5 Z"/></g>
<g><path style="opacity:1" fill="#455060" d="M 44.5,43.5 C 51.2464,45.6394 54.5798,50.3061 54.5,57.5C 54.1667,57.5 53.8333,57.5 53.5,57.5C 53.415,55.0712 52.415,53.0712 50.5,51.5C 47.5914,49.6439 44.5914,47.9773 41.5,46.5C 42.9935,45.8589 43.9935,44.8589 44.5,43.5 Z"/></g>
<g><path style="opacity:1" fill="#c7958e" d="M 34.5,49.5 C 39.5032,48.3775 44.1699,49.3775 48.5,52.5C 43.8273,51.4972 39.1606,50.4972 34.5,49.5 Z"/></g>
<g><path style="opacity:1" fill="#d3d44a" d="M 59.5,46.5 C 59.8333,46.5 60.1667,46.5 60.5,46.5C 59.7222,47.1556 59.0556,47.9889 58.5,49C 59.2335,50.7659 59.5668,52.5992 59.5,54.5C 60.5,54.5 61.5,54.5 62.5,54.5C 61.4324,55.4345 60.099,55.7678 58.5,55.5C 58.405,53.2143 57.7384,51.2143 56.5,49.5C 56.5,47.5 57.5,46.5 59.5,46.5 Z"/></g>
<g><path style="opacity:1" fill="#29a2c9" d="M 28.5,35.5 C 29.1667,35.5 29.8333,35.5 30.5,35.5C 30.33,36.8221 30.6634,37.9887 31.5,39C 30.552,39.4828 29.552,39.6495 28.5,39.5C 27.9387,41.908 27.4387,44.2413 27,46.5C 29.1847,45.0716 31.1847,43.4049 33,41.5C 34.0113,42.3366 35.1779,42.67 36.5,42.5C 34.5273,43.806 32.8606,45.4727 31.5,47.5C 21.2372,55.0129 20.9039,63.1796 30.5,72C 32.0249,73.0086 33.6916,73.5086 35.5,73.5C 37.1667,73.5 38.8333,73.5 40.5,73.5C 40.5858,74.4959 40.2524,75.3292 39.5,76C 36.9746,76.4238 34.9746,77.5905 33.5,79.5C 33.1667,79.5 32.8333,79.5 32.5,79.5C 32.5654,79.0618 32.3988,78.7284 32,78.5C 30.0083,79.6647 28.175,80.998 26.5,82.5C 19.5374,78.6009 15.5374,72.6009 14.5,64.5C 14.4126,59.4635 14.746,54.4635 15.5,49.5C 15.8925,47.7162 16.5592,46.0495 17.5,44.5C 19.1394,42.1939 21.1394,40.1939 23.5,38.5C 24.922,37.075 26.5887,36.075 28.5,35.5 Z"/></g>
<g><path style="opacity:1" fill="#55754d" d="M 56.5,49.5 C 57.7384,51.2143 58.405,53.2143 58.5,55.5C 60.099,55.7678 61.4324,55.4345 62.5,54.5C 63.8333,54.5 65.1667,54.5 66.5,54.5C 66.5,55.5 66.5,56.5 66.5,57.5C 66.5,60.5 66.5,63.5 66.5,66.5C 66.1667,66.5 65.8333,66.5 65.5,66.5C 65.8226,62.774 65.4892,59.1073 64.5,55.5C 62.2534,56.3742 59.9201,56.7076 57.5,56.5C 57.0074,54.1944 56.6741,51.861 56.5,49.5 Z"/></g>
<g><path style="opacity:1" fill="#c87009" d="M 74.5,53.5 C 72.4691,55.755 69.8025,57.0884 66.5,57.5C 66.5,56.5 66.5,55.5 66.5,54.5C 69.0961,53.7347 71.7628,53.4013 74.5,53.5 Z"/></g>
<g><path style="opacity:1" fill="#1e6b87" d="M 56.5,49.5 C 56.6741,51.861 57.0074,54.1944 57.5,56.5C 59.9201,56.7076 62.2534,56.3742 64.5,55.5C 65.4892,59.1073 65.8226,62.774 65.5,66.5C 64.1766,68.7623 62.8432,71.0956 61.5,73.5C 61.8627,74.1835 62.1961,74.8501 62.5,75.5C 60.9731,75.427 59.9731,76.0937 59.5,77.5C 58.5,78.8333 57.5,80.1667 56.5,81.5C 56.1667,81.5 55.8333,81.5 55.5,81.5C 54.8333,81.8333 54.1667,82.1667 53.5,82.5C 53.1667,81.8333 52.8333,81.1667 52.5,80.5C 55.7212,79.1183 58.2212,76.7849 60,73.5C 62.6816,68.8169 64.1816,63.8169 64.5,58.5C 61.5448,59.1587 58.5448,59.4921 55.5,59.5C 55.1872,55.9581 55.5206,52.6248 56.5,49.5 Z"/></g>
<g><path style="opacity:1" fill="#8a8158" d="M 15.5,49.5 C 14.746,54.4635 14.4126,59.4635 14.5,64.5C 13.838,62.6965 13.5046,60.6965 13.5,58.5C 13.3425,55.1864 14.0092,52.1864 15.5,49.5 Z"/></g>
<g><path style="opacity:1" fill="#125e7f" d="M 31.5,47.5 C 25.278,57.2769 26.6114,65.9435 35.5,73.5C 33.6916,73.5086 32.0249,73.0086 30.5,72C 20.9039,63.1796 21.2372,55.0129 31.5,47.5 Z"/></g>
<g><path style="opacity:1" fill="#d7c4bd" d="M 34.5,49.5 C 33.6789,52.5535 33.6789,55.5535 34.5,58.5C 35.3107,56.6091 36.6441,55.2758 38.5,54.5C 40.6568,55.9664 40.9901,57.7997 39.5,60C 38.2068,60.49 36.8734,60.6567 35.5,60.5C 35.8844,62.9294 36.551,65.2627 37.5,67.5C 35.4573,65.462 33.1239,63.7953 30.5,62.5C 29.9781,61.3926 29.6448,60.2259 29.5,59C 29.4916,55.8461 30.1582,55.6794 31.5,58.5C 32.1861,55.277 33.1861,52.277 34.5,49.5 Z"/></g>
<g><path style="opacity:1" fill="#f2e1d7" d="M 34.5,49.5 C 39.1606,50.4972 43.8273,51.4972 48.5,52.5C 50.9217,54.2446 52.5884,55.9113 53.5,57.5C 53.8333,57.5 54.1667,57.5 54.5,57.5C 54.9717,60.3579 53.9717,62.3579 51.5,63.5C 49.7427,66.4235 47.2427,68.4235 44,69.5C 43.51,70.7932 43.3433,72.1266 43.5,73.5C 45.6458,75.342 47.9791,77.0087 50.5,78.5C 44.8644,80.6893 39.1977,81.0226 33.5,79.5C 34.9746,77.5905 36.9746,76.4238 39.5,76C 40.2524,75.3292 40.5858,74.4959 40.5,73.5C 40.9717,70.6421 39.9717,68.6421 37.5,67.5C 36.551,65.2627 35.8844,62.9294 35.5,60.5C 36.8734,60.6567 38.2068,60.49 39.5,60C 40.9901,57.7997 40.6568,55.9664 38.5,54.5C 36.6441,55.2758 35.3107,56.6091 34.5,58.5C 33.6789,55.5535 33.6789,52.5535 34.5,49.5 Z"/></g>
<g><path style="opacity:1" fill="#86827a" d="M 45.5,57.5 C 47.1992,57.3398 48.8659,57.5065 50.5,58C 48.4153,60.1391 46.7487,59.9725 45.5,57.5 Z"/></g>
<g><path style="opacity:1" fill="#d66a63" d="M 40.5,64.5 C 41.9778,64.238 43.3112,64.5713 44.5,65.5C 43.8333,65.8333 43.1667,66.1667 42.5,66.5C 41.2867,66.2528 40.62,65.5862 40.5,64.5 Z"/></g>
<g><path style="opacity:0.989" fill="#f7c019" d="M 79.5,31.5 C 80.4977,56.3278 80.831,81.3278 80.5,106.5C 79.5655,105.432 79.2322,104.099 79.5,102.5C 79.6664,94.4931 79.4997,86.4931 79,78.5C 78.6924,79.3081 78.1924,79.9747 77.5,80.5C 76.4763,79.1468 75.143,78.4802 73.5,78.5C 73.6495,77.448 73.4828,76.448 73,75.5C 72.7645,77.1193 71.9311,78.1193 70.5,78.5C 71.4866,75.8544 72.4866,73.1878 73.5,70.5C 72.9953,69.0815 71.9953,68.4148 70.5,68.5C 68.847,68.3404 67.5137,67.6737 66.5,66.5C 66.5,63.5 66.5,60.5 66.5,57.5C 69.8025,57.0884 72.4691,55.755 74.5,53.5C 75.675,53.719 76.675,53.3857 77.5,52.5C 75.9604,51.4679 75.4604,50.1346 76,48.5C 77.7398,49.7158 78.7398,51.3825 79,53.5C 79.4997,46.1742 79.6663,38.8409 79.5,31.5 Z"/></g>
<g><path style="opacity:1" fill="#2c2a31" d="M 51.5,63.5 C 52.6129,64.9464 52.7796,66.6131 52,68.5C 49.6824,71.0744 46.849,72.741 43.5,73.5C 43.3433,72.1266 43.51,70.7932 44,69.5C 47.2427,68.4235 49.7427,66.4235 51.5,63.5 Z"/></g>
<g><path style="opacity:1" fill="#28a6ce" d="M 59.5,46.5 C 57.5,46.5 56.5,47.5 56.5,49.5C 55.5206,52.6248 55.1872,55.9581 55.5,59.5C 58.5448,59.4921 61.5448,59.1587 64.5,58.5C 64.1816,63.8169 62.6816,68.8169 60,73.5C 58.2212,76.7849 55.7212,79.1183 52.5,80.5C 52.5,79.1667 51.8333,78.5 50.5,78.5C 47.9791,77.0087 45.6458,75.342 43.5,73.5C 46.849,72.741 49.6824,71.0744 52,68.5C 52.7796,66.6131 52.6129,64.9464 51.5,63.5C 53.9717,62.3579 54.9717,60.3579 54.5,57.5C 54.5798,50.3061 51.2464,45.6394 44.5,43.5C 41.9455,42.612 39.2788,42.2786 36.5,42.5C 35.1779,42.67 34.0113,42.3366 33,41.5C 31.1847,43.4049 29.1847,45.0716 27,46.5C 27.4387,44.2413 27.9387,41.908 28.5,39.5C 29.552,39.6495 30.552,39.4828 31.5,39C 30.6634,37.9887 30.33,36.8221 30.5,35.5C 42.8424,31.4848 52.5091,35.1514 59.5,46.5 Z"/></g>
<g><path style="opacity:1" fill="#5fa9a5" d="M 70.5,68.5 C 71.9953,68.4148 72.9953,69.0815 73.5,70.5C 72.4866,73.1878 71.4866,75.8544 70.5,78.5C 70.1667,78.5 69.8333,78.5 69.5,78.5C 68.5084,78.6716 67.8417,78.3382 67.5,77.5C 69.1168,75.6996 70.4502,73.5329 71.5,71C 71.2568,70.0979 70.9234,69.2646 70.5,68.5 Z"/></g>
<g><path style="opacity:1" fill="#fdc006" d="M 5.5,39.5 C 8.0946,41.8159 10.7613,44.1492 13.5,46.5C 7.73693,62.1144 11.0703,75.4477 23.5,86.5C 21.5248,89.8049 19.1915,92.8049 16.5,95.5C 13.075,94.8769 9.74162,95.5436 6.5,97.5C 6.72433,95.1398 6.05766,92.8065 4.5,90.5C 4.17008,73.3251 4.50341,56.3251 5.5,39.5 Z"/></g>
<g><path style="opacity:1" fill="#2eaccf" d="M 65.5,66.5 C 65.8333,66.5 66.1667,66.5 66.5,66.5C 67.5137,67.6737 68.847,68.3404 70.5,68.5C 70.9234,69.2646 71.2568,70.0979 71.5,71C 70.4502,73.5329 69.1168,75.6996 67.5,77.5C 67.1667,77.5 66.8333,77.5 66.5,77.5C 66.0269,76.0937 65.0269,75.427 63.5,75.5C 63.1667,75.5 62.8333,75.5 62.5,75.5C 62.1961,74.8501 61.8627,74.1835 61.5,73.5C 62.8432,71.0956 64.1766,68.7623 65.5,66.5 Z"/></g>
<g><path style="opacity:1" fill="#574a5d" d="M 63.5,75.5 C 65.0269,75.427 66.0269,76.0937 66.5,77.5C 64.9731,77.573 63.9731,76.9063 63.5,75.5 Z"/></g>
<g><path style="opacity:1" fill="#830c0f" d="M 62.5,75.5 C 62.8333,75.5 63.1667,75.5 63.5,75.5C 63.9731,76.9063 64.9731,77.573 66.5,77.5C 66.8333,77.5 67.1667,77.5 67.5,77.5C 67.8417,78.3382 68.5084,78.6716 69.5,78.5C 69.2648,79.0967 68.7648,79.4301 68,79.5C 65.2094,78.5938 62.3761,77.9272 59.5,77.5C 59.9731,76.0937 60.9731,75.427 62.5,75.5 Z"/></g>
<g><path style="opacity:1" fill="#fdb604" d="M 79.5,102.5 C 77.7376,102.643 76.0709,102.309 74.5,101.5C 73.2011,102.09 72.3678,103.09 72,104.5C 65.3917,104.041 58.8917,102.874 52.5,101C 53.9344,98.779 55.9344,97.279 58.5,96.5C 58.9137,94.0808 59.9137,92.0808 61.5,90.5C 62.4959,90.5858 63.3292,90.2524 64,89.5C 66.4206,85.9291 68.5873,82.2625 70.5,78.5C 71.9311,78.1193 72.7645,77.1193 73,75.5C 73.4828,76.448 73.6495,77.448 73.5,78.5C 75.143,78.4802 76.4763,79.1468 77.5,80.5C 78.1924,79.9747 78.6924,79.3081 79,78.5C 79.4997,86.4931 79.6664,94.4931 79.5,102.5 Z"/></g>
<g><path style="opacity:1" fill="#dd150f" d="M 59.5,77.5 C 62.3761,77.9272 65.2094,78.5938 68,79.5C 68.7648,79.4301 69.2648,79.0967 69.5,78.5C 69.8333,78.5 70.1667,78.5 70.5,78.5C 68.5873,82.2625 66.4206,85.9291 64,89.5C 63.3292,90.2524 62.4959,90.5858 61.5,90.5C 61.5,90.1667 61.5,89.8333 61.5,89.5C 61.9382,89.5654 62.2716,89.3988 62.5,89C 59.8823,86.8943 57.8823,84.3943 56.5,81.5C 57.5,80.1667 58.5,78.8333 59.5,77.5 Z"/></g>
<g><path style="opacity:1" fill="#f1a708" d="M 3.5,-0.5 C 3.83333,-0.5 4.16667,-0.5 4.5,-0.5C 4.5,1.83333 4.5,4.16667 4.5,6.5C 4.17244,17.0135 4.50577,27.3468 5.5,37.5C 5.5,38.1667 5.5,38.8333 5.5,39.5C 4.50341,56.3251 4.17008,73.3251 4.5,90.5C 4.5,98.5 4.5,106.5 4.5,114.5C 6.16667,114.5 7.83333,114.5 9.5,114.5C 7.16667,115.833 4.83333,115.833 2.5,114.5C 3.49851,76.6703 3.83184,38.6703 3.5,0.5C 3.5,0.166667 3.5,-0.166667 3.5,-0.5 Z"/></g>
<g><path style="opacity:1" fill="#29272f" d="M 50.5,78.5 C 51.8333,78.5 52.5,79.1667 52.5,80.5C 52.8333,81.1667 53.1667,81.8333 53.5,82.5C 51.3428,84.4121 49.0094,86.0787 46.5,87.5C 42.1667,87.5 37.8333,87.5 33.5,87.5C 32.8333,86.8333 32.1667,86.1667 31.5,85.5C 31.3253,83.3792 31.6586,81.3792 32.5,79.5C 32.8333,79.5 33.1667,79.5 33.5,79.5C 39.1977,81.0226 44.8644,80.6893 50.5,78.5 Z"/></g>
<g><path style="opacity:1" fill="#1e5b75" d="M 32.5,79.5 C 31.6586,81.3792 31.3253,83.3792 31.5,85.5C 29.8333,84.8333 28.1667,84.1667 26.5,83.5C 26.5,83.1667 26.5,82.8333 26.5,82.5C 28.175,80.998 30.0083,79.6647 32,78.5C 32.3988,78.7284 32.5654,79.0618 32.5,79.5 Z"/></g>
<g><path style="opacity:1" fill="#864e21" d="M 33.5,87.5 C 37.8333,87.5 42.1667,87.5 46.5,87.5C 46.5,87.8333 46.5,88.1667 46.5,88.5C 41.706,87.9031 37.3727,88.5698 33.5,90.5C 33.1667,90.5 32.8333,90.5 32.5,90.5C 32.2627,89.209 32.596,88.209 33.5,87.5 Z"/></g>
<g><path style="opacity:1" fill="#6f120b" d="M 55.5,81.5 C 55.8333,81.5 56.1667,81.5 56.5,81.5C 57.8823,84.3943 59.8823,86.8943 62.5,89C 62.2716,89.3988 61.9382,89.5654 61.5,89.5C 60.3951,88.3995 59.0618,87.7329 57.5,87.5C 56.2702,85.7028 55.6036,83.7028 55.5,81.5 Z"/></g>
<g><path style="opacity:1" fill="#f9f4e9" d="M 26.5,83.5 C 28.1667,84.1667 29.8333,84.8333 31.5,85.5C 32.1667,86.1667 32.8333,86.8333 33.5,87.5C 32.596,88.209 32.2627,89.209 32.5,90.5C 31.8999,91.9002 30.8999,92.9002 29.5,93.5C 27.1475,92.6597 25.1475,91.3264 23.5,89.5C 24.5588,87.4664 25.5588,85.4664 26.5,83.5 Z"/></g>
<g><path style="opacity:1" fill="#fcb604" d="M 4.5,90.5 C 6.05766,92.8065 6.72433,95.1398 6.5,97.5C 9.74162,95.5436 13.075,94.8769 16.5,95.5C 17.3339,96.7479 18.6672,97.4146 20.5,97.5C 24.2457,97.454 27.2457,96.1206 29.5,93.5C 30.8999,92.9002 31.8999,91.9002 32.5,90.5C 32.8333,90.5 33.1667,90.5 33.5,90.5C 34.4972,90.4701 35.1639,90.9701 35.5,92C 33.9217,94.9684 33.255,98.1351 33.5,101.5C 36.0593,101.198 38.3926,101.532 40.5,102.5C 41.824,104.558 41.324,106.225 39,107.5C 37.6439,106.62 36.1439,106.286 34.5,106.5C 34.5,107.5 34.5,108.5 34.5,109.5C 30.8006,110.511 27.1339,110.511 23.5,109.5C 22.6143,110.325 22.281,111.325 22.5,112.5C 23.8333,112.5 25.1667,112.5 26.5,112.5C 20.8333,113.167 15.1667,113.833 9.5,114.5C 7.83333,114.5 6.16667,114.5 4.5,114.5C 4.5,106.5 4.5,98.5 4.5,90.5 Z"/></g>
<g><path style="opacity:1" fill="#d5760b" d="M 9.5,34.5 C 10.9949,38.673 13.6616,42.0063 17.5,44.5C 16.5592,46.0495 15.8925,47.7162 15.5,49.5C 14.0092,52.1864 13.3425,55.1864 13.5,58.5C 13.5046,60.6965 13.838,62.6965 14.5,64.5C 15.5374,72.6009 19.5374,78.6009 26.5,82.5C 26.5,82.8333 26.5,83.1667 26.5,83.5C 25.5588,85.4664 24.5588,87.4664 23.5,89.5C 25.1475,91.3264 27.1475,92.6597 29.5,93.5C 27.2457,96.1206 24.2457,97.454 20.5,97.5C 18.6672,97.4146 17.3339,96.7479 16.5,95.5C 19.1915,92.8049 21.5248,89.8049 23.5,86.5C 11.0703,75.4477 7.73693,62.1144 13.5,46.5C 10.7613,44.1492 8.0946,41.8159 5.5,39.5C 5.5,38.8333 5.5,38.1667 5.5,37.5C 6.83333,36.5 8.16667,35.5 9.5,34.5 Z"/></g>
<g><path style="opacity:1" fill="#3e4654" d="M 55.5,81.5 C 55.6036,83.7028 56.2702,85.7028 57.5,87.5C 57.5,87.8333 57.5,88.1667 57.5,88.5C 56.4542,93.2059 53.4542,95.8725 48.5,96.5C 47.8333,93.8333 47.1667,91.1667 46.5,88.5C 46.5,88.1667 46.5,87.8333 46.5,87.5C 49.0094,86.0787 51.3428,84.4121 53.5,82.5C 54.1667,82.1667 54.8333,81.8333 55.5,81.5 Z"/></g>
<g><path style="opacity:1" fill="#cc6606" d="M 46.5,88.5 C 47.1667,91.1667 47.8333,93.8333 48.5,96.5C 53.4542,95.8725 56.4542,93.2059 57.5,88.5C 58.8112,90.5598 58.8112,92.7265 57.5,95C 53.3702,97.1501 49.3702,99.4834 45.5,102C 43.8659,102.494 42.1992,102.66 40.5,102.5C 38.3926,101.532 36.0593,101.198 33.5,101.5C 33.255,98.1351 33.9217,94.9684 35.5,92C 35.1639,90.9701 34.4972,90.4701 33.5,90.5C 37.3727,88.5698 41.706,87.9031 46.5,88.5 Z"/></g>
<g><path style="opacity:1" fill="#fbb304" d="M 57.5,88.5 C 57.5,88.1667 57.5,87.8333 57.5,87.5C 59.0618,87.7329 60.3951,88.3995 61.5,89.5C 61.5,89.8333 61.5,90.1667 61.5,90.5C 59.9137,92.0808 58.9137,94.0808 58.5,96.5C 55.9344,97.279 53.9344,98.779 52.5,101C 58.8917,102.874 65.3917,104.041 72,104.5C 72.3678,103.09 73.2011,102.09 74.5,101.5C 76.0709,102.309 77.7376,102.643 79.5,102.5C 79.2322,104.099 79.5655,105.432 80.5,106.5C 80.8333,106.5 81.1667,106.5 81.5,106.5C 81.5,107.167 81.5,107.833 81.5,108.5C 68.7605,110.008 56.0939,111.341 43.5,112.5C 43.5,113.167 43.1667,113.5 42.5,113.5C 37.3595,112.512 32.0262,112.179 26.5,112.5C 25.1667,112.5 23.8333,112.5 22.5,112.5C 22.281,111.325 22.6143,110.325 23.5,109.5C 27.1339,110.511 30.8006,110.511 34.5,109.5C 34.5,108.5 34.5,107.5 34.5,106.5C 36.1439,106.286 37.6439,106.62 39,107.5C 41.324,106.225 41.824,104.558 40.5,102.5C 42.1992,102.66 43.8659,102.494 45.5,102C 49.3702,99.4834 53.3702,97.1501 57.5,95C 58.8112,92.7265 58.8112,90.5598 57.5,88.5 Z"/></g>
<g><path style="opacity:0.557" fill="#e8b92f" d="M 81.5,108.5 C 81.5,109.167 81.5,109.833 81.5,110.5C 68.9153,111.639 56.2486,112.306 43.5,112.5C 56.0939,111.341 68.7605,110.008 81.5,108.5 Z"/></g>
<g><path style="opacity:0.22" fill="#e8b938" d="M 26.5,112.5 C 32.0262,112.179 37.3595,112.512 42.5,113.5C 31.5041,113.944 20.5041,114.278 9.5,114.5C 15.1667,113.833 20.8333,113.167 26.5,112.5 Z"/></g>
</svg>
