<?xml version="1.0" encoding="UTF-8"?>
<!DOCTYPE svg PUBLIC "-//W3C//DTD SVG 1.1//EN" "http://www.w3.org/Graphics/SVG/1.1/DTD/svg11.dtd">
<svg xmlns="http://www.w3.org/2000/svg" version="1.1" width="270px" height="270px" style="shape-rendering:geometricPrecision; text-rendering:geometricPrecision; image-rendering:optimizeQuality; fill-rule:evenodd; clip-rule:evenodd" xmlns:xlink="http://www.w3.org/1999/xlink">
<g><path style="opacity:0.819" fill="#e1ece8" d="M 144.5,29.5 C 135.654,30.5425 126.654,31.5425 117.5,32.5C 116.807,33.5178 116.141,34.5178 115.5,35.5C 114.432,36.4345 113.099,36.7678 111.5,36.5C 100.849,37.7324 90.5152,40.3991 80.5,44.5C 100.127,32.9287 121.461,27.9287 144.5,29.5 Z"/></g>
<g><path style="opacity:1" fill="#f8f5cb" d="M 151.5,36.5 C 139.403,35.0076 127.403,35.3409 115.5,37.5C 114.167,37.5 112.833,37.5 111.5,37.5C 111.5,37.1667 111.5,36.8333 111.5,36.5C 113.099,36.7678 114.432,36.4345 115.5,35.5C 122.141,34.9172 128.807,34.5839 135.5,34.5C 141.211,34.5051 146.544,35.1718 151.5,36.5 Z"/></g>
<g><path style="opacity:0.239" fill="#c6d3d0" d="M 147.5,30.5 C 169.634,32.6406 188.634,41.3073 204.5,56.5C 195.379,50.0379 185.712,44.2045 175.5,39C 166.223,35.6337 156.89,32.8004 147.5,30.5 Z"/></g>
<g><path style="opacity:1" fill="#f5edaa" d="M 111.5,37.5 C 112.833,37.5 114.167,37.5 115.5,37.5C 109.148,38.9039 102.815,40.7372 96.5,43C 94.2418,43.876 92.2418,45.0427 90.5,46.5C 88.5439,47.4918 86.5439,48.4918 84.5,49.5C 86.2368,47.4503 88.2368,45.617 90.5,44C 95.6338,42.4601 100.634,40.4601 105.5,38C 107.473,37.5045 109.473,37.3379 111.5,37.5 Z"/></g>
<g><path style="opacity:1" fill="#f6f1b4" d="M 151.5,36.5 C 156.149,37.065 160.816,37.565 165.5,38C 168.585,40.6281 171.919,42.7948 175.5,44.5C 167.636,41.212 159.636,38.5453 151.5,36.5 Z"/></g>
<g><path style="opacity:0.969" fill="#f3f7e9" d="M 144.5,29.5 C 145.391,30.1098 146.391,30.4431 147.5,30.5C 156.89,32.8004 166.223,35.6337 175.5,39C 185.712,44.2045 195.379,50.0379 204.5,56.5C 211.217,63.8808 217.551,71.5475 223.5,79.5C 229.36,87.8906 233.193,97.224 235,107.5C 237.283,118.768 237.449,129.768 235.5,140.5C 235.666,132.826 235.5,125.159 235,117.5C 233.046,112.017 232.046,106.351 232,100.5C 231.667,99.5 231.333,98.5 231,97.5C 230.333,98.8333 229.667,98.8333 229,97.5C 228.667,95.8333 228.333,94.1667 228,92.5C 225.072,89.6393 222.905,86.3059 221.5,82.5C 220.431,81.0905 219.097,80.0905 217.5,79.5C 214.559,74.558 211.226,69.8914 207.5,65.5C 205.461,60.6217 202.127,56.7883 197.5,54C 195.482,53.4954 193.482,52.9954 191.5,52.5C 188.747,52.1208 186.747,50.6208 185.5,48C 181.829,47.4205 178.496,46.2538 175.5,44.5C 171.919,42.7948 168.585,40.6281 165.5,38C 160.816,37.565 156.149,37.065 151.5,36.5C 146.544,35.1718 141.211,34.5051 135.5,34.5C 128.807,34.5839 122.141,34.9172 115.5,35.5C 116.141,34.5178 116.807,33.5178 117.5,32.5C 126.654,31.5425 135.654,30.5425 144.5,29.5 Z"/></g>
<g><path style="opacity:1" fill="#f8eb89" d="M 151.5,36.5 C 159.636,38.5453 167.636,41.212 175.5,44.5C 178.496,46.2538 181.829,47.4205 185.5,48C 186.747,50.6208 188.747,52.1208 191.5,52.5C 196.809,56.8032 202.142,61.1366 207.5,65.5C 211.226,69.8914 214.559,74.558 217.5,79.5C 219.509,82.3537 221.343,85.3537 223,88.5C 223.49,89.7932 223.657,91.1266 223.5,92.5C 219.894,87.0917 216.228,81.5917 212.5,76C 211.365,75.2506 210.365,75.4173 209.5,76.5C 210.578,79.2069 211.578,81.8736 212.5,84.5C 207.872,79.3641 203.372,74.0308 199,68.5C 188.526,58.5145 176.36,51.5145 162.5,47.5C 161.274,47.5195 160.274,47.8529 159.5,48.5C 158.209,48.7373 157.209,48.404 156.5,47.5C 157.239,47.631 157.906,47.4643 158.5,47C 156.283,45.7246 153.949,44.7246 151.5,44C 134.911,42.5262 118.577,43.6928 102.5,47.5C 103.643,45.8993 102.976,45.2326 100.5,45.5C 97.2427,45.5548 93.9093,45.8881 90.5,46.5C 92.2418,45.0427 94.2418,43.876 96.5,43C 102.815,40.7372 109.148,38.9039 115.5,37.5C 127.403,35.3409 139.403,35.0076 151.5,36.5 Z"/></g>
<g><path style="opacity:0.278" fill="#c1cfca" d="M 80.5,44.5 C 75.6851,48.4698 70.6851,52.3031 65.5,56C 62.9614,58.3697 60.6281,60.8697 58.5,63.5C 55.1667,67.1667 51.8333,70.8333 48.5,74.5C 56.2691,61.3972 66.9358,51.3972 80.5,44.5 Z"/></g>
<g><path style="opacity:1" fill="#d79546" d="M 156.5,47.5 C 157.209,48.404 158.209,48.7373 159.5,48.5C 187.856,57.1859 207.189,75.5193 217.5,103.5C 216.13,103.144 215.13,102.31 214.5,101C 201.593,71.122 178.927,53.4553 146.5,48C 107.783,44.512 78.2833,59.012 58,91.5C 56.8631,95.107 55.1965,98.4404 53,101.5C 52.2042,104.039 52.3709,106.372 53.5,108.5C 52.0832,111.998 51.4165,115.665 51.5,119.5C 50.3439,127.323 50.1772,135.323 51,143.5C 52.1026,146.98 53.2692,150.313 54.5,153.5C 55.1495,155.435 55.4828,157.435 55.5,159.5C 40.2172,121.134 48.5505,88.6343 80.5,62C 103.668,46.3803 129.001,41.5469 156.5,47.5 Z"/></g>
<g><path style="opacity:0.991" fill="#fafae7" d="M 111.5,36.5 C 111.5,36.8333 111.5,37.1667 111.5,37.5C 109.473,37.3379 107.473,37.5045 105.5,38C 100.634,40.4601 95.6338,42.4601 90.5,44C 88.2368,45.617 86.2368,47.4503 84.5,49.5C 84.1667,49.5 83.8333,49.5 83.5,49.5C 69.6572,55.6768 58.9905,65.3435 51.5,78.5C 51.687,76.4357 52.187,74.4357 53,72.5C 55.3578,69.7777 57.1911,66.7777 58.5,63.5C 60.6281,60.8697 62.9614,58.3697 65.5,56C 70.6851,52.3031 75.6851,48.4698 80.5,44.5C 90.5152,40.3991 100.849,37.7324 111.5,36.5 Z"/></g>
<g><path style="opacity:1" fill="#c0650a" d="M 217.5,103.5 C 217.5,104.167 217.5,104.833 217.5,105.5C 217.795,107.735 217.461,109.735 216.5,111.5C 215.349,109.221 214.349,106.888 213.5,104.5C 212.403,101.314 211.07,98.3135 209.5,95.5C 192.983,66.6375 167.816,51.9709 134,51.5C 114.628,50.9021 97.4613,56.5687 82.5,68.5C 75.5,73.5 69.5,79.5 64.5,86.5C 59.3158,93.0385 55.6491,100.372 53.5,108.5C 52.3709,106.372 52.2042,104.039 53,101.5C 55.1965,98.4404 56.8631,95.107 58,91.5C 78.2833,59.012 107.783,44.512 146.5,48C 178.927,53.4553 201.593,71.122 214.5,101C 215.13,102.31 216.13,103.144 217.5,103.5 Z"/></g>
<g><path style="opacity:1" fill="#f8bb39" d="M 209.5,95.5 C 208.448,95.6495 207.448,95.4828 206.5,95C 201.256,89.5932 196.589,83.7598 192.5,77.5C 189.063,75.4037 185.729,73.2371 182.5,71C 180.135,69.2105 178.468,67.0439 177.5,64.5C 175.167,64.5 172.833,64.5 170.5,64.5C 170.047,63.5416 169.381,62.7083 168.5,62C 163.938,60.1925 159.271,58.6925 154.5,57.5C 146.413,55.4212 138.08,54.5879 129.5,55C 129,55.5 128.5,56 128,56.5C 125.263,55.3895 122.429,55.2228 119.5,56C 113.112,57.5134 106.779,59.1801 100.5,61C 100.833,61.3333 101.167,61.6667 101.5,62C 95.481,63.1778 90.1477,65.6778 85.5,69.5C 84.5832,68.8728 83.5832,68.5394 82.5,68.5C 97.4613,56.5687 114.628,50.9021 134,51.5C 167.816,51.9709 192.983,66.6375 209.5,95.5 Z"/></g>
<g><path style="opacity:1" fill="#f7d249" d="M 154.5,57.5 C 159.271,58.6925 163.938,60.1925 168.5,62C 169.381,62.7083 170.047,63.5416 170.5,64.5C 170.082,65.2216 169.416,65.7216 168.5,66C 170.101,66.2734 171.601,66.7734 173,67.5C 173.234,71.3142 174.068,74.9808 175.5,78.5C 175.043,79.2975 174.376,79.6309 173.5,79.5C 173.924,75.9983 172.59,73.665 169.5,72.5C 169.5,72.1667 169.5,71.8333 169.5,71.5C 168.2,67.7039 165.533,65.5372 161.5,65C 156.037,64.2464 150.704,64.7464 145.5,66.5C 145.5,67.8333 145.5,69.1667 145.5,70.5C 143.902,72.6979 142.569,75.0313 141.5,77.5C 140.778,77.9175 140.278,78.5842 140,79.5C 139.316,84.8222 138.816,90.1556 138.5,95.5C 137.549,96.9187 137.216,98.5853 137.5,100.5C 137.5,101.5 137.5,102.5 137.5,103.5C 136.672,97.3466 136.172,91.0133 136,84.5C 135.667,84.8333 135.333,85.1667 135,85.5C 133.921,82.9373 133.421,80.2706 133.5,77.5C 132.5,77.5 131.5,77.5 130.5,77.5C 128.16,76.4282 127.827,74.7615 129.5,72.5C 127.604,71.5344 125.604,71.2011 123.5,71.5C 123.158,70.6618 122.492,70.3284 121.5,70.5C 117.568,65.8772 112.568,64.3772 106.5,66C 105.058,66.3768 104.058,67.2101 103.5,68.5C 101.284,69.2026 99.451,70.5359 98,72.5C 97.9005,74.6526 97.0672,76.3192 95.5,77.5C 95.687,75.4357 96.187,73.4357 97,71.5C 100.447,68.2069 103.947,65.0403 107.5,62C 110.047,61.3405 112.547,61.5071 115,62.5C 118.578,64.1853 121.744,66.1853 124.5,68.5C 124.5,67.5 124.5,66.5 124.5,65.5C 123.5,65.5 122.5,65.5 121.5,65.5C 121.739,63.5328 121.406,61.6995 120.5,60C 124.405,59.2665 128.072,57.9332 131.5,56C 135.362,55.0867 139.028,55.4201 142.5,57C 140.051,59.1975 140.217,60.6975 143,61.5C 145.664,61.2514 147.831,60.0847 149.5,58C 151.134,57.5065 152.801,57.3398 154.5,57.5 Z"/></g>
<g><path style="opacity:1" fill="#fcfbd8" d="M 191.5,52.5 C 193.482,52.9954 195.482,53.4954 197.5,54C 202.127,56.7883 205.461,60.6217 207.5,65.5C 202.142,61.1366 196.809,56.8032 191.5,52.5 Z"/></g>
<g><path style="opacity:1" fill="#f9eeb5" d="M 139.5,63.5 C 137.429,61.8996 135.095,61.3996 132.5,62C 131.62,63.3561 131.286,64.8561 131.5,66.5C 129.883,65.962 128.216,65.6287 126.5,65.5C 126.756,63.2239 128.09,62.0572 130.5,62C 131.787,60.5905 132.954,59.0905 134,57.5C 136.521,58.8807 138.355,60.8807 139.5,63.5 Z"/></g>
<g><path style="opacity:1" fill="#fcefb6" d="M 212.5,84.5 C 214.262,89.9294 216.762,94.9294 220,99.5C 223.868,114.202 224.368,128.868 221.5,143.5C 221.66,141.801 221.494,140.134 221,138.5C 220.617,139.056 220.117,139.389 219.5,139.5C 220.532,131.528 220.698,123.528 220,115.5C 219.974,111.821 219.14,108.488 217.5,105.5C 217.5,104.833 217.5,104.167 217.5,103.5C 207.189,75.5193 187.856,57.1859 159.5,48.5C 160.274,47.8529 161.274,47.5195 162.5,47.5C 176.36,51.5145 188.526,58.5145 199,68.5C 203.372,74.0308 207.872,79.3641 212.5,84.5 Z"/></g>
<g><path style="opacity:1" fill="#fbf7de" d="M 139.5,63.5 C 140.338,63.8417 140.672,64.5084 140.5,65.5C 137.358,65.7993 135.191,67.4659 134,70.5C 133.338,69.0161 132.504,67.6828 131.5,66.5C 131.286,64.8561 131.62,63.3561 132.5,62C 135.095,61.3996 137.429,61.8996 139.5,63.5 Z"/></g>
<g><path style="opacity:1" fill="#fdf1bf" d="M 121.5,70.5 C 115.757,67.5776 109.757,66.9109 103.5,68.5C 104.058,67.2101 105.058,66.3768 106.5,66C 112.568,64.3772 117.568,65.8772 121.5,70.5 Z"/></g>
<g><path style="opacity:1" fill="#fdf5c5" d="M 169.5,71.5 C 169.5,71.8333 169.5,72.1667 169.5,72.5C 169.5,72.8333 169.5,73.1667 169.5,73.5C 167.095,72.6019 165.095,71.1019 163.5,69C 158.408,67.1811 153.408,67.5144 148.5,70C 146.034,72.4786 143.701,74.9786 141.5,77.5C 142.569,75.0313 143.902,72.6979 145.5,70.5C 151.197,66.8605 157.53,65.6938 164.5,67C 165.39,69.3913 167.057,70.8913 169.5,71.5 Z"/></g>
<g><path style="opacity:1" fill="#f1da76" d="M 169.5,71.5 C 167.057,70.8913 165.39,69.3913 164.5,67C 157.53,65.6938 151.197,66.8605 145.5,70.5C 145.5,69.1667 145.5,67.8333 145.5,66.5C 150.704,64.7464 156.037,64.2464 161.5,65C 165.533,65.5372 168.2,67.7039 169.5,71.5 Z"/></g>
<g><path style="opacity:1" fill="#cb8f2b" d="M 126.5,65.5 C 128.216,65.6287 129.883,65.962 131.5,66.5C 132.504,67.6828 133.338,69.0161 134,70.5C 135.191,67.4659 137.358,65.7993 140.5,65.5C 141.478,65.811 142.145,66.4777 142.5,67.5C 140.664,68.919 138.664,70.0857 136.5,71C 135.663,72.0113 135.33,73.1779 135.5,74.5C 134.5,74.5 133.5,74.5 132.5,74.5C 132.225,70.8913 130.225,68.8913 126.5,68.5C 125.224,67.3864 125.224,66.3864 126.5,65.5 Z"/></g>
<g><path style="opacity:1" fill="#f6eaab" d="M 83.5,49.5 C 76.922,54.2254 70.422,59.2254 64,64.5C 56.1905,74.461 49.0238,84.7943 42.5,95.5C 41.6207,90.999 43.1207,87.6657 47,85.5C 47.8399,82.6587 49.3399,80.3253 51.5,78.5C 58.9905,65.3435 69.6572,55.6768 83.5,49.5 Z"/></g>
<g><path style="opacity:1" fill="#face41" d="M 170.5,64.5 C 172.833,64.5 175.167,64.5 177.5,64.5C 178.468,67.0439 180.135,69.2105 182.5,71C 185.729,73.2371 189.063,75.4037 192.5,77.5C 196.589,83.7598 201.256,89.5932 206.5,95C 207.448,95.4828 208.448,95.6495 209.5,95.5C 211.07,98.3135 212.403,101.314 213.5,104.5C 213.339,108.723 214.006,112.723 215.5,116.5C 214.566,117.568 214.232,118.901 214.5,120.5C 213.5,120.5 212.5,120.5 211.5,120.5C 211.817,117.428 211.484,114.428 210.5,111.5C 208.118,115.506 207.118,119.839 207.5,124.5C 206.778,124.082 206.278,123.416 206,122.5C 205.667,123.167 205.333,123.833 205,124.5C 204.817,121.635 204.317,118.969 203.5,116.5C 203.784,114.585 203.451,112.919 202.5,111.5C 199.061,101.118 192.061,97.7851 181.5,101.5C 179.16,102.086 176.993,103.086 175,104.5C 173.731,103.095 173.231,101.429 173.5,99.5C 173.5,95.8333 173.5,92.1667 173.5,88.5C 173.5,85.5 173.5,82.5 173.5,79.5C 174.376,79.6309 175.043,79.2975 175.5,78.5C 174.068,74.9808 173.234,71.3142 173,67.5C 171.601,66.7734 170.101,66.2734 168.5,66C 169.416,65.7216 170.082,65.2216 170.5,64.5 Z"/></g>
<g><path style="opacity:1" fill="#f6e779" d="M 102.5,47.5 C 98.2616,49.185 93.9282,50.685 89.5,52C 84.4896,56.4972 79.1562,60.4972 73.5,64C 65.0672,71.5863 58.4005,80.4196 53.5,90.5C 52.675,91.3857 51.675,91.719 50.5,91.5C 50.9661,95.9816 49.9661,99.9816 47.5,103.5C 47.9244,99.9661 48.5911,96.4661 49.5,93C 48.9555,89.9875 47.7888,89.8208 46,92.5C 45.6953,97.0842 44.0286,101.084 41,104.5C 40.3572,109.545 39.5238,114.545 38.5,119.5C 38.1667,119.5 37.8333,119.5 37.5,119.5C 37.5,116.833 37.5,114.167 37.5,111.5C 39.0988,106.262 40.7655,100.929 42.5,95.5C 49.0238,84.7943 56.1905,74.461 64,64.5C 70.422,59.2254 76.922,54.2254 83.5,49.5C 83.8333,49.5 84.1667,49.5 84.5,49.5C 86.5439,48.4918 88.5439,47.4918 90.5,46.5C 93.9093,45.8881 97.2427,45.5548 100.5,45.5C 102.976,45.2326 103.643,45.8993 102.5,47.5 Z"/></g>
<g><path style="opacity:0.231" fill="#c7d2c8" d="M 204.5,56.5 C 212.654,62.6548 218.987,70.3214 223.5,79.5C 217.551,71.5475 211.217,63.8808 204.5,56.5 Z"/></g>
<g><path style="opacity:0.949" fill="#edf5ec" d="M 58.5,63.5 C 57.1911,66.7777 55.3578,69.7777 53,72.5C 52.187,74.4357 51.687,76.4357 51.5,78.5C 49.3399,80.3253 47.8399,82.6587 47,85.5C 43.1207,87.6657 41.6207,90.999 42.5,95.5C 41.5,95.5 40.5,95.5 39.5,95.5C 38.6366,100.453 36.6366,104.786 33.5,108.5C 35.4248,95.6954 40.4248,84.3621 48.5,74.5C 51.8333,70.8333 55.1667,67.1667 58.5,63.5 Z"/></g>
<g><path style="opacity:1" fill="#e9ca63" d="M 123.5,71.5 C 125.604,71.2011 127.604,71.5344 129.5,72.5C 127.827,74.7615 128.16,76.4282 130.5,77.5C 130.502,83.523 130.835,89.523 131.5,95.5C 130.662,95.8417 130.328,96.5084 130.5,97.5C 130.167,97.5 129.833,97.5 129.5,97.5C 129.666,92.4889 129.499,87.4889 129,82.5C 128.768,81.2625 128.268,80.2625 127.5,79.5C 127.5,79.1667 127.5,78.8333 127.5,78.5C 126.937,75.7052 125.604,73.3718 123.5,71.5 Z"/></g>
<g><path style="opacity:1" fill="#fafbf4" d="M 121.5,70.5 C 122.594,72.3594 123.427,74.3594 124,76.5C 124.816,77.8228 125.983,78.4894 127.5,78.5C 127.5,78.8333 127.5,79.1667 127.5,79.5C 131.831,94.9773 126.165,102.144 110.5,101C 106.552,99.718 103.552,97.3846 101.5,94C 100.206,90.4502 99.5394,86.7836 99.5,83C 99.9376,79.091 100.604,75.2577 101.5,71.5C 102.167,70.5 102.833,69.5 103.5,68.5C 109.757,66.9109 115.757,67.5776 121.5,70.5 Z"/></g>
<g><path style="opacity:1" fill="#fbd041" d="M 154.5,57.5 C 152.801,57.3398 151.134,57.5065 149.5,58C 147.831,60.0847 145.664,61.2514 143,61.5C 140.217,60.6975 140.051,59.1975 142.5,57C 139.028,55.4201 135.362,55.0867 131.5,56C 128.072,57.9332 124.405,59.2665 120.5,60C 121.406,61.6995 121.739,63.5328 121.5,65.5C 122.5,65.5 123.5,65.5 124.5,65.5C 124.5,66.5 124.5,67.5 124.5,68.5C 121.744,66.1853 118.578,64.1853 115,62.5C 112.547,61.5071 110.047,61.3405 107.5,62C 103.947,65.0403 100.447,68.2069 97,71.5C 96.187,73.4357 95.687,75.4357 95.5,77.5C 95.5,79.5 95.5,81.5 95.5,83.5C 94.5166,87.2984 94.1832,91.2984 94.5,95.5C 95.1009,98.9679 96.1009,102.301 97.5,105.5C 97.5,105.833 97.5,106.167 97.5,106.5C 96.4168,106.461 95.4168,106.127 94.5,105.5C 93.7717,103.807 92.7717,102.307 91.5,101C 87.9716,100.911 84.6382,100.244 81.5,99C 78.8333,98.3333 76.1667,98.3333 73.5,99C 71.8679,100.82 69.8679,101.986 67.5,102.5C 66.3579,100.028 64.3579,99.0283 61.5,99.5C 63.6304,92.9407 67.4637,87.6074 73,83.5C 73.7914,82.255 74.2914,80.9217 74.5,79.5C 75.2341,78.2921 75.5674,76.9587 75.5,75.5C 76.552,75.6495 77.552,75.4828 78.5,75C 79.296,72.3984 80.6293,70.2318 82.5,68.5C 83.5832,68.5394 84.5832,68.8728 85.5,69.5C 90.1477,65.6778 95.481,63.1778 101.5,62C 101.167,61.6667 100.833,61.3333 100.5,61C 106.779,59.1801 113.112,57.5134 119.5,56C 122.429,55.2228 125.263,55.3895 128,56.5C 128.5,56 129,55.5 129.5,55C 138.08,54.5879 146.413,55.4212 154.5,57.5 Z"/></g>
<g><path style="opacity:1" fill="#faf4bf" d="M 121.5,70.5 C 122.492,70.3284 123.158,70.6618 123.5,71.5C 125.604,73.3718 126.937,75.7052 127.5,78.5C 125.983,78.4894 124.816,77.8228 124,76.5C 123.427,74.3594 122.594,72.3594 121.5,70.5 Z"/></g>
<g><path style="opacity:1" fill="#fafbf4" d="M 169.5,73.5 C 173.959,85.6323 170.625,94.799 159.5,101C 153.539,101.968 148.039,100.801 143,97.5C 140.186,91.0581 139.686,84.3914 141.5,77.5C 143.701,74.9786 146.034,72.4786 148.5,70C 153.408,67.5144 158.408,67.1811 163.5,69C 165.095,71.1019 167.095,72.6019 169.5,73.5 Z"/></g>
<g><path style="opacity:1" fill="#f3b641" d="M 82.5,68.5 C 80.6293,70.2318 79.296,72.3984 78.5,75C 77.552,75.4828 76.552,75.6495 75.5,75.5C 75.5674,76.9587 75.2341,78.2921 74.5,79.5C 73.448,79.3505 72.448,79.5172 71.5,80C 70.4686,83.0395 68.6353,85.5395 66,87.5C 65.6174,86.944 65.1174,86.6107 64.5,86.5C 69.5,79.5 75.5,73.5 82.5,68.5 Z"/></g>
<g><path style="opacity:1" fill="#d3b364" d="M 169.5,73.5 C 169.5,73.1667 169.5,72.8333 169.5,72.5C 172.59,73.665 173.924,75.9983 173.5,79.5C 173.5,82.5 173.5,85.5 173.5,88.5C 173.167,88.5 172.833,88.5 172.5,88.5C 172.665,85.4816 172.498,82.4816 172,79.5C 171.963,77.0261 171.13,75.0261 169.5,73.5 Z"/></g>
<g><path style="opacity:1" fill="#f5dd70" d="M 223.5,92.5 C 228.955,100.545 231.622,109.545 231.5,119.5C 229.736,115.795 228.569,111.795 228,107.5C 227,106.167 226,106.167 225,107.5C 224.667,104.833 224.333,102.167 224,99.5C 223.667,99.8333 223.333,100.167 223,100.5C 224.177,110.717 224.677,121.051 224.5,131.5C 225.41,141.534 223.077,150.534 217.5,158.5C 219.25,153.587 220.583,148.587 221.5,143.5C 224.368,128.868 223.868,114.202 220,99.5C 216.762,94.9294 214.262,89.9294 212.5,84.5C 211.578,81.8736 210.578,79.2069 209.5,76.5C 210.365,75.4173 211.365,75.2506 212.5,76C 216.228,81.5917 219.894,87.0917 223.5,92.5 Z"/></g>
<g><path style="opacity:1" fill="#ab7720" d="M 95.5,83.5 C 94.9118,91.0621 96.5784,98.0621 100.5,104.5C 99.5041,104.586 98.6708,104.252 98,103.5C 97.2952,100.524 96.1286,97.8577 94.5,95.5C 94.1832,91.2984 94.5166,87.2984 95.5,83.5 Z"/></g>
<g><path style="opacity:1" fill="#eecf5a" d="M 97.5,106.5 C 97.366,108.292 97.6993,109.958 98.5,111.5C 98.1667,111.5 97.8333,111.5 97.5,111.5C 94.4362,108.43 91.1029,105.763 87.5,103.5C 85.9739,101.87 83.9739,101.037 81.5,101C 75.011,99.01 70.6776,101.177 68.5,107.5C 67.6618,107.842 67.3284,108.508 67.5,109.5C 67.1667,109.5 66.8333,109.5 66.5,109.5C 66.298,107.05 66.6314,104.717 67.5,102.5C 69.8679,101.986 71.8679,100.82 73.5,99C 76.1667,98.3333 78.8333,98.3333 81.5,99C 84.6382,100.244 87.9716,100.911 91.5,101C 92.7717,102.307 93.7717,103.807 94.5,105.5C 95.4168,106.127 96.4168,106.461 97.5,106.5 Z"/></g>
<g><path style="opacity:1" fill="#efe4c3" d="M 101.5,71.5 C 100.604,75.2577 99.9376,79.091 99.5,83C 99.5394,86.7836 100.206,90.4502 101.5,94C 103.552,97.3846 106.552,99.718 110.5,101C 126.165,102.144 131.831,94.9773 127.5,79.5C 128.268,80.2625 128.768,81.2625 129,82.5C 129.499,87.4889 129.666,92.4889 129.5,97.5C 129.065,100.157 128.065,102.491 126.5,104.5C 124.5,104.167 122.5,103.833 120.5,103.5C 120.649,104.552 120.483,105.552 120,106.5C 115.968,103.889 112.135,104.222 108.5,107.5C 107.5,107.333 106.5,107.167 105.5,107C 104.042,104.54 102.209,102.373 100,100.5C 99.9165,94.6135 98.7499,89.1135 96.5,84C 96.6667,82.1667 96.8333,80.3333 97,78.5C 98.117,77.0506 98.7837,75.3839 99,73.5C 99.7083,72.6195 100.542,71.9528 101.5,71.5 Z"/></g>
<g><path style="opacity:1" fill="#f8ce3c" d="M 130.5,77.5 C 131.5,77.5 132.5,77.5 133.5,77.5C 133.421,80.2706 133.921,82.9373 135,85.5C 135.333,85.1667 135.667,84.8333 136,84.5C 136.172,91.0133 136.672,97.3466 137.5,103.5C 138.038,105.117 138.371,106.784 138.5,108.5C 138.454,112.235 136.787,113.568 133.5,112.5C 134.022,111.393 134.355,110.226 134.5,109C 133.836,104.856 133.336,100.689 133,96.5C 132.617,95.944 132.117,95.6107 131.5,95.5C 130.835,89.523 130.502,83.523 130.5,77.5 Z"/></g>
<g><path style="opacity:1" fill="#f1e2bb" d="M 169.5,73.5 C 171.13,75.0261 171.963,77.0261 172,79.5C 172.498,82.4816 172.665,85.4816 172.5,88.5C 172.606,97.2044 169.272,104.204 162.5,109.5C 149.007,114.09 141.007,109.424 138.5,95.5C 138.816,90.1556 139.316,84.8222 140,79.5C 140.278,78.5842 140.778,77.9175 141.5,77.5C 139.686,84.3914 140.186,91.0581 143,97.5C 148.039,100.801 153.539,101.968 159.5,101C 170.625,94.799 173.959,85.6323 169.5,73.5 Z"/></g>
<g><path style="opacity:0.903" fill="#fbfad5" d="M 217.5,79.5 C 219.097,80.0905 220.431,81.0905 221.5,82.5C 222.905,86.3059 225.072,89.6393 228,92.5C 228.333,94.1667 228.667,95.8333 229,97.5C 229.667,98.8333 230.333,98.8333 231,97.5C 231.333,98.5 231.667,99.5 232,100.5C 232.046,106.351 233.046,112.017 235,117.5C 235.5,125.159 235.666,132.826 235.5,140.5C 233.908,141.602 233.075,140.935 233,138.5C 232.828,131.987 232.328,125.653 231.5,119.5C 231.622,109.545 228.955,100.545 223.5,92.5C 223.657,91.1266 223.49,89.7932 223,88.5C 221.343,85.3537 219.509,82.3537 217.5,79.5 Z"/></g>
<g><path style="opacity:1" fill="#f5dc60" d="M 47.5,103.5 C 47.5,103.833 47.5,104.167 47.5,104.5C 46.4415,105.6 45.6082,106.934 45,108.5C 44.176,117.676 44.3427,126.676 45.5,135.5C 45.5045,139.534 45.8379,143.534 46.5,147.5C 45.8826,147.389 45.3826,147.056 45,146.5C 43.2687,137.256 42.1021,127.923 41.5,118.5C 40.914,118.709 40.414,119.043 40,119.5C 39.5034,121.81 39.3367,124.143 39.5,126.5C 38.5318,124.393 38.1984,122.059 38.5,119.5C 39.5238,114.545 40.3572,109.545 41,104.5C 44.0286,101.084 45.6953,97.0842 46,92.5C 47.7888,89.8208 48.9555,89.9875 49.5,93C 48.5911,96.4661 47.9244,99.9661 47.5,103.5 Z"/></g>
<g><path style="opacity:1" fill="#fdf3bc" d="M 87.5,103.5 C 80.1743,101.062 73.841,102.395 68.5,107.5C 70.6776,101.177 75.011,99.01 81.5,101C 83.9739,101.037 85.9739,101.87 87.5,103.5 Z"/></g>
<g><path style="opacity:1" fill="#f3dfb2" d="M 103.5,68.5 C 102.833,69.5 102.167,70.5 101.5,71.5C 100.542,71.9528 99.7083,72.6195 99,73.5C 98.7837,75.3839 98.117,77.0506 97,78.5C 96.8333,80.3333 96.6667,82.1667 96.5,84C 98.7499,89.1135 99.9165,94.6135 100,100.5C 102.209,102.373 104.042,104.54 105.5,107C 106.5,107.167 107.5,107.333 108.5,107.5C 112.135,104.222 115.968,103.889 120,106.5C 120.483,105.552 120.649,104.552 120.5,103.5C 122.5,103.833 124.5,104.167 126.5,104.5C 125.432,106.74 123.766,108.574 121.5,110C 113.262,112.88 106.262,111.047 100.5,104.5C 96.5784,98.0621 94.9118,91.0621 95.5,83.5C 95.5,81.5 95.5,79.5 95.5,77.5C 97.0672,76.3192 97.9005,74.6526 98,72.5C 99.451,70.5359 101.284,69.2026 103.5,68.5 Z"/></g>
<g><path style="opacity:0.553" fill="#eff4dd" d="M 42.5,95.5 C 40.7655,100.929 39.0988,106.262 37.5,111.5C 36.3065,111.97 35.6399,112.97 35.5,114.5C 34.8226,121.651 33.8226,128.651 32.5,135.5C 32.1667,135.5 31.8333,135.5 31.5,135.5C 31.1717,126.4 31.8384,117.4 33.5,108.5C 36.6366,104.786 38.6366,100.453 39.5,95.5C 40.5,95.5 41.5,95.5 42.5,95.5 Z"/></g>
<g><path style="opacity:1" fill="#bb751f" d="M 172.5,88.5 C 172.833,88.5 173.167,88.5 173.5,88.5C 173.5,92.1667 173.5,95.8333 173.5,99.5C 172.029,103.978 169.696,107.978 166.5,111.5C 165.817,109.824 164.483,109.157 162.5,109.5C 169.272,104.204 172.606,97.2044 172.5,88.5 Z"/></g>
<g><path style="opacity:1" fill="#ae6e2c" d="M 129.5,97.5 C 129.833,97.5 130.167,97.5 130.5,97.5C 130.5,99.1667 130.5,100.833 130.5,102.5C 125.036,111.936 117.036,114.769 106.5,111C 103.267,109.901 101.267,107.735 100.5,104.5C 106.262,111.047 113.262,112.88 121.5,110C 123.766,108.574 125.432,106.74 126.5,104.5C 128.065,102.491 129.065,100.157 129.5,97.5 Z"/></g>
<g><path style="opacity:1" fill="#b26f2b" d="M 138.5,95.5 C 141.007,109.424 149.007,114.09 162.5,109.5C 161.942,110.79 160.942,111.623 159.5,112C 153.704,112.791 148.037,112.291 142.5,110.5C 140.837,107.169 139.17,103.835 137.5,100.5C 137.216,98.5853 137.549,96.9187 138.5,95.5 Z"/></g>
<g><path style="opacity:1" fill="#fafbf5" d="M 200.5,119.5 C 194.684,128.716 186.351,132.882 175.5,132C 174.098,130.18 172.765,128.346 171.5,126.5C 170.431,121.844 170.431,117.178 171.5,112.5C 173.359,111.406 175.359,110.573 177.5,110C 176.663,108.989 176.33,107.822 176.5,106.5C 180.568,105.06 184.735,103.726 189,102.5C 195.12,102.702 198.786,105.702 200,111.5C 200.497,114.146 200.664,116.813 200.5,119.5 Z"/></g>
<g><path style="opacity:1" fill="#fafbf3" d="M 87.5,103.5 C 91.1029,105.763 94.4362,108.43 97.5,111.5C 98.2657,116.82 98.4324,122.154 98,127.5C 97.0853,128.328 96.4186,129.328 96,130.5C 88.9653,132.175 82.132,131.675 75.5,129C 69.5264,123.869 66.8598,117.369 67.5,109.5C 67.3284,108.508 67.6618,107.842 68.5,107.5C 73.841,102.395 80.1743,101.062 87.5,103.5 Z"/></g>
<g><path style="opacity:1" fill="#f8da5e" d="M 231.5,119.5 C 231.334,127.507 231.5,135.507 232,143.5C 232.198,145.382 232.698,147.048 233.5,148.5C 231.967,152.028 230.967,155.695 230.5,159.5C 229.079,162.009 227.412,164.343 225.5,166.5C 225.739,164.533 225.406,162.699 224.5,161C 229.39,152.66 230.556,143.826 228,134.5C 227.241,132.937 226.074,131.937 224.5,131.5C 224.677,121.051 224.177,110.717 223,100.5C 223.333,100.167 223.667,99.8333 224,99.5C 224.333,102.167 224.667,104.833 225,107.5C 226,106.167 227,106.167 228,107.5C 228.569,111.795 229.736,115.795 231.5,119.5 Z"/></g>
<g><path style="opacity:1" fill="#fbc73a" d="M 74.5,79.5 C 74.2914,80.9217 73.7914,82.255 73,83.5C 67.4637,87.6074 63.6304,92.9407 61.5,99.5C 64.3579,99.0283 66.3579,100.028 67.5,102.5C 66.6314,104.717 66.298,107.05 66.5,109.5C 65.2154,112.589 64.5488,115.922 64.5,119.5C 62.2104,127.45 60.877,135.783 60.5,144.5C 59.8333,145.167 59.1667,145.833 58.5,146.5C 58.9581,141.598 58.2915,136.765 56.5,132C 57.8333,130.667 57.8333,129.333 56.5,128C 54.8204,127.966 53.3204,127.799 52,127.5C 51.5026,124.854 51.3359,122.187 51.5,119.5C 51.4165,115.665 52.0832,111.998 53.5,108.5C 55.6491,100.372 59.3158,93.0385 64.5,86.5C 65.1174,86.6107 65.6174,86.944 66,87.5C 68.6353,85.5395 70.4686,83.0395 71.5,80C 72.448,79.5172 73.448,79.3505 74.5,79.5 Z"/></g>
<g><path style="opacity:1" fill="#c87411" d="M 94.5,95.5 C 96.1286,97.8577 97.2952,100.524 98,103.5C 98.6708,104.252 99.5041,104.586 100.5,104.5C 101.267,107.735 103.267,109.901 106.5,111C 117.036,114.769 125.036,111.936 130.5,102.5C 126.669,116.582 118.002,120.748 104.5,115C 101.889,111.91 99.5552,108.744 97.5,105.5C 96.1009,102.301 95.1009,98.9679 94.5,95.5 Z"/></g>
<g><path style="opacity:1" fill="#ca7214" d="M 137.5,100.5 C 139.17,103.835 140.837,107.169 142.5,110.5C 148.037,112.291 153.704,112.791 159.5,112C 160.942,111.623 161.942,110.79 162.5,109.5C 164.483,109.157 165.817,109.824 166.5,111.5C 166.5,111.833 166.5,112.167 166.5,112.5C 155.556,120.348 146.223,119.015 138.5,108.5C 138.371,106.784 138.038,105.117 137.5,103.5C 137.5,102.5 137.5,101.5 137.5,100.5 Z"/></g>
<g><path style="opacity:1" fill="#fac339" d="M 131.5,95.5 C 132.117,95.6107 132.617,95.944 133,96.5C 133.336,100.689 133.836,104.856 134.5,109C 134.355,110.226 134.022,111.393 133.5,112.5C 136.787,113.568 138.454,112.235 138.5,108.5C 146.223,119.015 155.556,120.348 166.5,112.5C 166.666,116.514 166.499,120.514 166,124.5C 164.644,123.62 163.144,123.286 161.5,123.5C 161.5,124.833 161.5,126.167 161.5,127.5C 162.5,127.5 163.5,127.5 164.5,127.5C 164.5,128.5 164.5,129.5 164.5,130.5C 162.833,130.5 161.167,130.5 159.5,130.5C 159.762,131.978 159.429,133.311 158.5,134.5C 156.768,132.717 155.268,130.717 154,128.5C 153.329,127.748 152.496,127.414 151.5,127.5C 149.372,122.228 145.372,119.394 139.5,119C 133.492,117.804 127.825,118.637 122.5,121.5C 121.914,121.291 121.414,120.957 121,120.5C 117.442,125.056 113.942,129.723 110.5,134.5C 109.522,134.023 108.689,133.357 108,132.5C 107.56,134.866 107.06,137.199 106.5,139.5C 104.613,137.211 103.279,134.545 102.5,131.5C 102.666,127.154 102.499,122.821 102,118.5C 101.478,115.719 100.311,113.385 98.5,111.5C 97.6993,109.958 97.366,108.292 97.5,106.5C 97.5,106.167 97.5,105.833 97.5,105.5C 99.5552,108.744 101.889,111.91 104.5,115C 118.002,120.748 126.669,116.582 130.5,102.5C 130.5,100.833 130.5,99.1667 130.5,97.5C 130.328,96.5084 130.662,95.8417 131.5,95.5 Z"/></g>
<g><path style="opacity:1" fill="#f9c434" d="M 215.5,116.5 C 216.2,125.402 216.2,134.402 215.5,143.5C 214.914,143.709 214.414,144.043 214,144.5C 213.83,138.804 213.33,133.138 212.5,127.5C 211.264,134.122 209.264,140.456 206.5,146.5C 205.395,144.031 203.562,142.364 201,141.5C 200.591,138.642 201.591,136.309 204,134.5C 205.4,131.26 206.567,127.927 207.5,124.5C 207.118,119.839 208.118,115.506 210.5,111.5C 211.484,114.428 211.817,117.428 211.5,120.5C 212.5,120.5 213.5,120.5 214.5,120.5C 214.232,118.901 214.566,117.568 215.5,116.5 Z"/></g>
<g><path style="opacity:1" fill="#faf8c6" d="M 37.5,111.5 C 37.5,114.167 37.5,116.833 37.5,119.5C 36.4111,126.543 35.0777,133.543 33.5,140.5C 33.7845,138.585 33.4511,136.919 32.5,135.5C 33.8226,128.651 34.8226,121.651 35.5,114.5C 35.6399,112.97 36.3065,111.97 37.5,111.5 Z"/></g>
<g><path style="opacity:1" fill="#e7c25c" d="M 98.5,111.5 C 100.311,113.385 101.478,115.719 102,118.5C 102.499,122.821 102.666,127.154 102.5,131.5C 102.167,131.5 101.833,131.5 101.5,131.5C 101.5,130.833 101.167,130.5 100.5,130.5C 100.673,124.066 100.006,117.733 98.5,111.5 Z"/></g>
<g><path style="opacity:1" fill="#bd8932" d="M 66.5,109.5 C 65.8053,117.451 66.8053,125.118 69.5,132.5C 68.609,131.89 67.609,131.557 66.5,131.5C 64.7501,127.817 64.0834,123.817 64.5,119.5C 64.5488,115.922 65.2154,112.589 66.5,109.5 Z"/></g>
<g><path style="opacity:1" fill="#c1892d" d="M 217.5,105.5 C 219.14,108.488 219.974,111.821 220,115.5C 220.698,123.528 220.532,131.528 219.5,139.5C 219.41,143.214 218.41,146.548 216.5,149.5C 219.167,136.833 219.167,124.167 216.5,111.5C 217.461,109.735 217.795,107.735 217.5,105.5 Z"/></g>
<g><path style="opacity:1" fill="#bb8524" d="M 202.5,111.5 C 203.451,112.919 203.784,114.585 203.5,116.5C 203.666,121.179 203.499,125.845 203,130.5C 202.722,131.416 202.222,132.082 201.5,132.5C 201.5,131.167 200.833,130.5 199.5,130.5C 201.992,124.463 202.992,118.129 202.5,111.5 Z"/></g>
<g><path style="opacity:1" fill="#f3e486" d="M 47.5,104.5 C 45.6982,114.721 45.0316,125.054 45.5,135.5C 44.3427,126.676 44.176,117.676 45,108.5C 45.6082,106.934 46.4415,105.6 47.5,104.5 Z"/></g>
<g><path style="opacity:1" fill="#fafbf4" d="M 140.5,121.5 C 142.654,124.635 145.654,126.635 149.5,127.5C 149.662,129.527 149.495,131.527 149,133.5C 147.989,134.337 146.822,134.67 145.5,134.5C 144.756,137.95 146.09,139.616 149.5,139.5C 150.492,132.156 152.492,131.823 155.5,138.5C 156.86,139.18 158.193,139.847 159.5,140.5C 164.614,147.09 169.947,153.423 175.5,159.5C 175.4,162.108 176.067,164.442 177.5,166.5C 174.247,175.225 167.913,178.392 158.5,176C 151.045,173.676 143.379,172.176 135.5,171.5C 127.272,171.779 119.272,173.279 111.5,176C 104.156,177.693 97.6556,176.193 92,171.5C 90.9037,165.097 93.0703,160.263 98.5,157C 101.039,154.958 103.039,152.458 104.5,149.5C 105.689,148.571 107.022,148.238 108.5,148.5C 108.347,144.125 109.68,140.292 112.5,137C 113.448,136.517 114.448,136.351 115.5,136.5C 115.34,134.801 115.506,133.134 116,131.5C 119.038,128.631 121.871,125.631 124.5,122.5C 129.797,121.725 135.13,121.392 140.5,121.5 Z"/></g>
<g><path style="opacity:1" fill="#f1c042" d="M 173.5,99.5 C 173.231,101.429 173.731,103.095 175,104.5C 176.993,103.086 179.16,102.086 181.5,101.5C 180,103.179 178.167,104.512 176,105.5C 174.25,107.734 172.75,110.068 171.5,112.5C 170.326,113.514 169.66,114.847 169.5,116.5C 168.883,116.611 168.383,116.944 168,117.5C 167.502,120.817 167.335,124.15 167.5,127.5C 166.539,129.265 166.205,131.265 166.5,133.5C 163.634,132.264 161.634,133.264 160.5,136.5C 161.436,137.974 162.77,138.974 164.5,139.5C 166.033,141.289 167.033,143.289 167.5,145.5C 168.833,145.5 170.167,145.5 171.5,145.5C 170.97,150.451 172.97,153.784 177.5,155.5C 178.584,156.665 179.417,157.998 180,159.5C 181.608,162.621 182.441,165.954 182.5,169.5C 182.167,169.5 181.833,169.5 181.5,169.5C 181.672,168.508 181.338,167.842 180.5,167.5C 179.201,164.605 177.535,161.938 175.5,159.5C 169.947,153.423 164.614,147.09 159.5,140.5C 157.095,136.027 154.429,131.694 151.5,127.5C 152.496,127.414 153.329,127.748 154,128.5C 155.268,130.717 156.768,132.717 158.5,134.5C 159.429,133.311 159.762,131.978 159.5,130.5C 161.167,130.5 162.833,130.5 164.5,130.5C 164.5,129.5 164.5,128.5 164.5,127.5C 163.5,127.5 162.5,127.5 161.5,127.5C 161.5,126.167 161.5,124.833 161.5,123.5C 163.144,123.286 164.644,123.62 166,124.5C 166.499,120.514 166.666,116.514 166.5,112.5C 166.5,112.167 166.5,111.833 166.5,111.5C 169.696,107.978 172.029,103.978 173.5,99.5 Z"/></g>
<g><path style="opacity:1" fill="#f5d695" d="M 169.5,116.5 C 168.948,119.116 168.614,121.783 168.5,124.5C 169.179,128.524 169.846,132.524 170.5,136.5C 170.167,136.5 169.833,136.5 169.5,136.5C 168.422,133.598 167.756,130.598 167.5,127.5C 167.335,124.15 167.502,120.817 168,117.5C 168.383,116.944 168.883,116.611 169.5,116.5 Z"/></g>
<g><path style="opacity:1" fill="#fcf9dd" d="M 149.5,127.5 C 150.167,127.5 150.833,127.5 151.5,127.5C 154.429,131.694 157.095,136.027 159.5,140.5C 158.193,139.847 156.86,139.18 155.5,138.5C 152.492,131.823 150.492,132.156 149.5,139.5C 146.09,139.616 144.756,137.95 145.5,134.5C 146.822,134.67 147.989,134.337 149,133.5C 149.495,131.527 149.662,129.527 149.5,127.5 Z"/></g>
<g><path style="opacity:1" fill="#ede5c6" d="M 171.5,112.5 C 170.431,117.178 170.431,121.844 171.5,126.5C 172.765,128.346 174.098,130.18 175.5,132C 186.351,132.882 194.684,128.716 200.5,119.5C 200.143,123.263 199.31,126.93 198,130.5C 195.56,131.274 194.227,132.94 194,135.5C 191.413,133.986 188.58,133.32 185.5,133.5C 181.493,133.835 177.493,134.168 173.5,134.5C 173.768,136.099 173.434,137.432 172.5,138.5C 171.5,138.167 170.833,137.5 170.5,136.5C 169.846,132.524 169.179,128.524 168.5,124.5C 168.614,121.783 168.948,119.116 169.5,116.5C 169.66,114.847 170.326,113.514 171.5,112.5 Z"/></g>
<g><path style="opacity:1" fill="#fae996" d="M 231.5,119.5 C 232.328,125.653 232.828,131.987 233,138.5C 233.075,140.935 233.908,141.602 235.5,140.5C 235.5,141.5 235.5,142.5 235.5,143.5C 234.463,144.93 233.796,146.597 233.5,148.5C 232.698,147.048 232.198,145.382 232,143.5C 231.5,135.507 231.334,127.507 231.5,119.5 Z"/></g>
<g><path style="opacity:1" fill="#f7d367" d="M 37.5,119.5 C 37.8333,119.5 38.1667,119.5 38.5,119.5C 38.1984,122.059 38.5318,124.393 39.5,126.5C 39.3337,133.508 39.5004,140.508 40,147.5C 42.9862,153.251 43.1528,158.918 40.5,164.5C 39.2743,161.439 38.2743,158.272 37.5,155C 36.6293,153.636 35.6293,152.47 34.5,151.5C 34.4249,148.794 34.0916,146.127 33.5,143.5C 34.9582,145.932 36.1249,148.599 37,151.5C 37.3333,151.167 37.6667,150.833 38,150.5C 37.6961,140.193 37.5295,129.86 37.5,119.5 Z"/></g>
<g><path style="opacity:1" fill="#f0e2bc" d="M 66.5,109.5 C 66.8333,109.5 67.1667,109.5 67.5,109.5C 66.8598,117.369 69.5264,123.869 75.5,129C 82.132,131.675 88.9653,132.175 96,130.5C 96.4186,129.328 97.0853,128.328 98,127.5C 98.4324,122.154 98.2657,116.82 97.5,111.5C 97.8333,111.5 98.1667,111.5 98.5,111.5C 100.006,117.733 100.673,124.066 100.5,130.5C 96.9994,140.917 89.9994,144.417 79.5,141C 75.4973,138.85 72.1639,136.016 69.5,132.5C 66.8053,125.118 65.8053,117.451 66.5,109.5 Z"/></g>
<g><path style="opacity:1" fill="#f5e6bb" d="M 202.5,111.5 C 202.992,118.129 201.992,124.463 199.5,130.5C 199.5,130.833 199.5,131.167 199.5,131.5C 196.457,135.544 192.791,138.877 188.5,141.5C 184.854,142.283 181.188,142.45 177.5,142C 175.416,141.303 173.749,140.136 172.5,138.5C 173.434,137.432 173.768,136.099 173.5,134.5C 177.493,134.168 181.493,133.835 185.5,133.5C 188.58,133.32 191.413,133.986 194,135.5C 194.227,132.94 195.56,131.274 198,130.5C 199.31,126.93 200.143,123.263 200.5,119.5C 200.664,116.813 200.497,114.146 200,111.5C 198.786,105.702 195.12,102.702 189,102.5C 184.735,103.726 180.568,105.06 176.5,106.5C 176.33,107.822 176.663,108.989 177.5,110C 175.359,110.573 173.359,111.406 171.5,112.5C 172.75,110.068 174.25,107.734 176,105.5C 178.167,104.512 180,103.179 181.5,101.5C 192.061,97.7851 199.061,101.118 202.5,111.5 Z"/></g>
<g><path style="opacity:1" fill="#a87133" d="M 199.5,131.5 C 197.725,136.943 194.058,140.276 188.5,141.5C 192.791,138.877 196.457,135.544 199.5,131.5 Z"/></g>
<g><path style="opacity:0.278" fill="#b99c6f" d="M 31.5,135.5 C 31.8333,135.5 32.1667,135.5 32.5,135.5C 33.4511,136.919 33.7845,138.585 33.5,140.5C 33.5,141.5 33.5,142.5 33.5,143.5C 34.0916,146.127 34.4249,148.794 34.5,151.5C 34.1667,151.5 33.8333,151.5 33.5,151.5C 32.1903,146.257 31.5237,140.923 31.5,135.5 Z"/></g>
<g><path style="opacity:1" fill="#f9e892" d="M 37.5,119.5 C 37.5295,129.86 37.6961,140.193 38,150.5C 37.6667,150.833 37.3333,151.167 37,151.5C 36.1249,148.599 34.9582,145.932 33.5,143.5C 33.5,142.5 33.5,141.5 33.5,140.5C 35.0777,133.543 36.4111,126.543 37.5,119.5 Z"/></g>
<g><path style="opacity:1" fill="#c67b14" d="M 167.5,127.5 C 167.756,130.598 168.422,133.598 169.5,136.5C 169.703,138.044 170.37,139.378 171.5,140.5C 173.184,141.15 174.517,142.15 175.5,143.5C 178.501,147.083 182.501,148.416 187.5,147.5C 175.603,150.499 168.603,145.832 166.5,133.5C 166.205,131.265 166.539,129.265 167.5,127.5 Z"/></g>
<g><path style="opacity:1" fill="#ad672b" d="M 169.5,136.5 C 169.833,136.5 170.167,136.5 170.5,136.5C 170.833,137.5 171.5,138.167 172.5,138.5C 173.749,140.136 175.416,141.303 177.5,142C 181.188,142.45 184.854,142.283 188.5,141.5C 187.737,142.268 186.737,142.768 185.5,143C 182.183,143.498 178.85,143.665 175.5,143.5C 174.517,142.15 173.184,141.15 171.5,140.5C 170.37,139.378 169.703,138.044 169.5,136.5 Z"/></g>
<g><path style="opacity:1" fill="#c96d14" d="M 199.5,130.5 C 200.833,130.5 201.5,131.167 201.5,132.5C 200.294,136.577 198.294,140.243 195.5,143.5C 195.167,143.5 194.833,143.5 194.5,143.5C 192.664,145.588 190.331,146.921 187.5,147.5C 182.501,148.416 178.501,147.083 175.5,143.5C 178.85,143.665 182.183,143.498 185.5,143C 186.737,142.768 187.737,142.268 188.5,141.5C 194.058,140.276 197.725,136.943 199.5,131.5C 199.5,131.167 199.5,130.833 199.5,130.5 Z"/></g>
<g><path style="opacity:1" fill="#fabd33" d="M 51.5,119.5 C 51.3359,122.187 51.5026,124.854 52,127.5C 53.3204,127.799 54.8204,127.966 56.5,128C 57.8333,129.333 57.8333,130.667 56.5,132C 58.2915,136.765 58.9581,141.598 58.5,146.5C 59.1667,145.833 59.8333,145.167 60.5,144.5C 60.877,135.783 62.2104,127.45 64.5,119.5C 64.0834,123.817 64.7501,127.817 66.5,131.5C 66.7247,134.546 68.058,136.879 70.5,138.5C 75.777,148.482 83.777,151.149 94.5,146.5C 95.9093,145.151 97.2426,143.818 98.5,142.5C 100.874,139.314 101.874,135.647 101.5,131.5C 101.833,131.5 102.167,131.5 102.5,131.5C 103.279,134.545 104.613,137.211 106.5,139.5C 106.5,140.5 106.5,141.5 106.5,142.5C 102.5,142.5 100.5,144.5 100.5,148.5C 97.0897,148.384 95.7564,150.05 96.5,153.5C 95.5,153.5 94.5,153.5 93.5,153.5C 92.4168,153.539 91.4168,153.873 90.5,154.5C 88.9258,158.078 86.9258,161.411 84.5,164.5C 83.3869,161.559 82.0536,158.892 80.5,156.5C 77.6904,154.75 75.6904,152.25 74.5,149C 72.5106,148.481 71.5106,149.314 71.5,151.5C 70.6618,151.842 70.3284,152.508 70.5,153.5C 64.096,153.738 60.9293,157.071 61,163.5C 59.5683,159.623 57.4016,156.289 54.5,153.5C 53.2692,150.313 52.1026,146.98 51,143.5C 50.1772,135.323 50.3439,127.323 51.5,119.5 Z"/></g>
<g><path style="opacity:1" fill="#bd6d22" d="M 100.5,130.5 C 101.167,130.5 101.5,130.833 101.5,131.5C 101.874,135.647 100.874,139.314 98.5,142.5C 98.189,141.522 97.5223,140.855 96.5,140.5C 88.3762,145.978 80.3762,145.645 72.5,139.5C 71.7492,138.624 71.2492,137.624 71,136.5C 70.5357,137.094 70.369,137.761 70.5,138.5C 68.058,136.879 66.7247,134.546 66.5,131.5C 67.609,131.557 68.609,131.89 69.5,132.5C 72.1639,136.016 75.4973,138.85 79.5,141C 89.9994,144.417 96.9994,140.917 100.5,130.5 Z"/></g>
<g><path style="opacity:1" fill="#cf7311" d="M 98.5,142.5 C 97.2426,143.818 95.9093,145.151 94.5,146.5C 83.777,151.149 75.777,148.482 70.5,138.5C 70.369,137.761 70.5357,137.094 71,136.5C 71.2492,137.624 71.7492,138.624 72.5,139.5C 80.3762,145.645 88.3762,145.978 96.5,140.5C 97.5223,140.855 98.189,141.522 98.5,142.5 Z"/></g>
<g><path style="opacity:1" fill="#e9bd4b" d="M 151.5,127.5 C 150.833,127.5 150.167,127.5 149.5,127.5C 147.323,124.246 144.323,122.246 140.5,121.5C 138.527,120.837 136.361,120.504 134,120.5C 130.523,120.328 127.356,120.994 124.5,122.5C 121.252,124.403 118.252,126.737 115.5,129.5C 112.146,134.207 109.313,139.207 107,144.5C 99.8329,149.86 94.3329,156.527 90.5,164.5C 89.8333,165.167 89.1667,165.833 88.5,166.5C 88.1667,166.5 87.8333,166.5 87.5,166.5C 89.7737,162.286 91.7737,157.953 93.5,153.5C 94.5,153.5 95.5,153.5 96.5,153.5C 95.7564,150.05 97.0897,148.384 100.5,148.5C 100.5,144.5 102.5,142.5 106.5,142.5C 106.5,141.5 106.5,140.5 106.5,139.5C 107.06,137.199 107.56,134.866 108,132.5C 108.689,133.357 109.522,134.023 110.5,134.5C 113.942,129.723 117.442,125.056 121,120.5C 121.414,120.957 121.914,121.291 122.5,121.5C 127.825,118.637 133.492,117.804 139.5,119C 145.372,119.394 149.372,122.228 151.5,127.5 Z"/></g>
<g><path style="opacity:1" fill="#fef7cc" d="M 140.5,121.5 C 144.323,122.246 147.323,124.246 149.5,127.5C 145.654,126.635 142.654,124.635 140.5,121.5 Z"/></g>
<g><path style="opacity:1" fill="#fdf3b7" d="M 140.5,121.5 C 135.13,121.392 129.797,121.725 124.5,122.5C 127.356,120.994 130.523,120.328 134,120.5C 136.361,120.504 138.527,120.837 140.5,121.5 Z"/></g>
<g><path style="opacity:1" fill="#f9bc33" d="M 213.5,104.5 C 214.349,106.888 215.349,109.221 216.5,111.5C 219.167,124.167 219.167,136.833 216.5,149.5C 214.509,159.153 210.175,167.486 203.5,174.5C 203.055,171.635 203.722,169.135 205.5,167C 204.451,166.508 203.451,166.674 202.5,167.5C 201.692,167.192 201.025,166.692 200.5,166C 201.823,165.184 202.489,164.017 202.5,162.5C 203.404,161.791 203.737,160.791 203.5,159.5C 202.5,159.5 201.5,159.5 200.5,159.5C 201.398,158.842 202.398,158.176 203.5,157.5C 202.23,156.712 201.23,155.712 200.5,154.5C 198.253,151.091 196.586,147.424 195.5,143.5C 198.294,140.243 200.294,136.577 201.5,132.5C 202.222,132.082 202.722,131.416 203,130.5C 203.499,125.845 203.666,121.179 203.5,116.5C 204.317,118.969 204.817,121.635 205,124.5C 205.333,123.833 205.667,123.167 206,122.5C 206.278,123.416 206.778,124.082 207.5,124.5C 206.567,127.927 205.4,131.26 204,134.5C 201.591,136.309 200.591,138.642 201,141.5C 203.562,142.364 205.395,144.031 206.5,146.5C 209.264,140.456 211.264,134.122 212.5,127.5C 213.33,133.138 213.83,138.804 214,144.5C 214.414,144.043 214.914,143.709 215.5,143.5C 216.2,134.402 216.2,125.402 215.5,116.5C 214.006,112.723 213.339,108.723 213.5,104.5 Z"/></g>
<g><path style="opacity:1" fill="#f9ca4c" d="M 46.5,147.5 C 48.5839,153.536 50.9172,159.536 53.5,165.5C 54.3322,169.501 55.9988,173.168 58.5,176.5C 58.5,178.167 58.5,179.833 58.5,181.5C 57.448,181.351 56.448,181.517 55.5,182C 58.4121,185.516 61.4121,189.016 64.5,192.5C 63.9017,193.795 63.4017,195.128 63,196.5C 61.8526,194.181 60.0193,192.848 57.5,192.5C 57.3417,190.179 56.3417,188.346 54.5,187C 54.8333,186.667 55.1667,186.333 55.5,186C 54.5,185.667 53.5,185.333 52.5,185C 51.1666,182.809 49.5,180.976 47.5,179.5C 45.4236,174.349 43.0903,169.349 40.5,164.5C 43.1528,158.918 42.9862,153.251 40,147.5C 39.5004,140.508 39.3337,133.508 39.5,126.5C 39.3367,124.143 39.5034,121.81 40,119.5C 40.414,119.043 40.914,118.709 41.5,118.5C 42.1021,127.923 43.2687,137.256 45,146.5C 45.3826,147.056 45.8826,147.389 46.5,147.5 Z"/></g>
<g><path style="opacity:0.306" fill="#d5a041" d="M 235.5,143.5 C 234.743,149.219 233.076,154.552 230.5,159.5C 230.967,155.695 231.967,152.028 233.5,148.5C 233.796,146.597 234.463,144.93 235.5,143.5 Z"/></g>
<g><path style="opacity:0.275" fill="#d18129" d="M 33.5,151.5 C 33.8333,151.5 34.1667,151.5 34.5,151.5C 35.6293,152.47 36.6293,153.636 37.5,155C 38.2743,158.272 39.2743,161.439 40.5,164.5C 43.0903,169.349 45.4236,174.349 47.5,179.5C 45.7775,177.747 44.2775,175.747 43,173.5C 39.5433,166.257 36.3766,158.924 33.5,151.5 Z"/></g>
<g><path style="opacity:1" fill="#fdf4bf" d="M 156.5,47.5 C 129.001,41.5469 103.668,46.3803 80.5,62C 48.5505,88.6343 40.2172,121.134 55.5,159.5C 59.6197,168.616 65.2864,176.616 72.5,183.5C 78.3128,189.647 84.9794,194.647 92.5,198.5C 96.8943,201.859 101.894,203.859 107.5,204.5C 126.292,211.419 144.959,211.086 163.5,203.5C 168.523,202.819 172.856,200.819 176.5,197.5C 184.274,194.071 190.94,189.071 196.5,182.5C 199.573,180.431 201.906,177.764 203.5,174.5C 210.175,167.486 214.509,159.153 216.5,149.5C 218.41,146.548 219.41,143.214 219.5,139.5C 220.117,139.389 220.617,139.056 221,138.5C 221.494,140.134 221.66,141.801 221.5,143.5C 220.583,148.587 219.25,153.587 217.5,158.5C 217.5,158.833 217.5,159.167 217.5,159.5C 212.259,168.974 206.259,177.974 199.5,186.5C 192.029,192.98 184.029,198.647 175.5,203.5C 154.942,212.402 133.608,214.736 111.5,210.5C 107.313,209.031 102.98,207.698 98.5,206.5C 97.791,205.596 96.791,205.263 95.5,205.5C 88.3007,201.742 81.6341,197.075 75.5,191.5C 73.1667,189.5 70.8333,187.5 68.5,185.5C 63.1881,179.027 58.1881,172.36 53.5,165.5C 50.9172,159.536 48.5839,153.536 46.5,147.5C 45.8379,143.534 45.5045,139.534 45.5,135.5C 45.0316,125.054 45.6982,114.721 47.5,104.5C 47.5,104.167 47.5,103.833 47.5,103.5C 49.9661,99.9816 50.9661,95.9816 50.5,91.5C 51.675,91.719 52.675,91.3857 53.5,90.5C 58.4005,80.4196 65.0672,71.5863 73.5,64C 79.1562,60.4972 84.4896,56.4972 89.5,52C 93.9282,50.685 98.2616,49.185 102.5,47.5C 118.577,43.6928 134.911,42.5262 151.5,44C 153.949,44.7246 156.283,45.7246 158.5,47C 157.906,47.4643 157.239,47.631 156.5,47.5 Z"/></g>
<g><path style="opacity:1" fill="#c68019" d="M 187.5,159.5 C 187.833,159.5 188.167,159.5 188.5,159.5C 191.127,159.79 192.794,161.124 193.5,163.5C 190.487,163.419 188.487,162.086 187.5,159.5 Z"/></g>
<g><path style="opacity:1" fill="#f1b640" d="M 54.5,153.5 C 57.4016,156.289 59.5683,159.623 61,163.5C 60.9293,157.071 64.096,153.738 70.5,153.5C 69.0139,155.619 67.0139,157.119 64.5,158C 65.4158,158.278 66.0825,158.778 66.5,159.5C 65.325,159.281 64.325,159.614 63.5,160.5C 64.9014,161.521 66.2347,162.521 67.5,163.5C 65.8333,163.5 64.1667,163.5 62.5,163.5C 64.7166,166.662 65.8833,170.329 66,174.5C 68.6633,177.168 70.83,180.168 72.5,183.5C 65.2864,176.616 59.6197,168.616 55.5,159.5C 55.4828,157.435 55.1495,155.435 54.5,153.5 Z"/></g>
<g><path style="opacity:1" fill="#fbf7e5" d="M 199.5,159.5 C 198.115,160.574 196.949,161.907 196,163.5C 195.051,161.907 193.885,160.574 192.5,159.5C 193.207,157.866 194.373,156.532 196,155.5C 198.071,156.103 199.238,157.436 199.5,159.5 Z"/></g>
<g><path style="opacity:1" fill="#fdf2c5" d="M 200.5,154.5 C 201.23,155.712 202.23,156.712 203.5,157.5C 202.398,158.176 201.398,158.842 200.5,159.5C 200.167,159.5 199.833,159.5 199.5,159.5C 199.238,157.436 198.071,156.103 196,155.5C 194.373,156.532 193.207,157.866 192.5,159.5C 191.292,158.766 189.959,158.433 188.5,158.5C 191.472,156.359 193.972,153.692 196,150.5C 197.307,152.192 198.807,153.525 200.5,154.5 Z"/></g>
<g><path style="opacity:1" fill="#faf3d3" d="M 71.5,151.5 C 73.8335,153.897 76.5002,156.063 79.5,158C 78.2625,158.232 77.2625,158.732 76.5,159.5C 74.3935,160.566 72.8935,162.233 72,164.5C 71.2484,161.579 69.4151,159.913 66.5,159.5C 66.0825,158.778 65.4158,158.278 64.5,158C 67.0139,157.119 69.0139,155.619 70.5,153.5C 70.3284,152.508 70.6618,151.842 71.5,151.5 Z"/></g>
<g><path style="opacity:1" fill="#edc15d" d="M 80.5,156.5 C 81.8333,157.5 81.8333,158.5 80.5,159.5C 79.1667,159.5 77.8333,159.5 76.5,159.5C 77.2625,158.732 78.2625,158.232 79.5,158C 76.5002,156.063 73.8335,153.897 71.5,151.5C 71.5106,149.314 72.5106,148.481 74.5,149C 75.6904,152.25 77.6904,154.75 80.5,156.5 Z"/></g>
<g><path style="opacity:1" fill="#edb946" d="M 194.5,143.5 C 194.833,143.5 195.167,143.5 195.5,143.5C 196.586,147.424 198.253,151.091 200.5,154.5C 198.807,153.525 197.307,152.192 196,150.5C 193.972,153.692 191.472,156.359 188.5,158.5C 188.5,158.833 188.5,159.167 188.5,159.5C 188.167,159.5 187.833,159.5 187.5,159.5C 186.295,158.328 186.295,156.995 187.5,155.5C 189.386,154.594 191.22,153.594 193,152.5C 193.49,151.207 193.657,149.873 193.5,148.5C 192.448,148.649 191.448,148.483 190.5,148C 193.447,147.888 194.78,146.388 194.5,143.5 Z"/></g>
<g><path style="opacity:1" fill="#c88834" d="M 188.5,159.5 C 188.5,159.167 188.5,158.833 188.5,158.5C 189.959,158.433 191.292,158.766 192.5,159.5C 193.885,160.574 195.051,161.907 196,163.5C 196.949,161.907 198.115,160.574 199.5,159.5C 199.833,159.5 200.167,159.5 200.5,159.5C 201.5,159.5 202.5,159.5 203.5,159.5C 203.737,160.791 203.404,161.791 202.5,162.5C 201.099,162.971 199.766,163.638 198.5,164.5C 196.002,169.98 194.335,169.646 193.5,163.5C 192.794,161.124 191.127,159.79 188.5,159.5 Z"/></g>
<g><path style="opacity:1" fill="#f8b32c" d="M 166.5,133.5 C 168.603,145.832 175.603,150.499 187.5,147.5C 190.331,146.921 192.664,145.588 194.5,143.5C 194.78,146.388 193.447,147.888 190.5,148C 191.448,148.483 192.448,148.649 193.5,148.5C 193.657,149.873 193.49,151.207 193,152.5C 191.22,153.594 189.386,154.594 187.5,155.5C 186.295,156.995 186.295,158.328 187.5,159.5C 188.487,162.086 190.487,163.419 193.5,163.5C 194.335,169.646 196.002,169.98 198.5,164.5C 199.766,163.638 201.099,162.971 202.5,162.5C 202.489,164.017 201.823,165.184 200.5,166C 201.025,166.692 201.692,167.192 202.5,167.5C 203.451,166.674 204.451,166.508 205.5,167C 203.722,169.135 203.055,171.635 203.5,174.5C 201.906,177.764 199.573,180.431 196.5,182.5C 195.167,182.5 193.833,182.5 192.5,182.5C 192.649,183.552 192.483,184.552 192,185.5C 189.515,186.987 187.348,188.821 185.5,191C 183.132,191.856 180.798,192.69 178.5,193.5C 178.077,192.735 177.743,191.902 177.5,191C 180.12,188.253 182.62,185.419 185,182.5C 185.667,180.5 185.667,178.5 185,176.5C 183.711,174.355 182.878,172.022 182.5,169.5C 182.441,165.954 181.608,162.621 180,159.5C 179.417,157.998 178.584,156.665 177.5,155.5C 172.97,153.784 170.97,150.451 171.5,145.5C 170.167,145.5 168.833,145.5 167.5,145.5C 167.033,143.289 166.033,141.289 164.5,139.5C 162.77,138.974 161.436,137.974 160.5,136.5C 161.634,133.264 163.634,132.264 166.5,133.5 Z"/></g>
<g><path style="opacity:1" fill="#c9852d" d="M 66.5,159.5 C 69.4151,159.913 71.2484,161.579 72,164.5C 72.8935,162.233 74.3935,160.566 76.5,159.5C 77.8333,159.5 79.1667,159.5 80.5,159.5C 80.5858,160.496 80.2524,161.329 79.5,162C 75.4266,162.359 73.0933,164.526 72.5,168.5C 71.0546,166.606 69.3879,164.94 67.5,163.5C 66.2347,162.521 64.9014,161.521 63.5,160.5C 64.325,159.614 65.325,159.281 66.5,159.5 Z"/></g>
<g><path style="opacity:0.463" fill="#e4a83b" d="M 230.5,159.5 C 229.486,165.192 227.152,170.192 223.5,174.5C 223.693,171.692 224.36,169.025 225.5,166.5C 227.412,164.343 229.079,162.009 230.5,159.5 Z"/></g>
<g><path style="opacity:1" fill="#f6b42c" d="M 93.5,153.5 C 91.7737,157.953 89.7737,162.286 87.5,166.5C 86.7279,170.452 86.3946,174.452 86.5,178.5C 86.7204,181.4 86.0538,184.067 84.5,186.5C 82.8539,185.221 81.6872,183.555 81,181.5C 79.6667,183.167 78.3333,184.833 77,186.5C 75.871,184.859 74.371,183.859 72.5,183.5C 70.83,180.168 68.6633,177.168 66,174.5C 65.8833,170.329 64.7166,166.662 62.5,163.5C 64.1667,163.5 65.8333,163.5 67.5,163.5C 69.3879,164.94 71.0546,166.606 72.5,168.5C 73.0933,164.526 75.4266,162.359 79.5,162C 80.2524,161.329 80.5858,160.496 80.5,159.5C 81.8333,158.5 81.8333,157.5 80.5,156.5C 82.0536,158.892 83.3869,161.559 84.5,164.5C 86.9258,161.411 88.9258,158.078 90.5,154.5C 91.4168,153.873 92.4168,153.539 93.5,153.5 Z"/></g>
<g><path style="opacity:1" fill="#eac766" d="M 53.5,165.5 C 58.1881,172.36 63.1881,179.027 68.5,185.5C 65.1866,182.522 61.8533,179.522 58.5,176.5C 55.9988,173.168 54.3322,169.501 53.5,165.5 Z"/></g>
<g><path style="opacity:1" fill="#eec758" d="M 217.5,159.5 C 217.285,163.266 215.951,166.6 213.5,169.5C 214.535,171.128 214.535,172.795 213.5,174.5C 211.903,175.737 210.737,177.404 210,179.5C 209.667,179.167 209.333,178.833 209,178.5C 205.667,181.002 202.501,183.668 199.5,186.5C 206.259,177.974 212.259,168.974 217.5,159.5 Z"/></g>
<g><path style="opacity:1" fill="#ebe4c2" d="M 124.5,122.5 C 121.871,125.631 119.038,128.631 116,131.5C 115.506,133.134 115.34,134.801 115.5,136.5C 114.448,136.351 113.448,136.517 112.5,137C 109.68,140.292 108.347,144.125 108.5,148.5C 107.022,148.238 105.689,148.571 104.5,149.5C 103.039,152.458 101.039,154.958 98.5,157C 93.0703,160.263 90.9037,165.097 92,171.5C 97.6556,176.193 104.156,177.693 111.5,176C 119.272,173.279 127.272,171.779 135.5,171.5C 143.379,172.176 151.045,173.676 158.5,176C 167.913,178.392 174.247,175.225 177.5,166.5C 178.821,170.233 178.821,174.066 177.5,178C 171.567,177.812 165.567,177.978 159.5,178.5C 159.5,179.5 159.5,180.5 159.5,181.5C 163.514,181.334 167.514,181.501 171.5,182C 169.654,183.999 167.321,184.832 164.5,184.5C 160.046,183.293 155.713,181.793 151.5,180C 146.166,179.433 140.833,178.933 135.5,178.5C 135.281,177.325 135.614,176.325 136.5,175.5C 141.473,177.75 146.473,177.917 151.5,176C 141.941,173.358 132.274,172.858 122.5,174.5C 122.5,175.5 122.5,176.5 122.5,177.5C 126.182,177.335 129.848,177.501 133.5,178C 128.104,179.682 122.771,179.682 117.5,178C 108.506,177.5 99.5062,177.334 90.5,177.5C 90.5,173.167 90.5,168.833 90.5,164.5C 94.3329,156.527 99.8329,149.86 107,144.5C 109.313,139.207 112.146,134.207 115.5,129.5C 118.252,126.737 121.252,124.403 124.5,122.5 Z"/></g>
<g><path style="opacity:1" fill="#ab6b22" d="M 180.5,167.5 C 181.338,167.842 181.672,168.508 181.5,169.5C 181.5,172.5 181.5,175.5 181.5,178.5C 177.739,184.673 172.072,187.673 164.5,187.5C 162.631,187.493 160.964,187.16 159.5,186.5C 173.9,188.093 180.9,181.759 180.5,167.5 Z"/></g>
<g><path style="opacity:1" fill="#f2e1ba" d="M 175.5,159.5 C 177.535,161.938 179.201,164.605 180.5,167.5C 180.9,181.759 173.9,188.093 159.5,186.5C 155.767,184.589 151.767,183.256 147.5,182.5C 146.391,181.71 145.058,181.21 143.5,181C 137.167,180.333 130.833,180.333 124.5,181C 119.881,181.991 115.548,183.491 111.5,185.5C 95.5791,188.901 87.9124,182.567 88.5,166.5C 89.1667,165.833 89.8333,165.167 90.5,164.5C 90.5,168.833 90.5,173.167 90.5,177.5C 99.5062,177.334 108.506,177.5 117.5,178C 122.771,179.682 128.104,179.682 133.5,178C 129.848,177.501 126.182,177.335 122.5,177.5C 122.5,176.5 122.5,175.5 122.5,174.5C 132.274,172.858 141.941,173.358 151.5,176C 146.473,177.917 141.473,177.75 136.5,175.5C 135.614,176.325 135.281,177.325 135.5,178.5C 140.833,178.933 146.166,179.433 151.5,180C 155.713,181.793 160.046,183.293 164.5,184.5C 167.321,184.832 169.654,183.999 171.5,182C 167.514,181.501 163.514,181.334 159.5,181.5C 159.5,180.5 159.5,179.5 159.5,178.5C 165.567,177.978 171.567,177.812 177.5,178C 178.821,174.066 178.821,170.233 177.5,166.5C 176.067,164.442 175.4,162.108 175.5,159.5 Z"/></g>
<g><path style="opacity:1" fill="#f8ca48" d="M 224.5,131.5 C 226.074,131.937 227.241,132.937 228,134.5C 230.556,143.826 229.39,152.66 224.5,161C 225.406,162.699 225.739,164.533 225.5,166.5C 224.36,169.025 223.693,171.692 223.5,174.5C 222.292,175.234 220.959,175.567 219.5,175.5C 218.36,178.025 217.693,180.692 217.5,183.5C 216.167,183.5 214.833,183.5 213.5,183.5C 214.38,185.611 214.38,187.611 213.5,189.5C 213.5,190.167 213.167,190.5 212.5,190.5C 208.766,193.231 205.766,196.564 203.5,200.5C 202.5,201.167 201.5,201.833 200.5,202.5C 197.63,203.433 195.296,205.1 193.5,207.5C 190.518,208.496 187.518,208.663 184.5,208C 182.792,210.043 180.792,211.71 178.5,213C 172.822,214.689 167.156,216.356 161.5,218C 159.107,219.863 156.44,221.196 153.5,222C 144.462,222.775 135.462,222.609 126.5,221.5C 123.039,221.768 120.039,222.768 117.5,224.5C 116.833,224.167 116.167,223.833 115.5,223.5C 116.171,222.153 116.171,220.986 115.5,220C 121.989,219.88 128.489,220.047 135,220.5C 138.5,220.333 142,220.167 145.5,220C 148.852,217.402 152.519,216.902 156.5,218.5C 163.534,217.064 170.034,214.398 176,210.5C 176.414,210.957 176.914,211.291 177.5,211.5C 185.372,205.381 193.538,199.714 202,194.5C 205.978,189.852 209.978,185.185 214,180.5C 215.812,178.079 215.646,176.079 213.5,174.5C 214.535,172.795 214.535,171.128 213.5,169.5C 215.951,166.6 217.285,163.266 217.5,159.5C 217.5,159.167 217.5,158.833 217.5,158.5C 223.077,150.534 225.41,141.534 224.5,131.5 Z"/></g>
<g><path style="opacity:0.922" fill="#e0a63d" d="M 223.5,174.5 C 220.944,180.049 217.61,185.049 213.5,189.5C 214.38,187.611 214.38,185.611 213.5,183.5C 214.833,183.5 216.167,183.5 217.5,183.5C 217.693,180.692 218.36,178.025 219.5,175.5C 220.959,175.567 222.292,175.234 223.5,174.5 Z"/></g>
<g><path style="opacity:0.78" fill="#de9333" d="M 47.5,179.5 C 49.5,180.976 51.1666,182.809 52.5,185C 53.5,185.333 54.5,185.667 55.5,186C 55.1667,186.333 54.8333,186.667 54.5,187C 56.3417,188.346 57.3417,190.179 57.5,192.5C 55.8712,191.375 54.3712,190.041 53,188.5C 50.6422,185.778 48.8089,182.778 47.5,179.5 Z"/></g>
<g><path style="opacity:1" fill="#b26923" d="M 87.5,166.5 C 87.8333,166.5 88.1667,166.5 88.5,166.5C 87.9124,182.567 95.5791,188.901 111.5,185.5C 108.913,186.816 105.913,187.483 102.5,187.5C 99.5,187.333 96.5,187.167 93.5,187C 91.0523,185.14 89.0523,182.973 87.5,180.5C 87.6716,179.508 87.3382,178.842 86.5,178.5C 86.3946,174.452 86.7279,170.452 87.5,166.5 Z"/></g>
<g><path style="opacity:1" fill="#f5bf46" d="M 58.5,176.5 C 61.8533,179.522 65.1866,182.522 68.5,185.5C 70.8333,187.5 73.1667,189.5 75.5,191.5C 75.5,192.833 75.5,194.167 75.5,195.5C 77.3797,195.229 78.713,195.896 79.5,197.5C 77.0733,197.523 74.74,198.023 72.5,199C 75.9231,200.904 79.5898,201.737 83.5,201.5C 83.8333,204.5 82.5,205.833 79.5,205.5C 79.33,206.822 79.6634,207.989 80.5,209C 82.9005,209.186 85.2338,209.686 87.5,210.5C 91.5478,216.178 96.8811,217.845 103.5,215.5C 103.461,218.089 104.461,220.089 106.5,221.5C 86.8836,217.199 70.5503,207.532 57.5,192.5C 60.0193,192.848 61.8526,194.181 63,196.5C 63.4017,195.128 63.9017,193.795 64.5,192.5C 61.4121,189.016 58.4121,185.516 55.5,182C 56.448,181.517 57.448,181.351 58.5,181.5C 58.5,179.833 58.5,178.167 58.5,176.5 Z"/></g>
<g><path style="opacity:1" fill="#cc6b13" d="M 181.5,178.5 C 178.661,190.152 171.328,194.652 159.5,192C 151.91,189.632 144.243,187.799 136.5,186.5C 134.5,186.5 132.5,186.5 130.5,186.5C 119.858,188.829 109.191,190.829 98.5,192.5C 92.7978,190.461 89.1311,186.461 87.5,180.5C 89.0523,182.973 91.0523,185.14 93.5,187C 96.5,187.167 99.5,187.333 102.5,187.5C 105.913,187.483 108.913,186.816 111.5,185.5C 116.614,184.805 121.614,183.638 126.5,182C 133.514,181.501 140.514,181.668 147.5,182.5C 151.767,183.256 155.767,184.589 159.5,186.5C 160.964,187.16 162.631,187.493 164.5,187.5C 172.072,187.673 177.739,184.673 181.5,178.5 Z"/></g>
<g><path style="opacity:1" fill="#a5652e" d="M 147.5,182.5 C 140.514,181.668 133.514,181.501 126.5,182C 121.614,183.638 116.614,184.805 111.5,185.5C 115.548,183.491 119.881,181.991 124.5,181C 130.833,180.333 137.167,180.333 143.5,181C 145.058,181.21 146.391,181.71 147.5,182.5 Z"/></g>
<g><path style="opacity:1" fill="#f7ad27" d="M 178.5,193.5 C 177.833,194.833 177.167,196.167 176.5,197.5C 175.127,197.343 173.793,197.51 172.5,198C 169.475,199.935 166.475,201.768 163.5,203.5C 158.261,204.037 153.261,203.37 148.5,201.5C 146.727,203.372 144.727,203.205 142.5,201C 144.278,198.865 144.945,196.365 144.5,193.5C 143.5,193.5 142.5,193.5 141.5,193.5C 140.15,192.176 140.317,191.176 142,190.5C 150.696,191.967 159.196,193.967 167.5,196.5C 169.5,196.167 171.5,195.833 173.5,195.5C 171.833,193.833 172.167,192.833 174.5,192.5C 175.849,192.846 177.183,193.179 178.5,193.5 Z"/></g>
<g><path style="opacity:1" fill="#f7a62b" d="M 181.5,169.5 C 181.833,169.5 182.167,169.5 182.5,169.5C 182.878,172.022 183.711,174.355 185,176.5C 185.667,178.5 185.667,180.5 185,182.5C 182.62,185.419 180.12,188.253 177.5,191C 177.743,191.902 178.077,192.735 178.5,193.5C 177.183,193.179 175.849,192.846 174.5,192.5C 172.167,192.833 171.833,193.833 173.5,195.5C 171.5,195.833 169.5,196.167 167.5,196.5C 159.196,193.967 150.696,191.967 142,190.5C 140.317,191.176 140.15,192.176 141.5,193.5C 141.167,193.5 140.833,193.5 140.5,193.5C 140.167,193.5 139.833,193.5 139.5,193.5C 138.523,191.179 137.523,188.846 136.5,186.5C 144.243,187.799 151.91,189.632 159.5,192C 171.328,194.652 178.661,190.152 181.5,178.5C 181.5,175.5 181.5,172.5 181.5,169.5 Z"/></g>
<g><path style="opacity:1" fill="#e0a93f" d="M 196.5,182.5 C 190.94,189.071 184.274,194.071 176.5,197.5C 177.167,196.167 177.833,194.833 178.5,193.5C 180.798,192.69 183.132,191.856 185.5,191C 187.348,188.821 189.515,186.987 192,185.5C 192.483,184.552 192.649,183.552 192.5,182.5C 193.833,182.5 195.167,182.5 196.5,182.5 Z"/></g>
<g><path style="opacity:1" fill="#f0ae38" d="M 130.5,186.5 C 132.5,186.5 134.5,186.5 136.5,186.5C 137.523,188.846 138.523,191.179 139.5,193.5C 137.983,193.489 136.816,192.823 136,191.5C 135.71,189.956 135.044,188.623 134,187.5C 133.167,189.167 132.333,190.833 131.5,192.5C 129.414,193.489 127.747,194.822 126.5,196.5C 125.224,197.386 125.224,198.386 126.5,199.5C 128.026,199.994 129.359,200.661 130.5,201.5C 128.143,201.663 125.81,201.497 123.5,201C 119.069,197.428 119.069,194.428 123.5,192C 125.473,191.505 127.473,191.338 129.5,191.5C 129.629,189.784 129.962,188.117 130.5,186.5 Z"/></g>
<g><path style="opacity:1" fill="#e9c367" d="M 75.5,191.5 C 81.6341,197.075 88.3007,201.742 95.5,205.5C 93.5,205.5 91.5,205.5 89.5,205.5C 89.719,204.325 89.3857,203.325 88.5,202.5C 85.2843,201.063 82.2843,199.396 79.5,197.5C 78.713,195.896 77.3797,195.229 75.5,195.5C 75.5,194.167 75.5,192.833 75.5,191.5 Z"/></g>
<g><path style="opacity:0.039" fill="#c57615" d="M 212.5,190.5 C 210.234,194.436 207.234,197.769 203.5,200.5C 205.766,196.564 208.766,193.231 212.5,190.5 Z"/></g>
<g><path style="opacity:1" fill="#fdf3d4" d="M 139.5,193.5 C 139.833,193.5 140.167,193.5 140.5,193.5C 141.11,194.391 141.443,195.391 141.5,196.5C 138.383,196.642 135.883,197.976 134,200.5C 132.117,197.976 129.617,196.642 126.5,196.5C 127.747,194.822 129.414,193.489 131.5,192.5C 132.333,190.833 133.167,189.167 134,187.5C 135.044,188.623 135.71,189.956 136,191.5C 136.816,192.823 137.983,193.489 139.5,193.5 Z"/></g>
<g><path style="opacity:1" fill="#eec358" d="M 199.5,186.5 C 197.359,188.537 196.026,191.037 195.5,194C 188.384,197.319 182.384,201.819 177.5,207.5C 174.14,207.616 170.807,207.949 167.5,208.5C 170.47,207.347 173.137,205.68 175.5,203.5C 184.029,198.647 192.029,192.98 199.5,186.5 Z"/></g>
<g><path style="opacity:1" fill="#f9aa25" d="M 130.5,186.5 C 129.962,188.117 129.629,189.784 129.5,191.5C 127.473,191.338 125.473,191.505 123.5,192C 119.069,194.428 119.069,197.428 123.5,201C 125.81,201.497 128.143,201.663 130.5,201.5C 130.5,203.167 130.5,204.833 130.5,206.5C 126.818,206.665 123.152,206.499 119.5,206C 115.446,203.303 111.779,200.136 108.5,196.5C 104.039,195.144 99.7052,195.477 95.5,197.5C 94.8333,197.167 94.1667,196.833 93.5,196.5C 95.0154,194.832 96.6821,193.499 98.5,192.5C 109.191,190.829 119.858,188.829 130.5,186.5 Z"/></g>
<g><path style="opacity:0.039" fill="#bf7718" d="M 200.5,202.5 C 198.704,204.9 196.37,206.567 193.5,207.5C 195.296,205.1 197.63,203.433 200.5,202.5 Z"/></g>
<g><path style="opacity:1" fill="#f0ad34" d="M 86.5,178.5 C 87.3382,178.842 87.6716,179.508 87.5,180.5C 89.1311,186.461 92.7978,190.461 98.5,192.5C 96.6821,193.499 95.0154,194.832 93.5,196.5C 94.1667,196.833 94.8333,197.167 95.5,197.5C 99.7052,195.477 104.039,195.144 108.5,196.5C 111.779,200.136 115.446,203.303 119.5,206C 123.152,206.499 126.818,206.665 130.5,206.5C 130.5,204.833 130.5,203.167 130.5,201.5C 131.644,203.1 132.811,204.767 134,206.5C 135.039,202.629 137.539,200.295 141.5,199.5C 142.776,198.386 142.776,197.386 141.5,196.5C 141.443,195.391 141.11,194.391 140.5,193.5C 140.833,193.5 141.167,193.5 141.5,193.5C 142.5,193.5 143.5,193.5 144.5,193.5C 144.945,196.365 144.278,198.865 142.5,201C 144.727,203.205 146.727,203.372 148.5,201.5C 153.261,203.37 158.261,204.037 163.5,203.5C 144.959,211.086 126.292,211.419 107.5,204.5C 102.88,201.695 97.8797,199.695 92.5,198.5C 84.9794,194.647 78.3128,189.647 72.5,183.5C 74.371,183.859 75.871,184.859 77,186.5C 78.3333,184.833 79.6667,183.167 81,181.5C 81.6872,183.555 82.8539,185.221 84.5,186.5C 86.0538,184.067 86.7204,181.4 86.5,178.5 Z"/></g>
<g><path style="opacity:1" fill="#c8872d" d="M 126.5,196.5 C 129.617,196.642 132.117,197.976 134,200.5C 135.883,197.976 138.383,196.642 141.5,196.5C 142.776,197.386 142.776,198.386 141.5,199.5C 137.539,200.295 135.039,202.629 134,206.5C 132.811,204.767 131.644,203.1 130.5,201.5C 129.359,200.661 128.026,199.994 126.5,199.5C 125.224,198.386 125.224,197.386 126.5,196.5 Z"/></g>
<g><path style="opacity:1" fill="#f8c23e" d="M 213.5,174.5 C 215.646,176.079 215.812,178.079 214,180.5C 209.978,185.185 205.978,189.852 202,194.5C 193.538,199.714 185.372,205.381 177.5,211.5C 176.914,211.291 176.414,210.957 176,210.5C 170.034,214.398 163.534,217.064 156.5,218.5C 152.519,216.902 148.852,217.402 145.5,220C 142,220.167 138.5,220.333 135,220.5C 128.489,220.047 121.989,219.88 115.5,220C 116.171,220.986 116.171,222.153 115.5,223.5C 112.273,223.324 109.273,222.657 106.5,221.5C 104.461,220.089 103.461,218.089 103.5,215.5C 96.8811,217.845 91.5478,216.178 87.5,210.5C 85.2338,209.686 82.9005,209.186 80.5,209C 79.6634,207.989 79.33,206.822 79.5,205.5C 82.5,205.833 83.8333,204.5 83.5,201.5C 79.5898,201.737 75.9231,200.904 72.5,199C 74.74,198.023 77.0733,197.523 79.5,197.5C 82.2843,199.396 85.2843,201.063 88.5,202.5C 89.3857,203.325 89.719,204.325 89.5,205.5C 91.5,205.5 93.5,205.5 95.5,205.5C 96.791,205.263 97.791,205.596 98.5,206.5C 102.221,209.404 106.554,210.738 111.5,210.5C 113.026,212.13 115.026,212.963 117.5,213C 132.603,214.115 147.603,213.448 162.5,211C 164.078,209.906 165.745,209.072 167.5,208.5C 170.807,207.949 174.14,207.616 177.5,207.5C 182.384,201.819 188.384,197.319 195.5,194C 196.026,191.037 197.359,188.537 199.5,186.5C 202.501,183.668 205.667,181.002 209,178.5C 209.333,178.833 209.667,179.167 210,179.5C 210.737,177.404 211.903,175.737 213.5,174.5 Z"/></g>
<g><path style="opacity:1" fill="#e7c567" d="M 98.5,206.5 C 102.98,207.698 107.313,209.031 111.5,210.5C 106.554,210.738 102.221,209.404 98.5,206.5 Z"/></g>
<g><path style="opacity:1" fill="#e4b358" d="M 92.5,198.5 C 97.8797,199.695 102.88,201.695 107.5,204.5C 101.894,203.859 96.8943,201.859 92.5,198.5 Z"/></g>
<g><path style="opacity:1" fill="#daab4c" d="M 176.5,197.5 C 172.856,200.819 168.523,202.819 163.5,203.5C 166.475,201.768 169.475,199.935 172.5,198C 173.793,197.51 175.127,197.343 176.5,197.5 Z"/></g>
<g><path style="opacity:1" fill="#e9c76d" d="M 175.5,203.5 C 173.137,205.68 170.47,207.347 167.5,208.5C 165.745,209.072 164.078,209.906 162.5,211C 147.603,213.448 132.603,214.115 117.5,213C 115.026,212.963 113.026,212.13 111.5,210.5C 133.608,214.736 154.942,212.402 175.5,203.5 Z"/></g>
<g><path style="opacity:0.047" fill="#b05f04" d="M 187.5,211.5 C 186.486,212.674 185.153,213.34 183.5,213.5C 184.287,211.896 185.62,211.229 187.5,211.5 Z"/></g>
<g><path style="opacity:0.016" fill="#bb7413" d="M 183.5,213.5 C 181.388,215.771 178.721,217.104 175.5,217.5C 177.789,215.613 180.455,214.279 183.5,213.5 Z"/></g>
<g><path style="opacity:0.055" fill="#b97210" d="M 170.5,219.5 C 167.495,221.277 164.162,222.277 160.5,222.5C 163.408,220.395 166.742,219.395 170.5,219.5 Z"/></g>
<g><path style="opacity:0.765" fill="#f5c14f" d="M 193.5,207.5 C 192.198,209.822 190.198,211.155 187.5,211.5C 185.62,211.229 184.287,211.896 183.5,213.5C 180.455,214.279 177.789,215.613 175.5,217.5C 174.22,218.931 172.553,219.598 170.5,219.5C 166.742,219.395 163.408,220.395 160.5,222.5C 146.322,225.531 131.989,226.198 117.5,224.5C 120.039,222.768 123.039,221.768 126.5,221.5C 135.462,222.609 144.462,222.775 153.5,222C 156.44,221.196 159.107,219.863 161.5,218C 167.156,216.356 172.822,214.689 178.5,213C 180.792,211.71 182.792,210.043 184.5,208C 187.518,208.663 190.518,208.496 193.5,207.5 Z"/></g>
</svg>
