<?xml version="1.0" encoding="UTF-8"?>
<!DOCTYPE svg PUBLIC "-//W3C//DTD SVG 1.1//EN" "http://www.w3.org/Graphics/SVG/1.1/DTD/svg11.dtd">
<svg xmlns="http://www.w3.org/2000/svg" version="1.1" width="300px" height="300px" style="shape-rendering:geometricPrecision; text-rendering:geometricPrecision; image-rendering:optimizeQuality; fill-rule:evenodd; clip-rule:evenodd" xmlns:xlink="http://www.w3.org/1999/xlink">
<g><path style="opacity:0.703" fill="#7f3631" d="M 257.5,32.5 C 254.951,31.4909 252.285,30.6575 249.5,30C 182.833,29.3333 116.167,29.3333 49.5,30C 47.6547,31.128 45.6547,31.628 43.5,31.5C 47.0468,29.1916 51.0468,28.0249 55.5,28C 118.833,27.3333 182.167,27.3333 245.5,28C 250.172,28.0526 254.172,29.5526 257.5,32.5 Z"/></g>
<g><path style="opacity:1" fill="#5f4345" d="M 190.5,38.5 C 206.167,38.5 221.833,38.5 237.5,38.5C 239.167,38.5 240.833,38.5 242.5,38.5C 241.976,41.1878 240.309,42.6878 237.5,43C 235.14,45.3604 232.806,47.6937 230.5,50C 233,50.5 235.5,51 238,51.5C 239.376,51.6842 240.209,52.3509 240.5,53.5C 240.167,53.5 239.833,53.5 239.5,53.5C 234.897,52.6167 230.23,52.2834 225.5,52.5C 208.5,52.5 191.5,52.5 174.5,52.5C 180.175,48.1545 185.508,43.4878 190.5,38.5 Z"/></g>
<g><path style="opacity:1" fill="#7d675f" d="M 190.5,38.5 C 185.508,43.4878 180.175,48.1545 174.5,52.5C 170.167,52.5 165.833,52.5 161.5,52.5C 158.15,52.665 154.817,52.4983 151.5,52C 156.689,49.9102 157.689,46.5769 154.5,42C 151.5,40 148.5,40 145.5,42C 142.338,46.5025 143.338,49.8358 148.5,52C 135.504,52.4999 122.504,52.6666 109.5,52.5C 93.0714,52.0298 76.7381,52.5298 60.5,54C 58.9588,55.5793 57.7922,57.4127 57,59.5C 56.5001,73.1626 56.3334,86.8293 56.5,100.5C 56.5,115.167 56.5,129.833 56.5,144.5C 56.5,148.167 56.5,151.833 56.5,155.5C 55.5,155.833 54.8333,156.5 54.5,157.5C 50.7486,159.704 47.4153,162.371 44.5,165.5C 44.3333,125.165 44.5,84.832 45,44.5C 46.457,42.3421 48.2903,40.5088 50.5,39C 97.1655,38.5 143.832,38.3333 190.5,38.5 Z"/></g>
<g><path style="opacity:1" fill="#f0eddd" d="M 47.5,42.5 C 50.9563,43.5362 51.2896,45.2029 48.5,47.5C 46.2957,46.218 45.9624,44.5514 47.5,42.5 Z"/></g>
<g><path style="opacity:1" fill="#49252a" d="M 257.5,32.5 C 260.917,34.592 263.25,37.592 264.5,41.5C 264.786,86.8454 264.453,132.179 263.5,177.5C 262.5,177.5 261.5,177.5 260.5,177.5C 260.5,179.833 260.5,182.167 260.5,184.5C 260.047,185.458 259.381,186.292 258.5,187C 261.266,188.467 263.766,190.3 266,192.5C 274.633,205.966 283.466,219.299 292.5,232.5C 287.801,230.507 284.968,226.84 284,221.5C 282.599,223.192 280.766,223.859 278.5,223.5C 278.5,225.167 278.5,226.833 278.5,228.5C 280.143,228.52 281.476,227.853 282.5,226.5C 283.478,226.977 284.311,227.643 285,228.5C 284.566,230.176 283.732,231.843 282.5,233.5C 284.327,235.487 285.327,237.821 285.5,240.5C 274.971,226.117 264.971,211.284 255.5,196C 254.167,195.333 252.833,194.667 251.5,194C 240.839,193.5 230.172,193.333 219.5,193.5C 208.833,193.5 198.167,193.5 187.5,193.5C 141.499,193.333 95.4988,193.5 49.5,194C 46.4522,194.606 43.9522,196.106 42,198.5C 37.0822,206 32.4155,213.667 28,221.5C 24.7585,223.644 22.7585,226.644 22,230.5C 18.1896,233.475 15.3563,237.142 13.5,241.5C 12.1667,241.5 10.8333,241.5 9.5,241.5C 6.99975,235.49 8.49975,230.823 14,227.5C 15.4579,228.747 16.9579,228.747 18.5,227.5C 19.1667,225.167 19.8333,222.833 20.5,220.5C 23.7602,218.041 25.2602,214.708 25,210.5C 27.3519,208.326 28.5186,205.659 28.5,202.5C 31.7561,199.881 34.5894,196.881 37,193.5C 37.7096,194.973 38.8762,195.64 40.5,195.5C 40.1091,192.162 41.2757,191.162 44,192.5C 45.2798,192.387 46.1131,191.72 46.5,190.5C 42.6775,189.402 41.6775,187.068 43.5,183.5C 45.0709,182.691 46.7376,182.357 48.5,182.5C 48.5,183.833 48.5,185.167 48.5,186.5C 51.5453,186.296 54.3787,186.296 57,186.5C 57.4828,185.552 57.6495,184.552 57.5,183.5C 63.8333,183.5 70.1667,183.5 76.5,183.5C 107.84,183.833 139.174,183.5 170.5,182.5C 171.242,181.713 172.075,181.047 173,180.5C 173.5,181.667 174.333,182.5 175.5,183C 198.833,183.667 222.167,183.667 245.5,183C 248.872,181.799 251.872,179.966 254.5,177.5C 255.667,132.837 255.833,88.1704 255,43.5C 251.415,40.414 247.248,38.7474 242.5,38.5C 240.833,38.5 239.167,38.5 237.5,38.5C 237.918,37.7784 238.584,37.2784 239.5,37C 238.333,36.8333 237.167,36.6667 236,36.5C 230.706,36.5463 225.873,36.8796 221.5,37.5C 219.392,37.1401 217.392,36.4734 215.5,35.5C 226.5,34.8333 237.5,34.1667 248.5,33.5C 181.169,32.3334 113.836,32.1667 46.5,33C 45.4586,36.3582 43.4586,37.1915 40.5,35.5C 41.1667,34.5 41.8333,33.5 42.5,32.5C 42.5,31.8333 42.8333,31.5 43.5,31.5C 45.6547,31.628 47.6547,31.128 49.5,30C 116.167,29.3333 182.833,29.3333 249.5,30C 252.285,30.6575 254.951,31.4909 257.5,32.5 Z"/></g>
<g><path style="opacity:1" fill="#44272c" d="M 237.5,38.5 C 221.833,38.5 206.167,38.5 190.5,38.5C 143.832,38.3333 97.1655,38.5 50.5,39C 48.2903,40.5088 46.457,42.3421 45,44.5C 44.5,84.832 44.3333,125.165 44.5,165.5C 44.5,168.167 44.5,170.833 44.5,173.5C 43.6963,171.811 42.6963,170.145 41.5,168.5C 40.1319,170.637 39.1319,172.97 38.5,175.5C 38.1667,171.833 37.8333,168.167 37.5,164.5C 36.8721,124.82 36.2055,85.1535 35.5,45.5C 36.7838,41.9864 38.4505,38.653 40.5,35.5C 43.4586,37.1915 45.4586,36.3582 46.5,33C 113.836,32.1667 181.169,32.3334 248.5,33.5C 237.5,34.1667 226.5,34.8333 215.5,35.5C 217.392,36.4734 219.392,37.1401 221.5,37.5C 225.873,36.8796 230.706,36.5463 236,36.5C 237.167,36.6667 238.333,36.8333 239.5,37C 238.584,37.2784 237.918,37.7784 237.5,38.5 Z"/></g>
<g><path style="opacity:1" fill="#fcf8dc" d="M 161.5,52.5 C 160.063,54.4942 158.73,56.6608 157.5,59C 135.199,77.3029 113.532,96.3029 92.5,116C 85.3595,119.96 79.3595,125.293 74.5,132C 73.5,132.333 72.5,132.667 71.5,133C 67.26,137.745 62.5933,141.912 57.5,145.5C 57.5,144.833 57.1667,144.5 56.5,144.5C 56.5,129.833 56.5,115.167 56.5,100.5C 58.9639,98.4297 61.6305,96.5963 64.5,95C 69.3603,89.228 74.6937,83.8946 80.5,79C 81.8333,78.3333 83.1667,77.6667 84.5,77C 90.0284,71.726 95.3617,66.226 100.5,60.5C 101.689,59.5713 103.022,59.238 104.5,59.5C 105.702,56.9439 107.369,54.6106 109.5,52.5C 122.504,52.6666 135.504,52.4999 148.5,52C 143.338,49.8358 142.338,46.5025 145.5,42C 148.5,40 151.5,40 154.5,42C 157.689,46.5769 156.689,49.9102 151.5,52C 154.817,52.4983 158.15,52.665 161.5,52.5 Z"/></g>
<g><path style="opacity:1" fill="#dc9371" d="M 148.5,43.5 C 152.071,43.4077 153.238,45.0743 152,48.5C 149.694,49.5815 148.194,48.7482 147.5,46C 147.743,45.0979 148.077,44.2646 148.5,43.5 Z"/></g>
<g><path style="opacity:1" fill="#4db7ce" d="M 225.5,52.5 C 230.23,52.2834 234.897,52.6167 239.5,53.5C 241.025,55.2163 242.025,57.2163 242.5,59.5C 242.5,61.5 242.5,63.5 242.5,65.5C 240.836,64.0512 240.002,62.0512 240,59.5C 238.981,58.3128 237.814,57.3128 236.5,56.5C 235.5,80.4907 235.167,104.491 235.5,128.5C 222.421,140.582 208.755,151.915 194.5,162.5C 167.498,162.667 140.498,162.5 113.5,162C 112.234,161.691 111.067,161.191 110,160.5C 107.809,163.482 105.476,163.815 103,161.5C 102.329,162.252 101.496,162.586 100.5,162.5C 142.503,126.493 184.17,90.1595 225.5,53.5C 225.5,53.1667 225.5,52.8333 225.5,52.5 Z"/></g>
<g><path style="opacity:1" fill="#c0e5d9" d="M 109.5,52.5 C 107.369,54.6106 105.702,56.9439 104.5,59.5C 103.022,59.238 101.689,59.5713 100.5,60.5C 95.3617,66.226 90.0284,71.726 84.5,77C 83.1667,77.6667 81.8333,78.3333 80.5,79C 74.6937,83.8946 69.3603,89.228 64.5,95C 61.6305,96.5963 58.9639,98.4297 56.5,100.5C 56.3334,86.8293 56.5001,73.1626 57,59.5C 57.7922,57.4127 58.9588,55.5793 60.5,54C 76.7381,52.5298 93.0714,52.0298 109.5,52.5 Z"/></g>
<g><path style="opacity:1" fill="#a6ddda" d="M 222.5,53.5 C 220.111,54.0537 218.445,55.5537 217.5,58C 213.27,58.5172 209.603,60.1838 206.5,63C 199.486,70.3522 191.819,77.0189 183.5,83C 174.084,91.6851 164.75,100.352 155.5,109C 148.39,113.874 141.723,119.208 135.5,125C 134.663,126.011 134.33,127.178 134.5,128.5C 131.111,130.375 127.777,132.542 124.5,135C 122.963,136.11 122.297,137.61 122.5,139.5C 120.217,139.608 118.217,140.441 116.5,142C 110.357,147.308 104.357,152.808 98.5,158.5C 91.0735,159.926 86.7401,164.259 85.5,171.5C 86.8333,171.5 88.1667,171.5 89.5,171.5C 89.5,171.833 89.5,172.167 89.5,172.5C 79.7274,172.948 70.0607,172.448 60.5,171C 56.9218,166.49 55.5884,161.324 56.5,155.5C 56.5,151.833 56.5,148.167 56.5,144.5C 57.1667,144.5 57.5,144.833 57.5,145.5C 57.335,148.85 57.5017,152.183 58,155.5C 59.1453,151.869 61.6453,150.036 65.5,150C 67.669,145.724 71.0024,142.557 75.5,140.5C 84.1609,131.511 93.4942,123.178 103.5,115.5C 104.386,114.675 104.719,113.675 104.5,112.5C 107.5,111.167 110.5,109.833 113.5,108.5C 113.33,107.178 113.663,106.011 114.5,105C 119.478,101.684 124.145,98.0173 128.5,94C 142.511,80.9236 156.844,67.9236 171.5,55C 188.515,54.727 205.515,54.227 222.5,53.5 Z"/></g>
<g><path style="opacity:1" fill="#c1e6db" d="M 161.5,52.5 C 165.833,52.5 170.167,52.5 174.5,52.5C 191.5,52.5 208.5,52.5 225.5,52.5C 225.5,52.8333 225.5,53.1667 225.5,53.5C 224.5,53.5 223.5,53.5 222.5,53.5C 205.515,54.227 188.515,54.727 171.5,55C 156.844,67.9236 142.511,80.9236 128.5,94C 124.145,98.0173 119.478,101.684 114.5,105C 113.663,106.011 113.33,107.178 113.5,108.5C 110.5,109.833 107.5,111.167 104.5,112.5C 104.719,113.675 104.386,114.675 103.5,115.5C 93.4942,123.178 84.1609,131.511 75.5,140.5C 71.0024,142.557 67.669,145.724 65.5,150C 61.6453,150.036 59.1453,151.869 58,155.5C 57.5017,152.183 57.335,148.85 57.5,145.5C 62.5933,141.912 67.26,137.745 71.5,133C 72.5,132.667 73.5,132.333 74.5,132C 79.3595,125.293 85.3595,119.96 92.5,116C 113.532,96.3029 135.199,77.3029 157.5,59C 158.73,56.6608 160.063,54.4942 161.5,52.5 Z"/></g>
<g><path style="opacity:0.216" fill="#953e39" d="M 265.5,44.5 C 266.665,87.6647 266.831,130.998 266,174.5C 265.768,175.737 265.268,176.737 264.5,177.5C 265.479,133.19 265.812,88.8569 265.5,44.5 Z"/></g>
<g><path style="opacity:1" fill="#43a1ba" d="M 242.5,65.5 C 242.667,84.5029 242.5,103.503 242,122.5C 239.623,124.409 237.457,126.409 235.5,128.5C 235.167,104.491 235.5,80.4907 236.5,56.5C 237.814,57.3128 238.981,58.3128 240,59.5C 240.002,62.0512 240.836,64.0512 242.5,65.5 Z"/></g>
<g><path style="opacity:1" fill="#2d3643" d="M 239.5,53.5 C 239.833,53.5 240.167,53.5 240.5,53.5C 242.738,54.8527 244.071,56.8527 244.5,59.5C 244.832,95.3372 244.498,131.004 243.5,166.5C 243.832,130.663 243.498,94.9961 242.5,59.5C 242.025,57.2163 241.025,55.2163 239.5,53.5 Z"/></g>
<g><path style="opacity:0.85" fill="#5b1c1e" d="M 264.5,41.5 C 265.404,42.209 265.737,43.209 265.5,44.5C 265.812,88.8569 265.479,133.19 264.5,177.5C 263.921,180.331 262.588,182.664 260.5,184.5C 260.5,182.167 260.5,179.833 260.5,177.5C 261.5,177.5 262.5,177.5 263.5,177.5C 264.453,132.179 264.786,86.8454 264.5,41.5 Z"/></g>
<g><path style="opacity:1" fill="#3d99b4" d="M 235.5,128.5 C 235.821,139.748 235.487,150.915 234.5,162C 221.171,162.5 207.837,162.667 194.5,162.5C 208.755,151.915 222.421,140.582 235.5,128.5 Z"/></g>
<g><path style="opacity:0.237" fill="#773126" d="M 42.5,32.5 C 41.8333,33.5 41.1667,34.5 40.5,35.5C 38.4505,38.653 36.7838,41.9864 35.5,45.5C 34.5013,88.9968 34.168,132.663 34.5,176.5C 33.3352,132.669 33.1686,88.6686 34,44.5C 35.2058,39.1602 38.0392,35.1602 42.5,32.5 Z"/></g>
<g><path style="opacity:1" fill="#93d4d7" d="M 222.5,53.5 C 223.5,53.5 224.5,53.5 225.5,53.5C 184.17,90.1595 142.503,126.493 100.5,162.5C 97.141,165.529 93.8076,168.529 90.5,171.5C 90.1667,171.5 89.8333,171.5 89.5,171.5C 88.1667,171.5 86.8333,171.5 85.5,171.5C 86.7401,164.259 91.0735,159.926 98.5,158.5C 104.357,152.808 110.357,147.308 116.5,142C 118.217,140.441 120.217,139.608 122.5,139.5C 122.297,137.61 122.963,136.11 124.5,135C 127.777,132.542 131.111,130.375 134.5,128.5C 134.33,127.178 134.663,126.011 135.5,125C 141.723,119.208 148.39,113.874 155.5,109C 164.75,100.352 174.084,91.6851 183.5,83C 191.819,77.0189 199.486,70.3522 206.5,63C 209.603,60.1838 213.27,58.5172 217.5,58C 218.445,55.5537 220.111,54.0537 222.5,53.5 Z"/></g>
<g><path style="opacity:1" fill="#468aa3" d="M 242.5,59.5 C 243.498,94.9961 243.832,130.663 243.5,166.5C 241.855,167.479 240.521,168.812 239.5,170.5C 238.205,171.098 236.872,171.598 235.5,172C 186.834,172.5 138.168,172.667 89.5,172.5C 89.5,172.167 89.5,171.833 89.5,171.5C 89.8333,171.5 90.1667,171.5 90.5,171.5C 122.174,171.833 153.84,171.5 185.5,170.5C 189.096,168.53 192.096,165.864 194.5,162.5C 207.837,162.667 221.171,162.5 234.5,162C 235.487,150.915 235.821,139.748 235.5,128.5C 237.457,126.409 239.623,124.409 242,122.5C 242.5,103.503 242.667,84.5029 242.5,65.5C 242.5,63.5 242.5,61.5 242.5,59.5 Z"/></g>
<g><path style="opacity:1" fill="#5e3f43" d="M 54.5,157.5 C 53.2334,168.839 58.2334,174.339 69.5,174C 74.8229,174.499 80.1563,174.666 85.5,174.5C 84.4263,177.068 82.4263,178.735 79.5,179.5C 78.0656,180.588 77.0656,181.922 76.5,183.5C 70.1667,183.5 63.8333,183.5 57.5,183.5C 55.1432,183.663 52.8098,183.497 50.5,183C 47.8539,180.198 45.8539,177.032 44.5,173.5C 44.5,170.833 44.5,168.167 44.5,165.5C 47.4153,162.371 50.7486,159.704 54.5,157.5 Z"/></g>
<g><path style="opacity:1" fill="#433d45" d="M 244.5,59.5 C 245.333,95.331 245.833,131.331 246,167.5C 246.5,168 247,168.5 247.5,169C 242.784,170.775 238.284,172.942 234,175.5C 184.519,174.512 135.019,174.178 85.5,174.5C 80.1563,174.666 74.8229,174.499 69.5,174C 58.2334,174.339 53.2334,168.839 54.5,157.5C 54.8333,156.5 55.5,155.833 56.5,155.5C 55.5884,161.324 56.9218,166.49 60.5,171C 70.0607,172.448 79.7274,172.948 89.5,172.5C 138.168,172.667 186.834,172.5 235.5,172C 236.872,171.598 238.205,171.098 239.5,170.5C 240.521,168.812 241.855,167.479 243.5,166.5C 244.498,131.004 244.832,95.3372 244.5,59.5 Z"/></g>
<g><path style="opacity:1" fill="#47a7c1" d="M 194.5,162.5 C 192.096,165.864 189.096,168.53 185.5,170.5C 153.84,171.5 122.174,171.833 90.5,171.5C 93.8076,168.529 97.141,165.529 100.5,162.5C 101.496,162.586 102.329,162.252 103,161.5C 105.476,163.815 107.809,163.482 110,160.5C 111.067,161.191 112.234,161.691 113.5,162C 140.498,162.5 167.498,162.667 194.5,162.5 Z"/></g>
<g><path style="opacity:1" fill="#523036" d="M 242.5,38.5 C 247.248,38.7474 251.415,40.414 255,43.5C 255.833,88.1704 255.667,132.837 254.5,177.5C 251.872,179.966 248.872,181.799 245.5,183C 222.167,183.667 198.833,183.667 175.5,183C 174.333,182.5 173.5,181.667 173,180.5C 172.075,181.047 171.242,181.713 170.5,182.5C 139.174,183.5 107.84,183.833 76.5,183.5C 77.0656,181.922 78.0656,180.588 79.5,179.5C 82.4263,178.735 84.4263,177.068 85.5,174.5C 135.019,174.178 184.519,174.512 234,175.5C 238.284,172.942 242.784,170.775 247.5,169C 247,168.5 246.5,168 246,167.5C 245.833,131.331 245.333,95.331 244.5,59.5C 244.071,56.8527 242.738,54.8527 240.5,53.5C 240.209,52.3509 239.376,51.6842 238,51.5C 235.5,51 233,50.5 230.5,50C 232.806,47.6937 235.14,45.3604 237.5,43C 240.309,42.6878 241.976,41.1878 242.5,38.5 Z"/></g>
<g><path style="opacity:1" fill="#502426" d="M 35.5,45.5 C 36.2055,85.1535 36.8721,124.82 37.5,164.5C 37.8333,168.167 38.1667,171.833 38.5,175.5C 39.1319,172.97 40.1319,170.637 41.5,168.5C 42.6963,170.145 43.6963,171.811 44.5,173.5C 45.8539,177.032 47.8539,180.198 50.5,183C 52.8098,183.497 55.1432,183.663 57.5,183.5C 57.6495,184.552 57.4828,185.552 57,186.5C 54.3787,186.296 51.5453,186.296 48.5,186.5C 48.5,185.167 48.5,183.833 48.5,182.5C 46.7376,182.357 45.0709,182.691 43.5,183.5C 41.6775,187.068 42.6775,189.402 46.5,190.5C 46.1131,191.72 45.2798,192.387 44,192.5C 41.2757,191.162 40.1091,192.162 40.5,195.5C 38.8762,195.64 37.7096,194.973 37,193.5C 34.5894,196.881 31.7561,199.881 28.5,202.5C 30.4486,195.781 34.4486,190.614 40.5,187C 37.5911,184.015 35.5911,180.515 34.5,176.5C 34.168,132.663 34.5013,88.9968 35.5,45.5 Z"/></g>
<g><path style="opacity:1" fill="#faf3e1" d="M 187.5,193.5 C 173.516,194.833 159.183,195.499 144.5,195.5C 114.166,194.93 83.8323,194.764 53.5,195C 48.9491,196.049 46.9491,198.882 47.5,203.5C 45.2776,203.178 43.4443,203.845 42,205.5C 40.0987,210.302 37.432,214.636 34,218.5C 33.3387,221.946 32.5054,225.279 31.5,228.5C 29.8297,228.751 28.3297,229.418 27,230.5C 25.2895,232.956 23.9562,235.623 23,238.5C 20.6921,239.641 18.8587,241.308 17.5,243.5C 16.3112,244.429 14.9778,244.762 13.5,244.5C 13.5,243.833 13.5,243.167 13.5,242.5C 13.5,242.167 13.5,241.833 13.5,241.5C 15.3563,237.142 18.1896,233.475 22,230.5C 22.7585,226.644 24.7585,223.644 28,221.5C 32.4155,213.667 37.0822,206 42,198.5C 43.9522,196.106 46.4522,194.606 49.5,194C 95.4988,193.5 141.499,193.333 187.5,193.5 Z"/></g>
<g><path style="opacity:1" fill="#f7dfb6" d="M 217.5,195.5 C 217.5,197.167 217.5,198.833 217.5,200.5C 216.167,200.5 214.833,200.5 213.5,200.5C 213.5,199.5 213.5,198.5 213.5,197.5C 210.5,197.5 207.5,197.5 204.5,197.5C 204.5,198.5 204.5,199.5 204.5,200.5C 206.099,200.232 207.432,200.566 208.5,201.5C 205.482,201.335 202.482,201.502 199.5,202C 197.324,202.163 195.491,202.996 194,204.5C 192.553,202.597 190.886,200.93 189,199.5C 185.589,200.293 182.089,200.793 178.5,201C 177.177,201.816 176.511,202.983 176.5,204.5C 178.725,211.637 179.725,218.97 179.5,226.5C 185.559,226.746 191.559,226.413 197.5,225.5C 198.735,225.279 199.735,224.612 200.5,223.5C 202.554,227.888 206.054,229.555 211,228.5C 213.167,228.333 215.333,228.167 217.5,228C 218.056,227.617 218.389,227.117 218.5,226.5C 219.695,226.134 220.361,225.301 220.5,224C 217.524,217.559 214.858,211.059 212.5,204.5C 215.427,202.382 218.76,201.382 222.5,201.5C 222.5,201.833 222.5,202.167 222.5,202.5C 219.429,201.925 217.429,203.091 216.5,206C 219.437,211.28 221.937,216.78 224,222.5C 224.708,223.381 225.542,224.047 226.5,224.5C 226.953,225.458 227.619,226.292 228.5,227C 236.167,227.667 243.833,227.667 251.5,227C 255.283,226.391 256.95,224.224 256.5,220.5C 257.931,221.78 258.598,223.447 258.5,225.5C 256.628,226.511 254.628,227.345 252.5,228C 245.174,228.5 237.841,228.666 230.5,228.5C 230.993,230.806 231.326,233.139 231.5,235.5C 236.82,236.831 242.153,236.831 247.5,235.5C 248.776,236.799 250.776,237.466 253.5,237.5C 255.415,237.216 257.081,237.549 258.5,238.5C 233.506,237.833 208.506,237.5 183.5,237.5C 183.912,235.027 182.912,233.694 180.5,233.5C 175.426,230.015 169.76,228.682 163.5,229.5C 167.592,229.069 169.592,226.735 169.5,222.5C 168.91,217.509 168.41,212.509 168,207.5C 167.764,205.881 166.931,204.881 165.5,204.5C 165.047,203.542 164.381,202.708 163.5,202C 154.167,201.333 144.833,201.333 135.5,202C 134.748,202.671 134.414,203.504 134.5,204.5C 132.167,204.5 129.833,204.5 127.5,204.5C 127.644,222.661 126.311,222.661 123.5,204.5C 123.737,203.209 123.404,202.209 122.5,201.5C 119.972,200.834 117.306,200.168 114.5,199.5C 115.09,198.201 116.09,197.368 117.5,197C 150.924,196.633 184.257,196.133 217.5,195.5 Z"/></g>
<g><path style="opacity:1" fill="#d9e2cb" d="M 165.5,204.5 C 155.705,203.207 146.038,203.207 136.5,204.5C 135.833,204.5 135.167,204.5 134.5,204.5C 134.414,203.504 134.748,202.671 135.5,202C 144.833,201.333 154.167,201.333 163.5,202C 164.381,202.708 165.047,203.542 165.5,204.5 Z"/></g>
<g><path style="opacity:1" fill="#deddc1" d="M 208.5,201.5 C 210.973,201.088 212.306,202.088 212.5,204.5C 207.552,203.441 202.552,203.274 197.5,204C 196.978,204.561 196.645,205.228 196.5,206C 198.638,212.748 200.971,219.414 203.5,226C 208.489,226.499 213.489,226.666 218.5,226.5C 218.389,227.117 218.056,227.617 217.5,228C 215.333,228.167 213.167,228.333 211,228.5C 206.054,229.555 202.554,227.888 200.5,223.5C 199.735,224.612 198.735,225.279 197.5,225.5C 196.033,218.437 194.366,211.437 192.5,204.5C 187.122,203.27 181.789,203.27 176.5,204.5C 176.511,202.983 177.177,201.816 178.5,201C 182.089,200.793 185.589,200.293 189,199.5C 190.886,200.93 192.553,202.597 194,204.5C 195.491,202.996 197.324,202.163 199.5,202C 202.482,201.502 205.482,201.335 208.5,201.5 Z"/></g>
<g><path style="opacity:1" fill="#4392a8" d="M 222.5,202.5 C 236.592,199.219 246.592,203.886 252.5,216.5C 254.172,219.625 253.838,222.458 251.5,225C 243.118,225.773 234.785,225.606 226.5,224.5C 225.542,224.047 224.708,223.381 224,222.5C 221.937,216.78 219.437,211.28 216.5,206C 217.429,203.091 219.429,201.925 222.5,202.5 Z"/></g>
<g><path style="opacity:1" fill="#5ab3c1" d="M 122.5,213.5 C 122.5,214.167 122.5,214.833 122.5,215.5C 120.875,218.65 120.542,221.983 121.5,225.5C 115.863,226.663 110.196,226.83 104.5,226C 103.659,218.932 104.826,212.098 108,205.5C 108.75,204.874 109.584,204.374 110.5,204C 114.486,203.501 118.486,203.334 122.5,203.5C 122.5,206.833 122.5,210.167 122.5,213.5 Z"/></g>
<g><path style="opacity:1" fill="#54abbc" d="M 197.5,225.5 C 191.559,226.413 185.559,226.746 179.5,226.5C 179.725,218.97 178.725,211.637 176.5,204.5C 181.789,203.27 187.122,203.27 192.5,204.5C 194.366,211.437 196.033,218.437 197.5,225.5 Z"/></g>
<g><path style="opacity:1" fill="#dee5cc" d="M 122.5,201.5 C 123.404,202.209 123.737,203.209 123.5,204.5C 123.81,207.713 123.477,210.713 122.5,213.5C 122.5,210.167 122.5,206.833 122.5,203.5C 118.486,203.334 114.486,203.501 110.5,204C 109.584,204.374 108.75,204.874 108,205.5C 104.826,212.098 103.659,218.932 104.5,226C 110.196,226.83 115.863,226.663 121.5,225.5C 120.542,221.983 120.875,218.65 122.5,215.5C 122.5,219.5 122.5,223.5 122.5,227.5C 114.949,228.054 107.615,227.387 100.5,225.5C 99.09,225.868 98.09,226.701 97.5,228C 92.1667,228.667 86.8333,228.667 81.5,228C 79.5026,226.366 77.8359,224.532 76.5,222.5C 77.3723,218.426 79.0389,214.759 81.5,211.5C 83.588,209.664 84.9213,207.331 85.5,204.5C 86.5,204.5 87.5,204.5 88.5,204.5C 86.1793,211.308 83.1793,217.808 79.5,224C 79.6448,224.772 79.9781,225.439 80.5,226C 85.8643,226.829 91.1977,226.663 96.5,225.5C 99.5792,218.587 102.246,211.587 104.5,204.5C 110.207,202.228 116.207,201.228 122.5,201.5 Z"/></g>
<g><path style="opacity:1" fill="#4c9bac" d="M 212.5,204.5 C 214.858,211.059 217.524,217.559 220.5,224C 220.361,225.301 219.695,226.134 218.5,226.5C 213.489,226.666 208.489,226.499 203.5,226C 200.971,219.414 198.638,212.748 196.5,206C 196.645,205.228 196.978,204.561 197.5,204C 202.552,203.274 207.552,203.441 212.5,204.5 Z"/></g>
<g><path style="opacity:1" fill="#f7cda6" d="M 219.5,193.5 C 230.172,193.333 240.839,193.5 251.5,194C 252.833,194.667 254.167,195.333 255.5,196C 264.971,211.284 274.971,226.117 285.5,240.5C 285.5,240.833 285.5,241.167 285.5,241.5C 282.936,240.134 280.436,238.467 278,236.5C 273.374,228.906 269.041,221.239 265,213.5C 260.322,207.403 255.155,201.736 249.5,196.5C 240.525,195.502 231.525,195.168 222.5,195.5C 222.5,197.5 222.5,199.5 222.5,201.5C 218.76,201.382 215.427,202.382 212.5,204.5C 212.306,202.088 210.973,201.088 208.5,201.5C 207.432,200.566 206.099,200.232 204.5,200.5C 204.5,199.5 204.5,198.5 204.5,197.5C 207.5,197.5 210.5,197.5 213.5,197.5C 213.5,198.5 213.5,199.5 213.5,200.5C 214.833,200.5 216.167,200.5 217.5,200.5C 217.5,198.833 217.5,197.167 217.5,195.5C 218.833,195.5 219.5,194.833 219.5,193.5 Z"/></g>
<g><path style="opacity:1" fill="#64b5be" d="M 165.5,204.5 C 167.63,211.716 167.963,219.049 166.5,226.5C 155.218,227.478 143.885,227.812 132.5,227.5C 132.38,225.801 132.046,224.135 131.5,222.5C 132.502,216.491 133.502,210.491 134.5,204.5C 135.167,204.5 135.833,204.5 136.5,204.5C 146.038,203.207 155.705,203.207 165.5,204.5 Z"/></g>
<g><path style="opacity:1" fill="#6b9791" d="M 252.5,216.5 C 253.833,217.833 255.167,219.167 256.5,220.5C 256.95,224.224 255.283,226.391 251.5,227C 243.833,227.667 236.167,227.667 228.5,227C 227.619,226.292 226.953,225.458 226.5,224.5C 234.785,225.606 243.118,225.773 251.5,225C 253.838,222.458 254.172,219.625 252.5,216.5 Z"/></g>
<g><path style="opacity:1" fill="#f9e8c4" d="M 187.5,193.5 C 198.167,193.5 208.833,193.5 219.5,193.5C 219.5,194.833 218.833,195.5 217.5,195.5C 184.257,196.133 150.924,196.633 117.5,197C 116.09,197.368 115.09,198.201 114.5,199.5C 117.306,200.168 119.972,200.834 122.5,201.5C 116.207,201.228 110.207,202.228 104.5,204.5C 99.1977,203.213 93.8644,203.213 88.5,204.5C 87.5,204.5 86.5,204.5 85.5,204.5C 84.5266,204.013 83.5266,203.513 82.5,203C 74.1467,202.168 65.8134,202.335 57.5,203.5C 52.1171,209.35 47.4505,215.683 43.5,222.5C 43.968,224.134 44.968,225.3 46.5,226C 55.1667,226.667 63.8333,226.667 72.5,226C 73.7101,224.961 74.7101,223.794 75.5,222.5C 75.8333,222.5 76.1667,222.5 76.5,222.5C 77.8359,224.532 79.5026,226.366 81.5,228C 86.8333,228.667 92.1667,228.667 97.5,228C 98.09,226.701 99.09,225.868 100.5,225.5C 107.615,227.387 114.949,228.054 122.5,227.5C 122.5,223.5 122.5,219.5 122.5,215.5C 122.5,214.833 122.5,214.167 122.5,213.5C 123.477,210.713 123.81,207.713 123.5,204.5C 126.311,222.661 127.644,222.661 127.5,204.5C 129.833,204.5 132.167,204.5 134.5,204.5C 133.502,210.491 132.502,216.491 131.5,222.5C 132.046,224.135 132.38,225.801 132.5,227.5C 143.885,227.812 155.218,227.478 166.5,226.5C 167.963,219.049 167.63,211.716 165.5,204.5C 166.931,204.881 167.764,205.881 168,207.5C 168.41,212.509 168.91,217.509 169.5,222.5C 169.592,226.735 167.592,229.069 163.5,229.5C 150.829,229.333 138.162,229.5 125.5,230C 121.471,231.522 119.137,234.355 118.5,238.5C 107.242,237.688 95.9091,237.188 84.5,237C 81.9414,235.195 79.2748,235.028 76.5,236.5C 69.9004,235.029 63.2337,234.029 56.5,233.5C 55.3122,234.84 53.8122,235.507 52,235.5C 47.9507,234.799 43.9507,234.466 40,234.5C 37.0459,234.594 36.8792,235.094 39.5,236C 36.7055,237.557 33.7055,237.89 30.5,237C 31.6616,235.173 31.3282,233.506 29.5,232C 30.4295,230.923 31.0962,229.756 31.5,228.5C 32.5054,225.279 33.3387,221.946 34,218.5C 37.432,214.636 40.0987,210.302 42,205.5C 43.4443,203.845 45.2776,203.178 47.5,203.5C 46.9491,198.882 48.9491,196.049 53.5,195C 83.8323,194.764 114.166,194.93 144.5,195.5C 159.183,195.499 173.516,194.833 187.5,193.5 Z"/></g>
<g><path style="opacity:1" fill="#58b4c2" d="M 104.5,204.5 C 102.246,211.587 99.5792,218.587 96.5,225.5C 91.1977,226.663 85.8643,226.829 80.5,226C 79.9781,225.439 79.6448,224.772 79.5,224C 83.1793,217.808 86.1793,211.308 88.5,204.5C 93.8644,203.213 99.1977,203.213 104.5,204.5 Z"/></g>
<g><path style="opacity:1" fill="#78bdbf" d="M 85.5,204.5 C 84.9213,207.331 83.588,209.664 81.5,211.5C 82.1667,209.167 82.8333,206.833 83.5,204.5C 75.1401,204.169 66.8068,204.502 58.5,205.5C 58.7093,206.086 59.0426,206.586 59.5,207C 54.8459,208.578 54.5126,210.578 58.5,213C 56.7093,215.56 55.5426,218.393 55,221.5C 53.0126,222.218 51.1792,223.218 49.5,224.5C 56.8107,225.665 64.144,225.831 71.5,225C 72.4709,223.519 73.8042,222.685 75.5,222.5C 74.7101,223.794 73.7101,224.961 72.5,226C 63.8333,226.667 55.1667,226.667 46.5,226C 44.968,225.3 43.968,224.134 43.5,222.5C 47.4505,215.683 52.1171,209.35 57.5,203.5C 65.8134,202.335 74.1467,202.168 82.5,203C 83.5266,203.513 84.5266,204.013 85.5,204.5 Z"/></g>
<g><path style="opacity:1" fill="#4cb5cb" d="M 136.5,204.5 C 143.833,204.5 151.167,204.5 158.5,204.5C 158.262,208.099 159.262,208.433 161.5,205.5C 163.484,210.3 163.984,215.3 163,220.5C 160.497,219.45 158.997,220.45 158.5,223.5C 150.528,224.732 142.528,225.232 134.5,225C 133.884,223.6 133.551,222.1 133.5,220.5C 134.686,215.192 135.686,209.859 136.5,204.5 Z"/></g>
<g><path style="opacity:1" fill="#60bcca" d="M 81.5,211.5 C 79.0389,214.759 77.3723,218.426 76.5,222.5C 76.1667,222.5 75.8333,222.5 75.5,222.5C 73.8042,222.685 72.4709,223.519 71.5,225C 64.144,225.831 56.8107,225.665 49.5,224.5C 51.1792,223.218 53.0126,222.218 55,221.5C 55.5426,218.393 56.7093,215.56 58.5,213C 54.5126,210.578 54.8459,208.578 59.5,207C 59.0426,206.586 58.7093,206.086 58.5,205.5C 66.8068,204.502 75.1401,204.169 83.5,204.5C 82.8333,206.833 82.1667,209.167 81.5,211.5 Z"/></g>
<g><path style="opacity:1" fill="#fab58b" d="M 285.5,241.5 C 285.5,241.833 285.5,242.167 285.5,242.5C 285.5,243.5 285.5,244.5 285.5,245.5C 282.994,246.75 280.327,247.416 277.5,247.5C 243.996,247.832 210.662,247.498 177.5,246.5C 177.833,246.5 178.167,246.5 178.5,246.5C 205.218,246.944 231.885,246.277 258.5,244.5C 258.5,243.5 258.5,242.5 258.5,241.5C 258.5,240.5 258.5,239.5 258.5,238.5C 257.081,237.549 255.415,237.216 253.5,237.5C 254.136,234.894 254.136,232.394 253.5,230C 255.66,229.004 257.327,227.504 258.5,225.5C 258.598,223.447 257.931,221.78 256.5,220.5C 255.167,219.167 253.833,217.833 252.5,216.5C 246.592,203.886 236.592,199.219 222.5,202.5C 222.5,202.167 222.5,201.833 222.5,201.5C 222.5,199.5 222.5,197.5 222.5,195.5C 231.525,195.168 240.525,195.502 249.5,196.5C 255.155,201.736 260.322,207.403 265,213.5C 269.041,221.239 273.374,228.906 278,236.5C 280.436,238.467 282.936,240.134 285.5,241.5 Z"/></g>
<g><path style="opacity:1" fill="#4b272c" d="M 28.5,202.5 C 28.5186,205.659 27.3519,208.326 25,210.5C 25.2602,214.708 23.7602,218.041 20.5,220.5C 19.8333,222.833 19.1667,225.167 18.5,227.5C 16.9579,228.747 15.4579,228.747 14,227.5C 8.49975,230.823 6.99975,235.49 9.5,241.5C 10.8333,241.5 12.1667,241.5 13.5,241.5C 13.5,241.833 13.5,242.167 13.5,242.5C 12.3,245.698 12.3,249.031 13.5,252.5C 13.5614,254.592 14.5614,256.092 16.5,257C 105.668,257.832 194.668,257.666 283.5,256.5C 284.688,255.636 285.855,254.636 287,253.5C 287.667,250.167 287.667,246.833 287,243.5C 286.617,242.944 286.117,242.611 285.5,242.5C 285.5,242.167 285.5,241.833 285.5,241.5C 285.5,241.167 285.5,240.833 285.5,240.5C 285.327,237.821 284.327,235.487 282.5,233.5C 283.732,231.843 284.566,230.176 285,228.5C 284.311,227.643 283.478,226.977 282.5,226.5C 281.476,227.853 280.143,228.52 278.5,228.5C 278.5,226.833 278.5,225.167 278.5,223.5C 280.766,223.859 282.599,223.192 284,221.5C 284.968,226.84 287.801,230.507 292.5,232.5C 294.833,236.5 297.167,240.5 299.5,244.5C 299.5,248.5 299.5,252.5 299.5,256.5C 296.999,259.844 294.666,263.344 292.5,267C 290.323,268.202 287.989,268.702 285.5,268.5C 194.833,268.5 104.167,268.5 13.5,268.5C 9.72733,269.178 6.89399,267.844 5,264.5C 2.588,261.01 0.754663,257.343 -0.5,253.5C -0.5,251.5 -0.5,249.5 -0.5,247.5C 1.2496,243.311 3.08293,238.977 5,234.5C 10.9106,227.011 16.5773,219.345 22,211.5C 22.8397,207.5 25.0064,204.5 28.5,202.5 Z"/></g>
<g><path style="opacity:1" fill="#602528" d="M 13.5,252.5 C 14.1667,252.833 14.8333,253.167 15.5,253.5C 15.8417,254.338 16.5084,254.672 17.5,254.5C 17.5,254.833 17.5,255.167 17.5,255.5C 105.998,256.499 194.665,256.833 283.5,256.5C 194.668,257.666 105.668,257.832 16.5,257C 14.5614,256.092 13.5614,254.592 13.5,252.5 Z"/></g>
<g><path style="opacity:1" fill="#78221f" d="M 285.5,242.5 C 286.117,242.611 286.617,242.944 287,243.5C 287.667,246.833 287.667,250.167 287,253.5C 285.855,254.636 284.688,255.636 283.5,256.5C 194.665,256.833 105.998,256.499 17.5,255.5C 105.668,255.833 193.668,255.499 281.5,254.5C 282.822,254.67 283.989,254.337 285,253.5C 286.476,250.735 286.643,248.068 285.5,245.5C 285.5,244.5 285.5,243.5 285.5,242.5 Z"/></g>
<g><path style="opacity:1" fill="#ef5f4c" d="M 123.5,248.5 C 123.611,249.117 123.944,249.617 124.5,250C 133,250.167 141.5,250.333 150,250.5C 171.014,248.981 192.181,248.314 213.5,248.5C 213.5,250.5 213.5,252.5 213.5,254.5C 236.167,254.5 258.833,254.5 281.5,254.5C 193.668,255.499 105.668,255.833 17.5,255.5C 17.5,255.167 17.5,254.833 17.5,254.5C 17.5,252.5 17.5,250.5 17.5,248.5C 52.8333,248.5 88.1667,248.5 123.5,248.5 Z"/></g>
<g><path style="opacity:1" fill="#e36555" d="M 177.5,246.5 C 210.662,247.498 243.996,247.832 277.5,247.5C 256.34,248.497 235.007,248.831 213.5,248.5C 192.181,248.314 171.014,248.981 150,250.5C 141.5,250.333 133,250.167 124.5,250C 123.944,249.617 123.611,249.117 123.5,248.5C 123.5,248.167 123.5,247.833 123.5,247.5C 140.76,248.652 158.093,248.818 175.5,248C 176.044,247.283 176.711,246.783 177.5,246.5 Z"/></g>
<g><path style="opacity:1" fill="#d84635" d="M 285.5,245.5 C 286.643,248.068 286.476,250.735 285,253.5C 283.989,254.337 282.822,254.67 281.5,254.5C 258.833,254.5 236.167,254.5 213.5,254.5C 213.5,252.5 213.5,250.5 213.5,248.5C 235.007,248.831 256.34,248.497 277.5,247.5C 280.327,247.416 282.994,246.75 285.5,245.5 Z"/></g>
<g><path style="opacity:1" fill="#e97c60" d="M 122.5,247.5 C 122.833,247.5 123.167,247.5 123.5,247.5C 123.5,247.833 123.5,248.167 123.5,248.5C 88.1667,248.5 52.8333,248.5 17.5,248.5C 17.5,250.5 17.5,252.5 17.5,254.5C 16.5084,254.672 15.8417,254.338 15.5,253.5C 16.4614,251.735 16.7947,249.735 16.5,247.5C 51.8333,247.5 87.1667,247.5 122.5,247.5 Z"/></g>
<g><path style="opacity:1" fill="#f6b591" d="M 13.5,242.5 C 13.5,243.167 13.5,243.833 13.5,244.5C 13.8417,245.338 14.5084,245.672 15.5,245.5C 50.9961,246.498 86.6628,246.832 122.5,246.5C 122.5,246.833 122.5,247.167 122.5,247.5C 87.1667,247.5 51.8333,247.5 16.5,247.5C 16.7947,249.735 16.4614,251.735 15.5,253.5C 14.8333,253.167 14.1667,252.833 13.5,252.5C 12.3,249.031 12.3,245.698 13.5,242.5 Z"/></g>
<g><path style="opacity:1" fill="#fbca9c" d="M 258.5,241.5 C 258.5,242.5 258.5,243.5 258.5,244.5C 231.885,246.277 205.218,246.944 178.5,246.5C 179.512,245.128 180.512,243.795 181.5,242.5C 207.092,241.51 232.759,241.176 258.5,241.5 Z"/></g>
<g><path style="opacity:1" fill="#fce3b9" d="M 118.5,241.5 C 119.803,243.142 121.136,244.809 122.5,246.5C 86.6628,246.832 50.9961,246.498 15.5,245.5C 17.8809,244.58 20.2143,244.58 22.5,245.5C 23.5896,244.609 23.5896,243.609 22.5,242.5C 54.4931,241.5 86.4931,241.167 118.5,241.5 Z"/></g>
<g><path style="opacity:1" fill="#fcf0d3" d="M 31.5,228.5 C 31.0962,229.756 30.4295,230.923 29.5,232C 31.3282,233.506 31.6616,235.173 30.5,237C 33.7055,237.89 36.7055,237.557 39.5,236C 36.8792,235.094 37.0459,234.594 40,234.5C 43.9507,234.466 47.9507,234.799 52,235.5C 53.8122,235.507 55.3122,234.84 56.5,233.5C 63.2337,234.029 69.9004,235.029 76.5,236.5C 79.2748,235.028 81.9414,235.195 84.5,237C 95.9091,237.188 107.242,237.688 118.5,238.5C 118.5,239.5 118.5,240.5 118.5,241.5C 86.4931,241.167 54.4931,241.5 22.5,242.5C 23.5896,243.609 23.5896,244.609 22.5,245.5C 20.2143,244.58 17.8809,244.58 15.5,245.5C 14.5084,245.672 13.8417,245.338 13.5,244.5C 14.9778,244.762 16.3112,244.429 17.5,243.5C 18.8587,241.308 20.6921,239.641 23,238.5C 23.9562,235.623 25.2895,232.956 27,230.5C 28.3297,229.418 29.8297,228.751 31.5,228.5 Z"/></g>
<g><path style="opacity:1" fill="#fdf1cf" d="M 180.5,233.5 C 182.912,233.694 183.912,235.027 183.5,237.5C 208.506,237.5 233.506,237.833 258.5,238.5C 258.5,239.5 258.5,240.5 258.5,241.5C 232.759,241.176 207.092,241.51 181.5,242.5C 181.736,239.391 181.403,236.391 180.5,233.5 Z"/></g>
<g><path style="opacity:1" fill="#4a2729" d="M 163.5,229.5 C 169.76,228.682 175.426,230.015 180.5,233.5C 181.403,236.391 181.736,239.391 181.5,242.5C 180.512,243.795 179.512,245.128 178.5,246.5C 178.167,246.5 177.833,246.5 177.5,246.5C 176.711,246.783 176.044,247.283 175.5,248C 158.093,248.818 140.76,248.652 123.5,247.5C 123.167,247.5 122.833,247.5 122.5,247.5C 122.5,247.167 122.5,246.833 122.5,246.5C 121.136,244.809 119.803,243.142 118.5,241.5C 118.5,240.5 118.5,239.5 118.5,238.5C 119.137,234.355 121.471,231.522 125.5,230C 138.162,229.5 150.829,229.333 163.5,229.5 Z"/></g>
<g><path style="opacity:1" fill="#9b8d80" d="M 130.5,238.5 C 143.517,238.168 156.517,238.501 169.5,239.5C 163,239.833 156.5,240.167 150,240.5C 143.131,240.497 136.631,239.83 130.5,238.5 Z"/></g>
<g><path style="opacity:1" fill="#faca9d" d="M 258.5,225.5 C 257.327,227.504 255.66,229.004 253.5,230C 254.136,232.394 254.136,234.894 253.5,237.5C 250.776,237.466 248.776,236.799 247.5,235.5C 242.153,236.831 236.82,236.831 231.5,235.5C 231.326,233.139 230.993,230.806 230.5,228.5C 237.841,228.666 245.174,228.5 252.5,228C 254.628,227.345 256.628,226.511 258.5,225.5 Z"/></g>
<g><path style="opacity:0.741" fill="#6d2c24" d="M 13.5,268.5 C 104.167,268.5 194.833,268.5 285.5,268.5C 284.391,269.29 283.058,269.79 281.5,270C 244.333,270.167 207.167,270.333 170,270.5C 119.121,270.211 68.2881,270.044 17.5,270C 15.9419,269.79 14.6085,269.29 13.5,268.5 Z"/></g>
</svg>
