<?xml version="1.0" encoding="UTF-8"?>
<!DOCTYPE svg PUBLIC "-//W3C//DTD SVG 1.1//EN" "http://www.w3.org/Graphics/SVG/1.1/DTD/svg11.dtd">
<svg xmlns="http://www.w3.org/2000/svg" version="1.1" width="122px" height="88px" style="shape-rendering:geometricPrecision; text-rendering:geometricPrecision; image-rendering:optimizeQuality; fill-rule:evenodd; clip-rule:evenodd" xmlns:xlink="http://www.w3.org/1999/xlink">
<g><path style="opacity:0.469" fill="#143442" d="M 35.5,-0.5 C 40.1667,-0.5 44.8333,-0.5 49.5,-0.5C 60.988,0.494928 72.6547,0.828261 84.5,0.5C 69.3389,1.6612 54.0055,1.82787 38.5,1C 37.2625,0.76791 36.2625,0.26791 35.5,-0.5 Z"/></g>
<g><path style="opacity:0.427" fill="#652911" d="M 86.5,0.5 C 92.1764,0.333909 97.8431,0.500575 103.5,1C 104.252,1.67076 104.586,2.5041 104.5,3.5C 104.167,3.5 103.833,3.5 103.5,3.5C 103.389,2.88258 103.056,2.38258 102.5,2C 96.9842,1.82669 91.6509,1.32669 86.5,0.5 Z"/></g>
<g><path style="opacity:0.133" fill="#694212" d="M 104.5,3.5 C 105.235,14.0241 105.901,24.6908 106.5,35.5C 105.778,35.0825 105.278,34.4158 105,33.5C 104.5,23.5056 104.334,13.5056 104.5,3.5 Z"/></g>
<g><path style="opacity:0.928" fill="#342311" d="M 103.5,3.5 C 103.833,3.5 104.167,3.5 104.5,3.5C 104.334,13.5056 104.5,23.5056 105,33.5C 105.278,34.4158 105.778,35.0825 106.5,35.5C 107.797,36.8488 107.63,38.1821 106,39.5C 105.5,47.1594 105.334,54.8261 105.5,62.5C 103.512,43.1951 102.846,23.5284 103.5,3.5 Z"/></g>
<g><path style="opacity:0.157" fill="#73303f" d="M 17.5,1.5 C 16.2059,22.3184 15.5392,42.9851 15.5,63.5C 14.5665,43.1802 14.7331,22.8469 16,2.5C 16.3826,1.94404 16.8826,1.61071 17.5,1.5 Z"/></g>
<g><path style="opacity:1" fill="#0d0d0e" d="M 34.5,-0.5 C 34.8333,-0.5 35.1667,-0.5 35.5,-0.5C 36.2625,0.26791 37.2625,0.76791 38.5,1C 54.0055,1.82787 69.3389,1.6612 84.5,0.5C 85.1667,0.5 85.8333,0.5 86.5,0.5C 91.6509,1.32669 96.9842,1.82669 102.5,2C 103.056,2.38258 103.389,2.88258 103.5,3.5C 102.846,23.5284 103.512,43.1951 105.5,62.5C 105.365,64.5542 106.032,66.2209 107.5,67.5C 104.833,67.5 102.167,67.5 99.5,67.5C 72.1667,67.5 44.8333,67.5 17.5,67.5C 16.8333,67.5 16.1667,67.5 15.5,67.5C 15.5,66.1667 15.5,64.8333 15.5,63.5C 15.5392,42.9851 16.2059,22.3184 17.5,1.5C 23.1667,0.833333 28.8333,0.166667 34.5,-0.5 Z"/></g>
<g><path style="opacity:1" fill="#d1a635" d="M 97.5,3.5 C 97.1667,4.5 96.5,5.16667 95.5,5.5C 70.6722,4.50229 45.6722,4.16896 20.5,4.5C 20.5,23.5 20.5,42.5 20.5,61.5C 22.8333,61.5 25.1667,61.5 27.5,61.5C 27.5,60.5 27.5,59.5 27.5,58.5C 28.8333,58.5 30.1667,58.5 31.5,58.5C 30.5,59.8333 29.5,61.1667 28.5,62.5C 25.5,62.5 22.5,62.5 19.5,62.5C 19.5,42.8333 19.5,23.1667 19.5,3.5C 45.5,3.5 71.5,3.5 97.5,3.5 Z"/></g>
<g><path style="opacity:1" fill="#30b8eb" d="M 97.5,3.5 C 98.8333,3.5 100.167,3.5 101.5,3.5C 101.5,23.1667 101.5,42.8333 101.5,62.5C 77.1667,62.5 52.8333,62.5 28.5,62.5C 29.5,61.1667 30.5,59.8333 31.5,58.5C 53.2419,41.3 74.5752,23.6334 95.5,5.5C 96.5,5.16667 97.1667,4.5 97.5,3.5 Z"/></g>
<g><path style="opacity:1" fill="#f6bf1a" d="M 95.5,5.5 C 74.5752,23.6334 53.2419,41.3 31.5,58.5C 30.1667,58.5 28.8333,58.5 27.5,58.5C 27.5,59.5 27.5,60.5 27.5,61.5C 25.1667,61.5 22.8333,61.5 20.5,61.5C 20.5,42.5 20.5,23.5 20.5,4.5C 45.6722,4.16896 70.6722,4.50229 95.5,5.5 Z"/></g>
<g><path style="opacity:0.663" fill="#986f4c" d="M 15.5,67.5 C 16.1667,67.5 16.8333,67.5 17.5,67.5C 17.5,67.8333 17.5,68.1667 17.5,68.5C 13.7162,70.2263 10.0496,72.2263 6.5,74.5C 8.94852,71.4442 11.9485,69.1108 15.5,67.5 Z"/></g>
<g><path style="opacity:0.431" fill="#6b6a62" d="M 99.5,68.5 C 99.5,68.1667 99.5,67.8333 99.5,67.5C 102.167,67.5 104.833,67.5 107.5,67.5C 112.148,71.1429 116.815,74.8096 121.5,78.5C 121.5,81.1667 121.5,83.8333 121.5,86.5C 121.167,86.5 120.833,86.5 120.5,86.5C 120.802,83.9407 120.468,81.6074 119.5,79.5C 115.693,75.8651 111.693,72.3651 107.5,69C 104.854,68.5026 102.187,68.3359 99.5,68.5 Z"/></g>
<g><path style="opacity:1" fill="#1c120f" d="M 17.5,68.5 C 17.5,68.1667 17.5,67.8333 17.5,67.5C 44.8333,67.5 72.1667,67.5 99.5,67.5C 99.5,67.8333 99.5,68.1667 99.5,68.5C 101.5,71.1667 103.833,73.5 106.5,75.5C 75.3327,76.5817 44.9994,76.5817 15.5,75.5C 17.9635,73.5389 20.2968,71.3722 22.5,69C 20.8659,68.5065 19.1992,68.3398 17.5,68.5 Z"/></g>
<g><path style="opacity:1" fill="#ec6f1e" d="M 17.5,68.5 C 19.1992,68.3398 20.8659,68.5065 22.5,69C 20.2968,71.3722 17.9635,73.5389 15.5,75.5C 14.9569,75.56 14.6236,75.8933 14.5,76.5C 45.5,77.8333 76.5,77.8333 107.5,76.5C 107.376,75.8933 107.043,75.56 106.5,75.5C 103.833,73.5 101.5,71.1667 99.5,68.5C 102.187,68.3359 104.854,68.5026 107.5,69C 111.693,72.3651 115.693,75.8651 119.5,79.5C 80.5142,81.4941 41.1808,82.1608 1.5,81.5C 2.75355,78.9066 4.42022,76.5732 6.5,74.5C 10.0496,72.2263 13.7162,70.2263 17.5,68.5 Z"/></g>
<g><path style="opacity:1" fill="#a75627" d="M 106.5,75.5 C 107.043,75.56 107.376,75.8933 107.5,76.5C 76.5,77.8333 45.5,77.8333 14.5,76.5C 14.6236,75.8933 14.9569,75.56 15.5,75.5C 44.9994,76.5817 75.3327,76.5817 106.5,75.5 Z"/></g>
<g><path style="opacity:1" fill="#a84e1b" d="M 119.5,79.5 C 120.468,81.6074 120.802,83.9407 120.5,86.5C 102.659,86.8301 84.9921,86.4967 67.5,85.5C 84.8333,85.5 102.167,85.5 119.5,85.5C 119.5,84.5 119.5,83.5 119.5,82.5C 80.1667,82.5 40.8333,82.5 1.5,82.5C 1.5,82.1667 1.5,81.8333 1.5,81.5C 41.1808,82.1608 80.5142,81.4941 119.5,79.5 Z"/></g>
<g><path style="opacity:1" fill="#e0661e" d="M 1.5,82.5 C 40.8333,82.5 80.1667,82.5 119.5,82.5C 119.5,83.5 119.5,84.5 119.5,85.5C 102.167,85.5 84.8333,85.5 67.5,85.5C 45.5092,86.2865 23.5092,86.6198 1.5,86.5C 1.5,85.1667 1.5,83.8333 1.5,82.5 Z"/></g>
<g><path style="opacity:0.163" fill="#7b5845" d="M 6.5,74.5 C 4.42022,76.5732 2.75355,78.9066 1.5,81.5C 1.5,81.8333 1.5,82.1667 1.5,82.5C 1.5,83.8333 1.5,85.1667 1.5,86.5C 23.5092,86.6198 45.5092,86.2865 67.5,85.5C 84.9921,86.4967 102.659,86.8301 120.5,86.5C 120.5,86.8333 120.5,87.1667 120.5,87.5C 80.5,87.5 40.5,87.5 0.5,87.5C 0.67158,86.5084 0.338246,85.8417 -0.5,85.5C -0.5,83.5 -0.5,81.5 -0.5,79.5C 1.57324,77.4202 3.90657,75.7536 6.5,74.5 Z"/></g>
</svg>
