<?xml version="1.0" encoding="UTF-8"?>
<!DOCTYPE svg PUBLIC "-//W3C//DTD SVG 1.1//EN" "http://www.w3.org/Graphics/SVG/1.1/DTD/svg11.dtd">
<svg xmlns="http://www.w3.org/2000/svg" version="1.1" width="82px" height="103px" style="shape-rendering:geometricPrecision; text-rendering:geometricPrecision; image-rendering:optimizeQuality; fill-rule:evenodd; clip-rule:evenodd" xmlns:xlink="http://www.w3.org/1999/xlink">
<g><path style="opacity:1" fill="#622f12" d="M 39.5,-0.5 C 40.5,-0.5 41.5,-0.5 42.5,-0.5C 42.2587,1.88629 42.9254,3.88629 44.5,5.5C 43.5,5.5 42.5,5.5 41.5,5.5C 40.8333,5.5 40.1667,5.5 39.5,5.5C 39.5,3.5 39.5,1.5 39.5,-0.5 Z"/></g>
<g><path style="opacity:1" fill="#f8c214" d="M 30.5,-0.5 C 33.1667,-0.5 35.8333,-0.5 38.5,-0.5C 38.5,1.16667 38.5,2.83333 38.5,4.5C 34.8453,3.92497 31.8453,4.92497 29.5,7.5C 24.2909,9.71913 19.6243,12.7191 15.5,16.5C 14.8333,16.8333 14.1667,17.1667 13.5,17.5C 13.631,16.7611 13.4643,16.0944 13,15.5C 11.6012,16.2266 10.1012,16.7266 8.5,17C 7.42093,18.8587 6.0876,20.3587 4.5,21.5C 6.43383,16.0519 9.76717,11.5519 14.5,8C 19.5427,4.41856 24.876,1.58522 30.5,-0.5 Z"/></g>
<g><path style="opacity:1" fill="#bb9935" d="M 38.5,-0.5 C 38.8333,-0.5 39.1667,-0.5 39.5,-0.5C 39.5,1.5 39.5,3.5 39.5,5.5C 36.5049,5.29379 33.8383,5.96046 31.5,7.5C 30.8333,7.5 30.1667,7.5 29.5,7.5C 31.8453,4.92497 34.8453,3.92497 38.5,4.5C 38.5,2.83333 38.5,1.16667 38.5,-0.5 Z"/></g>
<g><path style="opacity:0.999" fill="#f5bd14" d="M 42.5,-0.5 C 45.1667,-0.5 47.8333,-0.5 50.5,-0.5C 58.5279,2.19032 65.1946,6.85699 70.5,13.5C 70.631,14.2389 70.4643,14.9056 70,15.5C 66.1384,14.4849 62.6384,12.8183 59.5,10.5C 58.391,10.4431 57.391,10.1098 56.5,9.5C 52.9383,7.04677 48.9383,5.71344 44.5,5.5C 42.9254,3.88629 42.2587,1.88629 42.5,-0.5 Z"/></g>
<g><path style="opacity:1" fill="#dfd69e" d="M 39.5,5.5 C 40.1667,5.5 40.8333,5.5 41.5,5.5C 41.5,6.16667 41.5,6.83333 41.5,7.5C 39.0459,7.32051 36.8792,7.98718 35,9.5C 33.9231,8.57051 32.7564,7.90384 31.5,7.5C 33.8383,5.96046 36.5049,5.29379 39.5,5.5 Z"/></g>
<g><path style="opacity:1" fill="#31b5cf" d="M 36.5,13.5 C 37.0998,14.8999 38.0998,15.8999 39.5,16.5C 37.4727,16.3379 35.4727,16.5045 33.5,17C 33.8333,17.3333 34.1667,17.6667 34.5,18C 33.7109,20.3651 32.5442,22.5318 31,24.5C 29.4555,23.1787 28.2888,23.5121 27.5,25.5C 24.5719,26.4841 21.5719,26.8174 18.5,26.5C 20.7623,25.1766 23.0956,23.8432 25.5,22.5C 24.9588,20.4648 24.2922,18.4648 23.5,16.5C 21.2159,17.843 20.3826,17.1764 21,14.5C 22.8153,12.5951 24.8153,10.9284 27,9.5C 27.1626,11.3867 26.3293,12.8867 24.5,14C 24.8333,14.1667 25.1667,14.3333 25.5,14.5C 28.1485,12.3418 31.1485,11.0084 34.5,10.5C 34.2852,12.1788 34.9519,13.1788 36.5,13.5 Z"/></g>
<g><path style="opacity:1" fill="#ccb881" d="M 56.5,9.5 C 57.391,10.1098 58.391,10.4431 59.5,10.5C 62.1577,12.9684 64.4911,15.6351 66.5,18.5C 65.596,19.209 65.2627,20.209 65.5,21.5C 64.5,21.5 63.5,21.5 62.5,21.5C 62.1667,21.5 61.8333,21.5 61.5,21.5C 59.7816,20.776 57.9483,20.1094 56,19.5C 56.1349,21.4247 56.3016,23.4247 56.5,25.5C 56.1667,26.5 55.5,27.1667 54.5,27.5C 54.5,26.8333 54.5,26.1667 54.5,25.5C 53.5,23.5 52.5,21.5 51.5,19.5C 52.6527,18.6868 52.6527,17.6868 51.5,16.5C 49.784,16.0028 48.1173,15.6694 46.5,15.5C 47.3094,13.9291 47.6427,12.2624 47.5,10.5C 50.7131,10.81 53.7131,10.4767 56.5,9.5 Z"/></g>
<g><path style="opacity:1" fill="#f5c614" d="M 13.5,17.5 C 8.55932,23.5669 5.89265,30.5669 5.5,38.5C 3.5,38.5 1.5,38.5 -0.5,38.5C -0.5,36.5 -0.5,34.5 -0.5,32.5C 0.58272,28.5925 2.24939,24.9258 4.5,21.5C 6.0876,20.3587 7.42093,18.8587 8.5,17C 10.1012,16.7266 11.6012,16.2266 13,15.5C 13.4643,16.0944 13.631,16.7611 13.5,17.5 Z"/></g>
<g><path style="opacity:1" fill="#17b0d0" d="M 39.5,16.5 C 40.0431,16.56 40.3764,16.8933 40.5,17.5C 39.3966,17.9976 38.3966,18.3309 37.5,18.5C 39.0107,20.8375 38.6773,21.5042 36.5,20.5C 35.7132,21.2421 35.0465,22.0754 34.5,23C 35.4231,25.0408 35.7564,27.2075 35.5,29.5C 33.9519,29.8212 33.2852,30.8212 33.5,32.5C 34.552,32.3505 35.552,32.5172 36.5,33C 34.8333,33.6667 33.1667,33.6667 31.5,33C 32.5243,31.6329 32.0243,30.7995 30,30.5C 28.9456,31.4824 28.4456,32.6491 28.5,34C 26.0982,34.8141 23.7649,34.6474 21.5,33.5C 21.3602,32.0971 21.3602,30.5971 21.5,29C 19.8739,29.1953 18.2072,29.1953 16.5,29C 17.756,28.5831 18.4226,27.7498 18.5,26.5C 21.5719,26.8174 24.5719,26.4841 27.5,25.5C 28.2888,23.5121 29.4555,23.1787 31,24.5C 32.5442,22.5318 33.7109,20.3651 34.5,18C 34.1667,17.6667 33.8333,17.3333 33.5,17C 35.4727,16.5045 37.4727,16.3379 39.5,16.5 Z"/></g>
<g><path style="opacity:0.997" fill="#ce7311" d="M 59.5,10.5 C 62.6384,12.8183 66.1384,14.4849 70,15.5C 70.4643,14.9056 70.631,14.2389 70.5,13.5C 75.7609,20.0219 79.4276,27.3552 81.5,35.5C 81.5,36.1667 81.5,36.8333 81.5,37.5C 80.8333,37.5 80.5,37.8333 80.5,38.5C 78.5,38.5 76.5,38.5 74.5,38.5C 75.1136,30.4106 72.447,23.7439 66.5,18.5C 64.4911,15.6351 62.1577,12.9684 59.5,10.5 Z"/></g>
<g><path style="opacity:1" fill="#45b1c0" d="M 41.5,5.5 C 42.5,5.5 43.5,5.5 44.5,5.5C 48.9383,5.71344 52.9383,7.04677 56.5,9.5C 53.7131,10.4767 50.7131,10.81 47.5,10.5C 47.6427,12.2624 47.3094,13.9291 46.5,15.5C 48.1173,15.6694 49.784,16.0028 51.5,16.5C 52.6527,17.6868 52.6527,18.6868 51.5,19.5C 44.0207,16.7413 39.0207,19.0746 36.5,26.5C 36.7538,28.4172 37.7538,29.7505 39.5,30.5C 39.5,30.8333 39.5,31.1667 39.5,31.5C 37.9382,31.2671 36.6049,30.6005 35.5,29.5C 35.7564,27.2075 35.4231,25.0408 34.5,23C 35.0465,22.0754 35.7132,21.2421 36.5,20.5C 38.6773,21.5042 39.0107,20.8375 37.5,18.5C 38.3966,18.3309 39.3966,17.9976 40.5,17.5C 40.3764,16.8933 40.0431,16.56 39.5,16.5C 38.0998,15.8999 37.0998,14.8999 36.5,13.5C 38.6509,11.7111 41.1509,10.3778 44,9.5C 44.1881,7.9387 43.3547,7.27203 41.5,7.5C 41.5,6.83333 41.5,6.16667 41.5,5.5 Z"/></g>
<g><path style="opacity:1" fill="#f5efd6" d="M 51.5,19.5 C 52.5,21.5 53.5,23.5 54.5,25.5C 49.5468,26.4109 44.5468,27.0776 39.5,27.5C 39.5,28.5 39.5,29.5 39.5,30.5C 37.7538,29.7505 36.7538,28.4172 36.5,26.5C 39.0207,19.0746 44.0207,16.7413 51.5,19.5 Z"/></g>
<g><path style="opacity:1" fill="#669d8d" d="M 61.5,21.5 C 59.8459,22.7503 58.1793,24.0837 56.5,25.5C 56.3016,23.4247 56.1349,21.4247 56,19.5C 57.9483,20.1094 59.7816,20.776 61.5,21.5 Z"/></g>
<g><path style="opacity:1" fill="#6a9077" d="M 66.5,18.5 C 72.447,23.7439 75.1136,30.4106 74.5,38.5C 69.1667,38.5 63.8333,38.5 58.5,38.5C 58.5394,37.4168 58.8728,36.4168 59.5,35.5C 59.0431,34.7025 58.3764,34.3691 57.5,34.5C 58.209,33.596 59.209,33.2627 60.5,33.5C 60.5,34.8333 60.5,36.1667 60.5,37.5C 64.8839,37.8256 69.2172,37.4922 73.5,36.5C 71.7158,32.5997 70.2158,28.5997 69,24.5C 68.586,24.9574 68.086,25.2907 67.5,25.5C 66.0186,23.8511 64.3519,22.5177 62.5,21.5C 63.5,21.5 64.5,21.5 65.5,21.5C 65.2627,20.209 65.596,19.209 66.5,18.5 Z"/></g>
<g><path style="opacity:1" fill="#eaf4e6" d="M 29.5,7.5 C 30.1667,7.5 30.8333,7.5 31.5,7.5C 32.7564,7.90384 33.9231,8.57051 35,9.5C 36.8792,7.98718 39.0459,7.32051 41.5,7.5C 43.3547,7.27203 44.1881,7.9387 44,9.5C 41.1509,10.3778 38.6509,11.7111 36.5,13.5C 34.9519,13.1788 34.2852,12.1788 34.5,10.5C 31.1485,11.0084 28.1485,12.3418 25.5,14.5C 25.1667,14.3333 24.8333,14.1667 24.5,14C 26.3293,12.8867 27.1626,11.3867 27,9.5C 24.8153,10.9284 22.8153,12.5951 21,14.5C 20.3826,17.1764 21.2159,17.843 23.5,16.5C 24.2922,18.4648 24.9588,20.4648 25.5,22.5C 23.0956,23.8432 20.7623,25.1766 18.5,26.5C 14.4668,26.6914 12.9668,28.6914 14,32.5C 18.2281,33.2969 22.0615,34.9635 25.5,37.5C 25.5,37.8333 25.5,38.1667 25.5,38.5C 21.5,38.5 17.5,38.5 13.5,38.5C 13.1667,38.5 12.8333,38.5 12.5,38.5C 12.4208,37.0695 12.7542,35.7362 13.5,34.5C 12.0627,32.9788 11.396,31.1454 11.5,29C 12.33,24.6706 13.9967,20.6706 16.5,17C 16.2716,16.6012 15.9382,16.4346 15.5,16.5C 19.6243,12.7191 24.2909,9.71913 29.5,7.5 Z"/></g>
<g><path style="opacity:1" fill="#e3ba66" d="M 54.5,25.5 C 54.5,26.1667 54.5,26.8333 54.5,27.5C 49.3228,27.9716 44.3228,29.305 39.5,31.5C 39.5,31.1667 39.5,30.8333 39.5,30.5C 39.5,29.5 39.5,28.5 39.5,27.5C 44.5468,27.0776 49.5468,26.4109 54.5,25.5 Z"/></g>
<g><path style="opacity:1" fill="#167a91" d="M 61.5,21.5 C 61.8333,21.5 62.1667,21.5 62.5,21.5C 64.3519,22.5177 66.0186,23.8511 67.5,25.5C 68.086,25.2907 68.586,24.9574 69,24.5C 70.2158,28.5997 71.7158,32.5997 73.5,36.5C 69.2172,37.4922 64.8839,37.8256 60.5,37.5C 60.5,36.1667 60.5,34.8333 60.5,33.5C 59.209,33.2627 58.209,33.596 57.5,34.5C 52.1715,36.7107 46.5049,37.7107 40.5,37.5C 40.6747,35.3792 40.3414,33.3792 39.5,31.5C 44.3228,29.305 49.3228,27.9716 54.5,27.5C 55.5,27.1667 56.1667,26.5 56.5,25.5C 58.1793,24.0837 59.8459,22.7503 61.5,21.5 Z"/></g>
<g><path style="opacity:1" fill="#46b6bf" d="M 15.5,16.5 C 15.9382,16.4346 16.2716,16.6012 16.5,17C 13.9967,20.6706 12.33,24.6706 11.5,29C 11.396,31.1454 12.0627,32.9788 13.5,34.5C 12.7542,35.7362 12.4208,37.0695 12.5,38.5C 10.1667,38.5 7.83333,38.5 5.5,38.5C 5.89265,30.5669 8.55932,23.5669 13.5,17.5C 14.1667,17.1667 14.8333,16.8333 15.5,16.5 Z"/></g>
<g><path style="opacity:1" fill="#23b0cb" d="M 18.5,26.5 C 18.4226,27.7498 17.756,28.5831 16.5,29C 18.2072,29.1953 19.8739,29.1953 21.5,29C 21.3602,30.5971 21.3602,32.0971 21.5,33.5C 23.7649,34.6474 26.0982,34.8141 28.5,34C 28.4456,32.6491 28.9456,31.4824 30,30.5C 32.0243,30.7995 32.5243,31.6329 31.5,33C 33.1667,33.6667 34.8333,33.6667 36.5,33C 35.552,32.5172 34.552,32.3505 33.5,32.5C 33.2852,30.8212 33.9519,29.8212 35.5,29.5C 36.6049,30.6005 37.9382,31.2671 39.5,31.5C 40.3414,33.3792 40.6747,35.3792 40.5,37.5C 35.5,37.5 30.5,37.5 25.5,37.5C 22.0615,34.9635 18.2281,33.2969 14,32.5C 12.9668,28.6914 14.4668,26.6914 18.5,26.5 Z"/></g>
<g><path style="opacity:1" fill="#deb43d" d="M 5.5,38.5 C 7.83333,38.5 10.1667,38.5 12.5,38.5C 12.8333,38.5 13.1667,38.5 13.5,38.5C 13.5,39.1667 13.5,39.8333 13.5,40.5C 13.1667,40.5 12.8333,40.5 12.5,40.5C 10.1667,40.5 7.83333,40.5 5.5,40.5C 5.5,39.8333 5.5,39.1667 5.5,38.5 Z"/></g>
<g><path style="opacity:1" fill="#44140c" d="M 74.5,38.5 C 76.5,38.5 78.5,38.5 80.5,38.5C 80.5,39.5 80.5,40.5 80.5,41.5C 78.5,41.5 76.5,41.5 74.5,41.5C 74.5,41.1667 74.5,40.8333 74.5,40.5C 74.5,39.8333 74.5,39.1667 74.5,38.5 Z"/></g>
<g><path style="opacity:1" fill="#561e0c" d="M -0.5,38.5 C 1.5,38.5 3.5,38.5 5.5,38.5C 5.5,39.1667 5.5,39.8333 5.5,40.5C 5.5,40.8333 5.5,41.1667 5.5,41.5C 3.5,41.5 1.5,41.5 -0.5,41.5C -0.5,40.5 -0.5,39.5 -0.5,38.5 Z"/></g>
<g><path style="opacity:1" fill="#889e5c" d="M 5.5,40.5 C 7.83333,40.5 10.1667,40.5 12.5,40.5C 10.7354,41.4614 8.73535,41.7947 6.5,41.5C 6.5,42.5 6.5,43.5 6.5,44.5C 5.59603,43.791 5.26269,42.791 5.5,41.5C 5.5,41.1667 5.5,40.8333 5.5,40.5 Z"/></g>
<g><path style="opacity:1" fill="#e7a720" d="M 25.5,38.5 C 30.5,38.5 35.5,38.5 40.5,38.5C 40.5,39.5 40.5,40.5 40.5,41.5C 37.1667,41.5 33.8333,41.5 30.5,41.5C 31.0733,46.8465 31.74,52.1798 32.5,57.5C 33.2323,58.8083 34.0656,60.1416 35,61.5C 36.7804,60.3606 38.6137,59.3606 40.5,58.5C 40.5,60.8333 40.5,63.1667 40.5,65.5C 41.5,65.5 42.5,65.5 43.5,65.5C 36.6891,67.0036 30.3558,65.6703 24.5,61.5C 24.2624,59.5956 23.2624,58.2623 21.5,57.5C 19.769,53.3178 19.269,48.9844 20,44.5C 22.0396,42.6298 23.8729,40.6298 25.5,38.5 Z"/></g>
<g><path style="opacity:1" fill="#726946" d="M 74.5,40.5 C 74.5,40.8333 74.5,41.1667 74.5,41.5C 72.1137,41.2587 70.1137,41.9254 68.5,43.5C 68.5,42.5 68.5,41.5 68.5,40.5C 70.5,40.5 72.5,40.5 74.5,40.5 Z"/></g>
<g><path style="opacity:1" fill="#fcc204" d="M 32.5,57.5 C 32.5,59.1667 32.5,60.8333 32.5,62.5C 25.9962,61.0792 22.3295,56.9125 21.5,50C 21.3794,44.3457 24.0461,41.5124 29.5,41.5C 29.2274,47.2161 30.2274,52.5494 32.5,57.5 Z"/></g>
<g><path style="opacity:1" fill="#fdc303" d="M 40.5,41.5 C 40.5,47.1667 40.5,52.8333 40.5,58.5C 38.6137,59.3606 36.7804,60.3606 35,61.5C 34.0656,60.1416 33.2323,58.8083 32.5,57.5C 31.74,52.1798 31.0733,46.8465 30.5,41.5C 33.8333,41.5 37.1667,41.5 40.5,41.5 Z"/></g>
<g><path style="opacity:1" fill="#d57704" d="M 40.5,38.5 C 44.1667,38.5 47.8333,38.5 51.5,38.5C 51.366,40.2915 51.6993,41.9582 52.5,43.5C 52.4531,51.5859 50.1198,58.9192 45.5,65.5C 44.8333,65.5 44.1667,65.5 43.5,65.5C 42.5,65.5 41.5,65.5 40.5,65.5C 40.5,63.1667 40.5,60.8333 40.5,58.5C 40.5,52.8333 40.5,47.1667 40.5,41.5C 40.5,40.5 40.5,39.5 40.5,38.5 Z"/></g>
<g><path style="opacity:1" fill="#aeab78" d="M 57.5,34.5 C 58.3764,34.3691 59.0431,34.7025 59.5,35.5C 58.8728,36.4168 58.5394,37.4168 58.5,38.5C 57.6491,40.7097 56.3157,42.7097 54.5,44.5C 53.8165,44.1373 53.1499,43.8039 52.5,43.5C 51.6993,41.9582 51.366,40.2915 51.5,38.5C 47.8333,38.5 44.1667,38.5 40.5,38.5C 35.5,38.5 30.5,38.5 25.5,38.5C 25.5,38.1667 25.5,37.8333 25.5,37.5C 30.5,37.5 35.5,37.5 40.5,37.5C 46.5049,37.7107 52.1715,36.7107 57.5,34.5 Z"/></g>
<g><path style="opacity:1" fill="#cf740a" d="M 58.5,38.5 C 63.8333,38.5 69.1667,38.5 74.5,38.5C 74.5,39.1667 74.5,39.8333 74.5,40.5C 72.5,40.5 70.5,40.5 68.5,40.5C 68.5,41.5 68.5,42.5 68.5,43.5C 65.3965,55.6035 57.7299,62.9368 45.5,65.5C 50.1198,58.9192 52.4531,51.5859 52.5,43.5C 53.1499,43.8039 53.8165,44.1373 54.5,44.5C 56.3157,42.7097 57.6491,40.7097 58.5,38.5 Z"/></g>
<g><path style="opacity:1" fill="#f0c61f" d="M -0.5,41.5 C 1.5,41.5 3.5,41.5 5.5,41.5C 5.26269,42.791 5.59603,43.791 6.5,44.5C 8.07083,53.7076 12.7375,60.7076 20.5,65.5C 21.8936,67.7082 23.8936,69.2082 26.5,70C 30.4052,71.3591 34.4052,72.1924 38.5,72.5C 38.7845,74.4147 38.4511,76.0813 37.5,77.5C 32.0983,76.8139 26.7649,75.4806 21.5,73.5C 10.5008,67.4995 3.16748,58.4995 -0.5,46.5C -0.5,44.8333 -0.5,43.1667 -0.5,41.5 Z"/></g>
<g><path style="opacity:1" fill="#40b9cb" d="M 12.5,40.5 C 12.8333,40.5 13.1667,40.5 13.5,40.5C 14.282,43.7144 15.1153,47.0477 16,50.5C 16.9354,53.5952 18.7687,55.9286 21.5,57.5C 23.2624,58.2623 24.2624,59.5956 24.5,61.5C 23.1021,59.8912 21.4354,59.0579 19.5,59C 21.7059,61.0367 23.7059,63.2034 25.5,65.5C 25.6309,66.3764 25.2975,67.0431 24.5,67.5C 23.3777,66.3698 22.0443,65.7031 20.5,65.5C 12.7375,60.7076 8.07083,53.7076 6.5,44.5C 6.5,43.5 6.5,42.5 6.5,41.5C 8.73535,41.7947 10.7354,41.4614 12.5,40.5 Z"/></g>
<g><path style="opacity:1" fill="#f6edcc" d="M 13.5,38.5 C 17.5,38.5 21.5,38.5 25.5,38.5C 23.8729,40.6298 22.0396,42.6298 20,44.5C 19.269,48.9844 19.769,53.3178 21.5,57.5C 18.7687,55.9286 16.9354,53.5952 16,50.5C 15.1153,47.0477 14.282,43.7144 13.5,40.5C 13.5,39.8333 13.5,39.1667 13.5,38.5 Z"/></g>
<g><path style="opacity:1" fill="#ce730a" d="M 75.5,57.5 C 72.2299,58.103 70.2299,60.103 69.5,63.5C 68.5481,61.9547 68.2148,60.288 68.5,58.5C 70.2848,55.0991 71.9515,51.7658 73.5,48.5C 74.7384,46.7857 75.405,44.7857 75.5,42.5C 76.8333,42.5 78.1667,42.5 79.5,42.5C 78.324,47.5371 76.9906,52.5371 75.5,57.5 Z"/></g>
<g><path style="opacity:0.792" fill="#ac8a3d" d="M 81.5,37.5 C 81.5,39.1667 81.5,40.8333 81.5,42.5C 80.6862,44.631 80.1862,46.9644 80,49.5C 79.1404,52.6328 77.6404,55.2995 75.5,57.5C 76.9906,52.5371 78.324,47.5371 79.5,42.5C 78.1667,42.5 76.8333,42.5 75.5,42.5C 75.405,44.7857 74.7384,46.7857 73.5,48.5C 73.6741,46.139 74.0074,43.8056 74.5,41.5C 76.5,41.5 78.5,41.5 80.5,41.5C 80.5,40.5 80.5,39.5 80.5,38.5C 80.5,37.8333 80.8333,37.5 81.5,37.5 Z"/></g>
<g><path style="opacity:1" fill="#bf7e25" d="M 75.5,57.5 C 70.4714,67.0224 62.8047,73.5224 52.5,77C 50.5273,77.4955 48.5273,77.6621 46.5,77.5C 45.5,77.5 44.5,77.5 43.5,77.5C 42.5489,76.0813 42.2155,74.4147 42.5,72.5C 45.6267,71.4192 48.9601,70.7526 52.5,70.5C 49.9924,72.554 46.9924,73.554 43.5,73.5C 43.5,74.5 43.5,75.5 43.5,76.5C 47.9788,76.4641 52.3121,75.6307 56.5,74C 57.8932,72.8289 58.7265,71.3289 59,69.5C 63.4027,70.8734 65.5693,69.2067 65.5,64.5C 64.5,64.5 63.5,64.5 62.5,64.5C 64.1667,62.1667 66.1667,60.1667 68.5,58.5C 68.2148,60.288 68.5481,61.9547 69.5,63.5C 70.2299,60.103 72.2299,58.103 75.5,57.5 Z"/></g>
<g><path style="opacity:1" fill="#72bba7" d="M 20.5,65.5 C 22.0443,65.7031 23.3777,66.3698 24.5,67.5C 25.2975,67.0431 25.6309,66.3764 25.5,65.5C 27.6491,66.7476 29.6491,68.2476 31.5,70C 34.0037,70.6976 36.337,71.5309 38.5,72.5C 34.4052,72.1924 30.4052,71.3591 26.5,70C 23.8936,69.2082 21.8936,67.7082 20.5,65.5 Z"/></g>
<g><path style="opacity:1" fill="#287c8b" d="M 74.5,41.5 C 74.0074,43.8056 73.6741,46.139 73.5,48.5C 71.9515,51.7658 70.2848,55.0991 68.5,58.5C 66.1667,60.1667 64.1667,62.1667 62.5,64.5C 59.1667,66.5 55.8333,68.5 52.5,70.5C 48.9601,70.7526 45.6267,71.4192 42.5,72.5C 41.1667,72.5 39.8333,72.5 38.5,72.5C 36.337,71.5309 34.0037,70.6976 31.5,70C 29.6491,68.2476 27.6491,66.7476 25.5,65.5C 23.7059,63.2034 21.7059,61.0367 19.5,59C 21.4354,59.0579 23.1021,59.8912 24.5,61.5C 30.3558,65.6703 36.6891,67.0036 43.5,65.5C 44.1667,65.5 44.8333,65.5 45.5,65.5C 57.7299,62.9368 65.3965,55.6035 68.5,43.5C 70.1137,41.9254 72.1137,41.2587 74.5,41.5 Z"/></g>
<g><path style="opacity:1" fill="#d07509" d="M 62.5,64.5 C 63.5,64.5 64.5,64.5 65.5,64.5C 65.5693,69.2067 63.4027,70.8734 59,69.5C 58.7265,71.3289 57.8932,72.8289 56.5,74C 52.3121,75.6307 47.9788,76.4641 43.5,76.5C 43.5,75.5 43.5,74.5 43.5,73.5C 46.9924,73.554 49.9924,72.554 52.5,70.5C 55.8333,68.5 59.1667,66.5 62.5,64.5 Z"/></g>
<g><path style="opacity:0.51" fill="#e1d04c" d="M 21.5,73.5 C 26.7649,75.4806 32.0983,76.8139 37.5,77.5C 37.5,77.8333 37.5,78.1667 37.5,78.5C 37.1667,78.5 36.8333,78.5 36.5,78.5C 30.9472,78.2007 25.9472,76.5341 21.5,73.5 Z"/></g>
<g><path style="opacity:0.039" fill="#6f8178" d="M 43.5,77.5 C 44.5,77.5 45.5,77.5 46.5,77.5C 44.9254,79.1137 44.2587,81.1137 44.5,83.5C 44.1667,83.5 43.8333,83.5 43.5,83.5C 43.5,81.8333 43.5,80.1667 43.5,78.5C 43.5,78.1667 43.5,77.8333 43.5,77.5 Z"/></g>
<g><path style="opacity:0.043" fill="#879f86" d="M 36.5,78.5 C 36.8333,78.5 37.1667,78.5 37.5,78.5C 37.9227,80.7812 37.256,82.4479 35.5,83.5C 36.3007,81.9582 36.634,80.2915 36.5,78.5 Z"/></g>
<g><path style="opacity:1" fill="#3c0b05" d="M 43.5,78.5 C 43.5,80.1667 43.5,81.8333 43.5,83.5C 49.0304,84.2754 54.6971,85.1088 60.5,86C 63.4422,86.1439 65.7756,87.3106 67.5,89.5C 66.1805,90.9418 64.5138,91.6085 62.5,91.5C 61.2617,91.19 61.2617,90.69 62.5,90C 55.8804,88.8626 49.2137,88.3626 42.5,88.5C 42.1872,84.9581 42.5206,81.6248 43.5,78.5 Z"/></g>
<g><path style="opacity:0.427" fill="#2f231d" d="M 43.5,83.5 C 43.8333,83.5 44.1667,83.5 44.5,83.5C 52.4507,82.9664 60.1173,84.1331 67.5,87C 68.2524,87.6708 68.5858,88.5041 68.5,89.5C 68.1667,89.5 67.8333,89.5 67.5,89.5C 65.7756,87.3106 63.4422,86.1439 60.5,86C 54.6971,85.1088 49.0304,84.2754 43.5,83.5 Z"/></g>
<g><path style="opacity:1" fill="#521a0b" d="M 38.5,72.5 C 39.8333,72.5 41.1667,72.5 42.5,72.5C 42.2155,74.4147 42.5489,76.0813 43.5,77.5C 43.5,77.8333 43.5,78.1667 43.5,78.5C 42.5206,81.6248 42.1872,84.9581 42.5,88.5C 49.2137,88.3626 55.8804,88.8626 62.5,90C 61.2617,90.69 61.2617,91.19 62.5,91.5C 59.0968,92.9251 55.4302,93.7585 51.5,94C 43.1667,94.6667 34.8333,94.6667 26.5,94C 21.799,93.3782 17.4657,91.8782 13.5,89.5C 14.53,86.8079 16.53,85.3079 19.5,85C 24.7797,83.9054 30.113,83.4054 35.5,83.5C 37.256,82.4479 37.9227,80.7812 37.5,78.5C 37.5,78.1667 37.5,77.8333 37.5,77.5C 38.4511,76.0813 38.7845,74.4147 38.5,72.5 Z"/></g>
<g><path style="opacity:1" fill="#cc9f2a" d="M 13.5,89.5 C 17.4657,91.8782 21.799,93.3782 26.5,94C 34.8333,94.6667 43.1667,94.6667 51.5,94C 55.4302,93.7585 59.0968,92.9251 62.5,91.5C 64.5138,91.6085 66.1805,90.9418 67.5,89.5C 67.8333,89.5 68.1667,89.5 68.5,89.5C 68.5,90.1667 68.5,90.8333 68.5,91.5C 65.0884,93.359 61.4217,94.5256 57.5,95C 46.1578,96.8834 34.8245,96.8834 23.5,95C 19.8455,94.669 16.5121,93.5024 13.5,91.5C 13.5,90.8333 13.5,90.1667 13.5,89.5 Z"/></g>
<g><path style="opacity:0.966" fill="#531607" d="M 13.5,91.5 C 16.5121,93.5024 19.8455,94.669 23.5,95C 34.8245,96.8834 46.1578,96.8834 57.5,95C 61.4217,94.5256 65.0884,93.359 68.5,91.5C 68.8957,94.0444 68.229,96.2111 66.5,98C 49.823,102.666 33.1564,102.666 16.5,98C 13.8554,96.7135 12.8554,94.5468 13.5,91.5 Z"/></g>
</svg>
