<?xml version="1.0" encoding="UTF-8"?>
<!DOCTYPE svg PUBLIC "-//W3C//DTD SVG 1.1//EN" "http://www.w3.org/Graphics/SVG/1.1/DTD/svg11.dtd">
<svg xmlns="http://www.w3.org/2000/svg" version="1.1" width="300px" height="300px" style="shape-rendering:geometricPrecision; text-rendering:geometricPrecision; image-rendering:optimizeQuality; fill-rule:evenodd; clip-rule:evenodd" xmlns:xlink="http://www.w3.org/1999/xlink">
<g><path style="opacity:0.851" fill="#77430f" d="M 158.5,48.5 C 151.102,45.1344 144.435,46.1344 138.5,51.5C 139.42,47.929 141.753,45.7624 145.5,45C 150.714,43.6686 155.047,44.8353 158.5,48.5 Z"/></g>
<g><path style="opacity:1" fill="#582f1f" d="M 158.5,48.5 C 170.805,64.4222 182.138,81.0889 192.5,98.5C 192.757,102.747 194.424,106.247 197.5,109C 196.632,111.235 195.632,113.402 194.5,115.5C 193.818,114.757 193.151,114.091 192.5,113.5C 190.833,111.5 189.167,109.5 187.5,107.5C 187.167,106.5 186.5,105.833 185.5,105.5C 182.551,100.223 179.218,95.2229 175.5,90.5C 175.649,89.448 175.483,88.448 175,87.5C 172.908,85.5253 171.075,83.5253 169.5,81.5C 165.245,73.0304 159.912,65.3637 153.5,58.5C 153.5,57.5 153.5,56.5 153.5,55.5C 150.615,55.1936 147.948,55.5269 145.5,56.5C 139.928,64.6355 134.594,72.9688 129.5,81.5C 127.913,84.4277 125.913,87.0944 123.5,89.5C 123.297,87.6096 123.963,86.1096 125.5,85C 120.547,80.0655 117.88,81.2322 117.5,88.5C 116.448,88.3505 115.448,88.5172 114.5,89C 112.636,92.9271 109.969,96.0938 106.5,98.5C 116.462,82.2312 127.129,66.5646 138.5,51.5C 144.435,46.1344 151.102,45.1344 158.5,48.5 Z"/></g>
<g><path style="opacity:1" fill="#f7f6f3" d="M 145.5,56.5 C 147.189,58.8828 148.022,61.5495 148,64.5C 146.65,68.5365 144.317,71.8699 141,74.5C 140.667,75.8333 140.333,77.1667 140,78.5C 138.482,79.1634 137.315,80.1634 136.5,81.5C 134.167,81.5 131.833,81.5 129.5,81.5C 134.594,72.9688 139.928,64.6355 145.5,56.5 Z"/></g>
<g><path style="opacity:1" fill="#f3b96a" d="M 153.5,58.5 C 159.912,65.3637 165.245,73.0304 169.5,81.5C 167.167,81.5 164.833,81.5 162.5,81.5C 161.5,81.5 160.5,81.5 159.5,81.5C 159.476,77.1157 157.643,73.7823 154,71.5C 153.432,68.0959 151.932,65.2625 149.5,63C 150.315,61.0198 151.648,59.5198 153.5,58.5 Z"/></g>
<g><path style="opacity:1" fill="#fbeab9" d="M 145.5,56.5 C 147.948,55.5269 150.615,55.1936 153.5,55.5C 153.5,56.5 153.5,57.5 153.5,58.5C 151.648,59.5198 150.315,61.0198 149.5,63C 151.932,65.2625 153.432,68.0959 154,71.5C 157.643,73.7823 159.476,77.1157 159.5,81.5C 151.833,81.5 144.167,81.5 136.5,81.5C 137.315,80.1634 138.482,79.1634 140,78.5C 140.333,77.1667 140.667,75.8333 141,74.5C 144.317,71.8699 146.65,68.5365 148,64.5C 148.022,61.5495 147.189,58.8828 145.5,56.5 Z"/></g>
<g><path style="opacity:1" fill="#f46414" d="M 162.5,81.5 C 164.833,81.5 167.167,81.5 169.5,81.5C 171.075,83.5253 172.908,85.5253 175,87.5C 175.483,88.448 175.649,89.448 175.5,90.5C 172.5,90.5 169.5,90.5 166.5,90.5C 164.698,87.7012 163.365,84.7012 162.5,81.5 Z"/></g>
<g><path style="opacity:1" fill="#f78d17" d="M 136.5,81.5 C 144.167,81.5 151.833,81.5 159.5,81.5C 160.5,81.5 161.5,81.5 162.5,81.5C 163.365,84.7012 164.698,87.7012 166.5,90.5C 154.829,90.6665 143.162,90.4999 131.5,90C 132.99,87.0223 134.657,84.1889 136.5,81.5 Z"/></g>
<g><path style="opacity:1" fill="#f5b364" d="M 129.5,81.5 C 131.833,81.5 134.167,81.5 136.5,81.5C 134.657,84.1889 132.99,87.0223 131.5,90C 143.162,90.4999 154.829,90.6665 166.5,90.5C 169.5,90.5 172.5,90.5 175.5,90.5C 179.218,95.2229 182.551,100.223 185.5,105.5C 163.513,106.241 141.513,106.741 119.5,107C 115.864,109.039 114.198,112.206 114.5,116.5C 113.833,116.5 113.167,116.5 112.5,116.5C 110.5,116.5 108.5,116.5 106.5,116.5C 107.989,113.522 109.489,110.522 111,107.5C 111.708,106.619 112.542,105.953 113.5,105.5C 116.167,105.5 118.833,105.5 121.5,105.5C 139.5,105.5 157.5,105.5 175.5,105.5C 174.861,100.249 172.528,95.9153 168.5,92.5C 153.498,91.7106 138.498,91.0439 123.5,90.5C 123.5,90.1667 123.5,89.8333 123.5,89.5C 125.913,87.0944 127.913,84.4277 129.5,81.5 Z"/></g>
<g><path style="opacity:1" fill="#f6f7f5" d="M 122.5,91.5 C 124.527,91.3379 126.527,91.5045 128.5,92C 127.594,93.6995 127.261,95.5328 127.5,97.5C 126.325,97.281 125.325,97.6143 124.5,98.5C 124.04,101.156 123.04,103.49 121.5,105.5C 118.833,105.5 116.167,105.5 113.5,105.5C 116.531,100.813 119.531,96.1461 122.5,91.5 Z"/></g>
<g><path style="opacity:1" fill="#fde3a8" d="M 122.5,91.5 C 122.5,90.8333 122.833,90.5 123.5,90.5C 138.498,91.0439 153.498,91.7106 168.5,92.5C 172.528,95.9153 174.861,100.249 175.5,105.5C 157.5,105.5 139.5,105.5 121.5,105.5C 123.04,103.49 124.04,101.156 124.5,98.5C 125.325,97.6143 126.325,97.281 127.5,97.5C 127.261,95.5328 127.594,93.6995 128.5,92C 126.527,91.5045 124.527,91.3379 122.5,91.5 Z"/></g>
<g><path style="opacity:1" fill="#552f20" d="M 123.5,89.5 C 123.5,89.8333 123.5,90.1667 123.5,90.5C 122.833,90.5 122.5,90.8333 122.5,91.5C 119.531,96.1461 116.531,100.813 113.5,105.5C 112.542,105.953 111.708,106.619 111,107.5C 109.489,110.522 107.989,113.522 106.5,116.5C 102.688,120.777 99.3548,125.443 96.5,130.5C 93.6191,133.793 91.2858,137.46 89.5,141.5C 88.8333,141.5 88.5,141.833 88.5,142.5C 85.266,146.622 82.266,150.955 79.5,155.5C 76.6191,158.793 74.2858,162.46 72.5,166.5C 71.8333,166.5 71.5,166.833 71.5,167.5C 68.6193,171.065 65.7859,174.731 63,178.5C 62.5172,179.448 62.3505,180.448 62.5,181.5C 59.7751,183.99 57.7751,186.99 56.5,190.5C 54.0252,192.77 52.0252,195.437 50.5,198.5C 50.1667,198.5 49.8333,198.5 49.5,198.5C 49.38,197.414 48.7133,196.747 47.5,196.5C 44.2788,197.05 41.2788,198.05 38.5,199.5C 39.1667,198.5 39.8333,197.5 40.5,196.5C 43.5431,194.107 46.3764,191.441 49,188.5C 49.4828,187.552 49.6495,186.552 49.5,185.5C 50.8333,185.5 52.1667,185.5 53.5,185.5C 53.5,182.833 53.5,180.167 53.5,177.5C 54.4333,174.63 56.1,172.296 58.5,170.5C 59.675,170.719 60.675,170.386 61.5,169.5C 63.6546,163.857 66.8213,158.857 71,154.5C 71.4828,153.552 71.6495,152.552 71.5,151.5C 72.7734,148.391 74.2734,145.391 76,142.5C 82.8553,132.767 89.6887,123.1 96.5,113.5C 97.8333,113.5 99.1667,113.5 100.5,113.5C 100.725,109.246 102.391,105.58 105.5,102.5C 106.429,101.311 106.762,99.9778 106.5,98.5C 109.969,96.0938 112.636,92.9271 114.5,89C 115.448,88.5172 116.448,88.3505 117.5,88.5C 117.88,81.2322 120.547,80.0655 125.5,85C 123.963,86.1096 123.297,87.6096 123.5,89.5 Z"/></g>
<g><path style="opacity:1" fill="#f48c19" d="M 185.5,105.5 C 186.5,105.833 187.167,106.5 187.5,107.5C 184.904,106.735 182.237,106.401 179.5,106.5C 179.34,108.199 179.506,109.866 180,111.5C 181.707,113.037 183.207,114.704 184.5,116.5C 161.167,116.5 137.833,116.5 114.5,116.5C 114.198,112.206 115.864,109.039 119.5,107C 141.513,106.741 163.513,106.241 185.5,105.5 Z"/></g>
<g><path style="opacity:1" fill="#f46312" d="M 187.5,107.5 C 189.167,109.5 190.833,111.5 192.5,113.5C 192.5,114.5 192.5,115.5 192.5,116.5C 189.833,116.5 187.167,116.5 184.5,116.5C 183.207,114.704 181.707,113.037 180,111.5C 179.506,109.866 179.34,108.199 179.5,106.5C 182.237,106.401 184.904,106.735 187.5,107.5 Z"/></g>
<g><path style="opacity:1" fill="#703d11" d="M 106.5,98.5 C 106.762,99.9778 106.429,101.311 105.5,102.5C 102.391,105.58 100.725,109.246 100.5,113.5C 99.1667,113.5 97.8333,113.5 96.5,113.5C 99.4708,108.246 102.804,103.246 106.5,98.5 Z"/></g>
<g><path style="opacity:1" fill="#fbe3ab" d="M 112.5,116.5 C 113.167,116.5 113.833,116.5 114.5,116.5C 135.327,117.497 156.327,117.831 177.5,117.5C 177.5,118.5 177.5,119.5 177.5,120.5C 175.396,120.201 173.396,120.534 171.5,121.5C 171.667,121.833 171.833,122.167 172,122.5C 176.413,121.368 180.913,121.201 185.5,122C 187.037,123.11 187.703,124.61 187.5,126.5C 186.022,126.238 184.689,126.571 183.5,127.5C 183.709,128.086 184.043,128.586 184.5,129C 158.502,129.5 132.502,129.667 106.5,129.5C 106.3,126.196 107.634,123.696 110.5,122C 111.856,120.433 112.523,118.6 112.5,116.5 Z"/></g>
<g><path style="opacity:1" fill="#f8f5ed" d="M 106.5,116.5 C 108.5,116.5 110.5,116.5 112.5,116.5C 112.523,118.6 111.856,120.433 110.5,122C 107.634,123.696 106.3,126.196 106.5,129.5C 106.5,129.833 106.5,130.167 106.5,130.5C 104.784,130.629 103.117,130.962 101.5,131.5C 99.5853,131.784 97.9187,131.451 96.5,130.5C 99.3548,125.443 102.688,120.777 106.5,116.5 Z"/></g>
<g><path style="opacity:1" fill="#5a2d1c" d="M 192.5,98.5 C 215.692,131.574 238.358,164.907 260.5,198.5C 259.469,199.249 258.302,199.915 257,200.5C 256.821,196.954 255.487,193.954 253,191.5C 252.29,192.973 251.124,193.64 249.5,193.5C 249.5,195.167 249.5,196.833 249.5,198.5C 248.833,198.167 248.167,197.833 247.5,197.5C 246.603,194.787 245.27,192.454 243.5,190.5C 241.695,187.067 239.362,184.067 236.5,181.5C 236.5,181.167 236.5,180.833 236.5,180.5C 233.664,175.745 230.664,171.078 227.5,166.5C 224.835,162.867 222.169,159.2 219.5,155.5C 216.511,150.862 213.511,146.195 210.5,141.5C 208.795,138.958 207.295,136.292 206,133.5C 205.184,132.177 204.017,131.511 202.5,131.5C 202.5,131.167 202.5,130.833 202.5,130.5C 199.623,125.376 196.29,120.71 192.5,116.5C 192.5,115.5 192.5,114.5 192.5,113.5C 193.151,114.091 193.818,114.757 194.5,115.5C 195.632,113.402 196.632,111.235 197.5,109C 194.424,106.247 192.757,102.747 192.5,98.5 Z"/></g>
<g><path style="opacity:1" fill="#fde09b" d="M 114.5,116.5 C 137.833,116.5 161.167,116.5 184.5,116.5C 186.488,119.651 188.655,122.651 191,125.5C 192.009,127.025 192.509,128.692 192.5,130.5C 163.833,130.5 135.167,130.5 106.5,130.5C 106.5,130.167 106.5,129.833 106.5,129.5C 132.502,129.667 158.502,129.5 184.5,129C 184.043,128.586 183.709,128.086 183.5,127.5C 184.689,126.571 186.022,126.238 187.5,126.5C 187.703,124.61 187.037,123.11 185.5,122C 180.913,121.201 176.413,121.368 172,122.5C 171.833,122.167 171.667,121.833 171.5,121.5C 173.396,120.534 175.396,120.201 177.5,120.5C 177.5,119.5 177.5,118.5 177.5,117.5C 156.327,117.831 135.327,117.497 114.5,116.5 Z"/></g>
<g><path style="opacity:1" fill="#f4b764" d="M 184.5,116.5 C 187.167,116.5 189.833,116.5 192.5,116.5C 196.29,120.71 199.623,125.376 202.5,130.5C 199.167,130.5 195.833,130.5 192.5,130.5C 192.509,128.692 192.009,127.025 191,125.5C 188.655,122.651 186.488,119.651 184.5,116.5 Z"/></g>
<g><path style="opacity:1" fill="#fb8a15" d="M 192.5,130.5 C 195.833,130.5 199.167,130.5 202.5,130.5C 202.5,130.833 202.5,131.167 202.5,131.5C 199.813,131.336 197.146,131.503 194.5,132C 196.87,133.941 198.203,136.441 198.5,139.5C 166.16,139.833 133.826,139.5 101.5,138.5C 102.729,137.719 104.062,137.219 105.5,137C 104.663,135.989 104.33,134.822 104.5,133.5C 134.177,133.274 163.51,132.274 192.5,130.5 Z"/></g>
<g><path style="opacity:1" fill="#f25f15" d="M 202.5,131.5 C 204.017,131.511 205.184,132.177 206,133.5C 207.295,136.292 208.795,138.958 210.5,141.5C 207.5,141.5 204.5,141.5 201.5,141.5C 200.833,141.5 200.167,141.5 199.5,141.5C 199.672,140.508 199.338,139.842 198.5,139.5C 198.203,136.441 196.87,133.941 194.5,132C 197.146,131.503 199.813,131.336 202.5,131.5 Z"/></g>
<g><path style="opacity:1" fill="#f1af6b" d="M 96.5,130.5 C 97.9187,131.451 99.5853,131.784 101.5,131.5C 100.521,135.088 99.1879,138.421 97.5,141.5C 94.8333,141.5 92.1667,141.5 89.5,141.5C 91.2858,137.46 93.6191,133.793 96.5,130.5 Z"/></g>
<g><path style="opacity:1" fill="#f0962f" d="M 106.5,130.5 C 135.167,130.5 163.833,130.5 192.5,130.5C 163.51,132.274 134.177,133.274 104.5,133.5C 104.33,134.822 104.663,135.989 105.5,137C 104.062,137.219 102.729,137.719 101.5,138.5C 133.826,139.5 166.16,139.833 198.5,139.5C 199.338,139.842 199.672,140.508 199.5,141.5C 165.5,141.5 131.5,141.5 97.5,141.5C 99.1879,138.421 100.521,135.088 101.5,131.5C 103.117,130.962 104.784,130.629 106.5,130.5 Z"/></g>
<g><path style="opacity:1" fill="#fce1a3" d="M 88.5,142.5 C 88.5,141.833 88.8333,141.5 89.5,141.5C 92.1667,141.5 94.8333,141.5 97.5,141.5C 131.5,141.5 165.5,141.5 199.5,141.5C 200.167,141.5 200.833,141.5 201.5,141.5C 204.488,146.134 207.488,150.8 210.5,155.5C 210.5,155.833 210.5,156.167 210.5,156.5C 169.167,156.5 127.833,156.5 86.5,156.5C 89.9625,152.694 92.6292,148.361 94.5,143.5C 92.604,142.534 90.604,142.201 88.5,142.5 Z"/></g>
<g><path style="opacity:1" fill="#f6f5f1" d="M 88.5,142.5 C 90.604,142.201 92.604,142.534 94.5,143.5C 92.6292,148.361 89.9625,152.694 86.5,156.5C 83.9407,156.802 81.6074,156.468 79.5,155.5C 82.266,150.955 85.266,146.622 88.5,142.5 Z"/></g>
<g><path style="opacity:1" fill="#f4b563" d="M 201.5,141.5 C 204.5,141.5 207.5,141.5 210.5,141.5C 213.511,146.195 216.511,150.862 219.5,155.5C 216.5,155.5 213.5,155.5 210.5,155.5C 207.488,150.8 204.488,146.134 201.5,141.5 Z"/></g>
<g><path style="opacity:1" fill="#e5922b" d="M 86.5,156.5 C 127.833,156.5 169.167,156.5 210.5,156.5C 170.002,157.333 129.335,157.833 88.5,158C 87.255,158.791 85.9217,159.291 84.5,159.5C 84.7822,158.222 85.4489,157.222 86.5,156.5 Z"/></g>
<g><path style="opacity:1" fill="#f16016" d="M 219.5,155.5 C 222.169,159.2 224.835,162.867 227.5,166.5C 224.167,166.5 220.833,166.5 217.5,166.5C 216.011,164.355 215.011,162.022 214.5,159.5C 213.5,159.5 212.5,159.5 211.5,159.5C 211.5,158.5 211.5,157.5 211.5,156.5C 214.385,156.806 217.052,156.473 219.5,155.5 Z"/></g>
<g><path style="opacity:1" fill="#f78a19" d="M 210.5,155.5 C 213.5,155.5 216.5,155.5 219.5,155.5C 217.052,156.473 214.385,156.806 211.5,156.5C 211.5,157.5 211.5,158.5 211.5,159.5C 212.5,159.5 213.5,159.5 214.5,159.5C 215.011,162.022 216.011,164.355 217.5,166.5C 171.5,166.5 125.5,166.5 79.5,166.5C 80.7859,163.883 82.4525,161.55 84.5,159.5C 85.9217,159.291 87.255,158.791 88.5,158C 129.335,157.833 170.002,157.333 210.5,156.5C 210.5,156.167 210.5,155.833 210.5,155.5 Z"/></g>
<g><path style="opacity:1" fill="#f2ac67" d="M 79.5,155.5 C 81.6074,156.468 83.9407,156.802 86.5,156.5C 85.4489,157.222 84.7822,158.222 84.5,159.5C 82.4525,161.55 80.7859,163.883 79.5,166.5C 77.1667,166.5 74.8333,166.5 72.5,166.5C 74.2858,162.46 76.6191,158.793 79.5,155.5 Z"/></g>
<g><path style="opacity:1" fill="#6f300e" d="M 71.5,151.5 C 71.6495,152.552 71.4828,153.552 71,154.5C 66.8213,158.857 63.6546,163.857 61.5,169.5C 60.675,170.386 59.675,170.719 58.5,170.5C 61.6472,163.353 65.9805,157.02 71.5,151.5 Z"/></g>
<g><path style="opacity:1" fill="#fce4aa" d="M 71.5,167.5 C 71.5,166.833 71.8333,166.5 72.5,166.5C 74.8333,166.5 77.1667,166.5 79.5,166.5C 125.997,167.499 172.664,167.832 219.5,167.5C 219.197,170.588 220.53,172.254 223.5,172.5C 223.433,173.959 223.766,175.292 224.5,176.5C 224.5,177.5 224.5,178.5 224.5,179.5C 173.5,179.5 122.5,179.5 71.5,179.5C 74.0328,175.768 76.0328,171.768 77.5,167.5C 75.5,167.5 73.5,167.5 71.5,167.5 Z"/></g>
<g><path style="opacity:1" fill="#f4b55f" d="M 79.5,166.5 C 125.5,166.5 171.5,166.5 217.5,166.5C 220.833,166.5 224.167,166.5 227.5,166.5C 230.664,171.078 233.664,175.745 236.5,180.5C 181.178,181.462 125.845,181.795 70.5,181.5C 70.5,180.833 70.8333,180.5 71.5,180.5C 123.167,180.5 174.833,180.5 226.5,180.5C 226.771,178.62 226.104,177.287 224.5,176.5C 223.766,175.292 223.433,173.959 223.5,172.5C 220.53,172.254 219.197,170.588 219.5,167.5C 172.664,167.832 125.997,167.499 79.5,166.5 Z"/></g>
<g><path style="opacity:1" fill="#f8f6ee" d="M 71.5,167.5 C 73.5,167.5 75.5,167.5 77.5,167.5C 76.0328,171.768 74.0328,175.768 71.5,179.5C 71.5,179.833 71.5,180.167 71.5,180.5C 70.8333,180.5 70.5,180.833 70.5,181.5C 70.1667,181.5 69.8333,181.5 69.5,181.5C 67.1667,181.5 64.8333,181.5 62.5,181.5C 62.3505,180.448 62.5172,179.448 63,178.5C 65.7859,174.731 68.6193,171.065 71.5,167.5 Z"/></g>
<g><path style="opacity:1" fill="#feda8d" d="M 224.5,176.5 C 226.104,177.287 226.771,178.62 226.5,180.5C 174.833,180.5 123.167,180.5 71.5,180.5C 71.5,180.167 71.5,179.833 71.5,179.5C 122.5,179.5 173.5,179.5 224.5,179.5C 224.5,178.5 224.5,177.5 224.5,176.5 Z"/></g>
<g><path style="opacity:1" fill="#fc8d14" d="M 236.5,180.5 C 236.5,180.833 236.5,181.167 236.5,181.5C 233.753,181.187 231.086,181.52 228.5,182.5C 229.833,184.833 231.167,187.167 232.5,189.5C 176.171,190.5 119.837,190.833 63.5,190.5C 65.2519,187.328 67.2519,184.328 69.5,181.5C 69.8333,181.5 70.1667,181.5 70.5,181.5C 125.845,181.795 181.178,181.462 236.5,180.5 Z"/></g>
<g><path style="opacity:1" fill="#742d16" d="M 53.5,177.5 C 53.5,180.167 53.5,182.833 53.5,185.5C 52.1667,185.5 50.8333,185.5 49.5,185.5C 49.6495,186.552 49.4828,187.552 49,188.5C 46.3764,191.441 43.5431,194.107 40.5,196.5C 44.0949,189.638 48.4282,183.304 53.5,177.5 Z"/></g>
<g><path style="opacity:1" fill="#f8ba6b" d="M 62.5,181.5 C 64.8333,181.5 67.1667,181.5 69.5,181.5C 67.2519,184.328 65.2519,187.328 63.5,190.5C 63.1667,190.5 62.8333,190.5 62.5,190.5C 60.5,190.5 58.5,190.5 56.5,190.5C 57.7751,186.99 59.7751,183.99 62.5,181.5 Z"/></g>
<g><path style="opacity:1" fill="#f9610e" d="M 236.5,181.5 C 239.362,184.067 241.695,187.067 243.5,190.5C 240.5,190.5 237.5,190.5 234.5,190.5C 235.167,192.833 235.833,195.167 236.5,197.5C 232.774,197.823 229.107,197.489 225.5,196.5C 225.291,195.914 224.957,195.414 224.5,195C 221.774,194.818 219.107,194.318 216.5,193.5C 221.251,192.119 225.917,192.286 230.5,194C 226.386,195.774 226.553,196.607 231,196.5C 232.167,196.167 233.333,195.833 234.5,195.5C 233.147,194.476 232.48,193.143 232.5,191.5C 213.64,192.421 194.807,192.421 176,191.5C 170.505,192.1 165.005,192.767 159.5,193.5C 171.559,193.663 183.892,194.163 196.5,195C 196.833,195.333 197.167,195.667 197.5,196C 191.251,196.809 185.084,196.642 179,195.5C 177.601,196.227 176.101,196.727 174.5,197C 175.252,197.671 175.586,198.504 175.5,199.5C 136.5,199.5 97.5,199.5 58.5,199.5C 58.0618,199.565 57.7284,199.399 57.5,199C 59.0637,196.029 60.7304,193.196 62.5,190.5C 62.8333,190.5 63.1667,190.5 63.5,190.5C 119.837,190.833 176.171,190.5 232.5,189.5C 231.167,187.167 229.833,184.833 228.5,182.5C 231.086,181.52 233.753,181.187 236.5,181.5 Z"/></g>
<g><path style="opacity:1" fill="#fa550c" d="M 243.5,190.5 C 245.27,192.454 246.603,194.787 247.5,197.5C 223.857,199.49 199.857,200.157 175.5,199.5C 175.586,198.504 175.252,197.671 174.5,197C 176.101,196.727 177.601,196.227 179,195.5C 185.084,196.642 191.251,196.809 197.5,196C 197.167,195.667 196.833,195.333 196.5,195C 183.892,194.163 171.559,193.663 159.5,193.5C 165.005,192.767 170.505,192.1 176,191.5C 194.807,192.421 213.64,192.421 232.5,191.5C 232.48,193.143 233.147,194.476 234.5,195.5C 233.333,195.833 232.167,196.167 231,196.5C 226.553,196.607 226.386,195.774 230.5,194C 225.917,192.286 221.251,192.119 216.5,193.5C 219.107,194.318 221.774,194.818 224.5,195C 224.957,195.414 225.291,195.914 225.5,196.5C 229.107,197.489 232.774,197.823 236.5,197.5C 235.833,195.167 235.167,192.833 234.5,190.5C 237.5,190.5 240.5,190.5 243.5,190.5 Z"/></g>
<g><path style="opacity:1" fill="#e67123" d="M 247.5,197.5 C 248.167,197.833 248.833,198.167 249.5,198.5C 249.5,199.5 249.5,200.5 249.5,201.5C 224.833,201.5 200.167,201.5 175.5,201.5C 174.167,201.5 172.833,201.5 171.5,201.5C 133.833,200.833 96.1667,200.167 58.5,199.5C 97.5,199.5 136.5,199.5 175.5,199.5C 199.857,200.157 223.857,199.49 247.5,197.5 Z"/></g>
<g><path style="opacity:1" fill="#f8a55b" d="M 56.5,190.5 C 58.5,190.5 60.5,190.5 62.5,190.5C 60.7304,193.196 59.0637,196.029 57.5,199C 57.7284,199.399 58.0618,199.565 58.5,199.5C 96.1667,200.167 133.833,200.833 171.5,201.5C 132.832,201.667 94.1652,201.5 55.5,201C 53.3474,200.901 51.6808,200.067 50.5,198.5C 52.0252,195.437 54.0252,192.77 56.5,190.5 Z"/></g>
<g><path style="opacity:1" fill="#fbecc1" d="M 175.5,202.5 C 176.688,203.364 177.855,204.364 179,205.5C 179.499,209.152 179.665,212.818 179.5,216.5C 179.167,216.5 178.833,216.5 178.5,216.5C 173.833,216.5 169.167,216.5 164.5,216.5C 163.122,213.58 161.455,210.746 159.5,208C 151.077,203.821 143.577,204.988 137,211.5C 136.392,213.154 135.892,214.821 135.5,216.5C 135.167,216.5 134.833,216.5 134.5,216.5C 130.167,216.5 125.833,216.5 121.5,216.5C 121.167,216.5 120.833,216.5 120.5,216.5C 119.461,211.151 120.795,206.651 124.5,203C 140.435,202.101 156.269,202.601 172,204.5C 172.71,203.027 173.876,202.36 175.5,202.5 Z"/></g>
<g><path style="opacity:1" fill="#fce2a5" d="M 49.5,198.5 C 49.8333,198.5 50.1667,198.5 50.5,198.5C 51.6808,200.067 53.3474,200.901 55.5,201C 94.1652,201.5 132.832,201.667 171.5,201.5C 172.833,201.5 174.167,201.5 175.5,201.5C 175.5,201.833 175.5,202.167 175.5,202.5C 173.876,202.36 172.71,203.027 172,204.5C 156.269,202.601 140.435,202.101 124.5,203C 120.795,206.651 119.461,211.151 120.5,216.5C 95.5,216.5 70.5,216.5 45.5,216.5C 47.4966,213.233 49.9966,210.233 53,207.5C 53.346,205.782 53.846,204.115 54.5,202.5C 52.604,201.534 50.604,201.201 48.5,201.5C 49.1098,200.609 49.4431,199.609 49.5,198.5 Z"/></g>
<g><path style="opacity:1" fill="#f8ba67" d="M 175.5,201.5 C 200.167,201.5 224.833,201.5 249.5,201.5C 253.895,205.954 257.562,210.954 260.5,216.5C 257.5,216.5 254.5,216.5 251.5,216.5C 227.5,216.5 203.5,216.5 179.5,216.5C 179.665,212.818 179.499,209.152 179,205.5C 177.855,204.364 176.688,203.364 175.5,202.5C 175.5,202.167 175.5,201.833 175.5,201.5 Z"/></g>
<g><path style="opacity:1" fill="#f9f6f2" d="M 48.5,201.5 C 50.604,201.201 52.604,201.534 54.5,202.5C 53.846,204.115 53.346,205.782 53,207.5C 49.9966,210.233 47.4966,213.233 45.5,216.5C 43.5,216.5 41.5,216.5 39.5,216.5C 41.734,211.03 44.734,206.03 48.5,201.5 Z"/></g>
<g><path style="opacity:1" fill="#542f21" d="M 164.5,216.5 C 164.5,221.5 164.5,226.5 164.5,231.5C 164.5,235.833 164.5,240.167 164.5,244.5C 168.167,244.5 171.833,244.5 175.5,244.5C 175.842,245.338 176.508,245.672 177.5,245.5C 179.607,246.468 181.941,246.802 184.5,246.5C 183.448,248.256 181.781,248.923 179.5,248.5C 172.954,248.15 166.788,246.484 161,243.5C 156.311,246.871 151.144,247.871 145.5,246.5C 145.67,245.178 145.337,244.011 144.5,243C 141.939,243.401 139.272,243.235 136.5,242.5C 136.67,243.822 136.337,244.989 135.5,246C 131.179,246.499 126.846,246.666 122.5,246.5C 122.5,246.167 122.5,245.833 122.5,245.5C 123.167,245.5 123.5,245.167 123.5,244.5C 127.5,244.5 131.5,244.5 135.5,244.5C 135.5,235.167 135.5,225.833 135.5,216.5C 135.892,214.821 136.392,213.154 137,211.5C 143.577,204.988 151.077,203.821 159.5,208C 161.455,210.746 163.122,213.58 164.5,216.5 Z"/></g>
<g><path style="opacity:1" fill="#fc7210" d="M 178.5,216.5 C 178.833,216.5 179.167,216.5 179.5,216.5C 203.5,216.5 227.5,216.5 251.5,216.5C 253.762,218.685 255.262,221.352 256,224.5C 257.947,226.236 259.781,228.07 261.5,230C 261.167,230.333 260.833,230.667 260.5,231C 233.502,231.5 206.502,231.667 179.5,231.5C 179.167,231.5 178.833,231.5 178.5,231.5C 178.5,226.5 178.5,221.5 178.5,216.5 Z"/></g>
<g><path style="opacity:1" fill="#fbdc95" d="M 164.5,216.5 C 169.167,216.5 173.833,216.5 178.5,216.5C 178.5,221.5 178.5,226.5 178.5,231.5C 173.833,231.5 169.167,231.5 164.5,231.5C 164.5,226.5 164.5,221.5 164.5,216.5 Z"/></g>
<g><path style="opacity:1" fill="#fb8f14" d="M 45.5,216.5 C 70.5,216.5 95.5,216.5 120.5,216.5C 120.5,221.5 120.5,226.5 120.5,231.5C 92.5,231.5 64.5,231.5 36.5,231.5C 38.7034,225.976 41.7034,220.976 45.5,216.5 Z"/></g>
<g><path style="opacity:1" fill="#f8b767" d="M 39.5,216.5 C 41.5,216.5 43.5,216.5 45.5,216.5C 41.7034,220.976 38.7034,225.976 36.5,231.5C 33.6146,231.806 30.9479,231.473 28.5,230.5C 32.1974,225.725 35.864,221.059 39.5,216.5 Z"/></g>
<g><path style="opacity:1" fill="#f35a11" d="M 251.5,216.5 C 254.5,216.5 257.5,216.5 260.5,216.5C 264.035,220.516 267.369,224.849 270.5,229.5C 271.429,230.689 271.762,232.022 271.5,233.5C 270.121,232.391 268.455,231.724 266.5,231.5C 237.515,232.468 208.515,232.801 179.5,232.5C 179.5,232.167 179.5,231.833 179.5,231.5C 206.502,231.667 233.502,231.5 260.5,231C 260.833,230.667 261.167,230.333 261.5,230C 259.781,228.07 257.947,226.236 256,224.5C 255.262,221.352 253.762,218.685 251.5,216.5 Z"/></g>
<g><path style="opacity:1" fill="#fb400c" d="M 271.5,233.5 C 273.175,235.839 274.842,238.173 276.5,240.5C 276.414,241.496 276.748,242.329 277.5,243C 244.835,243.5 212.168,243.667 179.5,243.5C 179.5,239.833 179.5,236.167 179.5,232.5C 208.515,232.801 237.515,232.468 266.5,231.5C 268.455,231.724 270.121,232.391 271.5,233.5 Z"/></g>
<g><path style="opacity:1" fill="#fb580f" d="M 36.5,231.5 C 64.5,231.5 92.5,231.5 120.5,231.5C 120.323,235.234 120.656,238.901 121.5,242.5C 90.3378,243.498 59.0044,243.832 27.5,243.5C 29.8805,240.44 31.8805,237.106 33.5,233.5C 34.7387,233.058 35.7387,232.391 36.5,231.5 Z"/></g>
<g><path style="opacity:1" fill="#f1b966" d="M 120.5,216.5 C 120.833,216.5 121.167,216.5 121.5,216.5C 121.5,221.5 121.5,226.5 121.5,231.5C 125.833,231.5 130.167,231.5 134.5,231.5C 134.5,226.5 134.5,221.5 134.5,216.5C 134.833,216.5 135.167,216.5 135.5,216.5C 135.5,225.833 135.5,235.167 135.5,244.5C 131.5,244.5 127.5,244.5 123.5,244.5C 123.167,243.5 122.5,242.833 121.5,242.5C 120.656,238.901 120.323,235.234 120.5,231.5C 120.5,226.5 120.5,221.5 120.5,216.5 Z"/></g>
<g><path style="opacity:1" fill="#fbdd99" d="M 121.5,216.5 C 125.833,216.5 130.167,216.5 134.5,216.5C 134.5,221.5 134.5,226.5 134.5,231.5C 130.167,231.5 125.833,231.5 121.5,231.5C 121.5,226.5 121.5,221.5 121.5,216.5 Z"/></g>
<g><path style="opacity:1" fill="#f9bf63" d="M 164.5,231.5 C 169.167,231.5 173.833,231.5 178.5,231.5C 178.665,235.182 178.499,238.848 178,242.5C 177.005,243.066 176.172,243.733 175.5,244.5C 171.833,244.5 168.167,244.5 164.5,244.5C 164.5,240.167 164.5,235.833 164.5,231.5 Z"/></g>
<g><path style="opacity:1" fill="#f1873a" d="M 28.5,230.5 C 30.9479,231.473 33.6146,231.806 36.5,231.5C 35.7387,232.391 34.7387,233.058 33.5,233.5C 31.8805,237.106 29.8805,240.44 27.5,243.5C 25.7354,244.461 23.7354,244.795 21.5,244.5C 20.8333,244.5 20.1667,244.5 19.5,244.5C 22.9985,240.087 25.9985,235.421 28.5,230.5 Z"/></g>
<g><path style="opacity:1" fill="#c03e19" d="M 178.5,231.5 C 178.833,231.5 179.167,231.5 179.5,231.5C 179.5,231.833 179.5,232.167 179.5,232.5C 179.5,236.167 179.5,239.833 179.5,243.5C 212.168,243.667 244.835,243.5 277.5,243C 276.748,242.329 276.414,241.496 276.5,240.5C 278.262,241.262 279.262,242.596 279.5,244.5C 245.543,245.486 211.543,245.82 177.5,245.5C 176.508,245.672 175.842,245.338 175.5,244.5C 176.172,243.733 177.005,243.066 178,242.5C 178.499,238.848 178.665,235.182 178.5,231.5 Z"/></g>
<g><path style="opacity:1" fill="#682618" d="M 279.5,244.5 C 248.184,246.493 216.518,247.159 184.5,246.5C 181.941,246.802 179.607,246.468 177.5,245.5C 211.543,245.82 245.543,245.486 279.5,244.5 Z"/></g>
<g><path style="opacity:0.996" fill="#502d22" d="M 49.5,198.5 C 49.4431,199.609 49.1098,200.609 48.5,201.5C 44.734,206.03 41.734,211.03 39.5,216.5C 35.864,221.059 32.1974,225.725 28.5,230.5C 25.9985,235.421 22.9985,240.087 19.5,244.5C 19.6107,245.117 19.944,245.617 20.5,246C 54.4984,246.5 88.4984,246.667 122.5,246.5C 126.846,246.666 131.179,246.499 135.5,246C 136.337,244.989 136.67,243.822 136.5,242.5C 139.272,243.235 141.939,243.401 144.5,243C 145.337,244.011 145.67,245.178 145.5,246.5C 151.144,247.871 156.311,246.871 161,243.5C 166.788,246.484 172.954,248.15 179.5,248.5C 179.918,249.222 180.584,249.722 181.5,250C 192.356,250.223 203.189,250.723 214,251.5C 229.821,250.679 245.654,250.846 261.5,252C 263.708,252.191 265.708,252.691 267.5,253.5C 180.332,253.167 93.3317,253.501 6.5,254.5C 3.06758,254.873 0.734249,253.54 -0.5,250.5C -0.5,249.833 -0.5,249.167 -0.5,248.5C 0.363622,247.312 1.36362,246.145 2.5,245C 5.334,244.955 7.834,244.121 10,242.5C 19.413,228.13 28.913,213.797 38.5,199.5C 41.2788,198.05 44.2788,197.05 47.5,196.5C 48.7133,196.747 49.38,197.414 49.5,198.5 Z"/></g>
<g><path style="opacity:1" fill="#672518" d="M 19.5,244.5 C 20.1667,244.5 20.8333,244.5 21.5,244.5C 54.9959,245.498 88.6625,245.832 122.5,245.5C 122.5,245.833 122.5,246.167 122.5,246.5C 88.4984,246.667 54.4984,246.5 20.5,246C 19.944,245.617 19.6107,245.117 19.5,244.5 Z"/></g>
<g><path style="opacity:1" fill="#c2431c" d="M 121.5,242.5 C 122.5,242.833 123.167,243.5 123.5,244.5C 123.5,245.167 123.167,245.5 122.5,245.5C 88.6625,245.832 54.9959,245.498 21.5,244.5C 23.7354,244.795 25.7354,244.461 27.5,243.5C 59.0044,243.832 90.3378,243.498 121.5,242.5 Z"/></g>
<g><path style="opacity:1" fill="#532d23" d="M 260.5,198.5 C 270.205,213.54 280.205,228.54 290.5,243.5C 293.652,244.255 296.652,245.255 299.5,246.5C 299.5,248.167 299.5,249.833 299.5,251.5C 298.5,251.833 297.833,252.5 297.5,253.5C 293.993,253.693 290.66,253.027 287.5,251.5C 286.452,252.383 285.285,253.05 284,253.5C 282.039,251.772 279.872,250.439 277.5,249.5C 276.833,249.833 276.167,250.167 275.5,250.5C 276.833,251.167 278.167,251.833 279.5,252.5C 275.555,253.491 271.555,253.824 267.5,253.5C 265.708,252.691 263.708,252.191 261.5,252C 245.654,250.846 229.821,250.679 214,251.5C 203.189,250.723 192.356,250.223 181.5,250C 180.584,249.722 179.918,249.222 179.5,248.5C 181.781,248.923 183.448,248.256 184.5,246.5C 216.518,247.159 248.184,246.493 279.5,244.5C 279.262,242.596 278.262,241.262 276.5,240.5C 274.842,238.173 273.175,235.839 271.5,233.5C 271.762,232.022 271.429,230.689 270.5,229.5C 267.369,224.849 264.035,220.516 260.5,216.5C 257.562,210.954 253.895,205.954 249.5,201.5C 249.5,200.5 249.5,199.5 249.5,198.5C 249.5,196.833 249.5,195.167 249.5,193.5C 251.124,193.64 252.29,192.973 253,191.5C 255.487,193.954 256.821,196.954 257,200.5C 258.302,199.915 259.469,199.249 260.5,198.5 Z"/></g>
<g><path style="opacity:0.307" fill="#422c15" d="M 297.5,253.5 C 200.668,254.499 103.668,254.833 6.5,254.5C 93.3317,253.501 180.332,253.167 267.5,253.5C 271.555,253.824 275.555,253.491 279.5,252.5C 278.167,251.833 276.833,251.167 275.5,250.5C 276.167,250.167 276.833,249.833 277.5,249.5C 279.872,250.439 282.039,251.772 284,253.5C 285.285,253.05 286.452,252.383 287.5,251.5C 290.66,253.027 293.993,253.693 297.5,253.5 Z"/></g>
</svg>
