<?xml version="1.0" encoding="UTF-8"?>
<!DOCTYPE svg PUBLIC "-//W3C//DTD SVG 1.1//EN" "http://www.w3.org/Graphics/SVG/1.1/DTD/svg11.dtd">
<svg xmlns="http://www.w3.org/2000/svg" version="1.1" width="151px" height="102px" style="shape-rendering:geometricPrecision; text-rendering:geometricPrecision; image-rendering:optimizeQuality; fill-rule:evenodd; clip-rule:evenodd" xmlns:xlink="http://www.w3.org/1999/xlink">
<g><path style="opacity:1" fill="#fdd506" d="M 70.5,1.5 C 71.4959,1.41423 72.3292,1.74756 73,2.5C 74.5747,11.711 76.9081,20.711 80,29.5C 88.6743,52.6913 96.841,76.0246 104.5,99.5C 96.3437,100.657 88.0104,100.823 79.5,100C 71.9948,91.6621 64.3282,83.4955 56.5,75.5C 56.1034,74.475 55.4368,74.3083 54.5,75C 48.9805,81.5258 43.8138,88.3592 39,95.5C 37.9914,97.0249 37.4914,98.6916 37.5,100.5C 25.8286,100.667 14.1619,100.5 2.5,100C 1.5842,99.7216 0.917533,99.2216 0.5,98.5C 22.599,65.3126 45.9324,32.9793 70.5,1.5 Z"/></g>
<g><path style="opacity:1" fill="#ca8904" d="M 72.5,-0.5 C 72.8333,-0.5 73.1667,-0.5 73.5,-0.5C 99.6855,28.9038 123.686,59.9038 145.5,92.5C 145.92,94.0936 146.586,95.5936 147.5,97C 147.355,97.772 147.022,98.4387 146.5,99C 132.504,99.4999 118.504,99.6666 104.5,99.5C 96.841,76.0246 88.6743,52.6913 80,29.5C 76.9081,20.711 74.5747,11.711 73,2.5C 72.3292,1.74756 71.4959,1.41423 70.5,1.5C 71.1667,0.833333 71.8333,0.166667 72.5,-0.5 Z"/></g>
<g><path style="opacity:1" fill="#e5ca5c" d="M 56.5,75.5 C 55.8614,76.0968 55.528,76.9302 55.5,78C 57.287,85.7669 58.6204,93.6002 59.5,101.5C 39.8333,101.5 20.1667,101.5 0.5,101.5C 0.5,100.833 0.166667,100.5 -0.5,100.5C -0.5,99.8333 -0.5,99.1667 -0.5,98.5C -0.166667,98.5 0.166667,98.5 0.5,98.5C 0.917533,99.2216 1.5842,99.7216 2.5,100C 14.1619,100.5 25.8286,100.667 37.5,100.5C 37.4914,98.6916 37.9914,97.0249 39,95.5C 43.8138,88.3592 48.9805,81.5258 54.5,75C 55.4368,74.3083 56.1034,74.475 56.5,75.5 Z"/></g>
<g><path style="opacity:1" fill="#b17f1c" d="M 56.5,75.5 C 64.3282,83.4955 71.9948,91.6621 79.5,100C 88.0104,100.823 96.3437,100.657 104.5,99.5C 118.504,99.6666 132.504,99.4999 146.5,99C 147.022,98.4387 147.355,97.772 147.5,97C 146.586,95.5936 145.92,94.0936 145.5,92.5C 147.395,93.973 149.061,95.6397 150.5,97.5C 150.5,98.5 150.5,99.5 150.5,100.5C 139.654,100.172 128.987,100.506 118.5,101.5C 98.8333,101.5 79.1667,101.5 59.5,101.5C 58.6204,93.6002 57.287,85.7669 55.5,78C 55.528,76.9302 55.8614,76.0968 56.5,75.5 Z"/></g>
</svg>
