<?xml version="1.0" encoding="UTF-8"?>
<!DOCTYPE svg PUBLIC "-//W3C//DTD SVG 1.1//EN" "http://www.w3.org/Graphics/SVG/1.1/DTD/svg11.dtd">
<svg xmlns="http://www.w3.org/2000/svg" version="1.1" width="300px" height="300px" style="shape-rendering:geometricPrecision; text-rendering:geometricPrecision; image-rendering:optimizeQuality; fill-rule:evenodd; clip-rule:evenodd" xmlns:xlink="http://www.w3.org/1999/xlink">
<g><path style="opacity:1" fill="#841928" d="M 162.5,16.5 C 174.913,20.904 187.913,22.904 201.5,22.5C 206.384,25.2574 211.718,26.9241 217.5,27.5C 219.898,27.2594 221.898,27.9261 223.5,29.5C 224.514,30.6737 225.847,31.3404 227.5,31.5C 230.491,31.1663 232.824,32.1663 234.5,34.5C 234.414,35.4959 234.748,36.3292 235.5,37C 238.544,38.404 241.544,39.904 244.5,41.5C 245.386,42.325 245.719,43.325 245.5,44.5C 248.534,44.183 249.534,45.183 248.5,47.5C 245.783,46.871 244.45,48.2043 244.5,51.5C 241.72,51.1931 239.22,50.1931 237,48.5C 234.116,49.7427 231.282,49.576 228.5,48C 227.289,46.8869 227.289,45.7202 228.5,44.5C 227.467,43.548 226.3,43.548 225,44.5C 223.5,43.5 222,42.5 220.5,41.5C 220.977,40.5224 221.643,39.6891 222.5,39C 220.199,37.1267 217.699,35.6267 215,34.5C 212.976,34.7995 212.476,35.6329 213.5,37C 211.333,37.1667 209.167,37.3333 207,37.5C 200.622,36.0258 194.122,35.3592 187.5,35.5C 184.797,34.037 181.797,33.2037 178.5,33C 163.016,31.4808 147.682,31.3141 132.5,32.5C 127.924,32.4379 123.591,33.1045 119.5,34.5C 102.502,36.2864 86.5024,40.953 71.5,48.5C 67.8917,49.3097 64.5583,50.643 61.5,52.5C 57.5747,54.4794 54.7414,53.4794 53,49.5C 52.304,52.4781 51.804,55.4781 51.5,58.5C 49.8441,60.1817 47.1774,60.8483 43.5,60.5C 43.0338,62.2012 43.0338,63.7012 43.5,65C 42.2575,65.3114 41.2575,64.8114 40.5,63.5C 39.914,63.7093 39.414,64.0426 39,64.5C 38.5045,66.4727 38.3379,68.4727 38.5,70.5C 37.5,70.5 36.5,70.5 35.5,70.5C 35.0074,72.8056 34.6741,75.139 34.5,77.5C 32.9019,79.6979 31.5686,82.0313 30.5,84.5C 24.7222,91.3977 21.0555,99.3977 19.5,108.5C 18.8333,109.167 18.1667,109.833 17.5,110.5C 16.4415,111.6 15.6082,112.934 15,114.5C 13.3969,125.974 13.2302,137.307 14.5,148.5C 18.0051,171.512 28.3385,190.845 45.5,206.5C 49.0507,209.742 53.0507,212.075 57.5,213.5C 58.5736,214.885 59.9069,216.051 61.5,217C 67.4384,219.243 73.1051,221.743 78.5,224.5C 74.763,222.841 71.263,223.174 68,225.5C 65.9908,224.518 65.4908,223.185 66.5,221.5C 63.2804,218.931 59.7804,218.264 56,219.5C 53.3858,216.758 51.2191,217.091 49.5,220.5C 47.674,220.08 45.674,220.08 43.5,220.5C 39.0532,216.768 34.0532,213.768 28.5,211.5C 27.9886,209.805 27.3219,208.139 26.5,206.5C 21.9365,204.041 20.1031,200.374 21,195.5C 19.8869,194.289 18.7202,194.289 17.5,195.5C 15.1365,192.301 12.9698,188.968 11,185.5C 8.57203,179.359 6.07203,173.359 3.5,167.5C 0.406302,151.59 -0.0936975,135.59 2,119.5C 3.66072,115.343 4.82739,111.01 5.5,106.5C 6.5,106.5 7.5,106.5 8.5,106.5C 7.73688,103.859 7.57022,101.192 8,98.5C 12.05,90.4714 16.05,82.4714 20,74.5C 21.7067,73.8617 23.54,73.8617 25.5,74.5C 25.7733,72.549 25.1066,71.049 23.5,70C 25.5402,67.8149 26.8736,65.3149 27.5,62.5C 30.8121,57.1879 35.1454,52.8546 40.5,49.5C 44.7239,48.4775 48.3906,46.3108 51.5,43C 53.8947,42.3187 56.228,41.4853 58.5,40.5C 60.215,38.1182 62.215,36.1182 64.5,34.5C 73.7274,29.0157 83.7274,25.349 94.5,23.5C 98.2142,23.4098 101.548,22.4098 104.5,20.5C 123.656,16.9422 142.99,15.6089 162.5,16.5 Z"/></g>
<g><path style="opacity:1" fill="#904346" d="M 162.5,16.5 C 175.774,17.5854 188.774,19.5854 201.5,22.5C 187.913,22.904 174.913,20.904 162.5,16.5 Z"/></g>
<g><path style="opacity:0.349" fill="#b3807b" d="M 104.5,20.5 C 101.548,22.4098 98.2142,23.4098 94.5,23.5C 97.5502,21.8993 100.884,20.8993 104.5,20.5 Z"/></g>
<g><path style="opacity:0.549" fill="#a66b69" d="M 201.5,22.5 C 207.301,22.991 212.634,24.6577 217.5,27.5C 211.718,26.9241 206.384,25.2574 201.5,22.5 Z"/></g>
<g><path style="opacity:0.075" fill="#e0b3b0" d="M 223.5,29.5 C 225.38,29.2291 226.713,29.8958 227.5,31.5C 225.847,31.3404 224.514,30.6737 223.5,29.5 Z"/></g>
<g><path style="opacity:1" fill="#da8e46" d="M 132.5,32.5 C 146.705,32.1372 160.705,32.8038 174.5,34.5C 157.821,33.3594 141.155,33.3594 124.5,34.5C 122.833,34.5 121.167,34.5 119.5,34.5C 123.591,33.1045 127.924,32.4379 132.5,32.5 Z"/></g>
<g><path style="opacity:1" fill="#94351b" d="M 132.5,32.5 C 147.682,31.3141 163.016,31.4808 178.5,33C 181.797,33.2037 184.797,34.037 187.5,35.5C 183.19,34.9198 178.857,34.5865 174.5,34.5C 160.705,32.8038 146.705,32.1372 132.5,32.5 Z"/></g>
<g><path style="opacity:1" fill="#f9bb47" d="M 174.5,34.5 C 178.857,34.5865 183.19,34.9198 187.5,35.5C 195.525,37.112 203.525,39.2787 211.5,42C 217.317,43.7451 222.65,46.2451 227.5,49.5C 225.453,49.4889 223.453,49.1556 221.5,48.5C 220.833,48.8333 220.167,49.1667 219.5,49.5C 220.193,50.5178 220.859,51.5178 221.5,52.5C 215.702,50.7952 210.035,48.6286 204.5,46C 200.246,44.6859 195.913,43.8526 191.5,43.5C 187.267,43.4613 183.267,42.7947 179.5,41.5C 175.736,40.1682 171.736,39.3349 167.5,39C 154.66,38.1733 141.993,38.34 129.5,39.5C 126.772,39.1706 124.438,39.8372 122.5,41.5C 120.265,41.2053 118.265,41.5386 116.5,42.5C 112.486,42.3345 108.486,42.5012 104.5,43C 96.9495,45.2113 89.6162,47.7113 82.5,50.5C 80.1667,51.1667 77.8333,51.8333 75.5,52.5C 75.8308,50.6776 76.4975,49.0109 77.5,47.5C 80.9416,46.2521 84.6083,45.4188 88.5,45C 88.1667,44.6667 87.8333,44.3333 87.5,44C 98.0899,40.1477 109.09,37.8143 120.5,37C 122.066,36.3918 123.4,35.5585 124.5,34.5C 141.155,33.3594 157.821,33.3594 174.5,34.5 Z"/></g>
<g><path style="opacity:1" fill="#f3d17d" d="M 129.5,39.5 C 141.993,38.34 154.66,38.1733 167.5,39C 171.736,39.3349 175.736,40.1682 179.5,41.5C 177.5,41.5 175.5,41.5 173.5,41.5C 171.369,40.6862 169.036,40.1862 166.5,40C 154.171,39.5001 141.838,39.3335 129.5,39.5 Z"/></g>
<g><path style="opacity:1" fill="#87373c" d="M 64.5,34.5 C 62.215,36.1182 60.215,38.1182 58.5,40.5C 56.228,41.4853 53.8947,42.3187 51.5,43C 48.3906,46.3108 44.7239,48.4775 40.5,49.5C 44.3533,45.4877 48.6866,41.9877 53.5,39C 56.0707,38.0991 58.404,36.7658 60.5,35C 61.7932,34.51 63.1266,34.3433 64.5,34.5 Z"/></g>
<g><path style="opacity:1" fill="#f7ad4a" d="M 119.5,34.5 C 121.167,34.5 122.833,34.5 124.5,34.5C 123.4,35.5585 122.066,36.3918 120.5,37C 109.09,37.8143 98.0899,40.1477 87.5,44C 87.8333,44.3333 88.1667,44.6667 88.5,45C 84.6083,45.4188 80.9416,46.2521 77.5,47.5C 75.5648,48.1495 73.5648,48.4828 71.5,48.5C 86.5024,40.953 102.502,36.2864 119.5,34.5 Z"/></g>
<g><path style="opacity:1" fill="#fdf7db" d="M 129.5,39.5 C 141.838,39.3335 154.171,39.5001 166.5,40C 169.036,40.1862 171.369,40.6862 173.5,41.5C 156.5,41.5 139.5,41.5 122.5,41.5C 124.438,39.8372 126.772,39.1706 129.5,39.5 Z"/></g>
<g><path style="opacity:1" fill="#fbe8b5" d="M 116.5,42.5 C 105.217,44.9176 93.8835,47.5843 82.5,50.5C 89.6162,47.7113 96.9495,45.2113 104.5,43C 108.486,42.5012 112.486,42.3345 116.5,42.5 Z"/></g>
<g><path style="opacity:1" fill="#fceab6" d="M 191.5,43.5 C 195.913,43.8526 200.246,44.6859 204.5,46C 210.035,48.6286 215.702,50.7952 221.5,52.5C 225.845,54.9011 230.178,57.4011 234.5,60C 233.833,60.1667 233.167,60.3333 232.5,60.5C 224.931,57.0983 217.265,53.9316 209.5,51C 201.571,49.3197 193.571,48.153 185.5,47.5C 185.5,47.1667 185.5,46.8333 185.5,46.5C 189.892,47.0883 194.226,47.0883 198.5,46.5C 195.705,46.0615 193.372,45.0615 191.5,43.5 Z"/></g>
<g><path style="opacity:1" fill="#f0c66b" d="M 149.5,47.5 C 147.401,48.6118 145.067,49.2785 142.5,49.5C 142.68,53.6563 140.68,55.9896 136.5,56.5C 138.369,49.9666 142.703,46.9666 149.5,47.5 Z"/></g>
<g><path style="opacity:1" fill="#892224" d="M 248.5,47.5 C 248.5,48.1667 248.833,48.5 249.5,48.5C 247.8,50.2099 246.467,52.2099 245.5,54.5C 246.568,57.2046 248.568,58.7046 251.5,59C 251.043,59.414 250.709,59.914 250.5,60.5C 251.952,61.9397 252.952,63.6064 253.5,65.5C 253.167,65.5 252.833,65.5 252.5,65.5C 245.657,57.9075 237.324,52.5742 227.5,49.5C 222.65,46.2451 217.317,43.7451 211.5,42C 203.525,39.2787 195.525,37.112 187.5,35.5C 194.122,35.3592 200.622,36.0258 207,37.5C 209.167,37.3333 211.333,37.1667 213.5,37C 212.476,35.6329 212.976,34.7995 215,34.5C 217.699,35.6267 220.199,37.1267 222.5,39C 221.643,39.6891 220.977,40.5224 220.5,41.5C 222,42.5 223.5,43.5 225,44.5C 226.3,43.548 227.467,43.548 228.5,44.5C 227.289,45.7202 227.289,46.8869 228.5,48C 231.282,49.576 234.116,49.7427 237,48.5C 239.22,50.1931 241.72,51.1931 244.5,51.5C 244.45,48.2043 245.783,46.871 248.5,47.5 Z"/></g>
<g><path style="opacity:1" fill="#fcfbf3" d="M 122.5,41.5 C 139.5,41.5 156.5,41.5 173.5,41.5C 175.5,41.5 177.5,41.5 179.5,41.5C 183.267,42.7947 187.267,43.4613 191.5,43.5C 193.372,45.0615 195.705,46.0615 198.5,46.5C 194.226,47.0883 189.892,47.0883 185.5,46.5C 175.186,45.4942 164.852,45.3276 154.5,46C 153.263,46.2321 152.263,46.7321 151.5,47.5C 150.833,47.5 150.167,47.5 149.5,47.5C 142.703,46.9666 138.369,49.9666 136.5,56.5C 132.584,57.0391 129.584,55.7058 127.5,52.5C 127.209,51.3509 126.376,50.6842 125,50.5C 121.973,50.9123 119.14,51.579 116.5,52.5C 109.243,54.2523 102.243,56.5856 95.5,59.5C 85.9078,61.7965 77.2411,65.9632 69.5,72C 65.3642,73.5695 61.6976,75.9028 58.5,79C 55.9163,82.4019 53.2496,85.5685 50.5,88.5C 49.6851,89.8366 48.5185,90.8366 47,91.5C 46.5172,92.448 46.3505,93.448 46.5,94.5C 42.5913,99.3282 39.9246,104.995 38.5,111.5C 38.5,112.167 38.1667,112.5 37.5,112.5C 36.5041,116.184 35.1708,119.851 33.5,123.5C 31.8333,124.833 30.1667,124.833 28.5,123.5C 27.7092,115.404 28.3758,107.404 30.5,99.5C 31.6502,95.21 33.3169,91.21 35.5,87.5C 38.973,85.3633 41.3064,82.3633 42.5,78.5C 50.3298,67.5209 60.6631,59.6876 73.5,55C 74.3805,54.2917 75.0472,53.4584 75.5,52.5C 77.8333,51.8333 80.1667,51.1667 82.5,50.5C 93.8835,47.5843 105.217,44.9176 116.5,42.5C 118.265,41.5386 120.265,41.2053 122.5,41.5 Z"/></g>
<g><path style="opacity:1" fill="#eec674" d="M 185.5,46.5 C 185.5,46.8333 185.5,47.1667 185.5,47.5C 174.167,47.5 162.833,47.5 151.5,47.5C 152.263,46.7321 153.263,46.2321 154.5,46C 164.852,45.3276 175.186,45.4942 185.5,46.5 Z"/></g>
<g><path style="opacity:1" fill="#efd58f" d="M 127.5,52.5 C 123.833,52.5 120.167,52.5 116.5,52.5C 119.14,51.579 121.973,50.9123 125,50.5C 126.376,50.6842 127.209,51.3509 127.5,52.5 Z"/></g>
<g><path style="opacity:1" fill="#fbb232" d="M 149.5,47.5 C 150.167,47.5 150.833,47.5 151.5,47.5C 162.833,47.5 174.167,47.5 185.5,47.5C 193.571,48.153 201.571,49.3197 209.5,51C 217.265,53.9316 224.931,57.0983 232.5,60.5C 233.167,60.3333 233.833,60.1667 234.5,60C 230.178,57.4011 225.845,54.9011 221.5,52.5C 220.859,51.5178 220.193,50.5178 219.5,49.5C 220.167,49.1667 220.833,48.8333 221.5,48.5C 223.453,49.1556 225.453,49.4889 227.5,49.5C 237.324,52.5742 245.657,57.9075 252.5,65.5C 252.5,66.5 252.5,67.5 252.5,68.5C 251.167,68.5 249.833,68.5 248.5,68.5C 246.013,71.2906 243.68,71.1239 241.5,68C 236.857,67.1696 232.19,66.5029 227.5,66C 228.5,65.6667 229.5,65.3333 230.5,65C 228.765,64.3486 227.098,64.5153 225.5,65.5C 225.167,64.8333 224.833,64.1667 224.5,63.5C 222.657,64.9387 220.99,64.772 219.5,63C 220.624,62.7508 221.624,62.2508 222.5,61.5C 222.167,61.1667 221.833,60.8333 221.5,60.5C 219.802,61.6808 218.135,61.6808 216.5,60.5C 216.709,59.914 217.043,59.414 217.5,59C 209.783,55.8114 201.95,53.3114 194,51.5C 189.963,51.9814 185.963,52.648 182,53.5C 171.852,52.2024 161.685,52.2024 151.5,53.5C 148.972,55.8738 145.972,56.8738 142.5,56.5C 142.719,57.675 142.386,58.675 141.5,59.5C 136.36,61.6954 131.027,62.5287 125.5,62C 126.741,60.5135 126.241,59.6801 124,59.5C 120.192,61.6451 116.192,63.3118 112,64.5C 109.847,62.5561 107.347,62.0561 104.5,63C 104.966,64.2988 104.966,65.7988 104.5,67.5C 102.226,67.2849 100.059,66.6182 98,65.5C 97.1667,65.6667 96.3333,65.8333 95.5,66C 95.9426,67.5185 95.2759,68.6852 93.5,69.5C 92.7065,69.0688 91.8732,68.7355 91,68.5C 86.0219,70.3172 80.8552,71.3172 75.5,71.5C 75.5,72.5 75.5,73.5 75.5,74.5C 76.8333,74.5 78.1667,74.5 79.5,74.5C 80.7834,77.0104 81.7834,79.6771 82.5,82.5C 80.8089,81.1363 79.1423,79.803 77.5,78.5C 75.5501,76.974 73.2167,75.974 70.5,75.5C 73.0149,74.8003 73.6816,73.4669 72.5,71.5C 74.0453,70.5481 75.712,70.2148 77.5,70.5C 77.5,69.5 77.5,68.5 77.5,67.5C 81.1817,67.6653 84.8484,67.4986 88.5,67C 87.0072,65.8438 87.1739,65.0104 89,64.5C 91.0094,64.9949 93.1761,64.9949 95.5,64.5C 95.5,62.8333 95.5,61.1667 95.5,59.5C 102.243,56.5856 109.243,54.2523 116.5,52.5C 120.167,52.5 123.833,52.5 127.5,52.5C 129.584,55.7058 132.584,57.0391 136.5,56.5C 140.68,55.9896 142.68,53.6563 142.5,49.5C 145.067,49.2785 147.401,48.6118 149.5,47.5 Z"/></g>
<g><path style="opacity:1" fill="#862c33" d="M 234.5,34.5 C 255.468,43.1269 271.468,57.4603 282.5,77.5C 281.099,77.0291 279.766,76.3624 278.5,75.5C 276.663,70.4868 273.83,66.1534 270,62.5C 268.606,63.6133 267.439,64.9466 266.5,66.5C 265.692,64.5767 265.192,62.5767 265,60.5C 263.795,59.9288 262.628,59.2621 261.5,58.5C 262.052,56.9974 262.052,55.3307 261.5,53.5C 258.396,54.8643 255.396,54.6976 252.5,53C 253.253,51.513 254.086,51.3463 255,52.5C 256.23,51.7248 256.563,50.7248 256,49.5C 253.959,48.5769 251.792,48.2436 249.5,48.5C 248.833,48.5 248.5,48.1667 248.5,47.5C 249.534,45.183 248.534,44.183 245.5,44.5C 245.719,43.325 245.386,42.325 244.5,41.5C 241.544,39.904 238.544,38.404 235.5,37C 234.748,36.3292 234.414,35.4959 234.5,34.5 Z"/></g>
<g><path style="opacity:1" fill="#feab25" d="M 248.5,68.5 C 253.225,74.2616 257.725,80.2616 262,86.5C 272.793,105.935 275.626,126.602 270.5,148.5C 269.508,150.456 268.508,152.456 267.5,154.5C 264.072,154.453 261.072,153.287 258.5,151C 256.527,150.505 254.527,150.338 252.5,150.5C 252.5,150.167 252.5,149.833 252.5,149.5C 252.082,148.778 251.416,148.278 250.5,148C 245.167,147.333 239.833,147.333 234.5,148C 230.672,152.193 226.005,153.86 220.5,153C 218.043,151.846 218.043,150.512 220.5,149C 219.862,147.293 219.862,145.46 220.5,143.5C 221.5,143.5 222.5,143.5 223.5,143.5C 223.5,142.167 223.5,140.833 223.5,139.5C 224.726,133.441 224.559,127.441 223,121.5C 222.392,119.934 221.558,118.6 220.5,117.5C 217.884,113.517 214.217,111.183 209.5,110.5C 205.214,108.011 200.881,108.011 196.5,110.5C 194.517,111.471 192.517,112.471 190.5,113.5C 188.833,113.5 187.167,113.5 185.5,113.5C 185.643,115.262 185.309,116.929 184.5,118.5C 183.726,119.711 182.893,119.711 182,118.5C 181.804,120.286 180.971,121.619 179.5,122.5C 178.534,124.396 178.201,126.396 178.5,128.5C 174.215,127.705 169.881,127.372 165.5,127.5C 165.172,124.996 163.838,123.162 161.5,122C 156.928,121.537 152.428,120.704 148,119.5C 144.598,120.726 141.098,121.393 137.5,121.5C 137.34,123.199 137.506,124.866 138,126.5C 138.691,124.109 139.691,124.109 141,126.5C 142.825,125.429 143.992,126.096 144.5,128.5C 143.132,129.594 141.965,129.26 141,127.5C 139.62,130.883 137.12,132.716 133.5,133C 134.993,134.156 134.826,134.99 133,135.5C 128.922,136.26 128.422,134.927 131.5,131.5C 129.234,130.794 126.901,130.961 124.5,132C 125.167,132.333 125.833,132.667 126.5,133C 124.129,133.735 121.795,134.568 119.5,135.5C 118.571,134.311 118.238,132.978 118.5,131.5C 120.308,131.509 121.975,131.009 123.5,130C 119.947,127.61 116.947,124.776 114.5,121.5C 109.374,112.074 101.374,107.741 90.5,108.5C 87.8938,109.136 85.3938,109.136 83,108.5C 82.3333,109.833 81.6667,111.167 81,112.5C 80.6667,111.833 80.3333,111.167 80,110.5C 78.5619,111.9 77.7286,113.567 77.5,115.5C 75.0876,115.756 73.4209,114.756 72.5,112.5C 71.3546,114.635 71.3546,116.801 72.5,119C 71.4655,119.253 70.4655,120.086 69.5,121.5C 68.8333,119.5 68.1667,117.5 67.5,115.5C 65.5539,117.044 65.0539,119.044 66,121.5C 67.353,122.685 68.5197,124.019 69.5,125.5C 70.4255,124.359 71.2588,124.359 72,125.5C 72.8111,129.496 73.1445,133.496 73,137.5C 71.739,132.014 69.4057,131.348 66,135.5C 63.9436,132.691 64.7769,131.358 68.5,131.5C 68.5,130.5 68.5,129.5 68.5,128.5C 66.1727,128.247 64.1727,128.914 62.5,130.5C 61.908,126.901 62.5747,123.401 64.5,120C 64.0459,118.378 63.0459,117.212 61.5,116.5C 60.5344,118.396 60.2011,120.396 60.5,122.5C 53.6699,123.979 53.0032,126.812 58.5,131C 58.0426,131.414 57.7093,131.914 57.5,132.5C 59.3529,133.76 61.1862,133.76 63,132.5C 63.4922,133.549 63.3256,134.549 62.5,135.5C 63.9814,136.48 65.3147,137.647 66.5,139C 62.5,139.667 58.5,139.667 54.5,139C 52.393,137.736 51.393,135.903 51.5,133.5C 49.712,133.215 48.0453,133.548 46.5,134.5C 45.9579,138.176 43.9579,139.676 40.5,139C 42.2785,136.865 42.9452,134.365 42.5,131.5C 44.5,131.5 46.5,131.5 48.5,131.5C 48.4609,129.641 49.2942,128.308 51,127.5C 51.4974,124.854 51.6641,122.187 51.5,119.5C 52.5,119.5 53.5,119.5 54.5,119.5C 54.5,115.167 54.5,110.833 54.5,106.5C 59.081,107.789 63.4143,107.789 67.5,106.5C 68.6256,105.192 68.6256,103.858 67.5,102.5C 70.598,102.304 73.7647,102.304 77,102.5C 79.5269,102.33 80.0269,101.33 78.5,99.5C 81.4322,98.1825 84.4322,97.0158 87.5,96C 85.8968,92.017 85.2302,87.8504 85.5,83.5C 84.5,83.5 83.5,83.5 82.5,83.5C 82.5,83.1667 82.5,82.8333 82.5,82.5C 81.7834,79.6771 80.7834,77.0104 79.5,74.5C 78.1667,74.5 76.8333,74.5 75.5,74.5C 75.5,73.5 75.5,72.5 75.5,71.5C 80.8552,71.3172 86.0219,70.3172 91,68.5C 91.8732,68.7355 92.7065,69.0688 93.5,69.5C 95.2759,68.6852 95.9426,67.5185 95.5,66C 96.3333,65.8333 97.1667,65.6667 98,65.5C 100.059,66.6182 102.226,67.2849 104.5,67.5C 104.966,65.7988 104.966,64.2988 104.5,63C 107.347,62.0561 109.847,62.5561 112,64.5C 116.192,63.3118 120.192,61.6451 124,59.5C 126.241,59.6801 126.741,60.5135 125.5,62C 131.027,62.5287 136.36,61.6954 141.5,59.5C 142.386,58.675 142.719,57.675 142.5,56.5C 145.972,56.8738 148.972,55.8738 151.5,53.5C 161.685,52.2024 171.852,52.2024 182,53.5C 185.963,52.648 189.963,51.9814 194,51.5C 201.95,53.3114 209.783,55.8114 217.5,59C 217.043,59.414 216.709,59.914 216.5,60.5C 218.135,61.6808 219.802,61.6808 221.5,60.5C 221.833,60.8333 222.167,61.1667 222.5,61.5C 221.624,62.2508 220.624,62.7508 219.5,63C 220.99,64.772 222.657,64.9387 224.5,63.5C 224.833,64.1667 225.167,64.8333 225.5,65.5C 227.098,64.5153 228.765,64.3486 230.5,65C 229.5,65.3333 228.5,65.6667 227.5,66C 232.19,66.5029 236.857,67.1696 241.5,68C 243.68,71.1239 246.013,71.2906 248.5,68.5 Z"/></g>
<g><path style="opacity:1" fill="#882222" d="M 61.5,52.5 C 51.2193,59.4472 42.2193,67.7806 34.5,77.5C 34.6741,75.139 35.0074,72.8056 35.5,70.5C 36.5,70.5 37.5,70.5 38.5,70.5C 38.3379,68.4727 38.5045,66.4727 39,64.5C 39.414,64.0426 39.914,63.7093 40.5,63.5C 41.2575,64.8114 42.2575,65.3114 43.5,65C 43.0338,63.7012 43.0338,62.2012 43.5,60.5C 47.1774,60.8483 49.8441,60.1817 51.5,58.5C 51.804,55.4781 52.304,52.4781 53,49.5C 54.7414,53.4794 57.5747,54.4794 61.5,52.5 Z"/></g>
<g><path style="opacity:1" fill="#f5bb4a" d="M 95.5,59.5 C 95.5,61.1667 95.5,62.8333 95.5,64.5C 93.1761,64.9949 91.0094,64.9949 89,64.5C 87.1739,65.0104 87.0072,65.8438 88.5,67C 84.8484,67.4986 81.1817,67.6653 77.5,67.5C 77.5,68.5 77.5,69.5 77.5,70.5C 75.712,70.2148 74.0453,70.5481 72.5,71.5C 73.6816,73.4669 73.0149,74.8003 70.5,75.5C 73.2167,75.974 75.5501,76.974 77.5,78.5C 66.6996,77.1334 62.1996,81.8 64,92.5C 64.9973,94.3231 66.1639,95.9897 67.5,97.5C 65.0885,97.8633 63.5885,96.8633 63,94.5C 61.7633,90.9399 61.2633,87.2733 61.5,83.5C 59.8008,83.3398 58.1341,83.5065 56.5,84C 54.5805,85.7727 52.5805,87.2727 50.5,88.5C 53.2496,85.5685 55.9163,82.4019 58.5,79C 61.6976,75.9028 65.3642,73.5695 69.5,72C 77.2411,65.9632 85.9078,61.7965 95.5,59.5 Z"/></g>
<g><path style="opacity:1" fill="#f8b33c" d="M 77.5,47.5 C 76.4975,49.0109 75.8308,50.6776 75.5,52.5C 75.0472,53.4584 74.3805,54.2917 73.5,55C 60.6631,59.6876 50.3298,67.5209 42.5,78.5C 39.7915,81.2085 37.4581,84.2085 35.5,87.5C 33.3169,91.21 31.6502,95.21 30.5,99.5C 28.7386,103.252 27.072,106.919 25.5,110.5C 25.6646,107.482 25.498,104.482 25,101.5C 24.7104,103.044 24.0437,104.377 23,105.5C 22.8333,104.667 22.6667,103.833 22.5,103C 25.0043,96.8185 27.6709,90.6518 30.5,84.5C 31.5686,82.0313 32.9019,79.6979 34.5,77.5C 42.2193,67.7806 51.2193,59.4472 61.5,52.5C 64.5583,50.643 67.8917,49.3097 71.5,48.5C 73.5648,48.4828 75.5648,48.1495 77.5,47.5 Z"/></g>
<g><path style="opacity:1" fill="#fdfaf5" d="M 77.5,78.5 C 79.1423,79.803 80.8089,81.1363 82.5,82.5C 82.5,82.8333 82.5,83.1667 82.5,83.5C 83.9974,95.0006 78.9974,99.6673 67.5,97.5C 66.1639,95.9897 64.9973,94.3231 64,92.5C 62.1996,81.8 66.6996,77.1334 77.5,78.5 Z"/></g>
<g><path style="opacity:1" fill="#fae7af" d="M 42.5,78.5 C 41.3064,82.3633 38.973,85.3633 35.5,87.5C 37.4581,84.2085 39.7915,81.2085 42.5,78.5 Z"/></g>
<g><path style="opacity:1" fill="#803135" d="M 27.5,62.5 C 26.8736,65.3149 25.5402,67.8149 23.5,70C 25.1066,71.049 25.7733,72.549 25.5,74.5C 23.54,73.8617 21.7067,73.8617 20,74.5C 16.05,82.4714 12.05,90.4714 8,98.5C 7.57022,101.192 7.73688,103.859 8.5,106.5C 7.5,106.5 6.5,106.5 5.5,106.5C 4.82739,111.01 3.66072,115.343 2,119.5C -0.0936975,135.59 0.406302,151.59 3.5,167.5C 2.01312,163.884 0.679783,160.217 -0.5,156.5C -0.5,143.833 -0.5,131.167 -0.5,118.5C 2.42,107.242 6.25334,96.2424 11,85.5C 15.1906,76.8225 20.6906,69.1559 27.5,62.5 Z"/></g>
<g><path style="opacity:1" fill="#f9b133" d="M 67.5,97.5 C 78.9974,99.6673 83.9974,95.0006 82.5,83.5C 83.5,83.5 84.5,83.5 85.5,83.5C 85.2302,87.8504 85.8968,92.017 87.5,96C 84.4322,97.0158 81.4322,98.1825 78.5,99.5C 80.0269,101.33 79.5269,102.33 77,102.5C 73.7647,102.304 70.598,102.304 67.5,102.5C 65.4425,103.202 63.4425,103.535 61.5,103.5C 58.8333,102.5 58.8333,101.5 61.5,100.5C 63.0983,101.485 64.765,101.651 66.5,101C 65.4479,99.8808 64.2812,99.3808 63,99.5C 62.7811,98.062 62.2811,96.7287 61.5,95.5C 60.1877,96.4604 58.8544,96.2937 57.5,95C 59.1066,93.951 59.7733,92.451 59.5,90.5C 58.1667,90.5 56.8333,90.5 55.5,90.5C 55.6495,91.552 55.4828,92.552 55,93.5C 53.9887,92.6634 52.8221,92.33 51.5,92.5C 51.5,93.8333 51.5,95.1667 51.5,96.5C 50.5,96.5 49.5,96.5 48.5,96.5C 47.3356,102.669 45.5022,108.669 43,114.5C 42.6667,113.167 42.3333,111.833 42,110.5C 41.1729,111.662 40.3396,112.829 39.5,114C 38.9565,118.827 37.6231,123.327 35.5,127.5C 32.8344,127.067 30.1677,126.567 27.5,126C 26.7476,125.329 26.4142,124.496 26.5,123.5C 27.1667,123.5 27.8333,123.5 28.5,123.5C 30.1667,124.833 31.8333,124.833 33.5,123.5C 36.7776,120.678 38.111,117.012 37.5,112.5C 38.1667,112.5 38.5,112.167 38.5,111.5C 40.2627,109.115 41.7627,106.448 43,103.5C 43.3333,104.5 43.6667,105.5 44,106.5C 44.1875,102.277 45.0208,98.2768 46.5,94.5C 46.3505,93.448 46.5172,92.448 47,91.5C 48.5185,90.8366 49.6851,89.8366 50.5,88.5C 52.5805,87.2727 54.5805,85.7727 56.5,84C 58.1341,83.5065 59.8008,83.3398 61.5,83.5C 61.2633,87.2733 61.7633,90.9399 63,94.5C 63.5885,96.8633 65.0885,97.8633 67.5,97.5 Z"/></g>
<g><path style="opacity:1" fill="#f1ba53" d="M 46.5,94.5 C 45.0208,98.2768 44.1875,102.277 44,106.5C 43.6667,105.5 43.3333,104.5 43,103.5C 41.7627,106.448 40.2627,109.115 38.5,111.5C 39.9246,104.995 42.5913,99.3282 46.5,94.5 Z"/></g>
<g><path style="opacity:1" fill="#f9601f" d="M 252.5,65.5 C 252.833,65.5 253.167,65.5 253.5,65.5C 260.243,71.5819 265.91,78.5819 270.5,86.5C 270.6,89.667 269.933,92.667 268.5,95.5C 270.067,97.8961 270.9,100.563 271,103.5C 272.417,106.993 273.917,107.16 275.5,104C 274.66,102.334 275.16,102.167 277,103.5C 277.885,108.468 279.051,113.301 280.5,118C 279.602,120.759 279.269,123.425 279.5,126C 280.696,127.364 281.696,128.864 282.5,130.5C 281.818,134.138 281.318,137.805 281,141.5C 279.678,138.532 278.511,135.532 277.5,132.5C 276.5,132.5 275.5,132.5 274.5,132.5C 274.038,137.162 273.538,141.829 273,146.5C 272.583,147.756 271.75,148.423 270.5,148.5C 275.626,126.602 272.793,105.935 262,86.5C 257.725,80.2616 253.225,74.2616 248.5,68.5C 249.833,68.5 251.167,68.5 252.5,68.5C 252.5,67.5 252.5,66.5 252.5,65.5 Z"/></g>
<g><path style="opacity:1" fill="#9a3713" d="M 209.5,110.5 C 205.167,110.5 200.833,110.5 196.5,110.5C 200.881,108.011 205.214,108.011 209.5,110.5 Z"/></g>
<g><path style="opacity:1" fill="#871c22" d="M 90.5,108.5 C 101.374,107.741 109.374,112.074 114.5,121.5C 116.121,127.854 115.455,133.854 112.5,139.5C 112.663,137.143 112.497,134.81 112,132.5C 110.951,131.483 109.784,131.316 108.5,132C 110.848,133.688 111.015,135.522 109,137.5C 108.53,135.226 107.53,133.226 106,131.5C 106.818,128.169 106.651,124.836 105.5,121.5C 104.325,121.719 103.325,121.386 102.5,120.5C 105.488,115.918 104.322,114.585 99,116.5C 96.5,116 94,115.5 91.5,115C 92.8333,114.667 94.1667,114.333 95.5,114C 91.8865,113.064 88.2198,112.564 84.5,112.5C 86.1898,110.658 88.1898,109.325 90.5,108.5 Z"/></g>
<g><path style="opacity:1" fill="#f6932f" d="M 30.5,84.5 C 27.6709,90.6518 25.0043,96.8185 22.5,103C 22.6667,103.833 22.8333,104.667 23,105.5C 24.0437,104.377 24.7104,103.044 25,101.5C 25.498,104.482 25.6646,107.482 25.5,110.5C 25.5,111.833 25.5,113.167 25.5,114.5C 23.9509,114.736 22.4509,114.736 21,114.5C 19.6814,112.75 19.1814,110.75 19.5,108.5C 21.0555,99.3977 24.7222,91.3977 30.5,84.5 Z"/></g>
<g><path style="opacity:1" fill="#fbe7c4" d="M 30.5,99.5 C 28.3758,107.404 27.7092,115.404 28.5,123.5C 27.8333,123.5 27.1667,123.5 26.5,123.5C 26.6716,122.508 26.3382,121.842 25.5,121.5C 25.5,119.167 25.5,116.833 25.5,114.5C 25.5,113.167 25.5,111.833 25.5,110.5C 27.072,106.919 28.7386,103.252 30.5,99.5 Z"/></g>
<g><path style="opacity:1" fill="#f9e4ac" d="M 37.5,112.5 C 38.111,117.012 36.7776,120.678 33.5,123.5C 35.1708,119.851 36.5041,116.184 37.5,112.5 Z"/></g>
<g><path style="opacity:1" fill="#f97323" d="M 19.5,108.5 C 19.1814,110.75 19.6814,112.75 21,114.5C 22.4509,114.736 23.9509,114.736 25.5,114.5C 25.5,116.833 25.5,119.167 25.5,121.5C 25.4255,127.529 25.7588,133.529 26.5,139.5C 24.8816,136.112 23.8816,132.446 23.5,128.5C 21.857,128.52 20.5237,127.853 19.5,126.5C 18.8333,126.833 18.1667,127.167 17.5,127.5C 16.9844,122.896 16.9844,118.229 17.5,113.5C 17.5,112.5 17.5,111.5 17.5,110.5C 18.1667,109.833 18.8333,109.167 19.5,108.5 Z"/></g>
<g><path style="opacity:1" fill="#8d281d" d="M 220.5,117.5 C 221.558,118.6 222.392,119.934 223,121.5C 224.559,127.441 224.726,133.441 223.5,139.5C 221.049,141.123 219.049,143.289 217.5,146C 216.552,146.483 215.552,146.649 214.5,146.5C 218.515,143.948 219.849,140.448 218.5,136C 219.423,132.655 220.756,129.489 222.5,126.5C 221.53,123.563 220.863,120.563 220.5,117.5 Z"/></g>
<g><path style="opacity:1" fill="#902a18" d="M 84.5,112.5 C 83.0582,113.82 82.3915,115.486 82.5,117.5C 81.325,117.281 80.325,117.614 79.5,118.5C 76.1927,125.135 75.526,132.135 77.5,139.5C 73.3466,131.338 73.8466,123.338 79,115.5C 80.7409,114.242 82.5742,113.242 84.5,112.5 Z"/></g>
<g><path style="opacity:1" fill="#fdaa2a" d="M 67.5,102.5 C 68.6256,103.858 68.6256,105.192 67.5,106.5C 63.4143,107.789 59.081,107.789 54.5,106.5C 54.5,110.833 54.5,115.167 54.5,119.5C 53.5,119.5 52.5,119.5 51.5,119.5C 51.6641,122.187 51.4974,124.854 51,127.5C 49.2942,128.308 48.4609,129.641 48.5,131.5C 46.5,131.5 44.5,131.5 42.5,131.5C 42.9452,134.365 42.2785,136.865 40.5,139C 43.9579,139.676 45.9579,138.176 46.5,134.5C 48.0453,133.548 49.712,133.215 51.5,133.5C 51.393,135.903 52.393,137.736 54.5,139C 58.5,139.667 62.5,139.667 66.5,139C 65.3147,137.647 63.9814,136.48 62.5,135.5C 63.3256,134.549 63.4922,133.549 63,132.5C 61.1862,133.76 59.3529,133.76 57.5,132.5C 57.7093,131.914 58.0426,131.414 58.5,131C 53.0032,126.812 53.6699,123.979 60.5,122.5C 60.2011,120.396 60.5344,118.396 61.5,116.5C 63.0459,117.212 64.0459,118.378 64.5,120C 62.5747,123.401 61.908,126.901 62.5,130.5C 64.1727,128.914 66.1727,128.247 68.5,128.5C 68.5,129.5 68.5,130.5 68.5,131.5C 64.7769,131.358 63.9436,132.691 66,135.5C 69.4057,131.348 71.739,132.014 73,137.5C 73.1445,133.496 72.8111,129.496 72,125.5C 71.2588,124.359 70.4255,124.359 69.5,125.5C 68.5197,124.019 67.353,122.685 66,121.5C 65.0539,119.044 65.5539,117.044 67.5,115.5C 68.1667,117.5 68.8333,119.5 69.5,121.5C 70.4655,120.086 71.4655,119.253 72.5,119C 71.3546,116.801 71.3546,114.635 72.5,112.5C 73.4209,114.756 75.0876,115.756 77.5,115.5C 77.7286,113.567 78.5619,111.9 80,110.5C 80.3333,111.167 80.6667,111.833 81,112.5C 81.6667,111.167 82.3333,109.833 83,108.5C 85.3938,109.136 87.8938,109.136 90.5,108.5C 88.1898,109.325 86.1898,110.658 84.5,112.5C 82.5742,113.242 80.7409,114.242 79,115.5C 73.8466,123.338 73.3466,131.338 77.5,139.5C 78.0913,142.614 79.758,145.114 82.5,147C 90.9055,151.743 99.2389,151.577 107.5,146.5C 109.605,144.408 111.272,142.075 112.5,139.5C 115.455,133.854 116.121,127.854 114.5,121.5C 116.947,124.776 119.947,127.61 123.5,130C 121.975,131.009 120.308,131.509 118.5,131.5C 118.238,132.978 118.571,134.311 119.5,135.5C 121.795,134.568 124.129,133.735 126.5,133C 125.833,132.667 125.167,132.333 124.5,132C 126.901,130.961 129.234,130.794 131.5,131.5C 128.422,134.927 128.922,136.26 133,135.5C 134.826,134.99 134.993,134.156 133.5,133C 137.12,132.716 139.62,130.883 141,127.5C 141.965,129.26 143.132,129.594 144.5,128.5C 143.992,126.096 142.825,125.429 141,126.5C 139.691,124.109 138.691,124.109 138,126.5C 137.506,124.866 137.34,123.199 137.5,121.5C 141.098,121.393 144.598,120.726 148,119.5C 152.428,120.704 156.928,121.537 161.5,122C 163.838,123.162 165.172,124.996 165.5,127.5C 169.881,127.372 174.215,127.705 178.5,128.5C 178.201,126.396 178.534,124.396 179.5,122.5C 180.971,121.619 181.804,120.286 182,118.5C 182.893,119.711 183.726,119.711 184.5,118.5C 185.309,116.929 185.643,115.262 185.5,113.5C 187.167,113.5 188.833,113.5 190.5,113.5C 189.211,114.637 188.211,115.97 187.5,117.5C 185.689,119.385 184.522,121.719 184,124.5C 183.333,128.167 183.333,131.833 184,135.5C 184.278,136.416 184.778,137.082 185.5,137.5C 185.328,138.492 185.662,139.158 186.5,139.5C 190.683,148.166 197.683,151.666 207.5,150C 210.281,149.478 212.615,148.311 214.5,146.5C 215.552,146.649 216.552,146.483 217.5,146C 219.049,143.289 221.049,141.123 223.5,139.5C 223.5,140.833 223.5,142.167 223.5,143.5C 222.5,143.5 221.5,143.5 220.5,143.5C 219.862,145.46 219.862,147.293 220.5,149C 218.043,150.512 218.043,151.846 220.5,153C 226.005,153.86 230.672,152.193 234.5,148C 239.833,147.333 245.167,147.333 250.5,148C 251.416,148.278 252.082,148.778 252.5,149.5C 246.407,149.139 240.407,149.639 234.5,151C 230.271,153.147 225.938,155.147 221.5,157C 219.21,158.777 217.543,160.944 216.5,163.5C 215.5,164.5 214.5,165.5 213.5,166.5C 212.542,166.953 211.708,167.619 211,168.5C 209.473,173.033 207.64,177.366 205.5,181.5C 206.573,176.482 207.907,171.482 209.5,166.5C 207.61,166.297 206.11,166.963 205,168.5C 202.772,167.108 201.606,165.108 201.5,162.5C 196.337,164.33 191.004,164.83 185.5,164C 187.891,162.691 187.891,161.691 185.5,161C 185.833,160.667 186.167,160.333 186.5,160C 189.236,159.578 191.902,159.578 194.5,160C 194.957,159.586 195.291,159.086 195.5,158.5C 194.5,157.833 193.5,157.167 192.5,156.5C 194.328,155.205 196.328,154.205 198.5,153.5C 196.865,152.319 195.198,152.319 193.5,153.5C 191.73,148.326 190.563,148.659 190,154.5C 188.117,153.347 187.284,151.681 187.5,149.5C 186.5,149.5 185.5,149.5 184.5,149.5C 184.162,152.157 184.829,154.49 186.5,156.5C 184.955,157.452 183.288,157.785 181.5,157.5C 181.66,159.199 181.494,160.866 181,162.5C 180.517,161.552 180.351,160.552 180.5,159.5C 179.167,159.5 177.833,159.5 176.5,159.5C 176.351,160.552 176.517,161.552 177,162.5C 180.379,164.218 181.046,166.551 179,169.5C 177.671,168.506 176.338,167.506 175,166.5C 171.227,167.886 167.393,169.219 163.5,170.5C 163.167,170.167 162.833,169.833 162.5,169.5C 165.316,168.36 166.982,166.36 167.5,163.5C 164.962,164.043 162.628,165.043 160.5,166.5C 160.833,165.833 161.167,165.167 161.5,164.5C 169.136,159.506 171.636,152.506 169,143.5C 167.726,140.064 165.559,137.397 162.5,135.5C 160.948,132.888 158.614,131.555 155.5,131.5C 140.945,128.113 132.278,133.78 129.5,148.5C 129.133,152.653 130.133,156.32 132.5,159.5C 133.833,161.5 135.5,163.167 137.5,164.5C 138.984,166.074 140.651,167.407 142.5,168.5C 137.953,169.694 133.62,169.694 129.5,168.5C 131.675,170.982 133.675,173.648 135.5,176.5C 133.604,177.466 131.604,177.799 129.5,177.5C 129.5,175.5 129.5,173.5 129.5,171.5C 125.121,170.183 124.455,167.683 127.5,164C 126.584,163.626 125.75,163.126 125,162.5C 122.593,162.406 120.093,162.573 117.5,163C 116.594,161.301 116.261,159.467 116.5,157.5C 113.885,156.357 111.218,155.524 108.5,155C 108.043,155.414 107.709,155.914 107.5,156.5C 110.573,157.197 112.573,159.03 113.5,162C 112.328,162.419 111.328,163.085 110.5,164C 105.449,164.492 100.449,164.492 95.5,164C 93.771,165.789 93.1043,167.956 93.5,170.5C 97.1974,169.992 100.864,169.326 104.5,168.5C 104.808,170.924 104.474,173.257 103.5,175.5C 102.197,174.282 101.197,174.615 100.5,176.5C 99.7492,175.624 99.2492,174.624 99,173.5C 98.5,174 98,174.5 97.5,175C 98.4231,177.041 98.7564,179.208 98.5,181.5C 99.5,181.5 100.5,181.5 101.5,181.5C 101.5,182.5 101.5,183.5 101.5,184.5C 102.5,184.5 103.5,184.5 104.5,184.5C 104.094,187.988 103.094,191.321 101.5,194.5C 103.146,195.66 104.979,196.327 107,196.5C 109.692,195.901 112.192,194.901 114.5,193.5C 115.737,193.556 116.737,194.056 117.5,195C 113.248,197.561 108.748,199.727 104,201.5C 103.29,200.027 102.124,199.36 100.5,199.5C 100.5,200.5 100.5,201.5 100.5,202.5C 104.146,203.283 107.812,203.45 111.5,203C 112.047,202.075 112.713,201.242 113.5,200.5C 114.696,200.846 114.696,201.346 113.5,202C 116.544,202.359 116.878,203.026 114.5,204C 117.191,205.605 119.858,207.105 122.5,208.5C 112.661,207.732 102.994,206.065 93.5,203.5C 94.1279,196.087 93.4612,189.087 91.5,182.5C 91.5,182.167 91.5,181.833 91.5,181.5C 90.9413,178.484 90.2746,175.484 89.5,172.5C 87.1416,169.73 84.8082,167.063 82.5,164.5C 75.6061,154.55 65.9394,149.55 53.5,149.5C 50.9746,149.503 48.6413,149.837 46.5,150.5C 41.3471,151.371 36.3471,152.704 31.5,154.5C 28.9682,149.774 27.3015,144.774 26.5,139.5C 25.7588,133.529 25.4255,127.529 25.5,121.5C 26.3382,121.842 26.6716,122.508 26.5,123.5C 26.4142,124.496 26.7476,125.329 27.5,126C 30.1677,126.567 32.8344,127.067 35.5,127.5C 37.6231,123.327 38.9565,118.827 39.5,114C 40.3396,112.829 41.1729,111.662 42,110.5C 42.3333,111.833 42.6667,113.167 43,114.5C 45.5022,108.669 47.3356,102.669 48.5,96.5C 49.5,96.5 50.5,96.5 51.5,96.5C 51.5,95.1667 51.5,93.8333 51.5,92.5C 52.8221,92.33 53.9887,92.6634 55,93.5C 55.4828,92.552 55.6495,91.552 55.5,90.5C 56.8333,90.5 58.1667,90.5 59.5,90.5C 59.7733,92.451 59.1066,93.951 57.5,95C 58.8544,96.2937 60.1877,96.4604 61.5,95.5C 62.2811,96.7287 62.7811,98.062 63,99.5C 64.2812,99.3808 65.4479,99.8808 66.5,101C 64.765,101.651 63.0983,101.485 61.5,100.5C 58.8333,101.5 58.8333,102.5 61.5,103.5C 63.4425,103.535 65.4425,103.202 67.5,102.5 Z"/></g>
<g><path style="opacity:1" fill="#831827" d="M 196.5,110.5 C 200.833,110.5 205.167,110.5 209.5,110.5C 214.217,111.183 217.884,113.517 220.5,117.5C 220.863,120.563 221.53,123.563 222.5,126.5C 220.756,129.489 219.423,132.655 218.5,136C 219.849,140.448 218.515,143.948 214.5,146.5C 211.006,148.003 207.672,147.67 204.5,145.5C 203.304,145.846 203.304,146.346 204.5,147C 199.684,148.027 195.35,147.027 191.5,144C 192.5,143.667 193.5,143.333 194.5,143C 191.469,142.556 188.802,141.389 186.5,139.5C 185.662,139.158 185.328,138.492 185.5,137.5C 185.549,134.626 185.216,131.792 184.5,129C 185.817,125.247 186.817,121.413 187.5,117.5C 188.211,115.97 189.211,114.637 190.5,113.5C 192.517,112.471 194.517,111.471 196.5,110.5 Z"/></g>
<g><path style="opacity:1" fill="#f4f1f0" d="M 200.5,120.5 C 209.553,120.132 212.22,123.965 208.5,132C 200.246,135.081 196.746,132.248 198,123.5C 199.045,122.627 199.878,121.627 200.5,120.5 Z"/></g>
<g><path style="opacity:1" fill="#8f2a13" d="M 187.5,117.5 C 186.817,121.413 185.817,125.247 184.5,129C 185.216,131.792 185.549,134.626 185.5,137.5C 184.778,137.082 184.278,136.416 184,135.5C 183.333,131.833 183.333,128.167 184,124.5C 184.522,121.719 185.689,119.385 187.5,117.5 Z"/></g>
<g><path style="opacity:1" fill="#811929" d="M 84.5,112.5 C 88.2198,112.564 91.8865,113.064 95.5,114C 94.1667,114.333 92.8333,114.667 91.5,115C 94,115.5 96.5,116 99,116.5C 104.322,114.585 105.488,115.918 102.5,120.5C 103.325,121.386 104.325,121.719 105.5,121.5C 106.651,124.836 106.818,128.169 106,131.5C 107.53,133.226 108.53,135.226 109,137.5C 111.015,135.522 110.848,133.688 108.5,132C 109.784,131.316 110.951,131.483 112,132.5C 112.497,134.81 112.663,137.143 112.5,139.5C 110.5,139.5 108.5,139.5 106.5,139.5C 106.5,140.5 106.5,141.5 106.5,142.5C 104.473,142.338 102.473,142.505 100.5,143C 99.1667,144 99.1667,145 100.5,146C 98.0284,148.084 95.6951,147.917 93.5,145.5C 92.3527,145.818 91.5194,146.484 91,147.5C 85.6215,146.282 81.1215,143.616 77.5,139.5C 75.526,132.135 76.1927,125.135 79.5,118.5C 80.325,117.614 81.325,117.281 82.5,117.5C 82.3915,115.486 83.0582,113.82 84.5,112.5 Z"/></g>
<g><path style="opacity:1" fill="#f6eff0" d="M 91.5,120.5 C 98.7988,119.371 101.965,122.371 101,129.5C 97.3524,134.331 93.3524,134.665 89,130.5C 87.8613,126.579 88.6946,123.246 91.5,120.5 Z"/></g>
<g><path style="opacity:1" fill="#941a0f" d="M 17.5,110.5 C 17.5,111.5 17.5,112.5 17.5,113.5C 16.0227,117.233 15.1894,121.233 15,125.5C 14.5003,133.159 14.3336,140.826 14.5,148.5C 13.2302,137.307 13.3969,125.974 15,114.5C 15.6082,112.934 16.4415,111.6 17.5,110.5 Z"/></g>
<g><path style="opacity:0.991" fill="#7c2e33" d="M 289.5,90.5 C 290.558,91.6002 291.392,92.9336 292,94.5C 294.52,102.607 297.02,110.607 299.5,118.5C 299.5,131.5 299.5,144.5 299.5,157.5C 298.167,161.167 296.833,164.833 295.5,168.5C 297.722,150.515 297.888,132.515 296,114.5C 295.185,112.377 294.185,110.377 293,108.5C 291.638,102.594 290.472,96.5945 289.5,90.5 Z"/></g>
<g><path style="opacity:1" fill="#8b251f" d="M 155.5,131.5 C 151.833,131.5 148.167,131.5 144.5,131.5C 144.649,132.552 144.483,133.552 144,134.5C 142.719,134.381 141.552,134.881 140.5,136C 141.167,136.333 141.833,136.667 142.5,137C 138.87,137.271 137.87,138.938 139.5,142C 138.874,142.75 138.374,143.584 138,144.5C 136.757,142.167 135.091,141.5 133,142.5C 131.171,148.122 131.005,153.789 132.5,159.5C 130.133,156.32 129.133,152.653 129.5,148.5C 132.278,133.78 140.945,128.113 155.5,131.5 Z"/></g>
<g><path style="opacity:1" fill="#f95724" d="M 270.5,86.5 C 286.606,115.003 288.772,144.67 277,175.5C 274.554,179.394 272.388,183.394 270.5,187.5C 269.833,187.833 269.167,188.167 268.5,188.5C 268.337,186.143 268.503,183.81 269,181.5C 269.71,180.027 270.876,179.36 272.5,179.5C 272.317,177.064 272.984,174.897 274.5,173C 273.484,172.481 272.818,171.647 272.5,170.5C 275.352,167.778 276.519,164.444 276,160.5C 274.644,161.38 273.144,161.714 271.5,161.5C 271.501,165.206 269.835,167.539 266.5,168.5C 266.33,169.822 266.663,170.989 267.5,172C 264.7,173.309 262.033,174.809 259.5,176.5C 259.12,178.021 258.954,179.687 259,181.5C 255.5,183.667 252.667,186.5 250.5,190C 247.141,192.542 243.808,192.708 240.5,190.5C 236.741,190.631 235.408,192.297 236.5,195.5C 235.482,196.852 234.149,197.852 232.5,198.5C 233.506,199.396 233.506,200.062 232.5,200.5C 229.475,199.217 226.475,198.884 223.5,199.5C 224.025,200.192 224.692,200.692 225.5,201C 225.167,201.333 224.833,201.667 224.5,202C 221.691,202.312 219.024,201.812 216.5,200.5C 232.283,194.563 245.783,185.23 257,172.5C 260.296,166.373 263.796,160.373 267.5,154.5C 268.508,152.456 269.508,150.456 270.5,148.5C 271.75,148.423 272.583,147.756 273,146.5C 273.538,141.829 274.038,137.162 274.5,132.5C 275.5,132.5 276.5,132.5 277.5,132.5C 278.511,135.532 279.678,138.532 281,141.5C 281.318,137.805 281.818,134.138 282.5,130.5C 281.696,128.864 280.696,127.364 279.5,126C 279.269,123.425 279.602,120.759 280.5,118C 279.051,113.301 277.885,108.468 277,103.5C 275.16,102.167 274.66,102.334 275.5,104C 273.917,107.16 272.417,106.993 271,103.5C 270.9,100.563 270.067,97.8961 268.5,95.5C 269.933,92.667 270.6,89.667 270.5,86.5 Z"/></g>
<g><path style="opacity:1" fill="#89231c" d="M 186.5,139.5 C 188.802,141.389 191.469,142.556 194.5,143C 193.5,143.333 192.5,143.667 191.5,144C 195.35,147.027 199.684,148.027 204.5,147C 203.304,146.346 203.304,145.846 204.5,145.5C 207.672,147.67 211.006,148.003 214.5,146.5C 212.615,148.311 210.281,149.478 207.5,150C 197.683,151.666 190.683,148.166 186.5,139.5 Z"/></g>
<g><path style="opacity:1" fill="#87201d" d="M 77.5,139.5 C 81.1215,143.616 85.6215,146.282 91,147.5C 91.5194,146.484 92.3527,145.818 93.5,145.5C 95.6951,147.917 98.0284,148.084 100.5,146C 99.1667,145 99.1667,144 100.5,143C 102.473,142.505 104.473,142.338 106.5,142.5C 106.5,141.5 106.5,140.5 106.5,139.5C 108.5,139.5 110.5,139.5 112.5,139.5C 111.272,142.075 109.605,144.408 107.5,146.5C 99.2389,151.577 90.9055,151.743 82.5,147C 79.758,145.114 78.0913,142.614 77.5,139.5 Z"/></g>
<g><path style="opacity:1" fill="#feab25" d="M 205.5,181.5 C 205.5,188.5 205.5,195.5 205.5,202.5C 199.715,204.308 193.715,205.808 187.5,207C 168.223,209.028 148.889,209.861 129.5,209.5C 127.194,209.007 124.861,208.674 122.5,208.5C 119.858,207.105 117.191,205.605 114.5,204C 116.878,203.026 116.544,202.359 113.5,202C 114.696,201.346 114.696,200.846 113.5,200.5C 112.713,201.242 112.047,202.075 111.5,203C 107.812,203.45 104.146,203.283 100.5,202.5C 100.5,201.5 100.5,200.5 100.5,199.5C 102.124,199.36 103.29,200.027 104,201.5C 108.748,199.727 113.248,197.561 117.5,195C 116.737,194.056 115.737,193.556 114.5,193.5C 112.192,194.901 109.692,195.901 107,196.5C 104.979,196.327 103.146,195.66 101.5,194.5C 103.094,191.321 104.094,187.988 104.5,184.5C 103.5,184.5 102.5,184.5 101.5,184.5C 101.5,183.5 101.5,182.5 101.5,181.5C 100.5,181.5 99.5,181.5 98.5,181.5C 98.7564,179.208 98.4231,177.041 97.5,175C 98,174.5 98.5,174 99,173.5C 99.2492,174.624 99.7492,175.624 100.5,176.5C 101.197,174.615 102.197,174.282 103.5,175.5C 104.474,173.257 104.808,170.924 104.5,168.5C 100.864,169.326 97.1974,169.992 93.5,170.5C 93.1043,167.956 93.771,165.789 95.5,164C 100.449,164.492 105.449,164.492 110.5,164C 111.328,163.085 112.328,162.419 113.5,162C 112.573,159.03 110.573,157.197 107.5,156.5C 107.709,155.914 108.043,155.414 108.5,155C 111.218,155.524 113.885,156.357 116.5,157.5C 116.261,159.467 116.594,161.301 117.5,163C 120.093,162.573 122.593,162.406 125,162.5C 125.75,163.126 126.584,163.626 127.5,164C 124.455,167.683 125.121,170.183 129.5,171.5C 129.5,173.5 129.5,175.5 129.5,177.5C 131.604,177.799 133.604,177.466 135.5,176.5C 133.675,173.648 131.675,170.982 129.5,168.5C 133.62,169.694 137.953,169.694 142.5,168.5C 148.654,168.9 154.654,168.233 160.5,166.5C 162.628,165.043 164.962,164.043 167.5,163.5C 166.982,166.36 165.316,168.36 162.5,169.5C 162.833,169.833 163.167,170.167 163.5,170.5C 167.393,169.219 171.227,167.886 175,166.5C 176.338,167.506 177.671,168.506 179,169.5C 181.046,166.551 180.379,164.218 177,162.5C 176.517,161.552 176.351,160.552 176.5,159.5C 177.833,159.5 179.167,159.5 180.5,159.5C 180.351,160.552 180.517,161.552 181,162.5C 181.494,160.866 181.66,159.199 181.5,157.5C 183.288,157.785 184.955,157.452 186.5,156.5C 184.829,154.49 184.162,152.157 184.5,149.5C 185.5,149.5 186.5,149.5 187.5,149.5C 187.284,151.681 188.117,153.347 190,154.5C 190.563,148.659 191.73,148.326 193.5,153.5C 195.198,152.319 196.865,152.319 198.5,153.5C 196.328,154.205 194.328,155.205 192.5,156.5C 193.5,157.167 194.5,157.833 195.5,158.5C 195.291,159.086 194.957,159.586 194.5,160C 191.902,159.578 189.236,159.578 186.5,160C 186.167,160.333 185.833,160.667 185.5,161C 187.891,161.691 187.891,162.691 185.5,164C 191.004,164.83 196.337,164.33 201.5,162.5C 201.606,165.108 202.772,167.108 205,168.5C 206.11,166.963 207.61,166.297 209.5,166.5C 207.907,171.482 206.573,176.482 205.5,181.5 Z"/></g>
<g><path style="opacity:1" fill="#8e2a19" d="M 162.5,135.5 C 165.559,137.397 167.726,140.064 169,143.5C 171.636,152.506 169.136,159.506 161.5,164.5C 162.914,160.298 164.747,156.298 167,152.5C 167.767,148.406 167.434,144.406 166,140.5C 164.198,139.211 163.031,137.544 162.5,135.5 Z"/></g>
<g><path style="opacity:1" fill="#fdb398" d="M 82.5,164.5 C 80.3313,165.082 77.998,165.082 75.5,164.5C 76.4929,169.675 74.4929,171.509 69.5,170C 65.3973,167.85 62.7306,164.516 61.5,160C 58.3562,158.308 55.0229,157.142 51.5,156.5C 49.8103,154.481 48.1436,152.481 46.5,150.5C 48.6413,149.837 50.9746,149.503 53.5,149.5C 65.9394,149.55 75.6061,154.55 82.5,164.5 Z"/></g>
<g><path style="opacity:1" fill="#821825" d="M 155.5,131.5 C 158.614,131.555 160.948,132.888 162.5,135.5C 163.031,137.544 164.198,139.211 166,140.5C 167.434,144.406 167.767,148.406 167,152.5C 164.747,156.298 162.914,160.298 161.5,164.5C 157.77,165.797 153.936,166.797 150,167.5C 145.977,166.131 141.81,165.131 137.5,164.5C 135.5,163.167 133.833,161.5 132.5,159.5C 131.005,153.789 131.171,148.122 133,142.5C 135.091,141.5 136.757,142.167 138,144.5C 138.374,143.584 138.874,142.75 139.5,142C 137.87,138.938 138.87,137.271 142.5,137C 141.833,136.667 141.167,136.333 140.5,136C 141.552,134.881 142.719,134.381 144,134.5C 144.483,133.552 144.649,132.552 144.5,131.5C 148.167,131.5 151.833,131.5 155.5,131.5 Z"/></g>
<g><path style="opacity:1" fill="#f9a832" d="M 147.5,143.5 C 153.377,143.206 155.877,145.872 155,151.5C 151.333,156.833 147.667,156.833 144,151.5C 142.78,147.707 143.947,145.04 147.5,143.5 Z"/></g>
<g><path style="opacity:1" fill="#fdb295" d="M 252.5,149.5 C 252.5,149.833 252.5,150.167 252.5,150.5C 250.801,150.34 249.134,150.506 247.5,151C 248.973,151.71 249.64,152.876 249.5,154.5C 245.687,155.16 242.021,156.326 238.5,158C 235.484,162.38 232.484,166.714 229.5,171C 224.565,171.839 222.565,169.672 223.5,164.5C 221.8,164.374 220.3,163.707 219,162.5C 218.098,162.743 217.265,163.077 216.5,163.5C 217.543,160.944 219.21,158.777 221.5,157C 225.938,155.147 230.271,153.147 234.5,151C 240.407,149.639 246.407,149.139 252.5,149.5 Z"/></g>
<g><path style="opacity:1" fill="#fd9372" d="M 252.5,150.5 C 254.527,150.338 256.527,150.505 258.5,151C 261.072,153.287 264.072,154.453 267.5,154.5C 263.796,160.373 260.296,166.373 257,172.5C 245.783,185.23 232.283,194.563 216.5,200.5C 215.833,200.5 215.167,200.5 214.5,200.5C 211.5,201.167 208.5,201.833 205.5,202.5C 205.5,195.5 205.5,188.5 205.5,181.5C 207.64,177.366 209.473,173.033 211,168.5C 211.708,167.619 212.542,166.953 213.5,166.5C 211.764,170.043 210.431,173.709 209.5,177.5C 212.025,176.36 214.692,175.693 217.5,175.5C 217.34,177.199 217.506,178.866 218,180.5C 219.6,179.134 221.433,178.134 223.5,177.5C 224.23,175.994 224.563,174.66 224.5,173.5C 229.643,174.911 233.643,173.411 236.5,169C 242.168,165.78 248.001,162.947 254,160.5C 256.191,159.973 258.525,159.973 261,160.5C 261.711,158.633 261.211,157.133 259.5,156C 259.957,155.586 260.291,155.086 260.5,154.5C 257.999,152.624 255.332,151.291 252.5,150.5 Z"/></g>
<g><path style="opacity:1" fill="#8d2a12" d="M 137.5,164.5 C 141.81,165.131 145.977,166.131 150,167.5C 153.936,166.797 157.77,165.797 161.5,164.5C 161.167,165.167 160.833,165.833 160.5,166.5C 154.654,168.233 148.654,168.9 142.5,168.5C 140.651,167.407 138.984,166.074 137.5,164.5 Z"/></g>
<g><path style="opacity:1" fill="#fd9474" d="M 32.5,155.5 C 34.8862,156.298 37.2195,157.298 39.5,158.5C 40.086,158.291 40.586,157.957 41,157.5C 41.9803,158.981 43.147,160.315 44.5,161.5C 50.5893,163.379 56.2559,166.046 61.5,169.5C 61.1667,170.167 60.8333,170.833 60.5,171.5C 64.1124,172.547 67.7791,173.38 71.5,174C 71.6158,175.268 71.9491,176.602 72.5,178C 75.7836,179.467 78.7836,179.301 81.5,177.5C 82.3857,178.325 82.719,179.325 82.5,180.5C 84.6663,180.579 86.6663,181.246 88.5,182.5C 89.5837,182.315 90.5837,181.982 91.5,181.5C 91.5,181.833 91.5,182.167 91.5,182.5C 91.5,189.167 91.5,195.833 91.5,202.5C 85.6836,201.822 80.3503,199.988 75.5,197C 72.4055,196.286 69.4055,195.286 66.5,194C 59.7761,189.208 53.2761,184.041 47,178.5C 41.9791,172.472 37.3124,166.138 33,159.5C 32.51,158.207 32.3433,156.873 32.5,155.5 Z"/></g>
<g><path style="opacity:1" fill="#fda183" d="M 252.5,150.5 C 255.332,151.291 257.999,152.624 260.5,154.5C 260.291,155.086 259.957,155.586 259.5,156C 261.211,157.133 261.711,158.633 261,160.5C 258.525,159.973 256.191,159.973 254,160.5C 248.001,162.947 242.168,165.78 236.5,169C 233.643,173.411 229.643,174.911 224.5,173.5C 224.563,174.66 224.23,175.994 223.5,177.5C 221.433,178.134 219.6,179.134 218,180.5C 217.506,178.866 217.34,177.199 217.5,175.5C 214.692,175.693 212.025,176.36 209.5,177.5C 210.431,173.709 211.764,170.043 213.5,166.5C 214.5,165.5 215.5,164.5 216.5,163.5C 217.265,163.077 218.098,162.743 219,162.5C 220.3,163.707 221.8,164.374 223.5,164.5C 222.565,169.672 224.565,171.839 229.5,171C 232.484,166.714 235.484,162.38 238.5,158C 242.021,156.326 245.687,155.16 249.5,154.5C 249.64,152.876 248.973,151.71 247.5,151C 249.134,150.506 250.801,150.34 252.5,150.5 Z"/></g>
<g><path style="opacity:0.647" fill="#935151" d="M 295.5,168.5 C 295.472,171.916 294.472,174.916 292.5,177.5C 291.925,173.845 292.925,170.845 295.5,168.5 Z"/></g>
<g><path style="opacity:1" fill="#fda081" d="M 46.5,150.5 C 48.1436,152.481 49.8103,154.481 51.5,156.5C 55.0229,157.142 58.3562,158.308 61.5,160C 62.7306,164.516 65.3973,167.85 69.5,170C 74.4929,171.509 76.4929,169.675 75.5,164.5C 77.998,165.082 80.3313,165.082 82.5,164.5C 84.8082,167.063 87.1416,169.73 89.5,172.5C 90.2746,175.484 90.9413,178.484 91.5,181.5C 90.5837,181.982 89.5837,182.315 88.5,182.5C 86.6663,181.246 84.6663,180.579 82.5,180.5C 82.719,179.325 82.3857,178.325 81.5,177.5C 78.7836,179.301 75.7836,179.467 72.5,178C 71.9491,176.602 71.6158,175.268 71.5,174C 67.7791,173.38 64.1124,172.547 60.5,171.5C 60.8333,170.833 61.1667,170.167 61.5,169.5C 56.2559,166.046 50.5893,163.379 44.5,161.5C 43.147,160.315 41.9803,158.981 41,157.5C 40.586,157.957 40.086,158.291 39.5,158.5C 37.2195,157.298 34.8862,156.298 32.5,155.5C 31.8333,155.5 31.5,155.167 31.5,154.5C 36.3471,152.704 41.3471,151.371 46.5,150.5 Z"/></g>
<g><path style="opacity:1" fill="#fd501f" d="M 268.5,188.5 C 266.264,193.403 262.931,197.403 258.5,200.5C 256.803,202.305 255.97,204.639 256,207.5C 253.959,206.577 251.792,206.244 249.5,206.5C 249.5,207.5 249.5,208.5 249.5,209.5C 247.626,211.115 246.292,213.115 245.5,215.5C 243.801,215.34 242.134,215.506 240.5,216C 237.853,218.657 234.853,220.823 231.5,222.5C 223.89,219.36 216.89,220.36 210.5,225.5C 208.597,225.796 206.93,226.463 205.5,227.5C 205.167,227.5 204.833,227.5 204.5,227.5C 197.612,229.071 190.612,230.238 183.5,231C 182.614,232.615 181.614,234.115 180.5,235.5C 176.398,237.266 173.731,240.266 172.5,244.5C 171.5,244.5 170.5,244.5 169.5,244.5C 169.473,246.199 168.806,247.533 167.5,248.5C 163.178,251.663 159.678,255.663 157,260.5C 154.507,263.821 151.34,265.654 147.5,266C 141.92,259.255 135.92,253.089 129.5,247.5C 127.184,243.549 124.184,240.215 120.5,237.5C 119.363,234.494 117.197,232.494 114,231.5C 102.41,229.373 90.9099,227.04 79.5,224.5C 79.1667,224.5 78.8333,224.5 78.5,224.5C 73.1051,221.743 67.4384,219.243 61.5,217C 59.9069,216.051 58.5736,214.885 57.5,213.5C 57.3601,211.876 58.0267,210.71 59.5,210C 57.5172,208.111 55.1838,206.778 52.5,206C 53.7596,204.186 53.7596,202.353 52.5,200.5C 50.0034,199.422 48.3367,197.589 47.5,195C 45.8333,194.667 44.1667,194.333 42.5,194C 42.9574,193.586 43.2907,193.086 43.5,192.5C 50.374,190.695 56.7073,191.695 62.5,195.5C 64.3255,194.429 65.4921,195.096 66,197.5C 66.4955,199.473 66.6621,201.473 66.5,203.5C 69.2048,203.62 69.8715,202.62 68.5,200.5C 74.1277,197.967 76.7944,199.633 76.5,205.5C 81.557,205.132 86.557,204.465 91.5,203.5C 92.1667,203.5 92.8333,203.5 93.5,203.5C 102.994,206.065 112.661,207.732 122.5,208.5C 124.861,208.674 127.194,209.007 129.5,209.5C 152.43,211.123 175.43,210.29 198.5,207C 203.593,205.583 208.593,203.916 213.5,202C 214.056,201.617 214.389,201.117 214.5,200.5C 215.167,200.5 215.833,200.5 216.5,200.5C 219.024,201.812 221.691,202.312 224.5,202C 224.833,201.667 225.167,201.333 225.5,201C 224.692,200.692 224.025,200.192 223.5,199.5C 226.475,198.884 229.475,199.217 232.5,200.5C 233.506,200.062 233.506,199.396 232.5,198.5C 234.149,197.852 235.482,196.852 236.5,195.5C 235.408,192.297 236.741,190.631 240.5,190.5C 243.808,192.708 247.141,192.542 250.5,190C 252.667,186.5 255.5,183.667 259,181.5C 258.954,179.687 259.12,178.021 259.5,176.5C 262.033,174.809 264.7,173.309 267.5,172C 266.663,170.989 266.33,169.822 266.5,168.5C 269.835,167.539 271.501,165.206 271.5,161.5C 273.144,161.714 274.644,161.38 276,160.5C 276.519,164.444 275.352,167.778 272.5,170.5C 272.818,171.647 273.484,172.481 274.5,173C 272.984,174.897 272.317,177.064 272.5,179.5C 270.876,179.36 269.71,180.027 269,181.5C 268.503,183.81 268.337,186.143 268.5,188.5 Z"/></g>
<g><path style="opacity:1" fill="#fa5323" d="M 17.5,113.5 C 16.9844,118.229 16.9844,122.896 17.5,127.5C 18.1667,127.167 18.8333,126.833 19.5,126.5C 20.5237,127.853 21.857,128.52 23.5,128.5C 23.8816,132.446 24.8816,136.112 26.5,139.5C 27.3015,144.774 28.9682,149.774 31.5,154.5C 31.5,155.167 31.8333,155.5 32.5,155.5C 32.3433,156.873 32.51,158.207 33,159.5C 37.3124,166.138 41.9791,172.472 47,178.5C 53.2761,184.041 59.7761,189.208 66.5,194C 69.4055,195.286 72.4055,196.286 75.5,197C 80.3503,199.988 85.6836,201.822 91.5,202.5C 91.5,202.833 91.5,203.167 91.5,203.5C 86.557,204.465 81.557,205.132 76.5,205.5C 76.7944,199.633 74.1277,197.967 68.5,200.5C 69.8715,202.62 69.2048,203.62 66.5,203.5C 66.6621,201.473 66.4955,199.473 66,197.5C 65.4921,195.096 64.3255,194.429 62.5,195.5C 56.7073,191.695 50.374,190.695 43.5,192.5C 43.2907,193.086 42.9574,193.586 42.5,194C 44.1667,194.333 45.8333,194.667 47.5,195C 48.3367,197.589 50.0034,199.422 52.5,200.5C 53.7596,202.353 53.7596,204.186 52.5,206C 55.1838,206.778 57.5172,208.111 59.5,210C 58.0267,210.71 57.3601,211.876 57.5,213.5C 53.0507,212.075 49.0507,209.742 45.5,206.5C 28.3385,190.845 18.0051,171.512 14.5,148.5C 14.3336,140.826 14.5003,133.159 15,125.5C 15.1894,121.233 16.0227,117.233 17.5,113.5 Z"/></g>
<g><path style="opacity:0.49" fill="#8a4444" d="M 3.5,167.5 C 6.07203,173.359 8.57203,179.359 11,185.5C 12.9698,188.968 15.1365,192.301 17.5,195.5C 18.7202,194.289 19.8869,194.289 21,195.5C 20.1031,200.374 21.9365,204.041 26.5,206.5C 27.3219,208.139 27.9886,209.805 28.5,211.5C 15.5894,199.706 7.25607,185.039 3.5,167.5 Z"/></g>
<g><path style="opacity:1" fill="#7b3034" d="M 292.5,178.5 C 289.744,186.887 285.411,194.22 279.5,200.5C 279.357,198.738 279.691,197.071 280.5,195.5C 277.743,192.684 278.243,192.018 282,193.5C 282.483,192.552 282.649,191.552 282.5,190.5C 283.5,190.5 284.5,190.5 285.5,190.5C 286.538,186.882 287.705,183.215 289,179.5C 290.011,178.663 291.178,178.33 292.5,178.5 Z"/></g>
<g><path style="opacity:1" fill="#fa9b53" d="M 91.5,182.5 C 93.4612,189.087 94.1279,196.087 93.5,203.5C 92.8333,203.5 92.1667,203.5 91.5,203.5C 91.5,203.167 91.5,202.833 91.5,202.5C 91.5,195.833 91.5,189.167 91.5,182.5 Z"/></g>
<g><path style="opacity:1" fill="#a7241c" d="M 270.5,187.5 C 268.425,193.096 264.925,197.763 260,201.5C 259.502,204.817 259.335,208.15 259.5,211.5C 257.738,208.002 257.404,204.335 258.5,200.5C 262.931,197.403 266.264,193.403 268.5,188.5C 269.167,188.167 269.833,187.833 270.5,187.5 Z"/></g>
<g><path style="opacity:1" fill="#f3691e" d="M 214.5,200.5 C 214.389,201.117 214.056,201.617 213.5,202C 208.593,203.916 203.593,205.583 198.5,207C 175.43,210.29 152.43,211.123 129.5,209.5C 148.889,209.861 168.223,209.028 187.5,207C 193.715,205.808 199.715,204.308 205.5,202.5C 208.5,201.833 211.5,201.167 214.5,200.5 Z"/></g>
<g><path style="opacity:1" fill="#fc9e30" d="M 245.5,215.5 C 246.292,213.115 247.626,211.115 249.5,209.5C 250.708,208.766 252.041,208.433 253.5,208.5C 255.351,221.647 250.018,225.981 237.5,221.5C 240.202,219.502 242.869,217.502 245.5,215.5 Z"/></g>
<g><path style="opacity:1" fill="#7b212c" d="M 279.5,200.5 C 277.587,203.322 275.921,206.322 274.5,209.5C 277.229,219.011 278.729,228.677 279,238.5C 277.746,243.249 274.912,246.582 270.5,248.5C 270.665,245.15 270.498,241.817 270,238.5C 268.812,239.563 268.312,240.897 268.5,242.5C 266.173,242.247 264.173,242.914 262.5,244.5C 261.5,244 260.5,243.5 259.5,243C 261.332,242.252 262.999,241.252 264.5,240C 263.672,239.085 262.672,238.419 261.5,238C 263.567,237.464 265.401,237.964 267,239.5C 267.5,239 268,238.5 268.5,238C 265.801,236.423 265.134,234.257 266.5,231.5C 269.269,232.685 270.269,234.518 269.5,237C 270.448,237.483 271.448,237.649 272.5,237.5C 272.216,234.223 272.549,231.057 273.5,228C 272.128,225.467 271.128,222.8 270.5,220C 272.991,219.374 272.991,218.541 270.5,217.5C 271.52,215.568 271.687,213.568 271,211.5C 269.513,212.741 268.68,212.241 268.5,210C 268.833,209.167 269.167,208.333 269.5,207.5C 272.882,205.15 276.215,202.817 279.5,200.5 Z"/></g>
<g><path style="opacity:1" fill="#f75623" d="M 258.5,200.5 C 257.404,204.335 257.738,208.002 259.5,211.5C 260.929,218.842 262.262,226.175 263.5,233.5C 260.482,233.665 257.482,233.498 254.5,233C 246.246,230.716 237.913,228.883 229.5,227.5C 223.541,224.403 217.208,223.737 210.5,225.5C 216.89,220.36 223.89,219.36 231.5,222.5C 234.853,220.823 237.853,218.657 240.5,216C 242.134,215.506 243.801,215.34 245.5,215.5C 242.869,217.502 240.202,219.502 237.5,221.5C 250.018,225.981 255.351,221.647 253.5,208.5C 252.041,208.433 250.708,208.766 249.5,209.5C 249.5,208.5 249.5,207.5 249.5,206.5C 251.792,206.244 253.959,206.577 256,207.5C 255.97,204.639 256.803,202.305 258.5,200.5 Z"/></g>
<g><path style="opacity:1" fill="#803437" d="M 28.5,211.5 C 34.0532,213.768 39.0532,216.768 43.5,220.5C 44.209,221.404 45.209,221.737 46.5,221.5C 46.281,222.675 46.6143,223.675 47.5,224.5C 55.3114,227.234 62.3114,231.234 68.5,236.5C 52.8644,231.867 39.531,223.534 28.5,211.5 Z"/></g>
<g><path style="opacity:1" fill="#7d1828" d="M 78.5,224.5 C 78.8333,224.5 79.1667,224.5 79.5,224.5C 83.0468,226.808 87.0468,227.975 91.5,228C 94.2106,229.107 96.7106,230.607 99,232.5C 106.948,230.719 114.114,232.386 120.5,237.5C 124.184,240.215 127.184,243.549 129.5,247.5C 129.5,248.833 129.5,250.167 129.5,251.5C 128.5,251.5 127.5,251.5 126.5,251.5C 126.277,254.114 127.444,255.781 130,256.5C 131.487,255.747 131.654,254.914 130.5,254C 131.793,253.51 133.127,253.343 134.5,253.5C 134.5,254.5 134.5,255.5 134.5,256.5C 133.5,256.5 132.5,256.5 131.5,256.5C 130.986,258.512 130.82,260.512 131,262.5C 132.833,264.333 134.667,266.167 136.5,268C 139.69,268.332 141.69,266.832 142.5,263.5C 144.361,264.528 145.695,266.028 146.5,268C 148.891,268.287 151.224,268.787 153.5,269.5C 154.096,268.284 154.263,266.951 154,265.5C 156.094,263.473 158.427,261.806 161,260.5C 162.718,262.202 162.885,264.035 161.5,266C 163.246,266.471 164.913,267.138 166.5,268C 165.262,268.69 165.262,269.19 166.5,269.5C 166.5,270.5 166.5,271.5 166.5,272.5C 159.587,281.741 150.587,284.241 139.5,280C 129.3,269.155 118.967,258.321 108.5,247.5C 103.648,245.662 98.6482,244.329 93.5,243.5C 91.0364,242.257 88.3697,241.257 85.5,240.5C 86.5,239.833 87.5,239.167 88.5,238.5C 87.8333,238.167 87.1667,237.833 86.5,237.5C 80.5124,237.539 74.5124,237.206 68.5,236.5C 62.3114,231.234 55.3114,227.234 47.5,224.5C 46.6143,223.675 46.281,222.675 46.5,221.5C 45.209,221.737 44.209,221.404 43.5,220.5C 45.674,220.08 47.674,220.08 49.5,220.5C 51.2191,217.091 53.3858,216.758 56,219.5C 59.7804,218.264 63.2804,218.931 66.5,221.5C 65.4908,223.185 65.9908,224.518 68,225.5C 71.263,223.174 74.763,222.841 78.5,224.5 Z"/></g>
<g><path style="opacity:1" fill="#92181a" d="M 229.5,227.5 C 221.515,226.386 213.515,226.386 205.5,227.5C 206.93,226.463 208.597,225.796 210.5,225.5C 217.208,223.737 223.541,224.403 229.5,227.5 Z"/></g>
<g><path style="opacity:1" fill="#7f1626" d="M 249.5,48.5 C 251.792,48.2436 253.959,48.5769 256,49.5C 256.563,50.7248 256.23,51.7248 255,52.5C 254.086,51.3463 253.253,51.513 252.5,53C 255.396,54.6976 258.396,54.8643 261.5,53.5C 262.052,55.3307 262.052,56.9974 261.5,58.5C 262.628,59.2621 263.795,59.9288 265,60.5C 265.192,62.5767 265.692,64.5767 266.5,66.5C 267.439,64.9466 268.606,63.6133 270,62.5C 273.83,66.1534 276.663,70.4868 278.5,75.5C 279.766,76.3624 281.099,77.0291 282.5,77.5C 286.111,81.05 288.444,85.3833 289.5,90.5C 290.472,96.5945 291.638,102.594 293,108.5C 294.185,110.377 295.185,112.377 296,114.5C 297.888,132.515 297.722,150.515 295.5,168.5C 292.925,170.845 291.925,173.845 292.5,177.5C 292.5,177.833 292.5,178.167 292.5,178.5C 291.178,178.33 290.011,178.663 289,179.5C 287.705,183.215 286.538,186.882 285.5,190.5C 284.5,190.5 283.5,190.5 282.5,190.5C 282.649,191.552 282.483,192.552 282,193.5C 278.243,192.018 277.743,192.684 280.5,195.5C 279.691,197.071 279.357,198.738 279.5,200.5C 276.215,202.817 272.882,205.15 269.5,207.5C 269.167,208.333 268.833,209.167 268.5,210C 268.68,212.241 269.513,212.741 271,211.5C 271.687,213.568 271.52,215.568 270.5,217.5C 272.991,218.541 272.991,219.374 270.5,220C 271.128,222.8 272.128,225.467 273.5,228C 272.549,231.057 272.216,234.223 272.5,237.5C 271.448,237.649 270.448,237.483 269.5,237C 270.269,234.518 269.269,232.685 266.5,231.5C 265.134,234.257 265.801,236.423 268.5,238C 268,238.5 267.5,239 267,239.5C 265.401,237.964 263.567,237.464 261.5,238C 262.672,238.419 263.672,239.085 264.5,240C 262.999,241.252 261.332,242.252 259.5,243C 260.5,243.5 261.5,244 262.5,244.5C 264.173,242.914 266.173,242.247 268.5,242.5C 268.312,240.897 268.812,239.563 270,238.5C 270.498,241.817 270.665,245.15 270.5,248.5C 266.869,249.412 263.203,249.579 259.5,249C 246.649,245.665 233.649,242.832 220.5,240.5C 219.167,240.5 217.833,240.5 216.5,240.5C 206.987,240.811 197.654,242.145 188.5,244.5C 188.371,246.216 188.038,247.883 187.5,249.5C 183.816,250.517 181.483,252.85 180.5,256.5C 179.127,256.343 177.793,256.51 176.5,257C 177.167,257.333 177.833,257.667 178.5,258C 175.85,259.772 173.517,261.938 171.5,264.5C 170.311,265.429 168.978,265.762 167.5,265.5C 167.768,267.099 167.434,268.432 166.5,269.5C 165.262,269.19 165.262,268.69 166.5,268C 164.913,267.138 163.246,266.471 161.5,266C 162.885,264.035 162.718,262.202 161,260.5C 158.427,261.806 156.094,263.473 154,265.5C 154.263,266.951 154.096,268.284 153.5,269.5C 151.224,268.787 148.891,268.287 146.5,268C 145.695,266.028 144.361,264.528 142.5,263.5C 141.69,266.832 139.69,268.332 136.5,268C 134.667,266.167 132.833,264.333 131,262.5C 130.82,260.512 130.986,258.512 131.5,256.5C 132.5,256.5 133.5,256.5 134.5,256.5C 134.5,255.5 134.5,254.5 134.5,253.5C 133.127,253.343 131.793,253.51 130.5,254C 131.654,254.914 131.487,255.747 130,256.5C 127.444,255.781 126.277,254.114 126.5,251.5C 127.5,251.5 128.5,251.5 129.5,251.5C 129.5,250.167 129.5,248.833 129.5,247.5C 135.92,253.089 141.92,259.255 147.5,266C 151.34,265.654 154.507,263.821 157,260.5C 159.678,255.663 163.178,251.663 167.5,248.5C 168.552,248.649 169.552,248.483 170.5,248C 174.047,243.959 177.38,239.792 180.5,235.5C 182.564,235.238 183.897,234.071 184.5,232C 189.833,231.333 195.167,230.667 200.5,230C 202.066,229.392 203.4,228.558 204.5,227.5C 204.833,227.5 205.167,227.5 205.5,227.5C 213.515,226.386 221.515,226.386 229.5,227.5C 237.913,228.883 246.246,230.716 254.5,233C 257.482,233.498 260.482,233.665 263.5,233.5C 262.262,226.175 260.929,218.842 259.5,211.5C 259.335,208.15 259.502,204.817 260,201.5C 264.925,197.763 268.425,193.096 270.5,187.5C 272.388,183.394 274.554,179.394 277,175.5C 288.772,144.67 286.606,115.003 270.5,86.5C 265.91,78.5819 260.243,71.5819 253.5,65.5C 252.952,63.6064 251.952,61.9397 250.5,60.5C 250.709,59.914 251.043,59.414 251.5,59C 248.568,58.7046 246.568,57.2046 245.5,54.5C 246.467,52.2099 247.8,50.2099 249.5,48.5 Z"/></g>
<g><path style="opacity:1" fill="#941816" d="M 204.5,227.5 C 203.4,228.558 202.066,229.392 200.5,230C 195.167,230.667 189.833,231.333 184.5,232C 183.897,234.071 182.564,235.238 180.5,235.5C 181.614,234.115 182.614,232.615 183.5,231C 190.612,230.238 197.612,229.071 204.5,227.5 Z"/></g>
<g><path style="opacity:1" fill="#901a1d" d="M 79.5,224.5 C 90.9099,227.04 102.41,229.373 114,231.5C 117.197,232.494 119.363,234.494 120.5,237.5C 114.114,232.386 106.948,230.719 99,232.5C 96.7106,230.607 94.2106,229.107 91.5,228C 87.0468,227.975 83.0468,226.808 79.5,224.5 Z"/></g>
<g><path style="opacity:0.991" fill="#843338" d="M 68.5,236.5 C 74.5124,237.206 80.5124,237.539 86.5,237.5C 87.1667,237.833 87.8333,238.167 88.5,238.5C 87.5,239.167 86.5,239.833 85.5,240.5C 88.3697,241.257 91.0364,242.257 93.5,243.5C 87.4465,242.65 81.4465,241.483 75.5,240C 73.0748,238.787 70.7415,237.621 68.5,236.5 Z"/></g>
<g><path style="opacity:0.831" fill="#7c3034" d="M 216.5,240.5 C 208.726,242.74 200.726,244.574 192.5,246C 190.677,246.997 189.01,248.164 187.5,249.5C 188.038,247.883 188.371,246.216 188.5,244.5C 197.654,242.145 206.987,240.811 216.5,240.5 Z"/></g>
<g><path style="opacity:1" fill="#9f211c" d="M 180.5,235.5 C 177.38,239.792 174.047,243.959 170.5,248C 169.552,248.483 168.552,248.649 167.5,248.5C 168.806,247.533 169.473,246.199 169.5,244.5C 170.5,244.5 171.5,244.5 172.5,244.5C 173.731,240.266 176.398,237.266 180.5,235.5 Z"/></g>
<g><path style="opacity:0.243" fill="#843f3e" d="M 220.5,240.5 C 233.649,242.832 246.649,245.665 259.5,249C 263.203,249.579 266.869,249.412 270.5,248.5C 268.367,250.161 265.867,251.161 263,251.5C 248.526,248.508 234.359,244.841 220.5,240.5 Z"/></g>
<g><path style="opacity:0.929" fill="#833e42" d="M 187.5,249.5 C 180.863,257.472 173.863,265.139 166.5,272.5C 166.5,271.5 166.5,270.5 166.5,269.5C 167.434,268.432 167.768,267.099 167.5,265.5C 168.978,265.762 170.311,265.429 171.5,264.5C 173.517,261.938 175.85,259.772 178.5,258C 177.833,257.667 177.167,257.333 176.5,257C 177.793,256.51 179.127,256.343 180.5,256.5C 181.483,252.85 183.816,250.517 187.5,249.5 Z"/></g>
</svg>
