<?xml version="1.0" encoding="UTF-8"?>
<!DOCTYPE svg PUBLIC "-//W3C//DTD SVG 1.1//EN" "http://www.w3.org/Graphics/SVG/1.1/DTD/svg11.dtd">
<svg xmlns="http://www.w3.org/2000/svg" version="1.1" width="103px" height="102px" style="shape-rendering:geometricPrecision; text-rendering:geometricPrecision; image-rendering:optimizeQuality; fill-rule:evenodd; clip-rule:evenodd" xmlns:xlink="http://www.w3.org/1999/xlink">
<g><path style="opacity:1" fill="#89c1bd" d="M 35.5,0.5 C 36.5,0.5 37.5,0.5 38.5,0.5C 48.1724,0.333531 57.8391,0.500198 67.5,1C 71.6895,2.29797 75.6895,3.96463 79.5,6C 77.6079,6.97345 75.6079,7.64011 73.5,8C 74.8333,8.66667 74.8333,9.33333 73.5,10C 75.779,10.4728 77.779,11.4728 79.5,13C 76.5184,13.498 73.5184,13.6646 70.5,13.5C 60.8806,12.0027 52.7139,14.6694 46,21.5C 44.878,23.4068 44.0447,25.4068 43.5,27.5C 43.0673,31.5221 41.5673,35.1888 39,38.5C 38.2588,37.3595 37.4255,37.3595 36.5,38.5C 35.5481,36.9547 35.2148,35.288 35.5,33.5C 34.1667,33.5 32.8333,33.5 31.5,33.5C 32.5615,37.3514 32.5615,41.1848 31.5,45C 31.8198,46.6532 32.8198,47.6532 34.5,48C 31.5503,50.7879 28.217,52.9546 24.5,54.5C 23.8076,53.9747 23.3076,53.3081 23,52.5C 22.0206,54.3203 20.5206,55.487 18.5,56C 18.8333,56.3333 19.1667,56.6667 19.5,57C 15.3711,58.015 13.0377,60.6817 12.5,65C 11.2965,69.4221 10.4631,73.9221 10,78.5C 8.76366,76.6928 8.43033,74.6928 9,72.5C 8.68268,74.3008 8.01602,74.6341 7,73.5C 6.66667,75.5 6.33333,77.5 6,79.5C 5.13008,78.8921 4.63008,78.0588 4.5,77C 6.17215,73.8071 5.50549,72.9737 2.5,74.5C 1.25133,71.9127 0.251327,69.246 -0.5,66.5C -0.5,56.8333 -0.5,47.1667 -0.5,37.5C 0.18268,34.4841 1.18268,31.4841 2.5,28.5C 3.83333,28.8333 5.16667,29.1667 6.5,29.5C 18.6568,34.8475 27.1568,31.1808 32,18.5C 33.2948,13.3305 32.1281,8.8305 28.5,5C 30.8399,3.35872 33.1732,1.85872 35.5,0.5 Z"/></g>
<g><path style="opacity:1" fill="#dda85c" d="M 27.5,3.5 C 29.7092,10.8112 28.5425,17.4778 24,23.5C 19.3879,28.8889 13.5546,30.8889 6.5,29.5C 5.16667,29.1667 3.83333,28.8333 2.5,28.5C 3.176,24.8133 4.676,21.4799 7,18.5C 11.1994,13.9657 15.6994,9.79902 20.5,6C 22.6504,4.58859 24.9837,3.75526 27.5,3.5 Z"/></g>
<g><path style="opacity:1" fill="#e7c068" d="M 70.5,13.5 C 74.9319,15.8886 79.2652,18.5553 83.5,21.5C 83.5,21.8333 83.5,22.1667 83.5,22.5C 88.4052,35.5217 84.0719,44.0217 70.5,48C 65.4456,48.781 60.4456,48.6143 55.5,47.5C 52.8371,48.4764 50.5038,49.8097 48.5,51.5C 46.965,52.3543 45.6316,52.3543 44.5,51.5C 46.0999,49.1323 47.0999,46.4656 47.5,43.5C 44.3355,38.6644 43.0022,33.331 43.5,27.5C 44.0447,25.4068 44.878,23.4068 46,21.5C 52.7139,14.6694 60.8806,12.0027 70.5,13.5 Z"/></g>
<g><path style="opacity:1" fill="#8ac0bc" d="M 38.5,0.5 C 38.5,0.166667 38.5,-0.166667 38.5,-0.5C 48.8333,-0.5 59.1667,-0.5 69.5,-0.5C 88.0018,3.66699 99.0018,15.0003 102.5,33.5C 102.5,43.8333 102.5,54.1667 102.5,64.5C 101.193,68.0808 99.8594,71.7474 98.5,75.5C 96.7085,75.634 95.0418,75.3007 93.5,74.5C 91.0336,73.3659 88.367,73.1993 85.5,74C 84.0577,74.3768 83.0577,75.2101 82.5,76.5C 78.502,78.1443 76.1687,81.1443 75.5,85.5C 74.9528,87.5179 73.9528,89.3513 72.5,91C 72.8333,91.3333 73.1667,91.6667 73.5,92C 71.1093,92.2868 68.7759,92.7868 66.5,93.5C 64.9873,91.4645 64.3207,89.1312 64.5,86.5C 64.6106,83.3154 65.1106,80.3154 66,77.5C 60.9303,71.4192 55.4303,65.9192 49.5,61C 50.263,60.0565 51.263,59.5565 52.5,59.5C 56.3654,59.5553 60.3654,59.8886 64.5,60.5C 66.5,60.1667 68.5,59.8333 70.5,59.5C 67.6794,58.1582 67.8461,57.4916 71,57.5C 73.9902,59.534 76.9902,59.2006 80,56.5C 82.0408,57.4231 84.2075,57.7564 86.5,57.5C 84.644,51.6 86.9774,49.2667 93.5,50.5C 93.5,49.5 93.5,48.5 93.5,47.5C 94.5,47.5 95.5,47.5 96.5,47.5C 96.8266,42.7863 96.4933,38.1196 95.5,33.5C 94.914,33.7093 94.414,34.0426 94,34.5C 93.7391,31.3368 92.9057,28.3368 91.5,25.5C 91.6799,24.4461 92.0133,23.4461 92.5,22.5C 89.5299,20.4967 86.5299,20.1634 83.5,21.5C 79.2652,18.5553 74.9319,15.8886 70.5,13.5C 73.5184,13.6646 76.5184,13.498 79.5,13C 77.779,11.4728 75.779,10.4728 73.5,10C 74.8333,9.33333 74.8333,8.66667 73.5,8C 75.6079,7.64011 77.6079,6.97345 79.5,6C 75.6895,3.96463 71.6895,2.29797 67.5,1C 57.8391,0.500198 48.1724,0.333531 38.5,0.5 Z"/></g>
<g><path style="opacity:1" fill="#6f948f" d="M 35.5,0.5 C 33.1732,1.85872 30.8399,3.35872 28.5,5C 32.1281,8.8305 33.2948,13.3305 32,18.5C 27.1568,31.1808 18.6568,34.8475 6.5,29.5C 13.5546,30.8889 19.3879,28.8889 24,23.5C 28.5425,17.4778 29.7092,10.8112 27.5,3.5C 29.8478,1.90277 32.5145,0.902769 35.5,0.5 Z"/></g>
<g><path style="opacity:1" fill="#dbd0c6" d="M 63.5,28.5 C 63.7778,30.3464 63.1112,31.6798 61.5,32.5C 59.8888,31.6798 59.2222,30.3464 59.5,28.5C 60.8333,27.1667 62.1667,27.1667 63.5,28.5 Z"/></g>
<g><path style="opacity:1" fill="#d4c3ad" d="M 69.5,33.5 C 68.5,33.5 67.5,33.5 66.5,33.5C 66.5,31.8333 66.5,30.1667 66.5,28.5C 71.6458,27.1981 72.6458,28.8648 69.5,33.5 Z"/></g>
<g><path style="opacity:1" fill="#87c0bc" d="M 75.5,85.5 C 75.5,87.8333 75.5,90.1667 75.5,92.5C 75.6309,93.3764 75.2975,94.0431 74.5,94.5C 72.9017,93.5153 71.235,93.3486 69.5,94C 69.4632,96.7151 67.7965,98.3818 64.5,99C 55.5,99.6667 46.5,99.6667 37.5,99C 37.9817,97.9916 38.1484,96.825 38,95.5C 39.2917,96.7911 40.4583,96.7911 41.5,95.5C 49.8673,96.0057 56.0339,92.6723 60,85.5C 60.6667,83.5 60.6667,81.5 60,79.5C 56.0244,74.3572 51.5244,69.6906 46.5,65.5C 48.2362,62.0005 47.5696,59.0005 44.5,56.5C 44.9767,55.5224 45.6433,54.6891 46.5,54C 44.8333,53.6667 43.1667,53.3333 41.5,53C 42.5266,52.4867 43.5266,51.9867 44.5,51.5C 45.6316,52.3543 46.965,52.3543 48.5,51.5C 49.3764,51.3691 50.0431,51.7025 50.5,52.5C 49.5,53.8333 48.5,55.1667 47.5,56.5C 48,56.8333 48.5,57.1667 49,57.5C 51.1113,56.5279 53.2779,55.6946 55.5,55C 61.1667,54.6667 66.8333,54.3333 72.5,54C 87.8943,51.0118 93.3943,42.1785 89,27.5C 87.5736,25.2342 85.7402,23.5676 83.5,22.5C 83.5,22.1667 83.5,21.8333 83.5,21.5C 86.5299,20.1634 89.5299,20.4967 92.5,22.5C 92.0133,23.4461 91.6799,24.4461 91.5,25.5C 92.9057,28.3368 93.7391,31.3368 94,34.5C 94.414,34.0426 94.914,33.7093 95.5,33.5C 96.4933,38.1196 96.8266,42.7863 96.5,47.5C 95.5,47.5 94.5,47.5 93.5,47.5C 93.5,48.5 93.5,49.5 93.5,50.5C 86.9774,49.2667 84.644,51.6 86.5,57.5C 84.2075,57.7564 82.0408,57.4231 80,56.5C 76.9902,59.2006 73.9902,59.534 71,57.5C 67.8461,57.4916 67.6794,58.1582 70.5,59.5C 68.5,59.8333 66.5,60.1667 64.5,60.5C 60.3654,59.8886 56.3654,59.5553 52.5,59.5C 51.263,59.5565 50.263,60.0565 49.5,61C 55.4303,65.9192 60.9303,71.4192 66,77.5C 65.1106,80.3154 64.6106,83.3154 64.5,86.5C 64.3207,89.1312 64.9873,91.4645 66.5,93.5C 68.7759,92.7868 71.1093,92.2868 73.5,92C 73.1667,91.6667 72.8333,91.3333 72.5,91C 73.9528,89.3513 74.9528,87.5179 75.5,85.5 Z"/></g>
<g><path style="opacity:1" fill="#8bbfb9" d="M 43.5,27.5 C 43.0022,33.331 44.3355,38.6644 47.5,43.5C 47.0999,46.4656 46.0999,49.1323 44.5,51.5C 43.5266,51.9867 42.5266,52.4867 41.5,53C 43.1667,53.3333 44.8333,53.6667 46.5,54C 45.6433,54.6891 44.9767,55.5224 44.5,56.5C 47.5696,59.0005 48.2362,62.0005 46.5,65.5C 45.078,64.075 43.4113,63.075 41.5,62.5C 32.4917,56.3765 24.325,57.3765 17,65.5C 15.1421,72.6961 16.9754,78.6961 22.5,83.5C 27.2742,89.9358 33.6076,93.9358 41.5,95.5C 40.4583,96.7911 39.2917,96.7911 38,95.5C 38.1484,96.825 37.9817,97.9916 37.5,99C 46.5,99.6667 55.5,99.6667 64.5,99C 67.7965,98.3818 69.4632,96.7151 69.5,94C 71.235,93.3486 72.9017,93.5153 74.5,94.5C 75.2975,94.0431 75.6309,93.3764 75.5,92.5C 76.4511,93.9187 76.7845,95.5853 76.5,97.5C 70.4482,99.0588 64.4482,100.392 58.5,101.5C 52.8333,101.5 47.1667,101.5 41.5,101.5C 31.9894,100.609 22.9894,97.776 14.5,93C 8.63336,87.9815 4.63336,81.8149 2.5,74.5C 5.50549,72.9737 6.17215,73.8071 4.5,77C 4.63008,78.0588 5.13008,78.8921 6,79.5C 6.33333,77.5 6.66667,75.5 7,73.5C 8.01602,74.6341 8.68268,74.3008 9,72.5C 8.43033,74.6928 8.76366,76.6928 10,78.5C 10.4631,73.9221 11.2965,69.4221 12.5,65C 13.0377,60.6817 15.3711,58.015 19.5,57C 19.1667,56.6667 18.8333,56.3333 18.5,56C 20.5206,55.487 22.0206,54.3203 23,52.5C 23.3076,53.3081 23.8076,53.9747 24.5,54.5C 28.217,52.9546 31.5503,50.7879 34.5,48C 32.8198,47.6532 31.8198,46.6532 31.5,45C 32.5615,41.1848 32.5615,37.3514 31.5,33.5C 32.8333,33.5 34.1667,33.5 35.5,33.5C 35.2148,35.288 35.5481,36.9547 36.5,38.5C 37.4255,37.3595 38.2588,37.3595 39,38.5C 41.5673,35.1888 43.0673,31.5221 43.5,27.5 Z"/></g>
<g><path style="opacity:1" fill="#c9a662" d="M 59.5,28.5 C 59.2222,30.3464 59.8888,31.6798 61.5,32.5C 63.1112,31.6798 63.7778,30.3464 63.5,28.5C 64.5,29.8333 65.5,29.8333 66.5,28.5C 66.5,30.1667 66.5,31.8333 66.5,33.5C 67.5,33.5 68.5,33.5 69.5,33.5C 69.9228,36.2431 68.7561,37.5765 66,37.5C 64.0289,37.5317 62.5289,36.6984 61.5,35C 62.5,34.6667 63.5,34.3333 64.5,34C 62.5273,33.5045 60.5273,33.3379 58.5,33.5C 58.2155,31.5853 58.5489,29.9187 59.5,28.5 Z"/></g>
<g><path style="opacity:1" fill="#6c938f" d="M 83.5,22.5 C 85.7402,23.5676 87.5736,25.2342 89,27.5C 93.3943,42.1785 87.8943,51.0118 72.5,54C 66.8333,54.3333 61.1667,54.6667 55.5,55C 53.2779,55.6946 51.1113,56.5279 49,57.5C 48.5,57.1667 48,56.8333 47.5,56.5C 48.5,55.1667 49.5,53.8333 50.5,52.5C 50.0431,51.7025 49.3764,51.3691 48.5,51.5C 50.5038,49.8097 52.8371,48.4764 55.5,47.5C 60.4456,48.6143 65.4456,48.781 70.5,48C 84.0719,44.0217 88.4052,35.5217 83.5,22.5 Z"/></g>
<g><path style="opacity:1" fill="#dc433c" d="M 41.5,62.5 C 46.0087,69.5995 45.0087,75.9328 38.5,81.5C 37.6816,84.1071 37.1816,86.7737 37,89.5C 35.7592,91.4206 34.2592,91.754 32.5,90.5C 33.3482,88.5914 33.6816,86.5914 33.5,84.5C 29.7657,84.6773 26.0991,84.3439 22.5,83.5C 16.9754,78.6961 15.1421,72.6961 17,65.5C 24.325,57.3765 32.4917,56.3765 41.5,62.5 Z"/></g>
<g><path style="opacity:1" fill="#f0c1bd" d="M 23.5,71.5 C 26.9571,71.6672 27.2904,72.6672 24.5,74.5C 23.6143,73.675 23.281,72.675 23.5,71.5 Z"/></g>
<g><path style="opacity:1" fill="#e6b0ae" d="M 33.5,69.5 C 34.5,69.5 35.5,69.5 36.5,69.5C 36.5,70.5 36.5,71.5 36.5,72.5C 35.5,72.5 34.5,72.5 33.5,72.5C 33.5,71.5 33.5,70.5 33.5,69.5 Z"/></g>
<g><path style="opacity:1" fill="#efbcb4" d="M 28.5,70.5 C 29.5,70.5 30.5,70.5 31.5,70.5C 31.5,71.5 31.5,72.5 31.5,73.5C 30.5,73.5 29.5,73.5 28.5,73.5C 28.5,72.5 28.5,71.5 28.5,70.5 Z"/></g>
<g><path style="opacity:1" fill="#6a9291" d="M 41.5,62.5 C 43.4113,63.075 45.078,64.075 46.5,65.5C 51.5244,69.6906 56.0244,74.3572 60,79.5C 60.6667,81.5 60.6667,83.5 60,85.5C 56.0339,92.6723 49.8673,96.0057 41.5,95.5C 33.6076,93.9358 27.2742,89.9358 22.5,83.5C 26.0991,84.3439 29.7657,84.6773 33.5,84.5C 33.6816,86.5914 33.3482,88.5914 32.5,90.5C 34.2592,91.754 35.7592,91.4206 37,89.5C 37.1816,86.7737 37.6816,84.1071 38.5,81.5C 45.0087,75.9328 46.0087,69.5995 41.5,62.5 Z"/></g>
<g><path style="opacity:1" fill="#c0c18c" d="M 93.5,74.5 C 89.6814,74.414 86.0148,75.0807 82.5,76.5C 83.0577,75.2101 84.0577,74.3768 85.5,74C 88.367,73.1993 91.0336,73.3659 93.5,74.5 Z"/></g>
<g><path style="opacity:0.987" fill="#e7c069" d="M 93.5,74.5 C 95.0418,75.3007 96.7085,75.634 98.5,75.5C 94.1411,85.8589 86.8078,93.1923 76.5,97.5C 76.7845,95.5853 76.4511,93.9187 75.5,92.5C 75.5,90.1667 75.5,87.8333 75.5,85.5C 76.1687,81.1443 78.502,78.1443 82.5,76.5C 86.0148,75.0807 89.6814,74.414 93.5,74.5 Z"/></g>
</svg>
