<?xml version="1.0" encoding="UTF-8"?>
<!DOCTYPE svg PUBLIC "-//W3C//DTD SVG 1.1//EN" "http://www.w3.org/Graphics/SVG/1.1/DTD/svg11.dtd">
<svg xmlns="http://www.w3.org/2000/svg" version="1.1" width="91px" height="117px" style="shape-rendering:geometricPrecision; text-rendering:geometricPrecision; image-rendering:optimizeQuality; fill-rule:evenodd; clip-rule:evenodd" xmlns:xlink="http://www.w3.org/1999/xlink">
<g><path style="opacity:1" fill="#f2c811" d="M 62.5,-0.5 C 70.5,-0.5 78.5,-0.5 86.5,-0.5C 87.6935,0.271873 88.6935,1.27187 89.5,2.5C 89.5,7.16667 89.5,11.8333 89.5,16.5C 88.1779,16.33 87.0113,16.6634 86,17.5C 85.8195,14.3054 85.3195,11.3054 84.5,8.5C 58.3386,7.50217 32.0053,7.16884 5.5,7.5C 5.5,19.5 5.5,31.5 5.5,43.5C 31.6614,44.4978 57.9947,44.8312 84.5,44.5C 84.5,45.5 84.5,46.5 84.5,47.5C 57.9947,47.1688 31.6614,47.5022 5.5,48.5C 5.5,51.5 5.5,54.5 5.5,57.5C 5.17023,74.0085 5.50356,90.3419 6.5,106.5C 7.08806,108.205 7.4214,109.872 7.5,111.5C 13.7084,112.545 19.7084,112.545 25.5,111.5C 26.2975,111.957 26.6309,112.624 26.5,113.5C 18.4931,113.666 10.4931,113.5 2.5,113C 1.87424,112.25 1.37424,111.416 1,110.5C 0.50005,91.1695 0.333383,71.8362 0.5,52.5C 0.333403,36.1633 0.500069,19.8299 1,3.5C 1.83333,2.66667 2.66667,1.83333 3.5,1C 23.3376,0.831818 43.0043,0.331818 62.5,-0.5 Z"/></g>
<g><path style="opacity:1" fill="#28554e" d="M 84.5,8.5 C 84.5,20.1667 84.5,31.8333 84.5,43.5C 58.1667,43.5 31.8333,43.5 5.5,43.5C 5.5,31.5 5.5,19.5 5.5,7.5C 32.0053,7.16884 58.3386,7.50217 84.5,8.5 Z"/></g>
<g><path style="opacity:1" fill="#09628f" d="M 10.5,8.5 C 34.8333,8.5 59.1667,8.5 83.5,8.5C 83.5,19.1667 83.5,29.8333 83.5,40.5C 82.1667,40.5 80.8333,40.5 79.5,40.5C 79.7828,39.7109 80.2828,39.0442 81,38.5C 81.1667,34.1667 81.3333,29.8333 81.5,25.5C 81.4661,20.7457 80.7994,16.2457 79.5,12C 56.1667,11.3333 32.8333,11.3333 9.5,12C 8.5161,20.7489 8.18277,29.5822 8.5,38.5C 7.5062,29.0144 7.17287,19.3478 7.5,9.5C 8.79105,9.73731 9.79105,9.40397 10.5,8.5 Z"/></g>
<g><path style="opacity:0.415" fill="#c2c93f" d="M 2.5,-0.5 C 22.5,-0.5 42.5,-0.5 62.5,-0.5C 43.0043,0.331818 23.3376,0.831818 3.5,1C 2.66667,1.83333 1.83333,2.66667 1,3.5C 0.500069,19.8299 0.333403,36.1633 0.5,52.5C 0.166667,52.5 -0.166667,52.5 -0.5,52.5C -0.5,35.8333 -0.5,19.1667 -0.5,2.5C 0.833333,1.83333 1.83333,0.833333 2.5,-0.5 Z"/></g>
<g><path style="opacity:1" fill="#1f9fe1" d="M 79.5,40.5 C 56.1643,40.6666 32.831,40.5 9.5,40C 8.94404,39.6174 8.61071,39.1174 8.5,38.5C 8.18277,29.5822 8.5161,20.7489 9.5,12C 32.8333,11.3333 56.1667,11.3333 79.5,12C 80.7994,16.2457 81.4661,20.7457 81.5,25.5C 81.3333,29.8333 81.1667,34.1667 81,38.5C 80.2828,39.0442 79.7828,39.7109 79.5,40.5 Z"/></g>
<g><path style="opacity:1" fill="#bdd7e3" d="M 13.5,20.5 C 34.1694,20.3334 54.836,20.5 75.5,21C 77.407,25.5184 78.0736,30.3517 77.5,35.5C 55.8333,35.5 34.1667,35.5 12.5,35.5C 12.2213,30.4053 12.5546,25.4053 13.5,20.5 Z"/></g>
<g><path style="opacity:1" fill="#fcfefd" d="M 14.5,22.5 C 34.8333,22.5 55.1667,22.5 75.5,22.5C 75.5,26.5 75.5,30.5 75.5,34.5C 55.1667,34.5 34.8333,34.5 14.5,34.5C 14.5,30.5 14.5,26.5 14.5,22.5 Z"/></g>
<g><path style="opacity:1" fill="#1ba7e7" d="M 69.5,13.5 C 70.609,13.5569 71.609,13.8902 72.5,14.5C 72.5,15.8333 72.5,17.1667 72.5,18.5C 77.42,19.585 79.0866,17.9183 77.5,13.5C 79.3567,15.2607 80.3567,17.594 80.5,20.5C 79.0389,25.5323 78.0389,30.5323 77.5,35.5C 78.0736,30.3517 77.407,25.5184 75.5,21C 54.836,20.5 34.1694,20.3334 13.5,20.5C 12.448,20.6495 11.448,20.4828 10.5,20C 11.7468,18.5421 11.7468,17.0421 10.5,15.5C 10.9569,14.7025 11.6236,14.3691 12.5,14.5C 12.5,15.5 12.5,16.5 12.5,17.5C 15.8499,17.665 19.1832,17.4983 22.5,17C 20.8333,16.6667 19.1667,16.3333 17.5,16C 26.1667,15.8333 34.8333,15.6667 43.5,15.5C 52.6618,15.5278 61.6618,16.1945 70.5,17.5C 70.8333,17.1667 71.1667,16.8333 71.5,16.5C 70.8075,15.4822 70.1408,14.4822 69.5,13.5 Z"/></g>
<g><path style="opacity:1" fill="#9cd6e7" d="M 77.5,13.5 C 79.0866,17.9183 77.42,19.585 72.5,18.5C 72.5,17.1667 72.5,15.8333 72.5,14.5C 73.9187,13.5489 75.5853,13.2155 77.5,13.5 Z"/></g>
<g><path style="opacity:1" fill="#7ed3e6" d="M 69.5,13.5 C 70.1408,14.4822 70.8075,15.4822 71.5,16.5C 71.1667,16.8333 70.8333,17.1667 70.5,17.5C 61.6618,16.1945 52.6618,15.5278 43.5,15.5C 34.8333,15.6667 26.1667,15.8333 17.5,16C 19.1667,16.3333 20.8333,16.6667 22.5,17C 19.1832,17.4983 15.8499,17.665 12.5,17.5C 12.5,16.5 12.5,15.5 12.5,14.5C 31.4536,13.5251 50.4536,13.1918 69.5,13.5 Z"/></g>
<g><path style="opacity:1" fill="#105378" d="M 10.5,8.5 C 9.79105,9.40397 8.79105,9.73731 7.5,9.5C 7.17287,19.3478 7.5062,29.0144 8.5,38.5C 8.61071,39.1174 8.94404,39.6174 9.5,40C 32.831,40.5 56.1643,40.6666 79.5,40.5C 80.8333,40.5 82.1667,40.5 83.5,40.5C 58.1884,42.4908 32.5217,43.1575 6.5,42.5C 6.5,31.1667 6.5,19.8333 6.5,8.5C 7.83333,8.5 9.16667,8.5 10.5,8.5 Z"/></g>
<g><path style="opacity:1" fill="#cc4f3d" d="M 5.5,48.5 C 31.8333,48.5 58.1667,48.5 84.5,48.5C 84.5,51.5 84.5,54.5 84.5,57.5C 83.1667,57.5 81.8333,57.5 80.5,57.5C 80.5858,56.5041 80.2524,55.6708 79.5,55C 72.5,54.3333 65.5,54.3333 58.5,55C 57.7476,55.6708 57.4142,56.5041 57.5,57.5C 55.8333,57.5 54.1667,57.5 52.5,57.5C 52.5,56.5 52.5,55.5 52.5,54.5C 46.4908,54.3338 40.4908,54.5005 34.5,55C 33.7476,55.6708 33.4142,56.5041 33.5,57.5C 31.8333,57.5 30.1667,57.5 28.5,57.5C 28.5858,56.5041 28.2524,55.6708 27.5,55C 21.8333,54.3333 16.1667,54.3333 10.5,55C 9.74756,55.6708 9.41423,56.5041 9.5,57.5C 8.5,57.5 7.5,57.5 6.5,57.5C 6.16667,57.5 5.83333,57.5 5.5,57.5C 5.5,54.5 5.5,51.5 5.5,48.5 Z"/></g>
<g><path style="opacity:1" fill="#f2c117" d="M 28.5,57.5 C 31.1809,66.807 27.8475,70.807 18.5,69.5C 15.8333,69.1667 13.1667,68.8333 10.5,68.5C 9.57412,64.9062 9.24079,61.2396 9.5,57.5C 9.41423,56.5041 9.74756,55.6708 10.5,55C 16.1667,54.3333 21.8333,54.3333 27.5,55C 28.2524,55.6708 28.5858,56.5041 28.5,57.5 Z"/></g>
<g><path style="opacity:1" fill="#f6c80e" d="M 80.5,57.5 C 76.4822,58.3413 72.8156,60.008 69.5,62.5C 72.9553,64.1722 76.2886,65.8389 79.5,67.5C 79.5,68.1667 79.1667,68.5 78.5,68.5C 72.0738,67.88 66.0738,68.5467 60.5,70.5C 60.5,70.8333 60.5,71.1667 60.5,71.5C 59.5,72.1667 58.5,72.8333 57.5,73.5C 56.3509,73.2089 55.6842,72.3756 55.5,71C 57.2465,66.7382 57.9132,62.2382 57.5,57.5C 57.4142,56.5041 57.7476,55.6708 58.5,55C 65.5,54.3333 72.5,54.3333 79.5,55C 80.2524,55.6708 80.5858,56.5041 80.5,57.5 Z"/></g>
<g><path style="opacity:1" fill="#f3c215" d="M 52.5,57.5 C 55.1809,66.807 51.8475,70.807 42.5,69.5C 39.5794,69.4765 36.746,69.1432 34,68.5C 33.5014,64.8484 33.3347,61.1817 33.5,57.5C 33.4142,56.5041 33.7476,55.6708 34.5,55C 40.4908,54.5005 46.4908,54.3338 52.5,54.5C 52.5,55.5 52.5,56.5 52.5,57.5 Z"/></g>
<g><path style="opacity:1" fill="#d59129" d="M 80.5,57.5 C 80.8128,61.0419 80.4794,64.3752 79.5,67.5C 76.2886,65.8389 72.9553,64.1722 69.5,62.5C 72.8156,60.008 76.4822,58.3413 80.5,57.5 Z"/></g>
<g><path style="opacity:1" fill="#31767f" d="M 6.5,57.5 C 7.5,57.5 8.5,57.5 9.5,57.5C 9.24079,61.2396 9.57412,64.9062 10.5,68.5C 13.1667,68.8333 15.8333,69.1667 18.5,69.5C 27.8475,70.807 31.1809,66.807 28.5,57.5C 30.1667,57.5 31.8333,57.5 33.5,57.5C 33.3347,61.1817 33.5014,64.8484 34,68.5C 36.746,69.1432 39.5794,69.4765 42.5,69.5C 51.8475,70.807 55.1809,66.807 52.5,57.5C 54.1667,57.5 55.8333,57.5 57.5,57.5C 57.9132,62.2382 57.2465,66.7382 55.5,71C 55.6842,72.3756 56.3509,73.2089 57.5,73.5C 57.8226,77.226 57.4892,80.8927 56.5,84.5C 54.5635,85.9541 52.8968,87.6207 51.5,89.5C 45.8236,89.3339 40.1569,89.5006 34.5,90C 34,90.5 33.5,91 33,91.5C 32.7083,95.882 32.2083,100.215 31.5,104.5C 30.8333,104.833 30.1667,105.167 29.5,105.5C 21.8333,105.5 14.1667,105.5 6.5,105.5C 6.5,89.5 6.5,73.5 6.5,57.5 Z"/></g>
<g><path style="opacity:1" fill="#c79036" d="M 89.5,2.5 C 89.8333,2.5 90.1667,2.5 90.5,2.5C 90.5,38.8333 90.5,75.1667 90.5,111.5C 89.5,112.167 88.5,112.833 87.5,113.5C 86.1667,113.5 84.8333,113.5 83.5,113.5C 84.388,110.946 84.7214,108.279 84.5,105.5C 84.5,89.5 84.5,73.5 84.5,57.5C 84.5,54.5 84.5,51.5 84.5,48.5C 58.1667,48.5 31.8333,48.5 5.5,48.5C 31.6614,47.5022 57.9947,47.1688 84.5,47.5C 84.5,46.5 84.5,45.5 84.5,44.5C 57.9947,44.8312 31.6614,44.4978 5.5,43.5C 31.8333,43.5 58.1667,43.5 84.5,43.5C 84.5,31.8333 84.5,20.1667 84.5,8.5C 85.3195,11.3054 85.8195,14.3054 86,17.5C 87.0113,16.6634 88.1779,16.33 89.5,16.5C 89.5,11.8333 89.5,7.16667 89.5,2.5 Z"/></g>
<g><path style="opacity:1" fill="#8d913b" d="M 78.5,68.5 C 72.6008,69.2049 66.6008,69.8716 60.5,70.5C 66.0738,68.5467 72.0738,67.88 78.5,68.5 Z"/></g>
<g><path style="opacity:1" fill="#216c85" d="M 80.5,57.5 C 81.8333,57.5 83.1667,57.5 84.5,57.5C 84.5,73.5 84.5,89.5 84.5,105.5C 84.1667,105.5 83.8333,105.5 83.5,105.5C 75.7572,106.13 68.4238,105.463 61.5,103.5C 67.1764,103.666 72.8431,103.499 78.5,103C 80.0591,101.004 80.7258,98.6709 80.5,96C 80.4644,93.9063 80.1311,91.9063 79.5,90C 73.1754,89.5005 66.8421,89.3338 60.5,89.5C 60.5569,88.391 60.8902,87.391 61.5,86.5C 67.561,86.7904 73.561,86.4571 79.5,85.5C 80.6599,81.5411 80.8265,77.5411 80,73.5C 79.6174,72.944 79.1174,72.6107 78.5,72.5C 72.69,71.5104 66.69,71.1771 60.5,71.5C 60.5,71.1667 60.5,70.8333 60.5,70.5C 66.6008,69.8716 72.6008,69.2049 78.5,68.5C 79.1667,68.5 79.5,68.1667 79.5,67.5C 80.4794,64.3752 80.8128,61.0419 80.5,57.5 Z"/></g>
<g><path style="opacity:1" fill="#508056" d="M 5.5,57.5 C 5.83333,57.5 6.16667,57.5 6.5,57.5C 6.5,73.5 6.5,89.5 6.5,105.5C 14.1667,105.5 21.8333,105.5 29.5,105.5C 22.0182,106.492 14.3516,106.825 6.5,106.5C 5.50356,90.3419 5.17023,74.0085 5.5,57.5 Z"/></g>
<g><path style="opacity:1" fill="#9daf57" d="M 26.5,72.5 C 21.4889,72.3341 16.4889,72.5007 11.5,73C 10.5363,77.0659 10.203,81.2325 10.5,85.5C 9.17711,81.0999 9.17711,76.5999 10.5,72C 16.0164,71.1826 21.3497,71.3493 26.5,72.5 Z"/></g>
<g><path style="opacity:1" fill="#f2c319" d="M 52.5,85.5 C 46.8936,86.4069 41.227,86.7402 35.5,86.5C 34.8333,86.1667 34.1667,85.8333 33.5,85.5C 33.2307,81.0685 33.564,76.7352 34.5,72.5C 39.6503,71.3493 44.9836,71.1826 50.5,72C 51,72.5 51.5,73 52,73.5C 52.4988,77.4862 52.6655,81.4862 52.5,85.5 Z"/></g>
<g><path style="opacity:1" fill="#07aff7" d="M 78.5,72.5 C 79.1174,72.6107 79.6174,72.944 80,73.5C 80.8265,77.5411 80.6599,81.5411 79.5,85.5C 73.561,86.4571 67.561,86.7904 61.5,86.5C 59.5698,82.6273 58.9031,78.294 59.5,73.5C 65.7889,72.6279 72.1222,72.2946 78.5,72.5 Z"/></g>
<g><path style="opacity:1" fill="#f8c40f" d="M 26.5,72.5 C 27.1174,72.6107 27.6174,72.944 28,73.5C 31.4366,83.3577 28.1033,87.6911 18,86.5C 15.3097,86.4971 12.8097,86.1638 10.5,85.5C 10.203,81.2325 10.5363,77.0659 11.5,73C 16.4889,72.5007 21.4889,72.3341 26.5,72.5 Z"/></g>
<g><path style="opacity:1" fill="#5a935f" d="M 34.5,72.5 C 33.564,76.7352 33.2307,81.0685 33.5,85.5C 32.8373,83.5274 32.5039,81.3608 32.5,79C 32.5332,76.3897 33.1999,74.223 34.5,72.5 Z"/></g>
<g><path style="opacity:1" fill="#40664e" d="M 52.5,85.5 C 52.3893,86.1174 52.056,86.6174 51.5,87C 45.9836,87.8174 40.6503,87.6507 35.5,86.5C 41.227,86.7402 46.8936,86.4069 52.5,85.5 Z"/></g>
<g><path style="opacity:1" fill="#3399ae" d="M 60.5,71.5 C 66.69,71.1771 72.69,71.5104 78.5,72.5C 72.1222,72.2946 65.7889,72.6279 59.5,73.5C 58.9031,78.294 59.5698,82.6273 61.5,86.5C 60.8902,87.391 60.5569,88.391 60.5,89.5C 59.5151,93.6344 59.1818,97.9677 59.5,102.5C 59.1667,102.5 58.8333,102.5 58.5,102.5C 58.6653,98.8183 58.4986,95.1516 58,91.5C 56.4485,103.75 55.1151,104.083 54,92.5C 53.6174,91.944 53.1174,91.6107 52.5,91.5C 52.1667,90.8333 51.8333,90.1667 51.5,89.5C 52.8968,87.6207 54.5635,85.9541 56.5,84.5C 57.4892,80.8927 57.8226,77.226 57.5,73.5C 58.5,72.8333 59.5,72.1667 60.5,71.5 Z"/></g>
<g><path style="opacity:1" fill="#09aef4" d="M 60.5,89.5 C 66.8421,89.3338 73.1754,89.5005 79.5,90C 80.1311,91.9063 80.4644,93.9063 80.5,96C 80.7258,98.6709 80.0591,101.004 78.5,103C 72.8431,103.499 67.1764,103.666 61.5,103.5C 61.1667,103.5 60.8333,103.5 60.5,103.5C 59.8333,103.5 59.5,103.167 59.5,102.5C 59.1818,97.9677 59.5151,93.6344 60.5,89.5 Z"/></g>
<g><path style="opacity:1" fill="#e64f38" d="M 26.5,90.5 C 27.8333,94.5 27.8333,98.5 26.5,102.5C 21.5,102.5 16.5,102.5 11.5,102.5C 11.5,98.5 11.5,94.5 11.5,90.5C 16.5,90.5 21.5,90.5 26.5,90.5 Z"/></g>
<g><path style="opacity:1" fill="#e4c428" d="M 51.5,89.5 C 51.8333,90.1667 52.1667,90.8333 52.5,91.5C 52.815,95.3714 52.4816,99.0381 51.5,102.5C 50.4324,103.434 49.099,103.768 47.5,103.5C 43.8333,103.5 40.1667,103.5 36.5,103.5C 36.5,104.5 36.5,105.5 36.5,106.5C 35.5429,103.85 33.8762,103.183 31.5,104.5C 32.2083,100.215 32.7083,95.882 33,91.5C 33.5,91 34,90.5 34.5,90C 40.1569,89.5006 45.8236,89.3339 51.5,89.5 Z"/></g>
<g><path style="opacity:1" fill="#fcc406" d="M 51.5,102.5 C 46.1667,102.5 40.8333,102.5 35.5,102.5C 35.0833,99.9208 35.75,97.7542 37.5,96C 36.8333,95.3333 36.1667,94.6667 35.5,94C 38.9593,94.7344 39.2926,93.7344 36.5,91C 41.419,90.1985 46.2523,90.3651 51,91.5C 51.4986,95.1516 51.6653,98.8183 51.5,102.5 Z"/></g>
<g><path style="opacity:1" fill="#cf7456" d="M 26.5,90.5 C 21.5,90.5 16.5,90.5 11.5,90.5C 11.5,94.5 11.5,98.5 11.5,102.5C 16.5,102.5 21.5,102.5 26.5,102.5C 21.3497,103.651 16.0164,103.817 10.5,103C 9.16667,98.6667 9.16667,94.3333 10.5,90C 16.0164,89.1826 21.3497,89.3493 26.5,90.5 Z"/></g>
<g><path style="opacity:1" fill="#3f766e" d="M 52.5,91.5 C 53.1174,91.6107 53.6174,91.944 54,92.5C 55.1151,104.083 56.4485,103.75 58,91.5C 58.4986,95.1516 58.6653,98.8183 58.5,102.5C 57.0209,103.759 55.3542,104.759 53.5,105.5C 48.1563,105.666 42.8229,105.499 37.5,105C 41.0252,104.821 44.3586,104.321 47.5,103.5C 49.099,103.768 50.4324,103.434 51.5,102.5C 52.4816,99.0381 52.815,95.3714 52.5,91.5 Z"/></g>
<g><path style="opacity:1" fill="#627e49" d="M 60.5,103.5 C 60.8333,103.5 61.1667,103.5 61.5,103.5C 68.4238,105.463 75.7572,106.13 83.5,105.5C 76.0182,106.492 68.3516,106.825 60.5,106.5C 60.5,105.5 60.5,104.5 60.5,103.5 Z"/></g>
<g><path style="opacity:1" fill="#f7cb0a" d="M 58.5,102.5 C 58.8333,102.5 59.1667,102.5 59.5,102.5C 59.5,103.167 59.8333,103.5 60.5,103.5C 60.5,104.5 60.5,105.5 60.5,106.5C 68.3516,106.825 76.0182,106.492 83.5,105.5C 83.8333,105.5 84.1667,105.5 84.5,105.5C 84.7214,108.279 84.388,110.946 83.5,113.5C 64.5,113.5 45.5,113.5 26.5,113.5C 26.6309,112.624 26.2975,111.957 25.5,111.5C 19.7084,112.545 13.7084,112.545 7.5,111.5C 7.4214,109.872 7.08806,108.205 6.5,106.5C 14.3516,106.825 22.0182,106.492 29.5,105.5C 30.1667,105.167 30.8333,104.833 31.5,104.5C 33.8762,103.183 35.5429,103.85 36.5,106.5C 42.358,106.822 48.0247,106.489 53.5,105.5C 55.3542,104.759 57.0209,103.759 58.5,102.5 Z"/></g>
<g><path style="opacity:1" fill="#5d7545" d="M 47.5,103.5 C 44.3586,104.321 41.0252,104.821 37.5,105C 42.8229,105.499 48.1563,105.666 53.5,105.5C 48.0247,106.489 42.358,106.822 36.5,106.5C 36.5,105.5 36.5,104.5 36.5,103.5C 40.1667,103.5 43.8333,103.5 47.5,103.5 Z"/></g>
<g><path style="opacity:0.988" fill="#e1a722" d="M -0.5,52.5 C -0.166667,52.5 0.166667,52.5 0.5,52.5C 0.333383,71.8362 0.50005,91.1695 1,110.5C 1.37424,111.416 1.87424,112.25 2.5,113C 10.4931,113.5 18.4931,113.666 26.5,113.5C 45.5,113.5 64.5,113.5 83.5,113.5C 57.0052,114.498 30.3386,114.831 3.5,114.5C 1.56954,114.229 0.236209,113.229 -0.5,111.5C -0.5,91.8333 -0.5,72.1667 -0.5,52.5 Z"/></g>
<g><path style="opacity:0.481" fill="#7d693b" d="M 83.5,113.5 C 84.8333,113.5 86.1667,113.5 87.5,113.5C 85.4116,115.02 83.0783,116.02 80.5,116.5C 67.1667,116.5 53.8333,116.5 40.5,116.5C 39.8333,115.167 39.1667,115.167 38.5,116.5C 35.1667,116.5 31.8333,116.5 28.5,116.5C 20.1667,115.833 11.8333,115.167 3.5,114.5C 30.3386,114.831 57.0052,114.498 83.5,113.5 Z"/></g>
</svg>
