<?xml version="1.0" encoding="UTF-8"?>
<!DOCTYPE svg PUBLIC "-//W3C//DTD SVG 1.1//EN" "http://www.w3.org/Graphics/SVG/1.1/DTD/svg11.dtd">
<svg xmlns="http://www.w3.org/2000/svg" version="1.1" width="300px" height="300px" style="shape-rendering:geometricPrecision; text-rendering:geometricPrecision; image-rendering:optimizeQuality; fill-rule:evenodd; clip-rule:evenodd" xmlns:xlink="http://www.w3.org/1999/xlink">
<g><path style="opacity:0.941" fill="#343d3d" d="M 49.5,-0.5 C 115.833,-0.5 182.167,-0.5 248.5,-0.5C 253.079,0.858315 257.746,2.35832 262.5,4C 263.571,4.85175 264.571,5.68509 265.5,6.5C 258.725,5.32317 252.058,3.82317 245.5,2C 180.167,1.33333 114.833,1.33333 49.5,2C 44.482,4.33923 39.1486,5.50589 33.5,5.5C 38.4914,2.50399 43.8248,0.503988 49.5,-0.5 Z"/></g>
<g><path style="opacity:0.797" fill="#251627" d="M 292.5,38.5 C 294.011,41.5443 294.678,44.8776 294.5,48.5C 294.832,113.669 294.499,178.669 293.5,243.5C 293.5,181.5 293.5,119.5 293.5,57.5C 293.1,51.171 292.767,44.8376 292.5,38.5 Z"/></g>
<g><path style="opacity:1" fill="#092c3d" d="M 265.5,6.5 C 279.557,12.891 288.557,23.5576 292.5,38.5C 292.767,44.8376 293.1,51.171 293.5,57.5C 292.667,121.332 292.167,185.332 292,249.5C 292.178,241.335 291.011,233.501 288.5,226C 288.747,169.633 289.08,112.966 289.5,56C 288.751,54.2663 288.251,52.433 288,50.5C 287.019,56.864 286.519,56.5306 286.5,49.5C 285.167,49.5 283.833,49.5 282.5,49.5C 282.024,45.5831 281.024,41.9165 279.5,38.5C 275.051,28.2176 267.718,20.7176 257.5,16C 254.043,14.2565 250.377,13.2565 246.5,13C 239.508,12.5004 232.508,12.3337 225.5,12.5C 224.5,12.5 223.5,12.5 222.5,12.5C 202.5,12.5 182.5,12.5 162.5,12.5C 124.165,12.3333 85.8319,12.5 47.5,13C 27.629,19.3573 16.9623,32.8573 15.5,53.5C 15.5,69.1667 15.5,84.8333 15.5,100.5C 15.5,150.167 15.5,199.833 15.5,249.5C 13.9826,249.489 12.8159,248.823 12,247.5C 11.6667,244.833 11.3333,242.167 11,239.5C 10.4412,243.186 9.7745,246.853 9,250.5C 8.48006,219.439 8.64673,188.439 9.5,157.5C 8.74217,150.862 8.24217,144.196 8,137.5C 7.5,137 7,136.5 6.5,136C 7.38153,125.733 7.38153,115.4 6.5,105C 7.30017,100.92 7.80017,96.7533 8,92.5C 8.33333,96.8333 8.66667,101.167 9,105.5C 9.35363,89.8247 9.35363,74.158 9,58.5C 9.48696,55.3629 10.6536,52.5296 12.5,50C 12.6063,47.4644 12.1063,44.9644 11,42.5C 10.1072,43.7112 9.2739,43.7112 8.5,42.5C 11.6688,40.0156 14.0021,36.8489 15.5,33C 15.1667,32.5 14.8333,32 14.5,31.5C 10.0315,32.4869 7.36481,35.1536 6.5,39.5C 6.5,38.1667 6.5,36.8333 6.5,35.5C 11.3159,21.6865 20.3159,11.6865 33.5,5.5C 39.1486,5.50589 44.482,4.33923 49.5,2C 114.833,1.33333 180.167,1.33333 245.5,2C 252.058,3.82317 258.725,5.32317 265.5,6.5 Z"/></g>
<g><path style="opacity:1" fill="#325168" d="M 279.5,38.5 C 281.024,41.9165 282.024,45.5831 282.5,49.5C 282.5,75.8333 282.5,102.167 282.5,128.5C 280.952,128.179 280.285,127.179 280.5,125.5C 279.448,125.649 278.448,125.483 277.5,125C 273.43,121.791 270.43,117.958 268.5,113.5C 266.857,106.352 262.523,101.518 255.5,99C 241.837,98.5001 228.171,98.3334 214.5,98.5C 215.568,97.5655 216.901,97.2322 218.5,97.5C 218.67,96.1779 218.337,95.0113 217.5,94C 221.662,93.4589 225.828,92.9589 230,92.5C 232.352,92.3049 234.352,92.9716 236,94.5C 239.033,93.7113 242.033,92.7113 245,91.5C 246.226,91.6448 247.393,91.9781 248.5,92.5C 249.817,90.8409 251.483,89.6743 253.5,89C 252.542,87.8525 252.875,86.8525 254.5,86C 257.656,85.0628 260.489,83.5628 263,81.5C 266.777,76.3354 270.277,71.6687 273.5,67.5C 272.272,65.8241 270.939,65.4908 269.5,66.5C 270.798,58.8204 270.798,51.1538 269.5,43.5C 271.708,42.977 273.208,41.6437 274,39.5C 275,40.8333 276,40.8333 277,39.5C 278.22,41.8572 279.053,41.5239 279.5,38.5 Z"/></g>
<g><path style="opacity:1" fill="#062a3c" d="M 159.5,22.5 C 160.167,22.5 160.833,22.5 161.5,22.5C 161.423,23.7498 160.756,24.5831 159.5,25C 153.317,25.3233 147.15,25.8233 141,26.5C 139.033,26.4581 137.199,25.9581 135.5,25C 108.76,24.3227 82.0932,24.656 55.5,26C 54.2842,27.7398 52.6175,28.7398 50.5,29C 51.7375,29.2321 52.7375,29.7321 53.5,30.5C 51.597,30.7959 49.9303,31.4625 48.5,32.5C 38.9981,36.8712 34.6648,44.3712 35.5,55C 35.5022,58.0208 35.8356,60.8541 36.5,63.5C 38.6281,71.9626 43.9615,76.9626 52.5,78.5C 116.665,79.6654 180.999,79.832 245.5,79C 250.815,78.0153 255.148,75.5153 258.5,71.5C 258.586,72.4959 258.252,73.3292 257.5,74C 258.749,75.98 260.082,77.8133 261.5,79.5C 257.42,83.2061 252.754,85.8728 247.5,87.5C 224.833,87.5 202.167,87.5 179.5,87.5C 136.165,87.6667 92.8321,87.5 49.5,87C 45.5277,85.6806 41.8611,83.8472 38.5,81.5C 29.1624,72.9366 25.4957,62.27 27.5,49.5C 28.038,44.4253 29.7046,39.7586 32.5,35.5C 36.7111,29.3906 42.3777,25.2239 49.5,23C 86.1652,22.5 122.832,22.3333 159.5,22.5 Z"/></g>
<g><path style="opacity:1" fill="#d3fbfd" d="M 51.5,37.5 C 116.332,36.9598 181.332,36.9598 246.5,37.5C 249.733,38.8947 252.233,41.228 254,44.5C 256.918,54.1206 255.751,63.1206 250.5,71.5C 247.328,74.5019 243.662,76.6686 239.5,78C 190.834,78.5 142.168,78.6667 93.5,78.5C 100.145,73.0851 106.479,67.2518 112.5,61C 114.025,59.9914 115.692,59.4914 117.5,59.5C 117.351,58.448 117.517,57.448 118,56.5C 124.517,50.6633 130.683,44.4967 136.5,38C 108.169,37.5 79.8353,37.3334 51.5,37.5 Z"/></g>
<g><path style="opacity:1" fill="#fbfdfc" d="M 51.5,37.5 C 79.8353,37.3334 108.169,37.5 136.5,38C 130.683,44.4967 124.517,50.6633 118,56.5C 117.517,57.448 117.351,58.448 117.5,59.5C 115.692,59.4914 114.025,59.9914 112.5,61C 106.479,67.2518 100.145,73.0851 93.5,78.5C 79.8333,78.5 66.1667,78.5 52.5,78.5C 43.9615,76.9626 38.6281,71.9626 36.5,63.5C 35.4902,56.2379 36.9902,49.5712 41,43.5C 44.3106,41.0969 47.8106,39.0969 51.5,37.5 Z"/></g>
<g><path style="opacity:1" fill="#ecf0e9" d="M 162.5,12.5 C 162.5,13.1667 162.833,13.5 163.5,13.5C 127.669,14.3325 91.669,14.8325 55.5,15C 41.675,18.6737 31.675,26.8404 25.5,39.5C 24.0364,43.0194 23.0364,46.6861 22.5,50.5C 20.0462,51.2271 17.7128,52.2271 15.5,53.5C 16.9623,32.8573 27.629,19.3573 47.5,13C 85.8319,12.5 124.165,12.3333 162.5,12.5 Z"/></g>
<g><path style="opacity:1" fill="#9bd5e4" d="M 53.5,30.5 C 117.168,30.3333 180.834,30.5 244.5,31C 252.324,32.1644 257.824,36.331 261,43.5C 263.617,53.2131 262.784,62.5464 258.5,71.5C 255.148,75.5153 250.815,78.0153 245.5,79C 180.999,79.832 116.665,79.6654 52.5,78.5C 66.1667,78.5 79.8333,78.5 93.5,78.5C 142.168,78.6667 190.834,78.5 239.5,78C 243.662,76.6686 247.328,74.5019 250.5,71.5C 255.751,63.1206 256.918,54.1206 254,44.5C 252.233,41.228 249.733,38.8947 246.5,37.5C 210.998,36.8333 175.331,36.1667 139.5,35.5C 141.167,34.3333 142.833,33.1667 144.5,32C 113.833,31.3333 83.1667,31.3333 52.5,32C 51.436,33.5106 50.1026,33.6772 48.5,32.5C 49.9303,31.4625 51.597,30.7959 53.5,30.5 Z"/></g>
<g><path style="opacity:1" fill="#c2ecf9" d="M 246.5,37.5 C 181.332,36.9598 116.332,36.9598 51.5,37.5C 47.8106,39.0969 44.3106,41.0969 41,43.5C 36.9902,49.5712 35.4902,56.2379 36.5,63.5C 35.8356,60.8541 35.5022,58.0208 35.5,55C 34.6648,44.3712 38.9981,36.8712 48.5,32.5C 50.1026,33.6772 51.436,33.5106 52.5,32C 83.1667,31.3333 113.833,31.3333 144.5,32C 142.833,33.1667 141.167,34.3333 139.5,35.5C 175.331,36.1667 210.998,36.8333 246.5,37.5 Z"/></g>
<g><path style="opacity:1" fill="#032b42" d="M 161.5,22.5 C 190.169,22.3334 218.835,22.5 247.5,23C 258.228,26.229 265.561,33.0623 269.5,43.5C 270.798,51.1538 270.798,58.8204 269.5,66.5C 268.083,71.6788 265.417,76.0121 261.5,79.5C 260.082,77.8133 258.749,75.98 257.5,74C 258.252,73.3292 258.586,72.4959 258.5,71.5C 262.784,62.5464 263.617,53.2131 261,43.5C 257.824,36.331 252.324,32.1644 244.5,31C 180.834,30.5 117.168,30.3333 53.5,30.5C 52.7375,29.7321 51.7375,29.2321 50.5,29C 52.6175,28.7398 54.2842,27.7398 55.5,26C 82.0932,24.656 108.76,24.3227 135.5,25C 137.199,25.9581 139.033,26.4581 141,26.5C 147.15,25.8233 153.317,25.3233 159.5,25C 160.756,24.5831 161.423,23.7498 161.5,22.5 Z"/></g>
<g><path style="opacity:1" fill="#506878" d="M 222.5,12.5 C 223.5,12.5 224.5,12.5 225.5,12.5C 226.706,13.8804 226.373,15.0471 224.5,16C 220.55,16.4622 216.716,17.2955 213,18.5C 205.742,17.8441 198.408,17.5108 191,17.5C 189.373,17.6251 187.873,18.1251 186.5,19C 197.317,19.378 207.651,19.878 217.5,20.5C 198.512,21.4996 179.512,21.8329 160.5,21.5C 161.82,19.1829 163.486,17.1829 165.5,15.5C 184.5,15.5 203.5,15.5 222.5,15.5C 222.5,14.5 222.5,13.5 222.5,12.5 Z"/></g>
<g><path style="opacity:1" fill="#405d73" d="M 225.5,12.5 C 232.508,12.3337 239.508,12.5004 246.5,13C 250.377,13.2565 254.043,14.2565 257.5,16C 267.718,20.7176 275.051,28.2176 279.5,38.5C 279.053,41.5239 278.22,41.8572 277,39.5C 276,40.8333 275,40.8333 274,39.5C 273.208,41.6437 271.708,42.977 269.5,43.5C 265.561,33.0623 258.228,26.229 247.5,23C 218.835,22.5 190.169,22.3334 161.5,22.5C 160.833,22.5 160.167,22.5 159.5,22.5C 159.5,21.8333 159.833,21.5 160.5,21.5C 179.512,21.8329 198.512,21.4996 217.5,20.5C 207.651,19.878 197.317,19.378 186.5,19C 187.873,18.1251 189.373,17.6251 191,17.5C 198.408,17.5108 205.742,17.8441 213,18.5C 216.716,17.2955 220.55,16.4622 224.5,16C 226.373,15.0471 226.706,13.8804 225.5,12.5 Z"/></g>
<g><path style="opacity:1" fill="#b7b3a8" d="M 163.5,13.5 C 182.836,13.3334 202.17,13.5 221.5,14C 202.662,14.1683 183.996,14.6683 165.5,15.5C 163.486,17.1829 161.82,19.1829 160.5,21.5C 159.833,21.5 159.5,21.8333 159.5,22.5C 122.832,22.3333 86.1652,22.5 49.5,23C 42.3777,25.2239 36.7111,29.3906 32.5,35.5C 30.0882,35.6941 29.0882,37.0274 29.5,39.5C 28.1667,39.5 26.8333,39.5 25.5,39.5C 31.675,26.8404 41.675,18.6737 55.5,15C 91.669,14.8325 127.669,14.3325 163.5,13.5 Z"/></g>
<g><path style="opacity:1" fill="#8a999e" d="M 162.5,12.5 C 182.5,12.5 202.5,12.5 222.5,12.5C 222.5,13.5 222.5,14.5 222.5,15.5C 203.5,15.5 184.5,15.5 165.5,15.5C 183.996,14.6683 202.662,14.1683 221.5,14C 202.17,13.5 182.836,13.3334 163.5,13.5C 162.833,13.5 162.5,13.1667 162.5,12.5 Z"/></g>
<g><path style="opacity:1" fill="#707d82" d="M 32.5,35.5 C 29.7046,39.7586 28.038,44.4253 27.5,49.5C 26.0278,52.2695 24.8611,55.2695 24,58.5C 23.5,79.4974 23.3334,100.497 23.5,121.5C 23.5,166.167 23.5,210.833 23.5,255.5C 23.1667,255.5 22.8333,255.5 22.5,255.5C 22.5,187.167 22.5,118.833 22.5,50.5C 23.0364,46.6861 24.0364,43.0194 25.5,39.5C 26.8333,39.5 28.1667,39.5 29.5,39.5C 29.0882,37.0274 30.0882,35.6941 32.5,35.5 Z"/></g>
<g><path style="opacity:1" fill="#032a40" d="M 15.5,249.5 C 15.5,251.5 15.5,253.5 15.5,255.5C 15.6567,256.873 15.49,258.207 15,259.5C 14.6667,258.833 14.3333,258.167 14,257.5C 13.6667,260.5 13.3333,263.5 13,266.5C 12.2904,267.973 11.1238,268.64 9.5,268.5C 9.32846,266.508 9.99512,264.842 11.5,263.5C 10.7112,261.512 9.54452,261.179 8,262.5C 7.86034,259.957 7.19367,257.623 6,255.5C 5.33333,186.167 5.33333,116.833 6,47.5C 7.8116,44.9543 7.97827,42.2877 6.5,39.5C 7.36481,35.1536 10.0315,32.4869 14.5,31.5C 14.8333,32 15.1667,32.5 15.5,33C 14.0021,36.8489 11.6688,40.0156 8.5,42.5C 9.2739,43.7112 10.1072,43.7112 11,42.5C 12.1063,44.9644 12.6063,47.4644 12.5,50C 10.6536,52.5296 9.48696,55.3629 9,58.5C 9.35363,74.158 9.35363,89.8247 9,105.5C 8.66667,101.167 8.33333,96.8333 8,92.5C 7.80017,96.7533 7.30017,100.92 6.5,105C 7.38153,115.4 7.38153,125.733 6.5,136C 7,136.5 7.5,137 8,137.5C 8.24217,144.196 8.74217,150.862 9.5,157.5C 8.64673,188.439 8.48006,219.439 9,250.5C 9.7745,246.853 10.4412,243.186 11,239.5C 11.3333,242.167 11.6667,244.833 12,247.5C 12.8159,248.823 13.9826,249.489 15.5,249.5 Z"/></g>
<g><path style="opacity:0.864" fill="#353c3b" d="M 6.5,35.5 C 6.5,36.8333 6.5,38.1667 6.5,39.5C 5.69088,41.2922 5.19088,43.2922 5,45.5C 4.33333,116.5 4.33333,187.5 5,258.5C 6.83666,262.67 8.00333,267.003 8.5,271.5C 5.39028,265.997 3.55695,259.997 3,253.5C 2.33333,185.167 2.33333,116.833 3,48.5C 3.11503,43.7675 4.28169,39.4342 6.5,35.5 Z"/></g>
<g><path style="opacity:0.957" fill="#693a43" d="M 294.5,48.5 C 295.665,115.999 295.832,183.665 295,251.5C 293.849,263.47 289.683,274.137 282.5,283.5C 283.265,280.904 283.599,278.237 283.5,275.5C 284.675,275.719 285.675,275.386 286.5,274.5C 286.964,270.962 288.464,267.962 291,265.5C 292.932,258.324 293.766,250.991 293.5,243.5C 294.499,178.669 294.832,113.669 294.5,48.5 Z"/></g>
<g><path style="opacity:1" fill="#05293c" d="M 6.5,39.5 C 7.97827,42.2877 7.8116,44.9543 6,47.5C 5.33333,116.833 5.33333,186.167 6,255.5C 7.19367,257.623 7.86034,259.957 8,262.5C 9.54452,261.179 10.7112,261.512 11.5,263.5C 9.99512,264.842 9.32846,266.508 9.5,268.5C 11.1238,268.64 12.2904,267.973 13,266.5C 13.3333,263.5 13.6667,260.5 14,257.5C 14.3333,258.167 14.6667,258.833 15,259.5C 15.49,258.207 15.6567,256.873 15.5,255.5C 17.9209,265.929 23.2543,274.596 31.5,281.5C 34.4658,283.988 37.7991,285.988 41.5,287.5C 43.2774,288.6 45.2774,289.434 47.5,290C 113.833,290.667 180.167,290.667 246.5,290C 266.237,286.263 278.07,274.43 282,254.5C 282.5,212.501 282.667,170.501 282.5,128.5C 282.5,102.167 282.5,75.8333 282.5,49.5C 283.833,49.5 285.167,49.5 286.5,49.5C 286.519,56.5306 287.019,56.864 288,50.5C 288.251,52.433 288.751,54.2663 289.5,56C 289.08,112.966 288.747,169.633 288.5,226C 291.011,233.501 292.178,241.335 292,249.5C 292.167,185.332 292.667,121.332 293.5,57.5C 293.5,119.5 293.5,181.5 293.5,243.5C 293.766,250.991 292.932,258.324 291,265.5C 288.464,267.962 286.964,270.962 286.5,274.5C 285.675,275.386 284.675,275.719 283.5,275.5C 283.599,278.237 283.265,280.904 282.5,283.5C 280.167,286.5 277.5,289.167 274.5,291.5C 272.5,291.5 270.5,291.5 268.5,291.5C 268.5,292.5 268.5,293.5 268.5,294.5C 265.019,295.317 262.019,296.983 259.5,299.5C 184.5,299.5 109.5,299.5 34.5,299.5C 26.7233,295.164 19.89,289.498 14,282.5C 11.6284,279.09 9.79505,275.423 8.5,271.5C 8.00333,267.003 6.83666,262.67 5,258.5C 4.33333,187.5 4.33333,116.5 5,45.5C 5.19088,43.2922 5.69088,41.2922 6.5,39.5 Z"/></g>
<g><path style="opacity:1" fill="#778b98" d="M 31.5,276.5 C 31.8333,276.5 32.1667,276.5 32.5,276.5C 34.8153,281.34 38.482,284.84 43.5,287C 42.9056,287.464 42.2389,287.631 41.5,287.5C 37.7991,285.988 34.4658,283.988 31.5,281.5C 32.494,280.001 32.494,278.334 31.5,276.5 Z"/></g>
<g><path style="opacity:1" fill="#204359" d="M 268.5,113.5 C 270.43,117.958 273.43,121.791 277.5,125C 278.448,125.483 279.448,125.649 280.5,125.5C 280.285,127.179 280.952,128.179 282.5,128.5C 282.667,170.501 282.5,212.501 282,254.5C 278.07,274.43 266.237,286.263 246.5,290C 180.167,290.667 113.833,290.667 47.5,290C 45.2774,289.434 43.2774,288.6 41.5,287.5C 42.2389,287.631 42.9056,287.464 43.5,287C 38.482,284.84 34.8153,281.34 32.5,276.5C 31.8333,274.5 31.1667,272.5 30.5,270.5C 32.701,273.021 35.0343,275.521 37.5,278C 40.1768,278.249 42.5101,279.249 44.5,281C 57.8333,281.667 71.1667,281.667 84.5,281C 91.5983,278.901 96.4317,274.401 99,267.5C 99.4998,256.839 99.6665,246.172 99.5,235.5C 103.441,240.445 107.775,245.111 112.5,249.5C 110.115,260.792 113.115,270.292 121.5,278C 124.292,279.597 127.292,280.597 130.5,281C 144.574,282.008 158.574,281.508 172.5,279.5C 180.676,274.485 184.676,267.151 184.5,257.5C 185.768,259.905 186.435,262.572 186.5,265.5C 187.822,265.33 188.989,265.663 190,266.5C 193.02,264.315 193.186,261.815 190.5,259C 192.219,255.49 193.052,251.656 193,247.5C 193.667,248.167 194.333,248.833 195,249.5C 195.333,247.833 195.667,246.167 196,244.5C 195.613,233.453 195.446,222.453 195.5,211.5C 195.315,207.859 195.981,204.526 197.5,201.5C 197.333,222.836 197.5,244.169 198,265.5C 204.695,280.481 216.195,285.814 232.5,281.5C 239.167,281.333 245.833,281.167 252.5,281C 260.863,277.475 266.363,271.309 269,262.5C 269.667,233.167 269.667,203.833 269,174.5C 266.757,166.805 261.924,161.638 254.5,159C 261.333,156.833 265.833,152.333 268,145.5C 269.782,134.847 269.948,124.18 268.5,113.5 Z"/></g>
<g><path style="opacity:1" fill="#cac3b5" d="M 22.5,50.5 C 22.5,118.833 22.5,187.167 22.5,255.5C 22.2601,258.579 22.5934,261.579 23.5,264.5C 22.675,265.386 21.675,265.719 20.5,265.5C 20.4774,261.458 19.3107,257.792 17,254.5C 16.8328,202.998 16.3328,151.665 15.5,100.5C 15.5,84.8333 15.5,69.1667 15.5,53.5C 17.7128,52.2271 20.0462,51.2271 22.5,50.5 Z"/></g>
<g><path style="opacity:1" fill="#0d2b3e" d="M 48.5,98.5 C 61.1711,98.3334 73.8377,98.5001 86.5,99C 92.6407,101.141 96.8074,105.307 99,111.5C 99.6667,122.833 99.6667,134.167 99,145.5C 97.0298,152.562 92.5298,157.062 85.5,159C 91.6346,161.47 96.1346,165.637 99,171.5C 100.423,181.42 100.923,191.42 100.5,201.5C 99.4347,205.646 97.768,209.646 95.5,213.5C 92.5819,216.306 89.2486,218.473 85.5,220C 93.1559,222.488 97.8226,227.655 99.5,235.5C 99.6665,246.172 99.4998,256.839 99,267.5C 96.4317,274.401 91.5983,278.901 84.5,281C 71.1667,281.667 57.8333,281.667 44.5,281C 42.5101,279.249 40.1768,278.249 37.5,278C 35.0343,275.521 32.701,273.021 30.5,270.5C 28.4655,258.278 27.9655,245.945 29,233.5C 31.3955,226.859 35.8955,222.359 42.5,220C 35.3281,217.154 30.8281,211.987 29,204.5C 28.3333,194.167 28.3333,183.833 29,173.5C 31.0366,166.46 35.5366,161.627 42.5,159C 36,156.5 31.5,152 29,145.5C 28.5001,134.172 28.3335,122.838 28.5,111.5C 30.5356,107.616 33.2023,104.116 36.5,101C 40.313,99.228 44.313,98.3947 48.5,98.5 Z"/></g>
<g><path style="opacity:1" fill="#f4433d" d="M 83.5,231.5 C 85.921,231.878 88.2543,232.545 90.5,233.5C 90.9122,245.229 90.4122,256.896 89,268.5C 87.2287,269.304 85.7287,270.471 84.5,272C 71.8333,272.667 59.1667,272.667 46.5,272C 44.3716,271.345 42.3716,270.511 40.5,269.5C 39.9862,267.634 39.3195,265.8 38.5,264C 39.0319,261.98 40.3652,261.147 42.5,261.5C 42.8333,261.5 43.1667,261.5 43.5,261.5C 44.2279,263.735 45.5612,265.568 47.5,267C 57.8333,267.667 68.1667,267.667 78.5,267C 81.5827,266.214 83.7494,264.381 85,261.5C 85.8236,252.657 85.6569,243.99 84.5,235.5C 84.1667,234.167 83.8333,232.833 83.5,231.5 Z"/></g>
<g><path style="opacity:1" fill="#c75657" d="M 37.5,260.5 C 38.8333,260.5 40.1667,260.5 41.5,260.5C 41.8333,260.5 42.1667,260.5 42.5,260.5C 42.5,260.833 42.5,261.167 42.5,261.5C 40.3652,261.147 39.0319,261.98 38.5,264C 39.3195,265.8 39.9862,267.634 40.5,269.5C 37.8633,267.518 36.53,264.852 36.5,261.5C 37.1667,261.5 37.5,261.167 37.5,260.5 Z"/></g>
<g><path style="opacity:1" fill="#fd7f49" d="M 84.5,235.5 C 85.6569,243.99 85.8236,252.657 85,261.5C 83.7494,264.381 81.5827,266.214 78.5,267C 68.1667,267.667 57.8333,267.667 47.5,267C 45.5612,265.568 44.2279,263.735 43.5,261.5C 44.4345,260.432 44.7678,259.099 44.5,257.5C 47.2271,258.577 50.0604,259.577 53,260.5C 55.4997,259.842 55.9997,258.509 54.5,256.5C 61.1667,256.5 67.8333,256.5 74.5,256.5C 75.4959,256.414 76.3292,256.748 77,257.5C 82.1846,251.114 84.6846,243.78 84.5,235.5 Z"/></g>
<g><path style="opacity:1" fill="#e19d6a" d="M 82.5,230.5 C 82.5,230.833 82.5,231.167 82.5,231.5C 70.6039,232.062 58.6039,232.896 46.5,234C 45.8534,235.609 45.02,237.109 44,238.5C 43.8288,246.011 43.3288,253.345 42.5,260.5C 42.1667,260.5 41.8333,260.5 41.5,260.5C 42.3034,252.245 42.8034,243.911 43,235.5C 44.1667,234.333 45.3333,233.167 46.5,232C 58.3991,230.541 70.3991,230.041 82.5,230.5 Z"/></g>
<g><path style="opacity:1" fill="#311a26" d="M 88.5,229.5 C 90.6237,230.031 92.1237,231.365 93,233.5C 93.6667,245.167 93.6667,256.833 93,268.5C 92.3292,269.252 91.4959,269.586 90.5,269.5C 92.486,257.949 92.986,246.283 92,234.5C 91.6174,233.944 91.1174,233.611 90.5,233.5C 90.2671,231.938 89.6005,230.605 88.5,229.5 Z"/></g>
<g><path style="opacity:1" fill="#fcf3e1" d="M 84.5,228.5 C 84.8333,228.5 85.1667,228.5 85.5,228.5C 84.5,229.167 83.5,229.833 82.5,230.5C 70.3991,230.041 58.3991,230.541 46.5,232C 45.3333,233.167 44.1667,234.333 43,235.5C 42.8034,243.911 42.3034,252.245 41.5,260.5C 40.1667,260.5 38.8333,260.5 37.5,260.5C 38.0939,254.211 38.2606,247.878 38,241.5C 39.3075,236.728 41.8075,232.728 45.5,229.5C 58.4829,228.501 71.4829,228.168 84.5,228.5 Z"/></g>
<g><path style="opacity:1" fill="#c74e4b" d="M 90.5,233.5 C 91.1174,233.611 91.6174,233.944 92,234.5C 92.986,246.283 92.486,257.949 90.5,269.5C 88.513,270.164 86.8463,271.331 85.5,273C 71.5,273.667 57.5,273.667 43.5,273C 42.2899,271.961 41.2899,270.794 40.5,269.5C 42.3716,270.511 44.3716,271.345 46.5,272C 59.1667,272.667 71.8333,272.667 84.5,272C 85.7287,270.471 87.2287,269.304 89,268.5C 90.4122,256.896 90.9122,245.229 90.5,233.5 Z"/></g>
<g><path style="opacity:1" fill="#e6f1f3" d="M 84.5,228.5 C 71.4829,228.168 58.4829,228.501 45.5,229.5C 41.8075,232.728 39.3075,236.728 38,241.5C 38.2606,247.878 38.0939,254.211 37.5,260.5C 37.5,261.167 37.1667,261.5 36.5,261.5C 36.3335,252.161 36.5002,242.827 37,233.5C 38.2506,230.619 40.4173,228.786 43.5,228C 57.3396,227.173 71.0062,227.339 84.5,228.5 Z"/></g>
<g><path style="opacity:1" fill="#fa9151" d="M 82.5,231.5 C 82.8333,231.5 83.1667,231.5 83.5,231.5C 83.8333,232.833 84.1667,234.167 84.5,235.5C 84.6846,243.78 82.1846,251.114 77,257.5C 76.3292,256.748 75.4959,256.414 74.5,256.5C 74.5,255.833 74.5,255.167 74.5,254.5C 75.4959,254.586 76.3292,254.252 77,253.5C 77.7415,250.438 77.5748,247.438 76.5,244.5C 68.5208,243.335 60.5208,243.168 52.5,244C 51.9747,244.692 51.3081,245.192 50.5,245.5C 49.7243,248.986 49.0576,252.486 48.5,256C 48.6301,257.059 49.1301,257.892 50,258.5C 51.1096,256.963 52.6096,256.297 54.5,256.5C 55.9997,258.509 55.4997,259.842 53,260.5C 50.0604,259.577 47.2271,258.577 44.5,257.5C 44.7678,259.099 44.4345,260.432 43.5,261.5C 43.1667,261.5 42.8333,261.5 42.5,261.5C 42.5,261.167 42.5,260.833 42.5,260.5C 43.3288,253.345 43.8288,246.011 44,238.5C 45.02,237.109 45.8534,235.609 46.5,234C 58.6039,232.896 70.6039,232.062 82.5,231.5 Z"/></g>
<g><path style="opacity:1" fill="#e9915c" d="M 74.5,254.5 C 74.5,255.167 74.5,255.833 74.5,256.5C 67.8333,256.5 61.1667,256.5 54.5,256.5C 52.6096,256.297 51.1096,256.963 50,258.5C 49.1301,257.892 48.6301,257.059 48.5,256C 49.0576,252.486 49.7243,248.986 50.5,245.5C 51.3081,245.192 51.9747,244.692 52.5,244C 60.5208,243.168 68.5208,243.335 76.5,244.5C 77.5748,247.438 77.7415,250.438 77,253.5C 76.3292,254.252 75.4959,254.586 74.5,254.5 Z"/></g>
<g><path style="opacity:1" fill="#fef7eb" d="M 74.5,254.5 C 67.4921,254.666 60.4921,254.5 53.5,254C 50.6012,250.844 50.9345,248.178 54.5,246C 61.1667,245.333 67.8333,245.333 74.5,246C 77.1013,248.83 77.1013,251.663 74.5,254.5 Z"/></g>
<g><path style="opacity:1" fill="#c8686a" d="M 85.5,228.5 C 86.391,229.11 87.391,229.443 88.5,229.5C 89.6005,230.605 90.2671,231.938 90.5,233.5C 88.2543,232.545 85.921,231.878 83.5,231.5C 83.1667,231.5 82.8333,231.5 82.5,231.5C 82.5,231.167 82.5,230.833 82.5,230.5C 83.5,229.833 84.5,229.167 85.5,228.5 Z"/></g>
<g><path style="opacity:1" fill="#b44e4d" d="M 41.5,199.5 C 41.8333,199.5 42.1667,199.5 42.5,199.5C 42.5,199.833 42.5,200.167 42.5,200.5C 39.0451,201.128 37.8785,203.128 39,206.5C 40.9605,209.135 43.4605,210.969 46.5,212C 59.5453,212.796 72.5453,212.629 85.5,211.5C 85.1667,212.167 84.8333,212.833 84.5,213.5C 70.4841,213.833 56.4841,213.499 42.5,212.5C 41.1851,210.684 39.6851,209.017 38,207.5C 36.7978,205.323 36.2978,202.989 36.5,200.5C 38.1172,199.962 39.7839,199.629 41.5,199.5 Z"/></g>
<g><path style="opacity:1" fill="#2a4b62" d="M 197.5,175.5 C 197.5,184.167 197.5,192.833 197.5,201.5C 195.981,204.526 195.315,207.859 195.5,211.5C 195.446,222.453 195.613,233.453 196,244.5C 195.667,246.167 195.333,247.833 195,249.5C 194.333,248.833 193.667,248.167 193,247.5C 193.052,251.656 192.219,255.49 190.5,259C 193.186,261.815 193.02,264.315 190,266.5C 188.989,265.663 187.822,265.33 186.5,265.5C 186.435,262.572 185.768,259.905 184.5,257.5C 184.666,249.493 184.5,241.493 184,233.5C 181.5,227 177,222.5 170.5,220C 177.52,216.639 182.02,211.139 184,203.5C 184.5,196.174 184.666,188.841 184.5,181.5C 186.614,182.36 187.78,184.027 188,186.5C 188.914,185.346 189.747,185.513 190.5,187C 190.167,187.333 189.833,187.667 189.5,188C 190.549,188.492 191.549,188.326 192.5,187.5C 193.167,188.167 193.833,188.833 194.5,189.5C 195.343,184.667 196.343,180 197.5,175.5 Z"/></g>
<g><path style="opacity:1" fill="#421d24" d="M 92.5,204.5 C 91.9964,209.341 89.3298,212.341 84.5,213.5C 84.8333,212.833 85.1667,212.167 85.5,211.5C 87.754,210.876 89.4206,209.543 90.5,207.5C 91.1667,206.5 91.8333,205.5 92.5,204.5 Z"/></g>
<g><path style="opacity:1" fill="#315067" d="M 112.5,179.5 C 112.334,187.507 112.5,195.507 113,203.5C 114.556,211.464 119.056,216.964 126.5,220C 114.233,226.039 109.566,235.872 112.5,249.5C 107.775,245.111 103.441,240.445 99.5,235.5C 97.8226,227.655 93.1559,222.488 85.5,220C 89.2486,218.473 92.5819,216.306 95.5,213.5C 97.768,209.646 99.4347,205.646 100.5,201.5C 100.81,202.738 101.31,202.738 102,201.5C 102.333,192.833 102.667,184.167 103,175.5C 104.53,177.226 105.53,179.226 106,181.5C 107.464,180.541 108.297,179.208 108.5,177.5C 105.69,174.115 103.69,170.282 102.5,166C 103.648,164.274 104.815,164.441 106,166.5C 106.414,166.043 106.914,165.709 107.5,165.5C 108.914,169.554 109.914,173.72 110.5,178C 110.836,179.03 111.503,179.53 112.5,179.5 Z"/></g>
<g><path style="opacity:1" fill="#fd8552" d="M 84.5,175.5 C 85.6569,183.99 85.8236,192.657 85,201.5C 83.3375,203.158 82.5041,205.158 82.5,207.5C 70.8286,207.667 59.1619,207.5 47.5,207C 45.2101,205.223 43.5434,203.056 42.5,200.5C 43.1667,200.5 43.8333,200.5 44.5,200.5C 44.5106,202.017 45.1772,203.184 46.5,204C 57.4764,205.653 68.4764,205.82 79.5,204.5C 80.3467,203.155 81.5134,202.155 83,201.5C 84.4099,192.916 84.9099,184.25 84.5,175.5 Z"/></g>
<g><path style="opacity:1" fill="#f14a3f" d="M 83.5,170.5 C 86.3245,170.081 88.4912,171.081 90,173.5C 90.4999,184.828 90.6665,196.162 90.5,207.5C 89.4206,209.543 87.754,210.876 85.5,211.5C 72.5453,212.629 59.5453,212.796 46.5,212C 43.4605,210.969 40.9605,209.135 39,206.5C 37.8785,203.128 39.0451,201.128 42.5,200.5C 43.5434,203.056 45.2101,205.223 47.5,207C 59.1619,207.5 70.8286,207.667 82.5,207.5C 82.5041,205.158 83.3375,203.158 85,201.5C 85.8236,192.657 85.6569,183.99 84.5,175.5C 84.3713,173.784 84.038,172.117 83.5,170.5 Z"/></g>
<g><path style="opacity:1" fill="#fb9652" d="M 82.5,170.5 C 82.8333,170.5 83.1667,170.5 83.5,170.5C 84.038,172.117 84.3713,173.784 84.5,175.5C 84.9099,184.25 84.4099,192.916 83,201.5C 81.5134,202.155 80.3467,203.155 79.5,204.5C 68.4764,205.82 57.4764,205.653 46.5,204C 45.1772,203.184 44.5106,202.017 44.5,200.5C 44.5,197.5 44.5,194.5 44.5,191.5C 46.5,191.5 48.5,191.5 50.5,191.5C 50.5774,192.75 51.244,193.583 52.5,194C 60.1594,194.5 67.8261,194.666 75.5,194.5C 76.4959,194.586 77.3292,194.252 78,193.5C 78.3333,189.167 78.6667,184.833 79,180.5C 81.9506,177.828 83.1173,174.495 82.5,170.5 Z"/></g>
<g><path style="opacity:1" fill="#c6534c" d="M 82.5,170.5 C 82.5,170.167 82.5,169.833 82.5,169.5C 84.1667,169.5 85.8333,169.5 87.5,169.5C 89.5041,170.673 91.0041,172.34 92,174.5C 92.4998,184.494 92.6665,194.494 92.5,204.5C 91.8333,205.5 91.1667,206.5 90.5,207.5C 90.6665,196.162 90.4999,184.828 90,173.5C 88.4912,171.081 86.3245,170.081 83.5,170.5C 83.1667,170.5 82.8333,170.5 82.5,170.5 Z"/></g>
<g><path style="opacity:1" fill="#bec2bc" d="M 15.5,100.5 C 16.3328,151.665 16.8328,202.998 17,254.5C 19.3107,257.792 20.4774,261.458 20.5,265.5C 21.675,265.719 22.675,265.386 23.5,264.5C 22.5934,261.579 22.2601,258.579 22.5,255.5C 22.8333,255.5 23.1667,255.5 23.5,255.5C 23.7029,263.551 26.3695,270.551 31.5,276.5C 32.494,278.334 32.494,280.001 31.5,281.5C 23.2543,274.596 17.9209,265.929 15.5,255.5C 15.5,253.5 15.5,251.5 15.5,249.5C 15.5,199.833 15.5,150.167 15.5,100.5 Z"/></g>
<g><path style="opacity:1" fill="#f7a561" d="M 82.5,169.5 C 82.5,169.833 82.5,170.167 82.5,170.5C 83.1173,174.495 81.9506,177.828 79,180.5C 78.6667,184.833 78.3333,189.167 78,193.5C 77.3292,194.252 76.4959,194.586 75.5,194.5C 77.2994,191.495 77.9661,188.162 77.5,184.5C 68.9832,184.174 60.6499,184.507 52.5,185.5C 50.6921,186.918 50.0254,188.918 50.5,191.5C 48.5,191.5 46.5,191.5 44.5,191.5C 44.5,194.5 44.5,197.5 44.5,200.5C 43.8333,200.5 43.1667,200.5 42.5,200.5C 42.5,200.167 42.5,199.833 42.5,199.5C 42.3336,191.16 42.5003,182.827 43,174.5C 44.1667,173.333 45.3333,172.167 46.5,171C 58.3991,169.541 70.3991,169.041 82.5,169.5 Z"/></g>
<g><path style="opacity:1" fill="#e5ac7d" d="M 75.5,194.5 C 67.8261,194.666 60.1594,194.5 52.5,194C 51.244,193.583 50.5774,192.75 50.5,191.5C 50.0254,188.918 50.6921,186.918 52.5,185.5C 60.6499,184.507 68.9832,184.174 77.5,184.5C 77.9661,188.162 77.2994,191.495 75.5,194.5 Z"/></g>
<g><path style="opacity:1" fill="#fbf9ec" d="M 52.5,185.5 C 60.1739,185.334 67.8406,185.5 75.5,186C 76.9817,188.592 76.6483,190.925 74.5,193C 67.5,193.667 60.5,193.667 53.5,193C 51.1632,190.806 50.8299,188.306 52.5,185.5 Z"/></g>
<g><path style="opacity:1" fill="#fbe9d1" d="M 85.5,167.5 C 86.5,167.833 87.1667,168.5 87.5,169.5C 85.8333,169.5 84.1667,169.5 82.5,169.5C 70.3991,169.041 58.3991,169.541 46.5,171C 45.3333,172.167 44.1667,173.333 43,174.5C 42.5003,182.827 42.3336,191.16 42.5,199.5C 42.1667,199.5 41.8333,199.5 41.5,199.5C 41.3336,190.827 41.5002,182.16 42,173.5C 43.3603,171.895 44.8603,170.395 46.5,169C 59.6731,168.831 72.6731,168.331 85.5,167.5 Z"/></g>
<g><path style="opacity:1" fill="#f2f6f2" d="M 85.5,167.5 C 72.6731,168.331 59.6731,168.831 46.5,169C 44.8603,170.395 43.3603,171.895 42,173.5C 41.5002,182.16 41.3336,190.827 41.5,199.5C 39.7839,199.629 38.1172,199.962 36.5,200.5C 36.3336,191.494 36.5002,182.494 37,173.5C 38.5,170.667 40.6667,168.5 43.5,167C 57.5748,166.186 71.5748,166.352 85.5,167.5 Z"/></g>
<g><path style="opacity:1" fill="#092a3d" d="M 214.5,98.5 C 228.171,98.3334 241.837,98.5001 255.5,99C 262.523,101.518 266.857,106.352 268.5,113.5C 269.948,124.18 269.782,134.847 268,145.5C 265.833,152.333 261.333,156.833 254.5,159C 261.924,161.638 266.757,166.805 269,174.5C 269.667,203.833 269.667,233.167 269,262.5C 266.363,271.309 260.863,277.475 252.5,281C 245.833,281.167 239.167,281.333 232.5,281.5C 216.195,285.814 204.695,280.481 198,265.5C 197.5,244.169 197.333,222.836 197.5,201.5C 197.5,192.833 197.5,184.167 197.5,175.5C 198.948,166.77 203.948,161.27 212.5,159C 210.359,158.427 208.359,157.594 206.5,156.5C 207.677,152.455 210.01,151.622 213.5,154C 220.333,154.167 227.167,154.333 234,154.5C 241.907,154.617 249.74,154.117 257.5,153C 262.375,147.3 264.375,140.634 263.5,133C 263.452,126.132 262.952,119.298 262,112.5C 261.617,111.944 261.117,111.611 260.5,111.5C 259.167,110.5 257.833,109.5 256.5,108.5C 255.71,107.599 254.71,106.932 253.5,106.5C 238.736,106.033 224.07,106.533 209.5,108C 207.383,109.731 205.883,111.898 205,114.5C 204.5,122.827 204.334,131.16 204.5,139.5C 203.794,143.885 205.127,147.385 208.5,150C 206.323,151.202 203.989,151.702 201.5,151.5C 200.073,148.976 198.906,146.31 198,143.5C 197.333,133.167 197.333,122.833 198,112.5C 200.3,104.032 205.8,99.3653 214.5,98.5 Z"/></g>
<g><path style="opacity:1" fill="#c84e50" d="M 209.5,260.5 C 210.167,260.5 210.833,260.5 211.5,260.5C 211.5,260.833 211.5,261.167 211.5,261.5C 207.929,261.408 206.762,263.074 208,266.5C 209.802,268.678 211.969,270.511 214.5,272C 228.99,273.207 243.324,272.373 257.5,269.5C 256.547,271.61 254.881,272.777 252.5,273C 238.833,273.667 225.167,273.667 211.5,273C 207.773,270.045 205.773,266.212 205.5,261.5C 206.708,260.766 208.041,260.433 209.5,260.5 Z"/></g>
<g><path style="opacity:1" fill="#f5463b" d="M 252.5,170.5 C 253.833,170.5 255.167,170.5 256.5,170.5C 257.206,172.672 258.206,174.672 259.5,176.5C 259.667,206.169 259.5,235.835 259,265.5C 257.812,266.563 257.312,267.897 257.5,269.5C 243.324,272.373 228.99,273.207 214.5,272C 211.969,270.511 209.802,268.678 208,266.5C 206.762,263.074 207.929,261.408 211.5,261.5C 212.828,263.965 214.828,265.799 217.5,267C 228.515,267.832 239.515,267.666 250.5,266.5C 251.667,264.833 252.833,263.167 254,261.5C 254.5,246.17 254.667,230.837 254.5,215.5C 254.5,207.5 254.5,199.5 254.5,191.5C 254.821,185.974 254.488,180.64 253.5,175.5C 253.371,173.784 253.038,172.117 252.5,170.5 Z"/></g>
<g><path style="opacity:1" fill="#fd7d47" d="M 254.5,215.5 C 254.667,230.837 254.5,246.17 254,261.5C 252.833,263.167 251.667,264.833 250.5,266.5C 239.515,267.666 228.515,267.832 217.5,267C 214.828,265.799 212.828,263.965 211.5,261.5C 211.5,261.167 211.5,260.833 211.5,260.5C 213.388,258.012 214.055,255.012 213.5,251.5C 214.117,251.389 214.617,251.056 215,250.5C 215.339,247.964 215.839,245.464 216.5,243C 215.077,241.588 215.244,240.421 217,239.5C 220.058,239.763 223.225,239.93 226.5,240C 225.08,242.209 223.413,244.209 221.5,246C 226.527,246.579 231.527,246.913 236.5,247C 233.761,246.202 231.761,244.535 230.5,242C 233.706,242.801 237.039,243.135 240.5,243C 242.833,242 244.5,240.333 245.5,238C 246.793,237.51 248.127,237.343 249.5,237.5C 249.276,239.787 248.609,241.953 247.5,244C 249.628,245.631 250.961,247.798 251.5,250.5C 252.332,239.515 252.832,228.515 253,217.5C 253.278,216.584 253.778,215.918 254.5,215.5 Z"/></g>
<g><path style="opacity:1" fill="#ac5357" d="M 251.5,170.5 C 251.5,170.167 251.5,169.833 251.5,169.5C 253.167,169.5 254.833,169.5 256.5,169.5C 258.43,169.771 259.764,170.771 260.5,172.5C 261.485,203.456 261.818,234.456 261.5,265.5C 261.167,265.5 260.833,265.5 260.5,265.5C 260.831,235.662 260.498,205.995 259.5,176.5C 258.206,174.672 257.206,172.672 256.5,170.5C 255.167,170.5 253.833,170.5 252.5,170.5C 252.167,170.5 251.833,170.5 251.5,170.5 Z"/></g>
<g><path style="opacity:1" fill="#e04e4d" d="M 259.5,176.5 C 260.498,205.995 260.831,235.662 260.5,265.5C 259.974,267.23 258.974,268.564 257.5,269.5C 257.312,267.897 257.812,266.563 259,265.5C 259.5,235.835 259.667,206.169 259.5,176.5 Z"/></g>
<g><path style="opacity:1" fill="#fc8b4d" d="M 254.5,191.5 C 254.5,199.5 254.5,207.5 254.5,215.5C 253.778,215.918 253.278,216.584 253,217.5C 252.832,228.515 252.332,239.515 251.5,250.5C 250.961,247.798 249.628,245.631 247.5,244C 248.609,241.953 249.276,239.787 249.5,237.5C 248.127,237.343 246.793,237.51 245.5,238C 244.5,240.333 242.833,242 240.5,243C 237.039,243.135 233.706,242.801 230.5,242C 231.761,244.535 233.761,246.202 236.5,247C 231.527,246.913 226.527,246.579 221.5,246C 223.413,244.209 225.08,242.209 226.5,240C 223.225,239.93 220.058,239.763 217,239.5C 215.244,240.421 215.077,241.588 216.5,243C 215.839,245.464 215.339,247.964 215,250.5C 214.617,251.056 214.117,251.389 213.5,251.5C 213.333,234.83 213.5,218.163 214,201.5C 214.175,205.211 214.675,208.878 215.5,212.5C 216.137,208.429 216.971,204.429 218,200.5C 218.333,203.833 218.667,207.167 219,210.5C 220.281,210.381 221.448,210.881 222.5,212C 222.056,213.533 221.723,215.033 221.5,216.5C 223.007,217.739 224.174,217.405 225,215.5C 225.5,216.5 226,217.5 226.5,218.5C 226.661,221.394 226.328,224.394 225.5,227.5C 226.244,230.443 226.744,233.443 227,236.5C 227.671,237.252 228.504,237.586 229.5,237.5C 230.793,238.158 232.293,238.492 234,238.5C 235.981,238.371 237.647,237.704 239,236.5C 239.5,226.172 239.666,215.839 239.5,205.5C 240.209,204.596 241.209,204.263 242.5,204.5C 242.281,205.675 242.614,206.675 243.5,207.5C 244.429,206.311 244.762,204.978 244.5,203.5C 246.5,203.5 248.5,203.5 250.5,203.5C 250.231,205.429 250.731,207.095 252,208.5C 252.891,202.697 253.725,197.03 254.5,191.5 Z"/></g>
<g><path style="opacity:1" fill="#efc7ab" d="M 230.5,201.5 C 229.524,212.085 229.191,222.752 229.5,233.5C 228.506,224.348 228.173,215.015 228.5,205.5C 228.157,203.517 228.824,202.183 230.5,201.5 Z"/></g>
<g><path style="opacity:1" fill="#e39666" d="M 228.5,205.5 C 228.173,215.015 228.506,224.348 229.5,233.5C 231.774,237.334 234.274,237.334 237,233.5C 237.5,224.173 237.666,214.839 237.5,205.5C 238.167,205.5 238.833,205.5 239.5,205.5C 239.666,215.839 239.5,226.172 239,236.5C 237.647,237.704 235.981,238.371 234,238.5C 232.293,238.492 230.793,238.158 229.5,237.5C 229.217,236.711 228.717,236.044 228,235.5C 227.175,225.325 227.342,215.325 228.5,205.5 Z"/></g>
<g><path style="opacity:1" fill="#fef7ee" d="M 230.5,201.5 C 232.527,201.338 234.527,201.505 236.5,202C 237.337,203.011 237.67,204.178 237.5,205.5C 237.666,214.839 237.5,224.173 237,233.5C 234.274,237.334 231.774,237.334 229.5,233.5C 229.191,222.752 229.524,212.085 230.5,201.5 Z"/></g>
<g><path style="opacity:1" fill="#35141d" d="M 260.5,172.5 C 261.117,172.611 261.617,172.944 262,173.5C 262.831,204.336 262.664,235.003 261.5,265.5C 261.818,234.456 261.485,203.456 260.5,172.5 Z"/></g>
<g><path style="opacity:1" fill="#fa9855" d="M 253.5,175.5 C 254.488,180.64 254.821,185.974 254.5,191.5C 253.725,197.03 252.891,202.697 252,208.5C 250.731,207.095 250.231,205.429 250.5,203.5C 248.5,203.5 246.5,203.5 244.5,203.5C 244.762,204.978 244.429,206.311 243.5,207.5C 242.614,206.675 242.281,205.675 242.5,204.5C 241.209,204.263 240.209,204.596 239.5,205.5C 238.833,205.5 238.167,205.5 237.5,205.5C 237.67,204.178 237.337,203.011 236.5,202C 234.527,201.505 232.527,201.338 230.5,201.5C 228.824,202.183 228.157,203.517 228.5,205.5C 227.342,215.325 227.175,225.325 228,235.5C 228.717,236.044 229.217,236.711 229.5,237.5C 228.504,237.586 227.671,237.252 227,236.5C 226.744,233.443 226.244,230.443 225.5,227.5C 226.328,224.394 226.661,221.394 226.5,218.5C 226,217.5 225.5,216.5 225,215.5C 224.174,217.405 223.007,217.739 221.5,216.5C 221.723,215.033 222.056,213.533 222.5,212C 221.448,210.881 220.281,210.381 219,210.5C 218.667,207.167 218.333,203.833 218,200.5C 216.971,204.429 216.137,208.429 215.5,212.5C 214.675,208.878 214.175,205.211 214,201.5C 213.5,218.163 213.333,234.83 213.5,251.5C 214.055,255.012 213.388,258.012 211.5,260.5C 210.833,260.5 210.167,260.5 209.5,260.5C 209.842,259.662 210.508,259.328 211.5,259.5C 212.167,232.833 212.833,206.167 213.5,179.5C 213.834,186.507 214.334,193.507 215,200.5C 215.804,195.377 216.804,190.377 218,185.5C 218.667,188.167 219.333,190.833 220,193.5C 222.499,192.997 225.332,192.497 228.5,192C 229.833,191.333 229.833,190.667 228.5,190C 231.482,189.433 234.315,189.933 237,191.5C 238.447,191.055 239.78,190.388 241,189.5C 244.013,191.09 247.18,192.257 250.5,193C 251.126,193.75 251.626,194.584 252,195.5C 253.274,188.897 253.774,182.23 253.5,175.5 Z"/></g>
<g><path style="opacity:1" fill="#f2f0e4" d="M 256.5,169.5 C 254.833,169.5 253.167,169.5 251.5,169.5C 239.829,169.333 228.162,169.5 216.5,170C 214.622,171.543 213.122,173.376 212,175.5C 211.5,203.498 211.333,231.498 211.5,259.5C 210.508,259.328 209.842,259.662 209.5,260.5C 208.041,260.433 206.708,260.766 205.5,261.5C 204.336,233.003 204.17,204.336 205,175.5C 206.5,171.333 209.333,168.5 213.5,167C 226.833,166.333 240.167,166.333 253.5,167C 254.942,167.377 255.942,168.21 256.5,169.5 Z"/></g>
<g><path style="opacity:1" fill="#fba15b" d="M 251.5,170.5 C 251.833,170.5 252.167,170.5 252.5,170.5C 253.038,172.117 253.371,173.784 253.5,175.5C 253.774,182.23 253.274,188.897 252,195.5C 251.626,194.584 251.126,193.75 250.5,193C 247.18,192.257 244.013,191.09 241,189.5C 239.78,190.388 238.447,191.055 237,191.5C 234.315,189.933 231.482,189.433 228.5,190C 229.833,190.667 229.833,191.333 228.5,192C 225.332,192.497 222.499,192.997 220,193.5C 219.333,190.833 218.667,188.167 218,185.5C 216.804,190.377 215.804,195.377 215,200.5C 214.334,193.507 213.834,186.507 213.5,179.5C 214.091,176.386 215.758,173.886 218.5,172C 223.524,171.335 228.524,171.502 233.5,172.5C 239.47,171.504 245.47,170.837 251.5,170.5 Z"/></g>
<g><path style="opacity:1" fill="#e2a46f" d="M 251.5,169.5 C 251.5,169.833 251.5,170.167 251.5,170.5C 245.47,170.837 239.47,171.504 233.5,172.5C 228.524,171.502 223.524,171.335 218.5,172C 215.758,173.886 214.091,176.386 213.5,179.5C 212.833,206.167 212.167,232.833 211.5,259.5C 211.333,231.498 211.5,203.498 212,175.5C 213.122,173.376 214.622,171.543 216.5,170C 228.162,169.5 239.829,169.333 251.5,169.5 Z"/></g>
<g><path style="opacity:1" fill="#092c3e" d="M 184.5,181.5 C 184.666,188.841 184.5,196.174 184,203.5C 182.02,211.139 177.52,216.639 170.5,220C 177,222.5 181.5,227 184,233.5C 184.5,241.493 184.666,249.493 184.5,257.5C 184.676,267.151 180.676,274.485 172.5,279.5C 158.574,281.508 144.574,282.008 130.5,281C 127.292,280.597 124.292,279.597 121.5,278C 113.115,270.292 110.115,260.792 112.5,249.5C 109.566,235.872 114.233,226.039 126.5,220C 119.056,216.964 114.556,211.464 113,203.5C 112.5,195.507 112.334,187.507 112.5,179.5C 112.348,168.828 117.348,161.995 127.5,159C 119.152,156.648 114.318,151.148 113,142.5C 112.333,132.833 112.333,123.167 113,113.5C 114.316,106.185 118.483,101.352 125.5,99C 140.833,98.3333 156.167,98.3333 171.5,99C 176.935,100.769 180.768,104.269 183,109.5C 185,121.833 185,134.167 183,146.5C 180.833,152.667 176.667,156.833 170.5,159C 177.863,161.695 182.363,166.862 184,174.5C 184.497,176.81 184.663,179.143 184.5,181.5 Z"/></g>
<g><path style="opacity:1" fill="#4a1a29" d="M 125.5,271.5 C 126.473,271.987 127.473,272.487 128.5,273C 140.829,273.5 153.162,273.667 165.5,273.5C 152.673,274.66 139.673,274.827 126.5,274C 125.748,273.329 125.414,272.496 125.5,271.5 Z"/></g>
<g><path style="opacity:1" fill="#ca514f" d="M 123.5,268.5 C 125.712,269.645 128.045,270.645 130.5,271.5C 144.595,273.053 158.595,272.719 172.5,270.5C 170.964,273.092 168.631,274.092 165.5,273.5C 153.162,273.667 140.829,273.5 128.5,273C 127.473,272.487 126.473,271.987 125.5,271.5C 124.599,270.71 123.932,269.71 123.5,268.5 Z"/></g>
<g><path style="opacity:1" fill="#f3433c" d="M 170.5,231.5 C 172.371,231.859 173.871,232.859 175,234.5C 175.5,244.828 175.666,255.161 175.5,265.5C 175.25,267.674 174.25,269.341 172.5,270.5C 158.595,272.719 144.595,273.053 130.5,271.5C 128.045,270.645 125.712,269.645 123.5,268.5C 122.781,266.236 122.448,263.903 122.5,261.5C 123.833,261.5 125.167,261.5 126.5,261.5C 127.833,261.5 128.5,262.167 128.5,263.5C 129.574,264.885 130.907,266.051 132.5,267C 142.833,267.667 153.167,267.667 163.5,267C 165.901,266.205 168.068,265.038 170,263.5C 170.5,252.839 170.667,242.172 170.5,231.5 Z"/></g>
<g><path style="opacity:1" fill="#c55d61" d="M 126.5,259.5 C 126.5,260.167 126.5,260.833 126.5,261.5C 125.167,261.5 123.833,261.5 122.5,261.5C 122.448,263.903 122.781,266.236 123.5,268.5C 121.166,266.824 120.166,264.491 120.5,261.5C 121.167,261.5 121.5,261.167 121.5,260.5C 123.216,260.371 124.883,260.038 126.5,259.5 Z"/></g>
<g><path style="opacity:1" fill="#fc7546" d="M 167.5,231.5 C 168.5,231.5 169.5,231.5 170.5,231.5C 170.667,242.172 170.5,252.839 170,263.5C 168.068,265.038 165.901,266.205 163.5,267C 153.167,267.667 142.833,267.667 132.5,267C 130.907,266.051 129.574,264.885 128.5,263.5C 131.23,264.981 133.73,264.647 136,262.5C 136.772,262.645 137.439,262.978 138,263.5C 140.333,262.833 142.667,262.167 145,261.5C 149.066,262.464 153.233,262.797 157.5,262.5C 157.094,260.891 157.094,259.557 157.5,258.5C 159.662,260.02 161.995,261.02 164.5,261.5C 164.651,264.718 165.484,265.051 167,262.5C 167.078,260.343 167.245,258.343 167.5,256.5C 166.833,255.833 166.167,255.167 165.5,254.5C 167.18,253.231 168.347,251.564 169,249.5C 169.667,244.167 169.667,238.833 169,233.5C 168.283,232.956 167.783,232.289 167.5,231.5 Z"/></g>
<g><path style="opacity:1" fill="#311e2d" d="M 176.5,233.5 C 177.268,234.263 177.768,235.263 178,236.5C 178.167,241.333 178.333,246.167 178.5,251C 178.494,256.216 177.827,261.049 176.5,265.5C 176.5,254.833 176.5,244.167 176.5,233.5 Z"/></g>
<g><path style="opacity:1" fill="#bf5456" d="M 170.5,228.5 C 172.5,230.167 174.5,231.833 176.5,233.5C 176.5,244.167 176.5,254.833 176.5,265.5C 176.167,265.5 175.833,265.5 175.5,265.5C 175.666,255.161 175.5,244.828 175,234.5C 173.871,232.859 172.371,231.859 170.5,231.5C 169.5,231.5 168.5,231.5 167.5,231.5C 167.167,231.5 166.833,231.5 166.5,231.5C 166.5,231.167 166.5,230.833 166.5,230.5C 167.833,229.833 169.167,229.167 170.5,228.5 Z"/></g>
<g><path style="opacity:1" fill="#ecf5f2" d="M 168.5,228.5 C 155.829,228.333 143.162,228.5 130.5,229C 129.5,229.5 128.5,230 127.5,230.5C 126.802,234.849 125.135,238.682 122.5,242C 122.618,247.21 122.952,252.21 123.5,257C 122.695,258.113 122.028,259.279 121.5,260.5C 121.5,261.167 121.167,261.5 120.5,261.5C 120.334,252.494 120.5,243.494 121,234.5C 122.122,232.376 123.622,230.543 125.5,229C 132.9,227.866 140.4,227.366 148,227.5C 155.008,227.5 161.842,227.834 168.5,228.5 Z"/></g>
<g><path style="opacity:1" fill="#fdf4e1" d="M 168.5,228.5 C 169.167,228.5 169.833,228.5 170.5,228.5C 169.167,229.167 167.833,229.833 166.5,230.5C 155.495,230.333 144.495,230.5 133.5,231C 130.353,231.649 128.353,233.482 127.5,236.5C 126.508,243.982 126.175,251.648 126.5,259.5C 124.883,260.038 123.216,260.371 121.5,260.5C 122.028,259.279 122.695,258.113 123.5,257C 122.952,252.21 122.618,247.21 122.5,242C 125.135,238.682 126.802,234.849 127.5,230.5C 128.5,230 129.5,229.5 130.5,229C 143.162,228.5 155.829,228.333 168.5,228.5 Z"/></g>
<g><path style="opacity:1" fill="#fa874c" d="M 165.5,232.5 C 165.5,231.833 165.833,231.5 166.5,231.5C 166.833,231.5 167.167,231.5 167.5,231.5C 167.783,232.289 168.283,232.956 169,233.5C 169.667,238.833 169.667,244.167 169,249.5C 168.347,251.564 167.18,253.231 165.5,254.5C 166.167,255.167 166.833,255.833 167.5,256.5C 167.245,258.343 167.078,260.343 167,262.5C 165.484,265.051 164.651,264.718 164.5,261.5C 161.995,261.02 159.662,260.02 157.5,258.5C 157.094,259.557 157.094,260.891 157.5,262.5C 153.233,262.797 149.066,262.464 145,261.5C 142.667,262.167 140.333,262.833 138,263.5C 137.439,262.978 136.772,262.645 136,262.5C 133.73,264.647 131.23,264.981 128.5,263.5C 128.5,262.167 127.833,261.5 126.5,261.5C 126.5,260.833 126.5,260.167 126.5,259.5C 127.308,252.314 128.142,244.981 129,237.5C 130.011,236.663 131.178,236.33 132.5,236.5C 132.5,237.5 132.5,238.5 132.5,239.5C 141.535,239.779 150.535,239.445 159.5,238.5C 161.104,238.939 162.604,239.606 164,240.5C 166.281,240.188 167.448,238.855 167.5,236.5C 167.66,234.645 166.993,233.312 165.5,232.5 Z"/></g>
<g><path style="opacity:1" fill="#e5905c" d="M 160.5,247.5 C 161.979,250.143 161.646,252.643 159.5,255C 151.833,255.667 144.167,255.667 136.5,255C 133.621,253.334 132.788,250.834 134,247.5C 134.318,245.939 135.151,244.772 136.5,244C 142.853,243.707 149.187,243.207 155.5,242.5C 159.177,242.2 160.844,243.866 160.5,247.5 Z"/></g>
<g><path style="opacity:1" fill="#fbfcf5" d="M 137.5,253.5 C 136.833,253.5 136.5,253.167 136.5,252.5C 136.421,251.07 136.754,249.736 137.5,248.5C 144.468,247.503 151.468,247.17 158.5,247.5C 158.739,249.467 158.406,251.301 157.5,253C 150.842,253.5 144.175,253.666 137.5,253.5 Z"/></g>
<g><path style="opacity:1" fill="#feead4" d="M 160.5,247.5 C 160.896,250.044 160.229,252.211 158.5,254C 151.321,254.821 144.321,254.655 137.5,253.5C 144.175,253.666 150.842,253.5 157.5,253C 158.406,251.301 158.739,249.467 158.5,247.5C 151.468,247.17 144.468,247.503 137.5,248.5C 136.754,249.736 136.421,251.07 136.5,252.5C 135.246,250.643 135.246,248.643 136.5,246.5C 143.811,245.335 151.144,245.169 158.5,246C 159.044,246.717 159.711,247.217 160.5,247.5 Z"/></g>
<g><path style="opacity:1" fill="#f99355" d="M 165.5,232.5 C 166.993,233.312 167.66,234.645 167.5,236.5C 167.448,238.855 166.281,240.188 164,240.5C 162.604,239.606 161.104,238.939 159.5,238.5C 150.535,239.445 141.535,239.779 132.5,239.5C 132.5,238.5 132.5,237.5 132.5,236.5C 131.178,236.33 130.011,236.663 129,237.5C 128.142,244.981 127.308,252.314 126.5,259.5C 126.175,251.648 126.508,243.982 127.5,236.5C 129.113,234.73 131.113,233.564 133.5,233C 144.161,232.5 154.828,232.333 165.5,232.5 Z"/></g>
<g><path style="opacity:1" fill="#e5a271" d="M 166.5,230.5 C 166.5,230.833 166.5,231.167 166.5,231.5C 165.833,231.5 165.5,231.833 165.5,232.5C 154.828,232.333 144.161,232.5 133.5,233C 131.113,233.564 129.113,234.73 127.5,236.5C 128.353,233.482 130.353,231.649 133.5,231C 144.495,230.5 155.495,230.333 166.5,230.5 Z"/></g>
<g><path style="opacity:1" fill="#331921" d="M 122.5,208.5 C 124.296,209.793 125.963,211.293 127.5,213C 134.667,213.167 141.833,213.333 149,213.5C 156.533,213.497 163.699,212.831 170.5,211.5C 171.5,211.167 172.167,210.5 172.5,209.5C 173.167,209.5 173.833,209.5 174.5,209.5C 173.058,210.82 172.392,212.486 172.5,214.5C 157.163,214.667 141.83,214.5 126.5,214C 124.181,212.853 122.848,211.019 122.5,208.5 Z"/></g>
<g><path style="opacity:1" fill="#b4494b" d="M 120.5,200.5 C 121.167,200.5 121.833,200.5 122.5,200.5C 124.099,200.232 125.432,200.566 126.5,201.5C 125.5,201.5 124.5,201.5 123.5,201.5C 123.151,205.948 124.817,209.448 128.5,212C 142.526,212.762 156.526,212.596 170.5,211.5C 163.699,212.831 156.533,213.497 149,213.5C 141.833,213.333 134.667,213.167 127.5,213C 125.963,211.293 124.296,209.793 122.5,208.5C 120.954,206.118 120.287,203.451 120.5,200.5 Z"/></g>
<g><path style="opacity:1" fill="#fd8654" d="M 168.5,188.5 C 168.833,188.5 169.167,188.5 169.5,188.5C 169.666,192.846 169.499,197.179 169,201.5C 168.028,203.305 166.861,204.972 165.5,206.5C 154.181,207.666 142.848,207.832 131.5,207C 129.598,205.27 127.931,203.437 126.5,201.5C 125.432,200.566 124.099,200.232 122.5,200.5C 123.568,199.566 124.901,199.232 126.5,199.5C 126.833,199.5 127.167,199.5 127.5,199.5C 128.167,199.5 128.833,199.5 129.5,199.5C 129.178,201.722 129.845,203.556 131.5,205C 135.5,205.167 139.5,205.333 143.5,205.5C 151.186,204.887 158.853,204.221 166.5,203.5C 167.353,198.53 168.02,193.53 168.5,188.5 Z"/></g>
<g><path style="opacity:1" fill="#f3493f" d="M 168.5,171.5 C 170.929,171.585 172.929,172.585 174.5,174.5C 175.666,184.483 175.832,194.483 175,204.5C 173.906,206.078 173.072,207.745 172.5,209.5C 172.167,210.5 171.5,211.167 170.5,211.5C 156.526,212.596 142.526,212.762 128.5,212C 124.817,209.448 123.151,205.948 123.5,201.5C 124.5,201.5 125.5,201.5 126.5,201.5C 127.931,203.437 129.598,205.27 131.5,207C 142.848,207.832 154.181,207.666 165.5,206.5C 166.861,204.972 168.028,203.305 169,201.5C 169.499,197.179 169.666,192.846 169.5,188.5C 169.74,182.773 169.407,177.106 168.5,171.5 Z"/></g>
<g><path style="opacity:1" fill="#301e2e" d="M 176.5,173.5 C 177.29,174.609 177.79,175.942 178,177.5C 178.667,186.833 178.667,196.167 178,205.5C 177.26,207.319 176.093,208.652 174.5,209.5C 174.709,208.078 175.209,206.745 176,205.5C 176.5,194.839 176.667,184.172 176.5,173.5 Z"/></g>
<g><path style="opacity:1" fill="#fc9352" d="M 168.5,188.5 C 168.02,193.53 167.353,198.53 166.5,203.5C 158.853,204.221 151.186,204.887 143.5,205.5C 139.5,205.333 135.5,205.167 131.5,205C 129.845,203.556 129.178,201.722 129.5,199.5C 130.237,197.695 131.237,196.029 132.5,194.5C 131.523,190.764 132.19,190.764 134.5,194.5C 143.816,195.665 153.149,195.832 162.5,195C 163.288,191.924 163.788,188.758 164,185.5C 164.419,189.852 165.086,190.185 166,186.5C 166.417,187.756 167.25,188.423 168.5,188.5 Z"/></g>
<g><path style="opacity:1" fill="#f2f0e7" d="M 171.5,169.5 C 169.833,169.5 168.167,169.5 166.5,169.5C 154.399,169.041 142.399,169.541 130.5,171C 128.951,172.214 127.785,173.714 127,175.5C 126.5,183.493 126.334,191.493 126.5,199.5C 124.901,199.232 123.568,199.566 122.5,200.5C 121.833,200.5 121.167,200.5 120.5,200.5C 120.334,191.494 120.5,182.494 121,173.5C 122.563,170.272 125.063,168.105 128.5,167C 142.167,166.333 155.833,166.333 169.5,167C 170.381,167.708 171.047,168.542 171.5,169.5 Z"/></g>
<g><path style="opacity:1" fill="#c85656" d="M 166.5,170.5 C 166.5,170.167 166.5,169.833 166.5,169.5C 168.167,169.5 169.833,169.5 171.5,169.5C 173.573,170.3 175.24,171.633 176.5,173.5C 176.667,184.172 176.5,194.839 176,205.5C 175.209,206.745 174.709,208.078 174.5,209.5C 173.833,209.5 173.167,209.5 172.5,209.5C 173.072,207.745 173.906,206.078 175,204.5C 175.832,194.483 175.666,184.483 174.5,174.5C 172.929,172.585 170.929,171.585 168.5,171.5C 168.158,170.662 167.492,170.328 166.5,170.5 Z"/></g>
<g><path style="opacity:1" fill="#f9a05d" d="M 166.5,170.5 C 167.492,170.328 168.158,170.662 168.5,171.5C 169.407,177.106 169.74,182.773 169.5,188.5C 169.167,188.5 168.833,188.5 168.5,188.5C 167.25,188.423 166.417,187.756 166,186.5C 165.086,190.185 164.419,189.852 164,185.5C 163.788,188.758 163.288,191.924 162.5,195C 153.149,195.832 143.816,195.665 134.5,194.5C 132.19,190.764 131.523,190.764 132.5,194.5C 131.237,196.029 130.237,197.695 129.5,199.5C 128.833,199.5 128.167,199.5 127.5,199.5C 127.295,191.133 127.629,182.8 128.5,174.5C 131.084,174.431 133.084,173.265 134.5,171C 145.161,170.5 155.828,170.333 166.5,170.5 Z"/></g>
<g><path style="opacity:1" fill="#e5a97c" d="M 135.5,191.5 C 134.848,190.551 134.514,189.385 134.5,188C 134.675,186.342 135.342,185.009 136.5,184C 144.167,183.333 151.833,183.333 159.5,184C 162.091,187.297 162.091,190.631 159.5,194C 151.833,194.667 144.167,194.667 136.5,194C 135.748,193.329 135.414,192.496 135.5,191.5 Z"/></g>
<g><path style="opacity:1" fill="#fcf9ee" d="M 135.5,191.5 C 135.261,189.533 135.594,187.699 136.5,186C 144.167,185.333 151.833,185.333 159.5,186C 161.22,189.086 160.553,191.419 157.5,193C 150.833,193.667 144.167,193.667 137.5,193C 136.956,192.283 136.289,191.783 135.5,191.5 Z"/></g>
<g><path style="opacity:1" fill="#e7af7f" d="M 166.5,169.5 C 166.5,169.833 166.5,170.167 166.5,170.5C 155.828,170.333 145.161,170.5 134.5,171C 133.084,173.265 131.084,174.431 128.5,174.5C 127.629,182.8 127.295,191.133 127.5,199.5C 127.167,199.5 126.833,199.5 126.5,199.5C 126.334,191.493 126.5,183.493 127,175.5C 127.785,173.714 128.951,172.214 130.5,171C 142.399,169.541 154.399,169.041 166.5,169.5 Z"/></g>
<g><path style="opacity:1" fill="#1f222f" d="M 260.5,111.5 C 261.117,111.611 261.617,111.944 262,112.5C 262.952,119.298 263.452,126.132 263.5,133C 264.375,140.634 262.375,147.3 257.5,153C 249.74,154.117 241.907,154.617 234,154.5C 227.167,154.333 220.333,154.167 213.5,154C 210.01,151.622 207.677,152.455 206.5,156.5C 204.5,155.167 202.833,153.5 201.5,151.5C 203.989,151.702 206.323,151.202 208.5,150C 205.127,147.385 203.794,143.885 204.5,139.5C 204.833,139.5 205.167,139.5 205.5,139.5C 205.387,145.382 208.053,149.382 213.5,151.5C 213.611,152.117 213.944,152.617 214.5,153C 220.667,153.167 226.833,153.333 233,153.5C 239.538,153.496 245.705,152.83 251.5,151.5C 254.313,151.975 256.313,150.975 257.5,148.5C 258.885,147.426 260.051,146.093 261,144.5C 261.788,133.454 261.622,122.454 260.5,111.5 Z"/></g>
<g><path style="opacity:1" fill="#415f72" d="M 28.5,111.5 C 28.3335,122.838 28.5001,134.172 29,145.5C 31.5,152 36,156.5 42.5,159C 35.5366,161.627 31.0366,166.46 29,173.5C 28.3333,183.833 28.3333,194.167 29,204.5C 30.8281,211.987 35.3281,217.154 42.5,220C 35.8955,222.359 31.3955,226.859 29,233.5C 27.9655,245.945 28.4655,258.278 30.5,270.5C 31.1667,272.5 31.8333,274.5 32.5,276.5C 32.1667,276.5 31.8333,276.5 31.5,276.5C 26.3695,270.551 23.7029,263.551 23.5,255.5C 23.5,210.833 23.5,166.167 23.5,121.5C 24.3267,126.651 24.8267,131.984 25,137.5C 26.534,131.679 26.7006,125.846 25.5,120C 26.0446,116.813 26.7113,113.646 27.5,110.5C 28.1067,110.624 28.44,110.957 28.5,111.5 Z"/></g>
<g><path style="opacity:1" fill="#58272e" d="M 213.5,151.5 C 226.167,151.5 238.833,151.5 251.5,151.5C 245.705,152.83 239.538,153.496 233,153.5C 226.833,153.333 220.667,153.167 214.5,153C 213.944,152.617 213.611,152.117 213.5,151.5 Z"/></g>
<g><path style="opacity:1" fill="#38181e" d="M 40.5,149.5 C 41.8816,150.801 43.5483,151.634 45.5,152C 57.8288,152.5 70.1622,152.667 82.5,152.5C 68.6469,153.771 54.6469,153.771 40.5,152.5C 40.5,151.5 40.5,150.5 40.5,149.5 Z"/></g>
<g><path style="opacity:1" fill="#3a596e" d="M 214.5,98.5 C 205.8,99.3653 200.3,104.032 198,112.5C 197.333,122.833 197.333,133.167 198,143.5C 198.906,146.31 200.073,148.976 201.5,151.5C 202.833,153.5 204.5,155.167 206.5,156.5C 208.359,157.594 210.359,158.427 212.5,159C 203.948,161.27 198.948,166.77 197.5,175.5C 196.343,180 195.343,184.667 194.5,189.5C 193.833,188.833 193.167,188.167 192.5,187.5C 191.549,188.326 190.549,188.492 189.5,188C 189.833,187.667 190.167,187.333 190.5,187C 189.747,185.513 188.914,185.346 188,186.5C 187.78,184.027 186.614,182.36 184.5,181.5C 184.663,179.143 184.497,176.81 184,174.5C 182.363,166.862 177.863,161.695 170.5,159C 176.667,156.833 180.833,152.667 183,146.5C 185,134.167 185,121.833 183,109.5C 180.768,104.269 176.935,100.769 171.5,99C 156.167,98.3333 140.833,98.3333 125.5,99C 118.483,101.352 114.316,106.185 113,113.5C 112.333,123.167 112.333,132.833 113,142.5C 114.318,151.148 119.152,156.648 127.5,159C 117.348,161.995 112.348,168.828 112.5,179.5C 111.503,179.53 110.836,179.03 110.5,178C 109.914,173.72 108.914,169.554 107.5,165.5C 106.914,165.709 106.414,166.043 106,166.5C 104.815,164.441 103.648,164.274 102.5,166C 103.69,170.282 105.69,174.115 108.5,177.5C 108.297,179.208 107.464,180.541 106,181.5C 105.53,179.226 104.53,177.226 103,175.5C 102.667,184.167 102.333,192.833 102,201.5C 101.31,202.738 100.81,202.738 100.5,201.5C 100.923,191.42 100.423,181.42 99,171.5C 96.1346,165.637 91.6346,161.47 85.5,159C 92.5298,157.062 97.0298,152.562 99,145.5C 99.6667,134.167 99.6667,122.833 99,111.5C 96.8074,105.307 92.6407,101.141 86.5,99C 73.8377,98.5001 61.1711,98.3334 48.5,98.5C 51.6414,97.6787 54.9748,97.1787 58.5,97C 56.8333,96.6667 55.1667,96.3333 53.5,96C 56.4655,95.6516 58.9655,94.485 61,92.5C 81.8589,93.409 102.692,94.409 123.5,95.5C 126.826,94.9534 130.16,94.4534 133.5,94C 135.076,93.5604 136.41,92.727 137.5,91.5C 142.128,92.297 146.795,92.9637 151.5,93.5C 166.253,92.609 180.92,92.609 195.5,93.5C 197.189,93.2741 198.855,92.9408 200.5,92.5C 201.713,92.2528 202.38,91.5862 202.5,90.5C 217.55,90.9156 232.55,90.4156 247.5,89C 248.738,88.31 248.738,87.81 247.5,87.5C 252.754,85.8728 257.42,83.2061 261.5,79.5C 265.417,76.0121 268.083,71.6788 269.5,66.5C 270.939,65.4908 272.272,65.8241 273.5,67.5C 270.277,71.6687 266.777,76.3354 263,81.5C 260.489,83.5628 257.656,85.0628 254.5,86C 252.875,86.8525 252.542,87.8525 253.5,89C 251.483,89.6743 249.817,90.8409 248.5,92.5C 247.393,91.9781 246.226,91.6448 245,91.5C 242.033,92.7113 239.033,93.7113 236,94.5C 234.352,92.9716 232.352,92.3049 230,92.5C 225.828,92.9589 221.662,93.4589 217.5,94C 218.337,95.0113 218.67,96.1779 218.5,97.5C 216.901,97.2322 215.568,97.5655 214.5,98.5 Z"/></g>
<g><path style="opacity:1" fill="#27202c" d="M 176.5,112.5 C 178.054,118.754 178.72,125.254 178.5,132C 178.696,139.03 178.029,145.863 176.5,152.5C 175.448,152.649 174.448,152.483 173.5,152C 174.696,151.346 174.696,150.846 173.5,150.5C 171.96,152.437 169.96,153.604 167.5,154C 153.837,154.5 140.171,154.667 126.5,154.5C 126.5,153.5 126.5,152.5 126.5,151.5C 127.167,151.5 127.833,151.5 128.5,151.5C 141.66,152.66 154.994,152.827 168.5,152C 171.735,150.64 174.235,148.473 176,145.5C 176.5,134.505 176.667,123.505 176.5,112.5 Z"/></g>
<g><path style="opacity:1" fill="#f44740" d="M 171.5,110.5 C 173.017,110.511 174.184,111.177 175,112.5C 175.667,123.167 175.667,133.833 175,144.5C 173.013,147.667 170.18,149.667 166.5,150.5C 153.496,150.667 140.496,150.5 127.5,150C 126.594,148.301 126.261,146.467 126.5,144.5C 127.922,144.75 128.922,145.583 129.5,147C 134,147.167 138.5,147.333 143,147.5C 149.723,147.002 156.389,147.002 163,147.5C 165.149,146.701 167.316,145.867 169.5,145C 170.249,143.266 170.749,141.433 171,139.5C 171.5,129.839 171.666,120.172 171.5,110.5 Z"/></g>
<g><path style="opacity:1" fill="#e94e42" d="M 83.5,109.5 C 87.6013,109.43 90.1013,111.43 91,115.5C 91.7576,125.534 91.591,135.534 90.5,145.5C 89.5849,147.754 88.2516,149.754 86.5,151.5C 84.901,151.232 83.5676,151.566 82.5,152.5C 70.1622,152.667 57.8288,152.5 45.5,152C 43.5483,151.634 41.8816,150.801 40.5,149.5C 39.8333,148.5 39.1667,147.5 38.5,146.5C 37.6799,142.778 39.0132,140.445 42.5,139.5C 43.1667,139.5 43.5,139.833 43.5,140.5C 44.2279,142.735 45.5612,144.568 47.5,146C 58.5151,146.832 69.5151,146.666 80.5,145.5C 82.5267,144.307 84.0267,142.64 85,140.5C 85.6667,131.5 85.6667,122.5 85,113.5C 84.5899,112.099 84.0899,110.766 83.5,109.5 Z"/></g>
<g><path style="opacity:1" fill="#e0504c" d="M 120.5,139.5 C 121.167,139.5 121.833,139.5 122.5,139.5C 124.836,140.296 126.169,141.962 126.5,144.5C 126.261,146.467 126.594,148.301 127.5,150C 140.496,150.5 153.496,150.667 166.5,150.5C 154.011,151.495 141.344,151.829 128.5,151.5C 127.833,151.5 127.167,151.5 126.5,151.5C 122.881,148.263 120.881,144.263 120.5,139.5 Z"/></g>
<g><path style="opacity:1" fill="#fd9758" d="M 82.5,109.5 C 82.8333,109.5 83.1667,109.5 83.5,109.5C 84.0899,110.766 84.5899,112.099 85,113.5C 85.6667,122.5 85.6667,131.5 85,140.5C 84.0267,142.64 82.5267,144.307 80.5,145.5C 69.5151,146.666 58.5151,146.832 47.5,146C 45.5612,144.568 44.2279,142.735 43.5,140.5C 46.0312,139.97 48.0312,138.636 49.5,136.5C 51.321,137.728 52.321,139.394 52.5,141.5C 54.1986,141.38 55.8653,141.046 57.5,140.5C 64.022,142.501 70.6887,143.001 77.5,142C 78.3081,141.692 78.9747,141.192 79.5,140.5C 74.615,139.198 69.7817,139.198 65,140.5C 64.2496,139.874 63.4162,139.374 62.5,139C 67.5944,138.712 72.5944,137.879 77.5,136.5C 79.4534,137.156 81.4534,137.489 83.5,137.5C 84.6828,128.113 84.3495,118.779 82.5,109.5 Z"/></g>
<g><path style="opacity:1" fill="#fc9659" d="M 253.5,113.5 C 253.833,113.5 254.167,113.5 254.5,113.5C 254.666,122.173 254.5,130.84 254,139.5C 253.163,141.351 252.329,143.184 251.5,145C 240.239,146.6 228.906,146.933 217.5,146C 215.676,145.34 214.343,144.173 213.5,142.5C 218.923,144.508 224.59,145.008 230.5,144C 231.701,143.097 232.535,141.931 233,140.5C 237.678,142.059 242.178,141.726 246.5,139.5C 247.167,137.5 247.833,135.5 248.5,133.5C 250.432,134.145 251.599,135.479 252,137.5C 253.098,129.536 253.598,121.536 253.5,113.5 Z"/></g>
<g><path style="opacity:1" fill="#c65b59" d="M 42.5,138.5 C 42.5,138.833 42.5,139.167 42.5,139.5C 39.0132,140.445 37.6799,142.778 38.5,146.5C 36.8372,144.562 36.1706,142.228 36.5,139.5C 38.5,139.167 40.5,138.833 42.5,138.5 Z"/></g>
<g><path style="opacity:1" fill="#fb9c59" d="M 165.5,110.5 C 165.842,109.662 166.508,109.328 167.5,109.5C 167.987,110.473 168.487,111.473 169,112.5C 169.667,122.167 169.667,131.833 169,141.5C 167.833,142.667 166.667,143.833 165.5,145C 153.833,145.667 142.167,145.667 130.5,145C 128.797,142.668 126.797,140.835 124.5,139.5C 125.167,138.833 125.833,138.167 126.5,137.5C 127.467,136.194 128.801,135.527 130.5,135.5C 130.5,130.833 130.5,126.167 130.5,121.5C 131.978,121.238 133.311,121.571 134.5,122.5C 133.234,124.972 133.234,127.306 134.5,129.5C 134.421,130.93 134.754,132.264 135.5,133.5C 144.325,134.821 152.991,134.821 161.5,133.5C 164.006,130.911 165.673,131.578 166.5,135.5C 167.652,132.894 167.818,130.227 167,127.5C 166.5,126.333 165.667,125.5 164.5,125C 168.003,122.755 168.67,120.088 166.5,117C 167.543,114.627 167.21,112.46 165.5,110.5 Z"/></g>
<g><path style="opacity:1" fill="#faa560" d="M 82.5,109.5 C 84.3495,118.779 84.6828,128.113 83.5,137.5C 81.4534,137.489 79.4534,137.156 77.5,136.5C 72.5944,137.879 67.5944,138.712 62.5,139C 63.4162,139.374 64.2496,139.874 65,140.5C 69.7817,139.198 74.615,139.198 79.5,140.5C 78.9747,141.192 78.3081,141.692 77.5,142C 70.6887,143.001 64.022,142.501 57.5,140.5C 55.8653,141.046 54.1986,141.38 52.5,141.5C 52.321,139.394 51.321,137.728 49.5,136.5C 48.0312,138.636 46.0312,139.97 43.5,140.5C 43.5,139.833 43.1667,139.5 42.5,139.5C 42.5,139.167 42.5,138.833 42.5,138.5C 44.6727,135.983 45.6727,132.983 45.5,129.5C 47.1667,129.5 48.8333,129.5 50.5,129.5C 50.33,130.822 50.6634,131.989 51.5,133C 59.5,133.667 67.5,133.667 75.5,133C 76.3366,131.989 76.67,130.822 76.5,129.5C 77.831,126.939 77.4977,124.439 75.5,122C 68.5,121.333 61.5,121.333 54.5,122C 52.0937,122.306 49.927,123.139 48,124.5C 46.3651,124.122 44.8651,123.456 43.5,122.5C 44.3145,117.729 46.6479,113.896 50.5,111C 61.2428,110.81 71.9095,110.31 82.5,109.5 Z"/></g>
<g><path style="opacity:1" fill="#281c27" d="M 87.5,108.5 C 87.5,108.167 87.5,107.833 87.5,107.5C 89.3146,108.63 91.3146,109.296 93.5,109.5C 93.8324,122.184 93.4991,134.851 92.5,147.5C 91.8408,150.824 89.8408,152.157 86.5,151.5C 88.2516,149.754 89.5849,147.754 90.5,145.5C 91.2216,145.082 91.7216,144.416 92,143.5C 92.6667,133.5 92.6667,123.5 92,113.5C 91.0041,111.34 89.5041,109.673 87.5,108.5 Z"/></g>
<g><path style="opacity:1" fill="#f1f4f3" d="M 253.5,106.5 C 241.34,107.331 229.007,107.831 216.5,108C 215.376,108.249 214.376,108.749 213.5,109.5C 211.354,113.056 209.354,116.722 207.5,120.5C 208.937,122.021 209.604,123.855 209.5,126C 208.763,130.137 208.429,134.303 208.5,138.5C 208.5,138.833 208.5,139.167 208.5,139.5C 207.5,139.5 206.5,139.5 205.5,139.5C 205.167,139.5 204.833,139.5 204.5,139.5C 204.334,131.16 204.5,122.827 205,114.5C 205.883,111.898 207.383,109.731 209.5,108C 224.07,106.533 238.736,106.033 253.5,106.5 Z"/></g>
<g><path style="opacity:1" fill="#f7faf4" d="M 169.5,106.5 C 157.674,107.331 145.674,107.831 133.5,108C 130.888,108.639 128.554,109.806 126.5,111.5C 125.669,118.476 125.169,125.476 125,132.5C 124.847,135.151 124.013,137.484 122.5,139.5C 121.833,139.5 121.167,139.5 120.5,139.5C 120.334,130.494 120.5,121.494 121,112.5C 122.167,110 124,108.167 126.5,107C 140.829,106.5 155.163,106.333 169.5,106.5 Z"/></g>
<g><path style="opacity:1" fill="#f8a360" d="M 252.5,111.5 C 253.338,111.842 253.672,112.508 253.5,113.5C 253.598,121.536 253.098,129.536 252,137.5C 251.599,135.479 250.432,134.145 248.5,133.5C 247.833,135.5 247.167,137.5 246.5,139.5C 242.178,141.726 237.678,142.059 233,140.5C 232.535,141.931 231.701,143.097 230.5,144C 224.59,145.008 218.923,144.508 213.5,142.5C 212.656,140.241 210.989,139.241 208.5,139.5C 208.5,139.167 208.5,138.833 208.5,138.5C 209.791,138.737 210.791,138.404 211.5,137.5C 212.586,129.884 214.086,122.218 216,114.5C 216.202,116.256 216.702,117.922 217.5,119.5C 218.192,118.975 218.692,118.308 219,117.5C 219.122,119.437 219.955,120.77 221.5,121.5C 224.015,123.182 226.015,125.348 227.5,128C 226.026,130.474 224.193,132.64 222,134.5C 221.965,139.39 224.132,140.557 228.5,138C 230.017,136.315 231.684,134.815 233.5,133.5C 235.909,135.918 238.576,137.918 241.5,139.5C 244.794,138.864 246.127,136.864 245.5,133.5C 244.519,131.511 243.519,129.511 242.5,127.5C 243.547,125.944 244.214,124.277 244.5,122.5C 245.5,122.5 246.5,122.5 247.5,122.5C 247.33,118.355 247.997,114.355 249.5,110.5C 250.417,111.127 251.417,111.461 252.5,111.5 Z"/></g>
<g><path style="opacity:1" fill="#fbf7ec" d="M 245.5,133.5 C 246.127,136.864 244.794,138.864 241.5,139.5C 238.576,137.918 235.909,135.918 233.5,133.5C 231.684,134.815 230.017,136.315 228.5,138C 224.132,140.557 221.965,139.39 222,134.5C 224.193,132.64 226.026,130.474 227.5,128C 226.015,125.348 224.015,123.182 221.5,121.5C 220.507,116.325 222.507,114.491 227.5,116C 229.677,117.515 231.844,119.015 234,120.5C 235.723,118.92 237.556,117.42 239.5,116C 244.885,114.55 246.552,116.383 244.5,121.5C 242.659,123.511 240.992,125.678 239.5,128C 241.196,130.296 243.196,132.129 245.5,133.5 Z"/></g>
<g><path style="opacity:1" fill="#b75354" d="M 171.5,107.5 C 173.5,108.833 175.167,110.5 176.5,112.5C 176.667,123.505 176.5,134.505 176,145.5C 174.235,148.473 171.735,150.64 168.5,152C 154.994,152.827 141.66,152.66 128.5,151.5C 141.344,151.829 154.011,151.495 166.5,150.5C 170.18,149.667 173.013,147.667 175,144.5C 175.667,133.833 175.667,123.167 175,112.5C 174.184,111.177 173.017,110.511 171.5,110.5C 170.292,109.766 168.959,109.433 167.5,109.5C 167.5,109.167 167.5,108.833 167.5,108.5C 169.099,108.768 170.432,108.434 171.5,107.5 Z"/></g>
<g><path style="opacity:1" fill="#edad73" d="M 82.5,108.5 C 82.5,108.833 82.5,109.167 82.5,109.5C 71.9095,110.31 61.2428,110.81 50.5,111C 46.6479,113.896 44.3145,117.729 43.5,122.5C 44.8651,123.456 46.3651,124.122 48,124.5C 49.927,123.139 52.0937,122.306 54.5,122C 61.5,121.333 68.5,121.333 75.5,122C 77.4977,124.439 77.831,126.939 76.5,129.5C 76.67,130.822 76.3366,131.989 75.5,133C 67.5,133.667 59.5,133.667 51.5,133C 50.6634,131.989 50.33,130.822 50.5,129.5C 48.8333,129.5 47.1667,129.5 45.5,129.5C 45.6727,132.983 44.6727,135.983 42.5,138.5C 42.3336,130.493 42.5003,122.493 43,114.5C 44.457,112.342 46.2903,110.509 48.5,109C 59.8284,108.5 71.1618,108.333 82.5,108.5 Z"/></g>
<g><path style="opacity:1" fill="#fef6ea" d="M 76.5,129.5 C 75.7326,130.172 75.0659,131.005 74.5,132C 67.5,132.667 60.5,132.667 53.5,132C 50.6468,128.904 50.9801,126.237 54.5,124C 61.1667,123.333 67.8333,123.333 74.5,124C 76.1554,125.444 76.822,127.278 76.5,129.5 Z"/></g>
<g><path style="opacity:1" fill="#9f4e47" d="M 82.5,109.5 C 82.5,109.167 82.5,108.833 82.5,108.5C 84.1667,108.5 85.8333,108.5 87.5,108.5C 89.5041,109.673 91.0041,111.34 92,113.5C 92.6667,123.5 92.6667,133.5 92,143.5C 91.7216,144.416 91.2216,145.082 90.5,145.5C 91.591,135.534 91.7576,125.534 91,115.5C 90.1013,111.43 87.6013,109.43 83.5,109.5C 83.1667,109.5 82.8333,109.5 82.5,109.5 Z"/></g>
<g><path style="opacity:1" fill="#f14c3f" d="M 257.5,148.5 C 256.313,150.975 254.313,151.975 251.5,151.5C 238.833,151.5 226.167,151.5 213.5,151.5C 208.053,149.382 205.387,145.382 205.5,139.5C 206.5,139.5 207.5,139.5 208.5,139.5C 210.989,139.241 212.656,140.241 213.5,142.5C 214.343,144.173 215.676,145.34 217.5,146C 228.906,146.933 240.239,146.6 251.5,145C 252.329,143.184 253.163,141.351 254,139.5C 254.5,130.84 254.666,122.173 254.5,113.5C 254.369,112.624 254.702,111.957 255.5,111.5C 256.814,112.313 257.981,113.313 259,114.5C 260.018,126.021 259.518,137.354 257.5,148.5 Z"/></g>
<g><path style="opacity:1" fill="#ed5e40" d="M 167.5,109.5 C 168.959,109.433 170.292,109.766 171.5,110.5C 171.666,120.172 171.5,129.839 171,139.5C 170.749,141.433 170.249,143.266 169.5,145C 167.316,145.867 165.149,146.701 163,147.5C 156.389,147.002 149.723,147.002 143,147.5C 138.5,147.333 134,147.167 129.5,147C 128.922,145.583 127.922,144.75 126.5,144.5C 126.169,141.962 124.836,140.296 122.5,139.5C 123.167,139.5 123.833,139.5 124.5,139.5C 126.797,140.835 128.797,142.668 130.5,145C 142.167,145.667 153.833,145.667 165.5,145C 166.667,143.833 167.833,142.667 169,141.5C 169.667,131.833 169.667,122.167 169,112.5C 168.487,111.473 167.987,110.473 167.5,109.5 Z"/></g>
<g><path style="opacity:1" fill="#f7f6ec" d="M 87.5,107.5 C 87.5,107.833 87.5,108.167 87.5,108.5C 85.8333,108.5 84.1667,108.5 82.5,108.5C 71.1618,108.333 59.8284,108.5 48.5,109C 46.2903,110.509 44.457,112.342 43,114.5C 42.5003,122.493 42.3336,130.493 42.5,138.5C 40.5,138.833 38.5,139.167 36.5,139.5C 36.3336,130.494 36.5002,121.494 37,112.5C 37.7845,110.714 38.9512,109.214 40.5,108C 48.2343,106.864 56.0677,106.364 64,106.5C 71.879,106.531 79.7123,106.865 87.5,107.5 Z"/></g>
<g><path style="opacity:1" fill="#f0af70" d="M 251.5,108.5 C 251.557,109.609 251.89,110.609 252.5,111.5C 251.417,111.461 250.417,111.127 249.5,110.5C 247.997,114.355 247.33,118.355 247.5,122.5C 246.5,122.5 245.5,122.5 244.5,122.5C 244.214,124.277 243.547,125.944 242.5,127.5C 243.519,129.511 244.519,131.511 245.5,133.5C 243.196,132.129 241.196,130.296 239.5,128C 240.992,125.678 242.659,123.511 244.5,121.5C 246.552,116.383 244.885,114.55 239.5,116C 237.556,117.42 235.723,118.92 234,120.5C 231.844,119.015 229.677,117.515 227.5,116C 222.507,114.491 220.507,116.325 221.5,121.5C 219.955,120.77 219.122,119.437 219,117.5C 218.692,118.308 218.192,118.975 217.5,119.5C 216.702,117.922 216.202,116.256 216,114.5C 214.086,122.218 212.586,129.884 211.5,137.5C 211.334,129.826 211.5,122.159 212,114.5C 213.251,111.619 215.417,109.786 218.5,109C 229.495,108.5 240.495,108.333 251.5,108.5 Z"/></g>
<g><path style="opacity:1" fill="#faaa65" d="M 165.5,110.5 C 167.21,112.46 167.543,114.627 166.5,117C 168.67,120.088 168.003,122.755 164.5,125C 165.667,125.5 166.5,126.333 167,127.5C 167.818,130.227 167.652,132.894 166.5,135.5C 165.673,131.578 164.006,130.911 161.5,133.5C 163.701,122.546 159.201,118.546 148,121.5C 143.771,121.51 139.938,122.177 136.5,123.5C 136.167,124.167 135.833,124.833 135.5,125.5C 134.566,126.568 134.232,127.901 134.5,129.5C 133.234,127.306 133.234,124.972 134.5,122.5C 133.311,121.571 131.978,121.238 130.5,121.5C 130.5,126.167 130.5,130.833 130.5,135.5C 128.801,135.527 127.467,136.194 126.5,137.5C 126.5,136.167 126.5,134.833 126.5,133.5C 127.275,127.97 128.109,122.303 129,116.5C 130.833,114.667 132.667,112.833 134.5,111C 144.828,110.5 155.161,110.334 165.5,110.5 Z"/></g>
<g><path style="opacity:1" fill="#eda570" d="M 161.5,133.5 C 152.991,134.821 144.325,134.821 135.5,133.5C 134.754,132.264 134.421,130.93 134.5,129.5C 134.232,127.901 134.566,126.568 135.5,125.5C 135.12,127.698 135.787,129.365 137.5,130.5C 137.5,131.167 137.833,131.5 138.5,131.5C 145.321,132.655 152.321,132.821 159.5,132C 161.013,129.084 160.68,126.418 158.5,124C 151.174,123.5 143.841,123.334 136.5,123.5C 139.938,122.177 143.771,121.51 148,121.5C 159.201,118.546 163.701,122.546 161.5,133.5 Z"/></g>
<g><path style="opacity:1" fill="#fcfdf8" d="M 138.5,131.5 C 137.833,131.5 137.5,131.167 137.5,130.5C 137.286,128.856 137.62,127.356 138.5,126C 145.158,125.5 151.825,125.334 158.5,125.5C 158.5,127.5 158.5,129.5 158.5,131.5C 151.833,131.5 145.167,131.5 138.5,131.5 Z"/></g>
<g><path style="opacity:1" fill="#fdebcf" d="M 136.5,123.5 C 143.841,123.334 151.174,123.5 158.5,124C 160.68,126.418 161.013,129.084 159.5,132C 152.321,132.821 145.321,132.655 138.5,131.5C 145.167,131.5 151.833,131.5 158.5,131.5C 158.5,129.5 158.5,127.5 158.5,125.5C 151.825,125.334 145.158,125.5 138.5,126C 137.62,127.356 137.286,128.856 137.5,130.5C 135.787,129.365 135.12,127.698 135.5,125.5C 135.833,124.833 136.167,124.167 136.5,123.5 Z"/></g>
<g><path style="opacity:1" fill="#cd5853" d="M 251.5,108.5 C 253.167,108.5 254.833,108.5 256.5,108.5C 257.833,109.5 259.167,110.5 260.5,111.5C 261.622,122.454 261.788,133.454 261,144.5C 260.051,146.093 258.885,147.426 257.5,148.5C 259.518,137.354 260.018,126.021 259,114.5C 257.981,113.313 256.814,112.313 255.5,111.5C 254.702,111.957 254.369,112.624 254.5,113.5C 254.167,113.5 253.833,113.5 253.5,113.5C 253.672,112.508 253.338,111.842 252.5,111.5C 251.89,110.609 251.557,109.609 251.5,108.5 Z"/></g>
<g><path style="opacity:1" fill="#fdf2d9" d="M 253.5,106.5 C 254.71,106.932 255.71,107.599 256.5,108.5C 254.833,108.5 253.167,108.5 251.5,108.5C 240.495,108.333 229.495,108.5 218.5,109C 215.417,109.786 213.251,111.619 212,114.5C 211.5,122.159 211.334,129.826 211.5,137.5C 210.791,138.404 209.791,138.737 208.5,138.5C 208.429,134.303 208.763,130.137 209.5,126C 209.604,123.855 208.937,122.021 207.5,120.5C 209.354,116.722 211.354,113.056 213.5,109.5C 214.376,108.749 215.376,108.249 216.5,108C 229.007,107.831 241.34,107.331 253.5,106.5 Z"/></g>
<g><path style="opacity:1" fill="#e8b381" d="M 167.5,108.5 C 167.5,108.833 167.5,109.167 167.5,109.5C 166.508,109.328 165.842,109.662 165.5,110.5C 155.161,110.334 144.828,110.5 134.5,111C 132.667,112.833 130.833,114.667 129,116.5C 128.109,122.303 127.275,127.97 126.5,133.5C 126.334,127.491 126.501,121.491 127,115.5C 128.122,113.376 129.622,111.543 131.5,110C 143.424,108.562 155.424,108.062 167.5,108.5 Z"/></g>
<g><path style="opacity:1" fill="#fdedd4" d="M 169.5,106.5 C 170.167,106.833 170.833,107.167 171.5,107.5C 170.432,108.434 169.099,108.768 167.5,108.5C 155.424,108.062 143.424,108.562 131.5,110C 129.622,111.543 128.122,113.376 127,115.5C 126.501,121.491 126.334,127.491 126.5,133.5C 126.5,134.833 126.5,136.167 126.5,137.5C 125.833,138.167 125.167,138.833 124.5,139.5C 123.833,139.5 123.167,139.5 122.5,139.5C 124.013,137.484 124.847,135.151 125,132.5C 125.169,125.476 125.669,118.476 126.5,111.5C 128.554,109.806 130.888,108.639 133.5,108C 145.674,107.831 157.674,107.331 169.5,106.5 Z"/></g>
<g><path style="opacity:1" fill="#738995" d="M 179.5,87.5 C 202.167,87.5 224.833,87.5 247.5,87.5C 248.738,87.81 248.738,88.31 247.5,89C 232.55,90.4156 217.55,90.9156 202.5,90.5C 152.664,90.8322 102.997,90.4989 53.5,89.5C 95.8466,90.1612 137.847,89.4945 179.5,87.5 Z"/></g>
<g><path style="opacity:1" fill="#92a2ac" d="M 38.5,81.5 C 41.8611,83.8472 45.5277,85.6806 49.5,87C 92.8321,87.5 136.165,87.6667 179.5,87.5C 137.847,89.4945 95.8466,90.1612 53.5,89.5C 46.9115,89.0284 41.2449,86.5284 36.5,82C 37.0944,81.5357 37.7611,81.369 38.5,81.5 Z"/></g>
<g><path style="opacity:1" fill="#496475" d="M 27.5,49.5 C 25.4957,62.27 29.1624,72.9366 38.5,81.5C 37.7611,81.369 37.0944,81.5357 36.5,82C 41.2449,86.5284 46.9115,89.0284 53.5,89.5C 102.997,90.4989 152.664,90.8322 202.5,90.5C 202.38,91.5862 201.713,92.2528 200.5,92.5C 198.855,92.9408 197.189,93.2741 195.5,93.5C 180.92,92.609 166.253,92.609 151.5,93.5C 146.795,92.9637 142.128,92.297 137.5,91.5C 136.41,92.727 135.076,93.5604 133.5,94C 130.16,94.4534 126.826,94.9534 123.5,95.5C 102.692,94.409 81.8589,93.409 61,92.5C 58.9655,94.485 56.4655,95.6516 53.5,96C 55.1667,96.3333 56.8333,96.6667 58.5,97C 54.9748,97.1787 51.6414,97.6787 48.5,98.5C 44.313,98.3947 40.313,99.228 36.5,101C 33.2023,104.116 30.5356,107.616 28.5,111.5C 28.44,110.957 28.1067,110.624 27.5,110.5C 26.7113,113.646 26.0446,116.813 25.5,120C 26.7006,125.846 26.534,131.679 25,137.5C 24.8267,131.984 24.3267,126.651 23.5,121.5C 23.3334,100.497 23.5,79.4974 24,58.5C 24.8611,55.2695 26.0278,52.2695 27.5,49.5 Z"/></g>
<g><path style="opacity:0.937" fill="#422732" d="M 274.5,291.5 C 270.833,294.167 267.167,296.833 263.5,299.5C 262.167,299.5 260.833,299.5 259.5,299.5C 262.019,296.983 265.019,295.317 268.5,294.5C 268.5,293.5 268.5,292.5 268.5,291.5C 270.5,291.5 272.5,291.5 274.5,291.5 Z"/></g>
</svg>
