<?xml version="1.0" encoding="UTF-8"?>
<!DOCTYPE svg PUBLIC "-//W3C//DTD SVG 1.1//EN" "http://www.w3.org/Graphics/SVG/1.1/DTD/svg11.dtd">
<svg xmlns="http://www.w3.org/2000/svg" version="1.1" width="85px" height="68px" style="shape-rendering:geometricPrecision; text-rendering:geometricPrecision; image-rendering:optimizeQuality; fill-rule:evenodd; clip-rule:evenodd" xmlns:xlink="http://www.w3.org/1999/xlink">
<g><path style="opacity:1" fill="#f9db0f" d="M 76.5,0.5 C 76.5,0.833333 76.5,1.16667 76.5,1.5C 76.163,21.6875 75.163,41.6875 73.5,61.5C 66.2158,60.4032 58.8825,60.2365 51.5,61C 48.7163,61.8917 46.0496,63.0584 43.5,64.5C 42.5832,63.8728 41.5832,63.5394 40.5,63.5C 40.5,44.1667 40.5,24.8333 40.5,5.5C 52.027,0.991864 64.027,-0.674802 76.5,0.5 Z"/></g>
<g><path style="opacity:1" fill="#6f3157" d="M 80.5,2.5 C 81.1667,2.83333 81.8333,3.16667 82.5,3.5C 82.5,23.8333 82.5,44.1667 82.5,64.5C 80.8333,64.5 79.1667,64.5 77.5,64.5C 77.5,64.1667 77.5,63.8333 77.5,63.5C 77.8333,63.5 78.1667,63.5 78.5,63.5C 80.4883,43.5275 81.1549,23.1941 80.5,2.5 Z"/></g>
<g><path style="opacity:1" fill="#cba432" d="M 76.5,1.5 C 76.5,21.8333 76.5,42.1667 76.5,62.5C 75.209,62.7373 74.209,62.404 73.5,61.5C 75.163,41.6875 76.163,21.6875 76.5,1.5 Z"/></g>
<g><path style="opacity:1" fill="#c0605d" d="M 8.5,0.5 C 7.51218,21.091 7.17885,41.7577 7.5,62.5C 5.59791,64.1511 3.59791,64.4845 1.5,63.5C 2.49717,43.3402 2.8305,23.0069 2.5,2.5C 3.98989,0.720173 5.98989,0.0535068 8.5,0.5 Z"/></g>
<g><path style="opacity:1" fill="#cb780e" d="M 49.5,19.5 C 53.5,19.5 57.5,19.5 61.5,19.5C 61.5,24.1667 61.5,28.8333 61.5,33.5C 57.5,33.5 53.5,33.5 49.5,33.5C 49.5,28.8333 49.5,24.1667 49.5,19.5 Z"/></g>
<g><path style="opacity:1" fill="#f8d60a" d="M 50.5,20.5 C 53.3938,20.0423 55.8938,20.709 58,22.5C 58.6667,21.8333 59.3333,21.1667 60,20.5C 60.4988,24.4862 60.6655,28.4862 60.5,32.5C 57.1501,32.665 53.8168,32.4983 50.5,32C 52.3293,30.8867 53.1626,29.3867 53,27.5C 52.3333,28.1667 51.6667,28.8333 51,29.5C 50.502,26.5184 50.3354,23.5184 50.5,20.5 Z"/></g>
<g><path style="opacity:1" fill="#f0e5c1" d="M 8.5,0.5 C 15.175,0.333749 21.8417,0.500416 28.5,1C 32.9516,1.60056 36.9516,3.10056 40.5,5.5C 40.5,24.8333 40.5,44.1667 40.5,63.5C 40.44,64.0431 40.1067,64.3764 39.5,64.5C 29.1544,59.9521 18.4878,59.2854 7.5,62.5C 7.17885,41.7577 7.51218,21.091 8.5,0.5 Z"/></g>
<g><path style="opacity:1" fill="#dfaf19" d="M 49.5,43.5 C 64.1667,42.8333 64.1667,42.1667 49.5,41.5C 49.1961,40.8501 48.8627,40.1835 48.5,39.5C 55.1418,38.3358 61.8085,38.1691 68.5,39C 69.8333,40.3333 69.8333,41.6667 68.5,43C 64.4146,44.2058 60.2479,45.0391 56,45.5C 53.3897,45.4668 51.223,44.8001 49.5,43.5 Z"/></g>
<g><path style="opacity:1" fill="#7f2738" d="M 80.5,2.5 C 81.1549,23.1941 80.4883,43.5275 78.5,63.5C 77.8451,42.8059 78.5117,22.4725 80.5,2.5 Z"/></g>
<g><path style="opacity:0.898" fill="#cdd7cd" d="M 2.5,2.5 C 2.8305,23.0069 2.49717,43.3402 1.5,63.5C 0.833333,63.5 0.5,63.8333 0.5,64.5C 0.166667,64.5 -0.166667,64.5 -0.5,64.5C -0.5,44.1667 -0.5,23.8333 -0.5,3.5C 0.391047,2.89022 1.39105,2.55688 2.5,2.5 Z"/></g>
<g><path style="opacity:1" fill="#7d5a41" d="M 62.5,39.5 C 64.1667,39.5 65.8333,39.5 67.5,39.5C 67.5,40.5 67.5,41.5 67.5,42.5C 65.8333,42.5 64.1667,42.5 62.5,42.5C 62.5,41.5 62.5,40.5 62.5,39.5 Z"/></g>
<g><path style="opacity:1" fill="#dec1a8" d="M 16.5,25.5 C 22.8421,25.3338 29.1754,25.5005 35.5,26C 11.5276,26.5023 11.5276,27.3357 35.5,28.5C 36.0634,29.9385 36.3968,31.4385 36.5,33C 36.3541,38.8641 36.3541,44.6975 36.5,50.5C 29.8665,51.4967 23.1998,51.83 16.5,51.5C 16.5,49.5 16.5,47.5 16.5,45.5C 21.8437,45.666 27.1771,45.4994 32.5,45C 27.5,44.6667 22.5,44.3333 17.5,44C 41.5,43.3333 41.5,42.6667 17.5,42C 37.4669,41.4966 37.4669,40.6633 17.5,39.5C 17.4369,34.9646 17.1035,30.2979 16.5,25.5 Z"/></g>
<g><path style="opacity:1" fill="#bfb099" d="M 49.5,41.5 C 64.1667,42.1667 64.1667,42.8333 49.5,43.5C 49.5,42.8333 49.5,42.1667 49.5,41.5 Z"/></g>
<g><path style="opacity:1" fill="#945c5f" d="M 78.5,-0.5 C 78.8333,-0.5 79.1667,-0.5 79.5,-0.5C 80.3065,0.728127 81.3065,1.72813 82.5,2.5C 82.5,2.83333 82.5,3.16667 82.5,3.5C 81.8333,3.16667 81.1667,2.83333 80.5,2.5C 78.5117,22.4725 77.8451,42.8059 78.5,63.5C 78.1667,63.5 77.8333,63.5 77.5,63.5C 76.8333,63.5 76.5,63.1667 76.5,62.5C 76.5,42.1667 76.5,21.8333 76.5,1.5C 76.5,1.16667 76.5,0.833333 76.5,0.5C 77.9245,2.03105 78.5912,1.69772 78.5,-0.5 Z"/></g>
<g><path style="opacity:0.682" fill="#533b5a" d="M 82.5,2.5 C 83.1667,2.83333 83.8333,3.16667 84.5,3.5C 84.5,23.8333 84.5,44.1667 84.5,64.5C 74.5824,65.4741 64.5824,65.8074 54.5,65.5C 61.9818,64.508 69.6484,64.1746 77.5,64.5C 79.1667,64.5 80.8333,64.5 82.5,64.5C 82.5,44.1667 82.5,23.8333 82.5,3.5C 82.5,3.16667 82.5,2.83333 82.5,2.5 Z"/></g>
<g><path style="opacity:0.349" fill="#3a1d2a" d="M 40.5,63.5 C 41.5832,63.5394 42.5832,63.8728 43.5,64.5C 46.0496,63.0584 48.7163,61.8917 51.5,61C 58.8825,60.2365 66.2158,60.4032 73.5,61.5C 74.209,62.404 75.209,62.7373 76.5,62.5C 76.5,63.1667 76.8333,63.5 77.5,63.5C 77.5,63.8333 77.5,64.1667 77.5,64.5C 69.6484,64.1746 61.9818,64.508 54.5,65.5C 51.4816,65.3354 48.4816,65.502 45.5,66C 44.944,66.3826 44.6107,66.8826 44.5,67.5C 42.5,67.5 40.5,67.5 38.5,67.5C 38.3893,66.8826 38.056,66.3826 37.5,66C 24.9932,65.8308 12.6599,65.3308 0.5,64.5C 0.5,63.8333 0.833333,63.5 1.5,63.5C 3.59791,64.4845 5.59791,64.1511 7.5,62.5C 18.4878,59.2854 29.1544,59.9521 39.5,64.5C 40.1067,64.3764 40.44,64.0431 40.5,63.5 Z"/></g>
</svg>
