<?xml version="1.0" encoding="UTF-8"?>
<!DOCTYPE svg PUBLIC "-//W3C//DTD SVG 1.1//EN" "http://www.w3.org/Graphics/SVG/1.1/DTD/svg11.dtd">
<svg xmlns="http://www.w3.org/2000/svg" version="1.1" width="300px" height="300px" style="shape-rendering:geometricPrecision; text-rendering:geometricPrecision; image-rendering:optimizeQuality; fill-rule:evenodd; clip-rule:evenodd" xmlns:xlink="http://www.w3.org/1999/xlink">
<g><path style="opacity:0.216" fill="#ae7573" d="M 74.5,24.5 C 73.8166,26.1765 72.4832,26.8432 70.5,26.5C 71.1834,24.8235 72.5168,24.1568 74.5,24.5 Z"/></g>
<g><path style="opacity:1" fill="#2d0e25" d="M 82.5,26.5 C 106.906,26.8679 131.573,27.0346 156.5,27C 155.833,27.6667 155.167,28.3333 154.5,29C 151.5,29.3333 148.5,29.6667 145.5,30C 144.663,31.0113 144.33,32.1779 144.5,33.5C 124.827,35.0297 105.16,36.0297 85.5,36.5C 84.0292,38.2156 83.0292,40.2156 82.5,42.5C 81.7784,42.0825 81.2784,41.4158 81,40.5C 80.7978,42.2556 80.2978,43.9223 79.5,45.5C 77.9324,43.7997 76.099,42.4664 74,41.5C 73.0842,39.0426 71.9175,36.7093 70.5,34.5C 71.8435,32.4714 73.1769,30.4714 74.5,28.5C 77.2804,27.9216 79.9471,27.2549 82.5,26.5 Z"/></g>
<g><path style="opacity:1" fill="#33172b" d="M 263.5,26.5 C 267.136,26.8185 270.469,27.9852 273.5,30C 274.386,31.6147 275.386,33.1147 276.5,34.5C 273.54,35.4157 272.207,34.0823 272.5,30.5C 269.507,31.4861 266.507,32.4861 263.5,33.5C 263.5,34.8333 263.5,36.1667 263.5,37.5C 264.5,37.5 265.5,37.5 266.5,37.5C 266.5,38.8333 266.5,40.1667 266.5,41.5C 265.833,41.5 265.167,41.5 264.5,41.5C 263.028,39.8657 261.362,38.3657 259.5,37C 201.501,36.5 143.501,36.3333 85.5,36.5C 105.16,36.0297 124.827,35.0297 144.5,33.5C 144.33,32.1779 144.663,31.0113 145.5,30C 148.5,29.6667 151.5,29.3333 154.5,29C 155.167,28.3333 155.833,27.6667 156.5,27C 131.573,27.0346 106.906,26.8679 82.5,26.5C 111.326,25.1668 140.492,24.5002 170,24.5C 201.227,24.5459 232.394,25.2126 263.5,26.5 Z"/></g>
<g><path style="opacity:1" fill="#3a0f15" d="M 74.5,28.5 C 73.1769,30.4714 71.8435,32.4714 70.5,34.5C 71.9175,36.7093 73.0842,39.0426 74,41.5C 76.099,42.4664 77.9324,43.7997 79.5,45.5C 80.2978,43.9223 80.7978,42.2556 81,40.5C 81.2784,41.4158 81.7784,42.0825 82.5,42.5C 81.6586,44.3792 81.3253,46.3792 81.5,48.5C 76.6341,64.4322 71.9674,80.4322 67.5,96.5C 67.6189,90.7365 68.4523,85.0698 70,79.5C 72.4728,71.6622 74.6395,63.6622 76.5,55.5C 76.0343,52.5078 75.7009,49.5078 75.5,46.5C 73.712,46.2148 72.0453,46.5481 70.5,47.5C 69.1946,51.9868 69.1946,56.4868 70.5,61C 69.6033,65.3534 67.27,68.52 63.5,70.5C 65.8327,60.5063 68.166,50.5063 70.5,40.5C 68.2143,40.595 66.2143,41.2616 64.5,42.5C 63.0937,42.9731 62.427,43.9731 62.5,45.5C 57.8333,46.8333 54.8333,49.8333 53.5,54.5C 50.4027,57.3594 48.4027,61.026 47.5,65.5C 47.0431,66.2975 46.3764,66.6309 45.5,66.5C 48.5729,55.9419 54.2396,47.1085 62.5,40C 64.4727,39.5045 66.4727,39.3379 68.5,39.5C 68.7678,37.901 68.4345,36.5676 67.5,35.5C 65.9523,29.7113 68.2856,27.378 74.5,28.5 Z"/></g>
<g><path style="opacity:1" fill="#f9fbf5" d="M 85.5,36.5 C 143.501,36.3333 201.501,36.5 259.5,37C 261.362,38.3657 263.028,39.8657 264.5,41.5C 263.178,41.33 262.011,41.6634 261,42.5C 259.915,40.627 258.582,38.9603 257,37.5C 230.881,38.8288 204.548,39.4955 178,39.5C 150.095,39.4573 122.262,38.7906 94.5,37.5C 94.5,38.5 94.5,39.5 94.5,40.5C 92.1667,40.5 89.8333,40.5 87.5,40.5C 87.4729,38.8007 86.8062,37.4674 85.5,36.5 Z"/></g>
<g><path style="opacity:1" fill="#fcf4db" d="M 85.5,36.5 C 86.8062,37.4674 87.4729,38.8007 87.5,40.5C 89.8333,40.5 92.1667,40.5 94.5,40.5C 94.5,39.5 94.5,38.5 94.5,37.5C 122.262,38.7906 150.095,39.4573 178,39.5C 204.548,39.4955 230.881,38.8288 257,37.5C 258.582,38.9603 259.915,40.627 261,42.5C 262.011,41.6634 263.178,41.33 264.5,41.5C 265.167,41.5 265.833,41.5 266.5,41.5C 266.5,41.8333 266.5,42.1667 266.5,42.5C 267.363,44.4214 268.029,46.4214 268.5,48.5C 269.457,53.8186 267.957,54.8186 264,51.5C 263.506,49.8659 263.34,48.1992 263.5,46.5C 261.5,46.1667 259.5,45.8333 257.5,45.5C 257.67,44.1779 257.337,43.0113 256.5,42C 201.5,41.3333 146.5,41.3333 91.5,42C 89.1838,44.2478 86.8504,46.5811 84.5,49C 83.4232,49.4696 82.4232,49.3029 81.5,48.5C 81.3253,46.3792 81.6586,44.3792 82.5,42.5C 83.0292,40.2156 84.0292,38.2156 85.5,36.5 Z"/></g>
<g><path style="opacity:1" fill="#fbd981" d="M 268.5,48.5 C 269.522,53.0945 269.189,57.7612 267.5,62.5C 266.5,62.5 265.5,62.5 264.5,62.5C 264.656,58.0959 263.156,54.4292 260,51.5C 259.517,50.552 259.351,49.552 259.5,48.5C 258.5,48.5 257.5,48.5 256.5,48.5C 255.711,48.2172 255.044,47.7172 254.5,47C 202.168,46.5 149.834,46.3333 97.5,46.5C 94.5794,46.1459 92.2461,47.1459 90.5,49.5C 86.9625,52.2463 84.1291,55.5796 82,59.5C 81.5045,57.5273 81.3379,55.5273 81.5,53.5C 81.5,51.8333 81.5,50.1667 81.5,48.5C 82.4232,49.3029 83.4232,49.4696 84.5,49C 86.8504,46.5811 89.1838,44.2478 91.5,42C 146.5,41.3333 201.5,41.3333 256.5,42C 257.337,43.0113 257.67,44.1779 257.5,45.5C 259.5,45.8333 261.5,46.1667 263.5,46.5C 263.34,48.1992 263.506,49.8659 264,51.5C 267.957,54.8186 269.457,53.8186 268.5,48.5 Z"/></g>
<g><path style="opacity:1" fill="#4c3238" d="M 263.5,26.5 C 232.394,25.2126 201.227,24.5459 170,24.5C 140.492,24.5002 111.326,25.1668 82.5,26.5C 79.9471,27.2549 77.2804,27.9216 74.5,28.5C 68.2856,27.378 65.9523,29.7113 67.5,35.5C 65.2776,35.822 63.4443,35.1554 62,33.5C 57.8095,34.5734 54.3095,36.5734 51.5,39.5C 50.8333,41.8333 50.1667,44.1667 49.5,46.5C 48.1667,46.5 46.8333,46.5 45.5,46.5C 45.5,47.5 45.5,48.5 45.5,49.5C 44.5,49.5 43.5,49.5 42.5,49.5C 43.2436,52.9496 41.9103,54.6162 38.5,54.5C 40.7979,50.6678 42.9646,46.6678 45,42.5C 50.7696,38.0819 56.6029,33.5819 62.5,29C 65.0804,27.8555 67.7471,27.0222 70.5,26.5C 72.4832,26.8432 73.8166,26.1765 74.5,24.5C 136.143,22.0408 197.81,21.8741 259.5,24C 261.437,24.1216 262.77,24.955 263.5,26.5 Z"/></g>
<g><path style="opacity:1" fill="#f5c162" d="M 97.5,46.5 C 149.834,46.3333 202.168,46.5 254.5,47C 255.044,47.7172 255.711,48.2172 256.5,48.5C 256.395,52.5483 256.728,56.5483 257.5,60.5C 256.833,59.8333 256.167,59.1667 255.5,58.5C 255.5,56.1667 255.5,53.8333 255.5,51.5C 253.5,51.5 251.5,51.5 249.5,51.5C 249.5,50.1667 249.5,48.8333 249.5,47.5C 206.5,47.5 163.5,47.5 120.5,47.5C 120.5,48.8333 120.5,50.1667 120.5,51.5C 115.547,51.1228 110.881,51.7895 106.5,53.5C 103.253,54.4123 100.92,56.4123 99.5,59.5C 98.5318,61.6074 98.1984,63.9407 98.5,66.5C 100.527,66.6621 102.527,66.4955 104.5,66C 105.056,63.7635 106.056,61.7635 107.5,60C 111.541,59.8265 115.541,59.3265 119.5,58.5C 120.348,56.5914 120.682,54.5914 120.5,52.5C 121.5,52.5 122.5,52.5 123.5,52.5C 123.756,54.7925 123.423,56.9592 122.5,59C 119.289,60.1532 115.956,60.8198 112.5,61C 110.922,64.2092 108.422,66.3759 105,67.5C 104.517,68.448 104.351,69.448 104.5,70.5C 102.598,71.5109 100.598,71.6776 98.5,71C 97.9582,68.7452 96.7915,66.9119 95,65.5C 93.7935,62.1531 94.7935,59.8197 98,58.5C 98.813,56.5643 99.313,54.5643 99.5,52.5C 101.167,52.5 102.833,52.5 104.5,52.5C 104.5,51.5 104.5,50.5 104.5,49.5C 107.85,49.665 111.183,49.4983 114.5,49C 114.167,48.6667 113.833,48.3333 113.5,48C 107.984,47.8267 102.651,47.3267 97.5,46.5 Z"/></g>
<g><path style="opacity:1" fill="#310d24" d="M 276.5,34.5 C 278.017,34.5106 279.184,35.1772 280,36.5C 281.064,39.2373 282.564,41.7373 284.5,44C 286.049,47.6796 286.716,51.5129 286.5,55.5C 286.334,59.5138 286.501,63.5138 287,67.5C 288.769,69.9449 290.602,72.2782 292.5,74.5C 292.917,78.0678 293.584,81.5678 294.5,85C 294.519,88.0594 293.853,90.8928 292.5,93.5C 292.621,94.8945 292.954,96.2278 293.5,97.5C 292.284,100.759 290.951,103.925 289.5,107C 289.908,108.93 290.575,110.764 291.5,112.5C 291.182,113.647 290.516,114.481 289.5,115C 291.901,115.805 291.734,116.638 289,117.5C 287.784,115.038 287.118,112.371 287,109.5C 283.754,117.737 281.587,126.237 280.5,135C 281.017,137.077 281.684,139.077 282.5,141C 281.736,143.069 281.236,145.236 281,147.5C 280.79,145.942 280.29,144.609 279.5,143.5C 279.407,137.137 279.74,130.804 280.5,124.5C 282.603,113.723 284.603,102.89 286.5,92C 286.557,89.0403 286.057,86.207 285,83.5C 283.989,82.6634 282.822,82.33 281.5,82.5C 280.626,91.5559 278.626,100.223 275.5,108.5C 276.291,100.176 276.458,91.8429 276,83.5C 275,82.1667 274,80.8333 273,79.5C 272.647,86.1195 271.314,92.4529 269,98.5C 267.928,104.455 267.428,110.455 267.5,116.5C 266.5,116.5 265.5,116.5 264.5,116.5C 264.768,118.099 264.434,119.432 263.5,120.5C 264.164,115.527 264.497,110.527 264.5,105.5C 265.586,105.38 266.253,104.713 266.5,103.5C 268.508,93.7931 270.508,84.1264 272.5,74.5C 272.5,73.8333 272.5,73.1667 272.5,72.5C 273.117,72.3893 273.617,72.056 274,71.5C 274.573,66.6742 275.073,61.8408 275.5,57C 275.193,52.2689 274.193,47.7689 272.5,43.5C 271.167,43.5 269.833,43.5 268.5,43.5C 268.158,42.6618 267.492,42.3284 266.5,42.5C 266.5,42.1667 266.5,41.8333 266.5,41.5C 266.5,40.1667 266.5,38.8333 266.5,37.5C 265.5,37.5 264.5,37.5 263.5,37.5C 263.5,36.1667 263.5,34.8333 263.5,33.5C 266.507,32.4861 269.507,31.4861 272.5,30.5C 272.207,34.0823 273.54,35.4157 276.5,34.5 Z"/></g>
<g><path style="opacity:1" fill="#fdb44f" d="M 235.5,48.5 C 235.657,49.8734 235.49,51.2068 235,52.5C 228.924,51.5236 222.758,51.1903 216.5,51.5C 216.5,52.5 216.5,53.5 216.5,54.5C 220.833,54.5 225.167,54.5 229.5,54.5C 229.5,55.8333 229.5,57.1667 229.5,58.5C 228.167,58.5 226.833,58.5 225.5,58.5C 225.5,59.5 225.5,60.5 225.5,61.5C 222.5,61.5 219.5,61.5 216.5,61.5C 216.831,69.8599 216.498,78.1932 215.5,86.5C 214.325,85.1451 213.325,85.3117 212.5,87C 213.693,93.6918 215.026,100.358 216.5,107C 216.095,107.945 215.428,108.612 214.5,109C 215.667,109.5 216.5,110.333 217,111.5C 218.195,115.751 218.695,120.085 218.5,124.5C 217.011,122.884 216.011,120.884 215.5,118.5C 214.914,118.291 214.414,117.957 214,117.5C 213.751,118.624 213.251,119.624 212.5,120.5C 211.67,114.528 211.17,108.528 211,102.5C 209.781,106.046 207.781,109.046 205,111.5C 206.34,103.344 206.673,95.011 206,86.5C 204.743,90.8357 203.909,95.3357 203.5,100C 203.316,101.376 202.649,102.209 201.5,102.5C 201.665,99.4816 201.498,96.4816 201,93.5C 199.095,89.4009 197.261,85.2342 195.5,81C 195.684,79.6244 196.351,78.7911 197.5,78.5C 198.978,78.762 200.311,78.4287 201.5,77.5C 200.066,76.7702 198.9,75.7702 198,74.5C 197.503,72.1902 197.337,69.8568 197.5,67.5C 199.861,67.6741 202.194,68.0074 204.5,68.5C 204.312,70.1033 204.812,71.4366 206,72.5C 207.29,67.89 207.624,63.2233 207,58.5C 203.943,57.5495 200.777,57.2161 197.5,57.5C 197.5,56.1667 197.5,54.8333 197.5,53.5C 200.572,53.8174 203.572,53.4841 206.5,52.5C 199.333,50.8306 192.5,51.4973 186,54.5C 182.367,54.5171 178.533,54.3504 174.5,54C 173.833,53.6667 173.167,53.3333 172.5,53C 174.24,51.3055 176.24,50.1389 178.5,49.5C 197.576,49.82 216.576,49.4867 235.5,48.5 Z"/></g>
<g><path style="opacity:1" fill="#feb54f" d="M 235.5,48.5 C 236.5,48.5 237.5,48.5 238.5,48.5C 238.714,50.1439 238.38,51.6439 237.5,53C 238.793,53.49 240.127,53.6567 241.5,53.5C 241.5,51.8333 241.5,50.1667 241.5,48.5C 243.5,48.5 245.5,48.5 247.5,48.5C 245.714,53.6487 244.548,58.982 244,64.5C 243.5,65.6667 242.667,66.5 241.5,67C 243.053,69.8369 242.72,72.3369 240.5,74.5C 239.509,78.4454 239.176,82.4454 239.5,86.5C 239.116,93.0589 238.116,99.3923 236.5,105.5C 236.167,105.5 235.833,105.5 235.5,105.5C 235.565,105.062 235.399,104.728 235,104.5C 231.41,104.885 228.077,105.885 225,107.5C 224.667,106.833 224.333,106.167 224,105.5C 223.29,106.973 222.124,107.64 220.5,107.5C 220.5,109.167 220.5,110.833 220.5,112.5C 222.167,112.5 223.833,112.5 225.5,112.5C 224.728,116.452 224.395,120.452 224.5,124.5C 222.833,124.5 221.167,124.5 219.5,124.5C 219.5,126.167 219.5,127.833 219.5,129.5C 218.549,128.081 218.216,126.415 218.5,124.5C 218.695,120.085 218.195,115.751 217,111.5C 216.5,110.333 215.667,109.5 214.5,109C 215.428,108.612 216.095,107.945 216.5,107C 215.026,100.358 213.693,93.6918 212.5,87C 213.325,85.3117 214.325,85.1451 215.5,86.5C 216.498,78.1932 216.831,69.8599 216.5,61.5C 219.5,61.5 222.5,61.5 225.5,61.5C 225.5,60.5 225.5,59.5 225.5,58.5C 226.833,58.5 228.167,58.5 229.5,58.5C 229.5,57.1667 229.5,55.8333 229.5,54.5C 225.167,54.5 220.833,54.5 216.5,54.5C 216.5,53.5 216.5,52.5 216.5,51.5C 222.758,51.1903 228.924,51.5236 235,52.5C 235.49,51.2068 235.657,49.8734 235.5,48.5 Z"/></g>
<g><path style="opacity:1" fill="#fdf7e4" d="M 99.5,59.5 C 100.92,56.4123 103.253,54.4123 106.5,53.5C 110.5,53.1667 114.5,52.8333 118.5,52.5C 118.579,53.9305 118.246,55.2638 117.5,56.5C 110.518,56.4884 104.852,59.155 100.5,64.5C 99.5481,62.9547 99.2148,61.288 99.5,59.5 Z"/></g>
<g><path style="opacity:1" fill="#f3b740" d="M 62.5,45.5 C 61.6766,53.9571 59.3433,61.9571 55.5,69.5C 55.8627,70.1835 56.1961,70.8501 56.5,71.5C 55.8333,71.5 55.1667,71.5 54.5,71.5C 52.5,71.5 50.5,71.5 48.5,71.5C 48.3048,66.9304 49.6381,62.9304 52.5,59.5C 53.4519,57.9547 53.7852,56.288 53.5,54.5C 54.8333,49.8333 57.8333,46.8333 62.5,45.5 Z"/></g>
<g><path style="opacity:1" fill="#f2b059" d="M 197.5,78.5 C 196.351,78.7911 195.684,79.6244 195.5,81C 197.261,85.2342 199.095,89.4009 201,93.5C 201.498,96.4816 201.665,99.4816 201.5,102.5C 201.745,108.084 201.078,113.417 199.5,118.5C 199.5,115.5 199.5,112.5 199.5,109.5C 200.932,100.156 198.932,91.8224 193.5,84.5C 193.123,82.742 192.456,81.0754 191.5,79.5C 188.976,77.8099 186.976,75.6432 185.5,73C 181.485,70.551 177.485,68.2177 173.5,66C 168.058,64.537 162.558,63.3703 157,62.5C 150.725,63.0218 144.892,64.6885 139.5,67.5C 136.056,68.9071 133.056,70.9071 130.5,73.5C 129.417,73.5394 128.417,73.8728 127.5,74.5C 124.321,78.1577 121.321,81.8243 118.5,85.5C 118.833,83.5 119.167,81.5 119.5,79.5C 121.08,76.9115 123.08,74.5782 125.5,72.5C 124.624,71.7492 123.624,71.2492 122.5,71C 128.328,70.6951 133.661,69.1951 138.5,66.5C 138.232,64.901 138.566,63.5676 139.5,62.5C 145.268,60.7029 151.268,60.0362 157.5,60.5C 157.571,57.9759 156.571,55.9759 154.5,54.5C 156.528,52.0586 158.862,51.892 161.5,54C 158.659,57.1588 159.326,59.4922 163.5,61C 168.891,61.2693 174.224,60.7693 179.5,59.5C 179.48,61.143 180.147,62.4763 181.5,63.5C 183.781,64.2766 185.948,65.2766 188,66.5C 188.209,68.6886 187.875,70.6886 187,72.5C 190.424,75.6029 193.924,77.6029 197.5,78.5 Z"/></g>
<g><path style="opacity:1" fill="#e1a458" d="M 53.5,54.5 C 53.7852,56.288 53.4519,57.9547 52.5,59.5C 49.6381,62.9304 48.3048,66.9304 48.5,71.5C 50.5,71.5 52.5,71.5 54.5,71.5C 51.2506,72.8687 48.0839,74.5354 45,76.5C 44.8281,73.1745 44.9947,69.8411 45.5,66.5C 46.3764,66.6309 47.0431,66.2975 47.5,65.5C 48.4027,61.026 50.4027,57.3594 53.5,54.5 Z"/></g>
<g><path style="opacity:1" fill="#fced81" d="M 64.5,42.5 C 65.6935,42.9704 66.3601,43.9704 66.5,45.5C 64.1679,53.4892 61.8346,61.4892 59.5,69.5C 59.8627,70.1835 60.1961,70.8501 60.5,71.5C 59.1667,71.5 57.8333,71.5 56.5,71.5C 56.1961,70.8501 55.8627,70.1835 55.5,69.5C 59.3433,61.9571 61.6766,53.9571 62.5,45.5C 62.427,43.9731 63.0937,42.9731 64.5,42.5 Z"/></g>
<g><path style="opacity:1" fill="#e09639" d="M 63.5,70.5 C 62.791,71.404 61.791,71.7373 60.5,71.5C 60.1961,70.8501 59.8627,70.1835 59.5,69.5C 61.8346,61.4892 64.1679,53.4892 66.5,45.5C 66.3601,43.9704 65.6935,42.9704 64.5,42.5C 66.2143,41.2616 68.2143,40.595 70.5,40.5C 68.166,50.5063 65.8327,60.5063 63.5,70.5 Z"/></g>
<g><path style="opacity:1" fill="#fae4a7" d="M 120.5,51.5 C 120.5,51.8333 120.5,52.1667 120.5,52.5C 120.682,54.5914 120.348,56.5914 119.5,58.5C 115.541,59.3265 111.541,59.8265 107.5,60C 106.056,61.7635 105.056,63.7635 104.5,66C 102.527,66.4955 100.527,66.6621 98.5,66.5C 98.1984,63.9407 98.5318,61.6074 99.5,59.5C 99.2148,61.288 99.5481,62.9547 100.5,64.5C 104.852,59.155 110.518,56.4884 117.5,56.5C 118.246,55.2638 118.579,53.9305 118.5,52.5C 114.5,52.8333 110.5,53.1667 106.5,53.5C 110.881,51.7895 115.547,51.1228 120.5,51.5 Z"/></g>
<g><path style="opacity:1" fill="#fcb351" d="M 97.5,46.5 C 102.651,47.3267 107.984,47.8267 113.5,48C 113.833,48.3333 114.167,48.6667 114.5,49C 111.183,49.4983 107.85,49.665 104.5,49.5C 104.5,50.5 104.5,51.5 104.5,52.5C 102.833,52.5 101.167,52.5 99.5,52.5C 99.313,54.5643 98.813,56.5643 98,58.5C 94.7935,59.8197 93.7935,62.1531 95,65.5C 96.7915,66.9119 97.9582,68.7452 98.5,71C 100.598,71.6776 102.598,71.5109 104.5,70.5C 106.631,75.1852 106.964,80.0185 105.5,85C 106.127,87.1351 106.627,89.3018 107,91.5C 108,92.8333 109,92.8333 110,91.5C 110.494,93.1341 110.66,94.8008 110.5,96.5C 109.526,97.635 108.359,98.635 107,99.5C 106.825,103.211 106.325,106.878 105.5,110.5C 104.672,105.868 104.172,101.202 104,96.5C 102.951,95.4829 101.784,95.3162 100.5,96C 99.2373,98.841 99.2373,102.008 100.5,105.5C 99.6724,111.319 99.1724,117.319 99,123.5C 97.6439,124.38 96.1439,124.714 94.5,124.5C 94.2229,121.552 94.5562,118.719 95.5,116C 93.9317,109.462 92.9317,102.796 92.5,96C 94.0566,88.9344 94.7233,81.7677 94.5,74.5C 90.6267,74.2733 87.1267,75.2733 84,77.5C 82.2856,76.9238 81.1189,75.7571 80.5,74C 80.8333,73.6667 81.1667,73.3333 81.5,73C 80.4232,72.5304 79.4232,72.6971 78.5,73.5C 78.5,72.8333 78.5,72.1667 78.5,71.5C 78.872,65.2676 79.872,59.2676 81.5,53.5C 81.3379,55.5273 81.5045,57.5273 82,59.5C 84.1291,55.5796 86.9625,52.2463 90.5,49.5C 92.2461,47.1459 94.5794,46.1459 97.5,46.5 Z"/></g>
<g><path style="opacity:1" fill="#4d0d0a" d="M 268.5,43.5 C 269.833,43.5 271.167,43.5 272.5,43.5C 274.193,47.7689 275.193,52.2689 275.5,57C 275.073,61.8408 274.573,66.6742 274,71.5C 273.617,72.056 273.117,72.3893 272.5,72.5C 273.616,65.8622 274.116,59.1955 274,52.5C 271.981,49.6399 270.147,46.6399 268.5,43.5 Z"/></g>
<g><path style="opacity:0.98" fill="#82878d" d="M 286.5,55.5 C 287.709,58.2222 289.542,60.5555 292,62.5C 293.489,67.7875 294.656,73.1208 295.5,78.5C 294.5,77.1667 293.5,75.8333 292.5,74.5C 290.602,72.2782 288.769,69.9449 287,67.5C 286.501,63.5138 286.334,59.5138 286.5,55.5 Z"/></g>
<g><path style="opacity:1" fill="#2d0e23" d="M 192.5,84.5 C 192.5,87.5 192.5,90.5 192.5,93.5C 190.799,93.0338 189.299,93.0338 188,93.5C 186.706,90.2189 184.706,87.5523 182,85.5C 181.517,84.552 181.351,83.552 181.5,82.5C 179.5,81.8333 177.5,81.1667 175.5,80.5C 173.703,79.2702 171.703,78.6036 169.5,78.5C 167.22,76.7773 164.553,76.1107 161.5,76.5C 160.129,75.2132 158.295,74.5465 156,74.5C 153.705,74.5465 151.871,75.2132 150.5,76.5C 146.147,76.6712 142.147,78.0046 138.5,80.5C 132.868,85.3679 128.868,91.3679 126.5,98.5C 124.308,102.098 123.308,106.098 123.5,110.5C 124.5,110.5 125.5,110.5 126.5,110.5C 127.83,113.704 128.996,117.038 130,120.5C 131.849,122.435 133.683,124.269 135.5,126C 134.086,127.844 132.253,129.344 130,130.5C 128.56,129.852 127.06,129.519 125.5,129.5C 120.813,126.11 118.146,121.444 117.5,115.5C 117.397,112.781 117.731,110.115 118.5,107.5C 117.149,105.588 116.482,103.422 116.5,101C 117.807,96.2133 118.974,91.38 120,86.5C 123.085,81.85 126.585,77.5167 130.5,73.5C 133.056,70.9071 136.056,68.9071 139.5,67.5C 151.305,65.1983 162.971,65.5316 174.5,68.5C 177.882,71.3108 181.549,73.6441 185.5,75.5C 188.012,78.4026 190.345,81.4026 192.5,84.5 Z"/></g>
<g><path style="opacity:1" fill="#2d0f25" d="M 67.5,35.5 C 68.4345,36.5676 68.7678,37.901 68.5,39.5C 66.4727,39.3379 64.4727,39.5045 62.5,40C 54.2396,47.1085 48.5729,55.9419 45.5,66.5C 43.8963,69.0368 42.5629,71.8702 41.5,75C 42.1667,76 42.8333,77 43.5,78C 42.8524,79.4397 42.5191,80.9397 42.5,82.5C 40.712,82.2148 39.0453,82.5481 37.5,83.5C 40.1706,87.5864 40.0039,91.5864 37,95.5C 36.0164,93.2053 35.1831,93.5386 34.5,96.5C 34.8457,97.6956 35.3457,97.6956 36,96.5C 36.3013,99.5071 36.1346,102.507 35.5,105.5C 34.1667,105.5 32.8333,105.5 31.5,105.5C 31.5,107.167 31.5,108.833 31.5,110.5C 29.857,110.52 28.5237,109.853 27.5,108.5C 26.5108,104.893 26.1774,101.226 26.5,97.5C 29.4143,82.8402 33.4143,68.5069 38.5,54.5C 41.9103,54.6162 43.2436,52.9496 42.5,49.5C 43.5,49.5 44.5,49.5 45.5,49.5C 45.5,48.5 45.5,47.5 45.5,46.5C 46.8333,46.5 48.1667,46.5 49.5,46.5C 50.1667,44.1667 50.8333,41.8333 51.5,39.5C 54.3095,36.5734 57.8095,34.5734 62,33.5C 63.4443,35.1554 65.2776,35.822 67.5,35.5 Z"/></g>
<g><path style="opacity:0.239" fill="#9a8b88" d="M 295.5,78.5 C 297.176,79.1834 297.843,80.5168 297.5,82.5C 295.824,81.8166 295.157,80.4832 295.5,78.5 Z"/></g>
<g><path style="opacity:1" fill="#f9b54e" d="M 249.5,51.5 C 246.077,62.2747 243.41,73.2747 241.5,84.5C 241.253,85.7133 240.586,86.38 239.5,86.5C 239.176,82.4454 239.509,78.4454 240.5,74.5C 242.72,72.3369 243.053,69.8369 241.5,67C 242.667,66.5 243.5,65.6667 244,64.5C 244.548,58.982 245.714,53.6487 247.5,48.5C 245.5,48.5 243.5,48.5 241.5,48.5C 241.5,50.1667 241.5,51.8333 241.5,53.5C 240.127,53.6567 238.793,53.49 237.5,53C 238.38,51.6439 238.714,50.1439 238.5,48.5C 237.5,48.5 236.5,48.5 235.5,48.5C 216.576,49.4867 197.576,49.82 178.5,49.5C 169.421,48.8332 160.088,48.4999 150.5,48.5C 142.167,48.5 133.833,48.5 125.5,48.5C 127.205,53.1575 126.539,57.4908 123.5,61.5C 119.583,62.9727 115.583,64.1394 111.5,65C 113.321,67.1366 115.654,67.9699 118.5,67.5C 118.071,72.4658 115.904,73.4658 112,70.5C 111.517,69.552 111.351,68.552 111.5,67.5C 110.167,67.5 108.833,67.5 107.5,67.5C 107.5,69.5 107.5,71.5 107.5,73.5C 111.254,75.7655 115.254,77.7655 119.5,79.5C 119.167,81.5 118.833,83.5 118.5,85.5C 118.5,85.8333 118.5,86.1667 118.5,86.5C 116.799,87.5245 115.465,89.0245 114.5,91C 114.01,93.3461 113.343,95.5128 112.5,97.5C 111.833,97.1667 111.167,96.8333 110.5,96.5C 110.66,94.8008 110.494,93.1341 110,91.5C 109,92.8333 108,92.8333 107,91.5C 106.627,89.3018 106.127,87.1351 105.5,85C 106.964,80.0185 106.631,75.1852 104.5,70.5C 104.351,69.448 104.517,68.448 105,67.5C 108.422,66.3759 110.922,64.2092 112.5,61C 115.956,60.8198 119.289,60.1532 122.5,59C 123.423,56.9592 123.756,54.7925 123.5,52.5C 122.5,52.5 121.5,52.5 120.5,52.5C 120.5,52.1667 120.5,51.8333 120.5,51.5C 120.5,50.1667 120.5,48.8333 120.5,47.5C 163.5,47.5 206.5,47.5 249.5,47.5C 249.5,48.8333 249.5,50.1667 249.5,51.5 Z"/></g>
<g><path style="opacity:1" fill="#958596" d="M 161.5,76.5 C 157.833,76.5 154.167,76.5 150.5,76.5C 151.871,75.2132 153.705,74.5465 156,74.5C 158.295,74.5465 160.129,75.2132 161.5,76.5 Z"/></g>
<g><path style="opacity:1" fill="#411512" d="M 193.5,84.5 C 193.167,84.5 192.833,84.5 192.5,84.5C 190.345,81.4026 188.012,78.4026 185.5,75.5C 181.549,73.6441 177.882,71.3108 174.5,68.5C 162.971,65.5316 151.305,65.1983 139.5,67.5C 144.892,64.6885 150.725,63.0218 157,62.5C 162.558,63.3703 168.058,64.537 173.5,66C 177.485,68.2177 181.485,70.551 185.5,73C 186.976,75.6432 188.976,77.8099 191.5,79.5C 192.456,81.0754 193.123,82.742 193.5,84.5 Z"/></g>
<g><path style="opacity:1" fill="#fdb54f" d="M 150.5,48.5 C 160.088,48.4999 169.421,48.8332 178.5,49.5C 176.24,50.1389 174.24,51.3055 172.5,53C 173.167,53.3333 173.833,53.6667 174.5,54C 178.533,54.3504 182.367,54.5171 186,54.5C 192.5,51.4973 199.333,50.8306 206.5,52.5C 203.572,53.4841 200.572,53.8174 197.5,53.5C 197.5,54.8333 197.5,56.1667 197.5,57.5C 200.777,57.2161 203.943,57.5495 207,58.5C 207.624,63.2233 207.29,67.89 206,72.5C 204.812,71.4366 204.312,70.1033 204.5,68.5C 202.194,68.0074 199.861,67.6741 197.5,67.5C 197.337,69.8568 197.503,72.1902 198,74.5C 198.9,75.7702 200.066,76.7702 201.5,77.5C 200.311,78.4287 198.978,78.762 197.5,78.5C 193.924,77.6029 190.424,75.6029 187,72.5C 187.875,70.6886 188.209,68.6886 188,66.5C 185.948,65.2766 183.781,64.2766 181.5,63.5C 180.147,62.4763 179.48,61.143 179.5,59.5C 174.224,60.7693 168.891,61.2693 163.5,61C 159.326,59.4922 158.659,57.1588 161.5,54C 158.862,51.892 156.528,52.0586 154.5,54.5C 156.571,55.9759 157.571,57.9759 157.5,60.5C 151.268,60.0362 145.268,60.7029 139.5,62.5C 138.766,61.2921 138.433,59.9587 138.5,58.5C 141.833,58.5 145.167,58.5 148.5,58.5C 148.788,55.0611 149.454,51.7278 150.5,48.5 Z"/></g>
<g><path style="opacity:1" fill="#fcb44f" d="M 150.5,48.5 C 149.454,51.7278 148.788,55.0611 148.5,58.5C 145.167,58.5 141.833,58.5 138.5,58.5C 138.433,59.9587 138.766,61.2921 139.5,62.5C 138.566,63.5676 138.232,64.901 138.5,66.5C 133.661,69.1951 128.328,70.6951 122.5,71C 123.624,71.2492 124.624,71.7492 125.5,72.5C 123.08,74.5782 121.08,76.9115 119.5,79.5C 115.254,77.7655 111.254,75.7655 107.5,73.5C 107.5,71.5 107.5,69.5 107.5,67.5C 108.833,67.5 110.167,67.5 111.5,67.5C 111.351,68.552 111.517,69.552 112,70.5C 115.904,73.4658 118.071,72.4658 118.5,67.5C 115.654,67.9699 113.321,67.1366 111.5,65C 115.583,64.1394 119.583,62.9727 123.5,61.5C 126.539,57.4908 127.205,53.1575 125.5,48.5C 133.833,48.5 142.167,48.5 150.5,48.5 Z"/></g>
<g><path style="opacity:1" fill="#fdf4d6" d="M 169.5,78.5 C 171.703,78.6036 173.703,79.2702 175.5,80.5C 178.833,83.8387 181.833,87.5053 184.5,91.5C 186.336,115.492 175.336,127.326 151.5,127C 144.506,125.51 138.839,122.01 134.5,116.5C 133.675,115.614 132.675,115.281 131.5,115.5C 131.741,112.966 130.741,111.3 128.5,110.5C 128.5,109.5 128.5,108.5 128.5,107.5C 127.104,101.045 129.437,97.0452 135.5,95.5C 137.375,92.7621 139.042,89.7621 140.5,86.5C 142.88,84.7498 145.047,82.7498 147,80.5C 154.591,78.6191 162.091,77.9524 169.5,78.5 Z"/></g>
<g><path style="opacity:1" fill="#fcb14b" d="M 78.5,71.5 C 78.5,72.1667 78.5,72.8333 78.5,73.5C 78.6399,75.1238 77.9733,76.2904 76.5,77C 77.7932,77.49 79.1266,77.6567 80.5,77.5C 80.1218,79.6463 79.7885,81.813 79.5,84C 80.8675,88.0872 81.3675,92.2539 81,96.5C 79.8372,94.7148 79.1705,92.7148 79,90.5C 76.1363,92.1508 74.9696,94.6508 75.5,98C 75.6667,99.5 75.8333,101 76,102.5C 77,103.833 78,103.833 79,102.5C 79.4828,103.448 79.6495,104.448 79.5,105.5C 78.1667,105.5 76.8333,105.5 75.5,105.5C 75.6458,109.519 75.9791,113.519 76.5,117.5C 76.5,118.833 76.5,120.167 76.5,121.5C 75.6851,122.429 74.8518,123.429 74,124.5C 73.7466,129.184 72.4132,133.518 70,137.5C 69.5014,141.152 69.3347,144.818 69.5,148.5C 71.9115,148.137 73.4115,149.137 74,151.5C 74.383,154.473 73.883,157.306 72.5,160C 74.1869,161.913 74.6869,164.08 74,166.5C 70.6064,167.456 67.1064,167.789 63.5,167.5C 62.7959,162.853 62.7959,157.853 63.5,152.5C 64.8734,152.343 66.2068,152.51 67.5,153C 66.3463,153.914 66.513,154.747 68,155.5C 69.5813,153.159 69.5813,150.492 68,147.5C 67.2747,149.158 66.108,149.658 64.5,149C 66.9011,148.195 66.7344,147.362 64,146.5C 63.6667,145.5 63.3333,144.5 63,143.5C 62.3592,149.488 61.1926,155.322 59.5,161C 60.6023,163.401 60.769,165.901 60,168.5C 59.2904,169.973 58.1238,170.64 56.5,170.5C 56.2732,166.13 55.9399,161.797 55.5,157.5C 61.9707,129.291 68.9707,101.125 76.5,73C 76.8361,71.9701 77.5028,71.4701 78.5,71.5 Z"/></g>
<g><path style="opacity:1" fill="#f1eff3" d="M 150.5,76.5 C 154.167,76.5 157.833,76.5 161.5,76.5C 164.553,76.1107 167.22,76.7773 169.5,78.5C 162.091,77.9524 154.591,78.6191 147,80.5C 145.047,82.7498 142.88,84.7498 140.5,86.5C 139.042,89.7621 137.375,92.7621 135.5,95.5C 129.437,97.0452 127.104,101.045 128.5,107.5C 126.612,105.012 125.945,102.012 126.5,98.5C 128.868,91.3679 132.868,85.3679 138.5,80.5C 142.147,78.0046 146.147,76.6712 150.5,76.5 Z"/></g>
<g><path style="opacity:1" fill="#310f20" d="M 67.5,96.5 C 64.6499,108.579 61.9832,120.746 59.5,133C 56.6786,140.27 54.6786,147.77 53.5,155.5C 52.6043,157.336 51.6043,159.003 50.5,160.5C 50.2716,156.186 51.2716,152.186 53.5,148.5C 51.888,143.968 51.2213,139.301 51.5,134.5C 52.9778,134.762 54.3112,134.429 55.5,133.5C 58.6816,128.429 58.015,124.096 53.5,120.5C 54.1995,116.202 54.5328,111.869 54.5,107.5C 56.2294,103.441 58.0627,99.4414 60,95.5C 60.4988,91.5138 60.6655,87.5138 60.5,83.5C 58.901,83.2322 57.5676,83.5655 56.5,84.5C 55.209,84.2627 54.209,84.596 53.5,85.5C 52.8333,85.5 52.1667,85.5 51.5,85.5C 40.5642,91.8965 35.2309,101.563 35.5,114.5C 33.2502,118.624 31.5836,122.957 30.5,127.5C 29.4457,131.639 27.779,135.639 25.5,139.5C 24.609,145.017 23.609,150.517 22.5,156C 22.3158,157.376 21.6491,158.209 20.5,158.5C 20.4971,153.473 20.1637,148.473 19.5,143.5C 20.8333,143.5 22.1667,143.5 23.5,143.5C 23.7301,136.601 25.3968,130.101 28.5,124C 28.3223,121.7 27.3223,119.866 25.5,118.5C 24.8333,119.167 24.1667,119.833 23.5,120.5C 22.7354,126.532 20.9021,132.198 18,137.5C 17.5045,139.473 17.3379,141.473 17.5,143.5C 16.5,143.5 15.5,143.5 14.5,143.5C 17.3753,127.757 21.3753,112.423 26.5,97.5C 26.1774,101.226 26.5108,104.893 27.5,108.5C 28.5237,109.853 29.857,110.52 31.5,110.5C 31.5,108.833 31.5,107.167 31.5,105.5C 32.8333,105.5 34.1667,105.5 35.5,105.5C 36.1346,102.507 36.3013,99.5071 36,96.5C 35.3457,97.6956 34.8457,97.6956 34.5,96.5C 35.1831,93.5386 36.0164,93.2053 37,95.5C 40.0039,91.5864 40.1706,87.5864 37.5,83.5C 39.0453,82.5481 40.712,82.2148 42.5,82.5C 42.5191,80.9397 42.8524,79.4397 43.5,78C 42.8333,77 42.1667,76 41.5,75C 42.5629,71.8702 43.8963,69.0368 45.5,66.5C 44.9947,69.8411 44.8281,73.1745 45,76.5C 48.0839,74.5354 51.2506,72.8687 54.5,71.5C 55.1667,71.5 55.8333,71.5 56.5,71.5C 57.8333,71.5 59.1667,71.5 60.5,71.5C 61.791,71.7373 62.791,71.404 63.5,70.5C 67.27,68.52 69.6033,65.3534 70.5,61C 69.1946,56.4868 69.1946,51.9868 70.5,47.5C 72.0453,46.5481 73.712,46.2148 75.5,46.5C 75.7009,49.5078 76.0343,52.5078 76.5,55.5C 74.6395,63.6622 72.4728,71.6622 70,79.5C 68.4523,85.0698 67.6189,90.7365 67.5,96.5 Z"/></g>
<g><path style="opacity:1" fill="#de9d5f" d="M 118.5,86.5 C 114.281,95.9244 113.614,105.591 116.5,115.5C 116.5,116.5 116.5,117.5 116.5,118.5C 114.91,116.525 113.743,114.192 113,111.5C 112.501,106.845 112.334,102.179 112.5,97.5C 113.343,95.5128 114.01,93.3461 114.5,91C 115.465,89.0245 116.799,87.5245 118.5,86.5 Z"/></g>
<g><path style="opacity:1" fill="#51120b" d="M 56.5,84.5 C 57.5676,83.5655 58.901,83.2322 60.5,83.5C 60.6655,87.5138 60.4988,91.5138 60,95.5C 58.0627,99.4414 56.2294,103.441 54.5,107.5C 55.4273,99.5744 57.094,91.9077 59.5,84.5C 58.5,84.5 57.5,84.5 56.5,84.5 Z"/></g>
<g><path style="opacity:1" fill="#34101c" d="M 175.5,80.5 C 177.5,81.1667 179.5,81.8333 181.5,82.5C 181.351,83.552 181.517,84.552 182,85.5C 184.706,87.5523 186.706,90.2189 188,93.5C 189.299,93.0338 190.799,93.0338 192.5,93.5C 192.5,90.5 192.5,87.5 192.5,84.5C 192.833,84.5 193.167,84.5 193.5,84.5C 198.932,91.8224 200.932,100.156 199.5,109.5C 197.257,118.874 192.59,126.874 185.5,133.5C 187.445,130.515 188.445,127.182 188.5,123.5C 189.5,123.5 190.5,123.5 191.5,123.5C 191.336,120.813 191.503,118.146 192,115.5C 193,114.167 194,114.167 195,115.5C 195.979,111.577 195.479,107.91 193.5,104.5C 195.784,99.2226 194.451,97.556 189.5,99.5C 189.884,103.489 189.217,107.155 187.5,110.5C 187.666,106.154 187.499,101.821 187,97.5C 186.76,95.1484 185.927,93.1484 184.5,91.5C 181.833,87.5053 178.833,83.8387 175.5,80.5 Z"/></g>
<g><path style="opacity:1" fill="#5d140c" d="M 272.5,74.5 C 270.508,84.1264 268.508,93.7931 266.5,103.5C 266.253,104.713 265.586,105.38 264.5,105.5C 266.612,96.2555 268.446,86.9222 270,77.5C 270.236,75.8807 271.069,74.8807 272.5,74.5 Z"/></g>
<g><path style="opacity:1" fill="#fdd571" d="M 76.5,121.5 C 76.5,120.167 76.5,118.833 76.5,117.5C 77.7498,117.423 78.5831,116.756 79,115.5C 79.6667,110.833 80.3333,106.167 81,101.5C 83.8478,94.1194 85.8478,86.4527 87,78.5C 90.7395,76.5251 92.9061,77.5251 93.5,81.5C 88.27,102.29 83.27,122.956 78.5,143.5C 74.9738,149.047 72.9738,148.547 72.5,142C 73.3877,135.062 74.721,128.229 76.5,121.5 Z"/></g>
<g><path style="opacity:1" fill="#c76d2d" d="M 81.5,48.5 C 81.5,50.1667 81.5,51.8333 81.5,53.5C 79.872,59.2676 78.872,65.2676 78.5,71.5C 77.5028,71.4701 76.8361,71.9701 76.5,73C 68.9707,101.125 61.9707,129.291 55.5,157.5C 54.6993,159.042 54.366,160.708 54.5,162.5C 53.5888,165.879 52.2555,169.213 50.5,172.5C 45.544,173.494 40.544,173.827 35.5,173.5C 35.1667,173.5 34.8333,173.5 34.5,173.5C 38.9819,172.674 43.6486,172.174 48.5,172C 49.7393,168.636 50.4059,165.136 50.5,161.5C 50.5,161.167 50.5,160.833 50.5,160.5C 51.6043,159.003 52.6043,157.336 53.5,155.5C 54.6786,147.77 56.6786,140.27 59.5,133C 61.9832,120.746 64.6499,108.579 67.5,96.5C 71.9674,80.4322 76.6341,64.4322 81.5,48.5 Z"/></g>
<g><path style="opacity:1" fill="#e56d1a" d="M 266.5,42.5 C 267.492,42.3284 268.158,42.6618 268.5,43.5C 270.147,46.6399 271.981,49.6399 274,52.5C 274.116,59.1955 273.616,65.8622 272.5,72.5C 272.5,73.1667 272.5,73.8333 272.5,74.5C 271.069,74.8807 270.236,75.8807 270,77.5C 268.446,86.9222 266.612,96.2555 264.5,105.5C 262.515,113.983 260.848,122.649 259.5,131.5C 257.741,137.283 256.075,142.95 254.5,148.5C 257.426,134.323 259.593,119.99 261,105.5C 258.337,115.28 255.837,125.113 253.5,135C 252.606,138.256 251.272,141.089 249.5,143.5C 250.514,137.075 251.848,130.742 253.5,124.5C 255.721,118.484 257.054,112.15 257.5,105.5C 258.67,102.495 259.836,99.495 261,96.5C 261.672,88.4583 262.672,80.4583 264,72.5C 266.39,69.6107 267.557,66.2773 267.5,62.5C 269.189,57.7612 269.522,53.0945 268.5,48.5C 268.029,46.4214 267.363,44.4214 266.5,42.5 Z"/></g>
<g><path style="opacity:1" fill="#fdb24e" d="M 256.5,48.5 C 257.5,48.5 258.5,48.5 259.5,48.5C 259.351,49.552 259.517,50.552 260,51.5C 263.156,54.4292 264.656,58.0959 264.5,62.5C 265.5,62.5 266.5,62.5 267.5,62.5C 267.557,66.2773 266.39,69.6107 264,72.5C 262.672,80.4583 261.672,88.4583 261,96.5C 259.836,99.495 258.67,102.495 257.5,105.5C 257.054,112.15 255.721,118.484 253.5,124.5C 253.623,120.96 251.957,118.96 248.5,118.5C 248.5,120.5 248.5,122.5 248.5,124.5C 246.799,124.034 245.299,124.034 244,124.5C 242.884,115.753 244.217,107.42 248,99.5C 248.481,95.4686 249.147,91.4686 250,87.5C 251.808,85.4418 253.975,85.1084 256.5,86.5C 257.81,78.6839 258.977,78.6839 260,86.5C 261.635,82.5982 261.801,78.5982 260.5,74.5C 258.408,74.5614 256.908,75.5614 256,77.5C 255.308,76.9747 254.808,76.3081 254.5,75.5C 255.177,72.8154 255.177,69.9821 254.5,67C 255.905,65.7308 257.571,65.2308 259.5,65.5C 259.923,63.2188 259.256,61.5521 257.5,60.5C 256.728,56.5483 256.395,52.5483 256.5,48.5 Z"/></g>
<g><path style="opacity:1" fill="#2d0d26" d="M 275.5,108.5 C 275.5,109.5 275.5,110.5 275.5,111.5C 273.836,112.949 273.002,114.949 273,117.5C 269.833,118.667 267.667,120.833 266.5,124C 267.161,131.353 267.328,138.853 267,146.5C 264.056,150.672 262.89,155.339 263.5,160.5C 262.114,166.32 260.947,172.32 260,178.5C 259.586,178.957 259.086,179.291 258.5,179.5C 257.333,187.829 256.333,196.162 255.5,204.5C 254.833,205.833 254.167,207.167 253.5,208.5C 253.895,205.477 252.895,204.477 250.5,205.5C 249.438,203.586 248.438,202.086 247.5,201C 248.682,197.471 250.849,194.638 254,192.5C 254.483,191.552 254.649,190.552 254.5,189.5C 252.11,189.855 249.777,190.522 247.5,191.5C 246.228,191.43 245.062,191.097 244,190.5C 240.096,193.466 237.929,192.466 237.5,187.5C 241.79,188.013 245.623,187.013 249,184.5C 249.127,183.223 248.627,182.057 247.5,181C 250.105,177.643 252.605,174.143 255,170.5C 255.499,166.848 255.665,163.182 255.5,159.5C 255.336,156.813 255.503,154.146 256,151.5C 258.071,145.62 259.737,139.62 261,133.5C 261.249,134.624 261.749,135.624 262.5,136.5C 262.833,135.833 263.167,135.167 263.5,134.5C 262.253,129.683 262.253,125.016 263.5,120.5C 264.434,119.432 264.768,118.099 264.5,116.5C 265.5,116.5 266.5,116.5 267.5,116.5C 267.428,110.455 267.928,104.455 269,98.5C 271.314,92.4529 272.647,86.1195 273,79.5C 274,80.8333 275,82.1667 276,83.5C 276.458,91.8429 276.291,100.176 275.5,108.5 Z"/></g>
<g><path style="opacity:1" fill="#fdb44f" d="M 235.5,105.5 C 235.906,109.688 234.406,113.021 231,115.5C 230.667,120.167 230.333,124.833 230,129.5C 229.902,131.619 229.069,133.286 227.5,134.5C 226.679,137.447 226.179,140.447 226,143.5C 224.246,145.25 222.079,145.917 219.5,145.5C 218.224,148.336 217.558,151.336 217.5,154.5C 215.833,154.5 214.167,154.5 212.5,154.5C 212.5,155.5 212.5,156.5 212.5,157.5C 208.603,156.97 205.27,157.97 202.5,160.5C 202.167,160.167 201.833,159.833 201.5,159.5C 202.853,158.476 203.52,157.143 203.5,155.5C 209.678,155.082 210.345,153.749 205.5,151.5C 204.52,148.914 204.187,146.247 204.5,143.5C 206.117,142.962 207.784,142.629 209.5,142.5C 209.151,145.045 209.984,147.045 212,148.5C 213.76,144.523 215.594,140.523 217.5,136.5C 218.086,136.709 218.586,137.043 219,137.5C 220.171,136.107 221.671,135.273 223.5,135C 220.583,134.338 219.25,132.505 219.5,129.5C 219.5,127.833 219.5,126.167 219.5,124.5C 221.167,124.5 222.833,124.5 224.5,124.5C 224.395,120.452 224.728,116.452 225.5,112.5C 223.833,112.5 222.167,112.5 220.5,112.5C 220.5,110.833 220.5,109.167 220.5,107.5C 222.124,107.64 223.29,106.973 224,105.5C 224.333,106.167 224.667,106.833 225,107.5C 228.077,105.885 231.41,104.885 235,104.5C 235.399,104.728 235.565,105.062 235.5,105.5 Z"/></g>
<g><path style="opacity:1" fill="#370f0a" d="M 130.5,73.5 C 126.585,77.5167 123.085,81.85 120,86.5C 118.974,91.38 117.807,96.2133 116.5,101C 116.482,103.422 117.149,105.588 118.5,107.5C 117.731,110.115 117.397,112.781 117.5,115.5C 117.167,115.5 116.833,115.5 116.5,115.5C 113.614,105.591 114.281,95.9244 118.5,86.5C 118.5,86.1667 118.5,85.8333 118.5,85.5C 121.321,81.8243 124.321,78.1577 127.5,74.5C 128.417,73.8728 129.417,73.5394 130.5,73.5 Z"/></g>
<g><path style="opacity:1" fill="#e2952c" d="M 53.5,85.5 C 54.209,84.596 55.209,84.2627 56.5,84.5C 57.5,84.5 58.5,84.5 59.5,84.5C 57.094,91.9077 55.4273,99.5744 54.5,107.5C 51.8271,113.455 50.1604,119.789 49.5,126.5C 47.4169,132.631 45.7502,138.964 44.5,145.5C 42.2651,149.787 41.2651,154.454 41.5,159.5C 40.1667,159.5 38.8333,159.5 37.5,159.5C 40.5525,147.319 43.2192,134.986 45.5,122.5C 48.1371,111.681 51.3037,101.015 55,90.5C 55.1667,89.6667 55.3333,88.8333 55.5,88C 55.3158,86.6244 54.6491,85.7911 53.5,85.5 Z"/></g>
<g><path style="opacity:1" fill="#e2b899" d="M 184.5,91.5 C 185.927,93.1484 186.76,95.1484 187,97.5C 187.499,101.821 187.666,106.154 187.5,110.5C 184.84,117.298 180.506,122.798 174.5,127C 168.786,128.679 163.119,130.512 157.5,132.5C 151.473,130.729 145.473,128.895 139.5,127C 134.079,122.732 130.413,117.232 128.5,110.5C 130.741,111.3 131.741,112.966 131.5,115.5C 132.675,115.281 133.675,115.614 134.5,116.5C 138.839,122.01 144.506,125.51 151.5,127C 175.336,127.326 186.336,115.492 184.5,91.5 Z"/></g>
<g><path style="opacity:1" fill="#feb54f" d="M 100.5,105.5 C 101.623,107.518 101.623,109.518 100.5,111.5C 103.388,115.141 104.388,119.141 103.5,123.5C 105.2,125.068 106.534,126.901 107.5,129C 108.766,129.309 109.933,129.809 111,130.5C 111.333,132.833 111.667,135.167 112,137.5C 113.356,136.62 114.856,136.286 116.5,136.5C 116.457,139.088 115.457,141.254 113.5,143C 116.668,143.582 117.001,144.582 114.5,146C 115.978,147.193 117.312,147.693 118.5,147.5C 113.544,148.494 108.544,148.827 103.5,148.5C 103.082,147.778 102.416,147.278 101.5,147C 97.1679,146.417 92.8346,145.917 88.5,145.5C 88.5,144.5 88.5,143.5 88.5,142.5C 89.8221,142.67 90.9887,142.337 92,141.5C 92.499,137.179 92.6657,132.846 92.5,128.5C 90.4176,128.528 88.5843,127.861 87,126.5C 86.0479,120.638 86.7146,114.972 89,109.5C 89.7429,111.441 89.5762,113.274 88.5,115C 93.3783,115.462 94.7117,117.962 92.5,122.5C 92.8555,123.522 93.5222,124.189 94.5,124.5C 96.1439,124.714 97.6439,124.38 99,123.5C 99.1724,117.319 99.6724,111.319 100.5,105.5 Z"/></g>
<g><path style="opacity:1" fill="#fde151" d="M 51.5,85.5 C 52.1667,85.5 52.8333,85.5 53.5,85.5C 54.6491,85.7911 55.3158,86.6244 55.5,88C 55.3333,88.8333 55.1667,89.6667 55,90.5C 51.3037,101.015 48.1371,111.681 45.5,122.5C 43.2192,134.986 40.5525,147.319 37.5,159.5C 36.5,159.5 35.5,159.5 34.5,159.5C 36.3198,150.549 37.9865,141.549 39.5,132.5C 43.5095,116.803 47.5095,101.137 51.5,85.5 Z"/></g>
<g><path style="opacity:1" fill="#fdb54e" d="M 218.5,124.5 C 218.216,126.415 218.549,128.081 219.5,129.5C 219.25,132.505 220.583,134.338 223.5,135C 221.671,135.273 220.171,136.107 219,137.5C 218.586,137.043 218.086,136.709 217.5,136.5C 215.594,140.523 213.76,144.523 212,148.5C 209.984,147.045 209.151,145.045 209.5,142.5C 207.784,142.629 206.117,142.962 204.5,143.5C 202.833,143.5 201.167,143.5 199.5,143.5C 199.433,144.959 199.766,146.292 200.5,147.5C 198.833,147.5 197.167,147.5 195.5,147.5C 195.714,145.856 195.38,144.356 194.5,143C 197.82,142.232 199.154,140.398 198.5,137.5C 195.245,141.292 193.245,140.958 192.5,136.5C 193.824,133.725 195.157,131.059 196.5,128.5C 197.474,130.743 197.808,133.076 197.5,135.5C 199.564,135.313 201.564,134.813 203.5,134C 200.449,132.64 199.782,130.473 201.5,127.5C 201.136,125.267 200.136,123.434 198.5,122C 199.337,120.989 199.67,119.822 199.5,118.5C 201.078,113.417 201.745,108.084 201.5,102.5C 202.649,102.209 203.316,101.376 203.5,100C 203.909,95.3357 204.743,90.8357 206,86.5C 206.673,95.011 206.34,103.344 205,111.5C 207.781,109.046 209.781,106.046 211,102.5C 211.17,108.528 211.67,114.528 212.5,120.5C 213.251,119.624 213.751,118.624 214,117.5C 214.414,117.957 214.914,118.291 215.5,118.5C 216.011,120.884 217.011,122.884 218.5,124.5 Z"/></g>
<g><path style="opacity:1" fill="#48160e" d="M 54.5,107.5 C 54.5328,111.869 54.1995,116.202 53.5,120.5C 51.6264,122.082 50.2931,124.082 49.5,126.5C 50.1604,119.789 51.8271,113.455 54.5,107.5 Z"/></g>
<g><path style="opacity:1" fill="#3b0c16" d="M 275.5,111.5 C 272.547,123.381 270.214,135.381 268.5,147.5C 267.564,152.103 265.897,156.436 263.5,160.5C 262.89,155.339 264.056,150.672 267,146.5C 267.328,138.853 267.161,131.353 266.5,124C 267.667,120.833 269.833,118.667 273,117.5C 273.002,114.949 273.836,112.949 275.5,111.5 Z"/></g>
<g><path style="opacity:1" fill="#fdb34d" d="M 110.5,96.5 C 111.167,96.8333 111.833,97.1667 112.5,97.5C 112.334,102.179 112.501,106.845 113,111.5C 113.743,114.192 114.91,116.525 116.5,118.5C 120.909,132.367 129.909,141.867 143.5,147C 162.823,151.998 178.989,147.165 192,132.5C 193.301,127.018 195.801,122.352 199.5,118.5C 199.67,119.822 199.337,120.989 198.5,122C 200.136,123.434 201.136,125.267 201.5,127.5C 199.782,130.473 200.449,132.64 203.5,134C 201.564,134.813 199.564,135.313 197.5,135.5C 197.808,133.076 197.474,130.743 196.5,128.5C 195.157,131.059 193.824,133.725 192.5,136.5C 193.245,140.958 195.245,141.292 198.5,137.5C 199.154,140.398 197.82,142.232 194.5,143C 195.38,144.356 195.714,145.856 195.5,147.5C 197.167,147.5 198.833,147.5 200.5,147.5C 199.272,149.01 199.272,150.51 200.5,152C 193.916,153.544 187.249,153.877 180.5,153C 178.845,151.556 178.178,149.722 178.5,147.5C 169.279,148.983 159.945,149.983 150.5,150.5C 157.914,151.068 165.247,151.901 172.5,153C 171.328,153.419 170.328,154.085 169.5,155C 161.294,154.875 153.294,155.875 145.5,158C 146.167,158.333 146.833,158.667 147.5,159C 132.17,159.5 116.837,159.667 101.5,159.5C 98.6946,158.681 95.6946,158.181 92.5,158C 108.223,157.591 123.889,156.425 139.5,154.5C 137.262,153.031 134.929,152.198 132.5,152C 134.595,152.556 134.762,153.056 133,153.5C 122.373,154.676 111.706,154.676 101,153.5C 100.604,151.171 101.438,149.505 103.5,148.5C 108.544,148.827 113.544,148.494 118.5,147.5C 117.312,147.693 115.978,147.193 114.5,146C 117.001,144.582 116.668,143.582 113.5,143C 115.457,141.254 116.457,139.088 116.5,136.5C 114.856,136.286 113.356,136.62 112,137.5C 111.667,135.167 111.333,132.833 111,130.5C 109.933,129.809 108.766,129.309 107.5,129C 106.534,126.901 105.2,125.068 103.5,123.5C 104.388,119.141 103.388,115.141 100.5,111.5C 101.623,109.518 101.623,107.518 100.5,105.5C 99.2373,102.008 99.2373,98.841 100.5,96C 101.784,95.3162 102.951,95.4829 104,96.5C 104.172,101.202 104.672,105.868 105.5,110.5C 106.325,106.878 106.825,103.211 107,99.5C 108.359,98.635 109.526,97.635 110.5,96.5 Z"/></g>
<g><path style="opacity:1" fill="#fbb44e" d="M 255.5,58.5 C 256.167,59.1667 256.833,59.8333 257.5,60.5C 259.256,61.5521 259.923,63.2188 259.5,65.5C 257.571,65.2308 255.905,65.7308 254.5,67C 255.177,69.9821 255.177,72.8154 254.5,75.5C 254.808,76.3081 255.308,76.9747 256,77.5C 256.908,75.5614 258.408,74.5614 260.5,74.5C 261.801,78.5982 261.635,82.5982 260,86.5C 258.977,78.6839 257.81,78.6839 256.5,86.5C 253.975,85.1084 251.808,85.4418 250,87.5C 249.147,91.4686 248.481,95.4686 248,99.5C 244.217,107.42 242.884,115.753 244,124.5C 245.299,124.034 246.799,124.034 248.5,124.5C 248.5,122.5 248.5,120.5 248.5,118.5C 251.957,118.96 253.623,120.96 253.5,124.5C 251.848,130.742 250.514,137.075 249.5,143.5C 247.739,151.771 245.406,159.771 242.5,167.5C 242.179,165.952 241.179,165.285 239.5,165.5C 239.229,163.179 239.896,161.179 241.5,159.5C 240.076,157.709 238.742,155.875 237.5,154C 239.12,150.645 240.453,147.145 241.5,143.5C 240.167,143.5 238.833,143.5 237.5,143.5C 237.5,140.833 237.5,138.167 237.5,135.5C 241.49,109.188 247.49,83.5216 255.5,58.5 Z"/></g>
<g><path style="opacity:1" fill="#460c12" d="M 264.5,105.5 C 264.497,110.527 264.164,115.527 263.5,120.5C 262.253,125.016 262.253,129.683 263.5,134.5C 263.167,135.167 262.833,135.833 262.5,136.5C 261.749,135.624 261.249,134.624 261,133.5C 259.737,139.62 258.071,145.62 256,151.5C 255.503,154.146 255.336,156.813 255.5,159.5C 254.833,160.167 254.167,160.833 253.5,161.5C 253.586,157.143 253.92,152.81 254.5,148.5C 256.075,142.95 257.741,137.283 259.5,131.5C 260.848,122.649 262.515,113.983 264.5,105.5 Z"/></g>
<g><path style="opacity:1" fill="#fcd470" d="M 249.5,51.5 C 251.5,51.5 253.5,51.5 255.5,51.5C 255.5,53.8333 255.5,56.1667 255.5,58.5C 247.49,83.5216 241.49,109.188 237.5,135.5C 236.105,139.591 235.272,143.924 235,148.5C 232.674,154.166 230.507,159.833 228.5,165.5C 224.978,166.354 221.645,167.687 218.5,169.5C 213.544,170.494 208.544,170.827 203.5,170.5C 203.5,169.5 203.5,168.5 203.5,167.5C 203.833,167.5 204.167,167.5 204.5,167.5C 210.642,167.9 216.642,167.233 222.5,165.5C 223.922,162.078 226.255,159.745 229.5,158.5C 229.5,154.833 229.5,151.167 229.5,147.5C 227.5,147.5 225.5,147.5 223.5,147.5C 224.919,146.549 226.585,146.216 228.5,146.5C 230.846,132.752 233.513,119.085 236.5,105.5C 238.116,99.3923 239.116,93.0589 239.5,86.5C 240.586,86.38 241.253,85.7133 241.5,84.5C 243.41,73.2747 246.077,62.2747 249.5,51.5 Z"/></g>
<g><path style="opacity:1" fill="#36101a" d="M 126.5,98.5 C 125.945,102.012 126.612,105.012 128.5,107.5C 128.5,108.5 128.5,109.5 128.5,110.5C 130.413,117.232 134.079,122.732 139.5,127C 145.473,128.895 151.473,130.729 157.5,132.5C 163.119,130.512 168.786,128.679 174.5,127C 180.506,122.798 184.84,117.298 187.5,110.5C 187.137,113.563 186.47,116.563 185.5,119.5C 185.57,120.772 185.903,121.938 186.5,123C 183.321,124.571 179.987,125.738 176.5,126.5C 176.5,127.5 176.5,128.5 176.5,129.5C 174.143,129.337 171.81,129.503 169.5,130C 165.607,132.446 161.44,134.279 157,135.5C 152.681,133.807 148.181,132.807 143.5,132.5C 143.5,131.5 143.5,130.5 143.5,129.5C 140.833,129.5 138.167,129.5 135.5,129.5C 135.48,131.143 136.147,132.476 137.5,133.5C 139.5,134.167 141.5,134.833 143.5,135.5C 142.693,137.578 143.359,139.245 145.5,140.5C 144.167,140.5 142.833,140.5 141.5,140.5C 137.771,138.974 134.104,137.141 130.5,135C 128.314,133.588 126.648,131.755 125.5,129.5C 127.06,129.519 128.56,129.852 130,130.5C 132.253,129.344 134.086,127.844 135.5,126C 133.683,124.269 131.849,122.435 130,120.5C 128.996,117.038 127.83,113.704 126.5,110.5C 125.5,110.5 124.5,110.5 123.5,110.5C 123.308,106.098 124.308,102.098 126.5,98.5 Z"/></g>
<g><path style="opacity:1" fill="#2e0d23" d="M 185.5,133.5 C 182.338,135.438 178.838,136.772 175,137.5C 173.831,138.009 172.998,138.842 172.5,140C 168.972,140.089 165.638,140.756 162.5,142C 157.833,142.667 153.167,142.667 148.5,142C 147.263,141.768 146.263,141.268 145.5,140.5C 143.359,139.245 142.693,137.578 143.5,135.5C 141.5,134.833 139.5,134.167 137.5,133.5C 136.147,132.476 135.48,131.143 135.5,129.5C 138.167,129.5 140.833,129.5 143.5,129.5C 143.5,130.5 143.5,131.5 143.5,132.5C 148.181,132.807 152.681,133.807 157,135.5C 161.44,134.279 165.607,132.446 169.5,130C 171.81,129.503 174.143,129.337 176.5,129.5C 176.5,128.5 176.5,127.5 176.5,126.5C 179.987,125.738 183.321,124.571 186.5,123C 185.903,121.938 185.57,120.772 185.5,119.5C 186.47,116.563 187.137,113.563 187.5,110.5C 189.217,107.155 189.884,103.489 189.5,99.5C 194.451,97.556 195.784,99.2226 193.5,104.5C 195.479,107.91 195.979,111.577 195,115.5C 194,114.167 193,114.167 192,115.5C 191.503,118.146 191.336,120.813 191.5,123.5C 190.5,123.5 189.5,123.5 188.5,123.5C 188.445,127.182 187.445,130.515 185.5,133.5 Z"/></g>
<g><path style="opacity:1" fill="#fbb650" d="M 94.5,124.5 C 93.5222,124.189 92.8555,123.522 92.5,122.5C 94.7117,117.962 93.3783,115.462 88.5,115C 89.5762,113.274 89.7429,111.441 89,109.5C 86.7146,114.972 86.0479,120.638 87,126.5C 88.5843,127.861 90.4176,128.528 92.5,128.5C 92.6657,132.846 92.499,137.179 92,141.5C 90.9887,142.337 89.8221,142.67 88.5,142.5C 88.5,143.5 88.5,144.5 88.5,145.5C 92.8346,145.917 97.1679,146.417 101.5,147C 102.416,147.278 103.082,147.778 103.5,148.5C 101.438,149.505 100.604,151.171 101,153.5C 111.706,154.676 122.373,154.676 133,153.5C 134.762,153.056 134.595,152.556 132.5,152C 134.929,152.198 137.262,153.031 139.5,154.5C 123.889,156.425 108.223,157.591 92.5,158C 95.6946,158.181 98.6946,158.681 101.5,159.5C 97.4454,159.824 93.4454,159.491 89.5,158.5C 88.4179,156.116 87.7512,153.95 87.5,152C 85.5116,151.82 83.5116,151.986 81.5,152.5C 76.3248,151.507 74.4914,153.507 76,158.5C 79.4072,161.527 82.9072,164.36 86.5,167C 123.498,167.5 160.498,167.667 197.5,167.5C 162.331,168.167 126.998,168.833 91.5,169.5C 89.2933,170.635 86.9599,171.301 84.5,171.5C 83.1516,170.814 81.985,169.814 81,168.5C 80.5172,169.448 80.3505,170.448 80.5,171.5C 76.8292,171.278 73.1625,170.944 69.5,170.5C 66.7214,170.92 64.0547,171.587 61.5,172.5C 61.0773,170.219 61.744,168.552 63.5,167.5C 67.1064,167.789 70.6064,167.456 74,166.5C 74.6869,164.08 74.1869,161.913 72.5,160C 73.883,157.306 74.383,154.473 74,151.5C 73.4115,149.137 71.9115,148.137 69.5,148.5C 69.3347,144.818 69.5014,141.152 70,137.5C 72.4132,133.518 73.7466,129.184 74,124.5C 74.8518,123.429 75.6851,122.429 76.5,121.5C 74.721,128.229 73.3877,135.062 72.5,142C 72.9738,148.547 74.9738,149.047 78.5,143.5C 83.27,122.956 88.27,102.29 93.5,81.5C 92.9061,77.5251 90.7395,76.5251 87,78.5C 85.8478,86.4527 83.8478,94.1194 81,101.5C 80.3333,106.167 79.6667,110.833 79,115.5C 78.5831,116.756 77.7498,117.423 76.5,117.5C 75.9791,113.519 75.6458,109.519 75.5,105.5C 76.8333,105.5 78.1667,105.5 79.5,105.5C 79.6495,104.448 79.4828,103.448 79,102.5C 78,103.833 77,103.833 76,102.5C 75.8333,101 75.6667,99.5 75.5,98C 74.9696,94.6508 76.1363,92.1508 79,90.5C 79.1705,92.7148 79.8372,94.7148 81,96.5C 81.3675,92.2539 80.8675,88.0872 79.5,84C 79.7885,81.813 80.1218,79.6463 80.5,77.5C 79.1266,77.6567 77.7932,77.49 76.5,77C 77.9733,76.2904 78.6399,75.1238 78.5,73.5C 79.4232,72.6971 80.4232,72.5304 81.5,73C 81.1667,73.3333 80.8333,73.6667 80.5,74C 81.1189,75.7571 82.2856,76.9238 84,77.5C 87.1267,75.2733 90.6267,74.2733 94.5,74.5C 94.7233,81.7677 94.0566,88.9344 92.5,96C 92.9317,102.796 93.9317,109.462 95.5,116C 94.5562,118.719 94.2229,121.552 94.5,124.5 Z"/></g>
<g><path style="opacity:1" fill="#f7b544" d="M 51.5,85.5 C 47.5095,101.137 43.5095,116.803 39.5,132.5C 37.9865,141.549 36.3198,150.549 34.5,159.5C 31.4281,159.817 28.4281,159.484 25.5,158.5C 26.0938,155.17 26.7604,151.836 27.5,148.5C 28.086,148.291 28.586,147.957 29,147.5C 30.3531,141.224 31.3531,134.891 32,128.5C 35.0773,124.379 36.2439,119.713 35.5,114.5C 35.2309,101.563 40.5642,91.8965 51.5,85.5 Z"/></g>
<g><path style="opacity:1" fill="#da6d20" d="M 199.5,109.5 C 199.5,112.5 199.5,115.5 199.5,118.5C 195.801,122.352 193.301,127.018 192,132.5C 178.989,147.165 162.823,151.998 143.5,147C 129.909,141.867 120.909,132.367 116.5,118.5C 116.5,117.5 116.5,116.5 116.5,115.5C 116.833,115.5 117.167,115.5 117.5,115.5C 118.146,121.444 120.813,126.11 125.5,129.5C 126.648,131.755 128.314,133.588 130.5,135C 134.104,137.141 137.771,138.974 141.5,140.5C 143.148,141.927 145.148,142.76 147.5,143C 157.81,144.306 167.81,143.14 177.5,139.5C 180.492,137.829 183.159,135.829 185.5,133.5C 192.59,126.874 197.257,118.874 199.5,109.5 Z"/></g>
<g><path style="opacity:1" fill="#490d08" d="M 185.5,133.5 C 183.159,135.829 180.492,137.829 177.5,139.5C 167.81,143.14 157.81,144.306 147.5,143C 145.148,142.76 143.148,141.927 141.5,140.5C 142.833,140.5 144.167,140.5 145.5,140.5C 146.263,141.268 147.263,141.768 148.5,142C 153.167,142.667 157.833,142.667 162.5,142C 165.638,140.756 168.972,140.089 172.5,140C 172.998,138.842 173.831,138.009 175,137.5C 178.838,136.772 182.338,135.438 185.5,133.5 Z"/></g>
<g><path style="opacity:1" fill="#f1d58c" d="M 223.5,147.5 C 225.5,147.5 227.5,147.5 229.5,147.5C 229.5,151.167 229.5,154.833 229.5,158.5C 226.255,159.745 223.922,162.078 222.5,165.5C 216.642,167.233 210.642,167.9 204.5,167.5C 204.5,166.833 204.5,166.167 204.5,165.5C 212.444,166.952 219.277,164.952 225,159.5C 226.466,155.891 227.633,152.224 228.5,148.5C 226.5,148.5 224.5,148.5 222.5,148.5C 222.413,151.578 221.08,153.911 218.5,155.5C 219.639,152.996 220.306,150.33 220.5,147.5C 221.5,147.5 222.5,147.5 223.5,147.5 Z"/></g>
<g><path style="opacity:1" fill="#520c0d" d="M 280.5,124.5 C 279.74,130.804 279.407,137.137 279.5,143.5C 278.5,143.5 277.5,143.5 276.5,143.5C 275.756,150.215 274.423,156.549 272.5,162.5C 273.79,149.405 276.457,136.738 280.5,124.5 Z"/></g>
<g><path style="opacity:1" fill="#fab751" d="M 235.5,105.5 C 235.833,105.5 236.167,105.5 236.5,105.5C 233.513,119.085 230.846,132.752 228.5,146.5C 226.585,146.216 224.919,146.549 223.5,147.5C 222.5,147.5 221.5,147.5 220.5,147.5C 220.306,150.33 219.639,152.996 218.5,155.5C 218.586,156.496 218.252,157.329 217.5,158C 213.558,158.993 209.558,159.66 205.5,160C 203.447,161.678 203.113,163.511 204.5,165.5C 204.5,166.167 204.5,166.833 204.5,167.5C 204.167,167.5 203.833,167.5 203.5,167.5C 201.898,165.926 199.898,165.259 197.5,165.5C 197.5,163.833 197.5,162.167 197.5,160.5C 160.832,160.667 124.165,160.5 87.5,160C 85.0911,157.895 83.0911,155.395 81.5,152.5C 83.5116,151.986 85.5116,151.82 87.5,152C 87.7512,153.95 88.4179,156.116 89.5,158.5C 93.4454,159.491 97.4454,159.824 101.5,159.5C 116.837,159.667 132.17,159.5 147.5,159C 146.833,158.667 146.167,158.333 145.5,158C 153.294,155.875 161.294,154.875 169.5,155C 170.328,154.085 171.328,153.419 172.5,153C 165.247,151.901 157.914,151.068 150.5,150.5C 159.945,149.983 169.279,148.983 178.5,147.5C 178.178,149.722 178.845,151.556 180.5,153C 187.249,153.877 193.916,153.544 200.5,152C 199.272,150.51 199.272,149.01 200.5,147.5C 199.766,146.292 199.433,144.959 199.5,143.5C 201.167,143.5 202.833,143.5 204.5,143.5C 204.187,146.247 204.52,148.914 205.5,151.5C 210.345,153.749 209.678,155.082 203.5,155.5C 203.52,157.143 202.853,158.476 201.5,159.5C 201.833,159.833 202.167,160.167 202.5,160.5C 205.27,157.97 208.603,156.97 212.5,157.5C 212.5,156.5 212.5,155.5 212.5,154.5C 214.167,154.5 215.833,154.5 217.5,154.5C 217.558,151.336 218.224,148.336 219.5,145.5C 222.079,145.917 224.246,145.25 226,143.5C 226.179,140.447 226.679,137.447 227.5,134.5C 229.069,133.286 229.902,131.619 230,129.5C 230.333,124.833 230.667,120.167 231,115.5C 234.406,113.021 235.906,109.688 235.5,105.5 Z"/></g>
<g><path style="opacity:1" fill="#2f1024" d="M 20.5,158.5 C 20.5668,160.401 20.2335,162.234 19.5,164C 19.8621,165.885 21.0287,166.719 23,166.5C 26.3809,165.524 29.5476,164.024 32.5,162C 35.4816,161.502 38.4816,161.335 41.5,161.5C 41.265,164.812 42.265,165.645 44.5,164C 43.4933,162.48 42.8266,160.813 42.5,159C 43.2228,154.498 43.8895,149.998 44.5,145.5C 47.8588,139.738 49.5254,133.405 49.5,126.5C 50.2931,124.082 51.6264,122.082 53.5,120.5C 58.015,124.096 58.6816,128.429 55.5,133.5C 54.3112,134.429 52.9778,134.762 51.5,134.5C 51.2213,139.301 51.888,143.968 53.5,148.5C 51.2716,152.186 50.2716,156.186 50.5,160.5C 50.5,160.833 50.5,161.167 50.5,161.5C 49.8826,161.611 49.3826,161.944 49,162.5C 48.7132,164.891 48.2132,167.224 47.5,169.5C 40.7427,170.509 34.076,171.843 27.5,173.5C 26.1637,172.577 24.8304,172.077 23.5,172C 20.5044,176.472 18.1711,181.305 16.5,186.5C 16.5,186.833 16.5,187.167 16.5,187.5C 14.6322,191.116 12.9655,194.782 11.5,198.5C 11.5,196.833 11.5,195.167 11.5,193.5C 8.85426,193.108 6.35426,193.108 4,193.5C 1.06806,199.124 -0.0986066,205.124 0.5,211.5C 1.82207,211.33 2.98873,211.663 4,212.5C 5.82921,216.646 6.99588,220.98 7.5,225.5C 9.45318,226.69 11.2865,228.024 13,229.5C 13.4017,228.128 13.9017,226.795 14.5,225.5C 15.1667,224.167 15.8333,224.167 16.5,225.5C 17.5617,228.103 17.7284,230.77 17,233.5C 15.6667,232.833 14.6667,231.833 14,230.5C 13.7216,231.416 13.2216,232.082 12.5,232.5C 6.96404,227.765 2.63071,222.099 -0.5,215.5C -0.5,209.833 -0.5,204.167 -0.5,198.5C 0.474989,195.689 1.14166,192.689 1.5,189.5C 2.83333,189.5 3.5,188.833 3.5,187.5C 7.09566,172.714 10.7623,158.047 14.5,143.5C 15.5,143.5 16.5,143.5 17.5,143.5C 17.3379,141.473 17.5045,139.473 18,137.5C 20.9021,132.198 22.7354,126.532 23.5,120.5C 24.1667,119.833 24.8333,119.167 25.5,118.5C 27.3223,119.866 28.3223,121.7 28.5,124C 25.3968,130.101 23.7301,136.601 23.5,143.5C 22.1667,143.5 20.8333,143.5 19.5,143.5C 20.1637,148.473 20.4971,153.473 20.5,158.5 Z"/></g>
<g><path style="opacity:1" fill="#3d1312" d="M 30.5,127.5 C 27.8896,139.12 25.2229,150.786 22.5,162.5C 22.8333,163.5 23.1667,164.5 23.5,165.5C 26.7789,162.696 30.4455,160.696 34.5,159.5C 35.5,159.5 36.5,159.5 37.5,159.5C 38.8333,159.5 40.1667,159.5 41.5,159.5C 41.2651,154.454 42.2651,149.787 44.5,145.5C 43.8895,149.998 43.2228,154.498 42.5,159C 42.8266,160.813 43.4933,162.48 44.5,164C 42.265,165.645 41.265,164.812 41.5,161.5C 38.4816,161.335 35.4816,161.502 32.5,162C 29.5476,164.024 26.3809,165.524 23,166.5C 21.0287,166.719 19.8621,165.885 19.5,164C 20.2335,162.234 20.5668,160.401 20.5,158.5C 21.6491,158.209 22.3158,157.376 22.5,156C 23.609,150.517 24.609,145.017 25.5,139.5C 27.779,135.639 29.4457,131.639 30.5,127.5 Z"/></g>
<g><path style="opacity:1" fill="#450904" d="M 49.5,126.5 C 49.5254,133.405 47.8588,139.738 44.5,145.5C 45.7502,138.964 47.4169,132.631 49.5,126.5 Z"/></g>
<g><path style="opacity:1" fill="#c55a27" d="M 268.5,147.5 C 266.344,160.488 264.177,173.488 262,186.5C 261.626,188.491 260.793,190.158 259.5,191.5C 261.291,181.268 262.624,170.934 263.5,160.5C 265.897,156.436 267.564,152.103 268.5,147.5 Z"/></g>
<g><path style="opacity:1" fill="#e2a75b" d="M 35.5,114.5 C 36.2439,119.713 35.0773,124.379 32,128.5C 31.3531,134.891 30.3531,141.224 29,147.5C 28.586,147.957 28.086,148.291 27.5,148.5C 26.7604,151.836 26.0938,155.17 25.5,158.5C 28.4281,159.484 31.4281,159.817 34.5,159.5C 30.4455,160.696 26.7789,162.696 23.5,165.5C 23.1667,164.5 22.8333,163.5 22.5,162.5C 25.2229,150.786 27.8896,139.12 30.5,127.5C 31.5836,122.957 33.2502,118.624 35.5,114.5 Z"/></g>
<g><path style="opacity:1" fill="#2d1329" d="M 292.5,74.5 C 293.5,75.8333 294.5,77.1667 295.5,78.5C 295.157,80.4832 295.824,81.8166 297.5,82.5C 298.065,84.9521 298.732,87.2854 299.5,89.5C 299.5,90.1667 299.5,90.8333 299.5,91.5C 289.672,141.208 278.839,190.875 267,240.5C 261.766,250.899 253.599,257.899 242.5,261.5C 242.557,260.391 242.89,259.391 243.5,258.5C 245.167,258.5 246.833,258.5 248.5,258.5C 248.5,257.5 248.5,256.5 248.5,255.5C 253.115,255.21 255.782,252.877 256.5,248.5C 258.124,248.64 259.29,247.973 260,246.5C 260.496,241.244 261.996,236.41 264.5,232C 262.918,228.257 263.251,224.757 265.5,221.5C 266.736,220.754 268.07,220.421 269.5,220.5C 269.281,216.369 270.448,212.702 273,209.5C 274.145,204.201 274.478,198.868 274,193.5C 273.29,194.973 272.124,195.64 270.5,195.5C 270.309,192.011 269.976,191.844 269.5,195C 270.632,198.063 270.632,201.063 269.5,204C 269.167,204.167 268.833,204.333 268.5,204.5C 268.167,202.333 267.833,200.167 267.5,198C 268.531,192.866 269.198,187.699 269.5,182.5C 269.5,178.833 269.5,175.167 269.5,171.5C 269.769,168.071 270.769,165.071 272.5,162.5C 274.423,156.549 275.756,150.215 276.5,143.5C 277.5,143.5 278.5,143.5 279.5,143.5C 280.29,144.609 280.79,145.942 281,147.5C 281.236,145.236 281.736,143.069 282.5,141C 281.684,139.077 281.017,137.077 280.5,135C 281.587,126.237 283.754,117.737 287,109.5C 287.118,112.371 287.784,115.038 289,117.5C 291.734,116.638 291.901,115.805 289.5,115C 290.516,114.481 291.182,113.647 291.5,112.5C 290.575,110.764 289.908,108.93 289.5,107C 290.951,103.925 292.284,100.759 293.5,97.5C 292.954,96.2278 292.621,94.8945 292.5,93.5C 293.853,90.8928 294.519,88.0594 294.5,85C 293.584,81.5678 292.917,78.0678 292.5,74.5 Z"/></g>
<g><path style="opacity:1" fill="#fdf4dc" d="M 204.5,165.5 C 203.113,163.511 203.447,161.678 205.5,160C 209.558,159.66 213.558,158.993 217.5,158C 218.252,157.329 218.586,156.496 218.5,155.5C 221.08,153.911 222.413,151.578 222.5,148.5C 224.5,148.5 226.5,148.5 228.5,148.5C 227.633,152.224 226.466,155.891 225,159.5C 219.277,164.952 212.444,166.952 204.5,165.5 Z"/></g>
<g><path style="opacity:1" fill="#fdd676" d="M 81.5,152.5 C 83.0911,155.395 85.0911,157.895 87.5,160C 124.165,160.5 160.832,160.667 197.5,160.5C 197.5,162.167 197.5,163.833 197.5,165.5C 197.5,166.167 197.5,166.833 197.5,167.5C 160.498,167.667 123.498,167.5 86.5,167C 82.9072,164.36 79.4072,161.527 76,158.5C 74.4914,153.507 76.3248,151.507 81.5,152.5 Z"/></g>
<g><path style="opacity:1" fill="#fdb24b" d="M 54.5,162.5 C 54.1369,166.683 54.8036,170.683 56.5,174.5C 56.1667,175.167 55.8333,175.833 55.5,176.5C 54.1585,174.995 52.4918,174.328 50.5,174.5C 50.5,176.5 50.5,178.5 50.5,180.5C 73.8708,180.135 97.2041,179.968 120.5,180C 114.167,179.667 107.833,179.333 101.5,179C 100.033,177.902 99.1992,176.402 99,174.5C 98.3741,176.991 97.5407,176.991 96.5,174.5C 95.1667,177.167 93.8333,177.167 92.5,174.5C 91.1841,177.028 90.0174,177.028 89,174.5C 88.2904,175.973 87.1238,176.64 85.5,176.5C 85.3601,174.876 86.0267,173.71 87.5,173C 86.2625,172.768 85.2625,172.268 84.5,171.5C 86.9599,171.301 89.2933,170.635 91.5,169.5C 126.998,168.833 162.331,168.167 197.5,167.5C 197.5,166.833 197.5,166.167 197.5,165.5C 199.898,165.259 201.898,165.926 203.5,167.5C 203.5,168.5 203.5,169.5 203.5,170.5C 200.903,170.721 200.903,171.221 203.5,172C 207.871,172.172 212.204,172.672 216.5,173.5C 208.442,174.81 200.442,174.477 192.5,172.5C 182.545,173.936 172.045,174.603 161,174.5C 141.307,174.168 121.474,174.168 101.5,174.5C 101.5,175.5 101.5,176.5 101.5,177.5C 127.169,177.667 152.835,177.5 178.5,177C 181.11,176.853 183.444,176.019 185.5,174.5C 186.816,177.028 187.983,177.028 189,174.5C 189.495,176.473 189.662,178.473 189.5,180.5C 201.833,180.5 214.167,180.5 226.5,180.5C 166.509,182.496 106.176,183.163 45.5,182.5C 45.5674,181.041 45.2341,179.708 44.5,178.5C 41.7131,177.523 38.7131,177.19 35.5,177.5C 35.5,176.167 35.5,174.833 35.5,173.5C 40.544,173.827 45.544,173.494 50.5,172.5C 52.2555,169.213 53.5888,165.879 54.5,162.5 Z"/></g>
<g><path style="opacity:1" fill="#3d0a0d" d="M 263.5,160.5 C 262.624,170.934 261.291,181.268 259.5,191.5C 259.5,191.833 259.5,192.167 259.5,192.5C 257.537,196.185 256.204,200.185 255.5,204.5C 256.333,196.162 257.333,187.829 258.5,179.5C 259.086,179.291 259.586,178.957 260,178.5C 260.947,172.32 262.114,166.32 263.5,160.5 Z"/></g>
<g><path style="opacity:1" fill="#fbb44c" d="M 63.5,167.5 C 61.744,168.552 61.0773,170.219 61.5,172.5C 64.0547,171.587 66.7214,170.92 69.5,170.5C 73.1625,170.944 76.8292,171.278 80.5,171.5C 80.3505,170.448 80.5172,169.448 81,168.5C 81.985,169.814 83.1516,170.814 84.5,171.5C 85.2625,172.268 86.2625,172.768 87.5,173C 86.0267,173.71 85.3601,174.876 85.5,176.5C 87.1238,176.64 88.2904,175.973 89,174.5C 90.0174,177.028 91.1841,177.028 92.5,174.5C 93.8333,177.167 95.1667,177.167 96.5,174.5C 97.5407,176.991 98.3741,176.991 99,174.5C 99.1992,176.402 100.033,177.902 101.5,179C 107.833,179.333 114.167,179.667 120.5,180C 97.2041,179.968 73.8708,180.135 50.5,180.5C 50.5,178.5 50.5,176.5 50.5,174.5C 52.4918,174.328 54.1585,174.995 55.5,176.5C 55.8333,175.833 56.1667,175.167 56.5,174.5C 54.8036,170.683 54.1369,166.683 54.5,162.5C 54.366,160.708 54.6993,159.042 55.5,157.5C 55.9399,161.797 56.2732,166.13 56.5,170.5C 58.1238,170.64 59.2904,169.973 60,168.5C 60.769,165.901 60.6023,163.401 59.5,161C 61.1926,155.322 62.3592,149.488 63,143.5C 63.3333,144.5 63.6667,145.5 64,146.5C 66.7344,147.362 66.9011,148.195 64.5,149C 66.108,149.658 67.2747,149.158 68,147.5C 69.5813,150.492 69.5813,153.159 68,155.5C 66.513,154.747 66.3463,153.914 67.5,153C 66.2068,152.51 64.8734,152.343 63.5,152.5C 62.7959,157.853 62.7959,162.853 63.5,167.5 Z"/></g>
<g><path style="opacity:1" fill="#fab44d" d="M 237.5,135.5 C 237.5,138.167 237.5,140.833 237.5,143.5C 238.833,143.5 240.167,143.5 241.5,143.5C 240.453,147.145 239.12,150.645 237.5,154C 238.742,155.875 240.076,157.709 241.5,159.5C 239.896,161.179 239.229,163.179 239.5,165.5C 241.179,165.285 242.179,165.952 242.5,167.5C 242.657,168.873 242.49,170.207 242,171.5C 239.167,173 237,175.167 235.5,178C 232.568,179.145 229.568,179.978 226.5,180.5C 214.167,180.5 201.833,180.5 189.5,180.5C 189.662,178.473 189.495,176.473 189,174.5C 187.983,177.028 186.816,177.028 185.5,174.5C 183.444,176.019 181.11,176.853 178.5,177C 152.835,177.5 127.169,177.667 101.5,177.5C 101.5,176.5 101.5,175.5 101.5,174.5C 121.474,174.168 141.307,174.168 161,174.5C 172.045,174.603 182.545,173.936 192.5,172.5C 200.442,174.477 208.442,174.81 216.5,173.5C 212.204,172.672 207.871,172.172 203.5,172C 200.903,171.221 200.903,170.721 203.5,170.5C 208.544,170.827 213.544,170.494 218.5,169.5C 221.645,167.687 224.978,166.354 228.5,165.5C 230.507,159.833 232.674,154.166 235,148.5C 235.272,143.924 236.105,139.591 237.5,135.5 Z"/></g>
<g><path style="opacity:1" fill="#4f0b0e" d="M 253.5,161.5 C 253.817,164.572 253.484,167.572 252.5,170.5C 251.081,172.336 249.914,174.336 249,176.5C 245.964,178.036 243.797,180.369 242.5,183.5C 240.261,184.788 237.928,185.788 235.5,186.5C 240.105,182.398 244.605,178.064 249,173.5C 249.994,170.039 250.827,166.539 251.5,163C 251.836,161.97 252.503,161.47 253.5,161.5 Z"/></g>
<g><path style="opacity:1" fill="#e8c16e" d="M 34.5,173.5 C 34.8333,173.5 35.1667,173.5 35.5,173.5C 35.5,174.833 35.5,176.167 35.5,177.5C 38.7131,177.19 41.7131,177.523 44.5,178.5C 39.8215,178.334 35.1548,178.501 30.5,179C 26.5722,181.254 22.9055,183.921 19.5,187C 18.552,187.483 17.552,187.649 16.5,187.5C 16.5,187.167 16.5,186.833 16.5,186.5C 20.8394,179.822 26.8394,175.488 34.5,173.5 Z"/></g>
<g><path style="opacity:1" fill="#3e1410" d="M 50.5,161.5 C 50.4059,165.136 49.7393,168.636 48.5,172C 43.6486,172.174 38.9819,172.674 34.5,173.5C 26.8394,175.488 20.8394,179.822 16.5,186.5C 18.1711,181.305 20.5044,176.472 23.5,172C 24.8304,172.077 26.1637,172.577 27.5,173.5C 34.076,171.843 40.7427,170.509 47.5,169.5C 48.2132,167.224 48.7132,164.891 49,162.5C 49.3826,161.944 49.8826,161.611 50.5,161.5 Z"/></g>
<g><path style="opacity:1" fill="#e7641c" d="M 280.5,124.5 C 276.457,136.738 273.79,149.405 272.5,162.5C 270.769,165.071 269.769,168.071 269.5,171.5C 268.188,176.47 267.188,181.636 266.5,187C 265.747,188.877 264.914,190.711 264,192.5C 262.637,202.147 261.47,211.813 260.5,221.5C 257.383,227.025 255.383,233.025 254.5,239.5C 252.228,240.441 250.228,241.774 248.5,243.5C 246.567,243.729 244.9,244.562 243.5,246C 241.833,246.667 240.167,246.667 238.5,246C 241.35,244.073 244.017,241.906 246.5,239.5C 247.386,238.675 247.719,237.675 247.5,236.5C 248.458,236.047 249.292,235.381 250,234.5C 255.11,220.984 258.277,206.984 259.5,192.5C 259.5,192.167 259.5,191.833 259.5,191.5C 260.793,190.158 261.626,188.491 262,186.5C 264.177,173.488 266.344,160.488 268.5,147.5C 270.214,135.381 272.547,123.381 275.5,111.5C 275.5,110.5 275.5,109.5 275.5,108.5C 278.626,100.223 280.626,91.5559 281.5,82.5C 282.822,82.33 283.989,82.6634 285,83.5C 286.057,86.207 286.557,89.0403 286.5,92C 284.603,102.89 282.603,113.723 280.5,124.5 Z"/></g>
<g><path style="opacity:1" fill="#f8edce" d="M 44.5,178.5 C 45.2341,179.708 45.5674,181.041 45.5,182.5C 43.2646,182.205 41.2646,182.539 39.5,183.5C 32.6009,183.404 26.9342,185.904 22.5,191C 21.2068,191.49 19.8734,191.657 18.5,191.5C 18.552,193.903 18.2186,196.236 17.5,198.5C 16.8902,199.391 16.5569,200.391 16.5,201.5C 14.691,203.099 13.3576,205.099 12.5,207.5C 11.5159,204.572 11.1826,201.572 11.5,198.5C 12.9655,194.782 14.6322,191.116 16.5,187.5C 17.552,187.649 18.552,187.483 19.5,187C 22.9055,183.921 26.5722,181.254 30.5,179C 35.1548,178.501 39.8215,178.334 44.5,178.5 Z"/></g>
<g><path style="opacity:1" fill="#ee6d13" d="M 254.5,148.5 C 253.92,152.81 253.586,157.143 253.5,161.5C 252.503,161.47 251.836,161.97 251.5,163C 250.827,166.539 249.994,170.039 249,173.5C 244.605,178.064 240.105,182.398 235.5,186.5C 233.5,186.5 231.5,186.5 229.5,186.5C 163.5,186.5 97.5,186.5 31.5,186.5C 34.246,185.749 36.9127,184.749 39.5,183.5C 41.2646,182.539 43.2646,182.205 45.5,182.5C 106.176,183.163 166.509,182.496 226.5,180.5C 229.568,179.978 232.568,179.145 235.5,178C 237,175.167 239.167,173 242,171.5C 242.49,170.207 242.657,168.873 242.5,167.5C 245.406,159.771 247.739,151.771 249.5,143.5C 251.272,141.089 252.606,138.256 253.5,135C 255.837,125.113 258.337,115.28 261,105.5C 259.593,119.99 257.426,134.323 254.5,148.5 Z"/></g>
<g><path style="opacity:1" fill="#ce6635" d="M 31.5,186.5 C 97.5,186.5 163.5,186.5 229.5,186.5C 164.66,186.834 99.9935,187.834 35.5,189.5C 33.3792,189.325 31.3792,189.659 29.5,190.5C 29.2291,188.62 29.8958,187.287 31.5,186.5 Z"/></g>
<g><path style="opacity:0.004" fill="#fefffe" d="M 3.5,187.5 C 3.5,188.833 2.83333,189.5 1.5,189.5C 1.5,188.167 2.16667,187.5 3.5,187.5 Z"/></g>
<g><path style="opacity:1" fill="#e6b159" d="M 39.5,183.5 C 36.9127,184.749 34.246,185.749 31.5,186.5C 29.8958,187.287 29.2291,188.62 29.5,190.5C 28.448,190.351 27.448,190.517 26.5,191C 23.6516,193.682 20.6516,196.182 17.5,198.5C 18.2186,196.236 18.552,193.903 18.5,191.5C 19.8734,191.657 21.2068,191.49 22.5,191C 26.9342,185.904 32.6009,183.404 39.5,183.5 Z"/></g>
<g><path style="opacity:1" fill="#510300" d="M 229.5,186.5 C 231.5,186.5 233.5,186.5 235.5,186.5C 233.781,187.022 232.448,188.022 231.5,189.5C 229.833,189.5 228.167,189.5 226.5,189.5C 162.833,189.5 99.1667,189.5 35.5,189.5C 99.9935,187.834 164.66,186.834 229.5,186.5 Z"/></g>
<g><path style="opacity:1" fill="#390a11" d="M 35.5,189.5 C 99.1667,189.5 162.833,189.5 226.5,189.5C 166.336,190.499 106.002,190.832 45.5,190.5C 38.9056,189.99 32.5722,190.823 26.5,193C 23.2901,196.086 19.9568,198.92 16.5,201.5C 16.5569,200.391 16.8902,199.391 17.5,198.5C 20.6516,196.182 23.6516,193.682 26.5,191C 27.448,190.517 28.448,190.351 29.5,190.5C 31.3792,189.659 33.3792,189.325 35.5,189.5 Z"/></g>
<g><path style="opacity:1" fill="#2a0d23" d="M 226.5,189.5 C 228.167,189.5 229.833,189.5 231.5,189.5C 233.288,189.215 234.955,189.548 236.5,190.5C 232.964,192.016 229.464,192.35 226,191.5C 219.93,192.88 213.764,193.88 207.5,194.5C 207.291,195.086 206.957,195.586 206.5,196C 208.382,196.198 210.048,196.698 211.5,197.5C 159.166,197.667 106.832,197.5 54.5,197C 56.0589,196.02 57.7256,195.187 59.5,194.5C 58.2713,193.719 56.938,193.219 55.5,193C 57.5,192.667 59.5,192.333 61.5,192C 55.9842,191.827 50.6509,191.327 45.5,190.5C 106.002,190.832 166.336,190.499 226.5,189.5 Z"/></g>
<g><path style="opacity:1" fill="#30090a" d="M 231.5,198.5 C 231.5,198.833 231.5,199.167 231.5,199.5C 168.833,199.5 106.167,199.5 43.5,199.5C 40.8333,199.5 38.1667,199.5 35.5,199.5C 36.5145,198.235 38.0145,197.569 40,197.5C 103.822,198.484 167.655,198.817 231.5,198.5 Z"/></g>
<g><path style="opacity:1" fill="#daab9d" d="M 43.5,199.5 C 106.167,199.5 168.833,199.5 231.5,199.5C 182.173,201.164 132.507,202.164 82.5,202.5C 86.2203,202.887 88.2203,204.887 88.5,208.5C 87.1634,207.685 86.1634,206.518 85.5,205C 73.6263,202.266 61.6263,201.766 49.5,203.5C 48.0821,201.692 46.0821,201.025 43.5,201.5C 43.5,200.833 43.5,200.167 43.5,199.5 Z"/></g>
<g><path style="opacity:1" fill="#efb48e" d="M 244.5,205.5 C 244.662,203.473 244.495,201.473 244,199.5C 243.654,202.576 242.988,205.576 242,208.5C 241.29,209.973 240.124,210.64 238.5,210.5C 238.462,205.587 236.628,204.587 233,207.5C 229.849,208.093 226.682,208.593 223.5,209C 178.478,209.813 133.478,209.646 88.5,208.5C 88.2203,204.887 86.2203,202.887 82.5,202.5C 132.507,202.164 182.173,201.164 231.5,199.5C 231.5,199.167 231.5,198.833 231.5,198.5C 234.553,198.889 237.22,198.223 239.5,196.5C 242.567,196.43 244.9,195.096 246.5,192.5C 246.833,193.333 247.167,194.167 247.5,195C 246.239,198.563 245.239,202.063 244.5,205.5 Z"/></g>
<g><path style="opacity:1" fill="#380c1e" d="M 88.5,208.5 C 88.5544,210.632 89.5544,211.965 91.5,212.5C 91.5569,213.609 91.8902,214.609 92.5,215.5C 92.5,215.833 92.5,216.167 92.5,216.5C 92.5,223.167 92.5,229.833 92.5,236.5C 90.045,234.86 88.545,232.527 88,229.5C 87.7087,224.811 87.7087,220.144 88,215.5C 86.4941,213.826 84.6607,212.826 82.5,212.5C 84.4005,227.699 85.0672,243.032 84.5,258.5C 83.5,258.5 82.5,258.5 81.5,258.5C 81.6666,244.829 81.4999,231.163 81,217.5C 80.6174,216.944 80.1174,216.611 79.5,216.5C 78.8333,216.5 78.5,216.167 78.5,215.5C 70.6775,214.344 62.6775,214.177 54.5,215C 53.2341,215.309 52.0674,215.809 51,216.5C 49.8667,223.733 49.3667,231.066 49.5,238.5C 49.8333,245.167 50.1667,251.833 50.5,258.5C 52.2131,258.121 53.2131,257.121 53.5,255.5C 55.914,253.076 58.5807,251.076 61.5,249.5C 61.7804,252.388 60.4471,253.888 57.5,254C 54.2686,259.286 49.602,261.12 43.5,259.5C 46.337,258.491 47.6703,256.491 47.5,253.5C 46.1667,253.5 44.8333,253.5 43.5,253.5C 42.9569,253.44 42.6236,253.107 42.5,252.5C 43.8532,251.476 44.5198,250.143 44.5,248.5C 45.8333,248.5 47.1667,248.5 48.5,248.5C 48.3179,235.813 48.6512,223.147 49.5,210.5C 52.2706,210.579 54.9373,210.079 57.5,209C 56.3595,208.259 56.3595,207.425 57.5,206.5C 58.7287,205.719 60.062,205.219 61.5,205C 57.8333,204.333 54.1667,204.333 50.5,205C 49.6634,206.011 49.33,207.178 49.5,208.5C 47.8008,208.34 46.1341,208.506 44.5,209C 43.9221,210.417 42.9221,211.25 41.5,211.5C 42.8281,207.523 45.4948,204.856 49.5,203.5C 61.6263,201.766 73.6263,202.266 85.5,205C 86.1634,206.518 87.1634,207.685 88.5,208.5 Z"/></g>
<g><path style="opacity:1" fill="#eeb381" d="M 43.5,201.5 C 46.0821,201.025 48.0821,201.692 49.5,203.5C 45.4948,204.856 42.8281,207.523 41.5,211.5C 40.8333,211.5 40.1667,211.5 39.5,211.5C 36.8333,211.5 34.1667,211.5 31.5,211.5C 33.9112,206.435 37.9112,203.101 43.5,201.5 Z"/></g>
<g><path style="opacity:1" fill="#e7c5a4" d="M 244.5,205.5 C 244.685,215.757 241.685,224.757 235.5,232.5C 235.366,230.708 235.699,229.042 236.5,227.5C 237.451,226.081 237.784,224.415 237.5,222.5C 237.827,217.786 237.493,213.12 236.5,208.5C 234.664,209.028 232.997,209.694 231.5,210.5C 184.683,211.142 138.016,211.809 91.5,212.5C 89.5544,211.965 88.5544,210.632 88.5,208.5C 133.478,209.646 178.478,209.813 223.5,209C 226.682,208.593 229.849,208.093 233,207.5C 236.628,204.587 238.462,205.587 238.5,210.5C 240.124,210.64 241.29,209.973 242,208.5C 242.988,205.576 243.654,202.576 244,199.5C 244.495,201.473 244.662,203.473 244.5,205.5 Z"/></g>
<g><path style="opacity:1" fill="#2d0d20" d="M 45.5,190.5 C 50.6509,191.327 55.9842,191.827 61.5,192C 59.5,192.333 57.5,192.667 55.5,193C 56.938,193.219 58.2713,193.719 59.5,194.5C 57.7256,195.187 56.0589,196.02 54.5,197C 106.832,197.5 159.166,197.667 211.5,197.5C 220.873,197.752 230.207,197.418 239.5,196.5C 237.22,198.223 234.553,198.889 231.5,198.5C 167.655,198.817 103.822,198.484 40,197.5C 38.0145,197.569 36.5145,198.235 35.5,199.5C 31.5535,201.066 27.5535,202.732 23.5,204.5C 23.6621,206.527 23.4955,208.527 23,210.5C 22.586,210.957 22.086,211.291 21.5,211.5C 20.5052,216.792 20.1718,222.125 20.5,227.5C 19.6909,225.708 19.1909,223.708 19,221.5C 17.1553,218.667 15.4886,215.667 14,212.5C 12.2835,215.245 11.1168,218.245 10.5,221.5C 9.21263,218.291 9.21263,215.125 10.5,212C 9.99185,208.217 8.99185,204.55 7.5,201C 8.35574,199.405 9.68907,198.572 11.5,198.5C 11.1826,201.572 11.5159,204.572 12.5,207.5C 13.3576,205.099 14.691,203.099 16.5,201.5C 19.9568,198.92 23.2901,196.086 26.5,193C 32.5722,190.823 38.9056,189.99 45.5,190.5 Z"/></g>
<g><path style="opacity:1" fill="#e2681f" d="M 35.5,199.5 C 38.1667,199.5 40.8333,199.5 43.5,199.5C 43.5,200.167 43.5,200.833 43.5,201.5C 37.9112,203.101 33.9112,206.435 31.5,211.5C 29.297,216.623 28.9637,221.956 30.5,227.5C 31.7736,231.106 34.107,233.773 37.5,235.5C 37.5,237.5 37.5,239.5 37.5,241.5C 35.6916,241.509 34.0249,241.009 32.5,240C 31.8971,237.929 30.5638,236.762 28.5,236.5C 27.391,236.443 26.391,236.11 25.5,235.5C 24.2493,232.868 23.2493,230.201 22.5,227.5C 20.4791,214.889 24.8124,205.555 35.5,199.5 Z"/></g>
<g><path style="opacity:1" fill="#fdfaf2" d="M 231.5,210.5 C 232.675,210.281 233.675,210.614 234.5,211.5C 231.191,213.857 227.524,215.357 223.5,216C 193.846,217.225 164.179,217.725 134.5,217.5C 120.488,217.033 106.488,216.366 92.5,215.5C 91.8902,214.609 91.5569,213.609 91.5,212.5C 138.016,211.809 184.683,211.142 231.5,210.5 Z"/></g>
<g><path style="opacity:1" fill="#470909" d="M 35.5,199.5 C 24.8124,205.555 20.4791,214.889 22.5,227.5C 21.8333,227.5 21.1667,227.5 20.5,227.5C 20.1718,222.125 20.5052,216.792 21.5,211.5C 22.086,211.291 22.586,210.957 23,210.5C 23.4955,208.527 23.6621,206.527 23.5,204.5C 27.5535,202.732 31.5535,201.066 35.5,199.5 Z"/></g>
<g><path style="opacity:1" fill="#4e0f0b" d="M 269.5,171.5 C 269.5,175.167 269.5,178.833 269.5,182.5C 265.918,194.912 263.418,207.578 262,220.5C 261.617,221.056 261.117,221.389 260.5,221.5C 261.47,211.813 262.637,202.147 264,192.5C 264.914,190.711 265.747,188.877 266.5,187C 267.188,181.636 268.188,176.47 269.5,171.5 Z"/></g>
<g><path style="opacity:1" fill="#fcf3d3" d="M 237.5,222.5 C 231.259,222.713 225.092,223.38 219,224.5C 216.5,224.333 214,224.167 211.5,224C 213.167,223.667 214.833,223.333 216.5,223C 213.833,222.333 213.833,221.667 216.5,221C 212.667,220.833 208.833,220.667 205,220.5C 175.461,220.869 145.461,221.536 115,222.5C 111.167,222.167 107.333,221.833 103.5,221.5C 110.476,220.935 117.476,220.769 124.5,221C 123.062,220.781 121.729,220.281 120.5,219.5C 125.317,218.833 129.983,218.166 134.5,217.5C 164.179,217.725 193.846,217.225 223.5,216C 227.524,215.357 231.191,213.857 234.5,211.5C 233.675,210.614 232.675,210.281 231.5,210.5C 232.997,209.694 234.664,209.028 236.5,208.5C 237.493,213.12 237.827,217.786 237.5,222.5 Z"/></g>
<g><path style="opacity:1" fill="#fcf4d7" d="M 92.5,216.5 C 92.5,216.167 92.5,215.833 92.5,215.5C 106.488,216.366 120.488,217.033 134.5,217.5C 129.983,218.166 125.317,218.833 120.5,219.5C 121.729,220.281 123.062,220.781 124.5,221C 117.476,220.769 110.476,220.935 103.5,221.5C 107.333,221.833 111.167,222.167 115,222.5C 145.461,221.536 175.461,220.869 205,220.5C 208.833,220.667 212.667,220.833 216.5,221C 213.833,221.667 213.833,222.333 216.5,223C 214.833,223.333 213.167,223.667 211.5,224C 214,224.167 216.5,224.333 219,224.5C 225.092,223.38 231.259,222.713 237.5,222.5C 237.784,224.415 237.451,226.081 236.5,227.5C 236.5,226.167 236.5,224.833 236.5,223.5C 233.518,223.104 230.851,223.771 228.5,225.5C 202.292,227.078 176.292,226.078 150.5,222.5C 133.923,223.978 117.257,224.978 100.5,225.5C 99.0473,228.425 98.0473,231.425 97.5,234.5C 97.5,228.5 97.5,222.5 97.5,216.5C 95.8333,216.5 94.1667,216.5 92.5,216.5 Z"/></g>
<g><path style="opacity:1" fill="#f44450" d="M 78.5,215.5 C 78.5,216.167 78.8333,216.5 79.5,216.5C 80.1301,223.287 80.4634,230.12 80.5,237C 80.4962,243.538 79.8296,249.705 78.5,255.5C 74.7368,252.829 71.0701,249.996 67.5,247C 64.7058,246.028 62.7058,246.861 61.5,249.5C 58.5807,251.076 55.914,253.076 53.5,255.5C 52.5,255.5 51.5,255.5 50.5,255.5C 50.2249,242.796 50.5582,230.13 51.5,217.5C 60.2869,215.621 69.2869,214.955 78.5,215.5 Z"/></g>
<g><path style="opacity:1" fill="#45090b" d="M 255.5,204.5 C 254.446,215.645 251.779,226.312 247.5,236.5C 246.391,236.557 245.391,236.89 244.5,237.5C 244.675,235.156 245.842,233.489 248,232.5C 249.386,224.403 251.22,216.403 253.5,208.5C 254.167,207.167 254.833,205.833 255.5,204.5 Z"/></g>
<g><path style="opacity:1" fill="#c4a789" d="M 92.5,216.5 C 94.1667,216.5 95.8333,216.5 97.5,216.5C 97.5,222.5 97.5,228.5 97.5,234.5C 139.663,235.499 181.997,235.832 224.5,235.5C 182.337,236.499 140.003,236.832 97.5,236.5C 95.8333,236.5 94.1667,236.5 92.5,236.5C 92.5,229.833 92.5,223.167 92.5,216.5 Z"/></g>
<g><path style="opacity:1" fill="#fdf9ed" d="M 236.5,227.5 C 235.699,229.042 235.366,230.708 235.5,232.5C 234.29,232.932 233.29,233.599 232.5,234.5C 229.873,235.092 227.206,235.425 224.5,235.5C 181.997,235.832 139.663,235.499 97.5,234.5C 98.0473,231.425 99.0473,228.425 100.5,225.5C 117.257,224.978 133.923,223.978 150.5,222.5C 176.292,226.078 202.292,227.078 228.5,225.5C 230.851,223.771 233.518,223.104 236.5,223.5C 236.5,224.833 236.5,226.167 236.5,227.5 Z"/></g>
<g><path style="opacity:1" fill="#c55922" d="M 259.5,192.5 C 258.277,206.984 255.11,220.984 250,234.5C 249.292,235.381 248.458,236.047 247.5,236.5C 251.779,226.312 254.446,215.645 255.5,204.5C 256.204,200.185 257.537,196.185 259.5,192.5 Z"/></g>
<g><path style="opacity:1" fill="#540f10" d="M 260.5,221.5 C 260.715,228.443 258.715,234.443 254.5,239.5C 255.383,233.025 257.383,227.025 260.5,221.5 Z"/></g>
<g><path style="opacity:1" fill="#2e1028" d="M 11.5,198.5 C 9.68907,198.572 8.35574,199.405 7.5,201C 8.99185,204.55 9.99185,208.217 10.5,212C 9.21263,215.125 9.21263,218.291 10.5,221.5C 11.1168,218.245 12.2835,215.245 14,212.5C 15.4886,215.667 17.1553,218.667 19,221.5C 19.1909,223.708 19.6909,225.708 20.5,227.5C 21.1667,227.5 21.8333,227.5 22.5,227.5C 23.2493,230.201 24.2493,232.868 25.5,235.5C 26.1842,239.534 27.5175,243.201 29.5,246.5C 34.5111,246.666 39.5111,246.499 44.5,246C 42.8122,243.175 41.9789,240.009 42,236.5C 41.5831,235.244 40.7498,234.577 39.5,234.5C 39.5,228.5 39.5,222.5 39.5,216.5C 39.5,214.833 39.5,213.167 39.5,211.5C 40.1667,211.5 40.8333,211.5 41.5,211.5C 42.9221,211.25 43.9221,210.417 44.5,209C 46.1341,208.506 47.8008,208.34 49.5,208.5C 49.33,207.178 49.6634,206.011 50.5,205C 54.1667,204.333 57.8333,204.333 61.5,205C 60.062,205.219 58.7287,205.719 57.5,206.5C 56.3595,207.425 56.3595,208.259 57.5,209C 54.9373,210.079 52.2706,210.579 49.5,210.5C 48.6512,223.147 48.3179,235.813 48.5,248.5C 47.1667,248.5 45.8333,248.5 44.5,248.5C 44.5198,250.143 43.8532,251.476 42.5,252.5C 42.6236,253.107 42.9569,253.44 43.5,253.5C 46.2583,254.967 45.925,255.633 42.5,255.5C 42.3354,258.518 42.502,261.518 43,264.5C 44.2865,261.855 46.4532,260.855 49.5,261.5C 50.5489,265.831 48.8822,267.997 44.5,268C 42.9996,271.011 42.1663,270.511 42,266.5C 41.8333,267.333 41.6667,268.167 41.5,269C 42.4923,270.923 43.659,272.756 45,274.5C 50.6639,270.789 56.4972,267.456 62.5,264.5C 57.9855,268.848 53.3188,273.015 48.5,277C 46.8333,277.667 45.1667,277.667 43.5,277C 42.6921,275.294 41.3588,274.461 39.5,274.5C 39.8885,269.372 39.3885,264.372 38,259.5C 30.0926,256.101 23.0926,251.434 17,245.5C 14.0109,241.7 12.5109,237.367 12.5,232.5C 13.2216,232.082 13.7216,231.416 14,230.5C 14.6667,231.833 15.6667,232.833 17,233.5C 17.7284,230.77 17.5617,228.103 16.5,225.5C 15.8333,224.167 15.1667,224.167 14.5,225.5C 13.9017,226.795 13.4017,228.128 13,229.5C 11.2865,228.024 9.45318,226.69 7.5,225.5C 6.99588,220.98 5.82921,216.646 4,212.5C 2.98873,211.663 1.82207,211.33 0.5,211.5C -0.0986066,205.124 1.06806,199.124 4,193.5C 6.35426,193.108 8.85426,193.108 11.5,193.5C 11.5,195.167 11.5,196.833 11.5,198.5 Z"/></g>
<g><path style="opacity:1" fill="#daa97d" d="M 39.5,216.5 C 39.5,222.5 39.5,228.5 39.5,234.5C 38.8333,234.833 38.1667,235.167 37.5,235.5C 34.107,233.773 31.7736,231.106 30.5,227.5C 33.1667,227.5 35.8333,227.5 38.5,227.5C 38.185,223.629 38.5184,219.962 39.5,216.5 Z"/></g>
<g><path style="opacity:1" fill="#fcf1d7" d="M 31.5,211.5 C 34.1667,211.5 36.8333,211.5 39.5,211.5C 39.5,213.167 39.5,214.833 39.5,216.5C 38.5184,219.962 38.185,223.629 38.5,227.5C 35.8333,227.5 33.1667,227.5 30.5,227.5C 28.9637,221.956 29.297,216.623 31.5,211.5 Z"/></g>
<g><path style="opacity:1" fill="#290e24" d="M 134.5,245.5 C 134.38,244.414 133.713,243.747 132.5,243.5C 129.194,242.837 125.861,242.337 122.5,242C 124.833,241.667 127.167,241.333 129.5,241C 119.165,241.777 108.832,241.61 98.5,240.5C 98.5674,239.041 98.2341,237.708 97.5,236.5C 140.003,236.832 182.337,236.499 224.5,235.5C 227.206,235.425 229.873,235.092 232.5,234.5C 234.288,234.785 235.955,234.452 237.5,233.5C 238.282,230.924 239.782,228.924 242,227.5C 243.206,223.55 244.206,219.55 245,215.5C 245.827,216.662 246.66,217.829 247.5,219C 244.42,222.553 243.753,226.553 245.5,231C 244.887,234.45 242.887,236.284 239.5,236.5C 239.5,237.833 239.5,239.167 239.5,240.5C 232.46,241.419 225.46,241.753 218.5,241.5C 216.809,239.744 214.809,239.244 212.5,240C 213.623,241.044 214.956,241.71 216.5,242C 213.5,242.667 210.5,242.667 207.5,242C 208.167,241.667 208.833,241.333 209.5,241C 206.247,239.344 202.913,239.177 199.5,240.5C 201.167,241.167 202.833,241.833 204.5,242.5C 203.5,242.833 202.5,243.167 201.5,243.5C 196.345,242.245 191.178,241.245 186,240.5C 182.805,241.149 179.639,241.982 176.5,243C 179.553,243.179 182.553,243.679 185.5,244.5C 168.513,245.499 151.513,245.833 134.5,245.5 Z"/></g>
<g><path style="opacity:1" fill="#310d23" d="M 255.5,159.5 C 255.665,163.182 255.499,166.848 255,170.5C 252.605,174.143 250.105,177.643 247.5,181C 248.627,182.057 249.127,183.223 249,184.5C 245.623,187.013 241.79,188.013 237.5,187.5C 237.929,192.466 240.096,193.466 244,190.5C 245.062,191.097 246.228,191.43 247.5,191.5C 249.777,190.522 252.11,189.855 254.5,189.5C 254.649,190.552 254.483,191.552 254,192.5C 250.849,194.638 248.682,197.471 247.5,201C 248.438,202.086 249.438,203.586 250.5,205.5C 252.895,204.477 253.895,205.477 253.5,208.5C 251.22,216.403 249.386,224.403 248,232.5C 245.842,233.489 244.675,235.156 244.5,237.5C 243.712,240.621 241.712,242.288 238.5,242.5C 234.36,241.715 231.027,242.881 228.5,246C 183.168,246.5 137.835,246.667 92.5,246.5C 106.323,245.504 120.323,245.171 134.5,245.5C 151.513,245.833 168.513,245.499 185.5,244.5C 182.553,243.679 179.553,243.179 176.5,243C 179.639,241.982 182.805,241.149 186,240.5C 191.178,241.245 196.345,242.245 201.5,243.5C 202.5,243.167 203.5,242.833 204.5,242.5C 202.833,241.833 201.167,241.167 199.5,240.5C 202.913,239.177 206.247,239.344 209.5,241C 208.833,241.333 208.167,241.667 207.5,242C 210.5,242.667 213.5,242.667 216.5,242C 214.956,241.71 213.623,241.044 212.5,240C 214.809,239.244 216.809,239.744 218.5,241.5C 225.46,241.753 232.46,241.419 239.5,240.5C 239.5,239.167 239.5,237.833 239.5,236.5C 242.887,236.284 244.887,234.45 245.5,231C 243.753,226.553 244.42,222.553 247.5,219C 246.66,217.829 245.827,216.662 245,215.5C 244.206,219.55 243.206,223.55 242,227.5C 239.782,228.924 238.282,230.924 237.5,233.5C 235.955,234.452 234.288,234.785 232.5,234.5C 233.29,233.599 234.29,232.932 235.5,232.5C 241.685,224.757 244.685,215.757 244.5,205.5C 245.239,202.063 246.239,198.563 247.5,195C 247.167,194.167 246.833,193.333 246.5,192.5C 244.9,195.096 242.567,196.43 239.5,196.5C 230.207,197.418 220.873,197.752 211.5,197.5C 210.048,196.698 208.382,196.198 206.5,196C 206.957,195.586 207.291,195.086 207.5,194.5C 213.764,193.88 219.93,192.88 226,191.5C 229.464,192.35 232.964,192.016 236.5,190.5C 234.955,189.548 233.288,189.215 231.5,189.5C 232.448,188.022 233.781,187.022 235.5,186.5C 237.928,185.788 240.261,184.788 242.5,183.5C 243.797,180.369 245.964,178.036 249,176.5C 249.914,174.336 251.081,172.336 252.5,170.5C 253.484,167.572 253.817,164.572 253.5,161.5C 254.167,160.833 254.833,160.167 255.5,159.5 Z"/></g>
<g><path style="opacity:1" fill="#c65b2d" d="M 39.5,234.5 C 39.5,237.5 39.5,240.5 39.5,243.5C 34.0242,243.908 30.3575,241.575 28.5,236.5C 30.5638,236.762 31.8971,237.929 32.5,240C 34.0249,241.009 35.6916,241.509 37.5,241.5C 37.5,239.5 37.5,237.5 37.5,235.5C 38.1667,235.167 38.8333,234.833 39.5,234.5 Z"/></g>
<g><path style="opacity:1" fill="#3e0e15" d="M 39.5,234.5 C 40.7498,234.577 41.5831,235.244 42,236.5C 41.9789,240.009 42.8122,243.175 44.5,246C 39.5111,246.499 34.5111,246.666 29.5,246.5C 27.5175,243.201 26.1842,239.534 25.5,235.5C 26.391,236.11 27.391,236.443 28.5,236.5C 30.3575,241.575 34.0242,243.908 39.5,243.5C 39.5,240.5 39.5,237.5 39.5,234.5 Z"/></g>
<g><path style="opacity:1" fill="#b04450" d="M 78.5,215.5 C 69.2869,214.955 60.2869,215.621 51.5,217.5C 50.5582,230.13 50.2249,242.796 50.5,255.5C 51.5,255.5 52.5,255.5 53.5,255.5C 53.2131,257.121 52.2131,258.121 50.5,258.5C 50.1667,251.833 49.8333,245.167 49.5,238.5C 49.3667,231.066 49.8667,223.733 51,216.5C 52.0674,215.809 53.2341,215.309 54.5,215C 62.6775,214.177 70.6775,214.344 78.5,215.5 Z"/></g>
<g><path style="opacity:1" fill="#460706" d="M 238.5,242.5 C 238.056,244.113 237.056,245.28 235.5,246C 231.534,246.828 227.534,247.328 223.5,247.5C 179.833,247.5 136.167,247.5 92.5,247.5C 92.5,247.167 92.5,246.833 92.5,246.5C 137.835,246.667 183.168,246.5 228.5,246C 231.027,242.881 234.36,241.715 238.5,242.5 Z"/></g>
<g><path style="opacity:1" fill="#914028" d="M 92.5,247.5 C 136.167,247.5 179.833,247.5 223.5,247.5C 179.627,248.156 136.96,248.823 95.5,249.5C 95.5,250.167 95.5,250.833 95.5,251.5C 94.5,251.5 93.5,251.5 92.5,251.5C 92.5,250.167 92.5,248.833 92.5,247.5 Z"/></g>
<g><path style="opacity:1" fill="#d16b37" d="M 247.5,236.5 C 247.719,237.675 247.386,238.675 246.5,239.5C 244.017,241.906 241.35,244.073 238.5,246C 240.167,246.667 241.833,246.667 243.5,246C 244.9,244.562 246.567,243.729 248.5,243.5C 248.586,244.496 248.252,245.329 247.5,246C 243.655,247.735 239.655,248.901 235.5,249.5C 188.833,249.5 142.167,249.5 95.5,249.5C 136.96,248.823 179.627,248.156 223.5,247.5C 227.534,247.328 231.534,246.828 235.5,246C 237.056,245.28 238.056,244.113 238.5,242.5C 241.712,242.288 243.712,240.621 244.5,237.5C 245.391,236.89 246.391,236.557 247.5,236.5 Z"/></g>
<g><path style="opacity:1" fill="#983d13" d="M 95.5,249.5 C 142.167,249.5 188.833,249.5 235.5,249.5C 189.179,251.495 142.512,252.162 95.5,251.5C 95.5,250.833 95.5,250.167 95.5,249.5 Z"/></g>
<g><path style="opacity:1" fill="#530714" d="M 78.5,255.5 C 78.5569,256.609 78.8902,257.609 79.5,258.5C 78.448,258.649 77.448,258.483 76.5,258C 75.0155,254.335 72.3488,252.502 68.5,252.5C 68.67,251.178 68.3366,250.011 67.5,249C 65.4546,248.51 63.4546,248.677 61.5,249.5C 62.7058,246.861 64.7058,246.028 67.5,247C 71.0701,249.996 74.7368,252.829 78.5,255.5 Z"/></g>
<g><path style="opacity:1" fill="#470607" d="M 254.5,239.5 C 252.704,241.617 251.038,243.95 249.5,246.5C 245.198,248.433 240.864,250.267 236.5,252C 197.501,252.5 158.501,252.667 119.5,252.5C 110.318,252.827 101.318,252.493 92.5,251.5C 93.5,251.5 94.5,251.5 95.5,251.5C 142.512,252.162 189.179,251.495 235.5,249.5C 239.655,248.901 243.655,247.735 247.5,246C 248.252,245.329 248.586,244.496 248.5,243.5C 250.228,241.774 252.228,240.441 254.5,239.5 Z"/></g>
<g><path style="opacity:1" fill="#2f0d23" d="M 269.5,182.5 C 269.198,187.699 268.531,192.866 267.5,198C 267.833,200.167 268.167,202.333 268.5,204.5C 268.833,204.333 269.167,204.167 269.5,204C 270.632,201.063 270.632,198.063 269.5,195C 269.976,191.844 270.309,192.011 270.5,195.5C 272.124,195.64 273.29,194.973 274,193.5C 274.478,198.868 274.145,204.201 273,209.5C 270.448,212.702 269.281,216.369 269.5,220.5C 268.07,220.421 266.736,220.754 265.5,221.5C 263.251,224.757 262.918,228.257 264.5,232C 261.996,236.41 260.496,241.244 260,246.5C 259.29,247.973 258.124,248.64 256.5,248.5C 255.782,252.877 253.115,255.21 248.5,255.5C 248.5,256.5 248.5,257.5 248.5,258.5C 246.833,258.5 245.167,258.5 243.5,258.5C 241.218,259.39 238.885,259.556 236.5,259C 237.337,257.989 237.67,256.822 237.5,255.5C 239.924,255.808 242.257,255.474 244.5,254.5C 241.554,253.679 238.554,253.679 235.5,254.5C 235.778,256.346 235.111,257.68 233.5,258.5C 232.614,257.675 232.281,256.675 232.5,255.5C 230.058,255.354 229.391,256.187 230.5,258C 226.129,258.172 221.796,258.672 217.5,259.5C 223.472,260.33 229.472,260.83 235.5,261C 222.767,261.624 210.1,261.124 197.5,259.5C 195.645,259.728 194.812,259.061 195,257.5C 195.414,257.957 195.914,258.291 196.5,258.5C 199.527,256.986 202.527,255.486 205.5,254C 176.736,254.384 148.069,253.884 119.5,252.5C 158.501,252.667 197.501,252.5 236.5,252C 240.864,250.267 245.198,248.433 249.5,246.5C 251.038,243.95 252.704,241.617 254.5,239.5C 258.715,234.443 260.715,228.443 260.5,221.5C 261.117,221.389 261.617,221.056 262,220.5C 263.418,207.578 265.918,194.912 269.5,182.5 Z"/></g>
<g><path style="opacity:1" fill="#2f0e26" d="M 92.5,236.5 C 94.1667,236.5 95.8333,236.5 97.5,236.5C 98.2341,237.708 98.5674,239.041 98.5,240.5C 108.832,241.61 119.165,241.777 129.5,241C 127.167,241.333 124.833,241.667 122.5,242C 125.861,242.337 129.194,242.837 132.5,243.5C 133.713,243.747 134.38,244.414 134.5,245.5C 120.323,245.171 106.323,245.504 92.5,246.5C 92.5,246.833 92.5,247.167 92.5,247.5C 92.5,248.833 92.5,250.167 92.5,251.5C 101.318,252.493 110.318,252.827 119.5,252.5C 148.069,253.884 176.736,254.384 205.5,254C 202.527,255.486 199.527,256.986 196.5,258.5C 195.914,258.291 195.414,257.957 195,257.5C 194.812,259.061 195.645,259.728 197.5,259.5C 193.808,259.705 189.975,260.038 186,260.5C 175.801,257.727 165.467,255.727 155,254.5C 151.541,255.133 148.041,255.8 144.5,256.5C 145.729,257.281 147.062,257.781 148.5,258C 144.577,258.793 140.744,258.626 137,257.5C 136.667,258.167 136.333,258.833 136,259.5C 134.991,257.975 134.491,256.308 134.5,254.5C 127.825,254.334 121.158,254.5 114.5,255C 115.833,256 117.167,257 118.5,258C 110.778,257.59 102.444,258.09 93.5,259.5C 92.8728,260.417 92.5394,261.417 92.5,262.5C 92.5,263.833 92.5,265.167 92.5,266.5C 93.8631,272.295 91.6965,275.961 86,277.5C 82.7488,275.86 79.5822,274.027 76.5,272C 73.4296,268.333 70.0962,265 66.5,262C 65.8333,261.333 65.1667,261.333 64.5,262C 63.9341,262.995 63.2674,263.828 62.5,264.5C 56.4972,267.456 50.6639,270.789 45,274.5C 43.659,272.756 42.4923,270.923 41.5,269C 41.6667,268.167 41.8333,267.333 42,266.5C 42.1663,270.511 42.9996,271.011 44.5,268C 48.8822,267.997 50.5489,265.831 49.5,261.5C 46.4532,260.855 44.2865,261.855 43,264.5C 42.502,261.518 42.3354,258.518 42.5,255.5C 45.925,255.633 46.2583,254.967 43.5,253.5C 44.8333,253.5 46.1667,253.5 47.5,253.5C 47.6703,256.491 46.337,258.491 43.5,259.5C 49.602,261.12 54.2686,259.286 57.5,254C 60.4471,253.888 61.7804,252.388 61.5,249.5C 63.4546,248.677 65.4546,248.51 67.5,249C 68.3366,250.011 68.67,251.178 68.5,252.5C 72.3488,252.502 75.0155,254.335 76.5,258C 77.448,258.483 78.448,258.649 79.5,258.5C 80.1667,258.5 80.8333,258.5 81.5,258.5C 82.5,258.5 83.5,258.5 84.5,258.5C 85.0672,243.032 84.4005,227.699 82.5,212.5C 84.6607,212.826 86.4941,213.826 88,215.5C 87.7087,220.144 87.7087,224.811 88,229.5C 88.545,232.527 90.045,234.86 92.5,236.5 Z"/></g>
<g><path style="opacity:0.999" fill="#290e24" d="M 243.5,258.5 C 242.89,259.391 242.557,260.391 242.5,261.5C 239.873,262.092 237.206,262.425 234.5,262.5C 187.167,262.5 139.833,262.5 92.5,262.5C 92.5394,261.417 92.8728,260.417 93.5,259.5C 102.444,258.09 110.778,257.59 118.5,258C 117.167,257 115.833,256 114.5,255C 121.158,254.5 127.825,254.334 134.5,254.5C 134.491,256.308 134.991,257.975 136,259.5C 136.333,258.833 136.667,258.167 137,257.5C 140.744,258.626 144.577,258.793 148.5,258C 147.062,257.781 145.729,257.281 144.5,256.5C 148.041,255.8 151.541,255.133 155,254.5C 165.467,255.727 175.801,257.727 186,260.5C 189.975,260.038 193.808,259.705 197.5,259.5C 210.1,261.124 222.767,261.624 235.5,261C 229.472,260.83 223.472,260.33 217.5,259.5C 221.796,258.672 226.129,258.172 230.5,258C 229.391,256.187 230.058,255.354 232.5,255.5C 232.281,256.675 232.614,257.675 233.5,258.5C 235.111,257.68 235.778,256.346 235.5,254.5C 238.554,253.679 241.554,253.679 244.5,254.5C 242.257,255.474 239.924,255.808 237.5,255.5C 237.67,256.822 237.337,257.989 236.5,259C 238.885,259.556 241.218,259.39 243.5,258.5 Z"/></g>
<g><path style="opacity:1" fill="#b43e4b" d="M 79.5,216.5 C 80.1174,216.611 80.6174,216.944 81,217.5C 81.4999,231.163 81.6666,244.829 81.5,258.5C 80.8333,258.5 80.1667,258.5 79.5,258.5C 78.8902,257.609 78.5569,256.609 78.5,255.5C 79.8296,249.705 80.4962,243.538 80.5,237C 80.4634,230.12 80.1301,223.287 79.5,216.5 Z"/></g>
<g><path style="opacity:0.128" fill="#4d485d" d="M 92.5,262.5 C 139.833,262.5 187.167,262.5 234.5,262.5C 187.294,263.843 139.961,265.176 92.5,266.5C 92.5,265.167 92.5,263.833 92.5,262.5 Z"/></g>
</svg>
