<?xml version="1.0" encoding="UTF-8"?>
<!DOCTYPE svg PUBLIC "-//W3C//DTD SVG 1.1//EN" "http://www.w3.org/Graphics/SVG/1.1/DTD/svg11.dtd">
<svg xmlns="http://www.w3.org/2000/svg" version="1.1" width="300px" height="300px" style="shape-rendering:geometricPrecision; text-rendering:geometricPrecision; image-rendering:optimizeQuality; fill-rule:evenodd; clip-rule:evenodd" xmlns:xlink="http://www.w3.org/1999/xlink">
<g><path style="opacity:1" fill="#421315" d="M 285.5,24.5 C 285.833,24.5 286.167,24.5 286.5,24.5C 288.592,28.2075 289.426,32.2075 289,36.5C 287.951,35.4829 286.784,35.3162 285.5,36C 286.833,36.6667 286.833,37.3333 285.5,38C 287.129,38.5855 288.629,39.4188 290,40.5C 290.873,40.2645 291.707,39.9312 292.5,39.5C 293.896,41.9716 294.73,44.6383 295,47.5C 296.417,48.0779 297.25,49.0779 297.5,50.5C 297.243,56.6317 296.243,62.6317 294.5,68.5C 292.632,68.9461 290.799,69.2795 289,69.5C 287.736,75.3587 285.903,81.0254 283.5,86.5C 282.009,87.2436 280.509,87.9103 279,88.5C 278.46,90.1346 278.96,91.4679 280.5,92.5C 279.169,93.1662 277.669,93.1662 276,92.5C 274.123,93.2529 272.289,94.0862 270.5,95C 273.028,96.3159 273.028,97.4826 270.5,98.5C 268.548,96.467 266.382,96.1337 264,97.5C 262.188,95.6997 260.355,94.0331 258.5,92.5C 262.131,93.412 265.797,93.5787 269.5,93C 270.056,92.6174 270.389,92.1174 270.5,91.5C 275.581,88.9969 279.581,85.3302 282.5,80.5C 284.74,76.9017 286.074,72.9017 286.5,68.5C 287.164,66.1903 287.497,63.6903 287.5,61C 287.696,57.1952 287.03,53.6952 285.5,50.5C 285.598,48.4471 284.931,46.7804 283.5,45.5C 283.068,44.2905 282.401,43.2905 281.5,42.5C 279.445,35.7273 275.112,31.0606 268.5,28.5C 264.631,27.2037 260.631,27.2037 256.5,28.5C 256.167,27.8333 255.833,27.1667 255.5,26.5C 257.672,23.9836 258.672,20.9836 258.5,17.5C 264.013,17.6633 269.346,17.83 274.5,18C 277.448,19.0095 278.114,20.8429 276.5,23.5C 279.488,23.6299 282.488,23.9632 285.5,24.5 Z"/></g>
<g><path style="opacity:1" fill="#4b2222" d="M 285.5,24.5 C 282.488,23.9632 279.488,23.6299 276.5,23.5C 278.114,20.8429 277.448,19.0095 274.5,18C 269.346,17.83 264.013,17.6633 258.5,17.5C 258.672,20.9836 257.672,23.9836 255.5,26.5C 255.833,27.1667 256.167,27.8333 256.5,28.5C 260.631,27.2037 264.631,27.2037 268.5,28.5C 260.926,27.7993 254.593,30.1326 249.5,35.5C 249.423,31.7852 249.756,28.1185 250.5,24.5C 251.552,24.6495 252.552,24.4828 253.5,24C 250.276,22.8437 246.943,22.0103 243.5,21.5C 180.929,21.8312 118.429,21.4978 56,20.5C 55.6886,21.7425 56.1886,22.7425 57.5,23.5C 60.6779,24.1854 63.6779,25.1854 66.5,26.5C 65.8592,27.4822 65.1925,28.4822 64.5,29.5C 66.7662,30.3142 69.0995,30.8142 71.5,31C 86.0059,31.1688 100.339,31.6688 114.5,32.5C 98.4861,32.1672 82.4861,32.5006 66.5,33.5C 69.0866,41.2804 70.0866,49.2804 69.5,57.5C 69.5,58.8333 69.5,60.1667 69.5,61.5C 68.9987,59.754 68.3321,58.754 67.5,58.5C 66.5041,58.5858 65.6708,58.2524 65,57.5C 64.6667,55.5 64.3333,53.5 64,51.5C 61.6369,56.4337 59.8035,61.4337 58.5,66.5C 58.6664,57.4938 58.4998,48.4938 58,39.5C 57.3292,38.7476 56.4959,38.4142 55.5,38.5C 53.6807,26.3457 46.6807,21.0124 34.5,22.5C 36.9928,24.5803 39.6595,26.4136 42.5,28C 43.7577,29.7409 44.7577,31.5742 45.5,33.5C 45.5,52.1667 45.5,70.8333 45.5,89.5C 44.6805,86.6946 44.1805,83.6946 44,80.5C 43.6667,80.8333 43.3333,81.1667 43,81.5C 42.1799,79.272 42.5132,77.272 44,75.5C 44.6667,68.1667 44.6667,60.8333 44,53.5C 41.8061,56.5544 40.1395,59.8878 39,63.5C 38.6667,63.1667 38.3333,62.8333 38,62.5C 37.8138,65.0356 37.3138,67.369 36.5,69.5C 36.8214,63.9738 36.4881,58.6405 35.5,53.5C 31.6856,52.9807 29.6856,54.6473 29.5,58.5C 28.8529,59.2739 28.5195,60.2739 28.5,61.5C 28.8864,63.9322 29.5531,66.2655 30.5,68.5C 28.5831,67.0907 26.7498,65.424 25,63.5C 24.6667,64.8333 24.3333,66.1667 24,67.5C 22.5179,62.6074 21.6846,57.6074 21.5,52.5C 21.5,51.8333 21.5,51.1667 21.5,50.5C 25.8517,46.6457 30.8517,43.8124 36.5,42C 37.0219,41.4387 37.3552,40.772 37.5,40C 38.3985,33.3424 35.5652,30.1757 29,30.5C 27.0145,30.5687 25.5145,31.2353 24.5,32.5C 14.0745,40.8782 10.4079,51.5448 13.5,64.5C 13.3054,68.9152 13.8054,73.2486 15,77.5C 17.2715,81.7243 19.7715,85.7243 22.5,89.5C 22.5,89.8333 22.5,90.1667 22.5,90.5C 20.8561,90.2865 19.3561,90.6198 18,91.5C 18.266,88.0992 16.766,86.4326 13.5,86.5C 13.5,87.5 13.5,88.5 13.5,89.5C 8.95144,89.0677 8.45144,87.4011 12,84.5C 13.1505,82.2462 13.4838,79.9129 13,77.5C 12.0922,79.4386 10.5922,80.4386 8.5,80.5C 8.29245,78.0799 8.62578,75.7466 9.5,73.5C 7.53093,71.579 6.03093,71.579 5,73.5C 4.63581,79.2028 5.13581,84.5362 6.5,89.5C 3.7311,85.3987 1.39777,81.0653 -0.5,76.5C -0.5,67.1667 -0.5,57.8333 -0.5,48.5C 4.21432,31.6196 14.881,20.4529 31.5,15C 40.4173,13.4724 48.7506,14.8057 56.5,19C 120.167,19.6667 183.833,19.6667 247.5,19C 257.626,13.4755 267.959,13.1422 278.5,18C 281.659,19.327 283.992,21.4936 285.5,24.5 Z"/></g>
<g><path style="opacity:1" fill="#f1d091" d="M 55.5,38.5 C 55.5,39.1667 55.5,39.8333 55.5,40.5C 51.4259,42.4755 48.4259,41.4755 46.5,37.5C 46.7678,35.901 46.4345,34.5676 45.5,33.5C 44.7577,31.5742 43.7577,29.7409 42.5,28C 39.6595,26.4136 36.9928,24.5803 34.5,22.5C 46.6807,21.0124 53.6807,26.3457 55.5,38.5 Z"/></g>
<g><path style="opacity:0.992" fill="#3c1017" d="M 243.5,21.5 C 243.389,22.1174 243.056,22.6174 242.5,23C 237.573,23.3878 232.906,24.5544 228.5,26.5C 224.279,24.184 219.945,24.184 215.5,26.5C 213.239,23.9062 211.072,23.9062 209,26.5C 205.422,23.8566 201.922,23.5232 198.5,25.5C 190.382,25.371 182.549,25.371 175,25.5C 171.178,24.7929 167.345,24.1262 163.5,23.5C 152.138,26.0641 140.971,26.0641 130,23.5C 127.849,23.7725 125.849,24.4392 124,25.5C 109.228,24.9046 94.0618,24.5712 78.5,24.5C 74.3477,24.4132 70.3477,25.0799 66.5,26.5C 63.6779,25.1854 60.6779,24.1854 57.5,23.5C 56.1886,22.7425 55.6886,21.7425 56,20.5C 118.429,21.4978 180.929,21.8312 243.5,21.5 Z"/></g>
<g><path style="opacity:1" fill="#441617" d="M 243.5,21.5 C 246.943,22.0103 250.276,22.8437 253.5,24C 252.552,24.4828 251.552,24.6495 250.5,24.5C 249.756,28.1185 249.423,31.7852 249.5,35.5C 246.197,39.1128 244.197,43.4461 243.5,48.5C 241.654,58.4342 242.654,68.1009 246.5,77.5C 247.766,80.7549 249.432,83.7549 251.5,86.5C 252.167,87.5 252.833,88.5 253.5,89.5C 249.088,87.5822 246.254,84.2488 245,79.5C 244.667,79.8333 244.333,80.1667 244,80.5C 244.16,76.1848 242.994,72.3514 240.5,69C 240.586,64.3472 240.753,59.5138 241,54.5C 240.667,53.8333 240.333,53.1667 240,52.5C 238.506,53.7472 237.006,53.7472 235.5,52.5C 236.435,49.9405 235.601,49.2738 233,50.5C 232.703,60.1998 233.203,69.8665 234.5,79.5C 233.833,78.8333 233.167,78.1667 232.5,77.5C 232.376,72.9515 231.709,68.6181 230.5,64.5C 230.5,63.1667 230.5,61.8333 230.5,60.5C 230.177,54.3638 230.844,48.3638 232.5,42.5C 233.434,41.4324 233.768,40.099 233.5,38.5C 235.539,37.089 236.539,35.089 236.5,32.5C 228.493,32.3336 220.493,32.5003 212.5,33C 208.613,35.3849 205.613,38.5516 203.5,42.5C 202.513,39.2317 202.18,35.8984 202.5,32.5C 173.167,32.5 143.833,32.5 114.5,32.5C 100.339,31.6688 86.0059,31.1688 71.5,31C 69.0995,30.8142 66.7662,30.3142 64.5,29.5C 65.1925,28.4822 65.8592,27.4822 66.5,26.5C 70.3477,25.0799 74.3477,24.4132 78.5,24.5C 94.0618,24.5712 109.228,24.9046 124,25.5C 125.849,24.4392 127.849,23.7725 130,23.5C 140.971,26.0641 152.138,26.0641 163.5,23.5C 167.345,24.1262 171.178,24.7929 175,25.5C 182.549,25.371 190.382,25.371 198.5,25.5C 201.922,23.5232 205.422,23.8566 209,26.5C 211.072,23.9062 213.239,23.9062 215.5,26.5C 219.945,24.184 224.279,24.184 228.5,26.5C 232.906,24.5544 237.573,23.3878 242.5,23C 243.056,22.6174 243.389,22.1174 243.5,21.5 Z"/></g>
<g><path style="opacity:1" fill="#f4d491" d="M 268.5,28.5 C 275.112,31.0606 279.445,35.7273 281.5,42.5C 279.186,40.0118 276.519,38.0118 273.5,36.5C 271.257,35.5258 268.924,35.1924 266.5,35.5C 266.615,41.1771 263.948,43.3438 258.5,42C 256.287,37.5157 253.787,37.3491 251,41.5C 250.03,43.2738 249.196,45.1072 248.5,47C 250.013,48.8792 250.679,51.0459 250.5,53.5C 249.167,53.5 247.833,53.5 246.5,53.5C 246.5,55.8333 246.5,58.1667 246.5,60.5C 246.167,60.5 245.833,60.5 245.5,60.5C 243.577,56.9707 242.911,52.9707 243.5,48.5C 244.197,43.4461 246.197,39.1128 249.5,35.5C 254.593,30.1326 260.926,27.7993 268.5,28.5 Z"/></g>
<g><path style="opacity:1" fill="#eecd8d" d="M 33.5,32.5 C 22.5029,38.525 16.1695,47.8583 14.5,60.5C 14.5,61.1667 14.5,61.8333 14.5,62.5C 13.6618,62.8417 13.3284,63.5084 13.5,64.5C 10.4079,51.5448 14.0745,40.8782 24.5,32.5C 27.5558,31.4116 30.5558,31.4116 33.5,32.5 Z"/></g>
<g><path style="opacity:1" fill="#f9d997" d="M 114.5,32.5 C 143.833,32.5 173.167,32.5 202.5,32.5C 202.18,35.8984 202.513,39.2317 203.5,42.5C 205.613,38.5516 208.613,35.3849 212.5,33C 220.493,32.5003 228.493,32.3336 236.5,32.5C 236.539,35.089 235.539,37.089 233.5,38.5C 227.158,38.3338 220.825,38.5005 214.5,39C 212.622,42.7688 210.622,46.4355 208.5,50C 193.833,50.6667 179.167,50.6667 164.5,50C 163.707,46.5894 163.207,43.0894 163,39.5C 159.198,38.1939 155.365,38.1939 151.5,39.5C 150.8,43.041 150.133,46.541 149.5,50C 145.5,50.6667 141.5,50.6667 137.5,50C 136.833,46.3333 136.167,42.6667 135.5,39C 125.166,36.1665 121.166,39.9999 123.5,50.5C 112.828,50.6665 102.161,50.4998 91.5,50C 89.987,47.5459 90.6537,45.8793 93.5,45C 91.8034,44.6155 90.1368,44.7822 88.5,45.5C 89.9899,43.7202 91.9899,43.0535 94.5,43.5C 99.0363,44.802 103.703,44.802 108.5,43.5C 112.687,45.0653 117.02,45.7319 121.5,45.5C 121.992,40.9941 119.992,38.6608 115.5,38.5C 101.206,38.5126 86.8725,38.6793 72.5,39C 71.8514,45.2659 71.1847,51.4326 70.5,57.5C 70.1667,57.5 69.8333,57.5 69.5,57.5C 70.0866,49.2804 69.0866,41.2804 66.5,33.5C 82.4861,32.5006 98.4861,32.1672 114.5,32.5 Z"/></g>
<g><path style="opacity:1" fill="#4c2727" d="M 286.5,24.5 C 287.794,25.2899 288.961,26.2899 290,27.5C 293.735,33.6376 296.902,39.9709 299.5,46.5C 299.5,47.8333 299.5,49.1667 299.5,50.5C 298.833,50.5 298.167,50.5 297.5,50.5C 297.25,49.0779 296.417,48.0779 295,47.5C 294.73,44.6383 293.896,41.9716 292.5,39.5C 291.707,39.9312 290.873,40.2645 290,40.5C 288.629,39.4188 287.129,38.5855 285.5,38C 286.833,37.3333 286.833,36.6667 285.5,36C 286.784,35.3162 287.951,35.4829 289,36.5C 289.426,32.2075 288.592,28.2075 286.5,24.5 Z"/></g>
<g><path style="opacity:1" fill="#ecae3f" d="M 33.5,32.5 C 35.0265,33.4919 35.6932,34.9919 35.5,37C 35.1667,38.1667 34.8333,39.3333 34.5,40.5C 28.3981,41.6985 24.0648,45.0318 21.5,50.5C 18.8193,53.1918 17.4859,56.5252 17.5,60.5C 16.5,60.5 15.5,60.5 14.5,60.5C 16.1695,47.8583 22.5029,38.525 33.5,32.5 Z"/></g>
<g><path style="opacity:1" fill="#edbd5e" d="M 46.5,37.5 C 48.4259,41.4755 51.4259,42.4755 55.5,40.5C 55.3284,41.4916 55.6618,42.1583 56.5,42.5C 56.5,45.1667 56.5,47.8333 56.5,50.5C 55.8333,50.8333 55.1667,51.1667 54.5,51.5C 54.5,50.1667 54.5,48.8333 54.5,47.5C 49.5,46.5 47.5,48.5 48.5,53.5C 47.5318,55.6074 47.1984,57.9407 47.5,60.5C 47.1667,60.5 46.8333,60.5 46.5,60.5C 46.5,52.8333 46.5,45.1667 46.5,37.5 Z"/></g>
<g><path style="opacity:1" fill="#50200f" d="M 21.5,50.5 C 24.0648,45.0318 28.3981,41.6985 34.5,40.5C 34.8333,39.3333 35.1667,38.1667 35.5,37C 35.6932,34.9919 35.0265,33.4919 33.5,32.5C 30.5558,31.4116 27.5558,31.4116 24.5,32.5C 25.5145,31.2353 27.0145,30.5687 29,30.5C 35.5652,30.1757 38.3985,33.3424 37.5,40C 37.3552,40.772 37.0219,41.4387 36.5,42C 30.8517,43.8124 25.8517,46.6457 21.5,50.5 Z"/></g>
<g><path style="opacity:1" fill="#fae2ad" d="M 94.5,43.5 C 97.5184,43.6646 100.518,43.498 103.5,43C 104.337,41.9887 104.67,40.8221 104.5,39.5C 94.5,39.5 84.5,39.5 74.5,39.5C 74.6657,43.8461 74.499,48.1794 74,52.5C 73.5068,55.6747 72.3402,58.3414 70.5,60.5C 70.5,59.5 70.5,58.5 70.5,57.5C 71.1847,51.4326 71.8514,45.2659 72.5,39C 86.8725,38.6793 101.206,38.5126 115.5,38.5C 119.992,38.6608 121.992,40.9941 121.5,45.5C 117.02,45.7319 112.687,45.0653 108.5,43.5C 103.703,44.802 99.0363,44.802 94.5,43.5 Z"/></g>
<g><path style="opacity:1" fill="#f6b438" d="M 281.5,42.5 C 282.401,43.2905 283.068,44.2905 283.5,45.5C 283.851,47.8695 284.018,50.2028 284,52.5C 283.667,52.8333 283.333,53.1667 283,53.5C 282.092,51.5614 280.592,50.5614 278.5,50.5C 278.657,51.8734 278.49,53.2068 278,54.5C 275.602,55.8563 273.102,57.0229 270.5,58C 269.619,58.7083 268.953,59.5416 268.5,60.5C 267.5,60.5 266.5,60.5 265.5,60.5C 265.5,60.1667 265.5,59.8333 265.5,59.5C 267.947,56.1013 271.28,53.9346 275.5,53C 278.446,49.4504 277.779,46.7837 273.5,45C 270.581,44.5674 267.914,45.0674 265.5,46.5C 258.973,48.8747 255.306,53.5414 254.5,60.5C 254.167,60.5 253.833,60.5 253.5,60.5C 251.167,60.5 248.833,60.5 246.5,60.5C 246.5,58.1667 246.5,55.8333 246.5,53.5C 247.833,53.5 249.167,53.5 250.5,53.5C 250.679,51.0459 250.013,48.8792 248.5,47C 249.196,45.1072 250.03,43.2738 251,41.5C 253.787,37.3491 256.287,37.5157 258.5,42C 263.948,43.3438 266.615,41.1771 266.5,35.5C 268.924,35.1924 271.257,35.5258 273.5,36.5C 276.519,38.0118 279.186,40.0118 281.5,42.5 Z"/></g>
<g><path style="opacity:1" fill="#fcda93" d="M 54.5,51.5 C 53.1974,54.3787 51.1974,55.0454 48.5,53.5C 47.5,48.5 49.5,46.5 54.5,47.5C 54.5,48.8333 54.5,50.1667 54.5,51.5 Z"/></g>
<g><path style="opacity:1" fill="#fcdd97" d="M 94.5,43.5 C 91.9899,43.0535 89.9899,43.7202 88.5,45.5C 87.8663,48.916 89.1996,50.916 92.5,51.5C 103.14,52.0214 113.807,52.0214 124.5,51.5C 124.564,47.7802 125.064,44.1135 126,40.5C 128.719,39.5562 131.552,39.2229 134.5,39.5C 134.234,43.5705 134.567,47.5705 135.5,51.5C 140.5,52.8333 145.5,52.8333 150.5,51.5C 152.164,48.103 152.997,44.4363 153,40.5C 155.667,39.1667 158.333,39.1667 161,40.5C 161.207,44.0894 161.707,47.5894 162.5,51C 171.839,52.0073 181.173,52.8407 190.5,53.5C 194.967,52.7357 199.467,52.0691 204,51.5C 206.931,52.6431 209.765,52.3098 212.5,50.5C 213.886,46.8289 215.553,43.3289 217.5,40C 222.489,39.5007 227.489,39.3341 232.5,39.5C 232.5,40.5 232.5,41.5 232.5,42.5C 230.844,48.3638 230.177,54.3638 230.5,60.5C 229.069,62.437 227.402,64.2703 225.5,66C 175.501,66.5 125.501,66.6667 75.5,66.5C 73.8437,64.5398 72.177,62.5398 70.5,60.5C 72.3402,58.3414 73.5068,55.6747 74,52.5C 74.499,48.1794 74.6657,43.8461 74.5,39.5C 84.5,39.5 94.5,39.5 104.5,39.5C 104.67,40.8221 104.337,41.9887 103.5,43C 100.518,43.498 97.5184,43.6646 94.5,43.5 Z"/></g>
<g><path style="opacity:1" fill="#f7dfa6" d="M 233.5,38.5 C 233.768,40.099 233.434,41.4324 232.5,42.5C 232.5,41.5 232.5,40.5 232.5,39.5C 227.489,39.3341 222.489,39.5007 217.5,40C 215.553,43.3289 213.886,46.8289 212.5,50.5C 209.765,52.3098 206.931,52.6431 204,51.5C 199.467,52.0691 194.967,52.7357 190.5,53.5C 181.173,52.8407 171.839,52.0073 162.5,51C 161.707,47.5894 161.207,44.0894 161,40.5C 158.333,39.1667 155.667,39.1667 153,40.5C 152.997,44.4363 152.164,48.103 150.5,51.5C 145.5,52.8333 140.5,52.8333 135.5,51.5C 134.567,47.5705 134.234,43.5705 134.5,39.5C 131.552,39.2229 128.719,39.5562 126,40.5C 125.064,44.1135 124.564,47.7802 124.5,51.5C 113.807,52.0214 103.14,52.0214 92.5,51.5C 89.1996,50.916 87.8663,48.916 88.5,45.5C 90.1368,44.7822 91.8034,44.6155 93.5,45C 90.6537,45.8793 89.987,47.5459 91.5,50C 102.161,50.4998 112.828,50.6665 123.5,50.5C 121.166,39.9999 125.166,36.1665 135.5,39C 136.167,42.6667 136.833,46.3333 137.5,50C 141.5,50.6667 145.5,50.6667 149.5,50C 150.133,46.541 150.8,43.041 151.5,39.5C 155.365,38.1939 159.198,38.1939 163,39.5C 163.207,43.0894 163.707,46.5894 164.5,50C 179.167,50.6667 193.833,50.6667 208.5,50C 210.622,46.4355 212.622,42.7688 214.5,39C 220.825,38.5005 227.158,38.3338 233.5,38.5 Z"/></g>
<g><path style="opacity:1" fill="#58200b" d="M 55.5,38.5 C 56.4959,38.4142 57.3292,38.7476 58,39.5C 58.4998,48.4938 58.6664,57.4938 58.5,66.5C 58.7847,69.8291 58.1181,72.8291 56.5,75.5C 57.6967,64.3454 57.6967,53.3454 56.5,42.5C 55.6618,42.1583 55.3284,41.4916 55.5,40.5C 55.5,39.8333 55.5,39.1667 55.5,38.5 Z"/></g>
<g><path style="opacity:1" fill="#faa929" d="M 283.5,45.5 C 284.931,46.7804 285.598,48.4471 285.5,50.5C 286.051,53.8067 286.384,57.1401 286.5,60.5C 286.167,60.5 285.833,60.5 285.5,60.5C 279.833,60.5 274.167,60.5 268.5,60.5C 268.953,59.5416 269.619,58.7083 270.5,58C 273.102,57.0229 275.602,55.8563 278,54.5C 278.49,53.2068 278.657,51.8734 278.5,50.5C 280.592,50.5614 282.092,51.5614 283,53.5C 283.333,53.1667 283.667,52.8333 284,52.5C 284.018,50.2028 283.851,47.8695 283.5,45.5 Z"/></g>
<g><path style="opacity:1" fill="#f6ac37" d="M 56.5,50.5 C 56.5,53.8333 56.5,57.1667 56.5,60.5C 53.5,59.1667 50.5,59.1667 47.5,60.5C 47.1984,57.9407 47.5318,55.6074 48.5,53.5C 51.1974,55.0454 53.1974,54.3787 54.5,51.5C 55.1667,51.1667 55.8333,50.8333 56.5,50.5 Z"/></g>
<g><path style="opacity:1" fill="#3f1111" d="M 265.5,46.5 C 268.518,46.3354 271.518,46.502 274.5,47C 275.38,48.3561 275.714,49.8561 275.5,51.5C 264.782,52.9082 261.115,58.9082 264.5,69.5C 267.109,70.2305 269.776,70.7305 272.5,71C 273.591,73.0639 273.758,75.2305 273,77.5C 269.2,78.7295 265.367,78.7295 261.5,77.5C 255.848,73.3836 253.515,67.7169 254.5,60.5C 255.306,53.5414 258.973,48.8747 265.5,46.5 Z"/></g>
<g><path style="opacity:1" fill="#50140d" d="M 21.5,50.5 C 21.5,51.1667 21.5,51.8333 21.5,52.5C 20.3683,59.012 20.3683,65.6787 21.5,72.5C 17.9205,69.4103 16.5872,65.4103 17.5,60.5C 17.4859,56.5252 18.8193,53.1918 21.5,50.5 Z"/></g>
<g><path style="opacity:1" fill="#682511" d="M 45.5,33.5 C 46.4345,34.5676 46.7678,35.901 46.5,37.5C 46.5,45.1667 46.5,52.8333 46.5,60.5C 45.859,70.8893 46.5257,80.8893 48.5,90.5C 48.1788,92.0481 47.1788,92.7148 45.5,92.5C 45.5,91.5 45.5,90.5 45.5,89.5C 45.5,70.8333 45.5,52.1667 45.5,33.5 Z"/></g>
<g><path style="opacity:1" fill="#56150a" d="M 265.5,59.5 C 262.629,67.2138 265.296,70.5471 273.5,69.5C 277.501,76.8694 275.167,80.536 266.5,80.5C 264.308,80.2427 262.641,79.2427 261.5,77.5C 265.367,78.7295 269.2,78.7295 273,77.5C 273.758,75.2305 273.591,73.0639 272.5,71C 269.776,70.7305 267.109,70.2305 264.5,69.5C 261.115,58.9082 264.782,52.9082 275.5,51.5C 275.714,49.8561 275.38,48.3561 274.5,47C 271.518,46.502 268.518,46.3354 265.5,46.5C 267.914,45.0674 270.581,44.5674 273.5,45C 277.779,46.7837 278.446,49.4504 275.5,53C 271.28,53.9346 267.947,56.1013 265.5,59.5 Z"/></g>
<g><path style="opacity:1" fill="#a96a40" d="M 243.5,48.5 C 242.911,52.9707 243.577,56.9707 245.5,60.5C 245.375,66.2031 245.708,71.8698 246.5,77.5C 242.654,68.1009 241.654,58.4342 243.5,48.5 Z"/></g>
<g><path style="opacity:1" fill="#9e3b14" d="M 56.5,42.5 C 57.6967,53.3454 57.6967,64.3454 56.5,75.5C 55.5346,80.0976 53.5346,84.0976 50.5,87.5C 52.1834,80.7662 53.8501,74.0996 55.5,67.5C 56.3686,65.283 56.702,62.9496 56.5,60.5C 56.5,57.1667 56.5,53.8333 56.5,50.5C 56.5,47.8333 56.5,45.1667 56.5,42.5 Z"/></g>
<g><path style="opacity:0.376" fill="#533a3a" d="M 299.5,52.5 C 299.5,61.1667 299.5,69.8333 299.5,78.5C 299.167,78.5 298.833,78.5 298.5,78.5C 298.196,77.8501 297.863,77.1835 297.5,76.5C 298.138,68.3709 298.805,60.3709 299.5,52.5 Z"/></g>
<g><path style="opacity:1" fill="#ba390c" d="M 14.5,60.5 C 15.5,60.5 16.5,60.5 17.5,60.5C 16.5872,65.4103 17.9205,69.4103 21.5,72.5C 24.3763,77.7593 28.7097,80.7593 34.5,81.5C 34.5,83.1667 34.5,84.8333 34.5,86.5C 19.8938,85.3491 13.2271,77.3491 14.5,62.5C 14.5,61.8333 14.5,61.1667 14.5,60.5 Z"/></g>
<g><path style="opacity:1" fill="#c85920" d="M 14.5,62.5 C 13.2271,77.3491 19.8938,85.3491 34.5,86.5C 34.5,89.1667 34.5,91.8333 34.5,94.5C 30.7085,92.4548 26.7085,90.7881 22.5,89.5C 19.7715,85.7243 17.2715,81.7243 15,77.5C 13.8054,73.2486 13.3054,68.9152 13.5,64.5C 13.3284,63.5084 13.6618,62.8417 14.5,62.5 Z"/></g>
<g><path style="opacity:1" fill="#330d10" d="M 253.5,89.5 C 255.368,90.2632 257.035,91.2632 258.5,92.5C 260.355,94.0331 262.188,95.6997 264,97.5C 266.382,96.1337 268.548,96.467 270.5,98.5C 273.028,97.4826 273.028,96.3159 270.5,95C 272.289,94.0862 274.123,93.2529 276,92.5C 277.669,93.1662 279.169,93.1662 280.5,92.5C 278.96,91.4679 278.46,90.1346 279,88.5C 280.509,87.9103 282.009,87.2436 283.5,86.5C 285.903,81.0254 287.736,75.3587 289,69.5C 290.799,69.2795 292.632,68.9461 294.5,68.5C 296.243,62.6317 297.243,56.6317 297.5,50.5C 298.167,50.5 298.833,50.5 299.5,50.5C 299.5,51.1667 299.5,51.8333 299.5,52.5C 298.805,60.3709 298.138,68.3709 297.5,76.5C 297.863,77.1835 298.196,77.8501 298.5,78.5C 296.858,85.4515 293.858,91.7848 289.5,97.5C 286.65,99.4271 283.983,101.594 281.5,104C 277.979,105.674 274.313,106.84 270.5,107.5C 266.154,107.666 261.821,107.499 257.5,107C 254.274,104.933 250.94,103.1 247.5,101.5C 246.914,101.709 246.414,102.043 246,102.5C 245.501,107.823 245.334,113.156 245.5,118.5C 244.718,115.286 243.885,111.952 243,108.5C 241.989,109.337 240.822,109.67 239.5,109.5C 240.331,114.145 239.164,115.145 236,112.5C 236.114,107.394 235.28,102.727 233.5,98.5C 178.833,98.5 124.167,98.5 69.5,98.5C 69.5,103.833 69.5,109.167 69.5,114.5C 68.5,114.5 67.5,114.5 66.5,114.5C 65.5924,112.109 65.4257,109.776 66,107.5C 62.5491,109.17 60.0491,108.17 58.5,104.5C 57.3333,104.167 56.1667,103.833 55,103.5C 51.5506,104.47 48.0506,105.304 44.5,106C 44.8333,106.333 45.1667,106.667 45.5,107C 44.244,107.417 43.5774,108.25 43.5,109.5C 38.7626,110.49 34.096,110.157 29.5,108.5C 29.5858,107.504 29.2524,106.671 28.5,106C 25.4055,105.286 22.4055,104.286 19.5,103C 19.0572,98.7771 16.7238,96.9437 12.5,97.5C 12.0012,94.7361 10.3345,93.0695 7.5,92.5C 7.44312,91.391 7.10978,90.391 6.5,89.5C 5.13581,84.5362 4.63581,79.2028 5,73.5C 6.03093,71.579 7.53093,71.579 9.5,73.5C 8.62578,75.7466 8.29245,78.0799 8.5,80.5C 10.5922,80.4386 12.0922,79.4386 13,77.5C 13.4838,79.9129 13.1505,82.2462 12,84.5C 8.45144,87.4011 8.95144,89.0677 13.5,89.5C 13.5,88.5 13.5,87.5 13.5,86.5C 16.766,86.4326 18.266,88.0992 18,91.5C 19.3561,90.6198 20.8561,90.2865 22.5,90.5C 25.4068,91.5288 28.0735,93.0288 30.5,95C 32.1341,95.4935 33.8008,95.6602 35.5,95.5C 35.8195,90.6367 35.4861,85.97 34.5,81.5C 28.7097,80.7593 24.3763,77.7593 21.5,72.5C 20.3683,65.6787 20.3683,59.012 21.5,52.5C 21.6846,57.6074 22.5179,62.6074 24,67.5C 24.3333,66.1667 24.6667,64.8333 25,63.5C 26.7498,65.424 28.5831,67.0907 30.5,68.5C 32.2646,69.4614 34.2646,69.7947 36.5,69.5C 37.3138,67.369 37.8138,65.0356 38,62.5C 38.3333,62.8333 38.6667,63.1667 39,63.5C 40.1395,59.8878 41.8061,56.5544 44,53.5C 44.6667,60.8333 44.6667,68.1667 44,75.5C 42.5132,77.272 42.1799,79.272 43,81.5C 43.3333,81.1667 43.6667,80.8333 44,80.5C 44.1805,83.6946 44.6805,86.6946 45.5,89.5C 45.5,90.5 45.5,91.5 45.5,92.5C 47.1788,92.7148 48.1788,92.0481 48.5,90.5C 49.1667,90.5 49.5,90.1667 49.5,89.5C 49.8333,88.8333 50.1667,88.1667 50.5,87.5C 53.5346,84.0976 55.5346,80.0976 56.5,75.5C 58.1181,72.8291 58.7847,69.8291 58.5,66.5C 59.8035,61.4337 61.6369,56.4337 64,51.5C 64.3333,53.5 64.6667,55.5 65,57.5C 65.6708,58.2524 66.5041,58.5858 67.5,58.5C 67.5849,67.8935 66.9182,77.2269 65.5,86.5C 66.8734,86.6567 68.2068,86.49 69.5,86C 70.1189,84.2429 71.2856,83.0762 73,82.5C 74.8204,83.6039 76.3204,85.1039 77.5,87C 111.5,87.6667 145.5,87.6667 179.5,87C 180.406,85.3005 180.739,83.4672 180.5,81.5C 185.294,80.6269 187.627,82.6269 187.5,87.5C 203.675,87.8297 219.675,87.4964 235.5,86.5C 235.784,84.5853 235.451,82.9187 234.5,81.5C 234.5,80.8333 234.5,80.1667 234.5,79.5C 233.203,69.8665 232.703,60.1998 233,50.5C 235.601,49.2738 236.435,49.9405 235.5,52.5C 237.006,53.7472 238.506,53.7472 240,52.5C 240.333,53.1667 240.667,53.8333 241,54.5C 240.753,59.5138 240.586,64.3472 240.5,69C 242.994,72.3514 244.16,76.1848 244,80.5C 244.333,80.1667 244.667,79.8333 245,79.5C 246.254,84.2488 249.088,87.5822 253.5,89.5 Z"/></g>
<g><path style="opacity:1" fill="#a94c2a" d="M 34.5,81.5 C 35.4861,85.97 35.8195,90.6367 35.5,95.5C 33.8008,95.6602 32.1341,95.4935 30.5,95C 28.0735,93.0288 25.4068,91.5288 22.5,90.5C 22.5,90.1667 22.5,89.8333 22.5,89.5C 26.7085,90.7881 30.7085,92.4548 34.5,94.5C 34.5,91.8333 34.5,89.1667 34.5,86.5C 34.5,84.8333 34.5,83.1667 34.5,81.5 Z"/></g>
<g><path style="opacity:1" fill="#9e411c" d="M 251.5,86.5 C 254.673,87.5532 257.673,89.0532 260.5,91C 263.817,91.4983 267.15,91.665 270.5,91.5C 270.389,92.1174 270.056,92.6174 269.5,93C 265.797,93.5787 262.131,93.412 258.5,92.5C 257.035,91.2632 255.368,90.2632 253.5,89.5C 252.833,88.5 252.167,87.5 251.5,86.5 Z"/></g>
<g><path style="opacity:1" fill="#4e130e" d="M 69.5,61.5 C 69.7342,69.1629 68.7342,76.6629 66.5,84C 66.8333,84.5 67.1667,85 67.5,85.5C 70.6703,79.264 74.3369,78.9307 78.5,84.5C 111.996,85.4983 145.663,85.8316 179.5,85.5C 179.5,84.5 179.5,83.5 179.5,82.5C 179.414,81.5041 179.748,80.6708 180.5,80C 182.545,79.5099 184.545,79.6765 186.5,80.5C 187.263,82.3684 188.263,84.0351 189.5,85.5C 204.658,86.4962 219.991,86.8295 235.5,86.5C 219.675,87.4964 203.675,87.8297 187.5,87.5C 187.627,82.6269 185.294,80.6269 180.5,81.5C 180.739,83.4672 180.406,85.3005 179.5,87C 145.5,87.6667 111.5,87.6667 77.5,87C 76.3204,85.1039 74.8204,83.6039 73,82.5C 71.2856,83.0762 70.1189,84.2429 69.5,86C 68.2068,86.49 66.8734,86.6567 65.5,86.5C 66.9182,77.2269 67.5849,67.8935 67.5,58.5C 68.3321,58.754 68.9987,59.754 69.5,61.5 Z"/></g>
<g><path style="opacity:1" fill="#7d3522" d="M 234.5,81.5 C 235.451,82.9187 235.784,84.5853 235.5,86.5C 219.991,86.8295 204.658,86.4962 189.5,85.5C 204.5,85.5 219.5,85.5 234.5,85.5C 234.5,84.1667 234.5,82.8333 234.5,81.5 Z"/></g>
<g><path style="opacity:1" fill="#c06d4a" d="M 232.5,77.5 C 233.167,78.1667 233.833,78.8333 234.5,79.5C 234.5,80.1667 234.5,80.8333 234.5,81.5C 234.5,82.8333 234.5,84.1667 234.5,85.5C 219.5,85.5 204.5,85.5 189.5,85.5C 188.263,84.0351 187.263,82.3684 186.5,80.5C 188.134,81.2066 189.468,82.3732 190.5,84C 204.496,84.4999 218.496,84.6666 232.5,84.5C 232.5,82.5 232.5,80.5 232.5,78.5C 232.5,78.1667 232.5,77.8333 232.5,77.5 Z"/></g>
<g><path style="opacity:1" fill="#be6c4a" d="M 179.5,82.5 C 179.5,83.5 179.5,84.5 179.5,85.5C 145.663,85.8316 111.996,85.4983 78.5,84.5C 112.389,85.1489 146.056,84.4822 179.5,82.5 Z"/></g>
<g><path style="opacity:1" fill="#d47945" d="M 69.5,57.5 C 69.8333,57.5 70.1667,57.5 70.5,57.5C 70.5,58.5 70.5,59.5 70.5,60.5C 72.177,62.5398 73.8437,64.5398 75.5,66.5C 75.5,66.8333 75.5,67.1667 75.5,67.5C 73.9557,67.2969 72.6223,66.6302 71.5,65.5C 70.513,68.7683 70.1796,72.1016 70.5,75.5C 72.9428,77.0688 75.6095,78.5688 78.5,80C 79.1667,81 79.8333,82 80.5,83C 95.8333,83.1667 111.167,83.3333 126.5,83.5C 142.319,83.4848 157.985,82.8181 173.5,81.5C 174.524,82.8532 175.857,83.5198 177.5,83.5C 177.253,81.1417 177.919,79.1417 179.5,77.5C 181.167,77.5 182.833,77.5 184.5,77.5C 187.007,77.6322 187.674,78.6322 186.5,80.5C 184.545,79.6765 182.545,79.5099 180.5,80C 179.748,80.6708 179.414,81.5041 179.5,82.5C 146.056,84.4822 112.389,85.1489 78.5,84.5C 74.3369,78.9307 70.6703,79.264 67.5,85.5C 67.1667,85 66.8333,84.5 66.5,84C 68.7342,76.6629 69.7342,69.1629 69.5,61.5C 69.5,60.1667 69.5,58.8333 69.5,57.5 Z"/></g>
<g><path style="opacity:1" fill="#c54d10" d="M 245.5,60.5 C 245.833,60.5 246.167,60.5 246.5,60.5C 248.833,60.5 251.167,60.5 253.5,60.5C 253.662,62.5273 253.495,64.5273 253,66.5C 251.341,67.8168 250.174,69.4835 249.5,71.5C 251.935,74.595 253.935,77.9283 255.5,81.5C 266.065,87.8907 274.732,85.8907 281.5,75.5C 282.452,77.0453 282.785,78.712 282.5,80.5C 279.581,85.3302 275.581,88.9969 270.5,91.5C 267.15,91.665 263.817,91.4983 260.5,91C 257.673,89.0532 254.673,87.5532 251.5,86.5C 249.432,83.7549 247.766,80.7549 246.5,77.5C 245.708,71.8698 245.375,66.2031 245.5,60.5 Z"/></g>
<g><path style="opacity:1" fill="#de7e40" d="M 184.5,77.5 C 185.849,76.2035 187.182,76.3702 188.5,78C 203.163,78.4999 217.83,78.6666 232.5,78.5C 232.5,80.5 232.5,82.5 232.5,84.5C 218.496,84.6666 204.496,84.4999 190.5,84C 189.468,82.3732 188.134,81.2066 186.5,80.5C 187.674,78.6322 187.007,77.6322 184.5,77.5 Z"/></g>
<g><path style="opacity:1" fill="#de7d3f" d="M 179.5,77.5 C 177.919,79.1417 177.253,81.1417 177.5,83.5C 175.857,83.5198 174.524,82.8532 173.5,81.5C 157.985,82.8181 142.319,83.4848 126.5,83.5C 111.167,83.3333 95.8333,83.1667 80.5,83C 79.8333,82 79.1667,81 78.5,80C 75.6095,78.5688 72.9428,77.0688 70.5,75.5C 74.8798,73.4746 78.5465,74.3079 81.5,78C 114.183,78.7896 146.849,78.6229 179.5,77.5 Z"/></g>
<g><path style="opacity:1" fill="#bd3107" d="M 47.5,66.5 C 49.8151,68.7974 52.4818,69.1307 55.5,67.5C 53.8501,74.0996 52.1834,80.7662 50.5,87.5C 50.1667,88.1667 49.8333,88.8333 49.5,89.5C 47.5349,82.2395 46.8682,74.5729 47.5,66.5 Z"/></g>
<g><path style="opacity:1" fill="#ba340a" d="M 253.5,60.5 C 253.833,60.5 254.167,60.5 254.5,60.5C 253.515,67.7169 255.848,73.3836 261.5,77.5C 262.641,79.2427 264.308,80.2427 266.5,80.5C 275.167,80.536 277.501,76.8694 273.5,69.5C 271.5,68.8333 269.5,68.1667 267.5,67.5C 271.859,67.1128 276.025,67.7795 280,69.5C 281.766,68.7665 283.599,68.4332 285.5,68.5C 285.5,65.8333 285.5,63.1667 285.5,60.5C 285.833,60.5 286.167,60.5 286.5,60.5C 286.5,63.1667 286.5,65.8333 286.5,68.5C 286.074,72.9017 284.74,76.9017 282.5,80.5C 282.785,78.712 282.452,77.0453 281.5,75.5C 274.732,85.8907 266.065,87.8907 255.5,81.5C 253.935,77.9283 251.935,74.595 249.5,71.5C 250.174,69.4835 251.341,67.8168 253,66.5C 253.495,64.5273 253.662,62.5273 253.5,60.5 Z"/></g>
<g><path style="opacity:1" fill="#d8692c" d="M 230.5,64.5 C 231.709,68.6181 232.376,72.9515 232.5,77.5C 232.5,77.8333 232.5,78.1667 232.5,78.5C 217.83,78.6666 203.163,78.4999 188.5,78C 187.182,76.3702 185.849,76.2035 184.5,77.5C 182.833,77.5 181.167,77.5 179.5,77.5C 146.849,78.6229 114.183,78.7896 81.5,78C 78.5465,74.3079 74.8798,73.4746 70.5,75.5C 70.1796,72.1016 70.513,68.7683 71.5,65.5C 72.6223,66.6302 73.9557,67.2969 75.5,67.5C 125.805,68.6529 176.138,68.8195 226.5,68C 228.319,67.2597 229.652,66.0931 230.5,64.5 Z"/></g>
<g><path style="opacity:1" fill="#9e371a" d="M 46.5,60.5 C 46.8333,60.5 47.1667,60.5 47.5,60.5C 47.5,62.5 47.5,64.5 47.5,66.5C 46.8682,74.5729 47.5349,82.2395 49.5,89.5C 49.5,90.1667 49.1667,90.5 48.5,90.5C 46.5257,80.8893 45.859,70.8893 46.5,60.5 Z"/></g>
<g><path style="opacity:1" fill="#882c17" d="M 265.5,59.5 C 265.5,59.8333 265.5,60.1667 265.5,60.5C 264.99,63.3878 265.656,65.7211 267.5,67.5C 269.5,68.1667 271.5,68.8333 273.5,69.5C 265.296,70.5471 262.629,67.2138 265.5,59.5 Z"/></g>
<g><path style="opacity:1" fill="#db8f4b" d="M 230.5,60.5 C 230.5,61.8333 230.5,63.1667 230.5,64.5C 229.652,66.0931 228.319,67.2597 226.5,68C 176.138,68.8195 125.805,68.6529 75.5,67.5C 75.5,67.1667 75.5,66.8333 75.5,66.5C 125.501,66.6667 175.501,66.5 225.5,66C 227.402,64.2703 229.069,62.437 230.5,60.5 Z"/></g>
<g><path style="opacity:1" fill="#bb4519" d="M 29.5,58.5 C 29.5,59.5 29.5,60.5 29.5,61.5C 31.6208,61.6747 33.6208,61.3414 35.5,60.5C 35.5,63.1667 35.5,65.8333 35.5,68.5C 33.8333,68.5 32.1667,68.5 30.5,68.5C 29.5531,66.2655 28.8864,63.9322 28.5,61.5C 28.5195,60.2739 28.8529,59.2739 29.5,58.5 Z"/></g>
<g><path style="opacity:1" fill="#ce4b06" d="M 265.5,60.5 C 266.5,60.5 267.5,60.5 268.5,60.5C 274.167,60.5 279.833,60.5 285.5,60.5C 285.5,63.1667 285.5,65.8333 285.5,68.5C 283.599,68.4332 281.766,68.7665 280,69.5C 276.025,67.7795 271.859,67.1128 267.5,67.5C 265.656,65.7211 264.99,63.3878 265.5,60.5 Z"/></g>
<g><path style="opacity:1" fill="#da590b" d="M 56.5,60.5 C 56.702,62.9496 56.3686,65.283 55.5,67.5C 52.4818,69.1307 49.8151,68.7974 47.5,66.5C 47.5,64.5 47.5,62.5 47.5,60.5C 50.5,59.1667 53.5,59.1667 56.5,60.5 Z"/></g>
<g><path style="opacity:1" fill="#742612" d="M 35.5,53.5 C 36.4881,58.6405 36.8214,63.9738 36.5,69.5C 34.2646,69.7947 32.2646,69.4614 30.5,68.5C 32.1667,68.5 33.8333,68.5 35.5,68.5C 35.5,65.8333 35.5,63.1667 35.5,60.5C 35.5,58.1667 35.5,55.8333 35.5,53.5 Z"/></g>
<g><path style="opacity:1" fill="#e2954a" d="M 108.5,56.5 C 110.199,56.3398 111.866,56.5065 113.5,57C 114.925,58.7141 114.592,60.0475 112.5,61C 108.077,62.0814 106.744,60.5814 108.5,56.5 Z"/></g>
<g><path style="opacity:1" fill="#e29548" d="M 188.5,56.5 C 190.199,56.3398 191.866,56.5065 193.5,57C 194.517,58.0495 194.684,59.2161 194,60.5C 189.085,62.6791 187.251,61.3457 188.5,56.5 Z"/></g>
<g><path style="opacity:1" fill="#df9d4f" d="M 212.5,55.5 C 216.692,55.4028 218.025,57.2361 216.5,61C 210.546,62.2271 209.212,60.3938 212.5,55.5 Z"/></g>
<g><path style="opacity:1" fill="#df8c2a" d="M 35.5,53.5 C 35.5,55.8333 35.5,58.1667 35.5,60.5C 33.6208,61.3414 31.6208,61.6747 29.5,61.5C 29.5,60.5 29.5,59.5 29.5,58.5C 29.6856,54.6473 31.6856,52.9807 35.5,53.5 Z"/></g>
<g><path style="opacity:1" fill="#7d3712" d="M 285.5,50.5 C 287.03,53.6952 287.696,57.1952 287.5,61C 287.497,63.6903 287.164,66.1903 286.5,68.5C 286.5,65.8333 286.5,63.1667 286.5,60.5C 286.384,57.1401 286.051,53.8067 285.5,50.5 Z"/></g>
<g><path style="opacity:1" fill="#412829" d="M 7.5,92.5 C 10.3345,93.0695 12.0012,94.7361 12.5,97.5C 16.7238,96.9437 19.0572,98.7771 19.5,103C 22.4055,104.286 25.4055,105.286 28.5,106C 29.2524,106.671 29.5858,107.504 29.5,108.5C 20.1741,105.832 12.8408,100.498 7.5,92.5 Z"/></g>
<g><path style="opacity:1" fill="#ab5332" d="M 233.5,98.5 C 233.828,109.014 233.494,119.347 232.5,129.5C 232.827,120.318 232.493,111.318 231.5,102.5C 231.5,102.167 231.5,101.833 231.5,101.5C 205.175,100.167 178.508,99.5002 151.5,99.5C 124.492,99.5002 97.8249,100.167 71.5,101.5C 70.5166,105.298 70.1832,109.298 70.5,113.5C 70.5,114.167 70.1667,114.5 69.5,114.5C 69.5,109.167 69.5,103.833 69.5,98.5C 124.167,98.5 178.833,98.5 233.5,98.5 Z"/></g>
<g><path style="opacity:1" fill="#cb5b2c" d="M 231.5,101.5 C 178.086,101.254 124.752,101.254 71.5,101.5C 97.8249,100.167 124.492,99.5002 151.5,99.5C 178.508,99.5002 205.175,100.167 231.5,101.5 Z"/></g>
<g><path style="opacity:1" fill="#d96d2d" d="M 231.5,101.5 C 231.5,101.833 231.5,102.167 231.5,102.5C 231.813,105.247 231.48,107.914 230.5,110.5C 229.281,109.737 228.281,108.737 227.5,107.5C 175.512,108.175 123.512,108.842 71.5,109.5C 71.5,106.833 71.5,104.167 71.5,101.5C 124.752,101.254 178.086,101.254 231.5,101.5 Z"/></g>
<g><path style="opacity:1" fill="#f6d594" d="M 227.5,128.5 C 226.833,127.833 226.167,127.167 225.5,126.5C 225.5,121.5 225.5,116.5 225.5,111.5C 192.832,111.333 160.165,111.5 127.5,112C 126.4,113.023 125.067,113.523 123.5,113.5C 116.209,113.625 108.875,113.625 101.5,113.5C 98.8546,114.108 96.1879,114.608 93.5,115C 102.186,115.168 110.852,115.668 119.5,116.5C 121.052,118.935 120.719,120.935 118.5,122.5C 118.5,121.167 118.5,119.833 118.5,118.5C 113.881,117.172 108.881,116.506 103.5,116.5C 98.3218,116.501 93.3218,116.834 88.5,117.5C 87.1201,117.962 86.4534,118.962 86.5,120.5C 86.9024,122.3 87.5691,123.967 88.5,125.5C 87.5,125.5 86.5,125.5 85.5,125.5C 85.762,124.022 85.4287,122.689 84.5,121.5C 83.6043,122.506 82.9377,122.506 82.5,121.5C 84.799,119.303 84.799,116.969 82.5,114.5C 81.5,115.167 80.5,115.833 79.5,116.5C 78.3961,115.369 78.7295,114.535 80.5,114C 79.0953,112.731 77.4286,112.231 75.5,112.5C 74.5111,117.975 74.1778,123.642 74.5,129.5C 81.5208,129.524 83.8542,132.857 81.5,139.5C 78.8216,140.555 76.3216,141.888 74,143.5C 73.5,163.831 73.3334,184.164 73.5,204.5C 72.1667,204.5 70.8333,204.5 69.5,204.5C 69.1693,182.327 69.5026,160.327 70.5,138.5C 72.9201,138.708 75.2534,138.374 77.5,137.5C 78.8092,135.76 78.4759,134.427 76.5,133.5C 74.3926,132.532 72.0593,132.198 69.5,132.5C 69.5,126.5 69.5,120.5 69.5,114.5C 70.1667,114.5 70.5,114.167 70.5,113.5C 71.6266,112.878 72.6266,112.045 73.5,111C 124.832,110.5 176.166,110.333 227.5,110.5C 227.5,116.5 227.5,122.5 227.5,128.5 Z"/></g>
<g><path style="opacity:1" fill="#fbde9d" d="M 225.5,126.5 C 224.198,127.926 222.698,129.259 221,130.5C 220.828,134.871 220.328,139.204 219.5,143.5C 217.281,141.685 216.614,139.519 217.5,137C 216.231,134.916 215.231,132.749 214.5,130.5C 215.552,130.649 216.552,130.483 217.5,130C 216.234,129.691 215.067,129.191 214,128.5C 209.518,127.503 204.852,127.503 200,128.5C 199.5,128 199,127.5 198.5,127C 195.5,126.833 192.5,126.667 189.5,126.5C 182.922,127.282 176.422,127.282 170,126.5C 165.61,128.934 161.11,129.101 156.5,127C 157.056,126.617 157.389,126.117 157.5,125.5C 176.17,125.667 194.836,125.5 213.5,125C 216.859,122.966 217.192,120.632 214.5,118C 194.836,117.5 175.169,117.333 155.5,117.5C 154.503,116.287 153.503,116.454 152.5,118C 153.576,119.726 153.743,121.559 153,123.5C 152.02,122.019 150.853,120.685 149.5,119.5C 148.786,122.027 148.12,124.527 147.5,127C 142.653,127.38 137.82,127.88 133,128.5C 130.003,128.333 127.337,127.333 125,125.5C 123.739,125.759 122.739,126.426 122,127.5C 121.667,127.167 121.333,126.833 121,126.5C 120.312,127.332 120.479,127.998 121.5,128.5C 122.833,129.167 124.167,129.833 125.5,130.5C 128.742,131.458 132.242,131.458 136,130.5C 137.947,131.11 139.781,131.943 141.5,133C 136.775,135.715 131.775,136.215 126.5,134.5C 126.607,139.21 126.774,143.877 127,148.5C 126.465,150.271 125.631,150.604 124.5,149.5C 123.652,147.591 123.318,145.591 123.5,143.5C 123.657,142.127 123.49,140.793 123,139.5C 122.333,138.167 121.667,138.167 121,139.5C 120.849,136.44 119.515,134.107 117,132.5C 116.316,131.216 116.483,130.049 117.5,129C 115.392,128.64 113.392,127.973 111.5,127C 104.345,127.215 97.3453,127.715 90.5,128.5C 88.3066,128.674 86.4733,128.007 85,126.5C 84.8191,128.674 85.6524,130.507 87.5,132C 86.6667,132.833 85.8333,133.667 85,134.5C 83.8846,129.355 80.7179,127.355 75.5,128.5C 75.5,123.167 75.5,117.833 75.5,112.5C 77.4286,112.231 79.0953,112.731 80.5,114C 78.7295,114.535 78.3961,115.369 79.5,116.5C 80.5,115.833 81.5,115.167 82.5,114.5C 84.799,116.969 84.799,119.303 82.5,121.5C 82.9377,122.506 83.6043,122.506 84.5,121.5C 85.4287,122.689 85.762,124.022 85.5,125.5C 86.5,125.5 87.5,125.5 88.5,125.5C 97.8393,125.666 107.173,125.5 116.5,125C 117.381,124.292 118.047,123.458 118.5,122.5C 120.719,120.935 121.052,118.935 119.5,116.5C 110.852,115.668 102.186,115.168 93.5,115C 96.1879,114.608 98.8546,114.108 101.5,113.5C 108.875,113.625 116.209,113.625 123.5,113.5C 125.067,113.523 126.4,113.023 127.5,112C 160.165,111.5 192.832,111.333 225.5,111.5C 225.5,116.5 225.5,121.5 225.5,126.5 Z"/></g>
<g><path style="opacity:1" fill="#da8341" d="M 71.5,101.5 C 71.5,104.167 71.5,106.833 71.5,109.5C 123.512,108.842 175.512,108.175 227.5,107.5C 228.281,108.737 229.281,109.737 230.5,110.5C 231.48,107.914 231.813,105.247 231.5,102.5C 232.493,111.318 232.827,120.318 232.5,129.5C 230.833,129.5 229.167,129.5 227.5,129.5C 227.5,129.167 227.5,128.833 227.5,128.5C 227.5,122.5 227.5,116.5 227.5,110.5C 176.166,110.333 124.832,110.5 73.5,111C 72.6266,112.045 71.6266,112.878 70.5,113.5C 70.1832,109.298 70.5166,105.298 71.5,101.5 Z"/></g>
<g><path style="opacity:1" fill="#e5ae73" d="M 88.5,117.5 C 93.3218,116.834 98.3218,116.501 103.5,116.5C 108.881,116.506 113.881,117.172 118.5,118.5C 118.167,118.5 117.833,118.5 117.5,118.5C 108.014,117.506 98.3478,117.173 88.5,117.5 Z"/></g>
<g><path style="opacity:1" fill="#3d1518" d="M 69.5,114.5 C 69.5,120.5 69.5,126.5 69.5,132.5C 72.0593,132.198 74.3926,132.532 76.5,133.5C 76.4606,134.583 76.1272,135.583 75.5,136.5C 73.7086,137.17 72.0419,137.837 70.5,138.5C 69.5026,160.327 69.1693,182.327 69.5,204.5C 67.203,206.117 64.8696,207.783 62.5,209.5C 61.1482,208.476 59.8149,207.476 58.5,206.5C 58.7845,204.585 58.4511,202.919 57.5,201.5C 57.8316,169.329 57.4982,137.329 56.5,105.5C 52.5805,108.028 48.2472,109.361 43.5,109.5C 43.5774,108.25 44.244,107.417 45.5,107C 45.1667,106.667 44.8333,106.333 44.5,106C 48.0506,105.304 51.5506,104.47 55,103.5C 56.1667,103.833 57.3333,104.167 58.5,104.5C 60.0491,108.17 62.5491,109.17 66,107.5C 65.4257,109.776 65.5924,112.109 66.5,114.5C 67.5,114.5 68.5,114.5 69.5,114.5 Z"/></g>
<g><path style="opacity:1" fill="#b8440d" d="M 145.5,123.5 C 140.228,124.4 134.895,124.733 129.5,124.5C 128.883,124.389 128.383,124.056 128,123.5C 127.505,121.527 127.338,119.527 127.5,117.5C 133.176,117.334 138.843,117.501 144.5,118C 145.406,119.699 145.739,121.533 145.5,123.5 Z"/></g>
<g><path style="opacity:1" fill="#b8571e" d="M 155.5,117.5 C 175.169,117.333 194.836,117.5 214.5,118C 217.192,120.632 216.859,122.966 213.5,125C 194.836,125.5 176.17,125.667 157.5,125.5C 154.64,123.394 153.974,120.728 155.5,117.5 Z"/></g>
<g><path style="opacity:1" fill="#bc3d09" d="M 156.5,118.5 C 175.503,118.333 194.503,118.5 213.5,119C 214.337,120.011 214.67,121.178 214.5,122.5C 195.167,122.5 175.833,122.5 156.5,122.5C 156.5,121.167 156.5,119.833 156.5,118.5 Z"/></g>
<g><path style="opacity:1" fill="#b85f24" d="M 88.5,117.5 C 98.3478,117.173 108.014,117.506 117.5,118.5C 117.833,118.5 118.167,118.5 118.5,118.5C 118.5,119.833 118.5,121.167 118.5,122.5C 118.047,123.458 117.381,124.292 116.5,125C 107.173,125.5 97.8393,125.666 88.5,125.5C 87.5691,123.967 86.9024,122.3 86.5,120.5C 86.4534,118.962 87.1201,117.962 88.5,117.5 Z"/></g>
<g><path style="opacity:1" fill="#bb3e08" d="M 117.5,118.5 C 117.5,119.833 117.5,121.167 117.5,122.5C 108.194,123.554 98.8606,123.721 89.5,123C 88.6198,121.644 88.2865,120.144 88.5,118.5C 98.1667,118.5 107.833,118.5 117.5,118.5 Z"/></g>
<g><path style="opacity:1" fill="#d8975d" d="M 145.5,123.5 C 145.389,124.117 145.056,124.617 144.5,125C 139.316,125.816 134.316,125.65 129.5,124.5C 134.895,124.733 140.228,124.4 145.5,123.5 Z"/></g>
<g><path style="opacity:1" fill="#fbe0a4" d="M 155.5,117.5 C 153.974,120.728 154.64,123.394 157.5,125.5C 157.389,126.117 157.056,126.617 156.5,127C 161.11,129.101 165.61,128.934 170,126.5C 176.422,127.282 182.922,127.282 189.5,126.5C 192.5,126.667 195.5,126.833 198.5,127C 199,127.5 199.5,128 200,128.5C 204.852,127.503 209.518,127.503 214,128.5C 215.067,129.191 216.234,129.691 217.5,130C 216.552,130.483 215.552,130.649 214.5,130.5C 215.231,132.749 216.231,134.916 217.5,137C 216.614,139.519 217.281,141.685 219.5,143.5C 220.328,139.204 220.828,134.871 221,130.5C 222.698,129.259 224.198,127.926 225.5,126.5C 226.167,127.167 226.833,127.833 227.5,128.5C 227.5,128.833 227.5,129.167 227.5,129.5C 223.513,129.652 222.013,131.652 223,135.5C 223.816,136.823 224.983,137.489 226.5,137.5C 225.514,155.757 225.18,174.09 225.5,192.5C 222.677,193.217 220.01,194.217 217.5,195.5C 217.737,194.209 217.404,193.209 216.5,192.5C 216.5,191.5 216.5,190.5 216.5,189.5C 205.538,188.568 194.538,188.235 183.5,188.5C 182.086,186.946 180.419,185.612 178.5,184.5C 180.139,183.678 181.805,183.011 183.5,182.5C 193.839,182.666 204.172,182.5 214.5,182C 217.086,179.506 217.086,177.006 214.5,174.5C 207.679,173.671 200.679,173.171 193.5,173C 194.5,172.667 195.5,172.333 196.5,172C 195.888,170.697 195.554,169.53 195.5,168.5C 191.896,171.676 188.23,172.009 184.5,169.5C 191.793,170.245 193.793,167.578 190.5,161.5C 187.486,158.635 183.986,157.968 180,159.5C 180.988,157.08 180.655,154.747 179,152.5C 177.383,153.536 177.216,154.703 178.5,156C 176.74,158.483 174.573,158.983 172,157.5C 171.421,161.386 170.588,161.386 169.5,157.5C 171.422,156.04 172.089,154.373 171.5,152.5C 170.575,151.438 169.575,151.438 168.5,152.5C 168.482,148.393 167.815,144.393 166.5,140.5C 164.999,139.248 163.332,138.248 161.5,137.5C 160.081,138.005 159.415,139.005 159.5,140.5C 157.547,143.141 156.047,146.141 155,149.5C 151.329,152.396 148.329,151.729 146,147.5C 146.108,144.363 144.941,142.03 142.5,140.5C 139.672,137.942 136.839,138.276 134,141.5C 133.333,145.167 133.333,148.833 134,152.5C 134.197,154.861 135.364,156.528 137.5,157.5C 137,157.833 136.5,158.167 136,158.5C 133.232,156.958 130.898,154.958 129,152.5C 128.311,153.357 127.478,154.023 126.5,154.5C 124.87,153.102 123.036,152.102 121,151.5C 120.333,149.167 120.333,146.833 121,144.5C 121.333,145.167 121.667,145.833 122,146.5C 122.232,145.263 122.732,144.263 123.5,143.5C 123.318,145.591 123.652,147.591 124.5,149.5C 125.631,150.604 126.465,150.271 127,148.5C 126.774,143.877 126.607,139.21 126.5,134.5C 131.775,136.215 136.775,135.715 141.5,133C 139.781,131.943 137.947,131.11 136,130.5C 132.242,131.458 128.742,131.458 125.5,130.5C 124.167,129.833 122.833,129.167 121.5,128.5C 120.479,127.998 120.312,127.332 121,126.5C 121.333,126.833 121.667,127.167 122,127.5C 122.739,126.426 123.739,125.759 125,125.5C 127.337,127.333 130.003,128.333 133,128.5C 137.82,127.88 142.653,127.38 147.5,127C 148.12,124.527 148.786,122.027 149.5,119.5C 150.853,120.685 152.02,122.019 153,123.5C 153.743,121.559 153.576,119.726 152.5,118C 153.503,116.454 154.503,116.287 155.5,117.5 Z"/></g>
<g><path style="opacity:0.898" fill="#452223" d="M 264.5,129.5 C 269.653,128.326 272.653,130.326 273.5,135.5C 271.213,140.797 267.713,141.797 263,138.5C 262.068,135.177 262.568,132.177 264.5,129.5 Z"/></g>
<g><path style="opacity:1" fill="#462425" d="M 31.5,129.5 C 39.0224,129.67 41.0224,133.003 37.5,139.5C 35.2534,140.374 32.9201,140.708 30.5,140.5C 28.8782,136.624 29.2115,132.957 31.5,129.5 Z"/></g>
<g><path style="opacity:1" fill="#60412f" d="M 207.5,136.5 C 206.022,137.448 205.022,138.781 204.5,140.5C 204.671,135.506 202.338,133.672 197.5,135C 195.02,140.438 196.687,142.938 202.5,142.5C 200.44,143.811 198.274,143.811 196,142.5C 195.502,139.518 195.335,136.518 195.5,133.5C 193.784,133.629 192.117,133.962 190.5,134.5C 190.611,133.883 190.944,133.383 191.5,133C 195.167,132.333 198.833,132.333 202.5,133C 204.59,133.669 206.257,134.836 207.5,136.5 Z"/></g>
<g><path style="opacity:1" fill="#f2d292" d="M 204.5,140.5 C 203.833,141.167 203.167,141.833 202.5,142.5C 196.687,142.938 195.02,140.438 197.5,135C 202.338,133.672 204.671,135.506 204.5,140.5 Z"/></g>
<g><path style="opacity:1" fill="#725740" d="M 76.5,133.5 C 78.4759,134.427 78.8092,135.76 77.5,137.5C 75.2534,138.374 72.9201,138.708 70.5,138.5C 72.0419,137.837 73.7086,137.17 75.5,136.5C 76.1272,135.583 76.4606,134.583 76.5,133.5 Z"/></g>
<g><path style="opacity:1" fill="#391313" d="M 202.5,142.5 C 203.167,141.833 203.833,141.167 204.5,140.5C 205.022,138.781 206.022,137.448 207.5,136.5C 212.981,141.735 213.815,147.735 210,154.5C 201.621,162.492 193.288,162.492 185,154.5C 183.455,149.953 183.121,145.287 184,140.5C 185.385,137.614 187.551,135.614 190.5,134.5C 192.117,133.962 193.784,133.629 195.5,133.5C 195.335,136.518 195.502,139.518 196,142.5C 198.274,143.811 200.44,143.811 202.5,142.5 Z"/></g>
<g><path style="opacity:1" fill="#4e1308" d="M 233.5,137.5 C 234.216,149.181 234.883,161.015 235.5,173C 235.355,174.226 235.022,175.393 234.5,176.5C 232.604,177.466 230.604,177.799 228.5,177.5C 229.641,176.661 230.974,175.994 232.5,175.5C 233.499,162.851 233.832,150.184 233.5,137.5 Z"/></g>
<g><path style="opacity:1" fill="#e48648" d="M 227.5,137.5 C 229.167,137.5 230.833,137.5 232.5,137.5C 232.5,149.833 232.5,162.167 232.5,174.5C 230.833,174.5 229.167,174.5 227.5,174.5C 227.5,162.167 227.5,149.833 227.5,137.5 Z"/></g>
<g><path style="opacity:0.062" fill="#361818" d="M 37.5,149.5 C 42.7668,150.562 42.7668,151.562 37.5,152.5C 37.5,151.5 37.5,150.5 37.5,149.5 Z"/></g>
<g><path style="opacity:0.312" fill="#4a2e2e" d="M 270.5,107.5 C 262.421,109.357 254.588,108.357 247,104.5C 246.333,136.5 246.333,168.5 247,200.5C 249.47,198.562 252.304,197.396 255.5,197C 261.87,196.294 268.203,196.461 274.5,197.5C 275.3,199.741 276.966,200.741 279.5,200.5C 281.833,200.833 283.167,202.167 283.5,204.5C 279.809,203.053 275.809,201.22 271.5,199C 263.093,197.302 255.427,198.802 248.5,203.5C 247.416,203.315 246.416,202.982 245.5,202.5C 245.5,174.5 245.5,146.5 245.5,118.5C 245.334,113.156 245.501,107.823 246,102.5C 246.414,102.043 246.914,101.709 247.5,101.5C 250.94,103.1 254.274,104.933 257.5,107C 261.821,107.499 266.154,107.666 270.5,107.5 Z"/></g>
<g><path style="opacity:1" fill="#fbdea4" d="M 75.5,112.5 C 75.5,117.833 75.5,123.167 75.5,128.5C 80.7179,127.355 83.8846,129.355 85,134.5C 85.8333,133.667 86.6667,132.833 87.5,132C 85.6524,130.507 84.8191,128.674 85,126.5C 86.4733,128.007 88.3066,128.674 90.5,128.5C 97.3453,127.715 104.345,127.215 111.5,127C 113.392,127.973 115.392,128.64 117.5,129C 116.483,130.049 116.316,131.216 117,132.5C 119.515,134.107 120.849,136.44 121,139.5C 121.667,138.167 122.333,138.167 123,139.5C 123.49,140.793 123.657,142.127 123.5,143.5C 122.732,144.263 122.232,145.263 122,146.5C 121.667,145.833 121.333,145.167 121,144.5C 120.333,146.833 120.333,149.167 121,151.5C 123.036,152.102 124.87,153.102 126.5,154.5C 127.478,154.023 128.311,153.357 129,152.5C 130.898,154.958 133.232,156.958 136,158.5C 136.5,158.167 137,157.833 137.5,157.5C 135.364,156.528 134.197,154.861 134,152.5C 133.333,148.833 133.333,145.167 134,141.5C 136.839,138.276 139.672,137.942 142.5,140.5C 137.475,139.695 135.142,141.861 135.5,147C 136.526,152.219 139.192,156.385 143.5,159.5C 145.634,161.033 148.134,161.7 151,161.5C 153.033,161.494 154.866,161.161 156.5,160.5C 164.64,157.223 167.807,151.223 166,142.5C 164.211,140.771 162.044,140.104 159.5,140.5C 159.415,139.005 160.081,138.005 161.5,137.5C 163.332,138.248 164.999,139.248 166.5,140.5C 167.815,144.393 168.482,148.393 168.5,152.5C 167.286,153.626 166.286,154.959 165.5,156.5C 166.186,158.347 167.186,160.014 168.5,161.5C 167.056,165.756 164.389,166.923 160.5,165C 163.384,163.963 164.05,162.129 162.5,159.5C 160.747,161.261 158.747,162.594 156.5,163.5C 153.885,162.731 151.219,162.397 148.5,162.5C 148.657,163.873 148.49,165.207 148,166.5C 146.186,165.24 144.353,165.24 142.5,166.5C 149.477,169.69 149.144,171.856 141.5,173C 136.316,173.174 131.316,173.674 126.5,174.5C 125.5,174.5 124.5,174.5 123.5,174.5C 124.406,179.241 122.74,181.241 118.5,180.5C 118.923,178.219 118.256,176.552 116.5,175.5C 116.167,175.5 115.833,175.5 115.5,175.5C 106.682,174.507 97.6822,174.173 88.5,174.5C 87.6433,173.198 87.1433,171.865 87,170.5C 89.6723,170.945 92.1723,170.111 94.5,168C 94.1113,166.382 92.778,165.215 90.5,164.5C 94.5792,161.895 94.4126,159.562 90,157.5C 89.7265,159.329 88.8932,160.829 87.5,162C 86.5165,162.591 85.8499,162.257 85.5,161C 86.0085,159.831 86.8419,158.998 88,158.5C 88.4995,152.175 88.6662,145.842 88.5,139.5C 87.1266,139.343 85.7932,139.51 84.5,140C 82.1208,142.384 79.2875,143.884 76,144.5C 75.2426,164.184 75.4092,183.851 76.5,203.5C 79.6521,203.953 82.1521,202.953 84,200.5C 84.804,201.804 85.9707,202.471 87.5,202.5C 92.7727,202.593 98.106,202.26 103.5,201.5C 100.487,200.867 97.6538,199.867 95,198.5C 93.2367,198.975 91.57,199.642 90,200.5C 89.5899,199.099 89.0899,197.766 88.5,196.5C 99.3464,196.828 110.013,196.494 120.5,195.5C 120.833,195.5 121.167,195.5 121.5,195.5C 123.104,194.713 123.771,193.38 123.5,191.5C 124.613,192.946 124.78,194.613 124,196.5C 123.037,198.807 121.537,200.807 119.5,202.5C 142.348,202.982 165.348,203.315 188.5,203.5C 201.011,203.171 213.345,203.505 225.5,204.5C 174.833,204.5 124.167,204.5 73.5,204.5C 73.3334,184.164 73.5,163.831 74,143.5C 76.3216,141.888 78.8216,140.555 81.5,139.5C 83.8542,132.857 81.5208,129.524 74.5,129.5C 74.1778,123.642 74.5111,117.975 75.5,112.5 Z"/></g>
<g><path style="opacity:1" fill="#3d1513" d="M 142.5,140.5 C 144.941,142.03 146.108,144.363 146,147.5C 148.329,151.729 151.329,152.396 155,149.5C 156.047,146.141 157.547,143.141 159.5,140.5C 162.044,140.104 164.211,140.771 166,142.5C 167.807,151.223 164.64,157.223 156.5,160.5C 152.131,160.533 147.798,160.2 143.5,159.5C 139.192,156.385 136.526,152.219 135.5,147C 135.142,141.861 137.475,139.695 142.5,140.5 Z"/></g>
<g><path style="opacity:1" fill="#442017" d="M 93.5,137.5 C 95.4691,133.214 98.8024,131.547 103.5,132.5C 115.872,133.551 120.706,140.218 118,152.5C 108.919,164.423 99.9189,164.423 91,152.5C 88.6339,146.883 89.4673,141.883 93.5,137.5 Z"/></g>
<g><path style="opacity:1" fill="#370e13" d="M 110.5,140.5 C 111.404,139.791 111.737,138.791 111.5,137.5C 112.5,137.5 113.5,137.5 114.5,137.5C 115.465,139.965 116.465,142.465 117.5,145C 116.313,147.724 115.647,150.557 115.5,153.5C 114.07,153.579 112.736,153.246 111.5,152.5C 110.289,153.274 110.289,154.107 111.5,155C 108.711,159.343 104.711,160.676 99.5,159C 98.3333,158.5 97.5,157.667 97,156.5C 96.502,153.518 96.3354,150.518 96.5,147.5C 94.3193,147.716 92.6526,146.883 91.5,145C 92.8672,142.699 93.5339,140.199 93.5,137.5C 95.8825,135.954 98.5491,135.287 101.5,135.5C 101.335,138.518 101.502,141.518 102,144.5C 104.719,143.556 107.552,143.223 110.5,143.5C 110.5,142.5 110.5,141.5 110.5,140.5 Z"/></g>
<g><path style="opacity:1" fill="#f4d393" d="M 110.5,140.5 C 108.433,142.512 106.1,142.846 103.5,141.5C 101.626,136.544 103.293,134.378 108.5,135C 110.155,136.444 110.822,138.278 110.5,140.5 Z"/></g>
<g><path style="opacity:1" fill="#a85f3e" d="M 232.5,137.5 C 232.833,137.5 233.167,137.5 233.5,137.5C 233.832,150.184 233.499,162.851 232.5,175.5C 230.974,175.994 229.641,176.661 228.5,177.5C 228.167,177.5 227.833,177.5 227.5,177.5C 227.5,176.5 227.5,175.5 227.5,174.5C 229.167,174.5 230.833,174.5 232.5,174.5C 232.5,162.167 232.5,149.833 232.5,137.5 Z"/></g>
<g><path style="opacity:1" fill="#684530" d="M 143.5,159.5 C 147.798,160.2 152.131,160.533 156.5,160.5C 154.866,161.161 153.033,161.494 151,161.5C 148.134,161.7 145.634,161.033 143.5,159.5 Z"/></g>
<g><path style="opacity:1" fill="#fbdc9d" d="M 226.5,137.5 C 226.833,137.5 227.167,137.5 227.5,137.5C 227.5,149.833 227.5,162.167 227.5,174.5C 227.5,175.5 227.5,176.5 227.5,177.5C 227.5,179.167 227.5,180.833 227.5,182.5C 227.5,183.167 227.5,183.833 227.5,184.5C 227.5,190.5 227.5,196.5 227.5,202.5C 227.5,203.167 227.5,203.833 227.5,204.5C 226.833,204.5 226.167,204.5 225.5,204.5C 213.345,203.505 201.011,203.171 188.5,203.5C 191.046,203.018 193.379,202.018 195.5,200.5C 189.846,199.697 184.179,199.53 178.5,200C 179.711,199.107 179.711,198.274 178.5,197.5C 176.979,196.063 175.145,195.396 173,195.5C 170.239,196.418 167.406,197.084 164.5,197.5C 164.756,199.912 163.756,201.579 161.5,202.5C 160.107,201.137 158.441,200.304 156.5,200C 157.167,199.667 157.833,199.333 158.5,199C 156.502,196.561 156.169,194.061 157.5,191.5C 157.232,193.099 157.566,194.432 158.5,195.5C 161.469,196.825 164.469,196.825 167.5,195.5C 168.631,193.926 168.798,192.259 168,190.5C 167.329,189.748 166.496,189.414 165.5,189.5C 164.081,188.549 162.415,188.216 160.5,188.5C 161.263,187.732 162.263,187.232 163.5,187C 160.591,185.594 158.591,183.428 157.5,180.5C 162.063,182.714 166.729,183.047 171.5,181.5C 172.167,181.5 172.5,181.167 172.5,180.5C 173.887,178.511 173.553,176.678 171.5,175C 167.179,174.501 162.846,174.334 158.5,174.5C 156.656,176.279 155.99,178.612 156.5,181.5C 154.119,182.42 151.786,182.42 149.5,181.5C 148.476,182.853 147.143,183.52 145.5,183.5C 145.626,186.468 147.126,188.468 150,189.5C 150.615,187.884 151.615,186.551 153,185.5C 153.45,187.519 154.283,189.352 155.5,191C 154.069,191.465 152.903,192.299 152,193.5C 151.667,192.833 151.333,192.167 151,191.5C 150.878,193.437 150.045,194.77 148.5,195.5C 149.815,193.865 149.815,192.199 148.5,190.5C 142.78,189.215 137.113,189.215 131.5,190.5C 130.952,188.606 129.952,186.94 128.5,185.5C 132.374,183.998 132.041,183.331 127.5,183.5C 127.5,182.5 127.5,181.5 127.5,180.5C 126.539,178.735 126.205,176.735 126.5,174.5C 131.316,173.674 136.316,173.174 141.5,173C 149.144,171.856 149.477,169.69 142.5,166.5C 144.353,165.24 146.186,165.24 148,166.5C 148.49,165.207 148.657,163.873 148.5,162.5C 151.219,162.397 153.885,162.731 156.5,163.5C 158.747,162.594 160.747,161.261 162.5,159.5C 164.05,162.129 163.384,163.963 160.5,165C 164.389,166.923 167.056,165.756 168.5,161.5C 167.186,160.014 166.186,158.347 165.5,156.5C 166.286,154.959 167.286,153.626 168.5,152.5C 169.575,151.438 170.575,151.438 171.5,152.5C 172.089,154.373 171.422,156.04 169.5,157.5C 170.588,161.386 171.421,161.386 172,157.5C 174.573,158.983 176.74,158.483 178.5,156C 177.216,154.703 177.383,153.536 179,152.5C 180.655,154.747 180.988,157.08 180,159.5C 183.986,157.968 187.486,158.635 190.5,161.5C 183.752,160.499 181.752,163.166 184.5,169.5C 188.23,172.009 191.896,171.676 195.5,168.5C 195.554,169.53 195.888,170.697 196.5,172C 195.5,172.333 194.5,172.667 193.5,173C 200.679,173.171 207.679,173.671 214.5,174.5C 203.828,174.333 193.161,174.5 182.5,175C 181.083,177.743 181.416,180.243 183.5,182.5C 181.805,183.011 180.139,183.678 178.5,184.5C 180.419,185.612 182.086,186.946 183.5,188.5C 178.292,188.369 176.625,190.702 178.5,195.5C 190.66,196.825 202.66,196.825 214.5,195.5C 216.048,195.179 216.715,194.179 216.5,192.5C 217.404,193.209 217.737,194.209 217.5,195.5C 220.01,194.217 222.677,193.217 225.5,192.5C 225.18,174.09 225.514,155.757 226.5,137.5 Z"/></g>
<g><path style="opacity:1" fill="#ee8857" d="M 112.5,161.5 C 118.89,160.218 120.89,162.551 118.5,168.5C 111.746,170.532 109.746,168.199 112.5,161.5 Z"/></g>
<g><path style="opacity:1" fill="#e98d56" d="M 190.5,161.5 C 193.793,167.578 191.793,170.245 184.5,169.5C 181.752,163.166 183.752,160.499 190.5,161.5 Z"/></g>
<g><path style="opacity:0.817" fill="#472423" d="M 264.5,164.5 C 271.535,163.86 274.202,166.86 272.5,173.5C 269.191,174.627 265.857,174.627 262.5,173.5C 262.065,170.162 262.732,167.162 264.5,164.5 Z"/></g>
<g><path style="opacity:0.871" fill="#432221" d="M 30.5,163.5 C 37.5268,162.852 40.1935,165.852 38.5,172.5C 30.1369,174.812 27.4703,171.812 30.5,163.5 Z"/></g>
<g><path style="opacity:0.148" fill="#8f7e79" d="M 56.5,105.5 C 57.4982,137.329 57.8316,169.329 57.5,201.5C 56.5,201.167 55.8333,200.5 55.5,199.5C 56.4982,168.338 56.8315,137.004 56.5,105.5 Z"/></g>
<g><path style="opacity:1" fill="#af5a21" d="M 158.5,174.5 C 162.846,174.334 167.179,174.501 171.5,175C 173.553,176.678 173.887,178.511 172.5,180.5C 172.703,178.61 172.037,177.11 170.5,176C 166.848,175.501 163.182,175.335 159.5,175.5C 159.261,177.467 159.594,179.301 160.5,181C 164.152,181.499 167.818,181.665 171.5,181.5C 166.729,183.047 162.063,182.714 157.5,180.5C 157.325,178.379 157.659,176.379 158.5,174.5 Z"/></g>
<g><path style="opacity:1" fill="#b73c0a" d="M 172.5,180.5 C 172.5,181.167 172.167,181.5 171.5,181.5C 167.818,181.665 164.152,181.499 160.5,181C 159.594,179.301 159.261,177.467 159.5,175.5C 163.182,175.335 166.848,175.501 170.5,176C 172.037,177.11 172.703,178.61 172.5,180.5 Z"/></g>
<g><path style="opacity:1" fill="#ab480e" d="M 214.5,174.5 C 217.086,177.006 217.086,179.506 214.5,182C 204.172,182.5 193.839,182.666 183.5,182.5C 181.416,180.243 181.083,177.743 182.5,175C 193.161,174.5 203.828,174.333 214.5,174.5 Z"/></g>
<g><path style="opacity:1" fill="#ba3c07" d="M 184.5,175.5 C 194.172,175.334 203.839,175.5 213.5,176C 214.38,177.356 214.714,178.856 214.5,180.5C 204.167,180.5 193.833,180.5 183.5,180.5C 183.366,178.708 183.699,177.042 184.5,175.5 Z"/></g>
<g><path style="opacity:1" fill="#b94810" d="M 165.5,189.5 C 166.496,189.414 167.329,189.748 168,190.5C 168.798,192.259 168.631,193.926 167.5,195.5C 164.469,196.825 161.469,196.825 158.5,195.5C 158.327,190.677 160.661,188.677 165.5,189.5 Z"/></g>
<g><path style="opacity:1" fill="#cc8b4c" d="M 160.5,188.5 C 162.415,188.216 164.081,188.549 165.5,189.5C 160.661,188.677 158.327,190.677 158.5,195.5C 157.566,194.432 157.232,193.099 157.5,191.5C 158.167,190.167 159.167,189.167 160.5,188.5 Z"/></g>
<g><path style="opacity:1" fill="#c87446" d="M 227.5,182.5 C 229.352,183.089 231.185,183.756 233,184.5C 233.5,191.158 233.666,197.825 233.5,204.5C 231.5,204.5 229.5,204.5 227.5,204.5C 227.5,203.833 227.5,203.167 227.5,202.5C 228.833,202.5 230.167,202.5 231.5,202.5C 231.5,196.833 231.5,191.167 231.5,185.5C 230.041,185.567 228.708,185.234 227.5,184.5C 227.5,183.833 227.5,183.167 227.5,182.5 Z"/></g>
<g><path style="opacity:1" fill="#fce1a0" d="M 88.5,174.5 C 85.0271,176.563 84.6938,179.063 87.5,182C 97.1667,182.667 106.833,182.667 116.5,182C 117.044,181.283 117.711,180.783 118.5,180.5C 122.74,181.241 124.406,179.241 123.5,174.5C 124.5,174.5 125.5,174.5 126.5,174.5C 126.205,176.735 126.539,178.735 127.5,180.5C 127.5,181.5 127.5,182.5 127.5,183.5C 132.041,183.331 132.374,183.998 128.5,185.5C 129.952,186.94 130.952,188.606 131.5,190.5C 131.141,192.766 131.808,194.599 133.5,196C 138.552,196.726 143.552,196.559 148.5,195.5C 150.045,194.77 150.878,193.437 151,191.5C 151.333,192.167 151.667,192.833 152,193.5C 152.903,192.299 154.069,191.465 155.5,191C 154.283,189.352 153.45,187.519 153,185.5C 151.615,186.551 150.615,187.884 150,189.5C 147.126,188.468 145.626,186.468 145.5,183.5C 147.143,183.52 148.476,182.853 149.5,181.5C 151.786,182.42 154.119,182.42 156.5,181.5C 155.99,178.612 156.656,176.279 158.5,174.5C 157.659,176.379 157.325,178.379 157.5,180.5C 158.591,183.428 160.591,185.594 163.5,187C 162.263,187.232 161.263,187.732 160.5,188.5C 159.167,189.167 158.167,190.167 157.5,191.5C 156.169,194.061 156.502,196.561 158.5,199C 157.833,199.333 157.167,199.667 156.5,200C 158.441,200.304 160.107,201.137 161.5,202.5C 163.756,201.579 164.756,199.912 164.5,197.5C 167.406,197.084 170.239,196.418 173,195.5C 175.145,195.396 176.979,196.063 178.5,197.5C 179.711,198.274 179.711,199.107 178.5,200C 184.179,199.53 189.846,199.697 195.5,200.5C 193.379,202.018 191.046,203.018 188.5,203.5C 165.348,203.315 142.348,202.982 119.5,202.5C 121.537,200.807 123.037,198.807 124,196.5C 124.78,194.613 124.613,192.946 123.5,191.5C 122.373,190.878 121.373,190.045 120.5,189C 109.833,188.333 99.1667,188.333 88.5,189C 87.3759,189.839 86.7092,191.006 86.5,192.5C 86.3402,194.355 87.0069,195.688 88.5,196.5C 89.0899,197.766 89.5899,199.099 90,200.5C 91.57,199.642 93.2367,198.975 95,198.5C 97.6538,199.867 100.487,200.867 103.5,201.5C 98.106,202.26 92.7727,202.593 87.5,202.5C 85.9707,202.471 84.804,201.804 84,200.5C 82.1521,202.953 79.6521,203.953 76.5,203.5C 75.4092,183.851 75.2426,164.184 76,144.5C 79.2875,143.884 82.1208,142.384 84.5,140C 85.7932,139.51 87.1266,139.343 88.5,139.5C 88.6662,145.842 88.4995,152.175 88,158.5C 86.8419,158.998 86.0085,159.831 85.5,161C 85.8499,162.257 86.5165,162.591 87.5,162C 88.8932,160.829 89.7265,159.329 90,157.5C 94.4126,159.562 94.5792,161.895 90.5,164.5C 92.778,165.215 94.1113,166.382 94.5,168C 92.1723,170.111 89.6723,170.945 87,170.5C 87.1433,171.865 87.6433,173.198 88.5,174.5 Z"/></g>
<g><path style="opacity:1" fill="#ac5015" d="M 148.5,195.5 C 143.552,196.559 138.552,196.726 133.5,196C 131.808,194.599 131.141,192.766 131.5,190.5C 137.113,189.215 142.78,189.215 148.5,190.5C 149.815,192.199 149.815,193.865 148.5,195.5 Z"/></g>
<g><path style="opacity:1" fill="#bc3c04" d="M 135.5,190.5 C 139.5,190.5 143.5,190.5 147.5,190.5C 147.275,194.8 144.941,196.466 140.5,195.5C 135.571,196.577 133.905,194.91 135.5,190.5 Z"/></g>
<g><path style="opacity:1" fill="#ac4a10" d="M 146.5,175.5 C 149.134,177.54 149.134,179.707 146.5,182C 140.833,182.667 135.167,182.667 129.5,182C 128.956,181.283 128.289,180.783 127.5,180.5C 127.261,178.533 127.594,176.699 128.5,175C 134.681,174.181 140.681,174.347 146.5,175.5 Z"/></g>
<g><path style="opacity:1" fill="#ab4a0f" d="M 88.5,174.5 C 97.6822,174.173 106.682,174.507 115.5,175.5C 106.833,175.5 98.1667,175.5 89.5,175.5C 89.5,177.167 89.5,178.833 89.5,180.5C 98.5,180.5 107.5,180.5 116.5,180.5C 116.5,178.833 116.5,177.167 116.5,175.5C 118.256,176.552 118.923,178.219 118.5,180.5C 117.711,180.783 117.044,181.283 116.5,182C 106.833,182.667 97.1667,182.667 87.5,182C 84.6938,179.063 85.0271,176.563 88.5,174.5 Z"/></g>
<g><path style="opacity:1" fill="#b83c07" d="M 115.5,175.5 C 115.833,175.5 116.167,175.5 116.5,175.5C 116.5,177.167 116.5,178.833 116.5,180.5C 107.5,180.5 98.5,180.5 89.5,180.5C 89.5,178.833 89.5,177.167 89.5,175.5C 98.1667,175.5 106.833,175.5 115.5,175.5 Z"/></g>
<g><path style="opacity:1" fill="#b83d06" d="M 146.5,175.5 C 146.5,177.167 146.5,178.833 146.5,180.5C 140.833,180.5 135.167,180.5 129.5,180.5C 129.5,178.833 129.5,177.167 129.5,175.5C 135.167,175.5 140.833,175.5 146.5,175.5 Z"/></g>
<g><path style="opacity:1" fill="#b35e23" d="M 123.5,191.5 C 123.771,193.38 123.104,194.713 121.5,195.5C 121.714,193.856 121.38,192.356 120.5,191C 109.505,190.5 98.505,190.333 87.5,190.5C 87.2865,192.144 87.6198,193.644 88.5,195C 99.1615,195.5 109.828,195.667 120.5,195.5C 110.013,196.494 99.3464,196.828 88.5,196.5C 87.0069,195.688 86.3402,194.355 86.5,192.5C 86.7092,191.006 87.3759,189.839 88.5,189C 99.1667,188.333 109.833,188.333 120.5,189C 121.373,190.045 122.373,190.878 123.5,191.5 Z"/></g>
<g><path style="opacity:1" fill="#b93d05" d="M 121.5,195.5 C 121.167,195.5 120.833,195.5 120.5,195.5C 109.828,195.667 99.1615,195.5 88.5,195C 87.6198,193.644 87.2865,192.144 87.5,190.5C 98.505,190.333 109.505,190.5 120.5,191C 121.38,192.356 121.714,193.856 121.5,195.5 Z"/></g>
<g><path style="opacity:1" fill="#b45f24" d="M 183.5,188.5 C 194.538,188.235 205.538,188.568 216.5,189.5C 216.5,190.5 216.5,191.5 216.5,192.5C 216.715,194.179 216.048,195.179 214.5,195.5C 202.66,196.825 190.66,196.825 178.5,195.5C 176.625,190.702 178.292,188.369 183.5,188.5 Z"/></g>
<g><path style="opacity:1" fill="#b83e04" d="M 214.5,195.5 C 203.162,195.667 191.828,195.5 180.5,195C 179.62,193.644 179.286,192.144 179.5,190.5C 191.167,190.5 202.833,190.5 214.5,190.5C 214.5,192.167 214.5,193.833 214.5,195.5 Z"/></g>
<g><path style="opacity:1" fill="#e18243" d="M 227.5,184.5 C 228.708,185.234 230.041,185.567 231.5,185.5C 231.5,191.167 231.5,196.833 231.5,202.5C 230.167,202.5 228.833,202.5 227.5,202.5C 227.5,196.5 227.5,190.5 227.5,184.5 Z"/></g>
<g><path style="opacity:0.384" fill="#866e6c" d="M 274.5,197.5 C 276.434,198.11 278.101,199.11 279.5,200.5C 276.966,200.741 275.3,199.741 274.5,197.5 Z"/></g>
<g><path style="opacity:1" fill="#f1d091" d="M 55.5,216.5 C 55.5,217.833 55.5,219.167 55.5,220.5C 52.2457,220.793 49.2457,220.126 46.5,218.5C 46.6602,216.801 46.4935,215.134 46,213.5C 43.3256,209.66 40.1589,206.327 36.5,203.5C 46.2717,202.58 52.6051,206.913 55.5,216.5 Z"/></g>
<g><path style="opacity:1" fill="#3b1014" d="M 233.5,98.5 C 235.28,102.727 236.114,107.394 236,112.5C 239.164,115.145 240.331,114.145 239.5,109.5C 240.822,109.67 241.989,109.337 243,108.5C 243.885,111.952 244.718,115.286 245.5,118.5C 245.5,146.5 245.5,174.5 245.5,202.5C 244.895,204.026 243.729,205.026 242,205.5C 241.51,206.793 241.343,208.127 241.5,209.5C 239.323,209.586 237.323,210.253 235.5,211.5C 224.031,211.688 212.531,211.355 201,210.5C 199.989,210.892 199.489,211.559 199.5,212.5C 162.117,210.316 124.784,209.983 87.5,211.5C 85.087,212.111 82.587,212.445 80,212.5C 75.2107,211.842 70.7107,211.009 66.5,210C 69.2391,207.667 72.2391,206.833 75.5,207.5C 128.852,206.838 182.186,206.171 235.5,205.5C 237.049,207.838 238.049,207.338 238.5,204C 236.018,198.169 234.851,192.002 235,185.5C 234.03,182.179 231.863,180.513 228.5,180.5C 228.5,179.5 228.5,178.5 228.5,177.5C 230.604,177.799 232.604,177.466 234.5,176.5C 235.022,175.393 235.355,174.226 235.5,173C 234.883,161.015 234.216,149.181 233.5,137.5C 233.167,137.5 232.833,137.5 232.5,137.5C 230.833,137.5 229.167,137.5 227.5,137.5C 227.167,137.5 226.833,137.5 226.5,137.5C 224.983,137.489 223.816,136.823 223,135.5C 222.013,131.652 223.513,129.652 227.5,129.5C 229.167,129.5 230.833,129.5 232.5,129.5C 233.494,119.347 233.828,109.014 233.5,98.5 Z"/></g>
<g><path style="opacity:1" fill="#4b1c17" d="M 227.5,177.5 C 227.833,177.5 228.167,177.5 228.5,177.5C 228.5,178.5 228.5,179.5 228.5,180.5C 231.863,180.513 234.03,182.179 235,185.5C 234.851,192.002 236.018,198.169 238.5,204C 238.049,207.338 237.049,207.838 235.5,205.5C 182.186,206.171 128.852,206.838 75.5,207.5C 72.2391,206.833 69.2391,207.667 66.5,210C 70.7107,211.009 75.2107,211.842 80,212.5C 82.587,212.445 85.087,212.111 87.5,211.5C 87.9175,212.222 88.5842,212.722 89.5,213C 88.5838,213.374 87.7504,213.874 87,214.5C 81.3333,213.833 75.6667,213.167 70,212.5C 69.5,213 69,213.5 68.5,214C 69.8333,214.333 71.1667,214.667 72.5,215C 70.1902,215.497 67.8568,215.663 65.5,215.5C 65.8693,221.513 66.036,227.513 66,233.5C 64.3835,233.676 62.8835,234.01 61.5,234.5C 62.9501,235.85 63.6168,237.516 63.5,239.5C 61.8763,237.863 60.8763,238.197 60.5,240.5C 60.6082,241.442 60.9415,242.275 61.5,243C 60.1975,246.515 59.5309,250.182 59.5,254C 61.9577,259.468 63.4577,265.302 64,271.5C 60.3347,272.53 56.8347,272.197 53.5,270.5C 56.8984,270.82 60.2317,270.487 63.5,269.5C 62.3405,267.289 61.0072,265.289 59.5,263.5C 58.9084,260.873 58.5751,258.206 58.5,255.5C 57.9791,244.341 57.3125,233.341 56.5,222.5C 56.1667,221.833 55.8333,221.167 55.5,220.5C 55.5,219.167 55.5,217.833 55.5,216.5C 56.4956,213.208 57.4956,209.875 58.5,206.5C 59.8149,207.476 61.1482,208.476 62.5,209.5C 64.8696,207.783 67.203,206.117 69.5,204.5C 70.8333,204.5 72.1667,204.5 73.5,204.5C 124.167,204.5 174.833,204.5 225.5,204.5C 226.167,204.5 226.833,204.5 227.5,204.5C 229.5,204.5 231.5,204.5 233.5,204.5C 233.666,197.825 233.5,191.158 233,184.5C 231.185,183.756 229.352,183.089 227.5,182.5C 227.5,180.833 227.5,179.167 227.5,177.5 Z"/></g>
<g><path style="opacity:1" fill="#481c1c" d="M 283.5,204.5 C 285.39,204.297 286.89,204.963 288,206.5C 290.78,211.062 293.28,215.728 295.5,220.5C 295.633,226.369 296.967,231.703 299.5,236.5C 299.5,240.833 299.5,245.167 299.5,249.5C 298.918,252.313 297.918,254.98 296.5,257.5C 296.417,249.748 296.417,241.748 296.5,233.5C 294.25,233.181 292.25,233.681 290.5,235C 292.932,236.087 292.598,236.587 289.5,236.5C 289.453,233.432 288.953,230.432 288,227.5C 287.51,228.793 287.343,230.127 287.5,231.5C 286.675,229.19 285.342,227.19 283.5,225.5C 282.065,224.087 281.065,222.42 280.5,220.5C 275.427,211.634 267.761,208.134 257.5,210C 250.043,214.093 245.376,220.259 243.5,228.5C 243.167,228.5 242.833,228.5 242.5,228.5C 241.275,227.063 240.275,225.396 239.5,223.5C 238.19,226.561 235.857,227.894 232.5,227.5C 232.334,237.524 232.668,247.524 233.5,257.5C 233.167,257.5 232.833,257.5 232.5,257.5C 231.704,252.184 231.037,246.851 230.5,241.5C 229.928,234.229 230.928,227.229 233.5,220.5C 234.404,219.791 234.737,218.791 234.5,217.5C 178.997,217.168 123.664,217.501 68.5,218.5C 67.6618,218.842 67.3284,219.508 67.5,220.5C 67.8333,226.5 68.1667,232.5 68.5,238.5C 68.6716,239.492 68.3382,240.158 67.5,240.5C 67.6567,239.127 67.49,237.793 67,236.5C 66.6667,238.5 66.3333,240.5 66,242.5C 64.583,241.922 63.7496,240.922 63.5,239.5C 63.6168,237.516 62.9501,235.85 61.5,234.5C 62.8835,234.01 64.3835,233.676 66,233.5C 66.036,227.513 65.8693,221.513 65.5,215.5C 67.8568,215.663 70.1902,215.497 72.5,215C 71.1667,214.667 69.8333,214.333 68.5,214C 69,213.5 69.5,213 70,212.5C 75.6667,213.167 81.3333,213.833 87,214.5C 87.7504,213.874 88.5838,213.374 89.5,213C 88.5842,212.722 87.9175,212.222 87.5,211.5C 124.784,209.983 162.117,210.316 199.5,212.5C 199.489,211.559 199.989,210.892 201,210.5C 212.531,211.355 224.031,211.688 235.5,211.5C 237.323,210.253 239.323,209.586 241.5,209.5C 241.343,208.127 241.51,206.793 242,205.5C 243.729,205.026 244.895,204.026 245.5,202.5C 246.416,202.982 247.416,203.315 248.5,203.5C 255.427,198.802 263.093,197.302 271.5,199C 275.809,201.22 279.809,203.053 283.5,204.5 Z"/></g>
<g><path style="opacity:1" fill="#f4d28f" d="M 280.5,220.5 C 280.5,221.167 280.5,221.833 280.5,222.5C 277.366,220.095 274.032,217.928 270.5,216C 266.167,215.333 261.833,215.333 257.5,216C 255.376,217.122 253.543,218.622 252,220.5C 252.239,222.609 252.739,224.776 253.5,227C 252.806,230.856 250.473,232.689 246.5,232.5C 246.167,235.167 245.833,237.833 245.5,240.5C 245.167,240.5 244.833,240.5 244.5,240.5C 243.517,236.702 243.183,232.702 243.5,228.5C 245.376,220.259 250.043,214.093 257.5,210C 267.761,208.134 275.427,211.634 280.5,220.5 Z"/></g>
<g><path style="opacity:1" fill="#debf85" d="M 68.5,218.5 C 123.664,217.501 178.997,217.168 234.5,217.5C 234.737,218.791 234.404,219.791 233.5,220.5C 178.843,218.504 123.843,217.837 68.5,218.5 Z"/></g>
<g><path style="opacity:0.999" fill="#fcdc97" d="M 68.5,218.5 C 123.843,217.837 178.843,218.504 233.5,220.5C 230.928,227.229 229.928,234.229 230.5,241.5C 228.691,244.139 226.358,246.306 223.5,248C 204.836,248.5 186.17,248.667 167.5,248.5C 167.665,244.818 167.499,241.152 167,237.5C 165.204,236.233 163.371,236.233 161.5,237.5C 160.511,241.107 160.177,244.774 160.5,248.5C 152.826,248.666 145.159,248.5 137.5,248C 136.707,244.589 136.207,241.089 136,237.5C 133.667,236.167 131.333,236.167 129,237.5C 128.934,241.233 128.101,244.733 126.5,248C 123.518,248.498 120.518,248.665 117.5,248.5C 117.665,244.818 117.499,241.152 117,237.5C 115.204,236.233 113.371,236.233 111.5,237.5C 110.8,241.041 110.133,244.541 109.5,248C 97.8191,248.833 86.1524,248.666 74.5,247.5C 72.0905,245.231 70.4238,242.565 69.5,239.5C 69.5,239.167 69.5,238.833 69.5,238.5C 69.7236,232.261 69.0569,226.261 67.5,220.5C 67.3284,219.508 67.6618,218.842 68.5,218.5 Z"/></g>
<g><path style="opacity:1" fill="#f6b438" d="M 280.5,222.5 C 280.047,225.652 281.047,228.152 283.5,230C 281.527,230.495 279.527,230.662 277.5,230.5C 277.5,231.5 277.5,232.5 277.5,233.5C 276.167,233.5 274.833,233.5 273.5,233.5C 277.058,226.885 275.058,223.718 267.5,224C 259.273,226.709 254.606,232.209 253.5,240.5C 253.167,240.5 252.833,240.5 252.5,240.5C 250.167,240.5 247.833,240.5 245.5,240.5C 245.833,237.833 246.167,235.167 246.5,232.5C 250.473,232.689 252.806,230.856 253.5,227C 252.739,224.776 252.239,222.609 252,220.5C 253.543,218.622 255.376,217.122 257.5,216C 261.833,215.333 266.167,215.333 270.5,216C 274.032,217.928 277.366,220.095 280.5,222.5 Z"/></g>
<g><path style="opacity:1" fill="#451a1a" d="M 55.5,199.5 C 55.8333,200.5 56.5,201.167 57.5,201.5C 58.4511,202.919 58.7845,204.585 58.5,206.5C 57.4956,209.875 56.4956,213.208 55.5,216.5C 52.6051,206.913 46.2717,202.58 36.5,203.5C 40.1589,206.327 43.3256,209.66 46,213.5C 46.4935,215.134 46.6602,216.801 46.5,218.5C 46.5,225.833 46.5,233.167 46.5,240.5C 46.3337,247.175 46.5004,253.842 47,260.5C 47.3838,263.06 48.2171,265.394 49.5,267.5C 47.5713,266.994 45.9047,265.994 44.5,264.5C 44.1735,258.209 44.0068,251.876 44,245.5C 42.5468,242.702 41.5468,239.702 41,236.5C 40.304,239.478 39.804,242.478 39.5,245.5C 38.5,245.5 37.5,245.5 36.5,245.5C 36.8276,234.986 36.4942,224.653 35.5,214.5C 34.5,213.833 33.5,213.167 32.5,212.5C 30.1432,212.337 27.8098,212.503 25.5,213C 12.6749,222.633 9.34154,234.8 15.5,249.5C 15.5,249.833 15.5,250.167 15.5,250.5C 16.9295,255.469 18.9295,260.136 21.5,264.5C 19.9582,263.699 18.2915,263.366 16.5,263.5C 16.7852,261.712 16.4519,260.045 15.5,258.5C 12.6095,256.957 10.9429,254.624 10.5,251.5C 9.44802,251.649 8.44802,251.483 7.5,251C 8.4204,248.159 9.4204,245.326 10.5,242.5C 10.2668,241.068 9.60012,240.568 8.5,241C 7.67051,242.816 6.83718,244.649 6,246.5C 4.09106,243.485 4.25773,240.485 6.5,237.5C 5.67504,236.614 4.67504,236.281 3.5,236.5C 3.28491,238.774 2.61825,240.941 1.5,243C 3.88389,246.583 3.88389,250.083 1.5,253.5C 0.833333,251.833 0.166667,250.167 -0.5,248.5C -0.5,242.833 -0.5,237.167 -0.5,231.5C 1.64396,224.918 4.4773,218.585 8,212.5C 20.6213,196.475 36.4546,192.142 55.5,199.5 Z"/></g>
<g><path style="opacity:1" fill="#f8b634" d="M 30.5,215.5 C 31.5,215.5 32.5,215.5 33.5,215.5C 33.4955,219.534 33.1621,223.534 32.5,227.5C 30.5,227.5 28.5,227.5 26.5,227.5C 25.8333,231.5 25.1667,231.5 24.5,227.5C 22.4078,227.561 20.9078,228.561 20,230.5C 19.1667,233 18.3333,235.5 17.5,238C 17.1639,239.03 16.4972,239.53 15.5,239.5C 17.1104,233.591 19.2771,227.925 22,222.5C 24.4162,219.577 27.2496,217.243 30.5,215.5 Z"/></g>
<g><path style="opacity:1" fill="#ecc889" d="M 32.5,212.5 C 32.2178,213.778 31.5511,214.778 30.5,215.5C 27.2496,217.243 24.4162,219.577 22,222.5C 19.2771,227.925 17.1104,233.591 15.5,239.5C 15.5,239.833 15.5,240.167 15.5,240.5C 15.5,243.5 15.5,246.5 15.5,249.5C 9.34154,234.8 12.6749,222.633 25.5,213C 27.8098,212.503 30.1432,212.337 32.5,212.5 Z"/></g>
<g><path style="opacity:1" fill="#de9f4c" d="M 32.5,212.5 C 33.5,213.167 34.5,213.833 35.5,214.5C 35.5,221.167 35.5,227.833 35.5,234.5C 34.8333,228.167 34.1667,221.833 33.5,215.5C 32.5,215.5 31.5,215.5 30.5,215.5C 31.5511,214.778 32.2178,213.778 32.5,212.5 Z"/></g>
<g><path style="opacity:1" fill="#e8a94b" d="M 46.5,218.5 C 49.2457,220.126 52.2457,220.793 55.5,220.5C 55.8333,221.167 56.1667,221.833 56.5,222.5C 56.5,228.5 56.5,234.5 56.5,240.5C 56.1667,240.5 55.8333,240.5 55.5,240.5C 55.5,234.5 55.5,228.5 55.5,222.5C 53.1667,222.5 50.8333,222.5 48.5,222.5C 48.5,228.5 48.5,234.5 48.5,240.5C 48.1667,240.5 47.8333,240.5 47.5,240.5C 47.1667,240.5 46.8333,240.5 46.5,240.5C 46.5,233.167 46.5,225.833 46.5,218.5 Z"/></g>
<g><path style="opacity:1" fill="#f9a82b" d="M 280.5,220.5 C 281.065,222.42 282.065,224.087 283.5,225.5C 285.151,230.328 285.817,235.328 285.5,240.5C 278.833,240.5 272.167,240.5 265.5,240.5C 265.5,239.5 265.5,238.5 265.5,237.5C 266.99,234.108 269.657,232.774 273.5,233.5C 274.833,233.5 276.167,233.5 277.5,233.5C 277.5,232.5 277.5,231.5 277.5,230.5C 279.527,230.662 281.527,230.495 283.5,230C 281.047,228.152 280.047,225.652 280.5,222.5C 280.5,221.833 280.5,221.167 280.5,220.5 Z"/></g>
<g><path style="opacity:1" fill="#fbaa22" d="M 33.5,215.5 C 34.1667,221.833 34.8333,228.167 35.5,234.5C 35.5,236.5 35.5,238.5 35.5,240.5C 28.8333,240.5 22.1667,240.5 15.5,240.5C 15.5,240.167 15.5,239.833 15.5,239.5C 16.4972,239.53 17.1639,239.03 17.5,238C 18.3333,235.5 19.1667,233 20,230.5C 20.9078,228.561 22.4078,227.561 24.5,227.5C 25.1667,231.5 25.8333,231.5 26.5,227.5C 28.5,227.5 30.5,227.5 32.5,227.5C 33.1621,223.534 33.4955,219.534 33.5,215.5 Z"/></g>
<g><path style="opacity:0.404" fill="#654b49" d="M 295.5,220.5 C 297.032,223.765 298.365,227.098 299.5,230.5C 299.5,232.5 299.5,234.5 299.5,236.5C 296.967,231.703 295.633,226.369 295.5,220.5 Z"/></g>
<g><path style="opacity:1" fill="#fcb32c" d="M 55.5,240.5 C 53.1667,240.5 50.8333,240.5 48.5,240.5C 48.5,234.5 48.5,228.5 48.5,222.5C 50.8333,222.5 53.1667,222.5 55.5,222.5C 55.5,228.5 55.5,234.5 55.5,240.5 Z"/></g>
<g><path style="opacity:1" fill="#997b5d" d="M 67.5,220.5 C 69.0569,226.261 69.7236,232.261 69.5,238.5C 69.1667,238.5 68.8333,238.5 68.5,238.5C 68.1667,232.5 67.8333,226.5 67.5,220.5 Z"/></g>
<g><path style="opacity:1" fill="#3b1012" d="M 242.5,228.5 C 242.334,234.176 242.501,239.843 243,245.5C 243.39,248.104 244.224,250.438 245.5,252.5C 246.4,256.881 248.067,260.881 250.5,264.5C 248.164,262.996 246.331,260.996 245,258.5C 244.376,260.464 244.876,262.131 246.5,263.5C 245.675,264.386 244.675,264.719 243.5,264.5C 242.862,262.201 241.862,260.034 240.5,258C 243.346,256.6 243.679,255.1 241.5,253.5C 239.728,254.27 238.728,255.603 238.5,257.5C 239.209,262.011 240.042,266.345 241,270.5C 240.5,271 240,271.5 239.5,272C 234.316,272.816 229.316,272.65 224.5,271.5C 228.182,271.665 231.848,271.499 235.5,271C 236.737,270.768 237.737,270.268 238.5,269.5C 235.936,265.916 234.269,261.916 233.5,257.5C 232.668,247.524 232.334,237.524 232.5,227.5C 235.857,227.894 238.19,226.561 239.5,223.5C 240.275,225.396 241.275,227.063 242.5,228.5 Z"/></g>
<g><path style="opacity:1" fill="#48140f" d="M 273.5,233.5 C 269.657,232.774 266.99,234.108 265.5,237.5C 264.523,240.287 264.19,243.287 264.5,246.5C 271.281,243.947 274.281,246.28 273.5,253.5C 269.044,257.07 264.377,257.403 259.5,254.5C 258.167,253.5 256.833,252.5 255.5,251.5C 253.908,248.034 253.242,244.367 253.5,240.5C 254.606,232.209 259.273,226.709 267.5,224C 275.058,223.718 277.058,226.885 273.5,233.5 Z"/></g>
<g><path style="opacity:1" fill="#b9774c" d="M 242.5,228.5 C 242.833,228.5 243.167,228.5 243.5,228.5C 243.183,232.702 243.517,236.702 244.5,240.5C 244.279,243.279 244.612,245.946 245.5,248.5C 245.5,249.833 245.5,251.167 245.5,252.5C 244.224,250.438 243.39,248.104 243,245.5C 242.501,239.843 242.334,234.176 242.5,228.5 Z"/></g>
<g><path style="opacity:1" fill="#742911" d="M 56.5,222.5 C 57.3125,233.341 57.9791,244.341 58.5,255.5C 56.8554,250.766 56.1888,245.766 56.5,240.5C 56.5,234.5 56.5,228.5 56.5,222.5 Z"/></g>
<g><path style="opacity:1" fill="#48130e" d="M 35.5,214.5 C 36.4942,224.653 36.8276,234.986 36.5,245.5C 36.5266,248.23 35.8599,250.73 34.5,253C 37.888,257.158 39.2214,261.991 38.5,267.5C 37.6873,265.739 36.6873,264.072 35.5,262.5C 35.5,261.167 35.5,259.833 35.5,258.5C 25.1824,258.678 22.8491,254.511 28.5,246C 30.8098,245.503 33.1432,245.337 35.5,245.5C 35.5,243.833 35.5,242.167 35.5,240.5C 35.5,238.5 35.5,236.5 35.5,234.5C 35.5,227.833 35.5,221.167 35.5,214.5 Z"/></g>
<g><path style="opacity:1" fill="#51140a" d="M 283.5,225.5 C 285.342,227.19 286.675,229.19 287.5,231.5C 287.685,239.574 287.019,247.574 285.5,255.5C 283.887,258.781 281.554,261.447 278.5,263.5C 278.557,262.391 278.89,261.391 279.5,260.5C 284.087,254.728 286.087,248.062 285.5,240.5C 285.817,235.328 285.151,230.328 283.5,225.5 Z"/></g>
<g><path style="opacity:0.988" fill="#402627" d="M 1.5,254.5 C 2.58317,254.539 3.58317,254.873 4.5,255.5C 5.54885,258.08 6.21551,260.746 6.5,263.5C 7.83333,263.5 9.16667,263.5 10.5,263.5C 10.3433,264.873 10.51,266.207 11,267.5C 13.9296,271.526 16.7629,275.526 19.5,279.5C 10.3668,273.621 4.36685,265.288 1.5,254.5 Z"/></g>
<g><path style="opacity:0.655" fill="#4c3130" d="M 296.5,258.5 C 293.85,264.467 290.684,270.134 287,275.5C 283.872,278.474 280.372,280.807 276.5,282.5C 276.369,281.761 276.536,281.094 277,280.5C 284.878,275.947 290.211,269.28 293,260.5C 294.113,259.695 295.279,259.028 296.5,258.5 Z"/></g>
<g><path style="opacity:0.996" fill="#340d10" d="M 296.5,257.5 C 296.5,257.833 296.5,258.167 296.5,258.5C 295.279,259.028 294.113,259.695 293,260.5C 290.211,269.28 284.878,275.947 277,280.5C 276.536,281.094 276.369,281.761 276.5,282.5C 275.158,283.793 273.491,284.626 271.5,285C 265.167,285.667 258.833,285.667 252.5,285C 251.263,284.768 250.263,284.268 249.5,283.5C 183.668,282.335 117.668,282.168 51.5,283C 49.8807,283.236 48.8807,284.069 48.5,285.5C 41.825,285.666 35.1583,285.5 28.5,285C 24.8193,284.128 21.8193,282.294 19.5,279.5C 16.7629,275.526 13.9296,271.526 11,267.5C 10.51,266.207 10.3433,264.873 10.5,263.5C 9.16667,263.5 7.83333,263.5 6.5,263.5C 6.21551,260.746 5.54885,258.08 4.5,255.5C 3.58317,254.873 2.58317,254.539 1.5,254.5C 1.5,254.167 1.5,253.833 1.5,253.5C 3.88389,250.083 3.88389,246.583 1.5,243C 2.61825,240.941 3.28491,238.774 3.5,236.5C 4.67504,236.281 5.67504,236.614 6.5,237.5C 4.25773,240.485 4.09106,243.485 6,246.5C 6.83718,244.649 7.67051,242.816 8.5,241C 9.60012,240.568 10.2668,241.068 10.5,242.5C 9.4204,245.326 8.4204,248.159 7.5,251C 8.44802,251.483 9.44802,251.649 10.5,251.5C 10.9429,254.624 12.6095,256.957 15.5,258.5C 16.4519,260.045 16.7852,261.712 16.5,263.5C 18.2915,263.366 19.9582,263.699 21.5,264.5C 25.3063,267.07 29.3063,269.07 33.5,270.5C 35.6282,271.629 37.9615,271.796 40.5,271C 39.695,269.887 39.0283,268.721 38.5,267.5C 39.2214,261.991 37.888,257.158 34.5,253C 35.8599,250.73 36.5266,248.23 36.5,245.5C 37.5,245.5 38.5,245.5 39.5,245.5C 39.804,242.478 40.304,239.478 41,236.5C 41.5468,239.702 42.5468,242.702 44,245.5C 44.0068,251.876 44.1735,258.209 44.5,264.5C 45.9047,265.994 47.5713,266.994 49.5,267.5C 50.8333,268.5 52.1667,269.5 53.5,270.5C 56.8347,272.197 60.3347,272.53 64,271.5C 63.4577,265.302 61.9577,259.468 59.5,254C 59.5309,250.182 60.1975,246.515 61.5,243C 60.9415,242.275 60.6082,241.442 60.5,240.5C 60.8763,238.197 61.8763,237.863 63.5,239.5C 63.7496,240.922 64.583,241.922 66,242.5C 66.3333,240.5 66.6667,238.5 67,236.5C 67.49,237.793 67.6567,239.127 67.5,240.5C 67.17,247.2 67.5033,253.866 68.5,260.5C 70.1272,264.107 72.4605,267.107 75.5,269.5C 121.5,269.5 167.5,269.5 213.5,269.5C 213.616,265.725 215.616,264.058 219.5,264.5C 219.824,267.819 221.491,270.152 224.5,271.5C 229.316,272.65 234.316,272.816 239.5,272C 240,271.5 240.5,271 241,270.5C 240.042,266.345 239.209,262.011 238.5,257.5C 238.728,255.603 239.728,254.27 241.5,253.5C 243.679,255.1 243.346,256.6 240.5,258C 241.862,260.034 242.862,262.201 243.5,264.5C 244.675,264.719 245.675,264.386 246.5,263.5C 244.876,262.131 244.376,260.464 245,258.5C 246.331,260.996 248.164,262.996 250.5,264.5C 255.578,269.247 261.578,271.081 268.5,270C 271.713,267.58 275.046,265.413 278.5,263.5C 281.554,261.447 283.887,258.781 285.5,255.5C 287.019,247.574 287.685,239.574 287.5,231.5C 287.343,230.127 287.51,228.793 288,227.5C 288.953,230.432 289.453,233.432 289.5,236.5C 292.598,236.587 292.932,236.087 290.5,235C 292.25,233.681 294.25,233.181 296.5,233.5C 296.417,241.748 296.417,249.748 296.5,257.5 Z"/></g>
<g><path style="opacity:1" fill="#a44c2f" d="M 35.5,262.5 C 36.6873,264.072 37.6873,265.739 38.5,267.5C 39.0283,268.721 39.695,269.887 40.5,271C 37.9615,271.796 35.6282,271.629 33.5,270.5C 34.9778,270.762 36.3112,270.429 37.5,269.5C 35.8287,267.49 35.162,265.157 35.5,262.5 Z"/></g>
<g><path style="opacity:1" fill="#bc6a44" d="M 232.5,257.5 C 232.833,257.5 233.167,257.5 233.5,257.5C 234.269,261.916 235.936,265.916 238.5,269.5C 233.305,269.821 228.305,269.487 223.5,268.5C 227.167,268.5 230.833,268.5 234.5,268.5C 234.606,265.921 233.939,263.588 232.5,261.5C 232.5,260.167 232.5,258.833 232.5,257.5 Z"/></g>
<g><path style="opacity:1" fill="#c06f46" d="M 70.5,257.5 C 71.8533,259.193 73.52,260.526 75.5,261.5C 76.5664,263.701 77.233,266.035 77.5,268.5C 80.1667,268.5 82.8333,268.5 85.5,268.5C 128.18,269.161 170.513,268.495 212.5,266.5C 212.833,266.5 213.167,266.5 213.5,266.5C 213.5,267.5 213.5,268.5 213.5,269.5C 167.5,269.5 121.5,269.5 75.5,269.5C 72.9301,265.913 71.2635,261.913 70.5,257.5 Z"/></g>
<g><path style="opacity:1" fill="#501611" d="M 223.5,268.5 C 228.305,269.487 233.305,269.821 238.5,269.5C 237.737,270.268 236.737,270.768 235.5,271C 231.848,271.499 228.182,271.665 224.5,271.5C 221.491,270.152 219.824,267.819 219.5,264.5C 215.616,264.058 213.616,265.725 213.5,269.5C 213.5,268.5 213.5,267.5 213.5,266.5C 214.128,263.045 216.128,261.878 219.5,263C 221.439,264.432 222.772,266.265 223.5,268.5 Z"/></g>
<g><path style="opacity:1" fill="#be4915" d="M 245.5,248.5 C 246.5,248.5 247.5,248.5 248.5,248.5C 248.5,249.833 248.5,251.167 248.5,252.5C 251.9,253.524 254.233,255.858 255.5,259.5C 257.482,260.216 259.149,261.383 260.5,263C 264.753,263.2 268.92,263.7 273,264.5C 275.339,263.27 277.506,261.937 279.5,260.5C 278.89,261.391 278.557,262.391 278.5,263.5C 275.046,265.413 271.713,267.58 268.5,270C 261.578,271.081 255.578,269.247 250.5,264.5C 248.067,260.881 246.4,256.881 245.5,252.5C 245.5,251.167 245.5,249.833 245.5,248.5 Z"/></g>
<g><path style="opacity:1" fill="#c04e1c" d="M 15.5,250.5 C 16.4745,251.635 17.6412,252.635 19,253.5C 19.2362,255.764 19.7362,257.931 20.5,260C 25.2515,262.125 30.2515,262.959 35.5,262.5C 35.162,265.157 35.8287,267.49 37.5,269.5C 36.3112,270.429 34.9778,270.762 33.5,270.5C 29.3063,269.07 25.3063,267.07 21.5,264.5C 18.9295,260.136 16.9295,255.469 15.5,250.5 Z"/></g>
<g><path style="opacity:1" fill="#49130c" d="M 68.5,238.5 C 68.8333,238.5 69.1667,238.5 69.5,238.5C 69.5,238.833 69.5,239.167 69.5,239.5C 69.2834,244.23 69.6167,248.897 70.5,253.5C 70.5,254.833 70.5,256.167 70.5,257.5C 71.2635,261.913 72.9301,265.913 75.5,269.5C 72.4605,267.107 70.1272,264.107 68.5,260.5C 67.5033,253.866 67.17,247.2 67.5,240.5C 68.3382,240.158 68.6716,239.492 68.5,238.5 Z"/></g>
<g><path style="opacity:1" fill="#df7b3e" d="M 232.5,261.5 C 233.939,263.588 234.606,265.921 234.5,268.5C 230.833,268.5 227.167,268.5 223.5,268.5C 222.772,266.265 221.439,264.432 219.5,263C 216.128,261.878 214.128,263.045 213.5,266.5C 213.167,266.5 212.833,266.5 212.5,266.5C 172.832,266.333 133.165,266.5 93.5,267C 90.6353,267.183 87.9686,267.683 85.5,268.5C 82.8333,268.5 80.1667,268.5 77.5,268.5C 77.233,266.035 76.5664,263.701 75.5,261.5C 116.501,261.667 157.501,261.5 198.5,261C 200.979,257.001 203.979,256.501 207.5,259.5C 209.959,258.436 212.292,257.102 214.5,255.5C 215.235,257.073 216.401,258.407 218,259.5C 219.482,257.888 221.315,256.888 223.5,256.5C 223.5,257.833 223.5,259.167 223.5,260.5C 226.455,261.159 229.455,261.492 232.5,261.5 Z"/></g>
<g><path style="opacity:1" fill="#de7d4d" d="M 212.5,266.5 C 170.513,268.495 128.18,269.161 85.5,268.5C 87.9686,267.683 90.6353,267.183 93.5,267C 133.165,266.5 172.832,266.333 212.5,266.5 Z"/></g>
<g><path style="opacity:1" fill="#ad3312" d="M 46.5,240.5 C 46.8333,240.5 47.1667,240.5 47.5,240.5C 47.5,242.833 47.5,245.167 47.5,247.5C 47.8333,251.5 48.1667,255.5 48.5,259.5C 49.5,259.5 50.5,259.5 51.5,259.5C 51.4661,262.199 52.1328,264.699 53.5,267C 54.3317,267.688 54.9984,267.521 55.5,266.5C 54.5721,265.232 54.4054,263.899 55,262.5C 56.2365,264.104 57.4032,265.771 58.5,267.5C 59.4287,266.311 59.762,264.978 59.5,263.5C 61.0072,265.289 62.3405,267.289 63.5,269.5C 60.2317,270.487 56.8984,270.82 53.5,270.5C 52.1667,269.5 50.8333,268.5 49.5,267.5C 48.2171,265.394 47.3838,263.06 47,260.5C 46.5004,253.842 46.3337,247.175 46.5,240.5 Z"/></g>
<g><path style="opacity:1" fill="#bc390b" d="M 15.5,240.5 C 22.1667,240.5 28.8333,240.5 35.5,240.5C 35.5,242.167 35.5,243.833 35.5,245.5C 33.1432,245.337 30.8098,245.503 28.5,246C 22.8491,254.511 25.1824,258.678 35.5,258.5C 35.5,259.833 35.5,261.167 35.5,262.5C 30.2515,262.959 25.2515,262.125 20.5,260C 19.7362,257.931 19.2362,255.764 19,253.5C 17.6412,252.635 16.4745,251.635 15.5,250.5C 15.5,250.167 15.5,249.833 15.5,249.5C 15.5,246.5 15.5,243.5 15.5,240.5 Z"/></g>
<g><path style="opacity:1" fill="#c03c0a" d="M 265.5,237.5 C 265.5,238.5 265.5,239.5 265.5,240.5C 272.167,240.5 278.833,240.5 285.5,240.5C 286.087,248.062 284.087,254.728 279.5,260.5C 277.506,261.937 275.339,263.27 273,264.5C 268.92,263.7 264.753,263.2 260.5,263C 259.149,261.383 257.482,260.216 255.5,259.5C 254.233,255.858 251.9,253.524 248.5,252.5C 248.5,251.167 248.5,249.833 248.5,248.5C 251.89,247.056 253.223,244.39 252.5,240.5C 252.833,240.5 253.167,240.5 253.5,240.5C 253.242,244.367 253.908,248.034 255.5,251.5C 256.203,253.716 257.536,255.549 259.5,257C 263.5,257.667 267.5,257.667 271.5,257C 272.823,256.184 273.489,255.017 273.5,253.5C 274.281,246.28 271.281,243.947 264.5,246.5C 264.19,243.287 264.523,240.287 265.5,237.5 Z"/></g>
<g><path style="opacity:1" fill="#962b19" d="M 255.5,251.5 C 256.833,252.5 258.167,253.5 259.5,254.5C 264.377,257.403 269.044,257.07 273.5,253.5C 273.489,255.017 272.823,256.184 271.5,257C 267.5,257.667 263.5,257.667 259.5,257C 257.536,255.549 256.203,253.716 255.5,251.5 Z"/></g>
<g><path style="opacity:1" fill="#bf3608" d="M 55.5,240.5 C 55.8333,240.5 56.1667,240.5 56.5,240.5C 56.1888,245.766 56.8554,250.766 58.5,255.5C 58.5751,258.206 58.9084,260.873 59.5,263.5C 59.762,264.978 59.4287,266.311 58.5,267.5C 57.4032,265.771 56.2365,264.104 55,262.5C 54.4054,263.899 54.5721,265.232 55.5,266.5C 54.9984,267.521 54.3317,267.688 53.5,267C 52.1328,264.699 51.4661,262.199 51.5,259.5C 50.5,259.5 49.5,259.5 48.5,259.5C 48.1667,255.5 47.8333,251.5 47.5,247.5C 49.9128,249.051 52.5794,249.717 55.5,249.5C 55.5,246.5 55.5,243.5 55.5,240.5 Z"/></g>
<g><path style="opacity:1" fill="#d76829" d="M 167.5,248.5 C 186.17,248.667 204.836,248.5 223.5,248C 226.358,246.306 228.691,244.139 230.5,241.5C 231.037,246.851 231.704,252.184 232.5,257.5C 232.5,258.833 232.5,260.167 232.5,261.5C 229.455,261.492 226.455,261.159 223.5,260.5C 223.5,259.167 223.5,257.833 223.5,256.5C 221.315,256.888 219.482,257.888 218,259.5C 216.401,258.407 215.235,257.073 214.5,255.5C 212.292,257.102 209.959,258.436 207.5,259.5C 203.979,256.501 200.979,257.001 198.5,261C 157.501,261.5 116.501,261.667 75.5,261.5C 73.52,260.526 71.8533,259.193 70.5,257.5C 70.5,256.167 70.5,254.833 70.5,253.5C 71.1614,252.282 71.8281,250.949 72.5,249.5C 73.8159,252.028 74.9826,252.028 76,249.5C 76.8926,250.081 77.8926,250.415 79,250.5C 89.4774,249.725 99.9774,249.225 110.5,249C 111.88,246.481 113.213,243.981 114.5,241.5C 115.363,243.771 115.363,246.105 114.5,248.5C 115.5,248.5 116.5,248.5 117.5,248.5C 121.298,249.483 125.298,249.817 129.5,249.5C 131.057,236.371 133.057,236.371 135.5,249.5C 146.19,249.679 156.857,249.345 167.5,248.5 Z"/></g>
<g><path style="opacity:1" fill="#d3783a" d="M 117.5,248.5 C 116.5,248.5 115.5,248.5 114.5,248.5C 115.363,246.105 115.363,243.771 114.5,241.5C 113.213,243.981 111.88,246.481 110.5,249C 99.9774,249.225 89.4774,249.725 79,250.5C 77.8926,250.415 76.8926,250.081 76,249.5C 74.9826,252.028 73.8159,252.028 72.5,249.5C 71.8281,250.949 71.1614,252.282 70.5,253.5C 69.6167,248.897 69.2834,244.23 69.5,239.5C 70.4238,242.565 72.0905,245.231 74.5,247.5C 86.1524,248.666 97.8191,248.833 109.5,248C 110.133,244.541 110.8,241.041 111.5,237.5C 113.371,236.233 115.204,236.233 117,237.5C 117.499,241.152 117.665,244.818 117.5,248.5 Z"/></g>
<g><path style="opacity:1" fill="#d1520b" d="M 244.5,240.5 C 244.833,240.5 245.167,240.5 245.5,240.5C 247.833,240.5 250.167,240.5 252.5,240.5C 253.223,244.39 251.89,247.056 248.5,248.5C 247.5,248.5 246.5,248.5 245.5,248.5C 244.612,245.946 244.279,243.279 244.5,240.5 Z"/></g>
<g><path style="opacity:1" fill="#d85a08" d="M 47.5,240.5 C 47.8333,240.5 48.1667,240.5 48.5,240.5C 50.8333,240.5 53.1667,240.5 55.5,240.5C 55.5,243.5 55.5,246.5 55.5,249.5C 52.5794,249.717 49.9128,249.051 47.5,247.5C 47.5,245.167 47.5,242.833 47.5,240.5 Z"/></g>
<g><path style="opacity:1" fill="#360e11" d="M 259.5,254.5 C 257.768,251.533 256.435,248.366 255.5,245C 256.45,242.09 258.45,240.923 261.5,241.5C 261.543,244.088 262.543,246.254 264.5,248C 266.035,248.496 267.535,248.33 269,247.5C 273.452,249.26 273.619,251.426 269.5,254C 267.782,254.346 266.115,254.846 264.5,255.5C 262.929,254.691 261.262,254.357 259.5,254.5 Z"/></g>
<g><path style="opacity:1" fill="#e69f56" d="M 79.5,237.5 C 81.8333,237.5 84.1667,237.5 86.5,237.5C 86.6148,242.328 84.4481,243.661 80,241.5C 79.51,240.207 79.3433,238.873 79.5,237.5 Z"/></g>
<g><path style="opacity:1" fill="#dc8540" d="M 167.5,248.5 C 156.857,249.345 146.19,249.679 135.5,249.5C 133.057,236.371 131.057,236.371 129.5,249.5C 125.298,249.817 121.298,249.483 117.5,248.5C 120.518,248.665 123.518,248.498 126.5,248C 128.101,244.733 128.934,241.233 129,237.5C 131.333,236.167 133.667,236.167 136,237.5C 136.207,241.089 136.707,244.589 137.5,248C 145.159,248.5 152.826,248.666 160.5,248.5C 160.177,244.774 160.511,241.107 161.5,237.5C 163.371,236.233 165.204,236.233 167,237.5C 167.499,241.152 167.665,244.818 167.5,248.5 Z"/></g>
<g><path style="opacity:0.134" fill="#68332b" d="M 249.5,283.5 C 191.875,283.393 134.208,283.559 76.5,284C 67.1337,284.248 57.8003,284.748 48.5,285.5C 48.8807,284.069 49.8807,283.236 51.5,283C 117.668,282.168 183.668,282.335 249.5,283.5 Z"/></g>
<g><path style="opacity:0.102" fill="#c6a78d" d="M 289.5,285.5 C 290.5,285.5 291.5,285.5 292.5,285.5C 291.754,289.31 290.754,289.31 289.5,285.5 Z"/></g>
<g><path style="opacity:0.714" fill="#c9a38b" d="M 10.5,284.5 C 11.8333,284.5 13.1667,284.5 14.5,284.5C 14.6633,286.857 14.4966,289.19 14,291.5C 10.2124,290.267 9.04578,287.934 10.5,284.5 Z"/></g>
<g><path style="opacity:0.02" fill="#f0e7df" d="M 277.5,294.5 C 279.018,292.397 280.685,292.23 282.5,294C 280.866,294.494 279.199,294.66 277.5,294.5 Z"/></g>
<g><path style="opacity:0.006" fill="#ffdbc4" d="M 32.5,294.5 C 33.7562,294.461 34.7562,294.961 35.5,296C 34.1667,296.667 32.8333,296.667 31.5,296C 32.056,295.617 32.3893,295.117 32.5,294.5 Z"/></g>
<g><path style="opacity:0.004" fill="#fefffe" d="M 277.5,294.5 C 276.833,295.167 276.833,295.167 277.5,294.5 Z"/></g>
<g><path style="opacity:0.12" fill="#fbe9d2" d="M 267.5,294.5 C 277.852,294.5 277.852,295.5 267.5,297.5C 267.5,296.5 267.5,295.5 267.5,294.5 Z"/></g>
<g><path style="opacity:0.051" fill="#e6beab" d="M 241.5,299.5 C 235.5,299.5 229.5,299.5 223.5,299.5C 223.5,299.167 223.5,298.833 223.5,298.5C 223.5,298.167 223.5,297.833 223.5,297.5C 229.162,297.904 234.662,297.238 240,295.5C 243.74,295.954 244.24,297.287 241.5,299.5 Z"/></g>
<g><path style="opacity:0.004" fill="#fffeb3" d="M 252.5,296.5 C 254.337,296.639 254.67,297.306 253.5,298.5C 252.702,298.043 252.369,297.376 252.5,296.5 Z"/></g>
<g><path style="opacity:0.004" fill="#c8c8c8" d="M 223.5,297.5 C 223.5,297.833 223.5,298.167 223.5,298.5C 222.833,298.5 222.5,298.833 222.5,299.5C 221.833,299.5 221.167,299.5 220.5,299.5C 220.389,298.883 220.056,298.383 219.5,298C 220.793,297.51 222.127,297.343 223.5,297.5 Z"/></g>
<g><path style="opacity:0.196" fill="#d7b69e" d="M 126.5,299.5 C 105.5,299.5 84.5,299.5 63.5,299.5C 57.9696,298.725 52.3029,297.891 46.5,297C 50.6809,294.105 55.3476,292.938 60.5,293.5C 67.3571,293.571 74.0238,294.738 80.5,297C 96.029,297.127 111.362,297.961 126.5,299.5 Z"/></g>
<g><path style="opacity:0.076" fill="#d8b9a5" d="M 218.5,299.5 C 204.167,299.5 189.833,299.5 175.5,299.5C 188.173,298.746 201.006,298.08 214,297.5C 215.986,297.569 217.486,298.235 218.5,299.5 Z"/></g>
</svg>
