<?xml version="1.0" encoding="UTF-8"?>
<!DOCTYPE svg PUBLIC "-//W3C//DTD SVG 1.1//EN" "http://www.w3.org/Graphics/SVG/1.1/DTD/svg11.dtd">
<svg xmlns="http://www.w3.org/2000/svg" version="1.1" width="108px" height="125px" style="shape-rendering:geometricPrecision; text-rendering:geometricPrecision; image-rendering:optimizeQuality; fill-rule:evenodd; clip-rule:evenodd" xmlns:xlink="http://www.w3.org/1999/xlink">
<g><path style="opacity:0.322" fill="#aa8b87" d="M 55.5,-0.5 C 58.1667,-0.5 60.8333,-0.5 63.5,-0.5C 63.9528,0.458367 64.6195,1.2917 65.5,2C 69.1516,2.49863 72.8183,2.6653 76.5,2.5C 76.5,2.83333 76.5,3.16667 76.5,3.5C 72.5,3.5 68.5,3.5 64.5,3.5C 61.7089,-0.24777 58.7089,-0.414437 55.5,3C 42.6599,3.82671 29.9933,3.66004 17.5,2.5C 29.8513,2.83236 42.1847,2.49903 54.5,1.5C 54.8627,0.816537 55.1961,0.14987 55.5,-0.5 Z"/></g>
<g><path style="opacity:0.098" fill="#609a86" d="M 76.5,3.5 C 76.5,3.16667 76.5,2.83333 76.5,2.5C 85.8393,2.33355 95.1726,2.50021 104.5,3C 105.756,3.41691 106.423,4.25025 106.5,5.5C 106.167,5.5 105.833,5.5 105.5,5.5C 104.527,5.01328 103.527,4.51328 102.5,4C 93.8397,3.50025 85.1731,3.33358 76.5,3.5 Z"/></g>
<g><path style="opacity:1" fill="#4f7ea1" d="M 57.5,8.5 C 57.5,8.83333 57.5,9.16667 57.5,9.5C 44.1667,9.5 30.8333,9.5 17.5,9.5C 17.5,7.83333 17.5,6.16667 17.5,4.5C 29.8378,4.33346 42.1712,4.50012 54.5,5C 55.7101,6.0391 56.7101,7.20577 57.5,8.5 Z"/></g>
<g><path style="opacity:1" fill="#2e5d7b" d="M 64.5,4.5 C 70.2195,3.23288 74.5528,4.89955 77.5,9.5C 70.8333,9.5 64.1667,9.5 57.5,9.5C 57.5,9.16667 57.5,8.83333 57.5,8.5C 60.9811,8.93254 63.3144,7.59921 64.5,4.5 Z"/></g>
<g><path style="opacity:1" fill="#4d7c98" d="M 64.5,4.5 C 64.5,4.16667 64.5,3.83333 64.5,3.5C 68.5,3.5 72.5,3.5 76.5,3.5C 85.1731,3.33358 93.8397,3.50025 102.5,4C 103.527,4.51328 104.527,5.01328 105.5,5.5C 105.5,6.83333 105.5,8.16667 105.5,9.5C 96.1667,9.5 86.8333,9.5 77.5,9.5C 74.5528,4.89955 70.2195,3.23288 64.5,4.5 Z"/></g>
<g><path style="opacity:1" fill="#6f83a1" d="M 64.5,3.5 C 64.5,3.83333 64.5,4.16667 64.5,4.5C 63.3144,7.59921 60.9811,8.93254 57.5,8.5C 56.7101,7.20577 55.7101,6.0391 54.5,5C 42.1712,4.50012 29.8378,4.33346 17.5,4.5C 17.5,6.16667 17.5,7.83333 17.5,9.5C 17.1667,9.5 16.8333,9.5 16.5,9.5C 16.1667,9.5 15.8333,9.5 15.5,9.5C 15.3379,7.4727 15.5045,5.4727 16,3.5C 16.3826,2.94404 16.8826,2.61071 17.5,2.5C 29.9933,3.66004 42.6599,3.82671 55.5,3C 58.7089,-0.414437 61.7089,-0.24777 64.5,3.5 Z"/></g>
<g><path style="opacity:1" fill="#848269" d="M 105.5,5.5 C 105.833,5.5 106.167,5.5 106.5,5.5C 106.5,7.16667 106.5,8.83333 106.5,10.5C 76.3287,10.8314 46.3287,10.4981 16.5,9.5C 16.8333,9.5 17.1667,9.5 17.5,9.5C 30.8333,9.5 44.1667,9.5 57.5,9.5C 64.1667,9.5 70.8333,9.5 77.5,9.5C 86.8333,9.5 96.1667,9.5 105.5,9.5C 105.5,8.16667 105.5,6.83333 105.5,5.5 Z"/></g>
<g><path style="opacity:1" fill="#f7ad3c" d="M 15.5,9.5 C 15.8333,9.5 16.1667,9.5 16.5,9.5C 46.3287,10.4981 76.3287,10.8314 106.5,10.5C 106.5,11.1667 106.833,11.5 107.5,11.5C 107.5,12.1667 107.5,12.8333 107.5,13.5C 106.814,14.8484 105.814,16.015 104.5,17C 75.1667,17.6667 45.8333,17.6667 16.5,17C 15.4178,15.6703 14.7512,14.1703 14.5,12.5C 14.5569,11.391 14.8902,10.391 15.5,9.5 Z"/></g>
<g><path style="opacity:1" fill="#da793e" d="M 14.5,12.5 C 14.7512,14.1703 15.4178,15.6703 16.5,17C 45.8333,17.6667 75.1667,17.6667 104.5,17C 105.814,16.015 106.814,14.8484 107.5,13.5C 107.5,14.8333 107.5,16.1667 107.5,17.5C 106.833,18.1667 106.167,18.8333 105.5,19.5C 75.8333,19.5 46.1667,19.5 16.5,19.5C 13.782,17.6183 13.1153,15.2849 14.5,12.5 Z"/></g>
<g><path style="opacity:1" fill="#826a65" d="M 16.5,19.5 C 46.1667,19.5 75.8333,19.5 105.5,19.5C 105.5,30.1667 105.5,40.8333 105.5,51.5C 104.506,41.3468 104.172,31.0135 104.5,20.5C 101.5,20.5 98.5,20.5 95.5,20.5C 72.8333,20.5 50.1667,20.5 27.5,20.5C 27.1667,20.5 26.8333,20.5 26.5,20.5C 23.5,20.5 20.5,20.5 17.5,20.5C 17.5,27.5 17.5,34.5 17.5,41.5C 17.1667,41.5 16.8333,41.5 16.5,41.5C 16.5,34.1667 16.5,26.8333 16.5,19.5 Z"/></g>
<g><path style="opacity:1" fill="#c0babc" d="M 27.5,21.5 C 27.5,21.1667 27.5,20.8333 27.5,20.5C 50.1667,20.5 72.8333,20.5 95.5,20.5C 95.5,22.1667 95.5,23.8333 95.5,25.5C 95.1667,25.5 94.8333,25.5 94.5,25.5C 94.5,24.1667 94.5,22.8333 94.5,21.5C 72.1667,21.5 49.8333,21.5 27.5,21.5 Z"/></g>
<g><path style="opacity:0.999" fill="#4e7d9e" d="M 26.5,20.5 C 26.6666,42.5025 26.5,64.5025 26,86.5C 25.1841,85.1772 24.0174,84.5106 22.5,84.5C 20.5659,83.8897 18.8993,82.8897 17.5,81.5C 17.5,81.1667 17.5,80.8333 17.5,80.5C 17.5,67.5 17.5,54.5 17.5,41.5C 17.5,34.5 17.5,27.5 17.5,20.5C 20.5,20.5 23.5,20.5 26.5,20.5 Z"/></g>
<g><path style="opacity:1" fill="#ddd7d1" d="M 27.5,21.5 C 49.8333,21.5 72.1667,21.5 94.5,21.5C 94.5,22.8333 94.5,24.1667 94.5,25.5C 73.5,25.5 52.5,25.5 31.5,25.5C 31.1783,47.242 31.5116,68.9087 32.5,90.5C 30.5659,89.8897 28.8993,88.8897 27.5,87.5C 27.5,65.5 27.5,43.5 27.5,21.5 Z"/></g>
<g><path style="opacity:1" fill="#fbf6ea" d="M 94.5,25.5 C 94.6666,38.1711 94.4999,50.8377 94,63.5C 86.483,55.0938 78.983,46.7605 71.5,38.5C 70.8501,38.1961 70.1835,37.8627 69.5,37.5C 68.1482,38.5244 66.8149,39.5244 65.5,40.5C 65.8747,37.0933 64.8747,36.5933 62.5,39C 57.5333,43.1242 53.5333,47.9575 50.5,53.5C 47.952,57.2627 45.952,61.2627 44.5,65.5C 42.716,66.5738 41.5494,68.2404 41,70.5C 40.1955,73.6965 40.3622,76.6965 41.5,79.5C 41.5,81.5 41.5,83.5 41.5,85.5C 42.8333,85.5 44.1667,85.5 45.5,85.5C 46.2905,86.4013 47.2905,87.0679 48.5,87.5C 49.8333,88.8333 51.1667,90.1667 52.5,91.5C 55.2956,94.7974 58.2956,97.9641 61.5,101C 57.1132,101.706 52.7799,101.54 48.5,100.5C 45.1835,98.8627 41.8501,97.1961 38.5,95.5C 38.1667,94.5 37.5,93.8333 36.5,93.5C 35.1283,92.4884 33.795,91.4884 32.5,90.5C 31.5116,68.9087 31.1783,47.242 31.5,25.5C 52.5,25.5 73.5,25.5 94.5,25.5 Z"/></g>
<g><path style="opacity:1" fill="#4c7a9a" d="M 95.5,20.5 C 98.5,20.5 101.5,20.5 104.5,20.5C 104.172,31.0135 104.506,41.3468 105.5,51.5C 105.5,58.5 105.5,65.5 105.5,72.5C 102.421,70.5332 99.5881,68.1999 97,65.5C 96.8309,78.34 96.3309,91.0066 95.5,103.5C 95.5,77.5 95.5,51.5 95.5,25.5C 95.5,23.8333 95.5,22.1667 95.5,20.5 Z"/></g>
<g><path style="opacity:1" fill="#e4b652" d="M 71.5,38.5 C 71.5,39.8333 71.5,41.1667 71.5,42.5C 70.2422,45.7722 69.0755,49.1056 68,52.5C 67.3028,54.5844 66.1361,56.2511 64.5,57.5C 63.9569,57.44 63.6236,57.1067 63.5,56.5C 65.1844,51.3113 65.8511,45.978 65.5,40.5C 66.8149,39.5244 68.1482,38.5244 69.5,37.5C 70.1835,37.8627 70.8501,38.1961 71.5,38.5 Z"/></g>
<g><path style="opacity:1" fill="#51a29c" d="M 65.5,40.5 C 65.8511,45.978 65.1844,51.3113 63.5,56.5C 63.6236,57.1067 63.9569,57.44 64.5,57.5C 63.3995,58.6049 62.7329,59.9382 62.5,61.5C 60.3712,64.0955 59.0378,67.0955 58.5,70.5C 58.1667,71.5 57.5,72.1667 56.5,72.5C 56.5394,71.4168 56.8728,70.4168 57.5,69.5C 55.5658,64.3042 54.2324,58.9708 53.5,53.5C 52.5,53.5 51.5,53.5 50.5,53.5C 53.5333,47.9575 57.5333,43.1242 62.5,39C 64.8747,36.5933 65.8747,37.0933 65.5,40.5 Z"/></g>
<g><path style="opacity:0.48" fill="#4a7d86" d="M 16.5,41.5 C 16.8333,41.5 17.1667,41.5 17.5,41.5C 17.5,54.5 17.5,67.5 17.5,80.5C 16.5,80.1667 15.8333,79.5 15.5,78.5C 16.0451,66.1737 16.3784,53.8404 16.5,41.5 Z"/></g>
<g><path style="opacity:1" fill="#425865" d="M 71.5,42.5 C 72.841,47.4707 72.5077,52.4707 70.5,57.5C 67.5498,58.3084 64.8831,59.6418 62.5,61.5C 62.7329,59.9382 63.3995,58.6049 64.5,57.5C 66.1361,56.2511 67.3028,54.5844 68,52.5C 69.0755,49.1056 70.2422,45.7722 71.5,42.5 Z"/></g>
<g><path style="opacity:1" fill="#dcd8d3" d="M 94.5,25.5 C 94.8333,25.5 95.1667,25.5 95.5,25.5C 95.5,51.5 95.5,77.5 95.5,103.5C 80.5,103.5 65.5,103.5 50.5,103.5C 50.5,103.167 50.5,102.833 50.5,102.5C 63.8333,102.5 77.1667,102.5 90.5,102.5C 90.6664,94.8261 90.4997,87.1594 90,79.5C 79.8777,91.3158 67.3777,95.3158 52.5,91.5C 51.1667,90.1667 49.8333,88.8333 48.5,87.5C 54.1136,87.927 59.4469,87.2604 64.5,85.5C 68.5384,84.9802 71.8717,83.1469 74.5,80C 70.8484,79.5014 67.1817,79.3347 63.5,79.5C 64.3065,78.2719 65.3065,77.2719 66.5,76.5C 70.9854,72.7127 74.6521,68.2127 77.5,63C 77.2716,62.6012 76.9382,62.4346 76.5,62.5C 79.8413,61.5204 81.508,59.1871 81.5,55.5C 77.7512,55.7506 74.0845,56.4172 70.5,57.5C 72.5077,52.4707 72.841,47.4707 71.5,42.5C 71.5,41.1667 71.5,39.8333 71.5,38.5C 78.983,46.7605 86.483,55.0938 94,63.5C 94.4999,50.8377 94.6666,38.1711 94.5,25.5 Z"/></g>
<g><path style="opacity:1" fill="#26809f" d="M 50.5,53.5 C 51.5,53.5 52.5,53.5 53.5,53.5C 54.2324,58.9708 55.5658,64.3042 57.5,69.5C 56.8728,70.4168 56.5394,71.4168 56.5,72.5C 55.5272,71.2086 54.5272,71.2086 53.5,72.5C 52.8319,70.0312 52.1653,67.6979 51.5,65.5C 49.2752,64.6679 47.9419,65.6679 47.5,68.5C 46.5,69.1667 45.5,69.8333 44.5,70.5C 44.5,68.8333 44.5,67.1667 44.5,65.5C 45.952,61.2627 47.952,57.2627 50.5,53.5 Z"/></g>
<g><path style="opacity:1" fill="#efb348" d="M 76.5,62.5 C 70.4691,65.1692 64.4691,67.8359 58.5,70.5C 59.0378,67.0955 60.3712,64.0955 62.5,61.5C 64.8831,59.6418 67.5498,58.3084 70.5,57.5C 74.0845,56.4172 77.7512,55.7506 81.5,55.5C 81.508,59.1871 79.8413,61.5204 76.5,62.5 Z"/></g>
<g><path style="opacity:1" fill="#808f9e" d="M 26.5,20.5 C 26.8333,20.5 27.1667,20.5 27.5,20.5C 27.5,20.8333 27.5,21.1667 27.5,21.5C 27.5,43.5 27.5,65.5 27.5,87.5C 25.0672,87.7271 23.4006,86.7271 22.5,84.5C 24.0174,84.5106 25.1841,85.1772 26,86.5C 26.5,64.5025 26.6666,42.5025 26.5,20.5 Z"/></g>
<g><path style="opacity:1" fill="#c7b25d" d="M 51.5,65.5 C 51.8128,69.0419 51.4794,72.3752 50.5,75.5C 50.8134,72.7531 50.48,70.0865 49.5,67.5C 48.8165,67.8627 48.1499,68.1961 47.5,68.5C 47.9419,65.6679 49.2752,64.6679 51.5,65.5 Z"/></g>
<g><path style="opacity:1" fill="#376473" d="M 44.5,65.5 C 44.5,67.1667 44.5,68.8333 44.5,70.5C 43.8333,72.8333 43.1667,75.1667 42.5,77.5C 41.6618,77.8417 41.3284,78.5084 41.5,79.5C 40.3622,76.6965 40.1955,73.6965 41,70.5C 41.5494,68.2404 42.716,66.5738 44.5,65.5 Z"/></g>
<g><path style="opacity:1" fill="#325969" d="M 76.5,62.5 C 76.9382,62.4346 77.2716,62.6012 77.5,63C 74.6521,68.2127 70.9854,72.7127 66.5,76.5C 66.33,75.1779 66.6634,74.0113 67.5,73C 65.6131,72.2204 63.9464,72.3871 62.5,73.5C 59.284,73.3455 56.6174,74.3455 54.5,76.5C 53.1667,77.1667 51.8333,77.8333 50.5,78.5C 50.5,77.8333 50.5,77.1667 50.5,76.5C 50.5,76.1667 50.5,75.8333 50.5,75.5C 51.4794,72.3752 51.8128,69.0419 51.5,65.5C 52.1653,67.6979 52.8319,70.0312 53.5,72.5C 54.5272,71.2086 55.5272,71.2086 56.5,72.5C 57.5,72.1667 58.1667,71.5 58.5,70.5C 64.4691,67.8359 70.4691,65.1692 76.5,62.5 Z"/></g>
<g><path style="opacity:0.353" fill="#886323" d="M -0.5,74.5 C 0.166667,74.5 0.833333,74.5 1.5,74.5C 2.23411,75.7079 2.56745,77.0413 2.5,78.5C 1.5,77.8333 0.5,77.1667 -0.5,76.5C -0.5,75.8333 -0.5,75.1667 -0.5,74.5 Z"/></g>
<g><path style="opacity:0.624" fill="#c6bf95" d="M 1.5,74.5 C 4.22817,74.1706 6.5615,74.8372 8.5,76.5C 6.71199,76.2148 5.04533,76.5481 3.5,77.5C 4.17444,79.1955 4.8411,80.8621 5.5,82.5C 3.55437,81.9653 2.55437,80.632 2.5,78.5C 2.56745,77.0413 2.23411,75.7079 1.5,74.5 Z"/></g>
<g><path style="opacity:1" fill="#a69c5f" d="M 62.5,73.5 C 60.064,74.871 57.3973,75.871 54.5,76.5C 56.6174,74.3455 59.284,73.3455 62.5,73.5 Z"/></g>
<g><path style="opacity:1" fill="#efbc49" d="M 62.5,73.5 C 63.675,73.281 64.675,73.6143 65.5,74.5C 64.6872,75.8139 63.6872,76.9805 62.5,78C 58.1518,79.3794 54.1518,81.2127 50.5,83.5C 49.5,83.5 48.5,83.5 47.5,83.5C 46.7611,83.631 46.0944,83.4643 45.5,83C 47.6175,81.9509 49.2842,80.4509 50.5,78.5C 51.8333,77.8333 53.1667,77.1667 54.5,76.5C 57.3973,75.871 60.064,74.871 62.5,73.5 Z"/></g>
<g><path style="opacity:1" fill="#f0b943" d="M 50.5,75.5 C 50.5,75.8333 50.5,76.1667 50.5,76.5C 48.4649,78.7087 46.1316,80.7087 43.5,82.5C 42.5481,80.9547 42.2148,79.288 42.5,77.5C 43.1667,75.1667 43.8333,72.8333 44.5,70.5C 45.5,69.8333 46.5,69.1667 47.5,68.5C 48.1499,68.1961 48.8165,67.8627 49.5,67.5C 50.48,70.0865 50.8134,72.7531 50.5,75.5 Z"/></g>
<g><path style="opacity:1" fill="#758563" d="M 62.5,73.5 C 63.9464,72.3871 65.6131,72.2204 67.5,73C 66.6634,74.0113 66.33,75.1779 66.5,76.5C 65.3065,77.2719 64.3065,78.2719 63.5,79.5C 59.1667,80.8333 54.8333,82.1667 50.5,83.5C 54.1518,81.2127 58.1518,79.3794 62.5,78C 63.6872,76.9805 64.6872,75.8139 65.5,74.5C 64.675,73.6143 63.675,73.281 62.5,73.5 Z"/></g>
<g><path style="opacity:1" fill="#ece8de" d="M 8.5,76.5 C 10.099,76.2322 11.4324,76.5655 12.5,77.5C 11.5202,80.1161 10.0202,82.4494 8,84.5C 7.32924,83.7476 6.4959,83.4142 5.5,83.5C 5.5,83.1667 5.5,82.8333 5.5,82.5C 4.8411,80.8621 4.17444,79.1955 3.5,77.5C 5.04533,76.5481 6.71199,76.2148 8.5,76.5 Z"/></g>
<g><path style="opacity:1" fill="#9b7644" d="M 50.5,76.5 C 50.5,77.1667 50.5,77.8333 50.5,78.5C 49.2842,80.4509 47.6175,81.9509 45.5,83C 46.0944,83.4643 46.7611,83.631 47.5,83.5C 47.5,83.8333 47.5,84.1667 47.5,84.5C 46.5084,84.3284 45.8417,84.6618 45.5,85.5C 44.1667,85.5 42.8333,85.5 41.5,85.5C 41.5,83.5 41.5,81.5 41.5,79.5C 41.3284,78.5084 41.6618,77.8417 42.5,77.5C 42.2148,79.288 42.5481,80.9547 43.5,82.5C 46.1316,80.7087 48.4649,78.7087 50.5,76.5 Z"/></g>
<g><path style="opacity:1" fill="#3d97a4" d="M 63.5,79.5 C 67.1817,79.3347 70.8484,79.5014 74.5,80C 71.8717,83.1469 68.5384,84.9802 64.5,85.5C 58.773,85.7402 53.1064,85.4069 47.5,84.5C 47.5,84.1667 47.5,83.8333 47.5,83.5C 48.5,83.5 49.5,83.5 50.5,83.5C 54.8333,82.1667 59.1667,80.8333 63.5,79.5 Z"/></g>
<g><path style="opacity:0.997" fill="#cc5e55" d="M 12.5,77.5 C 13.609,77.5569 14.609,77.8902 15.5,78.5C 15.8333,79.5 16.5,80.1667 17.5,80.5C 17.5,80.8333 17.5,81.1667 17.5,81.5C 15.8632,80.7822 14.1966,80.6155 12.5,81C 11.2089,82.2917 11.2089,83.4583 12.5,84.5C 11.8166,86.1765 10.4832,86.8432 8.5,86.5C 6.85637,86.1898 5.85637,85.1898 5.5,83.5C 6.4959,83.4142 7.32924,83.7476 8,84.5C 10.0202,82.4494 11.5202,80.1161 12.5,77.5 Z"/></g>
<g><path style="opacity:1" fill="#f0564d" d="M 17.5,81.5 C 18.8993,82.8897 20.5659,83.8897 22.5,84.5C 23.4006,86.7271 25.0672,87.7271 27.5,87.5C 28.8993,88.8897 30.5659,89.8897 32.5,90.5C 33.795,91.4884 35.1283,92.4884 36.5,93.5C 36.826,96.7572 35.4927,98.2572 32.5,98C 25.9521,93.2785 19.2854,88.7785 12.5,84.5C 11.2089,83.4583 11.2089,82.2917 12.5,81C 14.1966,80.6155 15.8632,80.7822 17.5,81.5 Z"/></g>
<g><path style="opacity:1" fill="#2e6d85" d="M 47.5,84.5 C 53.1064,85.4069 58.773,85.7402 64.5,85.5C 59.4469,87.2604 54.1136,87.927 48.5,87.5C 47.2905,87.0679 46.2905,86.4013 45.5,85.5C 45.8417,84.6618 46.5084,84.3284 47.5,84.5 Z"/></g>
<g><path style="opacity:1" fill="#c94345" d="M 12.5,84.5 C 19.2854,88.7785 25.9521,93.2785 32.5,98C 35.4927,98.2572 36.826,96.7572 36.5,93.5C 37.5,93.8333 38.1667,94.5 38.5,95.5C 37.2993,97.9095 35.6326,99.9095 33.5,101.5C 31.3146,101.296 29.3146,100.63 27.5,99.5C 25.1401,97.1468 22.4735,95.1468 19.5,93.5C 18.791,92.596 17.791,92.2627 16.5,92.5C 13.795,90.4884 11.1283,88.4884 8.5,86.5C 10.4832,86.8432 11.8166,86.1765 12.5,84.5 Z"/></g>
<g><path style="opacity:1" fill="#f2ebe1" d="M 50.5,102.5 C 49.5,102.167 48.8333,101.5 48.5,100.5C 52.7799,101.54 57.1132,101.706 61.5,101C 58.2956,97.9641 55.2956,94.7974 52.5,91.5C 67.3777,95.3158 79.8777,91.3158 90,79.5C 90.4997,87.1594 90.6664,94.8261 90.5,102.5C 77.1667,102.5 63.8333,102.5 50.5,102.5 Z"/></g>
<g><path style="opacity:1" fill="#c4b5b8" d="M 27.5,99.5 C 29.3146,100.63 31.3146,101.296 33.5,101.5C 33.5,101.833 33.5,102.167 33.5,102.5C 31.5,102.5 29.5,102.5 27.5,102.5C 27.5,101.5 27.5,100.5 27.5,99.5 Z"/></g>
<g><path style="opacity:0.345" fill="#634e67" d="M 105.5,88.5 C 106.111,100.087 105.444,111.42 103.5,122.5C 102.833,122.5 102.5,122.167 102.5,121.5C 104.121,110.575 105.121,99.5747 105.5,88.5 Z"/></g>
<g><path style="opacity:1" fill="#4d7d9f" d="M 19.5,93.5 C 22.4735,95.1468 25.1401,97.1468 27.5,99.5C 27.5,100.5 27.5,101.5 27.5,102.5C 29.5,102.5 31.5,102.5 33.5,102.5C 32.3915,103.29 31.0581,103.79 29.5,104C 40.3393,110.416 51.3393,116.249 62.5,121.5C 47.8295,121.667 33.1629,121.5 18.5,121C 17.8467,116.414 17.5133,111.747 17.5,107C 17.5073,102.114 18.1739,97.6139 19.5,93.5 Z"/></g>
<g><path style="opacity:1" fill="#2c7797" d="M 38.5,95.5 C 41.8501,97.1961 45.1835,98.8627 48.5,100.5C 48.8333,101.5 49.5,102.167 50.5,102.5C 50.5,102.833 50.5,103.167 50.5,103.5C 50.1816,105.818 48.8483,107.152 46.5,107.5C 42.342,105.333 38.0087,103.666 33.5,102.5C 33.5,102.167 33.5,101.833 33.5,101.5C 35.6326,99.9095 37.2993,97.9095 38.5,95.5 Z"/></g>
<g><path style="opacity:1" fill="#2d5b7b" d="M 105.5,72.5 C 105.677,77.9841 105.677,83.3174 105.5,88.5C 105.121,99.5747 104.121,110.575 102.5,121.5C 89.8333,121.5 77.1667,121.5 64.5,121.5C 63.8333,121.5 63.1667,121.5 62.5,121.5C 51.3393,116.249 40.3393,110.416 29.5,104C 31.0581,103.79 32.3915,103.29 33.5,102.5C 38.0087,103.666 42.342,105.333 46.5,107.5C 48.8483,107.152 50.1816,105.818 50.5,103.5C 65.5,103.5 80.5,103.5 95.5,103.5C 96.3309,91.0066 96.8309,78.34 97,65.5C 99.5881,68.1999 102.421,70.5332 105.5,72.5 Z"/></g>
<g><path style="opacity:1" fill="#d5a654" d="M 58.5,110.5 C 58.3059,112.912 56.9726,113.912 54.5,113.5C 50.0741,113.141 49.4074,111.307 52.5,108C 53.5,107.333 54.5,107.333 55.5,108C 56.3734,109.045 57.3734,109.878 58.5,110.5 Z"/></g>
<g><path style="opacity:1" fill="#a0866b" d="M 58.5,110.5 C 60.1042,111.287 60.7709,112.62 60.5,114.5C 58.2646,114.795 56.2646,114.461 54.5,113.5C 56.9726,113.912 58.3059,112.912 58.5,110.5 Z"/></g>
<g><path style="opacity:0.788" fill="#786e84" d="M 16.5,92.5 C 17.791,92.2627 18.791,92.596 19.5,93.5C 18.1739,97.6139 17.5073,102.114 17.5,107C 17.5133,111.747 17.8467,116.414 18.5,121C 33.1629,121.5 47.8295,121.667 62.5,121.5C 63.1667,121.5 63.8333,121.5 64.5,121.5C 63.1667,122.167 61.8333,122.833 60.5,123.5C 46.496,123.667 32.496,123.5 18.5,123C 18,122.5 17.5,122 17,121.5C 16.5002,111.839 16.3335,102.172 16.5,92.5 Z"/></g>
<g><path style="opacity:0.063" fill="#60564d" d="M 64.5,121.5 C 77.1667,121.5 89.8333,121.5 102.5,121.5C 102.5,122.167 102.833,122.5 103.5,122.5C 89.3431,123.496 75.0097,123.829 60.5,123.5C 61.8333,122.833 63.1667,122.167 64.5,121.5 Z"/></g>
</svg>
