<?xml version="1.0" encoding="UTF-8"?>
<!DOCTYPE svg PUBLIC "-//W3C//DTD SVG 1.1//EN" "http://www.w3.org/Graphics/SVG/1.1/DTD/svg11.dtd">
<svg xmlns="http://www.w3.org/2000/svg" version="1.1" width="104px" height="80px" style="shape-rendering:geometricPrecision; text-rendering:geometricPrecision; image-rendering:optimizeQuality; fill-rule:evenodd; clip-rule:evenodd" xmlns:xlink="http://www.w3.org/1999/xlink">
<g><path style="opacity:1" fill="#edf64a" d="M 87.5,0.5 C 88.2389,0.368989 88.9056,0.535656 89.5,1C 85.9244,5.08162 81.9244,8.58162 77.5,11.5C 76.506,10.0011 76.506,8.33442 77.5,6.5C 80.4937,4.00025 83.827,2.00025 87.5,0.5 Z"/></g>
<g><path style="opacity:1" fill="#f9f7f1" d="M 87.5,0.5 C 87.5,0.166667 87.5,-0.166667 87.5,-0.5C 90.1667,-0.5 92.8333,-0.5 95.5,-0.5C 96.7888,0.636613 97.7888,1.96995 98.5,3.5C 93.8927,6.76828 89.5594,10.4349 85.5,14.5C 84.1266,14.3433 82.7932,14.51 81.5,15C 78.1903,18.458 74.5236,21.2913 70.5,23.5C 68.8456,23.6857 67.1789,23.019 65.5,21.5C 67.1475,19.6736 69.1475,18.3403 71.5,17.5C 75.2493,17.3827 77.2493,15.3827 77.5,11.5C 81.9244,8.58162 85.9244,5.08162 89.5,1C 88.9056,0.535656 88.2389,0.368989 87.5,0.5 Z"/></g>
<g><path style="opacity:0.224" fill="#fdf9ae" d="M 43.5,11.5 C 43.5654,11.9382 43.3988,12.2716 43,12.5C 40.846,11.7699 38.6794,11.1032 36.5,10.5C 36.5,10.1667 36.5,9.83333 36.5,9.5C 37.9776,9.79226 39.6442,9.79226 41.5,9.5C 42.5223,9.85549 43.189,10.5222 43.5,11.5 Z"/></g>
<g><path style="opacity:0.345" fill="#fbeec6" d="M 59.5,9.5 C 58.3702,11.3146 57.7036,13.3146 57.5,15.5C 56.5,15.5 55.5,15.5 54.5,15.5C 54.719,14.325 54.3857,13.325 53.5,12.5C 52.7193,13.7366 51.7193,14.7366 50.5,15.5C 49.8589,14.0065 48.8589,13.0065 47.5,12.5C 46.4341,11.3079 45.6008,11.6412 45,13.5C 44.5357,12.9056 44.369,12.2389 44.5,11.5C 49.1897,10.0619 54.1897,9.39524 59.5,9.5 Z"/></g>
<g><path style="opacity:1" fill="#f6fbe7" d="M 77.5,6.5 C 76.506,8.33442 76.506,10.0011 77.5,11.5C 77.2493,15.3827 75.2493,17.3827 71.5,17.5C 71.9528,16.5416 72.6195,15.7083 73.5,15C 71.5,14.6667 69.5,14.3333 67.5,14C 66.9288,12.7949 66.2621,11.6283 65.5,10.5C 64.1667,11.5 62.8333,12.5 61.5,13.5C 60.5713,12.3112 60.238,10.9778 60.5,9.5C 64.0011,8.20348 67.5011,8.20348 71,9.5C 73.2508,8.58768 75.4175,7.58768 77.5,6.5 Z"/></g>
<g><path style="opacity:1" fill="#d52619" d="M 36.5,9.5 C 36.5,9.83333 36.5,10.1667 36.5,10.5C 32.8962,12.288 30.2295,14.9547 28.5,18.5C 27.5084,18.3284 26.8417,18.6618 26.5,19.5C 25.8001,15.8285 26.4668,12.1619 28.5,8.5C 31.3416,7.26698 34.0082,7.60031 36.5,9.5 Z"/></g>
<g><path style="opacity:1" fill="#f8e0d8" d="M 36.5,10.5 C 38.6794,11.1032 40.846,11.7699 43,12.5C 43.3988,12.2716 43.5654,11.9382 43.5,11.5C 43.8333,11.5 44.1667,11.5 44.5,11.5C 44.369,12.2389 44.5357,12.9056 45,13.5C 45.6008,11.6412 46.4341,11.3079 47.5,12.5C 46.9447,14.7288 45.6114,16.3954 43.5,17.5C 42.7492,16.624 42.2492,15.624 42,14.5C 41.221,15.7282 40.221,16.7282 39,17.5C 38.5,17.1667 38,16.8333 37.5,16.5C 38.1667,15.5 38.8333,14.5 39.5,13.5C 37.6043,12.3606 36.6043,13.0272 36.5,15.5C 34.2812,17.6061 31.6145,18.6061 28.5,18.5C 30.2295,14.9547 32.8962,12.288 36.5,10.5 Z"/></g>
<g><path style="opacity:1" fill="#f9f329" d="M 59.5,9.5 C 59.8333,9.5 60.1667,9.5 60.5,9.5C 60.238,10.9778 60.5713,12.3112 61.5,13.5C 62.8333,12.5 64.1667,11.5 65.5,10.5C 66.2621,11.6283 66.9288,12.7949 67.5,14C 69.5,14.3333 71.5,14.6667 73.5,15C 72.6195,15.7083 71.9528,16.5416 71.5,17.5C 69.1475,18.3403 67.1475,19.6736 65.5,21.5C 60.4854,24.0043 55.8187,27.0043 51.5,30.5C 50.391,30.5569 49.391,30.8902 48.5,31.5C 50.5489,26.0898 52.5489,20.7564 54.5,15.5C 55.5,15.5 56.5,15.5 57.5,15.5C 57.7036,13.3146 58.3702,11.3146 59.5,9.5 Z"/></g>
<g><path style="opacity:1" fill="#c0181b" d="M 98.5,3.5 C 100.914,4.77669 101.081,6.44336 99,8.5C 95.9334,12.4027 92.4334,15.736 88.5,18.5C 87.0998,17.8999 86.0998,16.8999 85.5,15.5C 85.5,15.1667 85.5,14.8333 85.5,14.5C 89.5594,10.4349 93.8927,6.76828 98.5,3.5 Z"/></g>
<g><path style="opacity:1" fill="#e82313" d="M 47.5,12.5 C 48.8589,13.0065 49.8589,14.0065 50.5,15.5C 51.7193,14.7366 52.7193,13.7366 53.5,12.5C 54.3857,13.325 54.719,14.325 54.5,15.5C 52.5489,20.7564 50.5489,26.0898 48.5,31.5C 45.1667,32.8333 41.8333,34.1667 38.5,35.5C 38.5858,34.5041 38.2524,33.6708 37.5,33C 40.2321,32.587 42.8987,31.9203 45.5,31C 44.5291,29.5187 43.1958,28.6854 41.5,28.5C 42.8484,27.3994 44.3484,26.3994 46,25.5C 46.7203,23.8876 46.5536,22.3876 45.5,21C 41.6684,20.2378 38.0018,20.7378 34.5,22.5C 33.8933,22.3764 33.56,22.0431 33.5,21.5C 34.5294,19.4832 35.5294,17.4832 36.5,15.5C 36.6043,13.0272 37.6043,12.3606 39.5,13.5C 38.8333,14.5 38.1667,15.5 37.5,16.5C 38,16.8333 38.5,17.1667 39,17.5C 40.221,16.7282 41.221,15.7282 42,14.5C 42.2492,15.624 42.7492,16.624 43.5,17.5C 45.6114,16.3954 46.9447,14.7288 47.5,12.5 Z"/></g>
<g><path style="opacity:1" fill="#bd1219" d="M 85.5,15.5 C 86.0998,16.8999 87.0998,17.8999 88.5,18.5C 86.1203,21.8805 83.1203,24.5472 79.5,26.5C 77.4418,27.9331 75.1085,28.5997 72.5,28.5C 72.8333,31.5 71.5,32.8333 68.5,32.5C 68.5,31.5 68.5,30.5 68.5,29.5C 73.9429,24.605 79.6096,19.9383 85.5,15.5 Z"/></g>
<g><path style="opacity:1" fill="#f59114" d="M 41.5,28.5 C 39.1667,29.1667 36.8333,29.8333 34.5,30.5C 36.159,29.1658 37.4924,27.4992 38.5,25.5C 36.9775,23.7175 34.9775,23.0508 32.5,23.5C 32.3284,22.5084 32.6618,21.8417 33.5,21.5C 33.56,22.0431 33.8933,22.3764 34.5,22.5C 38.0018,20.7378 41.6684,20.2378 45.5,21C 46.5536,22.3876 46.7203,23.8876 46,25.5C 44.3484,26.3994 42.8484,27.3994 41.5,28.5 Z"/></g>
<g><path style="opacity:1" fill="#fcfdf3" d="M 65.5,21.5 C 67.1789,23.019 68.8456,23.6857 70.5,23.5C 66.8333,26.1667 63.1667,28.8333 59.5,31.5C 58.391,31.5569 57.391,31.8902 56.5,32.5C 55.4479,30.744 53.7812,30.0773 51.5,30.5C 55.8187,27.0043 60.4854,24.0043 65.5,21.5 Z"/></g>
<g><path style="opacity:1" fill="#f5f125" d="M 36.5,15.5 C 35.5294,17.4832 34.5294,19.4832 33.5,21.5C 32.6618,21.8417 32.3284,22.5084 32.5,23.5C 30.6418,25.8831 29.3084,28.5498 28.5,31.5C 26.4855,32.9238 24.1522,33.5905 21.5,33.5C 21.5,32.5 21.5,31.5 21.5,30.5C 22.8926,26.7143 24.5593,23.0477 26.5,19.5C 26.8417,18.6618 27.5084,18.3284 28.5,18.5C 31.6145,18.6061 34.2812,17.6061 36.5,15.5 Z"/></g>
<g><path style="opacity:1" fill="#fbf5eb" d="M 32.5,23.5 C 34.9775,23.0508 36.9775,23.7175 38.5,25.5C 37.4924,27.4992 36.159,29.1658 34.5,30.5C 34.1667,30.5 33.8333,30.5 33.5,30.5C 31.8828,31.038 30.2161,31.3713 28.5,31.5C 29.3084,28.5498 30.6418,25.8831 32.5,23.5 Z"/></g>
<g><path style="opacity:1" fill="#f5e9e9" d="M 85.5,14.5 C 85.5,14.8333 85.5,15.1667 85.5,15.5C 79.6096,19.9383 73.9429,24.605 68.5,29.5C 64.8084,31.3437 61.4751,33.6771 58.5,36.5C 58.1667,36.5 57.8333,36.5 57.5,36.5C 57.1961,35.8501 56.8627,35.1835 56.5,34.5C 57.7701,33.7124 58.7701,32.7124 59.5,31.5C 63.1667,28.8333 66.8333,26.1667 70.5,23.5C 74.5236,21.2913 78.1903,18.458 81.5,15C 82.7932,14.51 84.1266,14.3433 85.5,14.5 Z"/></g>
<g><path style="opacity:1" fill="#15272b" d="M 21.5,30.5 C 21.5,31.5 21.5,32.5 21.5,33.5C 14.4561,35.4843 7.4561,37.151 0.5,38.5C 0.166667,38.5 -0.166667,38.5 -0.5,38.5C -0.5,36.8333 -0.5,35.1667 -0.5,33.5C 0.321983,31.6115 1.15532,29.6115 2,27.5C 2.80399,26.1955 3.97065,25.5288 5.5,25.5C 8.01198,26.7557 10.512,26.7557 13,25.5C 15.6256,27.5612 18.4589,29.2279 21.5,30.5 Z"/></g>
<g><path style="opacity:1" fill="#fbf4f2" d="M 51.5,30.5 C 53.7812,30.0773 55.4479,30.744 56.5,32.5C 52.1932,34.6534 47.8599,36.8201 43.5,39C 46.1859,42.4762 45.8525,42.9762 42.5,40.5C 41.646,41.5217 40.646,42.3551 39.5,43C 40.2524,43.6708 40.5858,44.5041 40.5,45.5C 39.4863,46.6737 38.153,47.3404 36.5,47.5C 35.1938,46.5326 34.5271,45.1993 34.5,43.5C 35.7122,41.7363 35.3788,40.0697 33.5,38.5C 34.2427,37.8182 34.9094,37.1515 35.5,36.5C 36.609,36.4431 37.609,36.1098 38.5,35.5C 41.8333,34.1667 45.1667,32.8333 48.5,31.5C 49.391,30.8902 50.391,30.5569 51.5,30.5 Z"/></g>
<g><path style="opacity:1" fill="#ee0707" d="M 41.5,28.5 C 43.1958,28.6854 44.5291,29.5187 45.5,31C 42.8987,31.9203 40.2321,32.587 37.5,33C 38.2524,33.6708 38.5858,34.5041 38.5,35.5C 37.609,36.1098 36.609,36.4431 35.5,36.5C 33.5168,36.1568 32.1834,36.8235 31.5,38.5C 28.9556,38.8957 26.7889,38.229 25,36.5C 23.2151,37.2401 21.3817,37.9067 19.5,38.5C 18.8933,38.3764 18.56,38.0431 18.5,37.5C 20.8109,35.9318 23.4776,35.0984 26.5,35C 29.1867,33.9514 31.52,32.4514 33.5,30.5C 33.8333,30.5 34.1667,30.5 34.5,30.5C 36.8333,29.8333 39.1667,29.1667 41.5,28.5 Z"/></g>
<g><path style="opacity:1" fill="#f6f0f0" d="M 59.5,31.5 C 58.7701,32.7124 57.7701,33.7124 56.5,34.5C 56.8627,35.1835 57.1961,35.8501 57.5,36.5C 51.9647,39.7674 46.2981,42.7674 40.5,45.5C 40.5858,44.5041 40.2524,43.6708 39.5,43C 40.646,42.3551 41.646,41.5217 42.5,40.5C 45.8525,42.9762 46.1859,42.4762 43.5,39C 47.8599,36.8201 52.1932,34.6534 56.5,32.5C 57.391,31.8902 58.391,31.5569 59.5,31.5 Z"/></g>
<g><path style="opacity:1" fill="#ba161e" d="M 79.5,26.5 C 75.6445,30.5151 71.3112,34.0151 66.5,37C 67.0989,38.6225 67.7656,40.1225 68.5,41.5C 70.8226,45.324 74.1559,47.6573 78.5,48.5C 81.1667,49.1667 83.8333,49.8333 86.5,50.5C 84.4348,50.953 82.7682,51.953 81.5,53.5C 80.1667,53.5 78.8333,53.5 77.5,53.5C 72.3604,50.0896 67.3604,46.4229 62.5,42.5C 61.8333,42.5 61.5,42.1667 61.5,41.5C 61.0472,40.5416 60.3805,39.7083 59.5,39C 63.0952,38.0263 62.7618,37.1929 58.5,36.5C 61.4751,33.6771 64.8084,31.3437 68.5,29.5C 68.5,30.5 68.5,31.5 68.5,32.5C 71.5,32.8333 72.8333,31.5 72.5,28.5C 75.1085,28.5997 77.4418,27.9331 79.5,26.5 Z"/></g>
<g><path style="opacity:1" fill="#e8150e" d="M 33.5,30.5 C 31.52,32.4514 29.1867,33.9514 26.5,35C 23.4776,35.0984 20.8109,35.9318 18.5,37.5C 17.5416,37.9528 16.7083,38.6195 16,39.5C 14.6124,38.4464 13.1124,38.2797 11.5,39C 14.6438,40.6916 17.9771,41.8582 21.5,42.5C 20.675,43.3857 19.675,43.719 18.5,43.5C 18.2619,47.0993 19.2619,47.4327 21.5,44.5C 22.086,44.7093 22.586,45.0426 23,45.5C 25.5741,43.9981 28.4074,42.9981 31.5,42.5C 30.6371,41.2736 30.6371,39.9403 31.5,38.5C 32.1834,36.8235 33.5168,36.1568 35.5,36.5C 34.9094,37.1515 34.2427,37.8182 33.5,38.5C 35.3788,40.0697 35.7122,41.7363 34.5,43.5C 25.1974,47.8169 15.864,52.1502 6.5,56.5C 4.25761,53.9181 2.92427,50.9181 2.5,47.5C 3.58317,47.4606 4.58317,47.1272 5.5,46.5C 6.46557,44.604 6.7989,42.604 6.5,40.5C 4.43525,40.5172 2.43525,40.8505 0.5,41.5C 0.5,40.5 0.5,39.5 0.5,38.5C 7.4561,37.151 14.4561,35.4843 21.5,33.5C 24.1522,33.5905 26.4855,32.9238 28.5,31.5C 30.2161,31.3713 31.8828,31.038 33.5,30.5 Z"/></g>
<g><path style="opacity:1" fill="#f30207" d="M 31.5,38.5 C 30.6371,39.9403 30.6371,41.2736 31.5,42.5C 28.4074,42.9981 25.5741,43.9981 23,45.5C 22.586,45.0426 22.086,44.7093 21.5,44.5C 19.2619,47.4327 18.2619,47.0993 18.5,43.5C 19.675,43.719 20.675,43.3857 21.5,42.5C 17.9771,41.8582 14.6438,40.6916 11.5,39C 13.1124,38.2797 14.6124,38.4464 16,39.5C 16.7083,38.6195 17.5416,37.9528 18.5,37.5C 18.56,38.0431 18.8933,38.3764 19.5,38.5C 21.3817,37.9067 23.2151,37.2401 25,36.5C 26.7889,38.229 28.9556,38.8957 31.5,38.5 Z"/></g>
<g><path style="opacity:0.998" fill="#0b2431" d="M 96.5,34.5 C 96.1596,36.5476 96.4929,37.5476 97.5,37.5C 98.404,38.209 98.7373,39.209 98.5,40.5C 96.6948,42.1969 94.3615,43.0302 91.5,43C 92.4158,43.2784 93.0825,43.7784 93.5,44.5C 89.1404,47.8362 84.1404,49.1695 78.5,48.5C 74.1559,47.6573 70.8226,45.324 68.5,41.5C 68.3691,40.6236 68.7025,39.9569 69.5,39.5C 78.0987,45.8789 85.0987,44.3789 90.5,35C 92.4727,34.5045 94.4727,34.3379 96.5,34.5 Z"/></g>
<g><path style="opacity:0.275" fill="#112746" d="M 59.5,41.5 C 60.1667,41.5 60.8333,41.5 61.5,41.5C 61.5,42.1667 61.8333,42.5 62.5,42.5C 60.6941,45.3382 59.6941,45.0048 59.5,41.5 Z"/></g>
<g><path style="opacity:0.843" fill="#d8c61b" d="M 2.5,47.5 C 1.83333,45.5 1.16667,43.5 0.5,41.5C 2.43525,40.8505 4.43525,40.5172 6.5,40.5C 6.7989,42.604 6.46557,44.604 5.5,46.5C 4.58317,47.1272 3.58317,47.4606 2.5,47.5 Z"/></g>
<g><path style="opacity:1" fill="#f9eeed" d="M 34.5,43.5 C 34.5271,45.1993 35.1938,46.5326 36.5,47.5C 34.6508,48.593 32.9842,49.9263 31.5,51.5C 26.7427,53.0431 22.0761,54.8765 17.5,57C 14.7613,58.0259 12.428,59.5259 10.5,61.5C 8.00291,60.8707 6.66957,59.204 6.5,56.5C 15.864,52.1502 25.1974,47.8169 34.5,43.5 Z"/></g>
<g><path style="opacity:1" fill="#18263c" d="M 99.5,47.5 C 98.391,47.5569 97.391,47.8902 96.5,48.5C 95.1667,48.5 93.8333,48.5 92.5,48.5C 92.5,50.8333 92.5,53.1667 92.5,55.5C 94.7354,55.7947 96.7354,55.4614 98.5,54.5C 99.5,54.5 100.5,54.5 101.5,54.5C 102.15,56.4352 102.483,58.4352 102.5,60.5C 101.833,60.5 101.167,60.5 100.5,60.5C 100.461,59.4168 100.127,58.4168 99.5,57.5C 95.9054,56.939 92.5721,55.7724 89.5,54C 92.1667,53.3333 92.1667,52.6667 89.5,52C 86.7804,51.9552 84.1138,52.4552 81.5,53.5C 82.7682,51.953 84.4348,50.953 86.5,50.5C 90.4687,48.8488 94.1353,46.6822 97.5,44C 96.1807,43.805 94.8474,43.9717 93.5,44.5C 93.0825,43.7784 92.4158,43.2784 91.5,43C 94.3615,43.0302 96.6948,42.1969 98.5,40.5C 99.6129,39.0536 99.7796,37.3869 99,35.5C 98.2828,36.0442 97.7828,36.7109 97.5,37.5C 96.4929,37.5476 96.1596,36.5476 96.5,34.5C 98.0348,33.2121 99.7015,33.2121 101.5,34.5C 101.987,35.4461 102.32,36.4461 102.5,37.5C 100.478,40.5238 99.4781,43.8571 99.5,47.5 Z"/></g>
<g><path style="opacity:1" fill="#911621" d="M 86.5,50.5 C 83.8333,49.8333 81.1667,49.1667 78.5,48.5C 84.1404,49.1695 89.1404,47.8362 93.5,44.5C 94.8474,43.9717 96.1807,43.805 97.5,44C 94.1353,46.6822 90.4687,48.8488 86.5,50.5 Z"/></g>
<g><path style="opacity:1" fill="#b22025" d="M 57.5,36.5 C 57.8333,36.5 58.1667,36.5 58.5,36.5C 62.7618,37.1929 63.0952,38.0263 59.5,39C 60.3805,39.7083 61.0472,40.5416 61.5,41.5C 60.8333,41.5 60.1667,41.5 59.5,41.5C 59.5654,41.0618 59.3988,40.7284 59,40.5C 57.3484,41.3994 55.8484,42.3994 54.5,43.5C 49.9618,44.4358 45.9618,46.4358 42.5,49.5C 39.8808,49.9255 37.5475,50.9255 35.5,52.5C 35.6309,51.6236 35.2975,50.9569 34.5,50.5C 33.5832,51.1272 32.5832,51.4606 31.5,51.5C 32.9842,49.9263 34.6508,48.593 36.5,47.5C 38.153,47.3404 39.4863,46.6737 40.5,45.5C 46.2981,42.7674 51.9647,39.7674 57.5,36.5 Z"/></g>
<g><path style="opacity:1" fill="#dcd720" d="M 99.5,47.5 C 101.163,49.4385 101.829,51.7718 101.5,54.5C 100.5,54.5 99.5,54.5 98.5,54.5C 97.1266,54.6567 95.7932,54.49 94.5,54C 95.6682,52.5944 95.3348,51.4277 93.5,50.5C 94.6016,49.8243 95.6016,49.1577 96.5,48.5C 97.391,47.8902 98.391,47.5569 99.5,47.5 Z"/></g>
<g><path style="opacity:1" fill="#082b51" d="M 100.5,60.5 C 97.1733,62.8301 93.5067,64.6634 89.5,66C 82.8417,66.4996 76.175,66.6663 69.5,66.5C 69.5,66.1667 69.5,65.8333 69.5,65.5C 70.8466,62.8068 72.1799,60.1401 73.5,57.5C 75.1667,56.5 76.5,55.1667 77.5,53.5C 78.8333,53.5 80.1667,53.5 81.5,53.5C 84.1138,52.4552 86.7804,51.9552 89.5,52C 92.1667,52.6667 92.1667,53.3333 89.5,54C 92.5721,55.7724 95.9054,56.939 99.5,57.5C 100.127,58.4168 100.461,59.4168 100.5,60.5 Z"/></g>
<g><path style="opacity:1" fill="#aa151e" d="M 35.5,52.5 C 33.1932,53.6534 30.8599,54.8201 28.5,56C 27.6634,57.0113 27.33,58.1779 27.5,59.5C 26.9423,60.7899 25.9423,61.6232 24.5,62C 19.6478,62.8151 14.9811,62.6484 10.5,61.5C 12.428,59.5259 14.7613,58.0259 17.5,57C 22.0761,54.8765 26.7427,53.0431 31.5,51.5C 32.5832,51.4606 33.5832,51.1272 34.5,50.5C 35.2975,50.9569 35.6309,51.6236 35.5,52.5 Z"/></g>
<g><path style="opacity:1" fill="#7c8827" d="M 96.5,48.5 C 95.6016,49.1577 94.6016,49.8243 93.5,50.5C 95.3348,51.4277 95.6682,52.5944 94.5,54C 95.7932,54.49 97.1266,54.6567 98.5,54.5C 96.7354,55.4614 94.7354,55.7947 92.5,55.5C 92.5,53.1667 92.5,50.8333 92.5,48.5C 93.8333,48.5 95.1667,48.5 96.5,48.5 Z"/></g>
<g><path style="opacity:1" fill="#f1efec" d="M 63.5,49.5 C 66.1261,51.8235 68.7928,54.1568 71.5,56.5C 68.6967,57.9279 65.6967,58.5946 62.5,58.5C 57.6727,56.7057 57.3393,54.3724 61.5,51.5C 62.8333,51.5 63.5,50.8333 63.5,49.5 Z"/></g>
<g><path style="opacity:1" fill="#f1e1e2" d="M 54.5,43.5 C 56.0269,43.427 57.0269,44.0937 57.5,45.5C 56.3646,47.2132 54.698,47.8799 52.5,47.5C 52.5,48.5 52.5,49.5 52.5,50.5C 50.7741,50.1854 49.1075,50.0187 47.5,50C 47.9574,50.414 48.2907,50.914 48.5,51.5C 46.9029,52.7908 45.5696,54.2908 44.5,56C 45.5767,58.6692 47.2433,60.8359 49.5,62.5C 49.5,62.8333 49.5,63.1667 49.5,63.5C 48.0222,63.762 46.6888,63.4287 45.5,62.5C 44.0692,60.0623 42.0692,58.3956 39.5,57.5C 40.5676,56.5655 41.901,56.2322 43.5,56.5C 43.2267,54.549 43.8934,53.049 45.5,52C 44.0577,51.6232 43.0577,50.7899 42.5,49.5C 45.9618,46.4358 49.9618,44.4358 54.5,43.5 Z"/></g>
<g><path style="opacity:1" fill="#e31b14" d="M 57.5,45.5 C 59.7541,46.4151 61.7541,47.7484 63.5,49.5C 63.5,50.8333 62.8333,51.5 61.5,51.5C 54.673,50.8253 51.8397,53.8253 53,60.5C 53.3826,61.056 53.8826,61.3893 54.5,61.5C 55.9516,62.3019 57.6183,62.8019 59.5,63C 55.8599,63.306 52.5266,63.1394 49.5,62.5C 47.2433,60.8359 45.5767,58.6692 44.5,56C 45.5696,54.2908 46.9029,52.7908 48.5,51.5C 48.2907,50.914 47.9574,50.414 47.5,50C 49.1075,50.0187 50.7741,50.1854 52.5,50.5C 52.5,49.5 52.5,48.5 52.5,47.5C 54.698,47.8799 56.3646,47.2132 57.5,45.5 Z"/></g>
<g><path style="opacity:1" fill="#fafcfb" d="M 39.5,57.5 C 42.0692,58.3956 44.0692,60.0623 45.5,62.5C 46.6888,63.4287 48.0222,63.762 49.5,63.5C 48.4855,64.7647 46.9855,65.4313 45,65.5C 41.5101,65.9987 38.0101,66.332 34.5,66.5C 34.4976,62.4542 36.1643,59.4542 39.5,57.5 Z"/></g>
<g><path style="opacity:1" fill="#f48811" d="M 61.5,51.5 C 57.3393,54.3724 57.6727,56.7057 62.5,58.5C 60.4777,60.6928 57.8111,61.6928 54.5,61.5C 53.8826,61.3893 53.3826,61.056 53,60.5C 51.8397,53.8253 54.673,50.8253 61.5,51.5 Z"/></g>
<g><path style="opacity:1" fill="#e9e8e8" d="M 42.5,49.5 C 43.0577,50.7899 44.0577,51.6232 45.5,52C 43.8934,53.049 43.2267,54.549 43.5,56.5C 41.901,56.2322 40.5676,56.5655 39.5,57.5C 36.1643,59.4542 34.4976,62.4542 34.5,66.5C 38.0101,66.332 41.5101,65.9987 45,65.5C 46.9855,65.4313 48.4855,64.7647 49.5,63.5C 51.9128,65.0507 54.5794,65.7174 57.5,65.5C 48.9948,66.6882 40.3282,67.6882 31.5,68.5C 30.6312,66.3078 30.9646,64.1412 32.5,62C 31.9681,59.9803 30.6348,59.147 28.5,59.5C 28.1667,59.5 27.8333,59.5 27.5,59.5C 27.33,58.1779 27.6634,57.0113 28.5,56C 30.8599,54.8201 33.1932,53.6534 35.5,52.5C 37.5475,50.9255 39.8808,49.9255 42.5,49.5 Z"/></g>
<g><path style="opacity:1" fill="#dc2a20" d="M 71.5,56.5 C 72.4916,56.3284 73.1583,56.6618 73.5,57.5C 72.1799,60.1401 70.8466,62.8068 69.5,65.5C 65.5,65.5 61.5,65.5 57.5,65.5C 54.5794,65.7174 51.9128,65.0507 49.5,63.5C 49.5,63.1667 49.5,62.8333 49.5,62.5C 52.5266,63.1394 55.8599,63.306 59.5,63C 57.6183,62.8019 55.9516,62.3019 54.5,61.5C 57.8111,61.6928 60.4777,60.6928 62.5,58.5C 65.6967,58.5946 68.6967,57.9279 71.5,56.5 Z"/></g>
<g><path style="opacity:1" fill="#fafcfb" d="M 57.5,65.5 C 61.5,65.5 65.5,65.5 69.5,65.5C 69.5,65.8333 69.5,66.1667 69.5,66.5C 73.6472,67.3247 77.9805,67.8247 82.5,68C 76.4818,68.6417 70.4818,68.4751 64.5,67.5C 55.5698,69.5527 46.5698,71.2194 37.5,72.5C 32.496,72.1107 27.496,71.6107 22.5,71C 25.7974,70.7963 28.7974,69.963 31.5,68.5C 40.3282,67.6882 48.9948,66.6882 57.5,65.5 Z"/></g>
<g><path style="opacity:1" fill="#f2eeee" d="M 100.5,60.5 C 101.167,60.5 101.833,60.5 102.5,60.5C 102.5,61.8333 102.5,63.1667 102.5,64.5C 90.8401,72.9972 77.8401,75.9972 63.5,73.5C 57.1376,74.3409 50.8043,75.3409 44.5,76.5C 41.5,76.5 38.5,76.5 35.5,76.5C 36.6005,75.3951 37.2671,74.0618 37.5,72.5C 46.5698,71.2194 55.5698,69.5527 64.5,67.5C 70.4818,68.4751 76.4818,68.6417 82.5,68C 77.9805,67.8247 73.6472,67.3247 69.5,66.5C 76.175,66.6663 82.8417,66.4996 89.5,66C 93.5067,64.6634 97.1733,62.8301 100.5,60.5 Z"/></g>
<g><path style="opacity:0.997" fill="#e6f9f9" d="M 28.5,59.5 C 30.6348,59.147 31.9681,59.9803 32.5,62C 30.9646,64.1412 30.6312,66.3078 31.5,68.5C 28.7974,69.963 25.7974,70.7963 22.5,71C 27.496,71.6107 32.496,72.1107 37.5,72.5C 37.2671,74.0618 36.6005,75.3951 35.5,76.5C 33.9897,75.1639 32.3231,73.9973 30.5,73C 20.9063,73.6061 11.9063,71.7728 3.5,67.5C 3.22216,65.6536 3.88882,64.3202 5.5,63.5C 12.6794,67.5025 20.346,69.0025 28.5,68C 30.9041,65.0453 30.9041,62.2119 28.5,59.5 Z"/></g>
<g><path style="opacity:1" fill="#3877a5" d="M 3.5,67.5 C 11.9063,71.7728 20.9063,73.6061 30.5,73C 32.3231,73.9973 33.9897,75.1639 35.5,76.5C 30.9443,78.4417 25.9443,79.1083 20.5,78.5C 18.5853,78.7845 16.9187,78.4511 15.5,77.5C 20.5111,77.6659 25.5111,77.4993 30.5,77C 26.5,76.3333 26.5,75.6667 30.5,75C 25.5651,73.2282 20.5651,73.0615 15.5,74.5C 13.2012,71.9858 10.8679,71.9858 8.5,74.5C 10.444,75.8007 12.444,76.8007 14.5,77.5C 10.5639,77.5218 6.89728,76.5218 3.5,74.5C 2.20308,72.0268 2.20308,69.6934 3.5,67.5 Z"/></g>
<g><path style="opacity:0.631" fill="#d51d12" d="M 102.5,64.5 C 102.833,64.5 103.167,64.5 103.5,64.5C 103.5,65.1667 103.5,65.8333 103.5,66.5C 99.7647,71.2725 94.7647,74.1058 88.5,75C 80.2049,76.789 71.8715,76.9557 63.5,75.5C 55.026,76.851 46.6926,78.1844 38.5,79.5C 37.8333,79.5 37.1667,79.5 36.5,79.5C 38.8567,77.9016 41.5234,76.9016 44.5,76.5C 50.8043,75.3409 57.1376,74.3409 63.5,73.5C 77.8401,75.9972 90.8401,72.9972 102.5,64.5 Z"/></g>
<g><path style="opacity:1" fill="#1c71b4" d="M 15.5,77.5 C 15.1667,77.5 14.8333,77.5 14.5,77.5C 12.444,76.8007 10.444,75.8007 8.5,74.5C 10.8679,71.9858 13.2012,71.9858 15.5,74.5C 20.5651,73.0615 25.5651,73.2282 30.5,75C 26.5,75.6667 26.5,76.3333 30.5,77C 25.5111,77.4993 20.5111,77.6659 15.5,77.5 Z"/></g>
<g><path style="opacity:0.153" fill="#9d2d24" d="M 35.5,76.5 C 38.5,76.5 41.5,76.5 44.5,76.5C 41.5234,76.9016 38.8567,77.9016 36.5,79.5C 31.1667,79.5 25.8333,79.5 20.5,79.5C 20.5,79.1667 20.5,78.8333 20.5,78.5C 25.9443,79.1083 30.9443,78.4417 35.5,76.5 Z"/></g>
</svg>
