<?xml version="1.0" encoding="UTF-8"?>
<!DOCTYPE svg PUBLIC "-//W3C//DTD SVG 1.1//EN" "http://www.w3.org/Graphics/SVG/1.1/DTD/svg11.dtd">
<svg xmlns="http://www.w3.org/2000/svg" version="1.1" width="300px" height="300px" style="shape-rendering:geometricPrecision; text-rendering:geometricPrecision; image-rendering:optimizeQuality; fill-rule:evenodd; clip-rule:evenodd" xmlns:xlink="http://www.w3.org/1999/xlink">
<g><path style="opacity:1" fill="#304337" d="M 107.5,53.5 C 107.286,55.1439 107.62,56.6439 108.5,58C 107.833,58.6667 107.167,59.3333 106.5,60C 102.167,61 97.8333,62 93.5,63C 91.7949,66.2505 90.2949,66.0838 89,62.5C 88.4992,67.5082 87.9992,72.5082 87.5,77.5C 89.9201,77.2924 92.2534,77.6258 94.5,78.5C 95.4287,79.6888 95.762,81.0222 95.5,82.5C 93.2188,82.0773 91.5521,82.744 90.5,84.5C 88.8008,84.6602 87.1341,84.4935 85.5,84C 86.6956,83.3457 86.6956,82.8457 85.5,82.5C 83.5914,83.3482 81.5914,83.6816 79.5,83.5C 79.5499,85.5901 78.5499,86.9234 76.5,87.5C 75.1585,85.9951 73.4918,85.3285 71.5,85.5C 73.0592,83.3757 75.0592,81.709 77.5,80.5C 79.1054,71.1196 83.4387,63.2862 90.5,57C 95.8127,54.1316 101.479,52.9649 107.5,53.5 Z"/></g>
<g><path style="opacity:1" fill="#2d4236" d="M 141.5,77.5 C 142.5,77.5 143.5,77.5 144.5,77.5C 144.833,77.5 145.167,77.5 145.5,77.5C 145.414,78.4959 145.748,79.3292 146.5,80C 148.332,80.7485 149.999,81.7485 151.5,83C 149.152,83.3459 147.319,84.5125 146,86.5C 144.302,85.267 142.302,84.6004 140,84.5C 138.167,84.6667 136.333,84.8333 134.5,85C 133.244,85.4169 132.577,86.2502 132.5,87.5C 132.158,88.3382 131.492,88.6716 130.5,88.5C 129.127,88.3433 127.793,88.51 126.5,89C 125.166,92.7281 123.166,93.2281 120.5,90.5C 119.702,92.0777 119.202,93.7444 119,95.5C 118.23,96.5981 117.397,96.5981 116.5,95.5C 116.5,95.1667 116.5,94.8333 116.5,94.5C 115.534,91.2436 114.201,88.2436 112.5,85.5C 110.712,85.7852 109.045,85.4519 107.5,84.5C 106.586,82.3359 105.419,80.3359 104,78.5C 103.081,81.6439 101.248,82.6439 98.5,81.5C 99.373,79.5866 100.373,77.7533 101.5,76C 100.027,75.2904 99.3601,74.1238 99.5,72.5C 101.5,72.5 103.5,72.5 105.5,72.5C 105.5,70.5 105.5,68.5 105.5,66.5C 109.169,67.3029 111.836,66.1362 113.5,63C 111.128,61.5295 111.128,60.3628 113.5,59.5C 117.861,61.536 121.195,64.536 123.5,68.5C 125.401,68.5668 127.234,68.2335 129,67.5C 130.845,68.7558 132.845,69.7558 135,70.5C 137.922,69.6162 140.755,68.6162 143.5,67.5C 143.635,70.507 142.635,73.007 140.5,75C 140.528,76.0698 140.861,76.9032 141.5,77.5 Z"/></g>
<g><path style="opacity:1" fill="#364235" d="M 205.5,84.5 C 203.933,83.3192 203.099,81.6526 203,79.5C 202.333,78.1667 201.667,78.1667 201,79.5C 200.667,78.8333 200.333,78.1667 200,77.5C 199.302,80.0037 198.469,82.337 197.5,84.5C 198.075,81.4285 196.909,79.4285 194,78.5C 184.975,82.4316 175.808,85.9316 166.5,89C 163.138,90.3426 160.138,92.176 157.5,94.5C 156.5,94.5 155.5,94.5 154.5,94.5C 154.5,93.1667 154.5,91.8333 154.5,90.5C 150.37,89.9088 149.204,87.9088 151,84.5C 152.188,85.5634 152.688,86.8967 152.5,88.5C 157.678,88.7342 162.011,87.0675 165.5,83.5C 166.167,82.8333 166.833,82.1667 167.5,81.5C 173.101,79.0437 178.768,76.7104 184.5,74.5C 185.653,71.4469 184.987,68.7803 182.5,66.5C 171.604,55.9619 160.604,55.9619 149.5,66.5C 147.956,66.7031 146.622,67.3698 145.5,68.5C 143.995,71.522 142.661,74.522 141.5,77.5C 140.861,76.9032 140.528,76.0698 140.5,75C 142.635,73.007 143.635,70.507 143.5,67.5C 140.755,68.6162 137.922,69.6162 135,70.5C 132.845,69.7558 130.845,68.7558 129,67.5C 127.234,68.2335 125.401,68.5668 123.5,68.5C 121.195,64.536 117.861,61.536 113.5,59.5C 111.128,60.3628 111.128,61.5295 113.5,63C 111.836,66.1362 109.169,67.3029 105.5,66.5C 105.5,68.5 105.5,70.5 105.5,72.5C 103.5,72.5 101.5,72.5 99.5,72.5C 99.3601,74.1238 100.027,75.2904 101.5,76C 100.373,77.7533 99.373,79.5866 98.5,81.5C 101.248,82.6439 103.081,81.6439 104,78.5C 105.419,80.3359 106.586,82.3359 107.5,84.5C 109.045,85.4519 110.712,85.7852 112.5,85.5C 114.201,88.2436 115.534,91.2436 116.5,94.5C 109.882,86.2029 101.216,82.8696 90.5,84.5C 91.5521,82.744 93.2188,82.0773 95.5,82.5C 95.762,81.0222 95.4287,79.6888 94.5,78.5C 92.2534,77.6258 89.9201,77.2924 87.5,77.5C 87.9992,72.5082 88.4992,67.5082 89,62.5C 90.2949,66.0838 91.7949,66.2505 93.5,63C 97.8333,62 102.167,61 106.5,60C 107.167,59.3333 107.833,58.6667 108.5,58C 107.62,56.6439 107.286,55.1439 107.5,53.5C 113.192,54.2308 118.525,56.0641 123.5,59C 126.749,62.9189 130.582,66.0856 135,68.5C 144.305,54.1001 157.472,48.2668 174.5,51C 185.048,53.5483 191.548,60.0483 194,70.5C 198.311,71.8219 201.977,74.1553 205,77.5C 205.497,79.8098 205.663,82.1432 205.5,84.5 Z"/></g>
<g><path style="opacity:1" fill="#d69871" d="M 182.5,66.5 C 177.721,63.5092 172.554,61.1758 167,59.5C 161.483,61.4041 156.316,63.7374 151.5,66.5C 150.833,66.5 150.167,66.5 149.5,66.5C 160.604,55.9619 171.604,55.9619 182.5,66.5 Z"/></g>
<g><path style="opacity:1" fill="#f99666" d="M 182.5,66.5 C 184.987,68.7803 185.653,71.4469 184.5,74.5C 178.768,76.7104 173.101,79.0437 167.5,81.5C 170.199,78.9609 169.532,77.4609 165.5,77C 162.701,74.8767 160.701,72.2101 159.5,69C 157.091,67.2932 154.425,66.4598 151.5,66.5C 156.316,63.7374 161.483,61.4041 167,59.5C 172.554,61.1758 177.721,63.5092 182.5,66.5 Z"/></g>
<g><path style="opacity:1" fill="#e37452" d="M 100.5,62.5 C 102.288,62.2148 103.955,62.5481 105.5,63.5C 102.948,65.369 100.448,67.369 98,69.5C 97.187,71.4357 96.687,73.4357 96.5,75.5C 93.8728,76.0916 91.2062,76.4249 88.5,76.5C 89.9968,69.6711 93.9968,65.0044 100.5,62.5 Z"/></g>
<g><path style="opacity:1" fill="#e95039" d="M 160.5,84.5 C 159.341,86.3769 157.674,86.8769 155.5,86C 153.205,81.8659 149.871,79.0326 145.5,77.5C 145.167,77.5 144.833,77.5 144.5,77.5C 143.861,74.7068 144.861,72.3735 147.5,70.5C 152.143,74.9638 156.476,79.6304 160.5,84.5 Z"/></g>
<g><path style="opacity:1" fill="#f4714c" d="M 149.5,66.5 C 150.167,66.5 150.833,66.5 151.5,66.5C 154.425,66.4598 157.091,67.2932 159.5,69C 160.701,72.2101 162.701,74.8767 165.5,77C 169.532,77.4609 170.199,78.9609 167.5,81.5C 166.833,82.1667 166.167,82.8333 165.5,83.5C 163.883,84.038 162.216,84.3713 160.5,84.5C 156.476,79.6304 152.143,74.9638 147.5,70.5C 144.861,72.3735 143.861,74.7068 144.5,77.5C 143.5,77.5 142.5,77.5 141.5,77.5C 142.661,74.522 143.995,71.522 145.5,68.5C 146.622,67.3698 147.956,66.7031 149.5,66.5 Z"/></g>
<g><path style="opacity:1" fill="#2e4235" d="M 71.5,98.5 C 70.0779,98.7496 69.0779,99.583 68.5,101C 66.4233,101.192 64.4233,101.692 62.5,102.5C 65.6215,103.561 68.6215,104.894 71.5,106.5C 68.8333,107.167 66.1667,107.833 63.5,108.5C 63.1373,109.183 62.8039,109.85 62.5,110.5C 61.448,110.351 60.448,110.517 59.5,111C 57.645,114.046 55.645,116.88 53.5,119.5C 51.2605,121.35 48.5938,122.35 45.5,122.5C 42.9429,122.558 40.6096,121.891 38.5,120.5C 39.0253,119.808 39.6919,119.308 40.5,119C 39,118.833 37.5,118.667 36,118.5C 32.9268,118.481 30.0935,119.147 27.5,120.5C 27.5,119.5 27.5,118.5 27.5,117.5C 25.8333,117.5 24.1667,117.5 22.5,117.5C 22.3379,115.473 22.5045,113.473 23,111.5C 24.526,110.455 25.3594,108.955 25.5,107C 23.7908,104.076 22.7908,100.909 22.5,97.5C 26.1507,97.8383 27.8174,96.1716 27.5,92.5C 29.8333,92.5 32.1667,92.5 34.5,92.5C 34.7135,90.8561 34.3802,89.3561 33.5,88C 30.5279,87.6854 27.5279,87.0187 24.5,86C 26.3203,85.0206 27.487,83.5206 28,81.5C 29.7216,81.9615 31.555,82.1282 33.5,82C 36.7345,83.2334 39.4011,85.2334 41.5,88C 39.0978,89.4707 39.2645,90.9707 42,92.5C 43,91.1667 44,91.1667 45,92.5C 45.3076,91.6919 45.8076,91.0253 46.5,90.5C 51.8081,93.0414 57.1414,95.3747 62.5,97.5C 63.4419,97.3918 64.2753,97.0585 65,96.5C 65.2896,94.9559 65.9563,93.6226 67,92.5C 68.1169,92.6651 69.2836,92.9984 70.5,93.5C 71.4519,91.9547 71.7852,90.288 71.5,88.5C 73.288,88.2148 74.9547,88.5481 76.5,89.5C 75.675,90.3857 74.675,90.719 73.5,90.5C 73.7128,93.4509 73.0461,96.1175 71.5,98.5 Z"/></g>
<g><path style="opacity:1" fill="#384034" d="M 21.5,81.5 C 27.4047,80.1216 33.4047,80.2883 39.5,82C 44.3797,84.6067 49.3797,86.94 54.5,89C 57.6557,91.157 60.489,93.657 63,96.5C 64,94.5 65,92.5 66,90.5C 68.1906,89.1666 70.024,87.5 71.5,85.5C 73.4918,85.3285 75.1585,85.9951 76.5,87.5C 78.5499,86.9234 79.5499,85.5901 79.5,83.5C 81.5914,83.6816 83.5914,83.3482 85.5,82.5C 86.6956,82.8457 86.6956,83.3457 85.5,84C 87.1341,84.4935 88.8008,84.6602 90.5,84.5C 87.7458,85.6414 85.0791,86.9748 82.5,88.5C 78.8333,90.1667 76.1667,92.8333 74.5,96.5C 73.5,97.1667 72.5,97.8333 71.5,98.5C 73.0461,96.1175 73.7128,93.4509 73.5,90.5C 74.675,90.719 75.675,90.3857 76.5,89.5C 74.9547,88.5481 73.288,88.2148 71.5,88.5C 71.7852,90.288 71.4519,91.9547 70.5,93.5C 69.2836,92.9984 68.1169,92.6651 67,92.5C 65.9563,93.6226 65.2896,94.9559 65,96.5C 64.2753,97.0585 63.4419,97.3918 62.5,97.5C 57.1414,95.3747 51.8081,93.0414 46.5,90.5C 45.8076,91.0253 45.3076,91.6919 45,92.5C 44,91.1667 43,91.1667 42,92.5C 39.2645,90.9707 39.0978,89.4707 41.5,88C 39.4011,85.2334 36.7345,83.2334 33.5,82C 31.555,82.1282 29.7216,81.9615 28,81.5C 27.487,83.5206 26.3203,85.0206 24.5,86C 27.5279,87.0187 30.5279,87.6854 33.5,88C 34.3802,89.3561 34.7135,90.8561 34.5,92.5C 32.1667,92.5 29.8333,92.5 27.5,92.5C 28.3602,90.3862 30.0268,89.2195 32.5,89C 27.4565,88.0443 22.7898,88.8776 18.5,91.5C 21.6167,89.5098 23.6167,87.0098 24.5,84C 23.3094,83.3021 22.3094,82.4687 21.5,81.5 Z"/></g>
<g><path style="opacity:1" fill="#ecf1e2" d="M 197.5,84.5 C 187.51,88.9924 177.51,93.8258 167.5,99C 164.518,99.498 161.518,99.6646 158.5,99.5C 157.699,97.9582 157.366,96.2915 157.5,94.5C 160.138,92.176 163.138,90.3426 166.5,89C 175.808,85.9316 184.975,82.4316 194,78.5C 196.909,79.4285 198.075,81.4285 197.5,84.5 Z"/></g>
<g><path style="opacity:1" fill="#cd8f6c" d="M 27.5,92.5 C 27.1667,92.5 26.8333,92.5 26.5,92.5C 25.7961,90.6558 24.4628,90.1558 22.5,91C 20.34,92.332 18.34,93.832 16.5,95.5C 16.7329,93.9382 17.3995,92.6049 18.5,91.5C 22.7898,88.8776 27.4565,88.0443 32.5,89C 30.0268,89.2195 28.3602,90.3862 27.5,92.5 Z"/></g>
<g><path style="opacity:1" fill="#fb8e60" d="M 98.5,101.5 C 93.832,97.5158 88.832,93.8491 83.5,90.5C 82.1076,91.6053 80.941,92.9386 80,94.5C 79.0228,93.2264 78.1894,93.2264 77.5,94.5C 76.5,95.1667 75.5,95.8333 74.5,96.5C 76.1667,92.8333 78.8333,90.1667 82.5,88.5C 84.9201,88.2924 87.2534,88.6258 89.5,89.5C 97.034,85.6105 104.367,86.1105 111.5,91C 110.574,93.3763 110.574,96.0429 111.5,99C 107.311,100.631 102.978,101.464 98.5,101.5 Z"/></g>
<g><path style="opacity:1" fill="#e16449" d="M 149.5,99.5 C 148.835,97.3021 148.168,94.9688 147.5,92.5C 146.325,93.8549 145.325,93.6883 144.5,92C 145.337,90.9887 145.67,89.8221 145.5,88.5C 142.531,87.6713 139.531,87.5046 136.5,88C 134.808,89.4007 134.141,91.2341 134.5,93.5C 132.455,93.8344 130.789,94.1677 129.5,94.5C 130.825,96.5919 132.491,98.2586 134.5,99.5C 127.121,98.0022 125.787,94.3355 130.5,88.5C 131.492,88.6716 132.158,88.3382 132.5,87.5C 138.187,84.3931 143.52,84.8931 148.5,89C 149.456,92.3936 149.789,95.8936 149.5,99.5 Z"/></g>
<g><path style="opacity:1" fill="#ed5036" d="M 77.5,94.5 C 82.3834,99.0644 87.3834,103.564 92.5,108C 91.0953,109.269 89.4286,109.769 87.5,109.5C 85.7806,107.456 84.1139,105.456 82.5,103.5C 82.1961,102.85 81.8627,102.183 81.5,101.5C 78.8333,100.833 76.1667,100.167 73.5,99.5C 74.1272,98.5832 74.4606,97.5832 74.5,96.5C 75.5,95.8333 76.5,95.1667 77.5,94.5 Z"/></g>
<g><path style="opacity:1" fill="#433d2d" d="M 145.5,77.5 C 149.871,79.0326 153.205,81.8659 155.5,86C 157.674,86.8769 159.341,86.3769 160.5,84.5C 162.216,84.3713 163.883,84.038 165.5,83.5C 162.011,87.0675 157.678,88.7342 152.5,88.5C 152.688,86.8967 152.188,85.5634 151,84.5C 149.204,87.9088 150.37,89.9088 154.5,90.5C 154.5,91.8333 154.5,93.1667 154.5,94.5C 155.5,94.5 156.5,94.5 157.5,94.5C 157.366,96.2915 157.699,97.9582 158.5,99.5C 156.241,100.344 155.241,102.011 155.5,104.5C 158.119,104.768 160.619,104.435 163,103.5C 163.497,105.81 163.663,108.143 163.5,110.5C 162.549,109.081 162.216,107.415 162.5,105.5C 156.426,106.902 152.092,104.902 149.5,99.5C 149.789,95.8936 149.456,92.3936 148.5,89C 143.52,84.8931 138.187,84.3931 132.5,87.5C 132.577,86.2502 133.244,85.4169 134.5,85C 136.333,84.8333 138.167,84.6667 140,84.5C 142.302,84.6004 144.302,85.267 146,86.5C 147.319,84.5125 149.152,83.3459 151.5,83C 149.999,81.7485 148.332,80.7485 146.5,80C 145.748,79.3292 145.414,78.4959 145.5,77.5 Z"/></g>
<g><path style="opacity:1" fill="#b0523f" d="M 74.5,96.5 C 74.4606,97.5832 74.1272,98.5832 73.5,99.5C 76.1667,100.167 78.8333,100.833 81.5,101.5C 81.8627,102.183 82.1961,102.85 82.5,103.5C 79.0504,102.09 75.3837,101.424 71.5,101.5C 71.5,100.5 71.5,99.5 71.5,98.5C 72.5,97.8333 73.5,97.1667 74.5,96.5 Z"/></g>
<g><path style="opacity:1" fill="#f8744b" d="M 98.5,101.5 C 98.4142,102.496 98.7476,103.329 99.5,104C 97.3395,104.996 95.6728,106.496 94.5,108.5C 93.6879,109.993 92.3545,110.66 90.5,110.5C 89.2739,110.48 88.2739,110.147 87.5,109.5C 89.4286,109.769 91.0953,109.269 92.5,108C 87.3834,103.564 82.3834,99.0644 77.5,94.5C 78.1894,93.2264 79.0228,93.2264 80,94.5C 80.941,92.9386 82.1076,91.6053 83.5,90.5C 88.832,93.8491 93.832,97.5158 98.5,101.5 Z"/></g>
<g><path style="opacity:1" fill="#ed9468" d="M 90.5,84.5 C 101.216,82.8696 109.882,86.2029 116.5,94.5C 116.5,94.8333 116.5,95.1667 116.5,95.5C 116.714,97.1439 116.38,98.6439 115.5,100C 108.479,102.846 101.479,105.679 94.5,108.5C 95.6728,106.496 97.3395,104.996 99.5,104C 98.7476,103.329 98.4142,102.496 98.5,101.5C 102.978,101.464 107.311,100.631 111.5,99C 110.574,96.0429 110.574,93.3763 111.5,91C 104.367,86.1105 97.034,85.6105 89.5,89.5C 87.2534,88.6258 84.9201,88.2924 82.5,88.5C 85.0791,86.9748 87.7458,85.6414 90.5,84.5 Z"/></g>
<g><path style="opacity:1" fill="#374033" d="M 130.5,88.5 C 125.787,94.3355 127.121,98.0022 134.5,99.5C 136.693,102.418 137.693,105.752 137.5,109.5C 142.169,109.056 146.169,110.39 149.5,113.5C 149.5,115.5 149.5,117.5 149.5,119.5C 148.839,118.282 148.172,116.949 147.5,115.5C 147.167,115.667 146.833,115.833 146.5,116C 145.914,118.28 145.08,120.447 144,122.5C 143.802,120.618 143.302,118.952 142.5,117.5C 140.078,115.35 137.411,115.017 134.5,116.5C 131.875,115.559 131.875,114.393 134.5,113C 133.167,112.667 131.833,112.333 130.5,112C 131.807,110.057 131.807,108.223 130.5,106.5C 129.373,105.878 128.373,105.045 127.5,104C 126.167,103.333 124.833,103.333 123.5,104C 114.35,108.389 105.016,112.222 95.5,115.5C 94.1155,114.199 92.6155,114.199 91,115.5C 90.51,114.207 90.3433,112.873 90.5,111.5C 88.0876,111.244 86.4209,112.244 85.5,114.5C 84.513,117.768 84.1796,121.102 84.5,124.5C 83.8826,124.389 83.3826,124.056 83,123.5C 83.7734,116.126 80.6067,111.793 73.5,110.5C 69.9943,109.502 66.3276,109.502 62.5,110.5C 62.8039,109.85 63.1373,109.183 63.5,108.5C 66.1667,107.833 68.8333,107.167 71.5,106.5C 68.6215,104.894 65.6215,103.561 62.5,102.5C 64.4233,101.692 66.4233,101.192 68.5,101C 69.0779,99.583 70.0779,98.7496 71.5,98.5C 71.5,99.5 71.5,100.5 71.5,101.5C 75.3837,101.424 79.0504,102.09 82.5,103.5C 84.1139,105.456 85.7806,107.456 87.5,109.5C 88.2739,110.147 89.2739,110.48 90.5,110.5C 92.3545,110.66 93.6879,109.993 94.5,108.5C 101.479,105.679 108.479,102.846 115.5,100C 116.38,98.6439 116.714,97.1439 116.5,95.5C 117.397,96.5981 118.23,96.5981 119,95.5C 119.202,93.7444 119.702,92.0777 120.5,90.5C 123.166,93.2281 125.166,92.7281 126.5,89C 127.793,88.51 129.127,88.3433 130.5,88.5 Z"/></g>
<g><path style="opacity:1" fill="#e56446" d="M 149.5,99.5 C 152.092,104.902 156.426,106.902 162.5,105.5C 162.216,107.415 162.549,109.081 163.5,110.5C 163.297,112.39 163.963,113.89 165.5,115C 168.351,116.289 171.351,116.789 174.5,116.5C 174.5,118.167 174.5,119.833 174.5,121.5C 173.596,120.791 173.263,119.791 173.5,118.5C 171.473,118.662 169.473,118.495 167.5,118C 164.161,115.658 160.827,113.325 157.5,111C 158.448,110.517 159.448,110.351 160.5,110.5C 160.5,109.5 160.5,108.5 160.5,107.5C 157.832,107.666 155.498,108.666 153.5,110.5C 152.833,109.167 152.167,107.833 151.5,106.5C 150.914,106.709 150.414,107.043 150,107.5C 149.503,104.854 149.336,102.187 149.5,99.5 Z"/></g>
<g><path style="opacity:1" fill="#304237" d="M 205.5,84.5 C 213.367,84.6984 217.033,88.6984 216.5,96.5C 223.686,96.8844 227.353,100.551 227.5,107.5C 235.331,107.877 238.997,111.877 238.5,119.5C 237.503,119.47 236.836,119.97 236.5,121C 237.707,122.3 238.374,123.8 238.5,125.5C 236.801,125.66 235.134,125.494 233.5,125C 233.957,124.586 234.291,124.086 234.5,123.5C 233.234,122.638 231.901,121.971 230.5,121.5C 232.35,117.596 231.183,114.929 227,113.5C 217.022,118.491 206.856,122.991 196.5,127C 194.604,128.808 194.104,130.975 195,133.5C 196.062,134.097 197.228,134.43 198.5,134.5C 201.834,133.5 205.168,132.5 208.5,131.5C 208.275,135.056 209.108,135.39 211,132.5C 211.5,132.667 212,132.833 212.5,133C 211.635,134.359 210.635,135.526 209.5,136.5C 207.048,136.624 205.048,137.624 203.5,139.5C 201.334,139.57 201.001,138.904 202.5,137.5C 202,137.167 201.5,136.833 201,136.5C 198.924,138.233 196.591,139.566 194,140.5C 191.977,139.293 190.144,137.96 188.5,136.5C 188.552,132.802 188.886,129.135 189.5,125.5C 186.183,126.221 182.849,126.388 179.5,126C 176.861,122.25 175.528,118.083 175.5,113.5C 170.929,114.127 166.929,113.127 163.5,110.5C 163.663,108.143 163.497,105.81 163,103.5C 160.619,104.435 158.119,104.768 155.5,104.5C 155.241,102.011 156.241,100.344 158.5,99.5C 161.518,99.6646 164.518,99.498 167.5,99C 177.51,93.8258 187.51,88.9924 197.5,84.5C 198.469,82.337 199.302,80.0037 200,77.5C 200.333,78.1667 200.667,78.8333 201,79.5C 201.667,78.1667 202.333,78.1667 203,79.5C 203.099,81.6526 203.933,83.3192 205.5,84.5 Z"/></g>
<g><path style="opacity:1" fill="#eef2e2" d="M 212.5,102.5 C 219.068,102.192 220.734,104.692 217.5,110C 209.282,113.224 201.282,116.891 193.5,121C 190.179,122.438 186.846,122.605 183.5,121.5C 182.24,119.647 182.24,117.814 183.5,116C 193.498,111.998 203.164,107.498 212.5,102.5 Z"/></g>
<g><path style="opacity:1" fill="#eef1e2" d="M 203.5,89.5 C 209.348,90.4632 210.681,93.2966 207.5,98C 198.173,101.988 188.84,105.988 179.5,110C 176.773,110.818 174.106,110.652 171.5,109.5C 170.047,107.356 170.38,105.523 172.5,104C 183.186,99.6539 193.519,94.8206 203.5,89.5 Z"/></g>
<g><path style="opacity:1" fill="#304337" d="M 21.5,81.5 C 22.3094,82.4687 23.3094,83.3021 24.5,84C 23.6167,87.0098 21.6167,89.5098 18.5,91.5C 17.3995,92.6049 16.7329,93.9382 16.5,95.5C 14.8333,97.5 13.1667,99.5 11.5,101.5C 10.8485,102.091 10.1818,102.757 9.5,103.5C 8.66729,116.821 8.16729,130.154 8,143.5C 7.66667,142.167 7.33333,140.833 7,139.5C 6.89086,144.614 6.22419,149.614 5,154.5C 1.90058,135.5 1.73392,116.5 4.5,97.5C 4.97003,94.2548 6.30336,91.4214 8.5,89C 11.1667,87 13.8333,85 16.5,83C 18.0249,81.9914 19.6916,81.4914 21.5,81.5 Z"/></g>
<g><path style="opacity:1" fill="#e86648" d="M 73.5,110.5 C 80.6067,111.793 83.7734,116.126 83,123.5C 83.3826,124.056 83.8826,124.389 84.5,124.5C 84.5,124.833 84.5,125.167 84.5,125.5C 85.2899,126.794 86.2899,127.961 87.5,129C 90.4816,129.498 93.4816,129.665 96.5,129.5C 96.5,131.833 96.5,134.167 96.5,136.5C 95.5655,135.432 95.2322,134.099 95.5,132.5C 92.1501,132.665 88.8168,132.498 85.5,132C 84.7476,131.329 84.4142,130.496 84.5,129.5C 81.9454,125.965 80.6121,121.965 80.5,117.5C 79.5,117.5 78.5,117.5 77.5,117.5C 77.5,116.5 77.5,115.5 77.5,114.5C 76.5,114.5 75.5,114.5 74.5,114.5C 74.5674,113.041 74.2341,111.708 73.5,110.5 Z"/></g>
<g><path style="opacity:1" fill="#edf1e2" d="M 130.5,106.5 C 130.67,107.822 130.337,108.989 129.5,110C 118.418,115.806 106.918,120.639 95,124.5C 93.1667,124 92,122.833 91.5,121C 92.4825,118.85 93.8158,117.017 95.5,115.5C 105.016,112.222 114.35,108.389 123.5,104C 124.833,103.333 126.167,103.333 127.5,104C 128.373,105.045 129.373,105.878 130.5,106.5 Z"/></g>
<g><path style="opacity:1" fill="#f26f4d" d="M 26.5,92.5 C 17.9975,99.8702 16.4975,108.537 22,118.5C 24.0396,120.37 25.8729,122.37 27.5,124.5C 27.5,124.833 27.5,125.167 27.5,125.5C 26.3121,124.316 25.1455,124.316 24,125.5C 23.8564,121.855 22.0231,119.521 18.5,118.5C 17.7568,117.092 16.9234,115.759 16,114.5C 15.5006,119.823 15.334,125.156 15.5,130.5C 15.5,140.833 15.5,151.167 15.5,161.5C 14.5,161.5 13.5,161.5 12.5,161.5C 14.2136,140.919 15.047,120.252 15,99.5C 15.7914,98.255 16.2914,96.9217 16.5,95.5C 18.34,93.832 20.34,92.332 22.5,91C 24.4628,90.1558 25.7961,90.6558 26.5,92.5 Z"/></g>
<g><path style="opacity:1" fill="#dc654c" d="M 149.5,113.5 C 151.28,114.99 151.946,116.99 151.5,119.5C 158.283,118.909 161.95,122.576 162.5,130.5C 167.884,131.179 173.217,132.179 178.5,133.5C 178.154,134.696 177.654,134.696 177,133.5C 175.725,136.699 175.559,140.033 176.5,143.5C 174.81,140.815 173.31,137.815 172,134.5C 170.556,132.845 168.722,132.178 166.5,132.5C 164.5,132.5 162.5,132.5 160.5,132.5C 160.664,129.813 160.497,127.146 160,124.5C 156.459,122.543 152.959,120.876 149.5,119.5C 149.5,117.5 149.5,115.5 149.5,113.5 Z"/></g>
<g><path style="opacity:1" fill="#ecf1e1" d="M 230.5,121.5 C 222.674,123.747 215.34,127.08 208.5,131.5C 205.168,132.5 201.834,133.5 198.5,134.5C 197.228,134.43 196.062,134.097 195,133.5C 194.104,130.975 194.604,128.808 196.5,127C 206.856,122.991 217.022,118.491 227,113.5C 231.183,114.929 232.35,117.596 230.5,121.5 Z"/></g>
<g><path style="opacity:1" fill="#54392d" d="M 163.5,110.5 C 166.929,113.127 170.929,114.127 175.5,113.5C 175.528,118.083 176.861,122.25 179.5,126C 182.849,126.388 186.183,126.221 189.5,125.5C 188.886,129.135 188.552,132.802 188.5,136.5C 187.834,133.642 187.167,130.642 186.5,127.5C 181.128,129.148 177.128,127.481 174.5,122.5C 174.5,122.167 174.5,121.833 174.5,121.5C 174.5,119.833 174.5,118.167 174.5,116.5C 171.351,116.789 168.351,116.289 165.5,115C 163.963,113.89 163.297,112.39 163.5,110.5 Z"/></g>
<g><path style="opacity:1" fill="#3f3e30" d="M 26.5,92.5 C 26.8333,92.5 27.1667,92.5 27.5,92.5C 27.8174,96.1716 26.1507,97.8383 22.5,97.5C 22.7908,100.909 23.7908,104.076 25.5,107C 25.3594,108.955 24.526,110.455 23,111.5C 22.5045,113.473 22.3379,115.473 22.5,117.5C 24.1667,117.5 25.8333,117.5 27.5,117.5C 27.5,118.5 27.5,119.5 27.5,120.5C 30.0935,119.147 32.9268,118.481 36,118.5C 37.5,118.667 39,118.833 40.5,119C 39.6919,119.308 39.0253,119.808 38.5,120.5C 40.6096,121.891 42.9429,122.558 45.5,122.5C 48.5938,122.35 51.2605,121.35 53.5,119.5C 55.645,116.88 57.645,114.046 59.5,111C 60.448,110.517 61.448,110.351 62.5,110.5C 58.8807,115.788 54.5474,120.454 49.5,124.5C 42.1351,128.494 34.8018,128.494 27.5,124.5C 25.8729,122.37 24.0396,120.37 22,118.5C 16.4975,108.537 17.9975,99.8702 26.5,92.5 Z"/></g>
<g><path style="opacity:1" fill="#fa5e41" d="M 73.5,110.5 C 74.2341,111.708 74.5674,113.041 74.5,114.5C 75.5,114.5 76.5,114.5 77.5,114.5C 77.5,115.5 77.5,116.5 77.5,117.5C 78.5,117.5 79.5,117.5 80.5,117.5C 80.6121,121.965 81.9454,125.965 84.5,129.5C 83.5,129.5 82.5,129.5 81.5,129.5C 80.9512,127.099 80.1178,124.765 79,122.5C 75.1606,127.854 69.994,130.187 63.5,129.5C 63.7135,127.856 63.3802,126.356 62.5,125C 59.6249,123.698 56.6249,122.865 53.5,122.5C 53.2267,124.451 53.8934,125.951 55.5,127C 51.1076,128.807 50.7743,131.473 54.5,135C 54.9426,136.518 54.2759,137.685 52.5,138.5C 54.0728,140.836 55.4061,140.836 56.5,138.5C 57.6504,140.609 58.9837,142.609 60.5,144.5C 59.6616,148.416 59.3283,152.249 59.5,156C 60.0293,158.429 61.3626,160.262 63.5,161.5C 63.3764,162.107 63.0431,162.44 62.5,162.5C 56.1542,157.876 53.6542,151.543 55,143.5C 52.2993,140.443 48.966,138.776 45,138.5C 41.0291,140.114 36.8624,140.614 32.5,140C 27.0567,136.282 21.39,133.115 15.5,130.5C 15.334,125.156 15.5006,119.823 16,114.5C 16.9234,115.759 17.7568,117.092 18.5,118.5C 22.0231,119.521 23.8564,121.855 24,125.5C 25.1455,124.316 26.3121,124.316 27.5,125.5C 30.68,127.867 34.3467,128.867 38.5,128.5C 41.5917,128.493 44.5917,127.993 47.5,127C 48.756,126.583 49.4226,125.75 49.5,124.5C 54.5474,120.454 58.8807,115.788 62.5,110.5C 66.3276,109.502 69.9943,109.502 73.5,110.5 Z"/></g>
<g><path style="opacity:1" fill="#ce6c56" d="M 27.5,124.5 C 34.8018,128.494 42.1351,128.494 49.5,124.5C 49.4226,125.75 48.756,126.583 47.5,127C 44.5917,127.993 41.5917,128.493 38.5,128.5C 34.3467,128.867 30.68,127.867 27.5,125.5C 27.5,125.167 27.5,124.833 27.5,124.5 Z"/></g>
<g><path style="opacity:1" fill="#4e372a" d="M 84.5,125.5 C 87.6059,126.313 90.6059,127.313 93.5,128.5C 95.5351,127.796 97.5351,127.129 99.5,126.5C 98.6796,130.885 98.6796,135.218 99.5,139.5C 98.2719,138.694 97.2719,137.694 96.5,136.5C 96.5,134.167 96.5,131.833 96.5,129.5C 93.4816,129.665 90.4816,129.498 87.5,129C 86.2899,127.961 85.2899,126.794 84.5,125.5 Z"/></g>
<g><path style="opacity:1" fill="#e6644a" d="M 174.5,122.5 C 177.128,127.481 181.128,129.148 186.5,127.5C 187.167,130.642 187.834,133.642 188.5,136.5C 189.836,139.154 191.503,141.487 193.5,143.5C 189.843,141.654 186.343,139.654 183,137.5C 182.503,135.19 182.337,132.857 182.5,130.5C 179.618,130.392 177.285,129.226 175.5,127C 174.62,125.644 174.286,124.144 174.5,122.5 Z"/></g>
<g><path style="opacity:1" fill="#374234" d="M 238.5,119.5 C 242.852,122.865 247.519,126.031 252.5,129C 262.875,133.567 272.875,138.734 282.5,144.5C 288.719,150.48 292.053,157.813 292.5,166.5C 290.743,163.563 289.409,160.229 288.5,156.5C 287.311,155.571 285.978,155.238 284.5,155.5C 284.785,153.712 284.452,152.045 283.5,150.5C 283.167,150.667 282.833,150.833 282.5,151C 281.395,153.12 281.395,155.287 282.5,157.5C 280.098,155.091 277.431,153.091 274.5,151.5C 272.353,149.53 270.02,147.697 267.5,146C 257.218,142.192 247.551,137.359 238.5,131.5C 237.945,129.271 236.611,127.605 234.5,126.5C 227.512,130.689 220.178,134.022 212.5,136.5C 211.5,136.5 210.5,136.5 209.5,136.5C 210.635,135.526 211.635,134.359 212.5,133C 212,132.833 211.5,132.667 211,132.5C 209.108,135.39 208.275,135.056 208.5,131.5C 215.34,127.08 222.674,123.747 230.5,121.5C 231.901,121.971 233.234,122.638 234.5,123.5C 234.291,124.086 233.957,124.586 233.5,125C 235.134,125.494 236.801,125.66 238.5,125.5C 238.374,123.8 237.707,122.3 236.5,121C 236.836,119.97 237.503,119.47 238.5,119.5 Z"/></g>
<g><path style="opacity:1" fill="#fd5d40" d="M 84.5,129.5 C 84.4142,130.496 84.7476,131.329 85.5,132C 88.8168,132.498 92.1501,132.665 95.5,132.5C 95.2322,134.099 95.5655,135.432 96.5,136.5C 96.317,138.936 96.9837,141.103 98.5,143C 96.2915,143.936 94.9582,145.602 94.5,148C 96.3497,150.033 97.0164,150.033 96.5,148C 98.1667,147.333 99.8333,147.333 101.5,148C 100.802,148.971 100.802,150.137 101.5,151.5C 101.081,152.672 100.415,153.672 99.5,154.5C 101.856,155.654 102.023,156.987 100,158.5C 97.1522,150.07 92.1522,148.403 85,153.5C 84.6924,152.692 84.1924,152.025 83.5,151.5C 80.7497,158.403 82.7497,163.07 89.5,165.5C 88.3318,166.906 88.6652,168.072 90.5,169C 89.6138,170.615 88.6138,172.115 87.5,173.5C 86.5,173.5 85.5,173.5 84.5,173.5C 84.1583,172.662 83.4916,172.328 82.5,172.5C 76.3064,168.214 69.6398,164.88 62.5,162.5C 63.0431,162.44 63.3764,162.107 63.5,161.5C 61.3626,160.262 60.0293,158.429 59.5,156C 59.3283,152.249 59.6616,148.416 60.5,144.5C 58.9837,142.609 57.6504,140.609 56.5,138.5C 55.4061,140.836 54.0728,140.836 52.5,138.5C 54.2759,137.685 54.9426,136.518 54.5,135C 50.7743,131.473 51.1076,128.807 55.5,127C 53.8934,125.951 53.2267,124.451 53.5,122.5C 56.6249,122.865 59.6249,123.698 62.5,125C 63.3802,126.356 63.7135,127.856 63.5,129.5C 69.994,130.187 75.1606,127.854 79,122.5C 80.1178,124.765 80.9512,127.099 81.5,129.5C 82.5,129.5 83.5,129.5 84.5,129.5 Z"/></g>
<g><path style="opacity:1" fill="#314238" d="M 130.5,106.5 C 131.807,108.223 131.807,110.057 130.5,112C 131.833,112.333 133.167,112.667 134.5,113C 131.875,114.393 131.875,115.559 134.5,116.5C 125.081,120.031 115.748,123.864 106.5,128C 103.433,131.623 104.1,134.123 108.5,135.5C 120.118,132.188 131.118,127.522 141.5,121.5C 142.429,120.311 142.762,118.978 142.5,117.5C 143.302,118.952 143.802,120.618 144,122.5C 145.08,120.447 145.914,118.28 146.5,116C 146.833,115.833 147.167,115.667 147.5,115.5C 148.172,116.949 148.839,118.282 149.5,119.5C 152.959,120.876 156.459,122.543 160,124.5C 160.497,127.146 160.664,129.813 160.5,132.5C 162.5,132.5 164.5,132.5 166.5,132.5C 165.766,133.708 165.433,135.041 165.5,136.5C 163.901,136.232 162.568,136.566 161.5,137.5C 150.736,141.798 140.236,146.798 130,152.5C 127.508,156.361 128.508,158.694 133,159.5C 137.903,156.819 143.07,154.819 148.5,153.5C 148.611,154.117 148.944,154.617 149.5,155C 147.824,156.177 146.491,157.677 145.5,159.5C 143.802,158.319 142.135,158.319 140.5,159.5C 140.833,160.167 141.167,160.833 141.5,161.5C 140.174,162.642 139.174,163.976 138.5,165.5C 133.557,166.12 129.057,165.12 125,162.5C 124.578,160.645 124.078,158.811 123.5,157C 125.166,153.147 124.499,149.98 121.5,147.5C 121.169,149.322 120.502,150.989 119.5,152.5C 116.495,152.747 113.995,151.747 112,149.5C 110.847,146.289 110.18,142.956 110,139.5C 106.534,140.717 103.034,140.717 99.5,139.5C 98.6796,135.218 98.6796,130.885 99.5,126.5C 97.5351,127.129 95.5351,127.796 93.5,128.5C 90.6059,127.313 87.6059,126.313 84.5,125.5C 84.5,125.167 84.5,124.833 84.5,124.5C 84.1796,121.102 84.513,117.768 85.5,114.5C 86.4209,112.244 88.0876,111.244 90.5,111.5C 90.3433,112.873 90.51,114.207 91,115.5C 92.6155,114.199 94.1155,114.199 95.5,115.5C 93.8158,117.017 92.4825,118.85 91.5,121C 92,122.833 93.1667,124 95,124.5C 106.918,120.639 118.418,115.806 129.5,110C 130.337,108.989 130.67,107.822 130.5,106.5 Z"/></g>
<g><path style="opacity:1" fill="#ecf0e1" d="M 121.5,147.5 C 117.024,147.2 115.69,145.033 117.5,141C 127.742,135.46 138.242,130.627 149,126.5C 154.126,127.542 155.292,130.042 152.5,134C 146.243,136.462 140.243,139.462 134.5,143C 129.872,143.831 125.539,145.331 121.5,147.5 Z"/></g>
<g><path style="opacity:1" fill="#ecf1e1" d="M 142.5,117.5 C 142.762,118.978 142.429,120.311 141.5,121.5C 131.118,127.522 120.118,132.188 108.5,135.5C 104.1,134.123 103.433,131.623 106.5,128C 115.748,123.864 125.081,120.031 134.5,116.5C 137.411,115.017 140.078,115.35 142.5,117.5 Z"/></g>
<g><path style="opacity:1" fill="#ef6a44" d="M 238.5,131.5 C 230.142,136.01 221.475,140.01 212.5,143.5C 212.5,142.5 212.5,141.5 212.5,140.5C 209.073,141.433 205.74,142.6 202.5,144C 199.304,144.805 196.304,144.638 193.5,143.5C 200.83,143.66 207.163,141.327 212.5,136.5C 220.178,134.022 227.512,130.689 234.5,126.5C 236.611,127.605 237.945,129.271 238.5,131.5 Z"/></g>
<g><path style="opacity:1" fill="#fcbe88" d="M 238.5,131.5 C 247.551,137.359 257.218,142.192 267.5,146C 270.02,147.697 272.353,149.53 274.5,151.5C 265.822,154.662 257.156,158.162 248.5,162C 238.861,163.832 229.195,163.998 219.5,162.5C 216.418,160.628 213.751,158.295 211.5,155.5C 209.971,151.241 210.304,147.241 212.5,143.5C 221.475,140.01 230.142,136.01 238.5,131.5 Z"/></g>
<g><path style="opacity:1" fill="#4e3d31" d="M 188.5,136.5 C 190.144,137.96 191.977,139.293 194,140.5C 196.591,139.566 198.924,138.233 201,136.5C 201.5,136.833 202,137.167 202.5,137.5C 201.001,138.904 201.334,139.57 203.5,139.5C 205.048,137.624 207.048,136.624 209.5,136.5C 210.5,136.5 211.5,136.5 212.5,136.5C 207.163,141.327 200.83,143.66 193.5,143.5C 191.503,141.487 189.836,139.154 188.5,136.5 Z"/></g>
<g><path style="opacity:1" fill="#ec4330" d="M 15.5,130.5 C 21.39,133.115 27.0567,136.282 32.5,140C 36.8624,140.614 41.0291,140.114 45,138.5C 48.966,138.776 52.2993,140.443 55,143.5C 53.6542,151.543 56.1542,157.876 62.5,162.5C 69.6398,164.88 76.3064,168.214 82.5,172.5C 80.6336,171.986 78.8003,171.32 77,170.5C 73.1373,171.849 69.6373,173.849 66.5,176.5C 64.604,177.466 62.604,177.799 60.5,177.5C 53.9339,177.032 47.9339,174.866 42.5,171C 40.0995,170.814 37.7662,170.314 35.5,169.5C 32.0965,167.161 28.7632,164.828 25.5,162.5C 22.7198,161.805 20.0531,160.805 17.5,159.5C 16.8182,160.243 16.1515,160.909 15.5,161.5C 15.5,151.167 15.5,140.833 15.5,130.5 Z"/></g>
<g><path style="opacity:1" fill="#3d3f30" d="M 4.5,97.5 C 1.73392,116.5 1.90058,135.5 5,154.5C 6.22419,149.614 6.89086,144.614 7,139.5C 7.33333,140.833 7.66667,142.167 8,143.5C 8.16729,130.154 8.66729,116.821 9.5,103.5C 10.1818,102.757 10.8485,102.091 11.5,101.5C 11.313,103.564 10.813,105.564 10,107.5C 9.33333,125.167 9.33333,142.833 10,160.5C 11.7342,162.451 13.9009,163.451 16.5,163.5C 20.0936,165.647 23.7603,167.647 27.5,169.5C 23.8654,168.421 20.1987,168.421 16.5,169.5C 14.674,165.86 11.674,163.36 7.5,162C 5.22334,157.488 3.72334,157.988 3,163.5C 2.66667,162.833 2.33333,162.167 2,161.5C 1.82942,170.01 1.32942,178.343 0.5,186.5C 0.737305,185.209 0.403972,184.209 -0.5,183.5C -0.5,180.833 -0.5,178.167 -0.5,175.5C 0.33203,153.004 0.83203,130.337 1,107.5C 1.30215,103.755 2.46882,100.422 4.5,97.5 Z"/></g>
<g><path style="opacity:1" fill="#643a27" d="M 99.5,139.5 C 103.034,140.717 106.534,140.717 110,139.5C 110.18,142.956 110.847,146.289 112,149.5C 113.995,151.747 116.495,152.747 119.5,152.5C 117.312,153.623 114.979,153.623 112.5,152.5C 109.742,149.74 108.408,146.407 108.5,142.5C 106.143,142.663 103.81,142.497 101.5,142C 100.619,141.292 99.9528,140.458 99.5,139.5 Z"/></g>
<g><path style="opacity:1" fill="#fa5e41" d="M 149.5,99.5 C 149.336,102.187 149.503,104.854 150,107.5C 150.414,107.043 150.914,106.709 151.5,106.5C 152.167,107.833 152.833,109.167 153.5,110.5C 155.498,108.666 157.832,107.666 160.5,107.5C 160.5,108.5 160.5,109.5 160.5,110.5C 159.448,110.351 158.448,110.517 157.5,111C 160.827,113.325 164.161,115.658 167.5,118C 169.473,118.495 171.473,118.662 173.5,118.5C 173.263,119.791 173.596,120.791 174.5,121.5C 174.5,121.833 174.5,122.167 174.5,122.5C 174.286,124.144 174.62,125.644 175.5,127C 177.285,129.226 179.618,130.392 182.5,130.5C 182.337,132.857 182.503,135.19 183,137.5C 186.343,139.654 189.843,141.654 193.5,143.5C 196.304,144.638 199.304,144.805 202.5,144C 205.74,142.6 209.073,141.433 212.5,140.5C 212.5,141.5 212.5,142.5 212.5,143.5C 210.304,147.241 209.971,151.241 211.5,155.5C 211.286,157.144 211.62,158.644 212.5,160C 211.833,160.167 211.167,160.333 210.5,160.5C 208.205,158.52 205.539,157.353 202.5,157C 203.167,156.667 203.833,156.333 204.5,156C 198.398,155.734 192.398,154.901 186.5,153.5C 185.761,153.631 185.094,153.464 184.5,153C 181.707,149.895 179.04,146.728 176.5,143.5C 175.559,140.033 175.725,136.699 177,133.5C 177.654,134.696 178.154,134.696 178.5,133.5C 173.217,132.179 167.884,131.179 162.5,130.5C 161.95,122.576 158.283,118.909 151.5,119.5C 151.946,116.99 151.28,114.99 149.5,113.5C 146.169,110.39 142.169,109.056 137.5,109.5C 137.693,105.752 136.693,102.418 134.5,99.5C 132.491,98.2586 130.825,96.5919 129.5,94.5C 130.789,94.1677 132.455,93.8344 134.5,93.5C 134.141,91.2341 134.808,89.4007 136.5,88C 139.531,87.5046 142.531,87.6713 145.5,88.5C 145.67,89.8221 145.337,90.9887 144.5,92C 145.325,93.6883 146.325,93.8549 147.5,92.5C 148.168,94.9688 148.835,97.3021 149.5,99.5 Z"/></g>
<g><path style="opacity:1" fill="#e88662" d="M 16.5,95.5 C 16.2914,96.9217 15.7914,98.255 15,99.5C 15.047,120.252 14.2136,140.919 12.5,161.5C 13.5,161.5 14.5,161.5 15.5,161.5C 15.8333,162.167 16.1667,162.833 16.5,163.5C 13.9009,163.451 11.7342,162.451 10,160.5C 9.33333,142.833 9.33333,125.167 10,107.5C 10.813,105.564 11.313,103.564 11.5,101.5C 13.1667,99.5 14.8333,97.5 16.5,95.5 Z"/></g>
<g><path style="opacity:1" fill="#ecf0df" d="M 161.5,137.5 C 165.84,137.386 168.007,139.386 168,143.5C 161.552,146.974 155.052,150.307 148.5,153.5C 143.07,154.819 137.903,156.819 133,159.5C 128.508,158.694 127.508,156.361 130,152.5C 140.236,146.798 150.736,141.798 161.5,137.5 Z"/></g>
<g><path style="opacity:1" fill="#4c3a2f" d="M 121.5,147.5 C 124.499,149.98 125.166,153.147 123.5,157C 124.078,158.811 124.578,160.645 125,162.5C 129.057,165.12 133.557,166.12 138.5,165.5C 135.124,167.082 131.458,167.749 127.5,167.5C 127.5,166.833 127.167,166.5 126.5,166.5C 125.207,164.704 123.707,163.037 122,161.5C 122.07,158.008 121.237,155.008 119.5,152.5C 120.502,150.989 121.169,149.322 121.5,147.5 Z"/></g>
<g><path style="opacity:1" fill="#dc654a" d="M 112.5,152.5 C 114.979,153.623 117.312,153.623 119.5,152.5C 121.237,155.008 122.07,158.008 122,161.5C 123.707,163.037 125.207,164.704 126.5,166.5C 123.588,164.934 120.921,162.934 118.5,160.5C 117.948,158.997 117.948,157.331 118.5,155.5C 115.68,155.913 113.68,154.913 112.5,152.5 Z"/></g>
<g><path style="opacity:1" fill="#fb5c41" d="M 96.5,136.5 C 97.2719,137.694 98.2719,138.694 99.5,139.5C 99.9528,140.458 100.619,141.292 101.5,142C 103.81,142.497 106.143,142.663 108.5,142.5C 108.408,146.407 109.742,149.74 112.5,152.5C 113.68,154.913 115.68,155.913 118.5,155.5C 117.948,157.331 117.948,158.997 118.5,160.5C 120.921,162.934 123.588,164.934 126.5,166.5C 127.167,166.5 127.5,166.833 127.5,167.5C 129.607,168.468 131.941,168.802 134.5,168.5C 133.208,171.67 131.542,172.004 129.5,169.5C 126.601,170.642 123.601,171.308 120.5,171.5C 120.566,175.735 118.566,178.402 114.5,179.5C 116.475,180.749 116.809,182.249 115.5,184C 117.618,185.049 119.284,186.549 120.5,188.5C 109.223,184.076 98.2232,179.076 87.5,173.5C 88.6138,172.115 89.6138,170.615 90.5,169C 88.6652,168.072 88.3318,166.906 89.5,165.5C 82.7497,163.07 80.7497,158.403 83.5,151.5C 84.1924,152.025 84.6924,152.692 85,153.5C 92.1522,148.403 97.1522,150.07 100,158.5C 102.023,156.987 101.856,155.654 99.5,154.5C 100.415,153.672 101.081,152.672 101.5,151.5C 100.802,150.137 100.802,148.971 101.5,148C 99.8333,147.333 98.1667,147.333 96.5,148C 97.0164,150.033 96.3497,150.033 94.5,148C 94.9582,145.602 96.2915,143.936 98.5,143C 96.9837,141.103 96.317,138.936 96.5,136.5 Z"/></g>
<g><path style="opacity:1" fill="#3a4033" d="M 166.5,132.5 C 168.722,132.178 170.556,132.845 172,134.5C 173.31,137.815 174.81,140.815 176.5,143.5C 179.04,146.728 181.707,149.895 184.5,153C 185.094,153.464 185.761,153.631 186.5,153.5C 195.917,159.378 205.917,164.545 216.5,169C 220.667,172.064 224.333,175.564 227.5,179.5C 227.5,179.833 227.5,180.167 227.5,180.5C 230.962,181.482 234.629,181.815 238.5,181.5C 234.346,182.77 230.013,183.77 225.5,184.5C 224.476,183.147 223.143,182.48 221.5,182.5C 221.34,184.199 221.506,185.866 222,187.5C 223.814,186.24 225.647,186.24 227.5,187.5C 226.311,188.429 224.978,188.762 223.5,188.5C 223.579,189.93 223.246,191.264 222.5,192.5C 224.012,193.862 225.512,194.196 227,193.5C 227.718,196.407 227.218,199.074 225.5,201.5C 224.508,201.672 223.842,201.338 223.5,200.5C 224.886,198.243 224.219,196.576 221.5,195.5C 217.29,194.622 212.957,194.622 208.5,195.5C 212.137,192.195 216.471,190.862 221.5,191.5C 220.454,186.404 218.121,182.071 214.5,178.5C 204.441,172.804 194.108,167.637 183.5,163C 180.669,160.999 178.003,158.833 175.5,156.5C 173.832,154.66 172.332,152.66 171,150.5C 168.521,152.314 166.021,153.981 163.5,155.5C 155.02,158.577 146.687,161.91 138.5,165.5C 139.174,163.976 140.174,162.642 141.5,161.5C 141.167,160.833 140.833,160.167 140.5,159.5C 142.135,158.319 143.802,158.319 145.5,159.5C 146.491,157.677 147.824,156.177 149.5,155C 148.944,154.617 148.611,154.117 148.5,153.5C 155.052,150.307 161.552,146.974 168,143.5C 168.007,139.386 165.84,137.386 161.5,137.5C 162.568,136.566 163.901,136.232 165.5,136.5C 165.433,135.041 165.766,133.708 166.5,132.5 Z"/></g>
<g><path style="opacity:1" fill="#d07655" d="M 175.5,156.5 C 175.167,157.5 174.5,158.167 173.5,158.5C 173.756,156.088 172.756,154.421 170.5,153.5C 168.382,154.946 166.049,155.613 163.5,155.5C 166.021,153.981 168.521,152.314 171,150.5C 172.332,152.66 173.832,154.66 175.5,156.5 Z"/></g>
<g><path style="opacity:1" fill="#f37a53" d="M 274.5,151.5 C 277.431,153.091 280.098,155.091 282.5,157.5C 282.5,159.5 282.5,161.5 282.5,163.5C 279.813,163.336 277.146,163.503 274.5,164C 270.63,165.803 266.63,167.303 262.5,168.5C 263.857,166.501 263.19,165.335 260.5,165C 261.167,164.667 261.833,164.333 262.5,164C 259.895,162.979 257.228,162.145 254.5,161.5C 252.446,163.194 250.112,164.361 247.5,165C 239.5,165.667 231.5,165.667 223.5,165C 221.68,164.8 220.347,163.966 219.5,162.5C 229.195,163.998 238.861,163.832 248.5,162C 257.156,158.162 265.822,154.662 274.5,151.5 Z"/></g>
<g><path style="opacity:1" fill="#354336" d="M 292.5,166.5 C 295.875,169.919 298.208,173.919 299.5,178.5C 299.5,180.167 299.5,181.833 299.5,183.5C 297.669,188.171 295.502,192.838 293,197.5C 290.552,198.973 288.052,200.307 285.5,201.5C 285.904,200.244 286.571,199.077 287.5,198C 285.982,196.649 284.649,195.149 283.5,193.5C 285.127,191.37 286.96,189.37 289,187.5C 289.483,186.552 289.649,185.552 289.5,184.5C 290.616,172.975 285.616,169.308 274.5,173.5C 273.2,172.892 271.867,172.225 270.5,171.5C 269.328,171.919 268.328,172.585 267.5,173.5C 265.06,171.078 262.726,171.078 260.5,173.5C 259.289,174.72 259.289,175.887 260.5,177C 258.527,177.495 256.527,177.662 254.5,177.5C 257.19,175.807 259.19,173.473 260.5,170.5C 260.5,170.167 260.5,169.833 260.5,169.5C 261.492,169.672 262.158,169.338 262.5,168.5C 266.63,167.303 270.63,165.803 274.5,164C 277.146,163.503 279.813,163.336 282.5,163.5C 282.5,161.5 282.5,159.5 282.5,157.5C 281.395,155.287 281.395,153.12 282.5,151C 282.833,150.833 283.167,150.667 283.5,150.5C 284.452,152.045 284.785,153.712 284.5,155.5C 285.978,155.238 287.311,155.571 288.5,156.5C 289.409,160.229 290.743,163.563 292.5,166.5 Z"/></g>
<g><path style="opacity:1" fill="#ee6746" d="M 173.5,158.5 C 166.281,161.629 158.948,164.462 151.5,167C 148.86,170.11 147.194,173.61 146.5,177.5C 145.009,174.076 145.342,170.743 147.5,167.5C 143.187,166.968 138.854,167.301 134.5,168.5C 131.941,168.802 129.607,168.468 127.5,167.5C 131.458,167.749 135.124,167.082 138.5,165.5C 146.687,161.91 155.02,158.577 163.5,155.5C 166.049,155.613 168.382,154.946 170.5,153.5C 172.756,154.421 173.756,156.088 173.5,158.5 Z"/></g>
<g><path style="opacity:1" fill="#f76948" d="M 186.5,153.5 C 192.398,154.901 198.398,155.734 204.5,156C 203.833,156.333 203.167,156.667 202.5,157C 205.539,157.353 208.205,158.52 210.5,160.5C 211.167,160.333 211.833,160.167 212.5,160C 211.62,158.644 211.286,157.144 211.5,155.5C 213.751,158.295 216.418,160.628 219.5,162.5C 220.347,163.966 221.68,164.8 223.5,165C 231.5,165.667 239.5,165.667 247.5,165C 250.112,164.361 252.446,163.194 254.5,161.5C 257.228,162.145 259.895,162.979 262.5,164C 261.833,164.333 261.167,164.667 260.5,165C 263.19,165.335 263.857,166.501 262.5,168.5C 262.158,169.338 261.492,169.672 260.5,169.5C 260.719,168.325 260.386,167.325 259.5,166.5C 255.138,168.179 250.805,170.012 246.5,172C 238.124,172.658 231.791,173.492 227.5,174.5C 227.5,176.167 227.5,177.833 227.5,179.5C 224.333,175.564 220.667,172.064 216.5,169C 205.917,164.545 195.917,159.378 186.5,153.5 Z"/></g>
<g><path style="opacity:1" fill="#fd5f42" d="M 146.5,177.5 C 148.453,180.141 149.953,183.141 151,186.5C 152.98,187.749 154.813,189.082 156.5,190.5C 157.574,192.284 159.24,193.451 161.5,194C 169.528,194.228 177.528,194.728 185.5,195.5C 186.167,195.833 186.833,196.167 187.5,196.5C 180.951,198.093 180.951,199.093 187.5,199.5C 163.59,206.055 141.257,202.388 120.5,188.5C 119.284,186.549 117.618,185.049 115.5,184C 116.809,182.249 116.475,180.749 114.5,179.5C 118.566,178.402 120.566,175.735 120.5,171.5C 123.601,171.308 126.601,170.642 129.5,169.5C 131.542,172.004 133.208,171.67 134.5,168.5C 138.854,167.301 143.187,166.968 147.5,167.5C 145.342,170.743 145.009,174.076 146.5,177.5 Z"/></g>
<g><path style="opacity:1" fill="#ec412f" d="M 82.5,172.5 C 83.4916,172.328 84.1583,172.662 84.5,173.5C 81.788,175.785 82.1213,176.452 85.5,175.5C 88.4614,176.183 88.7947,177.016 86.5,178C 89.9555,178.18 93.2889,178.847 96.5,180C 94.1088,180.691 94.1088,181.691 96.5,183C 104.754,183.662 111.42,186.495 116.5,191.5C 117.115,194.039 117.782,196.539 118.5,199C 114.721,199.906 111.721,198.739 109.5,195.5C 108.252,196.04 107.085,196.707 106,197.5C 103.017,196.083 99.8502,195.25 96.5,195C 96.0426,194.586 95.7093,194.086 95.5,193.5C 102.311,190.008 101.644,188.675 93.5,189.5C 93.5674,190.959 93.2341,192.292 92.5,193.5C 91.1266,193.657 89.7932,193.49 88.5,193C 82.1309,189.968 75.7976,186.968 69.5,184C 67.1902,183.503 64.8568,183.337 62.5,183.5C 62.3862,181.282 61.7196,179.282 60.5,177.5C 62.604,177.799 64.604,177.466 66.5,176.5C 69.6373,173.849 73.1373,171.849 77,170.5C 78.8003,171.32 80.6336,171.986 82.5,172.5 Z"/></g>
<g><path style="opacity:1" fill="#ed4d34" d="M 260.5,169.5 C 260.5,169.833 260.5,170.167 260.5,170.5C 257.878,172.782 255.212,175.115 252.5,177.5C 251.5,177.5 250.5,177.5 249.5,177.5C 242.344,179.112 235.011,180.112 227.5,180.5C 227.5,180.167 227.5,179.833 227.5,179.5C 227.5,177.833 227.5,176.167 227.5,174.5C 231.791,173.492 238.124,172.658 246.5,172C 250.805,170.012 255.138,168.179 259.5,166.5C 260.386,167.325 260.719,168.325 260.5,169.5 Z"/></g>
<g><path style="opacity:1" fill="#753c29" d="M 260.5,170.5 C 259.19,173.473 257.19,175.807 254.5,177.5C 253.833,177.5 253.167,177.5 252.5,177.5C 255.212,175.115 257.878,172.782 260.5,170.5 Z"/></g>
<g><path style="opacity:1" fill="#f7f8ea" d="M 289.5,184.5 C 283.243,188.259 276.576,191.259 269.5,193.5C 262.342,193.862 258.009,190.529 256.5,183.5C 262.287,179.61 268.287,176.277 274.5,173.5C 285.616,169.308 290.616,172.975 289.5,184.5 Z"/></g>
<g><path style="opacity:1" fill="#703925" d="M 249.5,177.5 C 245.959,179.235 242.293,180.569 238.5,181.5C 234.629,181.815 230.962,181.482 227.5,180.5C 235.011,180.112 242.344,179.112 249.5,177.5 Z"/></g>
<g><path style="opacity:1" fill="#fcbd88" d="M 175.5,156.5 C 178.003,158.833 180.669,160.999 183.5,163C 194.108,167.637 204.441,172.804 214.5,178.5C 200.262,186.944 184.762,191.944 168,193.5C 163.877,193.516 160.043,192.516 156.5,190.5C 154.813,189.082 152.98,187.749 151,186.5C 149.953,183.141 148.453,180.141 146.5,177.5C 147.194,173.61 148.86,170.11 151.5,167C 158.948,164.462 166.281,161.629 173.5,158.5C 174.5,158.167 175.167,157.5 175.5,156.5 Z"/></g>
<g><path style="opacity:1" fill="#d6e2d1" d="M 22.5,177.5 C 31.5502,181.238 40.5502,185.072 49.5,189C 56.2041,192.048 62.5375,195.548 68.5,199.5C 66.3891,200.968 64.5557,200.635 63,198.5C 60.962,200.072 58.6287,201.072 56,201.5C 55.586,201.043 55.086,200.709 54.5,200.5C 54.0024,201.603 53.6691,202.603 53.5,203.5C 51.5914,202.652 49.5914,202.318 47.5,202.5C 43.6992,201.799 40.0325,200.632 36.5,199C 27.7488,194.291 18.7488,190.124 9.5,186.5C 8.21796,181.219 8.21796,175.886 9.5,170.5C 14.0197,172.591 18.353,174.925 22.5,177.5 Z"/></g>
<g><path style="opacity:1" fill="#d6e1d1" d="M 256.5,183.5 C 258.009,190.529 262.342,193.862 269.5,193.5C 259.06,198.302 248.06,201.302 236.5,202.5C 234.5,200.329 232.666,197.996 231,195.5C 230.505,193.527 230.338,191.527 230.5,189.5C 239.696,189.586 248.362,187.586 256.5,183.5 Z"/></g>
<g><path style="opacity:1" fill="#a6493b" d="M 70.5,188.5 C 72.604,188.201 74.604,188.534 76.5,189.5C 80.8703,193.197 85.537,196.53 90.5,199.5C 87.9512,199.613 85.6179,198.946 83.5,197.5C 79.4031,194.055 75.0697,191.055 70.5,188.5 Z"/></g>
<g><path style="opacity:1" fill="#f3724d" d="M 214.5,178.5 C 218.121,182.071 220.454,186.404 221.5,191.5C 216.471,190.862 212.137,192.195 208.5,195.5C 203.487,197.755 198.821,200.588 194.5,204C 191.26,205.4 187.927,206.567 184.5,207.5C 186.89,204.972 189.89,203.472 193.5,203C 195.439,202.092 196.439,200.592 196.5,198.5C 193.545,199.159 190.545,199.492 187.5,199.5C 180.951,199.093 180.951,198.093 187.5,196.5C 186.833,196.167 186.167,195.833 185.5,195.5C 177.528,194.728 169.528,194.228 161.5,194C 159.24,193.451 157.574,192.284 156.5,190.5C 160.043,192.516 163.877,193.516 168,193.5C 184.762,191.944 200.262,186.944 214.5,178.5 Z"/></g>
<g><path style="opacity:1" fill="#ec4330" d="M 84.5,173.5 C 85.5,173.5 86.5,173.5 87.5,173.5C 98.2232,179.076 109.223,184.076 120.5,188.5C 141.257,202.388 163.59,206.055 187.5,199.5C 190.545,199.492 193.545,199.159 196.5,198.5C 196.439,200.592 195.439,202.092 193.5,203C 189.89,203.472 186.89,204.972 184.5,207.5C 183.833,207.5 183.167,207.5 182.5,207.5C 172.722,210.106 162.722,211.773 152.5,212.5C 142.746,212.263 133.079,211.263 123.5,209.5C 123.158,208.662 122.492,208.328 121.5,208.5C 116.31,205.405 110.976,202.571 105.5,200C 100.328,199.414 95.9942,197.247 92.5,193.5C 93.2341,192.292 93.5674,190.959 93.5,189.5C 101.644,188.675 102.311,190.008 95.5,193.5C 95.7093,194.086 96.0426,194.586 96.5,195C 99.8502,195.25 103.017,196.083 106,197.5C 107.085,196.707 108.252,196.04 109.5,195.5C 111.721,198.739 114.721,199.906 118.5,199C 117.782,196.539 117.115,194.039 116.5,191.5C 111.42,186.495 104.754,183.662 96.5,183C 94.1088,181.691 94.1088,180.691 96.5,180C 93.2889,178.847 89.9555,178.18 86.5,178C 88.7947,177.016 88.4614,176.183 85.5,175.5C 82.1213,176.452 81.788,175.785 84.5,173.5 Z"/></g>
<g><path style="opacity:1" fill="#374236" d="M 27.5,169.5 C 37.0719,174.783 47.0719,179.283 57.5,183C 61.0971,186.48 65.4305,188.313 70.5,188.5C 75.0697,191.055 79.4031,194.055 83.5,197.5C 85.6179,198.946 87.9512,199.613 90.5,199.5C 90.8333,199.5 91.1667,199.5 91.5,199.5C 94.5899,202.408 98.2566,204.242 102.5,205C 107.146,208.802 112.48,210.969 118.5,211.5C 119.713,211.747 120.38,212.414 120.5,213.5C 114.956,213.252 109.623,213.919 104.5,215.5C 103.167,215.167 101.833,214.833 100.5,214.5C 92.4353,210.633 84.4353,206.466 76.5,202C 73.9036,200.864 71.237,200.031 68.5,199.5C 62.5375,195.548 56.2041,192.048 49.5,189C 40.5502,185.072 31.5502,181.238 22.5,177.5C 22.3691,176.624 22.7025,175.957 23.5,175.5C 27.6961,178.254 31.6961,178.087 35.5,175C 31.5881,174.884 28.9215,173.051 27.5,169.5 Z"/></g>
<g><path style="opacity:1" fill="#bbc9b8" d="M 289.5,184.5 C 289.649,185.552 289.483,186.552 289,187.5C 286.96,189.37 285.127,191.37 283.5,193.5C 279.775,195.803 275.775,197.637 271.5,199C 260.29,202.469 248.957,205.302 237.5,207.5C 237.371,205.784 237.038,204.117 236.5,202.5C 248.06,201.302 259.06,198.302 269.5,193.5C 276.576,191.259 283.243,188.259 289.5,184.5 Z"/></g>
<g><path style="opacity:1" fill="#ca3f32" d="M 60.5,177.5 C 61.7196,179.282 62.3862,181.282 62.5,183.5C 64.8568,183.337 67.1902,183.503 69.5,184C 75.7976,186.968 82.1309,189.968 88.5,193C 89.7932,193.49 91.1266,193.657 92.5,193.5C 95.9942,197.247 100.328,199.414 105.5,200C 110.976,202.571 116.31,205.405 121.5,208.5C 119.94,208.519 118.44,208.852 117,209.5C 108.578,205.897 100.078,202.563 91.5,199.5C 91.1667,199.5 90.8333,199.5 90.5,199.5C 85.537,196.53 80.8703,193.197 76.5,189.5C 74.604,188.534 72.604,188.201 70.5,188.5C 65.4305,188.313 61.0971,186.48 57.5,183C 47.0719,179.283 37.0719,174.783 27.5,169.5C 23.7603,167.647 20.0936,165.647 16.5,163.5C 16.1667,162.833 15.8333,162.167 15.5,161.5C 16.1515,160.909 16.8182,160.243 17.5,159.5C 20.0531,160.805 22.7198,161.805 25.5,162.5C 28.7632,164.828 32.0965,167.161 35.5,169.5C 37.7662,170.314 40.0995,170.814 42.5,171C 47.9339,174.866 53.9339,177.032 60.5,177.5 Z"/></g>
<g><path style="opacity:1" fill="#334235" d="M 27.5,169.5 C 28.9215,173.051 31.5881,174.884 35.5,175C 31.6961,178.087 27.6961,178.254 23.5,175.5C 22.7025,175.957 22.3691,176.624 22.5,177.5C 18.353,174.925 14.0197,172.591 9.5,170.5C 8.21796,175.886 8.21796,181.219 9.5,186.5C 11.6885,190.207 14.3552,193.54 17.5,196.5C 22.7183,198.639 28.0516,200.472 33.5,202C 52.5149,211.677 71.8482,220.51 91.5,228.5C 90.9524,229.688 90.6191,230.855 90.5,232C 92.7136,233.273 95.047,234.273 97.5,235C 95.7444,235.202 94.0777,235.702 92.5,236.5C 97.0176,238.591 101.351,240.924 105.5,243.5C 76.0459,231.194 46.7126,218.694 17.5,206C 13.8333,203.833 10.1667,201.667 6.5,199.5C 3.68861,195.544 1.68861,191.21 0.5,186.5C 1.32942,178.343 1.82942,170.01 2,161.5C 2.33333,162.167 2.66667,162.833 3,163.5C 3.72334,157.988 5.22334,157.488 7.5,162C 11.674,163.36 14.674,165.86 16.5,169.5C 20.1987,168.421 23.8654,168.421 27.5,169.5 Z"/></g>
<g><path style="opacity:1" fill="#d5e2d2" d="M 68.5,199.5 C 71.237,200.031 73.9036,200.864 76.5,202C 84.4353,206.466 92.4353,210.633 100.5,214.5C 98.9142,215.148 97.2475,215.648 95.5,216C 101.766,218.102 107.099,220.769 111.5,224C 109.122,224.974 109.456,225.641 112.5,226C 111.252,227.4 110.252,228.9 109.5,230.5C 94.6635,224.608 79.9968,218.108 65.5,211C 59.1019,208.967 53.1019,206.134 47.5,202.5C 49.5914,202.318 51.5914,202.652 53.5,203.5C 53.6691,202.603 54.0024,201.603 54.5,200.5C 55.086,200.709 55.586,201.043 56,201.5C 58.6287,201.072 60.962,200.072 63,198.5C 64.5557,200.635 66.3891,200.968 68.5,199.5 Z"/></g>
<g><path style="opacity:1" fill="#f9faec" d="M 223.5,200.5 C 223.842,201.338 224.508,201.672 225.5,201.5C 226.966,202.347 227.8,203.68 228,205.5C 228.801,208.367 228.634,211.034 227.5,213.5C 221.414,217.531 214.748,220.197 207.5,221.5C 201.295,220.961 197.628,217.628 196.5,211.5C 201.765,209.199 206.765,206.366 211.5,203C 215.253,201.011 219.253,200.178 223.5,200.5 Z"/></g>
<g><path style="opacity:1" fill="#324337" d="M 274.5,173.5 C 268.287,176.277 262.287,179.61 256.5,183.5C 248.362,187.586 239.696,189.586 230.5,189.5C 230.338,191.527 230.505,193.527 231,195.5C 232.666,197.996 234.5,200.329 236.5,202.5C 237.038,204.117 237.371,205.784 237.5,207.5C 248.957,205.302 260.29,202.469 271.5,199C 275.775,197.637 279.775,195.803 283.5,193.5C 284.649,195.149 285.982,196.649 287.5,198C 286.571,199.077 285.904,200.244 285.5,201.5C 279.829,205.003 273.829,207.836 267.5,210C 257.664,212.767 247.664,214.767 237.5,216C 236.418,218.687 234.751,220.854 232.5,222.5C 230.883,223.038 229.216,223.371 227.5,223.5C 227.895,226.523 226.895,227.523 224.5,226.5C 215.543,232.876 205.709,237.543 195,240.5C 193.97,240.836 193.47,241.503 193.5,242.5C 186.371,244.531 179.038,246.197 171.5,247.5C 150.606,249.146 129.939,248.146 109.5,244.5C 108.041,244.567 106.708,244.234 105.5,243.5C 101.351,240.924 97.0176,238.591 92.5,236.5C 94.0777,235.702 95.7444,235.202 97.5,235C 95.047,234.273 92.7136,233.273 90.5,232C 90.6191,230.855 90.9524,229.688 91.5,228.5C 118.888,242.002 147.555,245.169 177.5,238C 194.373,234.226 210.373,228.226 225.5,220C 227.016,218.103 227.683,215.936 227.5,213.5C 228.634,211.034 228.801,208.367 228,205.5C 227.8,203.68 226.966,202.347 225.5,201.5C 227.218,199.074 227.718,196.407 227,193.5C 225.512,194.196 224.012,193.862 222.5,192.5C 223.246,191.264 223.579,189.93 223.5,188.5C 224.978,188.762 226.311,188.429 227.5,187.5C 225.647,186.24 223.814,186.24 222,187.5C 221.506,185.866 221.34,184.199 221.5,182.5C 223.143,182.48 224.476,183.147 225.5,184.5C 230.013,183.77 234.346,182.77 238.5,181.5C 242.293,180.569 245.959,179.235 249.5,177.5C 250.5,177.5 251.5,177.5 252.5,177.5C 253.167,177.5 253.833,177.5 254.5,177.5C 256.527,177.662 258.527,177.495 260.5,177C 259.289,175.887 259.289,174.72 260.5,173.5C 262.726,171.078 265.06,171.078 267.5,173.5C 268.328,172.585 269.328,171.919 270.5,171.5C 271.867,172.225 273.2,172.892 274.5,173.5 Z"/></g>
<g><path style="opacity:1" fill="#b54839" d="M 91.5,199.5 C 100.078,202.563 108.578,205.897 117,209.5C 118.44,208.852 119.94,208.519 121.5,208.5C 122.492,208.328 123.158,208.662 123.5,209.5C 125.974,211.24 128.641,212.74 131.5,214C 139.125,215.142 146.792,215.642 154.5,215.5C 154.5,215.833 154.5,216.167 154.5,216.5C 145.472,216.68 136.472,216.347 127.5,215.5C 125.562,213.837 123.228,213.171 120.5,213.5C 120.38,212.414 119.713,211.747 118.5,211.5C 112.48,210.969 107.146,208.802 102.5,205C 98.2566,204.242 94.5899,202.408 91.5,199.5 Z"/></g>
<g><path style="opacity:1" fill="#cd4332" d="M 182.5,207.5 C 182.423,208.75 181.756,209.583 180.5,210C 172.064,212.775 163.397,214.608 154.5,215.5C 146.792,215.642 139.125,215.142 131.5,214C 128.641,212.74 125.974,211.24 123.5,209.5C 133.079,211.263 142.746,212.263 152.5,212.5C 162.722,211.773 172.722,210.106 182.5,207.5 Z"/></g>
<g><path style="opacity:1" fill="#354337" d="M 223.5,200.5 C 219.253,200.178 215.253,201.011 211.5,203C 206.765,206.366 201.765,209.199 196.5,211.5C 191.814,214.509 186.814,217.009 181.5,219C 169.071,221.552 156.571,223.719 144,225.5C 133.296,224.799 122.796,222.966 112.5,220C 109.316,219.246 106.649,217.746 104.5,215.5C 109.623,213.919 114.956,213.252 120.5,213.5C 123.228,213.171 125.562,213.837 127.5,215.5C 128.263,216.268 129.263,216.768 130.5,217C 138.677,217.823 146.677,217.656 154.5,216.5C 154.5,216.167 154.5,215.833 154.5,215.5C 163.397,214.608 172.064,212.775 180.5,210C 181.756,209.583 182.423,208.75 182.5,207.5C 183.167,207.5 183.833,207.5 184.5,207.5C 187.927,206.567 191.26,205.4 194.5,204C 198.821,200.588 203.487,197.755 208.5,195.5C 212.957,194.622 217.29,194.622 221.5,195.5C 224.219,196.576 224.886,198.243 223.5,200.5 Z"/></g>
<g><path style="opacity:1" fill="#d5e1d1" d="M 196.5,211.5 C 197.628,217.628 201.295,220.961 207.5,221.5C 199.285,225.078 190.952,228.578 182.5,232C 172.887,233.769 163.22,235.436 153.5,237C 138.292,237.741 123.625,235.574 109.5,230.5C 110.252,228.9 111.252,227.4 112.5,226C 109.456,225.641 109.122,224.974 111.5,224C 107.099,220.769 101.766,218.102 95.5,216C 97.2475,215.648 98.9142,215.148 100.5,214.5C 101.833,214.833 103.167,215.167 104.5,215.5C 106.649,217.746 109.316,219.246 112.5,220C 122.796,222.966 133.296,224.799 144,225.5C 156.571,223.719 169.071,221.552 181.5,219C 186.814,217.009 191.814,214.509 196.5,211.5 Z"/></g>
<g><path style="opacity:1" fill="#b3c2b4" d="M 9.5,186.5 C 18.7488,190.124 27.7488,194.291 36.5,199C 40.0325,200.632 43.6992,201.799 47.5,202.5C 53.1019,206.134 59.1019,208.967 65.5,211C 79.9968,218.108 94.6635,224.608 109.5,230.5C 123.625,235.574 138.292,237.741 153.5,237C 163.22,235.436 172.887,233.769 182.5,232C 190.952,228.578 199.285,225.078 207.5,221.5C 214.748,220.197 221.414,217.531 227.5,213.5C 227.683,215.936 227.016,218.103 225.5,220C 210.373,228.226 194.373,234.226 177.5,238C 147.555,245.169 118.888,242.002 91.5,228.5C 71.8482,220.51 52.5149,211.677 33.5,202C 28.0516,200.472 22.7183,198.639 17.5,196.5C 14.3552,193.54 11.6885,190.207 9.5,186.5 Z"/></g>
<g><path style="opacity:1" fill="#613824" d="M 127.5,215.5 C 136.472,216.347 145.472,216.68 154.5,216.5C 146.677,217.656 138.677,217.823 130.5,217C 129.263,216.768 128.263,216.268 127.5,215.5 Z"/></g>
<g><path style="opacity:0.961" fill="#464632" d="M 232.5,222.5 C 231.094,225.414 229.094,227.914 226.5,230C 215.709,234.729 204.709,238.896 193.5,242.5C 193.47,241.503 193.97,240.836 195,240.5C 205.709,237.543 215.543,232.876 224.5,226.5C 226.895,227.523 227.895,226.523 227.5,223.5C 229.216,223.371 230.883,223.038 232.5,222.5 Z"/></g>
<g><path style="opacity:0.883" fill="#493f2a" d="M 109.5,244.5 C 129.939,248.146 150.606,249.146 171.5,247.5C 156.742,250.819 141.742,251.319 126.5,249C 120.512,248.255 114.845,246.755 109.5,244.5 Z"/></g>
</svg>
