<?xml version="1.0" encoding="UTF-8"?>
<!DOCTYPE svg PUBLIC "-//W3C//DTD SVG 1.1//EN" "http://www.w3.org/Graphics/SVG/1.1/DTD/svg11.dtd">
<svg xmlns="http://www.w3.org/2000/svg" version="1.1" width="300px" height="300px" style="shape-rendering:geometricPrecision; text-rendering:geometricPrecision; image-rendering:optimizeQuality; fill-rule:evenodd; clip-rule:evenodd" xmlns:xlink="http://www.w3.org/1999/xlink">
<g><path style="opacity:1" fill="#350c10" d="M 202.5,-0.5 C 205.167,-0.5 207.833,-0.5 210.5,-0.5C 221.798,11.2985 233.298,22.9651 245,34.5C 245.667,36.8333 245.667,39.1667 245,41.5C 238.821,46.1614 232.988,51.1614 227.5,56.5C 226.626,54.31 224.959,53.31 222.5,53.5C 222.5,52.5 222.5,51.5 222.5,50.5C 220.143,50.6633 217.81,50.4966 215.5,50C 213.123,45.2033 211.456,45.3699 210.5,50.5C 209.5,50.5 208.5,50.5 207.5,50.5C 207.649,49.448 207.483,48.448 207,47.5C 205.989,48.3366 204.822,48.67 203.5,48.5C 203.78,45.6118 202.447,44.1118 199.5,44C 198.099,42.323 196.765,40.6563 195.5,39C 196.588,36.2914 198.255,34.1248 200.5,32.5C 199.448,32.3505 198.448,32.5172 197.5,33C 195.581,34.7727 193.581,36.2727 191.5,37.5C 188.833,35.1667 186.167,32.8333 183.5,30.5C 181.03,29.1221 178.696,29.4554 176.5,31.5C 175.756,28.0504 177.09,26.3838 180.5,26.5C 180.773,24.549 180.107,23.049 178.5,22C 180.256,21.7978 181.922,21.2978 183.5,20.5C 180.894,19.3483 178.227,19.1816 175.5,20C 173.783,21.5588 171.783,22.3921 169.5,22.5C 171.131,20.9323 172.964,19.599 175,18.5C 179.192,17.9974 183.359,17.3307 187.5,16.5C 193.632,11.7092 198.632,6.04255 202.5,-0.5 Z"/></g>
<g><path style="opacity:1" fill="#f0ecdb" d="M 210.5,17.5 C 208.255,20.2505 205.755,22.9172 203,25.5C 202.51,26.7932 202.343,28.1266 202.5,29.5C 203.5,29.5 204.5,29.5 205.5,29.5C 205.5,30.5 205.5,31.5 205.5,32.5C 205.167,33.5 204.5,34.1667 203.5,34.5C 202.5,33.8333 201.5,33.1667 200.5,32.5C 198.32,30.1522 196.32,27.6522 194.5,25C 198.354,20.9791 202.354,17.1457 206.5,13.5C 208.375,14.4095 209.708,15.7428 210.5,17.5 Z"/></g>
<g><path style="opacity:1" fill="#380d11" d="M 176.5,31.5 C 176.833,33.8333 178.167,35.1667 180.5,35.5C 184.811,40.4804 189.144,45.4804 193.5,50.5C 192.788,53.8876 194.122,56.5543 197.5,58.5C 195.16,59.1009 193.16,58.2676 191.5,56C 189.846,55.3923 188.179,54.8923 186.5,54.5C 181.683,51.5163 177.683,47.683 174.5,43C 173.167,42.3333 171.833,42.3333 170.5,43C 150.547,62.793 130.213,81.9597 109.5,100.5C 112.724,97.5036 114.724,94.0036 115.5,90C 113.687,90.0464 112.021,89.8797 110.5,89.5C 113.509,86.823 116.176,83.823 118.5,80.5C 119.127,79.5832 119.461,78.5832 119.5,77.5C 134.226,63.1058 148.893,48.7725 163.5,34.5C 164.476,29.8818 166.476,25.8818 169.5,22.5C 171.783,22.3921 173.783,21.5588 175.5,20C 178.227,19.1816 180.894,19.3483 183.5,20.5C 181.922,21.2978 180.256,21.7978 178.5,22C 180.107,23.049 180.773,24.549 180.5,26.5C 177.09,26.3838 175.756,28.0504 176.5,31.5 Z"/></g>
<g><path style="opacity:1" fill="#b6bbb0" d="M 210.5,17.5 C 213.522,18.5222 215.522,20.5222 216.5,23.5C 212.613,26.3347 208.946,29.3347 205.5,32.5C 205.5,31.5 205.5,30.5 205.5,29.5C 204.5,29.5 203.5,29.5 202.5,29.5C 202.343,28.1266 202.51,26.7932 203,25.5C 205.755,22.9172 208.255,20.2505 210.5,17.5 Z"/></g>
<g><path style="opacity:1" fill="#f4ebd9" d="M 183.5,30.5 C 183.69,32.9589 182.69,34.6255 180.5,35.5C 178.167,35.1667 176.833,33.8333 176.5,31.5C 178.696,29.4554 181.03,29.1221 183.5,30.5 Z"/></g>
<g><path style="opacity:1" fill="#557c89" d="M 216.5,23.5 C 219.5,25.8333 222.167,28.5 224.5,31.5C 220.466,35.5355 216.132,39.2022 211.5,42.5C 209.14,39.4728 206.473,36.8062 203.5,34.5C 204.5,34.1667 205.167,33.5 205.5,32.5C 208.946,29.3347 212.613,26.3347 216.5,23.5 Z"/></g>
<g><path style="opacity:1" fill="#364d5c" d="M 224.5,31.5 C 227.029,33.2655 229.362,35.2655 231.5,37.5C 227.505,40.9617 223.839,44.795 220.5,49C 219.5,49.6667 218.5,49.6667 217.5,49C 215.707,46.6122 213.707,44.4455 211.5,42.5C 216.132,39.2022 220.466,35.5355 224.5,31.5 Z"/></g>
<g><path style="opacity:0.995" fill="#fbf7e4" d="M 186.5,54.5 C 186.5,54.8333 186.5,55.1667 186.5,55.5C 186.5,56.1667 186.5,56.8333 186.5,57.5C 177.242,64.9762 168.575,73.1429 160.5,82C 156.169,85.9867 151.502,89.6533 146.5,93C 138.94,101.725 130.94,109.892 122.5,117.5C 118.169,113.337 113.669,109.337 109,105.5C 108.616,103.803 108.782,102.137 109.5,100.5C 130.213,81.9597 150.547,62.793 170.5,43C 171.833,42.3333 173.167,42.3333 174.5,43C 177.683,47.683 181.683,51.5163 186.5,54.5 Z"/></g>
<g><path style="opacity:1" fill="#ee5f43" d="M 183.5,30.5 C 186.167,32.8333 188.833,35.1667 191.5,37.5C 199.131,45.6316 206.964,53.6316 215,61.5C 216.252,64.0135 216.752,66.6802 216.5,69.5C 214.712,69.7852 213.045,69.4519 211.5,68.5C 205.812,62.1457 199.812,56.1457 193.5,50.5C 189.144,45.4804 184.811,40.4804 180.5,35.5C 182.69,34.6255 183.69,32.9589 183.5,30.5 Z"/></g>
<g><path style="opacity:1" fill="#e9ac7f" d="M 186.5,55.5 C 189.932,59.3272 193.599,62.9938 197.5,66.5C 195.604,67.4656 193.604,67.7989 191.5,67.5C 190.273,65.4195 188.773,63.4195 187,61.5C 186.51,60.2068 186.343,58.8734 186.5,57.5C 186.5,56.8333 186.5,56.1667 186.5,55.5 Z"/></g>
<g><path style="opacity:1" fill="#3c0c0d" d="M 200.5,32.5 C 198.255,34.1248 196.588,36.2914 195.5,39C 196.765,40.6563 198.099,42.323 199.5,44C 202.447,44.1118 203.78,45.6118 203.5,48.5C 204.822,48.67 205.989,48.3366 207,47.5C 207.483,48.448 207.649,49.448 207.5,50.5C 208.5,50.5 209.5,50.5 210.5,50.5C 211.456,45.3699 213.123,45.2033 215.5,50C 217.81,50.4966 220.143,50.6633 222.5,50.5C 222.5,51.5 222.5,52.5 222.5,53.5C 224.959,53.31 226.626,54.31 227.5,56.5C 231.054,64.742 229.721,72.0754 223.5,78.5C 228.562,84.1674 230.896,90.8341 230.5,98.5C 229.808,102.498 229.641,106.498 230,110.5C 252.866,151.111 248.7,188.611 217.5,223C 214.98,224.763 212.647,226.763 210.5,229C 209.552,229.483 208.552,229.649 207.5,229.5C 207.369,228.761 207.536,228.094 208,227.5C 212.479,225.023 215.479,221.356 217,216.5C 218.833,215.333 220.333,213.833 221.5,212C 218.213,212.656 214.879,213.489 211.5,214.5C 211.895,217.523 210.895,218.523 208.5,217.5C 205.547,218.955 203.047,220.955 201,223.5C 199.56,222.852 198.06,222.519 196.5,222.5C 196.662,220.473 196.495,218.473 196,216.5C 195.586,216.043 195.086,215.709 194.5,215.5C 193.027,218.41 192.194,221.41 192,224.5C 193.011,223.663 194.178,223.33 195.5,223.5C 195.489,225.547 195.156,227.547 194.5,229.5C 197.114,236.843 197.114,244.177 194.5,251.5C 176.326,251.83 158.326,251.497 140.5,250.5C 141.833,250.5 143.167,250.5 144.5,250.5C 157.5,250.5 170.5,250.5 183.5,250.5C 187.351,251.029 190.851,250.362 194,248.5C 194.667,243.167 194.667,237.833 194,232.5C 192.355,227.876 190.188,223.543 187.5,219.5C 192.723,219.795 193.723,217.962 190.5,214C 191.471,212.959 192.471,212.126 193.5,211.5C 195.833,213.833 198.167,216.167 200.5,218.5C 201.251,219.573 202.251,219.74 203.5,219C 211.803,212.869 218.469,205.369 223.5,196.5C 223.33,197.822 223.663,198.989 224.5,200C 223.833,200.333 223.167,200.667 222.5,201C 223.833,202.667 223.833,204.333 222.5,206C 223.448,206.483 224.448,206.649 225.5,206.5C 225.5,204.833 225.5,203.167 225.5,201.5C 227.124,201.36 228.29,202.027 229,203.5C 240.059,187.284 244.392,169.284 242,149.5C 241.667,146.833 241.333,144.167 241,141.5C 239.536,145.367 238.369,145.2 237.5,141C 240.026,138.427 240.026,135.927 237.5,133.5C 236.833,134.167 236.167,134.833 235.5,135.5C 235.167,134.833 234.833,134.167 234.5,133.5C 234.167,134.833 233.833,136.167 233.5,137.5C 234.023,144.043 234.356,150.876 234.5,158C 234.494,163.216 233.827,168.049 232.5,172.5C 233.659,158.15 232.159,144.15 228,130.5C 226.724,127.401 224.89,124.734 222.5,122.5C 222.189,121.522 221.522,120.855 220.5,120.5C 217.153,124.673 212.82,127.007 207.5,127.5C 209.374,125.993 211.374,124.493 213.5,123C 212.494,121.662 211.494,120.329 210.5,119C 206.501,119.15 202.501,119.65 198.5,120.5C 195.795,120.684 193.462,120.017 191.5,118.5C 207.204,120.933 216.204,114.433 218.5,99C 218.333,96.5 218.167,94 218,91.5C 217.617,90.944 217.117,90.6107 216.5,90.5C 216.649,89.448 216.483,88.448 216,87.5C 213.982,85.6499 212.149,83.6499 210.5,81.5C 208.696,80.2319 206.696,79.5652 204.5,79.5C 203.833,79.5 203.5,79.1667 203.5,78.5C 204.817,78.179 206.151,77.8457 207.5,77.5C 210.68,79.1027 214.013,80.2694 217.5,81C 219,81.8333 220.167,83 221,84.5C 221.44,81.3395 220.607,78.5062 218.5,76C 219.759,75.0766 221.092,74.2432 222.5,73.5C 222.023,72.069 221.357,70.7357 220.5,69.5C 219.148,71.6364 217.482,71.9698 215.5,70.5C 214.063,73.0443 212.563,73.0443 211,70.5C 210.275,72.158 209.108,72.658 207.5,72C 207.825,69.4806 207.325,66.9806 206,64.5C 203.07,63.9756 200.57,62.6422 198.5,60.5C 198.167,60.8333 197.833,61.1667 197.5,61.5C 198.482,64.0956 199.149,66.7623 199.5,69.5C 196.615,69.8064 193.948,69.4731 191.5,68.5C 191.5,68.1667 191.5,67.8333 191.5,67.5C 193.604,67.7989 195.604,67.4656 197.5,66.5C 193.599,62.9938 189.932,59.3272 186.5,55.5C 186.5,55.1667 186.5,54.8333 186.5,54.5C 188.179,54.8923 189.846,55.3923 191.5,56C 193.16,58.2676 195.16,59.1009 197.5,58.5C 194.122,56.5543 192.788,53.8876 193.5,50.5C 199.812,56.1457 205.812,62.1457 211.5,68.5C 213.045,69.4519 214.712,69.7852 216.5,69.5C 216.752,66.6802 216.252,64.0135 215,61.5C 206.964,53.6316 199.131,45.6316 191.5,37.5C 193.581,36.2727 195.581,34.7727 197.5,33C 198.448,32.5172 199.448,32.3505 200.5,32.5 Z"/></g>
<g><path style="opacity:1" fill="#f2e6d4" d="M 203.5,78.5 C 203.5,79.1667 203.833,79.5 204.5,79.5C 204.5,79.8333 204.5,80.1667 204.5,80.5C 201.167,80.5 197.833,80.5 194.5,80.5C 194.833,82.5 195.167,84.5 195.5,86.5C 194.306,87.2719 193.306,88.2719 192.5,89.5C 188.625,90.1258 186.791,88.4592 187,84.5C 182.878,88.7449 180.378,93.7449 179.5,99.5C 179.167,99.5 178.833,99.5 178.5,99.5C 176.908,88.5626 181.575,81.3959 192.5,78C 196.255,77.2446 199.922,77.4113 203.5,78.5 Z"/></g>
<g><path style="opacity:1" fill="#e68e7c" d="M 204.5,80.5 C 203.5,81.1667 202.5,81.8333 201.5,82.5C 198.6,81.0464 197.267,82.0464 197.5,85.5C 196.833,85.8333 196.167,86.1667 195.5,86.5C 195.167,84.5 194.833,82.5 194.5,80.5C 197.833,80.5 201.167,80.5 204.5,80.5 Z"/></g>
<g><path style="opacity:1" fill="#f9e3d0" d="M 201.5,82.5 C 201.663,86.0348 200.33,87.0348 197.5,85.5C 197.267,82.0464 198.6,81.0464 201.5,82.5 Z"/></g>
<g><path style="opacity:1" fill="#fc6147" d="M 204.5,79.5 C 206.696,79.5652 208.696,80.2319 210.5,81.5C 212.149,83.6499 213.982,85.6499 216,87.5C 216.483,88.448 216.649,89.448 216.5,90.5C 215.549,88.882 214.216,87.5487 212.5,86.5C 212.167,87.1667 211.833,87.8333 211.5,88.5C 215.524,98.9366 212.524,106.437 202.5,111C 193.648,113.595 186.981,111.095 182.5,103.5C 184.936,103.683 187.103,103.016 189,101.5C 189.256,98.443 189.756,95.443 190.5,92.5C 189.975,91.8076 189.308,91.3076 188.5,91C 190.058,90.79 191.391,90.29 192.5,89.5C 193.306,88.2719 194.306,87.2719 195.5,86.5C 196.167,86.1667 196.833,85.8333 197.5,85.5C 200.33,87.0348 201.663,86.0348 201.5,82.5C 202.5,81.8333 203.5,81.1667 204.5,80.5C 204.5,80.1667 204.5,79.8333 204.5,79.5 Z"/></g>
<g><path style="opacity:1" fill="#3a0b0e" d="M 119.5,77.5 C 119.461,78.5832 119.127,79.5832 118.5,80.5C 116.176,83.823 113.509,86.823 110.5,89.5C 112.021,89.8797 113.687,90.0464 115.5,90C 114.724,94.0036 112.724,97.5036 109.5,100.5C 108.782,102.137 108.616,103.803 109,105.5C 113.669,109.337 118.169,113.337 122.5,117.5C 124.527,120.194 126.861,122.527 129.5,124.5C 130.833,126.5 132.5,128.167 134.5,129.5C 135.911,131.914 137.911,133.581 140.5,134.5C 140.511,136.686 141.511,137.519 143.5,137C 149.814,130.175 156.481,124.009 163.5,118.5C 163.141,120.371 162.141,121.871 160.5,123C 161.687,124.019 162.687,125.186 163.5,126.5C 161.679,126.009 159.679,126.009 157.5,126.5C 156.691,128.071 156.357,129.738 156.5,131.5C 154.214,131.595 152.214,132.262 150.5,133.5C 150.586,134.496 150.252,135.329 149.5,136C 146.492,136.518 144.159,138.018 142.5,140.5C 140.465,139.959 138.465,139.292 136.5,138.5C 138.191,135.26 137.191,133.26 133.5,132.5C 132.158,134.005 130.492,134.672 128.5,134.5C 125.287,133.056 124.953,131.223 127.5,129C 126.025,126.26 124.025,125.426 121.5,126.5C 119.108,125.275 116.608,124.275 114,123.5C 113.5,122.5 113,121.5 112.5,120.5C 113.522,119.646 114.355,118.646 115,117.5C 118.042,122.812 119.209,122.145 118.5,115.5C 117.127,115.343 115.793,115.51 114.5,116C 113.601,117.236 112.434,118.07 111,118.5C 108.946,115.947 106.446,113.947 103.5,112.5C 103.709,111.914 104.043,111.414 104.5,111C 102.735,110.36 101.068,110.527 99.5,111.5C 99.5,111.167 99.5,110.833 99.5,110.5C 99.5,109.5 99.5,108.5 99.5,107.5C 96.9339,107.344 94.4339,107.678 92,108.5C 91.5,108.167 91,107.833 90.5,107.5C 92.1836,106.146 92.6836,104.479 92,102.5C 90.5093,104.004 88.676,104.837 86.5,105C 87.5536,106.388 87.7203,107.888 87,109.5C 85.8904,107.963 84.3904,107.297 82.5,107.5C 81.4908,110.541 80.8241,113.708 80.5,117C 80.7006,121.691 81.7006,126.191 83.5,130.5C 81.075,129.286 79.575,127.286 79,124.5C 75.7416,107.757 82.5749,98.2566 99.5,96C 106.009,89.5936 112.675,83.4269 119.5,77.5 Z"/></g>
<g><path style="opacity:1" fill="#f0785c" d="M 192.5,89.5 C 191.391,90.29 190.058,90.79 188.5,91C 189.308,91.3076 189.975,91.8076 190.5,92.5C 189.756,95.443 189.256,98.443 189,101.5C 187.103,103.016 184.936,103.683 182.5,103.5C 181.974,101.77 180.974,100.436 179.5,99.5C 180.378,93.7449 182.878,88.7449 187,84.5C 186.791,88.4592 188.625,90.1258 192.5,89.5 Z"/></g>
<g><path style="opacity:1" fill="#fdede6" d="M 183.5,92.5 C 186.734,92.2366 188.068,93.7366 187.5,97C 188.068,100.263 186.734,101.763 183.5,101.5C 183.5,98.5 183.5,95.5 183.5,92.5 Z"/></g>
<g><path style="opacity:1" fill="#fac28d" d="M 167.5,91.5 C 167.5,91.8333 167.5,92.1667 167.5,92.5C 166.691,94.2922 166.191,96.2922 166,98.5C 154.974,108.36 144.474,118.693 134.5,129.5C 132.5,128.167 130.833,126.5 129.5,124.5C 131.595,123.588 133.595,122.421 135.5,121C 143.682,112.43 152.016,104.097 160.5,96C 162.734,94.2502 165.068,92.7502 167.5,91.5 Z"/></g>
<g><path style="opacity:1" fill="#fbe0bb" d="M 186.5,57.5 C 186.343,58.8734 186.51,60.2068 187,61.5C 188.773,63.4195 190.273,65.4195 191.5,67.5C 191.5,67.8333 191.5,68.1667 191.5,68.5C 187.458,68.5226 183.792,69.6893 180.5,72C 177.667,74.8333 174.833,77.6667 172,80.5C 169.926,83.975 168.426,87.6417 167.5,91.5C 165.068,92.7502 162.734,94.2502 160.5,96C 152.016,104.097 143.682,112.43 135.5,121C 133.595,122.421 131.595,123.588 129.5,124.5C 126.861,122.527 124.527,120.194 122.5,117.5C 130.94,109.892 138.94,101.725 146.5,93C 151.502,89.6533 156.169,85.9867 160.5,82C 168.575,73.1429 177.242,64.9762 186.5,57.5 Z"/></g>
<g><path style="opacity:0.999" fill="#380b0e" d="M 99.5,110.5 C 92.7827,107.701 89.9493,110.035 91,117.5C 91.8159,118.823 92.9826,119.489 94.5,119.5C 103.889,128.886 112.889,138.553 121.5,148.5C 120.153,149.028 118.819,149.195 117.5,149C 118.337,147.989 118.67,146.822 118.5,145.5C 116.311,145.207 114.311,144.707 112.5,144C 111.721,145.994 111.387,147.828 111.5,149.5C 109.988,148.009 108.988,146.176 108.5,144C 108.957,143.586 109.291,143.086 109.5,142.5C 106.722,140.147 103.722,139.48 100.5,140.5C 99.1805,139.058 97.5138,138.392 95.5,138.5C 94.0267,139.072 92.6934,139.905 91.5,141C 92.0944,141.464 92.7611,141.631 93.5,141.5C 93.4326,142.959 93.7659,144.292 94.5,145.5C 92.4884,144.986 90.4884,144.82 88.5,145C 89.1905,146.067 89.6905,147.234 90,148.5C 91.586,149.376 93.086,150.376 94.5,151.5C 93.9747,152.192 93.3081,152.692 92.5,153C 92.8333,153.333 93.1667,153.667 93.5,154C 91.5,152.667 89.5,151.333 87.5,150C 90.0294,155.363 94.0294,159.196 99.5,161.5C 101.565,165.748 104.898,167.582 109.5,167C 112.216,165.258 114.883,163.425 117.5,161.5C 120.558,163.141 123.892,163.974 127.5,164C 126.167,164.333 124.833,164.667 123.5,165C 124.973,165.71 125.64,166.876 125.5,168.5C 130.925,168.015 136.259,167.015 141.5,165.5C 143.131,163.78 144.297,161.78 145,159.5C 146.011,158.663 147.178,158.33 148.5,158.5C 148.157,156.517 148.824,155.183 150.5,154.5C 147.38,167.107 139.38,172.273 126.5,170C 123.059,168.224 119.892,166.057 117,163.5C 113.491,168.838 108.658,170.672 102.5,169C 95.1178,161.618 87.7845,154.285 80.5,147C 77.6668,140.972 79.0001,135.972 84.5,132C 83.944,131.617 83.6107,131.117 83.5,130.5C 81.7006,126.191 80.7006,121.691 80.5,117C 80.8241,113.708 81.4908,110.541 82.5,107.5C 84.3904,107.297 85.8904,107.963 87,109.5C 87.7203,107.888 87.5536,106.388 86.5,105C 88.676,104.837 90.5093,104.004 92,102.5C 92.6836,104.479 92.1836,106.146 90.5,107.5C 91,107.833 91.5,108.167 92,108.5C 94.4339,107.678 96.9339,107.344 99.5,107.5C 99.5,108.5 99.5,109.5 99.5,110.5 Z M 95.5,138.5 C 95.573,140.027 94.9063,141.027 93.5,141.5C 92.7611,141.631 92.0944,141.464 91.5,141C 92.6934,139.905 94.0267,139.072 95.5,138.5 Z"/></g>
<g><path style="opacity:0.984" fill="#f3ecda" d="M 99.5,110.5 C 99.5,110.833 99.5,111.167 99.5,111.5C 99.5,111.833 99.5,112.167 99.5,112.5C 98.2464,115.093 96.5798,117.427 94.5,119.5C 92.9826,119.489 91.8159,118.823 91,117.5C 89.9493,110.035 92.7827,107.701 99.5,110.5 Z"/></g>
<g><path style="opacity:1" fill="#e13c20" d="M 216.5,90.5 C 217.117,90.6107 217.617,90.944 218,91.5C 218.167,94 218.333,96.5 218.5,99C 216.204,114.433 207.204,120.933 191.5,118.5C 183.294,114.938 178.96,108.605 178.5,99.5C 178.833,99.5 179.167,99.5 179.5,99.5C 180.974,100.436 181.974,101.77 182.5,103.5C 186.981,111.095 193.648,113.595 202.5,111C 212.524,106.437 215.524,98.9366 211.5,88.5C 211.833,87.8333 212.167,87.1667 212.5,86.5C 214.216,87.5487 215.549,88.882 216.5,90.5 Z"/></g>
<g><path style="opacity:1" fill="#380c0f" d="M 203.5,78.5 C 199.922,77.4113 196.255,77.2446 192.5,78C 181.575,81.3959 176.908,88.5626 178.5,99.5C 178.96,108.605 183.294,114.938 191.5,118.5C 193.462,120.017 195.795,120.684 198.5,120.5C 202.501,119.65 206.501,119.15 210.5,119C 211.494,120.329 212.494,121.662 213.5,123C 211.374,124.493 209.374,125.993 207.5,127.5C 205.141,128.176 202.808,129.009 200.5,130C 201.609,131.876 202.609,133.709 203.5,135.5C 203.5,136.167 203.5,136.833 203.5,137.5C 203.263,138.791 203.596,139.791 204.5,140.5C 209.988,164.901 203.321,185.234 184.5,201.5C 183.873,202.417 183.539,203.417 183.5,204.5C 182.694,203.003 182.028,201.336 181.5,199.5C 182.616,199.598 183.616,199.098 184.5,198C 183.375,196.037 182.041,194.204 180.5,192.5C 182.478,193.131 184.645,193.131 187,192.5C 189.355,189.372 188.855,188.205 185.5,189C 186.337,187.989 186.67,186.822 186.5,185.5C 189.226,179.938 191.726,174.271 194,168.5C 196.805,153.944 194.139,140.61 186,128.5C 182.182,126.919 178.849,124.586 176,121.5C 167.416,129.08 159.083,137.08 151,145.5C 150.51,146.793 150.343,148.127 150.5,149.5C 149.71,148.391 149.21,147.058 149,145.5C 148.346,146.696 147.846,146.696 147.5,145.5C 147.833,144.833 148.167,144.167 148.5,143.5C 152.674,139.589 157.007,135.923 161.5,132.5C 161,132.167 160.5,131.833 160,131.5C 158.333,132.5 156.667,133.5 155,134.5C 153.56,133.852 152.06,133.519 150.5,133.5C 152.214,132.262 154.214,131.595 156.5,131.5C 156.357,129.738 156.691,128.071 157.5,126.5C 159.679,126.009 161.679,126.009 163.5,126.5C 162.687,125.186 161.687,124.019 160.5,123C 162.141,121.871 163.141,120.371 163.5,118.5C 164.974,115.751 166.974,113.418 169.5,111.5C 169.006,109.974 168.339,108.641 167.5,107.5C 167.5,102.5 167.5,97.5 167.5,92.5C 167.5,92.1667 167.5,91.8333 167.5,91.5C 168.426,87.6417 169.926,83.975 172,80.5C 174.833,77.6667 177.667,74.8333 180.5,72C 183.792,69.6893 187.458,68.5226 191.5,68.5C 193.948,69.4731 196.615,69.8064 199.5,69.5C 199.149,66.7623 198.482,64.0956 197.5,61.5C 197.833,61.1667 198.167,60.8333 198.5,60.5C 200.57,62.6422 203.07,63.9756 206,64.5C 207.325,66.9806 207.825,69.4806 207.5,72C 209.108,72.658 210.275,72.158 211,70.5C 212.563,73.0443 214.063,73.0443 215.5,70.5C 217.482,71.9698 219.148,71.6364 220.5,69.5C 221.357,70.7357 222.023,72.069 222.5,73.5C 221.092,74.2432 219.759,75.0766 218.5,76C 220.607,78.5062 221.44,81.3395 221,84.5C 220.167,83 219,81.8333 217.5,81C 214.013,80.2694 210.68,79.1027 207.5,77.5C 206.151,77.8457 204.817,78.179 203.5,78.5 Z"/></g>
<g><path style="opacity:1" fill="#450c0f" d="M 128.5,134.5 C 128.286,136.144 128.62,137.644 129.5,139C 132.615,139.03 135.115,140.197 137,142.5C 138.085,146.039 139.252,149.539 140.5,153C 139.07,159.431 135.237,161.598 129,159.5C 128.427,157.359 127.594,155.359 126.5,153.5C 128.993,155.112 131.493,156.778 134,158.5C 138.204,156.393 139.371,153.059 137.5,148.5C 135.431,145.427 132.764,143.094 129.5,141.5C 127.42,137.914 124.754,134.747 121.5,132C 114.276,125.27 106.942,118.77 99.5,112.5C 99.5,112.167 99.5,111.833 99.5,111.5C 101.068,110.527 102.735,110.36 104.5,111C 104.043,111.414 103.709,111.914 103.5,112.5C 106.446,113.947 108.946,115.947 111,118.5C 112.434,118.07 113.601,117.236 114.5,116C 115.793,115.51 117.127,115.343 118.5,115.5C 119.209,122.145 118.042,122.812 115,117.5C 114.355,118.646 113.522,119.646 112.5,120.5C 113,121.5 113.5,122.5 114,123.5C 116.608,124.275 119.108,125.275 121.5,126.5C 124.025,125.426 126.025,126.26 127.5,129C 124.953,131.223 125.287,133.056 128.5,134.5 Z"/></g>
<g><path style="opacity:1" fill="#f89962" d="M 167.5,92.5 C 167.5,97.5 167.5,102.5 167.5,107.5C 158.064,116.269 149.064,125.269 140.5,134.5C 137.911,133.581 135.911,131.914 134.5,129.5C 144.474,118.693 154.974,108.36 166,98.5C 166.191,96.2922 166.691,94.2922 167.5,92.5 Z"/></g>
<g><path style="opacity:1" fill="#ee6f30" d="M 167.5,107.5 C 168.339,108.641 169.006,109.974 169.5,111.5C 166.974,113.418 164.974,115.751 163.5,118.5C 156.481,124.009 149.814,130.175 143.5,137C 141.511,137.519 140.511,136.686 140.5,134.5C 149.064,125.269 158.064,116.269 167.5,107.5 Z"/></g>
<g><path style="opacity:1" fill="#f69c67" d="M 222.5,122.5 C 221.5,122.5 220.5,122.5 219.5,122.5C 221.404,125.98 223.07,129.647 224.5,133.5C 217.511,134.276 210.511,134.943 203.5,135.5C 202.609,133.709 201.609,131.876 200.5,130C 202.808,129.009 205.141,128.176 207.5,127.5C 212.82,127.007 217.153,124.673 220.5,120.5C 221.522,120.855 222.189,121.522 222.5,122.5 Z"/></g>
<g><path style="opacity:1" fill="#f46347" d="M 99.5,112.5 C 106.942,118.77 114.276,125.27 121.5,132C 124.754,134.747 127.42,137.914 129.5,141.5C 125.9,142.32 123.9,144.653 123.5,148.5C 122.833,148.5 122.167,148.5 121.5,148.5C 112.889,138.553 103.889,128.886 94.5,119.5C 96.5798,117.427 98.2464,115.093 99.5,112.5 Z"/></g>
<g><path style="opacity:1" fill="#f7f2e0" d="M 194.5,209.5 C 194.5,210.167 194.167,210.5 193.5,210.5C 190.498,207.997 187.165,205.997 183.5,204.5C 183.539,203.417 183.873,202.417 184.5,201.5C 203.321,185.234 209.988,164.901 204.5,140.5C 204.47,139.503 204.97,138.836 206,138.5C 207.605,139.101 208.938,140.101 210,141.5C 211.109,149.457 211.776,157.457 212,165.5C 212.87,166.108 213.37,166.941 213.5,168C 209.68,176.179 205.68,184.345 201.5,192.5C 202.737,193.281 203.737,194.281 204.5,195.5C 202.833,196.167 201.167,196.833 199.5,197.5C 198.965,199.661 198.132,201.661 197,203.5C 194.2,201.882 192.7,202.715 192.5,206C 192.862,207.434 193.528,208.601 194.5,209.5 Z"/></g>
<g><path style="opacity:1" fill="#5d7a86" d="M 95.5,138.5 C 97.5138,138.392 99.1805,139.058 100.5,140.5C 101.833,142.167 103.167,143.833 104.5,145.5C 103.647,147.893 101.981,149.226 99.5,149.5C 97.8278,148.13 96.1612,146.797 94.5,145.5C 93.7659,144.292 93.4326,142.959 93.5,141.5C 94.9063,141.027 95.573,140.027 95.5,138.5 Z"/></g>
<g><path style="opacity:1" fill="#360b10" d="M 150.5,149.5 C 150.5,151.167 150.5,152.833 150.5,154.5C 148.824,155.183 148.157,156.517 148.5,158.5C 147.178,158.33 146.011,158.663 145,159.5C 144.297,161.78 143.131,163.78 141.5,165.5C 136.259,167.015 130.925,168.015 125.5,168.5C 125.64,166.876 124.973,165.71 123.5,165C 124.833,164.667 126.167,164.333 127.5,164C 123.892,163.974 120.558,163.141 117.5,161.5C 114.883,163.425 112.216,165.258 109.5,167C 104.898,167.582 101.565,165.748 99.5,161.5C 94.0294,159.196 90.0294,155.363 87.5,150C 89.5,151.333 91.5,152.667 93.5,154C 93.1667,153.667 92.8333,153.333 92.5,153C 93.3081,152.692 93.9747,152.192 94.5,151.5C 93.086,150.376 91.586,149.376 90,148.5C 89.6905,147.234 89.1905,146.067 88.5,145C 90.4884,144.82 92.4884,144.986 94.5,145.5C 96.1612,146.797 97.8278,148.13 99.5,149.5C 101.294,151.797 103.294,153.963 105.5,156C 109.68,157.12 111.514,155.62 111,151.5C 108.963,149.294 106.797,147.294 104.5,145.5C 103.167,143.833 101.833,142.167 100.5,140.5C 103.722,139.48 106.722,140.147 109.5,142.5C 109.291,143.086 108.957,143.586 108.5,144C 108.988,146.176 109.988,148.009 111.5,149.5C 111.387,147.828 111.721,145.994 112.5,144C 114.311,144.707 116.311,145.207 118.5,145.5C 118.67,146.822 118.337,147.989 117.5,149C 118.819,149.195 120.153,149.028 121.5,148.5C 122.167,148.5 122.833,148.5 123.5,148.5C 124.925,149.922 125.925,151.589 126.5,153.5C 127.594,155.359 128.427,157.359 129,159.5C 135.237,161.598 139.07,159.431 140.5,153C 139.252,149.539 138.085,146.039 137,142.5C 135.115,140.197 132.615,139.03 129.5,139C 128.62,137.644 128.286,136.144 128.5,134.5C 130.492,134.672 132.158,134.005 133.5,132.5C 137.191,133.26 138.191,135.26 136.5,138.5C 138.465,139.292 140.465,139.959 142.5,140.5C 144.159,138.018 146.492,136.518 149.5,136C 150.252,135.329 150.586,134.496 150.5,133.5C 152.06,133.519 153.56,133.852 155,134.5C 156.667,133.5 158.333,132.5 160,131.5C 160.5,131.833 161,132.167 161.5,132.5C 157.007,135.923 152.674,139.589 148.5,143.5C 148.167,144.167 147.833,144.833 147.5,145.5C 147.846,146.696 148.346,146.696 149,145.5C 149.21,147.058 149.71,148.391 150.5,149.5 Z"/></g>
<g><path style="opacity:1" fill="#de3b21" d="M 129.5,141.5 C 132.764,143.094 135.431,145.427 137.5,148.5C 139.371,153.059 138.204,156.393 134,158.5C 131.493,156.778 128.993,155.112 126.5,153.5C 125.925,151.589 124.925,149.922 123.5,148.5C 123.9,144.653 125.9,142.32 129.5,141.5 Z"/></g>
<g><path style="opacity:1" fill="#39515e" d="M 104.5,145.5 C 106.797,147.294 108.963,149.294 111,151.5C 111.514,155.62 109.68,157.12 105.5,156C 103.294,153.963 101.294,151.797 99.5,149.5C 101.981,149.226 103.647,147.893 104.5,145.5 Z"/></g>
<g><path style="opacity:1" fill="#360b0f" d="M 223.5,196.5 C 225.614,194.221 227.78,192.555 230,191.5C 231.455,185.253 232.288,178.92 232.5,172.5C 233.827,168.049 234.494,163.216 234.5,158C 234.356,150.876 234.023,144.043 233.5,137.5C 233.833,136.167 234.167,134.833 234.5,133.5C 234.833,134.167 235.167,134.833 235.5,135.5C 236.167,134.833 236.833,134.167 237.5,133.5C 240.026,135.927 240.026,138.427 237.5,141C 238.369,145.2 239.536,145.367 241,141.5C 241.333,144.167 241.667,146.833 242,149.5C 244.392,169.284 240.059,187.284 229,203.5C 228.29,202.027 227.124,201.36 225.5,201.5C 225.5,203.167 225.5,204.833 225.5,206.5C 224.448,206.649 223.448,206.483 222.5,206C 223.833,204.333 223.833,202.667 222.5,201C 223.167,200.667 223.833,200.333 224.5,200C 223.663,198.989 223.33,197.822 223.5,196.5 Z"/></g>
<g><path style="opacity:1" fill="#fcf3d5" d="M 194.5,209.5 C 193.528,208.601 192.862,207.434 192.5,206C 192.7,202.715 194.2,201.882 197,203.5C 198.132,201.661 198.965,199.661 199.5,197.5C 201.167,196.833 202.833,196.167 204.5,195.5C 203.737,194.281 202.737,193.281 201.5,192.5C 205.68,184.345 209.68,176.179 213.5,168C 213.37,166.941 212.87,166.108 212,165.5C 211.776,157.457 211.109,149.457 210,141.5C 208.938,140.101 207.605,139.101 206,138.5C 204.97,138.836 204.47,139.503 204.5,140.5C 203.596,139.791 203.263,138.791 203.5,137.5C 208.151,137.321 212.651,137.321 217,137.5C 223.794,158.116 221.128,177.45 209,195.5C 204.84,200.775 200.007,205.441 194.5,209.5 Z"/></g>
<g><path style="opacity:1" fill="#4a0f0c" d="M 232.5,172.5 C 232.288,178.92 231.455,185.253 230,191.5C 227.78,192.555 225.614,194.221 223.5,196.5C 227.292,188.791 230.292,180.791 232.5,172.5 Z"/></g>
<g><path style="opacity:1" fill="#e77839" d="M 222.5,122.5 C 224.89,124.734 226.724,127.401 228,130.5C 232.159,144.15 233.659,158.15 232.5,172.5C 230.292,180.791 227.292,188.791 223.5,196.5C 218.469,205.369 211.803,212.869 203.5,219C 202.251,219.74 201.251,219.573 200.5,218.5C 206.417,212.409 212.251,206.076 218,199.5C 225.634,186.648 229.468,172.648 229.5,157.5C 230.321,148.809 228.654,140.809 224.5,133.5C 223.07,129.647 221.404,125.98 219.5,122.5C 220.5,122.5 221.5,122.5 222.5,122.5 Z"/></g>
<g><path style="opacity:1" fill="#380b0d" d="M 76.5,184.5 C 99.3297,183.337 122.33,183.17 145.5,184C 154.455,184.958 159.789,189.792 161.5,198.5C 164.187,198.664 166.854,198.497 169.5,198C 175.607,194.388 181.273,190.221 186.5,185.5C 186.67,186.822 186.337,187.989 185.5,189C 188.855,188.205 189.355,189.372 187,192.5C 184.645,193.131 182.478,193.131 180.5,192.5C 182.041,194.204 183.375,196.037 184.5,198C 183.616,199.098 182.616,199.598 181.5,199.5C 182.028,201.336 182.694,203.003 183.5,204.5C 187.165,205.997 190.498,207.997 193.5,210.5C 193.5,210.833 193.5,211.167 193.5,211.5C 192.471,212.126 191.471,212.959 190.5,214C 193.723,217.962 192.723,219.795 187.5,219.5C 185.5,218.167 183.5,216.833 181.5,215.5C 180.5,214.833 179.5,214.167 178.5,213.5C 173.236,209.808 167.569,208.808 161.5,210.5C 158.583,220.392 151.916,224.726 141.5,223.5C 138.934,223.656 136.434,223.322 134,222.5C 131.838,223.66 129.671,224.826 127.5,226C 128.212,228.027 129.212,229.027 130.5,229C 130.555,237.288 129.888,245.455 128.5,253.5C 109.504,252.95 90.5038,252.45 71.5,252C 70.5842,251.722 69.9175,251.222 69.5,250.5C 88.5,250.5 107.5,250.5 126.5,250.5C 126.203,243.442 126.536,236.442 127.5,229.5C 111.177,228.667 94.8435,228.167 78.5,228C 70.5785,226.408 65.0785,221.908 62,214.5C 61.3333,208.5 61.3333,202.5 62,196.5C 64.1563,189.843 68.6563,185.843 75.5,184.5C 71.3823,186.946 67.8823,190.28 65,194.5C 63.1083,200.825 63.1083,207.158 65,213.5C 68.4167,211.04 70.4167,207.707 71,203.5C 71.3826,204.056 71.8826,204.389 72.5,204.5C 72.1072,207.513 72.7739,210.18 74.5,212.5C 75.1667,213.833 76.1667,214.833 77.5,215.5C 77.6107,216.117 77.944,216.617 78.5,217C 100.833,217.667 123.167,217.667 145.5,217C 146.942,216.623 147.942,215.79 148.5,214.5C 150.879,210.55 151.879,206.216 151.5,201.5C 152.609,200.71 153.942,200.21 155.5,200C 154.572,199.612 153.905,198.945 153.5,198C 154.833,196.333 154.833,194.667 153.5,193C 151.339,191.004 149.339,188.838 147.5,186.5C 146.271,185.719 144.938,185.219 143.5,185C 121.169,184.5 98.8358,184.333 76.5,184.5 Z"/></g>
<g><path style="opacity:1" fill="#380e11" d="M 75.5,184.5 C 75.8333,184.5 76.1667,184.5 76.5,184.5C 98.8358,184.333 121.169,184.5 143.5,185C 144.938,185.219 146.271,185.719 147.5,186.5C 149.339,188.838 151.339,191.004 153.5,193C 154.833,194.667 154.833,196.333 153.5,198C 153.905,198.945 154.572,199.612 155.5,200C 153.942,200.21 152.609,200.71 151.5,201.5C 151.167,201.5 150.833,201.5 150.5,201.5C 149.785,199.245 148.452,197.412 146.5,196C 125.169,195.5 103.836,195.333 82.5,195.5C 75.8245,194.186 72.4912,196.853 72.5,203.5C 72.5,203.833 72.5,204.167 72.5,204.5C 71.8826,204.389 71.3826,204.056 71,203.5C 70.4167,207.707 68.4167,211.04 65,213.5C 63.1083,207.158 63.1083,200.825 65,194.5C 67.8823,190.28 71.3823,186.946 75.5,184.5 Z"/></g>
<g><path style="opacity:1" fill="#faf4e1" d="M 82.5,195.5 C 83.7785,198.002 83.7785,200.502 82.5,203C 79.1832,203.498 75.8499,203.665 72.5,203.5C 72.4912,196.853 75.8245,194.186 82.5,195.5 Z"/></g>
<g><path style="opacity:1" fill="#facfa7" d="M 82.5,195.5 C 103.836,195.333 125.169,195.5 146.5,196C 148.452,197.412 149.785,199.245 150.5,201.5C 150.5,202.5 150.5,203.5 150.5,204.5C 124.5,204.5 98.5,204.5 72.5,204.5C 72.5,204.167 72.5,203.833 72.5,203.5C 75.8499,203.665 79.1832,203.498 82.5,203C 83.7785,200.502 83.7785,198.002 82.5,195.5 Z"/></g>
<g><path style="opacity:1" fill="#fac38e" d="M 224.5,133.5 C 228.654,140.809 230.321,148.809 229.5,157.5C 229.468,172.648 225.634,186.648 218,199.5C 212.251,206.076 206.417,212.409 200.5,218.5C 198.167,216.167 195.833,213.833 193.5,211.5C 193.5,211.167 193.5,210.833 193.5,210.5C 194.167,210.5 194.5,210.167 194.5,209.5C 200.007,205.441 204.84,200.775 209,195.5C 221.128,177.45 223.794,158.116 217,137.5C 212.651,137.321 208.151,137.321 203.5,137.5C 203.5,136.833 203.5,136.167 203.5,135.5C 210.511,134.943 217.511,134.276 224.5,133.5 Z"/></g>
<g><path style="opacity:1" fill="#fa5e43" d="M 150.5,201.5 C 150.833,201.5 151.167,201.5 151.5,201.5C 151.879,206.216 150.879,210.55 148.5,214.5C 147.167,214.833 145.833,215.167 144.5,215.5C 144.804,214.85 145.137,214.183 145.5,213.5C 121.843,212.5 98.1761,212.167 74.5,212.5C 72.7739,210.18 72.1072,207.513 72.5,204.5C 98.5,204.5 124.5,204.5 150.5,204.5C 150.5,203.5 150.5,202.5 150.5,201.5 Z"/></g>
<g><path style="opacity:1" fill="#f1ebd8" d="M 178.5,213.5 C 173.026,213.899 167.36,213.899 161.5,213.5C 161.5,212.5 161.5,211.5 161.5,210.5C 167.569,208.808 173.236,209.808 178.5,213.5 Z"/></g>
<g><path style="opacity:1" fill="#dd3721" d="M 74.5,212.5 C 98.1761,212.167 121.843,212.5 145.5,213.5C 145.137,214.183 144.804,214.85 144.5,215.5C 122.196,216.824 99.8631,216.824 77.5,215.5C 76.1667,214.833 75.1667,213.833 74.5,212.5 Z"/></g>
<g><path style="opacity:1" fill="#7b150f" d="M 148.5,214.5 C 147.942,215.79 146.942,216.623 145.5,217C 123.167,217.667 100.833,217.667 78.5,217C 77.944,216.617 77.6107,216.117 77.5,215.5C 99.8631,216.824 122.196,216.824 144.5,215.5C 145.833,215.167 147.167,214.833 148.5,214.5 Z"/></g>
<g><path style="opacity:0.999" fill="#f6f1de" d="M 144.5,250.5 C 143.167,250.5 141.833,250.5 140.5,250.5C 139.883,250.389 139.383,250.056 139,249.5C 137.594,243.558 137.261,237.558 138,231.5C 138.926,229.308 140.093,227.308 141.5,225.5C 143.166,224.334 144.833,224.334 146.5,225.5C 145.139,227.028 143.972,228.695 143,230.5C 142.01,237.339 142.51,244.005 144.5,250.5 Z"/></g>
<g><path style="opacity:1" fill="#fadcb8" d="M 161.5,210.5 C 161.5,211.5 161.5,212.5 161.5,213.5C 167.36,213.899 173.026,213.899 178.5,213.5C 179.5,214.167 180.5,214.833 181.5,215.5C 181.549,218.572 183.049,221.239 186,223.5C 189.983,233.12 189.15,242.12 183.5,250.5C 170.5,250.5 157.5,250.5 144.5,250.5C 142.51,244.005 142.01,237.339 143,230.5C 143.972,228.695 145.139,227.028 146.5,225.5C 144.833,224.334 143.166,224.334 141.5,225.5C 141.5,224.833 141.5,224.167 141.5,223.5C 151.916,224.726 158.583,220.392 161.5,210.5 Z M 164.5,231.5 C 171.167,233.167 171.167,234.833 164.5,236.5C 164.5,234.833 164.5,233.167 164.5,231.5 Z"/></g>
<g><path style="opacity:1" fill="#390e10" d="M 163.5,222.5 C 175.476,222.969 179.976,228.969 177,240.5C 170.878,247.517 164.212,248.184 157,242.5C 153.278,233.647 155.445,226.98 163.5,222.5 Z M 164.5,231.5 C 164.5,233.167 164.5,234.833 164.5,236.5C 171.167,234.833 171.167,233.167 164.5,231.5 Z"/></g>
<g><path style="opacity:1" fill="#f1a171" d="M 181.5,215.5 C 183.5,216.833 185.5,218.167 187.5,219.5C 190.188,223.543 192.355,227.876 194,232.5C 194.667,237.833 194.667,243.167 194,248.5C 190.851,250.362 187.351,251.029 183.5,250.5C 189.15,242.12 189.983,233.12 186,223.5C 183.049,221.239 181.549,218.572 181.5,215.5 Z"/></g>
<g><path style="opacity:1" fill="#3a1115" d="M 141.5,223.5 C 141.5,224.167 141.5,224.833 141.5,225.5C 140.093,227.308 138.926,229.308 138,231.5C 137.261,237.558 137.594,243.558 139,249.5C 139.383,250.056 139.883,250.389 140.5,250.5C 158.326,251.497 176.326,251.83 194.5,251.5C 191.316,253.414 187.649,254.08 183.5,253.5C 183.5,254.5 183.5,255.5 183.5,256.5C 184.833,256.5 186.167,256.5 187.5,256.5C 187.5,257.5 187.5,258.5 187.5,259.5C 196.558,260.937 205.558,261.937 214.5,262.5C 180.167,262.5 145.833,262.5 111.5,262.5C 97.2414,261.352 82.908,261.185 68.5,262C 66.5,263.333 64.5,264.667 62.5,266C 60.9697,268.352 59.3031,270.519 57.5,272.5C 56.1082,270.076 54.2748,268.743 52,268.5C 51.5172,269.448 51.3505,270.448 51.5,271.5C 50.5,271.5 49.5,271.5 48.5,271.5C 48.5,270.5 48.5,269.5 48.5,268.5C 52.4462,259.015 59.4462,253.015 69.5,250.5C 69.9175,251.222 70.5842,251.722 71.5,252C 90.5038,252.45 109.504,252.95 128.5,253.5C 129.888,245.455 130.555,237.288 130.5,229C 129.212,229.027 128.212,228.027 127.5,226C 129.671,224.826 131.838,223.66 134,222.5C 136.434,223.322 138.934,223.656 141.5,223.5 Z"/></g>
<g><path style="opacity:1" fill="#f8f4e2" d="M 111.5,262.5 C 111.586,263.496 111.252,264.329 110.5,265C 99.8333,265.333 89.1667,265.667 78.5,266C 74.9586,266.665 72.292,268.498 70.5,271.5C 70.1667,271.5 69.8333,271.5 69.5,271.5C 67.6096,271.297 66.1096,271.963 65,273.5C 64.0093,275.808 63.176,278.141 62.5,280.5C 60.5,280.5 58.5,280.5 56.5,280.5C 56.5,279.5 56.5,278.5 56.5,277.5C 56.366,275.708 56.6993,274.042 57.5,272.5C 59.3031,270.519 60.9697,268.352 62.5,266C 64.5,264.667 66.5,263.333 68.5,262C 82.908,261.185 97.2414,261.352 111.5,262.5 Z"/></g>
<g><path style="opacity:1" fill="#a8b2ab" d="M 111.5,262.5 C 145.833,262.5 180.167,262.5 214.5,262.5C 215.167,262.5 215.833,262.5 216.5,262.5C 220.705,264.364 224.372,267.03 227.5,270.5C 175.336,271.499 123.003,271.832 70.5,271.5C 72.292,268.498 74.9586,266.665 78.5,266C 89.1667,265.667 99.8333,265.333 110.5,265C 111.252,264.329 111.586,263.496 111.5,262.5 Z"/></g>
<g><path style="opacity:1" fill="#bbbfb6" d="M 69.5,271.5 C 68.1179,274.526 66.7846,277.526 65.5,280.5C 64.5,280.5 63.5,280.5 62.5,280.5C 63.176,278.141 64.0093,275.808 65,273.5C 66.1096,271.963 67.6096,271.297 69.5,271.5 Z"/></g>
<g><path style="opacity:1" fill="#527c8a" d="M 227.5,270.5 C 230.207,273.247 231.873,276.58 232.5,280.5C 176.833,280.5 121.167,280.5 65.5,280.5C 66.7846,277.526 68.1179,274.526 69.5,271.5C 69.8333,271.5 70.1667,271.5 70.5,271.5C 123.003,271.832 175.336,271.499 227.5,270.5 Z"/></g>
<g><path style="opacity:1" fill="#5e828d" d="M 56.5,277.5 C 56.5,278.5 56.5,279.5 56.5,280.5C 58.5,280.5 60.5,280.5 62.5,280.5C 63.5,280.5 64.5,280.5 65.5,280.5C 65.5,282.833 65.5,285.167 65.5,287.5C 62.5,287.5 59.5,287.5 56.5,287.5C 56.7947,285.265 56.4614,283.265 55.5,281.5C 55.2322,279.901 55.5655,278.568 56.5,277.5 Z"/></g>
<g><path style="opacity:1" fill="#350c10" d="M 207.5,229.5 C 206.942,230.79 205.942,231.623 204.5,232C 207.045,237.817 207.045,243.65 204.5,249.5C 213.482,250.332 222.482,250.832 231.5,251C 247.379,257.912 254.712,270.078 253.5,287.5C 264.014,287.172 274.347,287.506 284.5,288.5C 243.172,288.667 243.172,289.167 284.5,290C 287.2,290.949 288.033,292.783 287,295.5C 285.211,297.229 283.044,297.896 280.5,297.5C 276.86,297.07 273.36,296.07 270,294.5C 268.302,295.733 266.302,296.4 264,296.5C 261.621,296.346 259.454,295.68 257.5,294.5C 256.304,294.846 256.304,295.346 257.5,296C 255.833,296.667 254.167,296.667 252.5,296C 253.654,295.086 253.487,294.253 252,293.5C 251.517,294.448 251.351,295.448 251.5,296.5C 236.226,296.319 220.559,296.319 204.5,296.5C 191.532,295.851 178.532,295.184 165.5,294.5C 165.023,293.522 164.357,292.689 163.5,292C 164.167,291.667 164.833,291.333 165.5,291C 181.339,290.831 197.005,290.331 212.5,289.5C 222.681,289.827 232.681,289.494 242.5,288.5C 244.261,283.084 243.595,278.084 240.5,273.5C 235.454,263.695 227.454,260.029 216.5,262.5C 215.833,262.5 215.167,262.5 214.5,262.5C 205.558,261.937 196.558,260.937 187.5,259.5C 187.5,258.5 187.5,257.5 187.5,256.5C 186.167,256.5 184.833,256.5 183.5,256.5C 183.5,255.5 183.5,254.5 183.5,253.5C 187.649,254.08 191.316,253.414 194.5,251.5C 197.114,244.177 197.114,236.843 194.5,229.5C 195.156,227.547 195.489,225.547 195.5,223.5C 194.178,223.33 193.011,223.663 192,224.5C 192.194,221.41 193.027,218.41 194.5,215.5C 195.086,215.709 195.586,216.043 196,216.5C 196.495,218.473 196.662,220.473 196.5,222.5C 198.06,222.519 199.56,222.852 201,223.5C 203.047,220.955 205.547,218.955 208.5,217.5C 210.895,218.523 211.895,217.523 211.5,214.5C 214.879,213.489 218.213,212.656 221.5,212C 220.333,213.833 218.833,215.333 217,216.5C 215.479,221.356 212.479,225.023 208,227.5C 207.536,228.094 207.369,228.761 207.5,229.5 Z"/></g>
<g><path style="opacity:0.992" fill="#320c10" d="M 48.5,268.5 C 48.5,269.5 48.5,270.5 48.5,271.5C 49.5,271.5 50.5,271.5 51.5,271.5C 51.3505,270.448 51.5172,269.448 52,268.5C 54.2748,268.743 56.1082,270.076 57.5,272.5C 56.6993,274.042 56.366,275.708 56.5,277.5C 55.5655,278.568 55.2322,279.901 55.5,281.5C 55.5,283.833 55.5,286.167 55.5,288.5C 117.833,288.5 180.167,288.5 242.5,288.5C 232.681,289.494 222.681,289.827 212.5,289.5C 168.832,289.333 125.165,289.5 81.5,290C 77.7665,290.066 74.2665,290.899 71,292.5C 68.9587,291.248 66.6254,290.581 64,290.5C 61.8333,290.833 59.6667,291.167 57.5,291.5C 58.2458,292.736 58.5792,294.07 58.5,295.5C 53.2063,295.682 53.2063,296.182 58.5,297C 132.499,297.5 206.499,297.667 280.5,297.5C 283.044,297.896 285.211,297.229 287,295.5C 288.033,292.783 287.2,290.949 284.5,290C 243.172,289.167 243.172,288.667 284.5,288.5C 287.85,288.651 289.516,290.485 289.5,294C 288.992,295.893 287.992,297.393 286.5,298.5C 200.459,298.828 114.459,298.495 28.5,297.5C 27.0069,296.688 26.3402,295.355 26.5,293.5C 26.3053,291.275 27.1387,289.609 29,288.5C 34.1159,287.575 39.2825,287.242 44.5,287.5C 44.3399,282.434 44.8399,277.434 46,272.5C 46.2004,270.68 47.0337,269.347 48.5,268.5 Z"/></g>
<g><path style="opacity:1" fill="#345060" d="M 216.5,262.5 C 227.454,260.029 235.454,263.695 240.5,273.5C 240.833,278.167 241.167,282.833 241.5,287.5C 182.833,287.5 124.167,287.5 65.5,287.5C 65.5,285.167 65.5,282.833 65.5,280.5C 121.167,280.5 176.833,280.5 232.5,280.5C 231.873,276.58 230.207,273.247 227.5,270.5C 224.372,267.03 220.705,264.364 216.5,262.5 Z"/></g>
<g><path style="opacity:1" fill="#383746" d="M 240.5,273.5 C 243.595,278.084 244.261,283.084 242.5,288.5C 180.167,288.5 117.833,288.5 55.5,288.5C 55.5,286.167 55.5,283.833 55.5,281.5C 56.4614,283.265 56.7947,285.265 56.5,287.5C 59.5,287.5 62.5,287.5 65.5,287.5C 124.167,287.5 182.833,287.5 241.5,287.5C 241.167,282.833 240.833,278.167 240.5,273.5 Z"/></g>
<g><path style="opacity:1" fill="#340c0f" d="M 212.5,289.5 C 197.005,290.331 181.339,290.831 165.5,291C 164.833,291.333 164.167,291.667 163.5,292C 164.357,292.689 165.023,293.522 165.5,294.5C 178.532,295.184 191.532,295.851 204.5,296.5C 220.559,296.319 236.226,296.319 251.5,296.5C 251.351,295.448 251.517,294.448 252,293.5C 253.487,294.253 253.654,295.086 252.5,296C 254.167,296.667 255.833,296.667 257.5,296C 256.304,295.346 256.304,294.846 257.5,294.5C 259.454,295.68 261.621,296.346 264,296.5C 266.302,296.4 268.302,295.733 270,294.5C 273.36,296.07 276.86,297.07 280.5,297.5C 206.499,297.667 132.499,297.5 58.5,297C 53.2063,296.182 53.2063,295.682 58.5,295.5C 58.5792,294.07 58.2458,292.736 57.5,291.5C 59.6667,291.167 61.8333,290.833 64,290.5C 66.6254,290.581 68.9587,291.248 71,292.5C 74.2665,290.899 77.7665,290.066 81.5,290C 125.165,289.5 168.832,289.333 212.5,289.5 Z"/></g>
<g><path style="opacity:0.353" fill="#30090d" d="M 17.5,299.5 C 16.8333,299.5 16.1667,299.5 15.5,299.5C 14.1225,298.766 12.6225,298.099 11,297.5C 10.502,294.518 10.3354,291.518 10.5,288.5C 20.6003,287.264 22.9337,290.93 17.5,299.5 Z"/></g>
<g><path style="opacity:0.274" fill="#210203" d="M 28.5,297.5 C 114.459,298.495 200.459,298.828 286.5,298.5C 286.5,298.833 286.5,299.167 286.5,299.5C 200.833,299.5 115.167,299.5 29.5,299.5C 29.1667,298.833 28.8333,298.167 28.5,297.5 Z"/></g>
</svg>
