<?xml version="1.0" encoding="UTF-8"?>
<!DOCTYPE svg PUBLIC "-//W3C//DTD SVG 1.1//EN" "http://www.w3.org/Graphics/SVG/1.1/DTD/svg11.dtd">
<svg xmlns="http://www.w3.org/2000/svg" version="1.1" width="91px" height="115px" style="shape-rendering:geometricPrecision; text-rendering:geometricPrecision; image-rendering:optimizeQuality; fill-rule:evenodd; clip-rule:evenodd" xmlns:xlink="http://www.w3.org/1999/xlink">
<g><path style="opacity:1" fill="#fad50d" d="M 65.5,-0.5 C 69.1667,-0.5 72.8333,-0.5 76.5,-0.5C 82.8295,1.82955 87.1629,6.16288 89.5,12.5C 85.7818,16.2406 82.2818,20.2406 79,24.5C 77.2228,26.7899 75.0562,28.4566 72.5,29.5C 69.5373,25.0286 65.5373,22.0286 60.5,20.5C 64.3197,15.1906 67.3197,9.52393 69.5,3.5C 68.1779,3.33003 67.0113,3.66337 66,4.5C 65.6667,6.5 65.3333,8.5 65,10.5C 62.8882,13.7271 61.0549,17.0604 59.5,20.5C 57.0971,20.448 54.7638,20.7814 52.5,21.5C 50.9367,10.721 55.2701,3.3877 65.5,-0.5 Z"/></g>
<g><path style="opacity:1" fill="#fce577" d="M 60.5,20.5 C 60.1667,20.5 59.8333,20.5 59.5,20.5C 61.0549,17.0604 62.8882,13.7271 65,10.5C 65.3333,8.5 65.6667,6.5 66,4.5C 67.0113,3.66337 68.1779,3.33003 69.5,3.5C 67.3197,9.52393 64.3197,15.1906 60.5,20.5 Z"/></g>
<g><path style="opacity:1" fill="#f3a50d" d="M 89.5,12.5 C 89.3284,13.4916 89.6618,14.1583 90.5,14.5C 90.5,17.1667 90.5,19.8333 90.5,22.5C 87.7918,30.2057 82.4585,35.2057 74.5,37.5C 74.5,37.1667 74.5,36.8333 74.5,36.5C 74.8342,33.812 74.1675,31.4786 72.5,29.5C 75.0562,28.4566 77.2228,26.7899 79,24.5C 82.2818,20.2406 85.7818,16.2406 89.5,12.5 Z"/></g>
<g><path style="opacity:1" fill="#193170" d="M 52.5,21.5 C 55.322,22.5072 58.322,23.3405 61.5,24C 63.5844,24.6972 65.2511,25.8639 66.5,27.5C 65.6178,30.385 64.2845,33.0517 62.5,35.5C 59.2257,33.0305 55.559,31.3638 51.5,30.5C 48.6377,29.3187 45.6377,29.3187 42.5,30.5C 44.1684,25.6635 47.5017,22.6635 52.5,21.5 Z"/></g>
<g><path style="opacity:1" fill="#d83f25" d="M 59.5,20.5 C 59.8333,20.5 60.1667,20.5 60.5,20.5C 65.5373,22.0286 69.5373,25.0286 72.5,29.5C 74.1675,31.4786 74.8342,33.812 74.5,36.5C 72.9977,32.5159 70.331,29.5159 66.5,27.5C 65.2511,25.8639 63.5844,24.6972 61.5,24C 58.322,23.3405 55.322,22.5072 52.5,21.5C 54.7638,20.7814 57.0971,20.448 59.5,20.5 Z"/></g>
<g><path style="opacity:0.341" fill="#b14639" d="M 29.5,39.5 C 29.1667,39.5 28.8333,39.5 28.5,39.5C 28.6816,37.4086 28.3482,35.4086 27.5,33.5C 21.8118,32.2584 16.1452,32.2584 10.5,33.5C 10.6107,32.8826 10.944,32.3826 11.5,32C 17.1959,31.1701 22.8625,31.3368 28.5,32.5C 29.3742,34.7466 29.7076,37.0799 29.5,39.5 Z"/></g>
<g><path style="opacity:1" fill="#0d093e" d="M 66.5,27.5 C 70.331,29.5159 72.9977,32.5159 74.5,36.5C 74.5,36.8333 74.5,37.1667 74.5,37.5C 73.8305,40.8489 72.1639,43.5156 69.5,45.5C 68.5,44.1667 67.5,42.8333 66.5,41.5C 65.5849,39.2459 64.2516,37.2459 62.5,35.5C 64.2845,33.0517 65.6178,30.385 66.5,27.5 Z"/></g>
<g><path style="opacity:1" fill="#f03326" d="M 28.5,39.5 C 24.8333,39.5 21.1667,39.5 17.5,39.5C 14.8333,39.5 12.1667,39.5 9.5,39.5C 9.20528,37.2646 9.53862,35.2646 10.5,33.5C 16.1452,32.2584 21.8118,32.2584 27.5,33.5C 28.3482,35.4086 28.6816,37.4086 28.5,39.5 Z"/></g>
<g><path style="opacity:1" fill="#f72a1f" d="M 51.5,30.5 C 55.559,31.3638 59.2257,33.0305 62.5,35.5C 64.2516,37.2459 65.5849,39.2459 66.5,41.5C 67.3266,45.8072 67.9933,50.1405 68.5,54.5C 66.1432,54.3367 63.8098,54.5034 61.5,55C 60.944,55.3826 60.6107,55.8826 60.5,56.5C 59.3995,57.6049 58.7329,58.9382 58.5,60.5C 57.8666,65.8288 54.8666,67.6621 49.5,66C 50.056,65.6174 50.3893,65.1174 50.5,64.5C 52.0862,62.3295 53.4196,59.9962 54.5,57.5C 55.6341,55.0336 55.8007,52.367 55,49.5C 54.34,47.6763 53.1733,46.343 51.5,45.5C 50.5,43.8333 49.1667,42.5 47.5,41.5C 46.8333,41.1667 46.1667,40.8333 45.5,40.5C 44.8902,39.609 44.5569,38.609 44.5,37.5C 45.6138,36.1147 46.6138,34.6147 47.5,33C 47,32.8333 46.5,32.6667 46,32.5C 44.2871,34.0425 42.7871,35.7092 41.5,37.5C 39.7676,37.3687 38.101,37.3687 36.5,37.5C 40.1062,32.2929 45.1062,29.9596 51.5,30.5 Z"/></g>
<g><path style="opacity:1" fill="#f9ad9b" d="M 44.5,37.5 C 43.3478,38.625 42.3478,38.625 41.5,37.5C 42.7871,35.7092 44.2871,34.0425 46,32.5C 46.5,32.6667 47,32.8333 47.5,33C 46.6138,34.6147 45.6138,36.1147 44.5,37.5 Z"/></g>
<g><path style="opacity:1" fill="#d04a45" d="M 51.5,30.5 C 45.1062,29.9596 40.1062,32.2929 36.5,37.5C 38.101,37.3687 39.7676,37.3687 41.5,37.5C 42.3478,38.625 43.3478,38.625 44.5,37.5C 44.5569,38.609 44.8902,39.609 45.5,40.5C 41.4517,40.3946 37.4517,40.7279 33.5,41.5C 34.7116,36.2956 37.7116,32.6289 42.5,30.5C 45.6377,29.3187 48.6377,29.3187 51.5,30.5 Z"/></g>
<g><path style="opacity:1" fill="#0c3374" d="M 9.5,39.5 C 12.1667,39.5 14.8333,39.5 17.5,39.5C 17.5,45.8333 17.5,52.1667 17.5,58.5C 15.5853,58.2155 13.9187,58.5489 12.5,59.5C 11.5041,59.5858 10.6708,59.2524 10,58.5C 9.50046,52.1754 9.33379,45.8421 9.5,39.5 Z"/></g>
<g><path style="opacity:1" fill="#0e0d40" d="M 17.5,39.5 C 21.1667,39.5 24.8333,39.5 28.5,39.5C 28.8333,39.5 29.1667,39.5 29.5,39.5C 29.5,41.1667 29.5,42.8333 29.5,44.5C 29.678,48.1021 30.678,48.1021 32.5,44.5C 32.3764,43.8933 32.0431,43.56 31.5,43.5C 31.8417,42.6618 32.5084,42.3284 33.5,42.5C 33.7135,44.1439 33.3802,45.6439 32.5,47C 34.1742,48.5059 35.1742,50.3393 35.5,52.5C 37.099,52.2322 38.4324,52.5655 39.5,53.5C 36.9162,54.0483 35.9162,55.715 36.5,58.5C 34.5283,57.4833 33.195,58.15 32.5,60.5C 31.7109,60.2172 31.0442,59.7172 30.5,59C 26.1794,58.501 21.8461,58.3343 17.5,58.5C 17.5,52.1667 17.5,45.8333 17.5,39.5 Z M 29.5,54.5 C 33.31,55.7542 33.31,56.7542 29.5,57.5C 29.5,56.5 29.5,55.5 29.5,54.5 Z"/></g>
<g><path style="opacity:1" fill="#0c3578" d="M 45.5,40.5 C 46.1667,40.8333 46.8333,41.1667 47.5,41.5C 47.5228,43.5996 46.8561,45.4329 45.5,47C 49.7909,52.9875 49.4575,58.6542 44.5,64C 42.1902,64.4966 39.8568,64.6633 37.5,64.5C 35.246,63.8763 33.5794,62.543 32.5,60.5C 33.195,58.15 34.5283,57.4833 36.5,58.5C 40.4938,60.3488 41.9938,59.0155 41,54.5C 40.6174,53.944 40.1174,53.6107 39.5,53.5C 38.4324,52.5655 37.099,52.2322 35.5,52.5C 35.1742,50.3393 34.1742,48.5059 32.5,47C 33.3802,45.6439 33.7135,44.1439 33.5,42.5C 33.5,42.1667 33.5,41.8333 33.5,41.5C 37.4517,40.7279 41.4517,40.3946 45.5,40.5 Z"/></g>
<g><path style="opacity:1" fill="#c03f38" d="M 31.5,43.5 C 32.0431,43.56 32.3764,43.8933 32.5,44.5C 30.678,48.1021 29.678,48.1021 29.5,44.5C 30.1667,44.1667 30.8333,43.8333 31.5,43.5 Z"/></g>
<g><path style="opacity:1" fill="#100a3f" d="M 47.5,41.5 C 49.1667,42.5 50.5,43.8333 51.5,45.5C 53.7088,49.1394 54.7088,53.1394 54.5,57.5C 53.4196,59.9962 52.0862,62.3295 50.5,64.5C 46.1201,67.1545 41.7867,67.1545 37.5,64.5C 39.8568,64.6633 42.1902,64.4966 44.5,64C 49.4575,58.6542 49.7909,52.9875 45.5,47C 46.8561,45.4329 47.5228,43.5996 47.5,41.5 Z"/></g>
<g><path style="opacity:0.592" fill="#c63331" d="M 66.5,41.5 C 67.5,42.8333 68.5,44.1667 69.5,45.5C 69.5,48.8333 69.5,52.1667 69.5,55.5C 66.4299,55.3677 63.4299,55.701 60.5,56.5C 60.6107,55.8826 60.944,55.3826 61.5,55C 63.8098,54.5034 66.1432,54.3367 68.5,54.5C 67.9933,50.1405 67.3266,45.8072 66.5,41.5 Z"/></g>
<g><path style="opacity:1" fill="#66112b" d="M 51.5,45.5 C 53.1733,46.343 54.34,47.6763 55,49.5C 55.8007,52.367 55.6341,55.0336 54.5,57.5C 54.7088,53.1394 53.7088,49.1394 51.5,45.5 Z"/></g>
<g><path style="opacity:1" fill="#b89a35" d="M 39.5,53.5 C 40.1174,53.6107 40.6174,53.944 41,54.5C 41.9938,59.0155 40.4938,60.3488 36.5,58.5C 35.9162,55.715 36.9162,54.0483 39.5,53.5 Z"/></g>
<g><path style="opacity:0.725" fill="#b22f32" d="M 12.5,59.5 C 13.9187,58.5489 15.5853,58.2155 17.5,58.5C 21.8461,58.3343 26.1794,58.501 30.5,59C 31.0442,59.7172 31.7109,60.2172 32.5,60.5C 33.5794,62.543 35.246,63.8763 37.5,64.5C 41.7867,67.1545 46.1201,67.1545 50.5,64.5C 50.3893,65.1174 50.056,65.6174 49.5,66C 54.8666,67.6621 57.8666,65.8288 58.5,60.5C 58.5,62.5 58.5,64.5 58.5,66.5C 57.1667,66.8333 55.8333,67.1667 54.5,67.5C 49.9677,67.1818 45.6344,67.5151 41.5,68.5C 36.4623,67.2291 32.2957,64.5624 29,60.5C 28.5065,62.1341 28.3398,63.8008 28.5,65.5C 23.5,65.5 18.5,65.5 13.5,65.5C 12.8333,65.5 12.5,65.1667 12.5,64.5C 13.7564,64.0962 14.9231,63.4295 16,62.5C 19.6161,64.2559 23.4494,64.9225 27.5,64.5C 27.5,62.8333 27.5,61.1667 27.5,59.5C 22.5,59.5 17.5,59.5 12.5,59.5 Z"/></g>
<g><path style="opacity:1" fill="#ed2319" d="M 12.5,59.5 C 17.5,59.5 22.5,59.5 27.5,59.5C 27.5,61.1667 27.5,62.8333 27.5,64.5C 23.4494,64.9225 19.6161,64.2559 16,62.5C 14.9231,63.4295 13.7564,64.0962 12.5,64.5C 12.5,62.8333 12.5,61.1667 12.5,59.5 Z"/></g>
<g><path style="opacity:1" fill="#153573" d="M 69.5,55.5 C 70.1667,55.5 70.5,55.8333 70.5,56.5C 69.3362,59.1865 67.5029,61.5199 65,63.5C 64.9977,66.0512 64.1644,68.0512 62.5,69.5C 60.5956,69.2624 59.2623,68.2624 58.5,66.5C 58.5,64.5 58.5,62.5 58.5,60.5C 58.7329,58.9382 59.3995,57.6049 60.5,56.5C 63.4299,55.701 66.4299,55.3677 69.5,55.5 Z"/></g>
<g><path style="opacity:1" fill="#060d3c" d="M 70.5,56.5 C 74.7369,61.5201 74.0702,66.0201 68.5,70C 66.2884,70.7891 64.2884,70.6225 62.5,69.5C 64.1644,68.0512 64.9977,66.0512 65,63.5C 67.5029,61.5199 69.3362,59.1865 70.5,56.5 Z"/></g>
<g><path style="opacity:0.557" fill="#25284e" d="M 13.5,65.5 C 18.5,65.5 23.5,65.5 28.5,65.5C 28.5,66.8333 28.5,68.1667 28.5,69.5C 23.5,69.5 18.5,69.5 13.5,69.5C 13.1667,69.5 12.8333,69.5 12.5,69.5C 13.2341,68.2921 13.5674,66.9587 13.5,65.5 Z"/></g>
<g><path style="opacity:1" fill="#f2e978" d="M 10.5,69.5 C 10.5,72.1667 10.5,74.8333 10.5,77.5C 8.83333,77.5 7.16667,77.5 5.5,77.5C 5.5,74.8333 5.5,72.1667 5.5,69.5C 7.16667,69.5 8.83333,69.5 10.5,69.5 Z"/></g>
<g><path style="opacity:1" fill="#f8d716" d="M 10.5,69.5 C 11.1667,69.5 11.8333,69.5 12.5,69.5C 12.8333,69.5 13.1667,69.5 13.5,69.5C 15.6074,70.4682 17.9407,70.8016 20.5,70.5C 20.5,72.5 20.5,74.5 20.5,76.5C 17.6146,76.1936 14.9479,76.5269 12.5,77.5C 11.8333,77.5 11.1667,77.5 10.5,77.5C 10.5,74.8333 10.5,72.1667 10.5,69.5 Z"/></g>
<g><path style="opacity:1" fill="#e4ac21" d="M 13.5,69.5 C 18.5,69.5 23.5,69.5 28.5,69.5C 30.8333,69.5 33.1667,69.5 35.5,69.5C 35.8134,72.2469 35.48,74.9135 34.5,77.5C 32.5914,78.3482 30.5914,78.6816 28.5,78.5C 28.5,79.5 28.5,80.5 28.5,81.5C 25.8333,81.5 23.1667,81.5 20.5,81.5C 17.8333,81.5 15.1667,81.5 12.5,81.5C 12.5,80.1667 12.5,78.8333 12.5,77.5C 14.9479,76.5269 17.6146,76.1936 20.5,76.5C 20.5,74.5 20.5,72.5 20.5,70.5C 17.9407,70.8016 15.6074,70.4682 13.5,69.5 Z"/></g>
<g><path style="opacity:1" fill="#282d77" d="M 45.5,80.5 C 43.6203,80.7709 42.287,80.1042 41.5,78.5C 42.0483,75.9162 43.715,74.9162 46.5,75.5C 46.7845,77.4147 46.4511,79.0813 45.5,80.5 Z"/></g>
<g><path style="opacity:1" fill="#cf2c32" d="M 43.5,83.5 C 42.8333,83.5 42.5,83.1667 42.5,82.5C 43.5,81.8333 44.5,81.1667 45.5,80.5C 46.4511,79.0813 46.7845,77.4147 46.5,75.5C 43.715,74.9162 42.0483,75.9162 41.5,78.5C 40.6618,78.1583 40.3284,77.4916 40.5,76.5C 43.2116,71.696 46.3783,71.3626 50,75.5C 50.9794,80.6895 48.8128,83.3562 43.5,83.5 Z"/></g>
<g><path style="opacity:1" fill="#993148" d="M 40.5,76.5 C 40.3284,77.4916 40.6618,78.1583 41.5,78.5C 42.287,80.1042 43.6203,80.7709 45.5,80.5C 44.5,81.1667 43.5,81.8333 42.5,82.5C 41.1667,81.8333 40.1667,80.8333 39.5,79.5C 39.5,79.1667 39.5,78.8333 39.5,78.5C 39.3284,77.5084 39.6618,76.8417 40.5,76.5 Z"/></g>
<g><path style="opacity:1" fill="#0a0f40" d="M 54.5,67.5 C 54.4809,69.0603 54.1476,70.5603 53.5,72C 56.835,74.6879 57.5017,78.0212 55.5,82C 56.8581,89.106 57.5248,96.2727 57.5,103.5C 63.9049,102.406 66.2382,105.073 64.5,111.5C 63.7839,109.444 63.1172,107.277 62.5,105C 58.1679,104.417 53.8346,103.917 49.5,103.5C 49.3068,107.449 48.8068,107.449 48,103.5C 47.8279,96.9867 47.3279,90.6534 46.5,84.5C 45.209,84.7373 44.209,84.404 43.5,83.5C 48.8128,83.3562 50.9794,80.6895 50,75.5C 46.3783,71.3626 43.2116,71.696 40.5,76.5C 39.6618,76.8417 39.3284,77.5084 39.5,78.5C 38.8761,78.0831 38.5427,77.4164 38.5,76.5C 40.4487,74.2082 41.4487,71.5415 41.5,68.5C 45.6344,67.5151 49.9677,67.1818 54.5,67.5 Z"/></g>
<g><path style="opacity:1" fill="#0c2e6b" d="M 12.5,81.5 C 15.1667,81.5 17.8333,81.5 20.5,81.5C 20.5,83.8333 20.5,86.1667 20.5,88.5C 18.5,88.5 16.5,88.5 14.5,88.5C 14.1218,86.079 13.4552,83.7457 12.5,81.5 Z"/></g>
<g><path style="opacity:1" fill="#070d3c" d="M 20.5,81.5 C 23.1667,81.5 25.8333,81.5 28.5,81.5C 27.5448,83.7457 26.8782,86.079 26.5,88.5C 24.5,88.5 22.5,88.5 20.5,88.5C 20.5,86.1667 20.5,83.8333 20.5,81.5 Z"/></g>
<g><path style="opacity:1" fill="#063273" d="M 39.5,79.5 C 40.1667,80.8333 41.1667,81.8333 42.5,82.5C 42.5,83.1667 42.8333,83.5 43.5,83.5C 44.209,84.404 45.209,84.7373 46.5,84.5C 46.5,91.1667 46.5,97.8333 46.5,104.5C 43.1667,104.5 39.8333,104.5 36.5,104.5C 36.5,103.5 36.5,102.5 36.5,101.5C 36.495,93.8984 37.495,86.5651 39.5,79.5 Z"/></g>
<g><path style="opacity:1" fill="#e88813" d="M 21.5,89.5 C 25.5,89.5 29.5,89.5 33.5,89.5C 33.5,94.1667 33.5,98.8333 33.5,103.5C 29.7016,104.483 25.7016,104.817 21.5,104.5C 16.3054,104.821 11.3054,104.487 6.5,103.5C 11.5,103.5 16.5,103.5 21.5,103.5C 21.5,98.8333 21.5,94.1667 21.5,89.5 Z"/></g>
<g><path style="opacity:0.118" fill="#a9913c" d="M 14.5,88.5 C 16.5,88.5 18.5,88.5 20.5,88.5C 22.5,88.5 24.5,88.5 26.5,88.5C 29.1667,88.5 31.8333,88.5 34.5,88.5C 34.5,93.5 34.5,98.5 34.5,103.5C 34.1667,103.5 33.8333,103.5 33.5,103.5C 33.5,98.8333 33.5,94.1667 33.5,89.5C 29.5,89.5 25.5,89.5 21.5,89.5C 18.9407,89.8016 16.6074,89.4682 14.5,88.5 Z"/></g>
<g><path style="opacity:1" fill="#f6cc13" d="M 14.5,88.5 C 16.6074,89.4682 18.9407,89.8016 21.5,89.5C 21.5,94.1667 21.5,98.8333 21.5,103.5C 16.5,103.5 11.5,103.5 6.5,103.5C 6.16667,103.5 5.83333,103.5 5.5,103.5C 5.33418,98.8215 5.50085,94.1548 6,89.5C 8.71914,88.5562 11.5525,88.2229 14.5,88.5 Z"/></g>
<g><path style="opacity:1" fill="#4f454e" d="M 13.5,95.5 C 15.1765,96.1834 15.8432,97.5168 15.5,99.5C 14.5,99.5 13.5,99.5 12.5,99.5C 12.4326,98.0413 12.7659,96.7079 13.5,95.5 Z"/></g>
<g><path style="opacity:1" fill="#cb3e21" d="M 13.5,95.5 C 12.7659,96.7079 12.4326,98.0413 12.5,99.5C 13.5,99.5 14.5,99.5 15.5,99.5C 11.6718,101.361 10.0051,100.027 10.5,95.5C 11.5,95.5 12.5,95.5 13.5,95.5 Z"/></g>
<g><path style="opacity:1" fill="#030b3f" d="M 46.5,84.5 C 47.3279,90.6534 47.8279,96.9867 48,103.5C 48.8068,107.449 49.3068,107.449 49.5,103.5C 53.8346,103.917 58.1679,104.417 62.5,105C 63.1172,107.277 63.7839,109.444 64.5,111.5C 63.8902,112.391 63.5569,113.391 63.5,114.5C 49.1667,114.5 34.8333,114.5 20.5,114.5C 21.3242,111.236 21.6576,107.902 21.5,104.5C 25.7016,104.817 29.7016,104.483 33.5,103.5C 33.8333,103.5 34.1667,103.5 34.5,103.5C 35.1667,102.833 35.8333,102.167 36.5,101.5C 36.5,102.5 36.5,103.5 36.5,104.5C 39.8333,104.5 43.1667,104.5 46.5,104.5C 46.5,97.8333 46.5,91.1667 46.5,84.5 Z"/></g>
<g><path style="opacity:1" fill="#05326f" d="M 5.5,103.5 C 5.83333,103.5 6.16667,103.5 6.5,103.5C 11.3054,104.487 16.3054,104.821 21.5,104.5C 21.6576,107.902 21.3242,111.236 20.5,114.5C 13.8333,114.5 7.16667,114.5 0.5,114.5C 0.5,113.833 0.166667,113.5 -0.5,113.5C -0.5,110.5 -0.5,107.5 -0.5,104.5C 1.3792,103.659 3.3792,103.325 5.5,103.5 Z"/></g>
</svg>
